/* XPM */
static char *wall_bot_right_64[] = {
/* columns rows colors chars-per-pixel */
"64 64 165 2 ",
"   c None",
".  c #26221C",
"X  c #29251F",
"o  c #2D2822",
"O  c #342E25",
"+  c #37322A",
"@  c #3F3529",
"#  c #403629",
"$  c #453A2C",
"%  c #4C4132",
"&  c #534635",
"*  c #574937",
"=  c #584936",
"-  c #5C4D3A",
";  c #5E503D",
":  c #6A573F",
">  c #6F5C43",
",  c #705C43",
"<  c #766147",
"1  c #766349",
"2  c #7A664B",
"3  c #7E694D",
"4  c #866B4A",
"5  c #8A6E4B",
"6  c #8D714D",
"7  c #93734C",
"8  c #99764C",
"9  c #9B794E",
"0  c #826D51",
"q  c #877256",
"w  c #8D7351",
"e  c #947652",
"r  c #977952",
"t  c #9C7C54",
"y  c #9D7F59",
"u  c #A17E53",
"i  c #9F8057",
"p  c #9E8059",
"a  c #A38155",
"s  c #A4845B",
"d  c #A9865A",
"f  c #AA885E",
"g  c #A68760",
"h  c #A68862",
"j  c #AD8D63",
"k  c #B08F66",
"l  c #AF9066",
"z  c #AC9069",
"x  c #B19167",
"c  c #B4946A",
"v  c #B9966C",
"b  c #B9996E",
"n  c #A99170",
"m  c #B79A70",
"M  c #B79970",
"N  c #BA9970",
"B  c #BB9A71",
"V  c #BA9A71",
"C  c #BC9B71",
"Z  c #BC9C74",
"A  c #BF9F76",
"S  c #BD9D72",
"D  c #BFA077",
"F  c #BFA076",
"G  c #BFA178",
"H  c #C09D72",
"J  c #C0A175",
"K  c #C0A176",
"L  c #C1A276",
"P  c #C1A179",
"I  c #C0A178",
"U  c #C2A378",
"Y  c #C1A37A",
"T  c #C2A27A",
"R  c #C2A37A",
"E  c #C2A57B",
"W  c #C3A47B",
"Q  c #C4A479",
"!  c #C4A47A",
"~  c #C3A47C",
"^  c #C3A57C",
"/  c #C3A67C",
"(  c #C4A57D",
")  c #C4A67C",
"_  c #C4A67D",
"`  c #C5A77C",
"'  c #C4A57E",
"]  c #C4A67E",
"[  c #C5A67E",
"{  c #C4A67F",
"}  c #C5A67F",
"|  c #C5A77F",
" . c #C4A77E",
".. c #C6A67F",
"X. c #C6A77F",
"o. c #C3A479",
"O. c #C8A77D",
"+. c #C5A87D",
"@. c #C6A87D",
"#. c #C7A87D",
"$. c #C5A87F",
"%. c #C6A87E",
"&. c #C6A97E",
"*. c #C7A87F",
"=. c #C7A87E",
"-. c #C7A87E",
";. c #C8A97F",
":. c #C9AA7F",
">. c #C9A97E",
",. c #C5A780",
"<. c #C6A780",
"1. c #C7A780",
"2. c #C6A880",
"3. c #C7A880",
"4. c #C6A980",
"5. c #C7A881",
"6. c #C6A981",
"7. c #C7A981",
"8. c #C7A980",
"9. c #C6AA81",
"0. c #C7AB81",
"q. c #C6AA80",
"w. c #C7AA82",
"e. c #C8A981",
"r. c #C8A881",
"t. c #C8AA81",
"y. c #C8AB81",
"u. c #C9AA80",
"i. c #C8A982",
"p. c #C8AA82",
"a. c #C9AA82",
"s. c #C8AB82",
"d. c #C9AB82",
"f. c #C9AA83",
"g. c #C9AB83",
"h. c #CAAB83",
"j. c #CAAC81",
"k. c #CAAC83",
"l. c #CAAD83",
"z. c #CDAE83",
"x. c #C9AB84",
"c. c #CAAB84",
"v. c #CAAD84",
"b. c #CBAD84",
"n. c #CBAC85",
"m. c #CBAD85",
"M. c #CBAE84",
"N. c #CCAC85",
"B. c #CCAD85",
"V. c #CCAE85",
"C. c #CDAE86",
"Z. c #CDAE87",
"A. c #CCAF86",
"S. c #CEAF87",
"D. c #CBAC82",
"F. c #CEAF88",
"G. c #CDB087",
"H. c #CEB086",
"J. c #CEB088",
"K. c #D0B38A",
"L. c #D1B48B",
"P. c #D0B389",
"I. c #D6B98F",
"U. c #D7BA90",
"Y. c #D8BB91",
/* pixels */
"j.j.j.;.j.*.*.*.*.*.^ ^ *.*.*.*.*.*.^                                                                                           ",
"j.j.j.j.j.j.3.3.3.3.3.3.3.3.3.j.j.3.^                                                                                           ",
"j.j.j.j.j.j.3.1.3.j.3.3.*.^ ^ 3.j.3.j.                                                                                          ",
"^ ^ ^ 3.j.j.3.3.j.j.1.^ ^ ^ ^ ^ ^ ^ j.                                                                                          ",
"D A ^ j.3.3.3.3.3.3.1.^ ^ 1.^ A A G ^                                                                                           ",
"j.^ ^ 3.3.^ ^ 1.1.3.j.j.j.j.j.^ A ^ ^                                                                                           ",
"j.j.1.^ 1.1.1.^ 3.j.j.j.j.j.j.j.3.^ ^                                                                                           ",
"^ 1.1.1.1.3.3.1.3.3.j.j.j.j.J.j.j.j.^                                                                                           ",
"1.1.1.1.^ ^ ^ ^ 1.j.j.j.j.j.j.j.J.K.j.                                                                                          ",
"1.1.1.^ ^ ^ 3.j.j.1.j.j.j.j.j.j.j.K.K.                                                                                          ",
"3.1.^ ^ ^ ^ 3.K.j.^ 1.j.j.^ K ^ ^ ^ 3.                                                                                          ",
"v M v v b v v v v A A A A b v v b v v                                                                                           ",
"7 e r s d s u 8 r d d d s u 7 7 8 8 9                                                                                           ",
"7 7 r u d d s 9 7 u d d 9 u 9 7 7 7 7                                                                                           ",
"s s u u s d d u u u u r 7 9 r 9 7 7 7                                                                                           ",
"j f d d f d s s s s u 8 7 9 u r 9 r u                                                                                           ",
"s s r u s d s 9 s s s u r r s s s s d                                                                                           ",
"5 5 5 6 7 6 5 4 4 4 5 5 5 4 5 6 6 7 e                                                                                           ",
"s s s s s r 5 5 5 4 4 4 4 5 5 5 5 6 4                                                                                           ",
"j v x x x j r e r r s p y p p p s s y                                                                                           ",
"h j k x x j r e f s s s s s i s s s p                                                                                           ",
"A K K ^ ^ K v s f s s s s s s s d s r                                                                                           ",
"^ ;.;.j.j.;.b f f s s s s s s d d s r                                                                                           ",
"^ j.j.j.j.;.b f j s s s s s s d d s r                                                                                           ",
"^ j.j.;.;.^ v s f r r r r r s s s s r                                                                                           ",
"^ j.;.;.^ ^ x s s r r r r r r s s s r                                                                                           ",
"^ j.j.;.;.^ v s r r r r r r r r r s r                                                                                           ",
"^ ;.;.;.^ ^ v r r r r r s r r r r u e                                                                                           ",
"j.H.j.j.j.j.j.*.^ D A D D A A M A A z                                                                                           ",
"3.H.H.j.j.H.K.H.j.j.3.*.^ ^ G ^ ^ G M                                                                                           ",
"A ^ ^ K ^ ^ ^ A v v v v v x j k k j s                                                                                           ",
"A K K K K K A b v v v v v v v v v v h                                                                                           ",
"A K K K K K K b v v v b v v v b b v h                                                                                           ",
"A ^ K K K K K A v v v b v v v b v v j                                                                                           ",
"D ^ ^ ^ K K K K b v b b b b b b v v p                                                                                           ",
"K ^ ^ ^ K K K K v v b b b b b b b v 0                                                                                           ",
"^ ^ ^ ^ K K K A x j x v v v v v v v 2                                                                                           ",
"H.K.H.j.j.j.H.*.s r s s s s s s s s >                                                                                           ",
"K K A A A K K A s r s s s s s s s s ,                                                                                           ",
"A A A A A A D A j j x v v v v v v v 2                                                                                           ",
"A A A H A A K D j j v v v v v v v v 2                                                                                           ",
"A A b b b A K K j j v v v v v v v v 2                                                                                           ",
"x k j k x x b A j v A A A A b v v v 1                                                                                           ",
"s s s f j j x b v A ^ ^ K K A b b v 3                                                                                           ",
"x j j j j x v b A ^ j.;.O.^ K K ^ ^ q                                                                                           ",
"A A A A A A A A K j.I.I.I.I.I.I.I.I.n                                                                                           ",
"K K A A A A A A ^ j.I.Y.Y.Y.Y.U.U.Y.j.                                                                                          ",
"K ^ ^ ^ ^ ^ A A A K ^ ^ ^ ^ ^ ^ A K A                                                                                           ",
"K K ^ ^ ^ ^ ^ A K A x k k x v v j j j                                                                                           ",
"j j v v v v v v v k j x x x v v x e 4 & o                                                                                       ",
"6 e s s s s s u u s s v v v v v v ; + o X                                                                                       ",
"r s f d d d s s s s s v A b b A b < % O .                                                                                       ",
"s f j f d d s s s s s k b b A A A w : @ .                                                                                       ",
"x v v v x x x j j j j x A ^ ^ ^ ^ v 2 # .                                                                                       ",
"A A A A A b v v v v x b ^ ;.j.j.j.j.h $ .                                                                                       ",
"K A A A A b b v v v v b A ^ K K ^ ^ A & X                                                                                       ",
"A b v v v v v v x j j j k k j j k v j = X                                                                                       ",
"A b v v v v v v k k j j v v v v v v j = o                                                                                       ",
"A v v v v v v v v v k l x v v v v v j = O                                                                                       ",
"b v j j l j j x j j j j j j j v v v x < =                                                                                       ",
"v j j s s s s s s s s s s j j j j j x p r                                                                                       ",
"s r r e e 6 6 5 5 5 5 5 6 6 7 e r r p s g                                                                                       ",
"v v x x j l j f s s s s s s s j s s j v j                                                                                       ",
"v v v v b b v v x j j j f s s j f f j v s                                                                                       "
};
