/* XPM */
static char *wall_top_bot_64[] = {
/* columns rows colors chars-per-pixel */
"64 64 179 2 ",
"   c None",
".  c #6F583C",
"X  c #735B3E",
"o  c #7D6443",
"O  c #816746",
"+  c #846947",
"@  c #856A48",
"#  c #8C6F4A",
"$  c #8E714C",
"%  c #92744E",
"&  c #98784F",
"*  c #937650",
"=  c #977852",
"-  c #9C7C53",
";  c #9B7E59",
":  c #A07F54",
">  c #9F8057",
",  c #9E8059",
"<  c #A38157",
"1  c #A5845B",
"2  c #A9875C",
"3  c #A7885F",
"4  c #AA895E",
"5  c #A58760",
"6  c #A78861",
"7  c #AD8D62",
"8  c #B08F64",
"9  c #AF9067",
"0  c #B29166",
"q  c #B5946A",
"w  c #B9976B",
"e  c #B7986D",
"r  c #BA9A6E",
"t  c #BD9D72",
"y  c #BFA074",
"u  c #BFA178",
"i  c #C09E73",
"p  c #C2A176",
"a  c #C5A57A",
"s  c #C9A77C",
"d  c #C7A87D",
"f  c #CAAA7E",
"g  c #C7A980",
"h  c #C9AA81",
"j  c #C8AA82",
"k  c #C8AA83",
"l  c #C8AB83",
"z  c #C9AB83",
"x  c #CBAC81",
"c  c #C9AC83",
"v  c #CAAC82",
"b  c #CAAC83",
"n  c #CCAD83",
"m  c #CCAE82",
"M  c #CDAF83",
"N  c #C9AB84",
"B  c #C9AC84",
"V  c #C9AC85",
"C  c #CAAC84",
"Z  c #CAAD84",
"A  c #CBAD84",
"S  c #CAAD85",
"D  c #CBAD85",
"F  c #CBAE84",
"G  c #CAAE85",
"H  c #CBAE85",
"J  c #C9AD87",
"K  c #CBAD86",
"L  c #CAAE86",
"P  c #CBAE86",
"I  c #CBAF86",
"U  c #CDAF85",
"Y  c #CDAE84",
"T  c #CCAE86",
"R  c #CCAE87",
"E  c #CDAE87",
"W  c #CCAF87",
"Q  c #CDAF87",
"!  c #CCAF86",
"~  c #CCAD81",
"^  c #CCAF88",
"/  c #CDAF88",
"(  c #D1AF84",
")  c #CDB085",
"_  c #CEB085",
"`  c #CFB185",
"'  c #CCB087",
"]  c #CDB087",
"[  c #CDB187",
"{  c #CDB086",
"}  c #CFB186",
"|  c #CEB187",
" . c #CEB087",
".. c #CEB085",
"X. c #CCB088",
"o. c #CDB088",
"O. c #CDB188",
"+. c #CDB189",
"@. c #CEB088",
"#. c #CEB188",
"$. c #CFB188",
"%. c #CEB089",
"&. c #CFB089",
"*. c #CEB189",
"=. c #CFB189",
"-. c #CEB289",
";. c #CFB289",
":. c #CFB389",
">. c #CFB288",
",. c #CEB08A",
"<. c #CEB18A",
"1. c #CFB18A",
"2. c #CEB28A",
"3. c #CFB28A",
"4. c #CFB38A",
"5. c #CFB28B",
"6. c #CFB38B",
"7. c #D0B286",
"8. c #D1B186",
"9. c #D0B389",
"0. c #D0B18A",
"q. c #D0B28A",
"w. c #D0B38A",
"e. c #D0B28B",
"r. c #D0B38B",
"t. c #D1B38B",
"y. c #D1B28B",
"u. c #D1B489",
"i. c #D1B48A",
"p. c #D0B48B",
"a. c #D1B48B",
"s. c #D0B48A",
"d. c #D2B58B",
"f. c #D0B38C",
"g. c #D1B38C",
"h. c #D1B38D",
"j. c #D2B38D",
"k. c #D0B48C",
"l. c #D1B48C",
"z. c #D0B48D",
"x. c #D1B48D",
"c. c #D1B58D",
"v. c #D2B48D",
"b. c #D2B58D",
"n. c #D1B68D",
"m. c #D2B48E",
"M. c #D2B58E",
"N. c #D3B58E",
"B. c #D3B58F",
"V. c #D1B68E",
"C. c #D2B68E",
"Z. c #D3B68F",
"A. c #D2B78F",
"S. c #D3B78F",
"D. c #D3B68E",
"F. c #D4B68F",
"G. c #D4B78F",
"H. c #D2B58A",
"J. c #D4B88E",
"K. c #D3B790",
"L. c #D4B690",
"P. c #D4B790",
"I. c #D5B790",
"U. c #D4B791",
"Y. c #D5B791",
"T. c #D3B890",
"R. c #D4B890",
"E. c #D5B890",
"W. c #D4B891",
"Q. c #D5B891",
"!. c #D4B991",
"~. c #D5B991",
"^. c #D6B891",
"/. c #D6B991",
"(. c #D5B992",
"). c #D6B892",
"_. c #D6B992",
"`. c #D6BA93",
"'. c #D6BA90",
/* pixels */
"                                        / D.D.#.#./ D.#.D.'.'.Y.Y.D.D.Y.Y.D.#.#.#.D.#.F                                         ",
"r t r q r p f F F F F F #.#.#.D.#.g a q a D.D.#.D.D.D.D.D.Y.Y.Y.D.Y.Y.D.D.D.D.#.D.D.D.F t a F #.#.D.#.#.D.D.D.D./ #.D.F F F g a ",
"t r r w i a f F F g g F F D.D.#.F a t 7 t F g F #.D.D.D.Y.Y.Y.D.D.'.Y.#.D.D.D.#.D.D.#.F 9 t a F #.D.D.F F D.'.Y.D.D.D.D.D.D.F F ",
"t r r p p p f F F F F F F #.#.#.F a q 3 t F a g / / #.D.'.'.D.Y.'.Y.'.D.D.'.D.#.#.#.D./ 7 q a F #.D.Y.D.D.D.'.D.D.D.D.'.'.Y.D.D.",
"t r t a a p f F ) #.#.F F F f s f a r 3 u F a a F D.D.Y.Y.'.D.Y.Y.Y.'.Y.Y.'.'.Y.D.D.D.#.7 q a F #.D.D.Y.'.'.#.D.D.D.D.'.'.D.D.D.",
"r p p a a f F ) ) #.#.) a p p a a a t 7 a #.g F D.Y.Y.D.D.Y.D.D.'.'.'.D.D.Y.Y.Y.Y.Y.Y.#.7 t a F #.D.D.Y.'.'.D.#.D.D.Y.Y.D.D.D.D.",
"t p p a a f F ) D.D.) ) F f a F g u q 3 a D.#.#.D.D.D.D.D.'.Y.D.Y.'.D.D.D.D.D.D.D.Y.Y.#.q t g F #.D.D.D.Y.'.'.#.F D.D.D.D.D.D.Y.",
"r i p a f F ) 7.D.D.) #./ #.) F F t 7 3 g '.D.D.#.D.D.D.D.D.D.D.Y.'.D.D.D.D.D.D.D.D.D./ q t a F #.#.D.D.D.D.D.D.D.D.D.D.D.D.Y.D.",
"t p a a f F ) ) ) ) #.F #.D.#.F F a e 7 g '.Y.D.D.D.#.D.D.#.D.Y.'.'.D.D.D.#.#.F F F / F q t a ) #.#.#.D.D.D.D.#.#.D.D.D.D.D.Y.D.",
"p p p a d F F F #.#.) F #.D.D.D./ g u q F D.Y.Y.Y.D.D.'.Y.D.D.D.'.'.D.Y.D.D.#.#.F g / F q t F #.#.#.#.D.D.D.D.#./ D.D.#.#.#.D.D.",
"p i i p a a a F F F F #.D.D.#.) F g a q t t t t t e t t t t t t t u t t t t t t t t t t q a F D.D.D.D.D.D.D.D.#.#.D.D.D.D.D.D.D.",
"a a p p a a g F F F D.D.D.D.D.D.#.F g u q 0 0 0 7 7 7 7 7 7 7 7 7 7 7 7 7 0 q q 0 7 7 7 t a F #.D.D.Y.Y.D.D.F a #.D.D.D.D.#.) D.",
"J.J.D.D.J.D.D.J.D.J.J.J.J.'.'.'.'.J.D.F p q q r t t t t q q q 8 7 7 7 7 7 0 0 0 q q r p a a a a d F F F f f d F F F F f a a a a ",
"f f f f f d a a a d f f f d d d a a a a t 7 7 0 0 q w q 0 0 q q 0 8 7 3 7 7 3 3 7 7 0 t a p t t p p p p p t p p p p p t t r q q ",
"f d a s s d d d f F F F F f f a a a a a t 7 0 q q q q q 0 0 0 0 0 8 8 8 8 8 7 7 7 0 q t a p p t i t t u t t p p p p p p p t t r ",
"a d a d f f f f f F F ) ) F d a a a a a t 0 q e q q q 0 q 0 0 7 7 7 7 7 7 7 7 7 7 0 q t f p p t t t t t t t t i i p p p p p t r ",
"a f d d d d f f f f F F F f d a a a a f p q q w e q q q 0 q 0 8 7 7 7 7 7 7 7 7 0 0 w r a p t t t t p i t t t t t t p p p p t r ",
"a a s d d d a d f f f f d a a a a f f f a r q q q q q q 0 0 0 0 8 7 7 3 3 3 3 3 0 0 q r a t i t t i p p t t t t t i p p a p t r ",
"a a a a a a a a a a a a a a p a a f f d a r q q q q 0 0 0 0 0 7 7 3 3 3 3 3 3 7 0 0 0 q a t t t t t t t t t t t t t p p p p t r ",
"a a a a a a a a a a a a a a p p a a a a p q q q q 0 0 0 0 0 0 7 7 3 3 3 3 7 7 7 8 0 q q t r r r r t t t t t t r r t p p p t t t ",
"a a p p a a a a p r r r r w q 0 q r e r r q q q q 0 0 q q q 0 7 8 q r r w q q 8 0 r t p a p t p a a a a p p p t p p a a a a a a ",
"t t r t p p a a p q q q 0 0 7 7 8 8 7 7 7 3 3 3 3 3 3 3 7 7 3 3 7 3 q e q r q 7 3 8 0 t t r w r t t r r r r q t a p a p p a p i ",
"r r t i p a p p r r t r q r r r t t r r r q q q 8 8 q q q q 0 3 7 3 7 q t t r 0 3 3 7 r w q q q q q q q 0 0 0 q p i i i i i t t ",
"r r r t i t t t t t p p p p t t p p t t r t t t t u a a p p t q q 0 q w r q r q 0 3 7 r r q q q q q q q q q 0 0 t r r r r r r t ",
"r r r r i t t p a t a f f f f f f f f f f f f f F F F F F f a t t q q q r q r t t q 0 r r r q q q q q q q q 0 0 r w r r r r r r ",
"r r r t t i i p d t a d f f f f F F F f f f f f f F F F f f a t r 0 0 0 0 q w r t t r r r r q q q q q q q q 8 0 r r r r r r r r ",
"r t t t t t p p f t a f f f f f F F F F f F F f f f F F f a p r q 7 7 7 7 0 q r t r r r r r e q q q q q q q 0 q t r r r t r r r ",
"t t r r r t p p a u a f f f f f f F F F F f F F f f f f f f a w 0 8 7 7 7 9 q q w r r r r r r q 0 q q q q 0 8 0 t r r r r t r r ",
"p p t t t t p p p t p a a d d f f d d a a f f f F f f f f d p w w r r r r e e r r t t t r r t r r r e q q q q r r r r r r r r r ",
"p p t p p p a f f a p p p p p a a a a d F F ) D.D.D.D.D.) ) ) 7.D.) ) ) F F F F ) 7.D.) d p t r q r r q q 0 0 q r r t t q 0 0 0 ",
"r r r t t t t u p u t t t t t u p t t p F F f f f F F F f f F F F F F F f d d d d f f F a q 0 7 0 0 0 0 8 8 7 7 7 0 0 8 7 3 3 7 ",
"r r r r t t t u t t t t t t t t p t r i f a a d a a a a p a a a a d f f a a a a a a a f p 0 8 8 0 0 0 8 8 8 7 7 7 8 7 7 7 7 7 0 ",
"t r r r r t t t t t t t t t i t t t t p f d f f d a a p p p a a d d f f f f f f d a a a t 0 0 0 0 8 7 8 8 7 7 7 7 7 7 7 7 7 7 7 ",
"r r r r r r t t t t t t t t t t t t t p d a d d d a a p p p p a a d f f d f f f d a p t t 0 0 0 0 8 7 7 7 7 7 7 7 7 8 8 8 7 3 7 ",
"t r r r r r t t t p p t t t t t i p p p d a d a a a a a a a p a a f f f f f f f f d t q r 0 0 0 0 0 8 7 8 0 0 0 8 7 7 3 7 8 7 8 ",
"t t r r t t t t p a a p p p p p p p p p a a d a a a a a a a a a a d f f f f f f f f a r 0 0 0 0 0 q q q q q q q 0 0 7 7 3 3 3 3 ",
"p u t t t t t i p a a p p p p t p p t t t p a a f d a a p p p p a a f f f f f f f f a r 0 0 0 0 0 q w r r r r q 0 0 0 7 3 3 3 3 ",
"F F f f f a a p a F ) ) F f f f f f f f F F F ) D.D.) F f f f f p p p a a p a a a p p t r 0 0 0 q q q r w r r r p a a p t t t r ",
"7.7.7.F F F F F f f ) ) F F F f f f f f f f F F ) ) F F f d f F t 0 q q q 0 0 q 0 8 8 7 3 ; < 3 3 3 3 3 3 7 3 q 7.7.F F f f f f ",
"7.7.( ( ( ) ) ) a t t t i i t t t r r t t t p p p p t t t t p a p r p p p p p p i t t r r 7 3 7 0 q w w r r q r F F F f f f F F ",
"( ( ( 7.7.7.7.F p t r r i i t t t t t t t r t t t t t t i i p a p p f f f f f s s a p p p r 0 7 q i p a s p r r f f f f f f f F ",
"f F ( ( 7.7.7.F p r r t t p p t t t t t t t r t r t t t i i p a p p f f f s s f a a p p p r 0 8 q i s s s s t r f f f f f f f f ",
"f f f F ( ( ( f u r r t i p p p p i t t t p u t r r r r t t u a t p f f f s s a a a p p p p t q 8 0 i a s s t r a f s p i i i i ",
"f f f F ( ( F f t r t t p p p p p p i t t t t t r r r r r r t a t p f f s s s a a a p p p p t q 8 0 q w i i w q i p r w w w w w ",
"f f F F F F F s i t p p p a a p p p p t t i i t r r r r r r t a i p f f s a a s s p p p p r 0 8 0 0 0 q t t q r a i r w w w w w ",
"s a p p a a a a p t p p p i t t p t r t t p p u t t t t t t t p t p a a a a p p p i t r q 7 3 3 7 7 7 0 r t q r p p p i r w w w ",
"> ; ; ; ; < 3 3 ; ; 3 3 3 3 3 3 3 ; ; 7 f F F F f f f f s f F F 7.D.D.) F F F F f f d p q 7 7 8 0 0 r r t t r t p i i t q 7 3 3 ",
": < < ; ; : < ; & ; < < < 3 3 3 3 < & > F F F F f f f f f f F F 7.D.D.7.) F F f f f f f r 3 3 3 3 7 0 r t r r t t r t r r 8 3 3 ",
"3 7 7 3 3 3 3 < < < 3 3 3 3 3 3 3 3 ; ; p a s a a f f f f F F F 7.D.7.) F F F f s a p p r 0 8 8 3 3 3 q i t t i t t t t r 0 0 0 ",
"3 3 3 3 : < 3 < < : < 3 < 3 3 < ; ; & ; t p p p p p a p a s F F ( 7.7.) F f f f s f d p p t q 0 0 3 8 w t i i i r r r r r w r q ",
"3 < : : ; : < < < ; ; < < < : : ; ; & ; r t p p i i t t t a f f f F F f f f f f f f f a a p r r r q r r r i i r r r r r r w r w ",
"; ; & & ; ; : ; & ; ; : : < : ; ; ; & ; r p p i t t t t t p a p p a f f f f f f d f F F f p t r r r r r r r r r q q w q w w w w ",
"& & & $ & & ; ; & ; ; ; ; ; ; ; ; ; $ = r p p p i t r r r t i t t r i a a p p a a s F F f t t t r r w q w r r q 0 0 q q q q q 0 ",
"& # O O @ # $ $ # # $ # # # # $ & # + $ 3 0 q q q q 0 7 7 7 8 7 7 7 7 q r q q q q t p p t q q q 0 0 0 7 7 7 7 3 3 3 3 3 3 3 3 3 ",
"o X . X o o O o o O @ @ O O + + + O o + # $ & & & $ & & $ # $ & & & & = = = & = = & = = = = = = & = = = = & @ $ $ & & & $ & & $ ",
"3 ; > 3 3 3 7 7 7 7 7 7 7 7 3 3 3 7 7 7 7 7 0 0 q 7 3 3 3 3 3 3 3 3 3 3 3 3 3 3 3 3 3 3 3 3 3 3 3 3 3 3 7 7 6 7 7 0 8 7 7 7 q q ",
"p p p i i p a a p a a p t t r q 8 r i p p p p a a t q q q w q q 8 8 0 0 8 8 q q q q q q q q q q 0 q 0 q q q t a p p i r r t a a ",
"p a a a p a a a a a a a a p t w q r t p p p t p a t q q q w w q q 8 q q q q q q q q q q q q q q q 0 0 q q q t t q 0 q r t t a a ",
"t t a a a p a a a a a a a i w q r t t t i a a p p t q q q q q q q q q q q q q q q q q q q q q q q q q q q r t p r w t p p i t t ",
"t t a a p p p i p a p a a a t r i p t t i i t t t t q q q q q q q q q q q w q q q q q q w q q q q 0 q q q q t a a p p a i i t q ",
"p i a p p a p p i t t a a a t t p p i p t t t t t t q q 0 q 8 0 0 0 0 0 q q q q q q q q q q q q q 0 q q q q q i a a i r t p i t ",
"t t i i p p i p i t t t p p p i i t t p t t r t t w q q 0 7 7 7 7 7 7 7 8 0 q w q q q q q q q 0 7 0 q 0 q q q t a p q 3 q p t t ",
"w q r t t t t t t t r r t t t t t r t t t r q r r 0 7 7 7 7 7 3 7 3 3 7 8 8 8 q 7 q q 7 7 0 q 7 7 7 7 7 3 7 7 r t w 7 3 0 q 7 0 ",
"3 3 7 0 8 0 0 q q 0 7 7 7 7 7 7 8 0 0 q 8 8 8 8 7 3 < 3 3 3 3 3 3 ; : 3 ; ; < 3 3 7 3 3 3 3 3 < 3 : 3 ; ; 3 3 8 7 3 3 3 3 3 3 3 "
};
