/* XPM */
static char *wall_bot_left_64[] = {
/* columns rows colors chars-per-pixel */
"64 64 156 2 ",
"   c None",
".  c #5A4B34",
"X  c #604F38",
"o  c #66543B",
"O  c #68563C",
"+  c #6C583F",
"@  c #6F5B41",
"#  c #766045",
"$  c #796246",
"%  c #7F6749",
"&  c #826949",
"*  c #8A6E4A",
"=  c #8C714E",
"-  c #94744E",
";  c #8F7350",
":  c #937551",
">  c #967955",
",  c #9C7B53",
"<  c #9A7D58",
"1  c #A17E55",
"2  c #9F8059",
"3  c #A38157",
"4  c #A5835A",
"5  c #A9875C",
"6  c #AA895E",
"7  c #A88760",
"8  c #AC8C63",
"9  c #B08F65",
"0  c #B29166",
"q  c #B4936A",
"w  c #B8976D",
"e  c #BA996E",
"r  c #B79870",
"t  c #BD9D72",
"y  c #BEA075",
"u  c #BFA075",
"i  c #BFA074",
"p  c #BFA176",
"a  c #BFA177",
"s  c #BFA077",
"d  c #BFA075",
"f  c #BFA078",
"g  c #C09F75",
"h  c #C0A175",
"j  c #C0A176",
"k  c #C1A176",
"l  c #C0A177",
"z  c #C1A176",
"x  c #C0A178",
"c  c #C0A179",
"v  c #C1A278",
"b  c #C2A278",
"n  c #C1A27A",
"m  c #C2A27A",
"M  c #C2A37A",
"N  c #C2A37B",
"B  c #C3A47B",
"V  c #C3A37C",
"C  c #C3A47C",
"Z  c #C3A57C",
"A  c #C3A57D",
"S  c #C4A57C",
"D  c #C5A57C",
"F  c #C4A57D",
"G  c #C5A57D",
"H  c #C4A67D",
"J  c #C5A67D",
"K  c #C7A77C",
"L  c #C6A77D",
"P  c #C7A77D",
"I  c #C4A57E",
"U  c #C5A57E",
"Y  c #C4A67E",
"T  c #C5A67F",
"R  c #C4A77F",
"E  c #C5A77F",
"W  c #C6A77F",
"Q  c #C4A57A",
"!  c #C8A77B",
"~  c #C7A87D",
"^  c #C5A87F",
"/  c #C7A87D",
"(  c #C8A97E",
")  c #C8AA7F",
"_  c #C9AA7F",
"`  c #C9AA7E",
"'  c #C5A780",
"]  c #C6A780",
"[  c #C5A880",
"{  c #C5A881",
"}  c #C6A880",
"|  c #C7A880",
" . c #C6A980",
".. c #C7A980",
"X. c #C6A881",
"o. c #C7A881",
"O. c #C6A981",
"+. c #C7A981",
"@. c #C6AA81",
"#. c #C7AA81",
"$. c #C7A882",
"%. c #C7AA82",
"&. c #C6AB82",
"*. c #C7AB82",
"=. c #C8A881",
"-. c #C8A981",
";. c #C8AA80",
":. c #C9AB80",
">. c #C8A882",
",. c #C8A982",
"<. c #C9A982",
"1. c #C8AA82",
"2. c #C9AA82",
"3. c #C8AB82",
"4. c #C9AB82",
"5. c #C9AA83",
"6. c #C9AB83",
"7. c #CAAB82",
"8. c #C8AC82",
"9. c #C9AC83",
"0. c #C9AD83",
"q. c #CAAD83",
"w. c #CAAB84",
"e. c #CAAC84",
"r. c #CBAD85",
"t. c #CBAC85",
"y. c #CBAE86",
"u. c #CCAD86",
"i. c #CCAE87",
"p. c #CCAE87",
"a. c #CBAC81",
"s. c #CDAF88",
"d. c #CEAF88",
"f. c #CCB087",
"g. c #CDB087",
"h. c #CEB086",
"j. c #CFB087",
"k. c #CEB186",
"l. c #CCB088",
"z. c #CDB088",
"x. c #CEB089",
"c. c #CEB189",
"v. c #CFB189",
"b. c #CEB088",
"n. c #CEB289",
"m. c #CFB289",
"M. c #CDB18A",
"N. c #CFB288",
"B. c #D0B186",
"V. c #D0B28A",
"C. c #D0B28B",
"Z. c #D2B58D",
"A. c #D3B58D",
"S. c #D2B489",
"D. c #D3B88D",
"F. c #D5B890",
/* pixels */
"                                                                                          m.j.a.Q Q Q Q Q s t Q Q Q Q Q Q Q Q Q ",
"                                                                                          p.m.a.@.] Q t t t f Q ] a.] ] ] ] a.a.",
"                                                                                          m.a.@.] Q Q Q f t Q @.a.@.@.@.] @.a.Q ",
"                                                                                          m.j.@.@.Q Q Q Q Q @.@.a.a.a.a.a.a.@.Q ",
"                                                                                          m.a.@.@.Q Q Q Q ] @.@.a.a.a.a.a.a.a.@.",
"                                                                                          m.a.@.@.a.@.] ] @.a.a.a.a.@.a.a.a.] ] ",
"                                                                                          @.a.@.] ] a.@.@.@.] ] @.] ] @.a.a.] Q ",
"                                                                                          @.a.@.] a.a.@.@.@.Q ] @.a.a.m.V.m.@.] ",
"                                                                                          @.a.a.a.a.a.a.a.a.@.] a.p.m.V.m.a.a.m.",
"                                                                                          @.a.a.a.@.Q Q a.@.Q ] @.a.a.p.a.a.m.V.",
"                                                                                          a.a.a.a.a.] f t Q Q a.a.] ] a.@.@.V.F.",
"                                                                                          0 t t t t t w 0 0 w w r t r 0 0 0 t t ",
"                                                                                          , , , 3 5 6 5 3 3 3 3 1 1 , 1 , - - - ",
"                                                                                          1 1 1 1 5 5 , , 3 3 3 1 , : : - - - - ",
"                                                                                          3 6 6 5 5 3 , , , 1 3 1 > : , , 3 3 3 ",
"                                                                                          6 6 3 3 3 3 3 3 1 3 3 3 3 3 5 6 9 9 6 ",
"                                                                                          6 5 3 1 , , , 3 3 3 3 3 3 5 6 6 5 3 3 ",
"                                                                                          > < , , > : : > > > = = = = ; : = * * ",
"                                                                                            t s s s Q s s t 0 8 6 6 6 6 6 3 3 3 ",
"                                                                                            t h h s t t t t t 0 0 0 0 q q q q q ",
"                                                                                            8 q 0 0 0 0 0 0 0 0 q 8 8 8 8 8 8 8 ",
"                                                                                            t h Q Q h s t s t t t t t t t t s h ",
"                                                                                            Q ( a.a.( ~ ~ ~ ( ~ ~ ~ ~ Q Q ~ ( ( ",
"                                                                                            ~ ( a.a.a.( ( ( a.a.a.a.a.a.a.a.a.a.",
"                                                                                            ~ ( a.a.a.a.( ( ( a.a.a.a.a.a.a.a.a.",
"                                                                                            ( ( a.a.a.a.a.( ( a.a.a.a.( a.a.a.a.",
"                                                                                            ~ a.a.a.a.a.a.a.a.a.a.a.a.( a.a.a.a.",
"                                                                                            Q ~ ( ( ( ( ( ( ( ( ( ( ( ( ( ( ( ( ",
"                                                                                            Q Q Q Q Q Q Q Q ~ a.a.a.j.B.V.V.V.j.",
"                                                                                            t s h s t h h a.j.a.a.a.j.j.B.V.m.m.",
"                                                                                            t t t t t t t Q a.Q Q Q ~ Q Q Q Q Q ",
"                                                                                            t t t t t t t Q ( Q ~ ~ ( ~ ~ Q Q Q ",
"                                                                                            t t t t t t t Q ~ Q ~ ( ~ ~ ~ Q Q h ",
"                                                                                            t t t t t t t Q Q Q Q ~ Q Q Q Q Q Q ",
"                                                                                            t t h h h h t Q Q Q Q Q Q Q Q Q Q Q ",
"                                                                                          Q h t s h h s t g h h Q Q Q Q Q Q Q Q ",
"                                                                                          ( h h h Q h h t h h h Q Q ( a.a.a.( Q ",
"                                                                                          B.V.j.j.j.a.a.j.j.V.B.V.V.V.D.D.V.V.V.",
"                                                                                          ! h h t t t t t t t t h Q Q Q Q h h h ",
"                                                                                          h t t t t t t t t t t t t t t t t t t ",
"                                                                                          t t t t t t t t t t w w w w t t t t t ",
"                                                                                          w h t t t t t t t t t w w w w t t t t ",
"                                                                                          q t t t w w w t t 0 0 q 8 8 8 8 8 8 8 ",
"                                                                                          9 t t 0 w w w q q 6 5 5 5 3 3 3 3 3 3 ",
"                                                                                          8 w w 0 w t t 0 0 0 q q 9 8 8 8 8 8 8 ",
"                                                                                          0 t t t t t t t Q Q Q h h h Q Q h t t ",
"                                                                                          w Q t t t t h t Q Q Q Q Q Q Q Q h s t ",
"                                                                                          t t 0 0 0 t Q t t g t t t w 0 0 0 0 0 ",
"                                                                                          t 0 8 8 0 t Q t t t t 0 0 0 0 0 q 0 0 ",
"                                                                                        $ 8 8 5 8 8 8 8 8 0 t 0 q q 9 9 8 8 8 8 ",
"                                                                                      o O , > , 3 1 , - * 6 0 0 0 0 0 q q 8 6 , ",
"                                                                                      . o 3 3 3 5 5 3 , : 8 t h g t t w w 0 9 3 ",
"                                                                                      . O 8 0 0 0 0 q 8 8 w t g t t t w t w 0 0 ",
"                                                                                      . O 8 Q a.a.a.( ( ( a.a.( ~ Q Q Q Q Q ~ ( ",
"                                                                                      . O t V.V.V.V.V.V.B.V.D.V.V.B.j.V.j.a.j.j.",
"                                                                                      X @ f a.a.~ ~ a.a.( a.a.a.a.a.( a.~ Q Q ~ ",
"                                                                                      + $ 0 w 0 0 0 0 0 0 0 0 0 0 0 0 0 0 0 0 0 ",
"                                                                                      # % 0 0 0 0 0 0 0 0 0 0 0 0 0 0 0 0 0 0 0 ",
"                                                                                      & = 0 w 0 0 0 0 0 0 0 0 0 0 0 0 0 0 0 0 0 ",
"                                                                                      = > w 0 0 q 9 q 0 9 9 0 0 0 0 0 0 0 0 0 0 ",
"                                                                                      , 3 0 8 5 5 7 5 3 3 3 7 8 8 8 7 5 7 8 8 8 ",
"                                                                                      0 0 8 3 , > : : : ; ; ; ; : : ; ; ; : > 2 ",
"                                                                                      Q Q Q t t t t t t t t t t f Q Q Q Q 0 0 0 ",
"                                                                                      Q a.a.( ( ( ( ( ( Q Q Q Q ~ a.a.a.( t w 0 "
};
