/* XPM */
static char *wall_top_left_64[] = {
/* columns rows colors chars-per-pixel */
"64 64 174 2 ",
"   c None",
".  c #1F1C16",
"X  c #201D17",
"o  c #25211A",
"O  c #2A261E",
"+  c #2C2720",
"@  c #2D2820",
"#  c #322D24",
"$  c #383127",
"%  c #3C352A",
"&  c #3F382C",
"*  c #433A2E",
"=  c #463D30",
"-  c #483F31",
";  c #4C4234",
":  c #514637",
">  c #534837",
",  c #524738",
"<  c #554939",
"1  c #5B4E3D",
"2  c #5E503E",
"3  c #60523E",
"4  c #69573D",
"5  c #5F5140",
"6  c #635442",
"7  c #685741",
"8  c #6C5B45",
"9  c #6F5E49",
"0  c #715E46",
"q  c #705F49",
"w  c #766044",
"e  c #7C6446",
"r  c #73614A",
"t  c #7A664C",
"y  c #7D694E",
"u  c #816849",
"i  c #8C704D",
"p  c #91744E",
"a  c #836E51",
"s  c #8B7353",
"d  c #8E7759",
"f  c #947651",
"g  c #967852",
"h  c #9C7C54",
"j  c #947958",
"k  c #9C7E59",
"l  c #A07F57",
"z  c #A07F58",
"x  c #9F8057",
"c  c #9F8059",
"v  c #A08057",
"b  c #A4845B",
"n  c #A8875D",
"m  c #A7885F",
"M  c #A9895F",
"N  c #A48762",
"B  c #A68861",
"V  c #AC8C63",
"C  c #B08F66",
"Z  c #AF9067",
"A  c #AF9068",
"S  c #B19066",
"D  c #B4946A",
"F  c #B9966C",
"G  c #B7986E",
"H  c #B9996E",
"J  c #AB9270",
"K  c #B79970",
"L  c #BC9C72",
"P  c #BFA076",
"I  c #BFA178",
"U  c #C09F75",
"Y  c #C1A176",
"T  c #C4A57C",
"R  c #C9A77D",
"E  c #C7A87E",
"W  c #CAA97F",
"Q  c #C6A780",
"!  c #C5AA84",
"~  c #C7AB84",
"^  c #C6AB86",
"/  c #C7AC85",
"(  c #C7A980",
")  c #C8A981",
"_  c #C8A980",
"`  c #C8AA81",
"'  c #C9AA81",
"]  c #C8AA82",
"[  c #C9AA82",
"{  c #C8AB82",
"}  c #C9AB83",
"|  c #C8AB83",
" . c #CAAB82",
".. c #CAAC83",
"X. c #C9AB84",
"o. c #CAAC84",
"O. c #CAAD85",
"+. c #CBAD85",
"@. c #CAAC84",
"#. c #CBAE85",
"$. c #CBAE86",
"%. c #CBAE87",
"&. c #C8AC85",
"*. c #CCAE86",
"=. c #CCAF86",
"-. c #CCAF87",
";. c #CDAF87",
":. c #CDAF86",
">. c #CCAB81",
",. c #C8AD88",
"<. c #CDAF88",
"1. c #CCAF88",
"2. c #CEAF88",
"3. c #CDB087",
"4. c #CEB087",
"5. c #CDB088",
"6. c #CEB088",
"7. c #CEB089",
"8. c #CEB189",
"9. c #CFB189",
"0. c #CFB088",
"q. c #CEB289",
"w. c #CFB289",
"e. c #CCB08B",
"r. c #CFB18A",
"t. c #CEB28A",
"y. c #CFB28A",
"u. c #CFB38B",
"i. c #CFB28B",
"p. c #CDB28C",
"a. c #D0B18A",
"s. c #D0B28A",
"d. c #D0B38B",
"f. c #D1B38B",
"g. c #D0B28B",
"h. c #D1B38C",
"j. c #D0B38C",
"k. c #D0B48C",
"l. c #D1B48C",
"z. c #D1B48D",
"x. c #D1B58D",
"c. c #D0B58C",
"v. c #D2B48D",
"b. c #D2B58D",
"n. c #D2B48D",
"m. c #D2B58E",
"M. c #D3B58E",
"N. c #D1B68E",
"B. c #D2B68E",
"V. c #D2B68F",
"C. c #D3B68F",
"Z. c #D2B78F",
"A. c #D3B78F",
"S. c #D3B68E",
"D. c #D4B68F",
"F. c #D4B78F",
"G. c #D3B790",
"H. c #D4B690",
"J. c #D4B790",
"K. c #D5B790",
"L. c #D5B791",
"P. c #D3B890",
"I. c #D4B890",
"U. c #D5B890",
"Y. c #D5B891",
"T. c #D5B991",
"R. c #D4B891",
"E. c #D6B891",
"W. c #D6B991",
"Q. c #D6B992",
"!. c #D6B992",
"~. c #D5BA92",
"^. c #D7BA92",
"/. c #D7BA92",
/* pixels */
"&.! ! ! ! ! ,.8.8.8.,.                                                                                                          ",
"8.8.8.B.B.B.B.B.B.W.8.                                                                                                          ",
"B.B.B.B.B.B.B.B.8.B.&.K E &.&.B.B.&.! E E E E E E Q ! ! E ! E E Q E Q Q E Q ! ! E E &.8.B.B.W.W.B.B.W.B.W.W.W.B.J.B.B.B.W.W.B.8.",
"W.W.B.J.J.J.J.B.B.8.E D Y &.&.B.B.&.E E E E E E E ! ! E E E E E E E Q ! E E E ! E I &.&.&.&.&.8.&.&.B.B.B.J.B.B.B.J.B.B.B.&.8.B.",
"W.W.J.J.W.W.W.J.B.B.! D K &.&.8.&.! E E E E E E ! ! ! Q ! ! ! &.Q E Q Q Q E E ! &.&.&.&.&.! E E ! &.&.8.B.B.B.B.B.J.B.B.8.&.E ! ",
"B.B.J.W.J.B.J.W.B.B.E D K &.&.&.&.E E E E E E E Q E E E E E E E E E E E E E E E ! ! &.&.,.&.&.&.&.8.B.B.B.B.B.W.W.W.W.J.B.B.8.8.",
"B.B.B.B.B.J.W.W.W.W.&.S K &.&.8.8.&.E E E E E E E E E E E E E E E E E E E E E E E ! &.8.B.B.8.8.B.W.W.W.W.J.8.8.B.J.B.B.B.B.J.B.",
"B.B.B.B.J.W.W.J.J.B.E D K ! 8.B.B.&.E E E ! Q E E E E E E E E E E E E E E E E E E E E &.8.B.B.B.B.B.J.W.W.W.B.B.B.J.B.B.B.J.B.B.",
"B.J.J.J.W.B.B.B.B.B.E D I ! 8.B.B.&.E E E E ! ! Q ! ! E E E E E E E E E E E E E E E E E 8.J.J.J.J.J.W.W.W.W.W.W.W.J.B.B.J.W.W.B.",
"B.B.B.W.W.W.B.J.J.W.&.D E &.8.B.B.B.8.&.&.&.Q E Q Q E E ! E E E E E E E E E E E E E E E &.W.W.W.W.W.W.W.W.W.W.W.J.B.B.B.B.B.B.B.",
"E E &.8.B.B.B.&.&.,.E K E &.B.B.B.B.B.B.B.B.,.! ! Q E E &.! Q E E ! &.&.! E E E E E E E &.W.W.W.J.W.W.W.W.W.W.B.B.B.B.B.B.B.B.B.",
"h m D K K E E K K K G K ! 8.8.B.B.B.B.B.B.B.B.E ! ! &.! ! ! Q E ! &.&.! E E E E E E E E &.B.W.B.B.B.B.J.B.J.W.B.B.B.B.B.B.B.B.B.",
"u b D K E &.&.K D V V D K K I E I K G K K K D D V V D D D D D D D K E E K K K K E E Q &.&.&.&.&.3.8.3.&.&.&.&.&.&.&.&.W &.&.E E ",
"& w b D K K K G D b h h h l b b b b l h h h h h h h g h h h g f h h V K E G D V D D K K D D D G Y E E E E Y P K K G G G D D D K ",
"# : f m S G G D D k f h h h h v h h h h h h h h h h h h h h h f f h b C E D D S D D D D D S D G K Y Y U Y Y Y K K G D D G G K K ",
"+ & 0 h V D D D D b h b b b v h h h h h h h f f f f f f h h g g h v b V K D D V V V V V V S D K K K K K Y Y E E K K G G G G K K ",
"O # > p b V D D D b h h b b b b h h h v h h f f f g f f f f f h h h b b G D V V V V V V V V V S G K K K Y Y Y E Y K G G G K K P ",
"o + & e b V D G K V h v v b b b b h h h h h h h f f f p p p f g h h v b D V m m V V V V V V V V D G K K Y Y E E Y K K G G G G K ",
"X O & 3 h V D K P V v v v b v l h h h h h h h f p p p p p p p h h h v b D m m m m m V V V m m V G D G K Y Y Y E K K G D G G G G ",
". O & : h V D D G V h v v v h h h h h h h f f p p p p p p f f h h h h h V b b b b b b b b m V V D D D G K K K K K K K K K G G G ",
". O # ; i c b V V V b b b b b b b b c b b h h c b b b b b b b b V V V V V V V V V V V S Z S S S S G K G D K K K Y Y Y Y Y Y K K ",
". o + $ 4 i f h b b h h h h h h h h h k h f c V b b b b b b b V V V S D V V b b V V V m m m V V V K E E K K K K K K K K K K G G ",
"X O # & 1 g b b V V V V m m m V V V S V V b B b b b b b b b m b b b b b b b c h h b b v h h h h h V K K U G D D D S S D D S S C ",
"o + & * : s V V D D D D D D D G G K G G D V m b b b b b b b b b b b b b b b c h h h h k h h v h h b D D G G G D D S D D D D D S ",
"o # & = ; 8 V D D D G K K G K K K K K K D V V b v b b b b b b b b b b b b b b c c h h h h x b b v m D S D D G D D D G G G K K G ",
"O # & - : 1 k D D G K K K K K K K K G D S b B b h h h h h b b b b b b b b b b b c k k h h h b b m S G D G G G G G G G K U K K K ",
"# & * ; : < y D G G K K K G K K K G D S V b b h g h g h h h b b b b b b b b b b b v h h h l b m V D K D G G K K K G D K K K K K ",
"# & * ; < 1 7 V K K K K K K K K G D D D V b k h h g g g g h h b b b b b b b b b h h h h h h b V m S K D G G K K K G G G G G G G ",
"$ & = ; : < 1 a D D G G G G G D D D D D V z h h h x b b h h b b b b b b b b b b b b b b b b V S V D G D D G G G K G G G G G D D ",
"& * - ; : < < 7 B K P E E ! ! &.&.E E E K K E E E E E I K K K K P E E K D V V V V b V B V V S S V G K K K Y K D D D D G G G G G ",
"& * - ; ; : , < d Y P I I I E E E E P K K K P E E E E P K K K K K P K P K b h h h h h h h b m b b b m S D S V m m m V S S V V S ",
"* = ; ; : : : : 8 V D D D V V V V V V V V V S D D D D D D D S S S D D D D h h h h h h h h v b v b b m V V V V V V V S S S S S S ",
"- ; ; : : : : : 1 s D D D D D V V V V V V S D D D D D D D D D D D D D D V h h h h h h h h h h b b b b m V V V V V V V S S S D D ",
"; ; : : : , < < 1 8 B D D D D D V V V V V S D D D G D D D G G D D D D D V h h h h h g p p h h b b m m m V V V V V V V S S D D G ",
": < < : < < < < 1 1 s D D D D S V V V V V Z D D D G D D D G D D D D D D V h h h h h h g p h h h b V V V V m m m V V V S S S D G ",
"< < < < < < < < 1 1 8 V D D D S D S V V V V D D D G G G G G D G G D D D V h h h h h h h h b b h b V S V V m m m b b V C S S D G ",
"< < < < < < < : < < 1 g D D D D D D V V V V S D D G G G G G G G G G D V b h h h h h h v b b v v v b m m V V m b v v b m m V V D ",
"3 2 1 1 2 2 1 2 3 7 7 t K E E Y K G D D D D S V Z D D D D D D D D D V V V b b b b b b b b b b V b m V D K K D D D S S D D G G K ",
"0 0 8 8 8 7 7 8 8 8 8 r J &.&.&.E E K K K P D h h b c c c c b c h h h g f p f f f f f f f f g g g V E &.&.&.&.&.W W E E E E E E ",
"< < < , : : : , , , < , 8 V V m m m b b m V D b b V V m m m m m m b b b v h h h h h h h h z b v h V E &.&.W W W W &.&.&.W W W R ",
"< < , : : , : < < , : : 1 f b b m m m m m V D m D D D D D D D D D V V V m m V V V V V V C C C V b m E W W W W W W W &.&.&.W W W ",
"< < < : : < < < : : : : : 8 b b m m m m m V S m D G G D G D D D S V V V m m V S D D G G G G G C b V E W W W W W W R W W W W W W ",
"< 1 < < < < < < < , < < : 1 s b b m m m m V V b S G D D D D D S V C V V V V C S S D D G G G K K C D E W W W W W W W W W W W W W ",
"1 1 1 1 1 1 1 < < < < : : : 8 h b b b b m V V b C G D D S S S C S S C C V V S C V S D D G G Y E K K W W W W W W W W W R R R R E ",
"3 7 7 7 2 1 1 < , , < : : : 1 f b b b b b C D b D G G D S C S S D D D S D D D D G G G K K Y E E K K W &.&.&.&.&.W W R R E R R E ",
"7 7 7 2 3 1 1 , , < < < < < > t b m b b b V V b C D S D D D D D D D D C C D G G G K U Y Y E E E G G W W &.&.&.&.&.W W R W W E E ",
"; ; ; ; ; ; * = 1 7 7 7 7 7 3 8 B D D G K K E E E E Y K Y E E E E Y K K K G K U Y E E Y Y Y Y E E E W E E E E E Y K K K K K K K ",
"= = = = = = * & 7 8 8 8 8 7 7 3 s G G K U U E W &.W W E E W W W W W W &.W K G K K U K K G K K Y Y Y K K G G K G G G G D D G G Y ",
"; ; ; : : : ; = 7 q 8 8 7 7 7 7 8 D K K E E R &.&.&.&.W W W W W W W W &.W Y Y K K K K K K K Y Y U U K K K K K K G G G G G G G Y ",
"; ; ; : < , : ; 7 q q 8 8 7 7 7 7 k U Y E R W &.&.&.&.W W W W W W W W &.E K U U K G K K K K Y Y U U K K G G G G G G G G G G G Y ",
"< < < < < < : ; 7 9 9 q 9 8 8 8 8 y P &.&.&.&.&.&.&.&.W W R W W W W W &.E P Y K K G G G G K U U K G G G G G G G G G G G G G G K ",
"< < < < < < : ; 7 8 9 9 9 8 8 8 8 9 B &.W W W W W &.W R R R R E E W &.&.W Y P K K G G G G G G G G G D D D D D D D G G G G G D Y ",
"< < < < < < : ; 7 8 q q 9 9 8 8 8 8 t K R E Y Y E E E E E E E E W W &.&.&.K K K K G G D D D D D D D S S D D D D D D D D D D D K ",
": ; ; ; : ; ; ; 1 7 7 7 7 7 7 7 7 7 7 c K G G G G G G G D D G K K Y Y Y K D D D S S S V V V V V V m b m m m m m V m m m V V V S ",
"; ; = * * * * * = = ; ; ; ; ; ; ; ; ; 7 v l g f f f f g f f f f g h h h g f g f f f f f f f h f f h h h h g h h h h h h k b m V ",
"1 : ; ; : < 1 1 < < 1 1 1 1 1 , , < : 7 b m b b b b b b b b b b b b V m b b b b b b b b b V V V D D D D D V D S D D D D G K K G ",
"7 < ; ; ; 1 3 7 7 7 7 7 7 7 7 1 1 1 2 3 g D C V V V V V C D D D D D D D D D D A V C D C D D D D K Y Y Y U K G G K E E U E K U K ",
"8 1 ; ; : < 2 7 7 7 7 7 7 7 7 1 1 1 1 1 t D D C V C D A D C D D D D D D D D D D D D C V D D D D K K D V D G G K K E Y K Y K K E ",
"9 1 * ; , 1 2 2 5 7 7 7 7 7 7 2 1 1 1 1 7 c D S S D D D D D D D D D D D D D D D D D C S D D D G Y K D D D K Y K K K K K Y K K Y ",
"9 2 = ; < 1 2 2 7 7 7 7 7 7 7 1 1 1 1 1 1 t D D D D D D D D D D D D D D D D D D D D C D D D D D K E Y K U E Y K K K S C K K K K ",
"q 5 = ; < 1 1 7 7 7 5 5 5 5 7 1 1 1 1 1 1 7 c D D D D D D D D D D D D D D D D D D D D D D D D D K E E E Y K K Y E K K G K K K K ",
"r 7 ; : < 1 2 7 7 7 7 7 7 7 7 1 1 2 1 1 1 < y V C C D D D D G G D G G D D D D D D D D D D D D D D E E E K V V Y E K U E E Y K K ",
"q 5 ; : < 1 2 7 7 7 7 7 7 7 5 1 1 2 2 1 1 < t V S D D G D D K D D K G D D D K G D D D D D S D D K E E Y D V D K K D K Y E E K K ",
"9 1 - : < 1 2 7 7 7 7 7 7 7 5 1 1 2 1 1 1 1 y D D D D C C S D D K K G D D G K D D D D D V V D D K E E K D D G K G D G K K K K Z "
};
