/* XPM */
static char *wall_right_64[] = {
/* columns rows colors chars-per-pixel */
"64 64 161 2 ",
"   c None",
".  c #6E583D",
"X  c #725B3F",
"o  c #765F41",
"O  c #7B6243",
"+  c #806646",
"@  c #866B49",
"#  c #896D4A",
"$  c #8E714D",
"%  c #947650",
"&  c #997C57",
"*  c #997D59",
"=  c #9E815C",
"-  c #A1835E",
";  c #A9895F",
":  c #A18560",
">  c #A68963",
",  c #AB8C65",
"<  c #B18F64",
"1  c #B39266",
"2  c #B4946A",
"3  c #B8966A",
"4  c #B7986F",
"5  c #BC9A6E",
"6  c #BE9D72",
"7  c #BFA077",
"8  c #BFA178",
"9  c #C09E72",
"0  c #C2A175",
"q  c #C5A479",
"w  c #C5A579",
"e  c #C5A478",
"r  c #C6A479",
"t  c #C6A579",
"y  c #C4A47A",
"u  c #C5A57B",
"i  c #C6A47A",
"p  c #C7A57A",
"a  c #C7A67A",
"s  c #C6A67A",
"d  c #C3A57C",
"f  c #C5A57C",
"g  c #C5A67C",
"h  c #C4A67D",
"j  c #C5A77D",
"k  c #C7A67C",
"l  c #C5A67E",
"z  c #C4A77E",
"x  c #C5A77E",
"c  c #C6A77E",
"v  c #C3A47B",
"b  c #C8A67B",
"n  c #C8A77B",
"m  c #C8A77C",
"M  c #C8A77D",
"N  c #C7A87D",
"B  c #C5A87F",
"V  c #C6A87E",
"C  c #C6A87F",
"Z  c #C6A97F",
"A  c #C7A97F",
"S  c #C6A87F",
"D  c #C8A87C",
"F  c #C9A97D",
"G  c #CAA97C",
"H  c #CBAA7D",
"J  c #C8A87E",
"K  c #C8A97E",
"L  c #C8A87F",
"P  c #C9A97F",
"I  c #C8AA7F",
"U  c #CAAA7F",
"Y  c #CAAA7E",
"T  c #CCAB7E",
"R  c #C6A880",
"E  c #C6A980",
"W  c #C7A980",
"Q  c #C7A981",
"!  c #C7A980",
"~  c #C8AA80",
"^  c #C9AB80",
"/  c #C8AA81",
"(  c #C8AB81",
")  c #C9AA80",
"_  c #CAAB80",
"`  c #CBAB80",
"'  c #CAAB81",
"]  c #C9AA82",
"[  c #C8AB82",
"{  c #C9AB82",
"}  c #CAAA82",
"|  c #CCAB82",
" . c #CAAC81",
".. c #CBAC81",
"X. c #C9AC83",
"o. c #CAAC82",
"O. c #CBAC82",
"+. c #CBAD82",
"@. c #CBAC83",
"#. c #CBAD83",
"$. c #CAAC83",
"%. c #CCAC80",
"&. c #CDAE81",
"*. c #CCAD83",
"=. c #CDAF83",
"-. c #CEAF82",
";. c #C9AC84",
":. c #CBAC84",
">. c #CAAD84",
",. c #CBAD84",
"<. c #CBAE84",
"1. c #CBAE85",
"2. c #CBAF86",
"3. c #CBAE86",
"4. c #CCAE84",
"5. c #CDAF84",
"6. c #CCAE85",
"7. c #CCAF85",
"8. c #CDAF85",
"9. c #CDAE84",
"0. c #CEAF85",
"q. c #CDAD86",
"w. c #CCAF86",
"e. c #CDAF86",
"r. c #CDAF87",
"t. c #CBAD85",
"y. c #CDAF88",
"u. c #CEB083",
"i. c #CDB085",
"p. c #CEB084",
"a. c #CEB185",
"s. c #CFB185",
"d. c #CFB285",
"f. c #CCB086",
"g. c #CDB086",
"h. c #CDB087",
"j. c #CEB186",
"k. c #CFB186",
"l. c #CEB187",
"z. c #CFB187",
"x. c #CFB287",
"c. c #CFB286",
"v. c #CDB087",
"b. c #CDB188",
"n. c #CEB188",
"m. c #CEB288",
"M. c #CFB38A",
"N. c #CEB18A",
"B. c #D0B385",
"V. c #D0B186",
"C. c #D0B387",
"Z. c #D0B388",
"A. c #D1B389",
"S. c #D1B488",
"D. c #D0B48A",
"F. c #D1B58B",
"G. c #D2B58D",
"H. c #D3B88F",
"J. c #D4B790",
"K. c #D5B991",
"L. c #D8BD94",
/* pixels */
"2 1 1 2 1 2 5 5 5 5 1 - - ; < < 2 2 1                                                                                           ",
"5 5 5 5 5 6 0 6 5 5 3 2 1 5 6 5 5 5 1                                                                                           ",
"5 6 0 0 9 9 5 5 3 1 3 5 5 9 0 9 6 5 5                                                                                           ",
"5 0 0 0 0 0 5 5 5 5 5 5 5 9 6 9 6 5 5                                                                                           ",
"5 0 0 0 0 0 0 5 0 0 0 9 6 6 9 9 5 5 5                                                                                           ",
"5 6 0 t 0 0 t 0 0 0 t t 0 5 5 6 5 6 5                                                                                           ",
"6 6 0 n t t n D t t 0 t t 0 t 0 5 2 2                                                                                           ",
"0 t t D D D D D D D t n D t 0 t 0 6 2                                                                                           ",
"0 t t t o.o.l.l.l.o.o.o.D 0 t n t t 0                                                                                           ",
"t t o.o.o.l.V.V.V.V.l.l.o.D o.o.o.o.D                                                                                           ",
"t t o.l.l.l.l.A.V.V.l.l.l.o.o.o.o.o.o.                                                                                          ",
"A t o.l.l.o.l.A.A.A.A.l.l.l.o.o.W o.o.                                                                                          ",
"o.o.o.r.o.o.l.l.l.l.m.m.m.l.o.o.t W o.                                                                                          ",
"o.l.m.l.o.o.o.l.o.o.o.o.o.o.o.W t o.o.                                                                                          ",
"o.V.A.m.o.o.o.o.o.o.t 0 t A W W W l.o.                                                                                          ",
"o.o.o.m.m.l.o.o.A t 6 5 0 D o.o.l.o.o.                                                                                          ",
"o.o.W o.o.o.t W t 6 6 5 5 t o.o.o.o.o.                                                                                          ",
"A t t t t t 6 7 7 6 6 3 3 6 t t t t W                                                                                           ",
"6 6 6 6 2 2 2 , , , < , < 2 2 2 4 6 6                                                                                           ",
"o.o.o.o.o.W t t 6 7 t t t 7 7 t A W W                                                                                           ",
"A.J.K.K.J.K.K.A.m.o.o.r.o.o.r.A.A.A.A.                                                                                          ",
"A.J.J.J.A.A.A.m.o.t t t t t o.A.A.A.A.                                                                                          ",
"A.J.J.J.A.A.A.m.r.o.R o.o.o.m.A.m.m.m.                                                                                          ",
"A.J.K.J.A.A.A.A.J.A.m.m.m.r.A.A.m.m.o.                                                                                          ",
"A.A.A.A.A.A.A.A.K.K.A.m.r.A.J.J.A.A.m.                                                                                          ",
"A.K.K.A.m.A.A.A.J.K.J.A.A.A.J.J.A.A.o.                                                                                          ",
"A.K.K.A.J.A.K.J.J.J.J.K.K.J.A.J.A.A.m.                                                                                          ",
"m.A.A.m.A.A.K.K.J.J.K.K.K.K.K.K.K.K.A.                                                                                          ",
"l.A.A.A.A.A.K.J.A.A.A.A.J.J.K.J.K.K.A.                                                                                          ",
"A.J.K.K.J.K.J.J.J.K.K.K.K.A.A.J.K.K.A.                                                                                          ",
"A.J.K.K.K.K.K.K.K.K.J.J.K.K.J.J.J.K.A.                                                                                          ",
"A.J.J.K.J.J.J.K.K.K.K.J.K.K.K.J.J.J.m.                                                                                          ",
"A.J.A.A.A.A.A.A.J.K.K.K.K.A.A.A.J.J.A.                                                                                          ",
"A.J.A.A.A.A.A.J.A.J.K.K.J.A.m.A.J.J.A.                                                                                          ",
"A.A.A.A.A.A.J.J.J.K.K.K.K.K.A.A.A.A.A.                                                                                          ",
"A.A.A.o.A.A.A.A.J.K.K.J.A.A.J.A.m.m.o.                                                                                          ",
"A.A.o.r.m.A.J.A.K.K.K.A.m.m.A.m.m.m.l.                                                                                          ",
"A.o.t o.A.J.J.J.K.K.A.m.A.A.A.A.A.A.o.                                                                                          ",
"o.r.o.o.A.J.J.J.J.J.J.A.m.m.A.A.A.A.m.                                                                                          ",
"A.A.m.r.A.A.J.J.J.J.J.A.A.m.m.m.m.r.o.                                                                                          ",
", , : : : : : : : : : : > , , , , 2 2                                                                                           ",
"$ # + O o X X . . . . X o O O O @ $ %                                                                                           ",
"2 > : = - = * * * * * * * * * & - > ,                                                                                           ",
"t t t t t 6 6 7 6 7 t 6 6 6 6 6 t t A                                                                                           ",
"o.o.o.o.o.W W W W W W W t W o.W o.o.o.                                                                                          ",
"o.A.m.l.m.m.o.o.o.r.o.o.o.o.r.m.m.m.o.                                                                                          ",
"A.A.m.m.m.m.m.r.m.m.A.A.m.m.A.A.A.A.m.                                                                                          ",
"A.A.m.m.m.m.m.m.A.m.A.A.A.A.A.A.A.A.o.                                                                                          ",
"A.J.A.A.m.m.m.m.A.A.A.A.A.A.K.A.m.o.l.                                                                                          ",
"J.K.A.A.m.A.A.m.A.J.J.J.J.K.K.m.o.o.m.                                                                                          ",
"A.K.J.A.m.A.A.A.J.K.K.J.J.J.J.A.m.m.m.                                                                                          ",
"t m.A.A.m.A.A.A.K.K.J.A.m.m.J.K.K.J.A.                                                                                          ",
"t o.m.m.m.m.m.K.A.r.r.m.A.m.A.J.J.A.o.                                                                                          ",
"m.A.A.m.m.A.m.A.m.m.A.A.J.A.A.J.J.A.o.                                                                                          ",
"A.J.A.J.A.A.A.A.A.A.J.K.J.A.A.A.A.A.A.                                                                                          ",
"A.J.m.m.A.J.J.J.A.J.K.K.K.K.K.J.J.J.A.                                                                                          ",
"A.J.A.m.m.m.J.J.A.A.A.J.K.K.K.K.K.K.J.                                                                                          ",
"m.A.A.m.m.A.J.K.A.A.A.A.A.A.K.J.J.K.J.                                                                                          ",
"m.m.A.A.A.A.K.J.J.J.J.A.A.A.A.A.A.J.A.                                                                                          ",
"A.A.A.J.A.A.J.A.J.K.A.A.J.J.A.A.J.J.A.                                                                                          ",
"m.A.A.A.A.J.J.K.K.K.J.J.K.J.A.J.A.A.J.                                                                                          ",
"A.m.m.A.A.m.J.K.K.K.K.K.K.K.K.J.A.A.J.                                                                                          ",
"m.W t o.W o.A.K.A.K.K.K.K.K.K.J.J.A.m.                                                                                          ",
"J.A.A.K.A.A.K.K.K.K.K.K.L.K.K.K.K.K.A.                                                                                          "
};
