/* XPM */
static char *wall_top_right_64[] = {
/* columns rows colors chars-per-pixel */
"64 64 172 2 ",
"   c None",
".  c #554631",
"X  c #5B4B34",
"o  c #635037",
"O  c #635138",
"+  c #6C573C",
"@  c #6E593D",
"#  c #715B3E",
"$  c #755E40",
"%  c #7D6444",
"&  c #806646",
"*  c #836847",
"=  c #866B4A",
"-  c #8A6E4B",
";  c #8E714D",
":  c #91744E",
">  c #947650",
",  c #977953",
"<  c #9B7B53",
"1  c #9C7E58",
"2  c #A07F56",
"3  c #9E805A",
"4  c #A18057",
"5  c #A4845B",
"6  c #A8875D",
"7  c #A7885F",
"8  c #A9895F",
"9  c #A68861",
"0  c #AD8C63",
"q  c #AF8F68",
"w  c #B08F65",
"e  c #AF9067",
"r  c #AF9068",
"t  c #B19166",
"y  c #B4946A",
"u  c #B8976D",
"i  c #B7986D",
"p  c #B9996E",
"a  c #B39670",
"s  c #B69972",
"d  c #BC9D72",
"f  c #BD9F78",
"g  c #BFA075",
"h  c #BFA078",
"j  c #C09F74",
"k  c #C1A176",
"l  c #C4A47B",
"z  c #C9A77D",
"x  c #C7A87D",
"c  c #C9A97F",
"v  c #C6A780",
"b  c #C7AA81",
"n  c #C7A982",
"m  c #C6A982",
"M  c #C7AA82",
"N  c #C7AA83",
"B  c #C6A880",
"V  c #C8A981",
"C  c #C9AB80",
"Z  c #C8AA80",
"A  c #C8A982",
"S  c #C8AA82",
"D  c #C8AA83",
"F  c #C9AA83",
"G  c #C8AB83",
"H  c #C9AB83",
"J  c #C9AA82",
"K  c #CAAB83",
"L  c #C9AC83",
"P  c #C9AB84",
"I  c #CAAB84",
"U  c #C8AC84",
"Y  c #C9AC85",
"T  c #CAAC84",
"R  c #CAAC85",
"E  c #CBAC85",
"W  c #CBAD85",
"Q  c #CBAC84",
"!  c #CAAD86",
"~  c #CBAD86",
"^  c #CBAE87",
"/  c #CCAE85",
"(  c #CCAD86",
")  c #CCAE86",
"_  c #CCAE87",
"`  c #CDAE87",
"'  c #CCAF87",
"]  c #CDAF87",
"[  c #CBAC82",
"{  c #CDAF88",
"}  c #CCAF88",
"|  c #D0AF85",
" . c #CDB087",
".. c #CEB087",
"X. c #CEB086",
"o. c #CDB088",
"O. c #CDB089",
"+. c #CDB189",
"@. c #CCB089",
"#. c #CEB089",
"$. c #CFB089",
"%. c #CEB189",
"&. c #CFB189",
"*. c #CEB088",
"=. c #CEB18A",
"-. c #CFB18A",
";. c #CFB28A",
":. c #CFB28B",
">. c #CFB38B",
",. c #CFB38C",
"<. c #CEB188",
"1. c #D0B086",
"2. c #D0B18A",
"3. c #D0B28A",
"4. c #D0B28B",
"5. c #D0B38B",
"6. c #D1B28B",
"7. c #D0B48B",
"8. c #D0B28C",
"9. c #D0B38C",
"0. c #D1B38C",
"q. c #D2B38C",
"w. c #D0B48C",
"e. c #D1B48C",
"r. c #D1B48D",
"t. c #D1B58D",
"y. c #D1B48C",
"u. c #D2B48C",
"i. c #D2B48D",
"p. c #D2B58D",
"a. c #D2B68D",
"s. c #D1B58E",
"d. c #D2B58E",
"f. c #D3B58E",
"g. c #D2B68E",
"h. c #D3B68E",
"j. c #D2B68F",
"k. c #D3B68F",
"l. c #D3B78F",
"z. c #D4B68F",
"x. c #D4B78F",
"c. c #D0B289",
"v. c #D4B88F",
"b. c #D4B690",
"n. c #D4B790",
"m. c #D5B790",
"M. c #D5B791",
"N. c #D4B890",
"B. c #D5B890",
"V. c #D5B990",
"C. c #D4B891",
"Z. c #D5B891",
"A. c #D5B991",
"S. c #D6B891",
"D. c #D6B991",
"F. c #D5BA91",
"G. c #D6BA91",
"H. c #D4B992",
"J. c #D5B992",
"K. c #D6B892",
"L. c #D6B992",
"P. c #D7B992",
"I. c #D6BA92",
"U. c #D7BA92",
"Y. c #D7BA93",
"T. c #D6BB93",
"R. c #D7BB93",
"E. c #D7BB92",
"W. c #D7BC94",
"Q. c #D8BB94",
"!. c #D8BC95",
"~. c #D8BC94",
/* pixels */
"                                                                                                            x x x x v M M T T T ",
"4.4.=.=.=.=.=.=.=.4.4.4.4.=.=.=.4.4.4.4.4.4.4.M T =.4.4.=.T T T 4.=.=.=.{ T x x x x x x x x x h f f d s 0 0 x v x x x M M T T T ",
"4.4.4.4.4.4.4.4.4.S.S.S.S.S.S.4.S.S.S.S.S.!.S.S.S.S.4.4.4.=.=.4.S.4.4.=.=.T M M M x x M M v x x x x d d 0 0 x v x x v x v v T 4.",
"4.4.4.4.4.4.4.4.4.S.S.S.S.S.S.S.S.S.S.S.S.S.S.S.!.!.S.S.4.4.4.S.S.m.4.4.=.T M M v x x M M v x x x d d s 0 6 x v x v v x x x T 4.",
"4.v.S.4.4.4.4.S.S.S.S.S.S.S.S.S.S.S.S.m.m.S.S.S.S.S.S.S.S.S.S.S.S.S.S.4.T T M M x x x v v x x x x f d s 0 6 x x x x x x x x M =.",
"4.S.S.S.4.4.S.S.S.S.S.S.S.S.S.m.m.m.m.m.S.S.S.S.S.S.S.S.S.S.S.S.S.S.S.4.T T T M v v v v x x x x x d d s 0 6 x x x x x x x x M T ",
"4.4.m.m.4.4.S.4.4.4.S.S.S.S.4.4.4.4.4.4.S.S.S.S.S.S.S.S.S.m.S.S.S.S.S.m.{ T x x x x v M x x x x x h d s 0 6 x x x x v M x x T T ",
"4.m.4.m.S.m.S.m.4.=.4.S.S.S.m.4.=.=.=.4.4.4.4.4.S.S.S.S.S.S.S.S.S.4.m.m.4.v x x x x x x x x x x x h d s 0 6 h x x x M M M M T T ",
"T T =.4.m.S.S.S.S.m.m.4.4.T T T M T T T T =.=.4.4.4.4.4.S.S.S.S.4.4.m.m.=.M M T v x x x x x x x x x d s 0 6 x x x v M M M M M M ",
"T x T =.4.4.4.4.4.4.4.4.=.T M M x x M T T T T T T x x T 4.4.4.T T T =.T T T =.4.=.T x x x x x x x x d d y 0 x x x M M M M T T M ",
"4.4.4.4.4.4.m.4.4.m.S.S.4.4.=.=.4.4.=.=.{ T x h T =.{ T T 4.m.=.T x x x x T 4.m.S.m.M x x x x x x x h d y 0 k x x x d d d d d y ",
"=.4.S.S.4.4.S.S.S.S.S.S.S.S.S.S.S.S.S.4.4.=.=.=.4.m.4.4.=.4.4.4.4.4. . .T 4.4.4.4.4.M x x x x x x x x d d y p d d p y y y 0 7 , ",
"T 4.S.S.S.S.!.S.!.S.S.S.S.S.S.S.S.S.S.S.S.S.S.S.S.v.4.T x d d d x x x x x d d d d s y y y y y y y y y i i p d k h d d p y 0 6 , ",
"k x x x x x c x c c x x x x x x x c T T x x x x x x x x d 0 0 0 t y y y y t t y y y t 0 0 8 0 0 0 8 8 0 0 w y k x d y t 0 6 : % ",
"x x x x x x x x z z x x x x x T T T T T x x x x x x x x d 0 0 y y y y y y y t y y y t 0 0 w w 0 0 0 0 0 0 t y d x d y 0 6 , = + ",
"c x x x x x x x x c x x c c c T T  . .T c x x x x x x x d t y i y y y y t y y t t 0 0 0 0 0 0 0 0 0 0 0 t y y d x d y 0 6 : % o ",
"T x x x x x x x x x x x x x c T T T T T x x x x x x x x k y y y y y y y y y y y t 0 0 0 0 0 0 0 0 0 0 0 t y y d x p y 8 , ; $ X ",
"x x x x x x x z x x x x x x x c c c x x x x x x x x x x x y y y y y y y y y t t w 0 0 0 0 0 0 8 8 8 0 0 t y y d k y w 6 , - $ X ",
"k x x x x x x x x x x x x x x x x x x x x x x x x x x x x y y y y y y y t t w 0 0 0 0 0 8 6 6 6 6 8 0 w t y y i k y w 6 , = # . ",
"k x x x x x x x x x x x x x x x x x x x x k k x x x x x h y y y y y t t t t t t 0 0 0 8 8 8 0 0 0 0 0 0 t y y y d y 0 6 , = @ . ",
"x k x x x x x k h x x x x x k d d p p p p y y y p d p d d y y y y y y y y y y y y 0 0 y p y y y y y 0 t u d d k k p t 8 , ; $ X ",
"p p p d d d p p d d k k x x x t t y t 0 0 0 0 0 0 0 0 0 0 8 6 6 8 6 6 6 7 0 0 6 6 6 0 8 y y y y y t 8 8 0 t y d d y 0 6 , - @ . ",
"0 y y y y u p p d k x x k k d y d d y y p i y d d d p p p y y y t 0 0 y t t y y 0 6 0 8 0 y i d d d y 8 6 6 y p y t 8 , : & + . ",
"y y y y p p y u p d d d d d d p h d d d k d d k h d d d p d d d d d d x x d h d p y y t y y p p y d y t 0 6 y d y t 8 , : & @ X ",
"u y p p p p p p p d d d d k x d x x c c x x x x x x x x x c c c T T T T T T T x x d d y y y y y y d d d y 0 y d u y 0 6 , = # X ",
"p p p p p p d p d d d d j x x d x x x c c c c T T T c c c c T T T T T T T T c x k d d y y y t y y u p d d p y d p y 0 6 , - $ o ",
"p p p p p d d d d d d d k x c d x x x c c c c T T T T c c T T T c c T T T c x x h y i 0 0 0 0 0 t y y d d p p d p y 0 6 , - % + ",
"y y p p p d d d d d d d k k x d x c c c c c c T T T T T T T T T c c c T T c c x h y y 0 0 0 0 0 0 y y y p p p d p y e 6 , ; & # ",
"t y y d d h h d d d d h k k h p h x x x x x x x x x x x x x c c c c c x x x x x d y y y y y u y y y y u p d d p y y y 0 6 , ; & ",
"d d h h k k h d h k k x x x x x k k k k k x x x x x x x T T T  .4.4.4.4.=. .T T T  . . .T T T T T T T T  .=. .T x d p y 8 6 , ; ",
"x d d d p p p p p d d d d h d d d d d d d d d h d d d x T T T T T T T T T T c T T T T T T T T x x x x x c T T T x t 0 8 6 2 , : ",
"x d d d d p p p p d d d d d d d d d d d d d d d d d p k c x x x x x x x x k k x x x x x x x x x x x x x x x x T d w 0 8 6 6 4 , ",
"x k h d d p p p p d d d d d d d d d d d d d d d d d d k x x x x x x x k k h h k x x x x x c x x c c x x x x x x d w 0 0 0 8 6 4 ",
"x k k j d p p p p p p d p d d d d d d d d d d d d d d x x x x x x x x x k k k k k x x x x c x x x c c x x x d d p t 0 t t 0 8 6 ",
"k k k k j p u u u p p d d d d d h d d d d d d d d d d x x x x x x x x x x x x k k x x x x c x x c c x x x x p y y t 0 t t 0 0 0 ",
"k k k k j d p p p d d d d d k x x k d k k h d h k k d k x x x x x x x x x x x x k x x x x c c c c c c c c x d y t w w 0 t y y t ",
"d d k k k d d d d d d d d d k x x k k k k d d d k h d d d k x x x x x x x x k h k x x x x c c c c c c c c x k y 0 w t t t t y y ",
"x x T T T T c x c x x x k h k c T T T c x x x x x x x x T x c T T T T T c x x x x x k d k x x x x x x x x x d d p t y y y y y y ",
"c T  .4.4.4.4. . .T T T T T c T  . . . .T T T c x c c T T T T T T  .T T T c x x T T p w y y y y y y y t w 0 0 0 6 , 6 6 6 6 6 6 ",
"c T T T | | | T T T T T T T k d d d d d d d d d d p d d d d d h h d d d d d d d h x d i d d h d d d d d d d p p y 8 6 8 0 t y y ",
"T T T T T | | | | 1.1. . .T k d d p p d d d d d d d d d d d d d d d d d d d d d h x k k x z c x x x x x x k k h d p t 0 t p j k ",
"c c c c c c T T T | 1.| | T d p p p d d d d d d d d d d d d p p p d d d d d p d h x d h x c c x x x x x x k k k d p t 0 w u j x ",
"z c c z z z z c T | | | T c d p p d d j k k k k j d d d d d d d d d d d p d d d h x d d x c c z z x x x k k k k d k d y w w y j ",
"x z z z z z z c T T T | T x d p p d j k k k k k k j d d d d d d d p y y u p p d d x d h z c z z x x x x x k k k h k j y w 0 0 y ",
"z c c c c c c T T T T T T x d d d h k k x x k k k h d d d d d p d p p p p p p p d x d d x c z x x x x x k k k k k p y 0 w w w w ",
"x x x z c z x x x x x x x x k h k k k k j d d h h d d d d d j d d d d d d d p d d k p d x x x x k k k j d d d p y 0 8 8 8 0 0 0 ",
", , , 1 6 3 1 1 1 3 6 6 6 6 3 3 6 6 8 0 8 6 6 6 6 3 , y c T T T T x x x x x x c T T T  .4.T T T T c c x x x x d t 0 0 0 0 w y y ",
"- - ; : , , 2 , , , , , 2 , : : , , , 6 6 4 4 4 4 , ; 9 T T T T T c c c c c c T T T  .4.4. .T T T T c c c c c x y 8 8 8 8 0 0 t ",
"; , , 6 6 6 0 0 8 6 6 8 6 2 4 4 6 8 4 6 0 8 8 6 6 6 : 3 x x x x x x x c x c c T T T T 4. .T  .T T c z z z x k d y t 0 0 0 8 6 6 ",
": , 2 6 6 6 8 8 6 2 , 6 6 4 4 2 4 6 6 6 6 6 6 , , , - 6 k d k k j k k x x x x c T T | | T T T T c c z z c c k h d d y t t 0 8 0 ",
": , 4 6 6 6 4 , , , , 2 4 4 2 , , 4 4 4 6 , , , , , ; 3 d d h k j d d d d d k x c x T T T T c c c c c c c c x x x d p y y y y u ",
": , 4 6 4 , , : : , , , , , , , , , , , 2 , , , , , - 1 p d d d d d d d p p d x x k x x c c z z z z x x x c T c x d d i p i u u ",
"- , 4 4 , : : : - : , , , , : , , , , , , , , , , : - , p k k j d d d p u u p j d d d p d x x x x k x x x z T T x d p p p y y y ",
"= : , , : ; - & & * = - - - - - - - - - - - - : ; - * , 0 y y y y y y t 0 0 0 w 0 0 0 w 0 y p y y y y y d j k k d y y t t t 0 0 ",
"6 1 , , : : : ; ; ; - - = - - - ; - - ; - - ; ; - - = ; , , , , , , , , ; - * * = - - - - = = = - : , , , , , , , , , , , , , 6 ",
"d y y y y e 0 y y y 0 0 y y 0 q y y 0 t 0 0 0 0 y y y y 0 0 y q y y 0 6 6 3 1 3 6 6 1 1 1 , , , 1 6 6 6 6 6 6 6 6 6 6 6 6 6 6 0 ",
"d d d d d d d d d d d x k x d d x k d d d y y 0 y d j d d d d x x x p y y y y y t y 0 0 0 0 0 0 0 0 y y y y y y y 0 0 0 6 , , y ",
"k x x d d f x x x d x x x x x x x k x x d p y y y d d x d d d d k x d y y y y y y y y 0 0 w w 0 0 0 y y y y y y r 0 0 9 6 , ; s ",
"d k x h d d d h x d k k h x x x x x x x d y t y d d d d d x j d d d d y y y y y y y y w w y y y y y y y y y y y y 0 0 6 6 , - s ",
"d d d d d d d x x x d d d d d x j h x x k p u d d d d d d d d d d d d y y y y y y y y y y y y y y y y y y y y y y 0 6 6 , : = d ",
"d d d d x x d x x j x j d d d d d f x x x d d j x d d k d d d d d d s y y y y y w y y y y y y y y y y y y y y y t 0 6 6 , ; = d ",
"d d k d d h k x x x x j j x x x x h x x x x k j k d x x d d d d d d s y y y y y 0 w w w w w y y y y d y y d y y 0 0 6 6 , ; = s ",
"x x d d d d d x x x x x x x x x d d j x x x x d x x x x x d d d x d y y y y y y y w y w q y y u y y d y u d y y 0 0 0 6 , ; - s ",
"d d d y y i y d x d x x x x x x h d d d f h x h x x x x x k j k k d y y y y y y y y y y y y y w t y y y d d p y t t 0 6 , ; = s "
};
