/* XPM */
static char *wall_left_64[] = {
/* columns rows colors chars-per-pixel */
"64 64 167 2 ",
"   c None",
".  c #836947",
"X  c #876C49",
"o  c #8B6F4B",
"O  c #8D704C",
"+  c #92744F",
"@  c #8E7451",
"#  c #917551",
"$  c #967852",
"%  c #9B7C55",
"&  c #A6855D",
"*  c #A78961",
"=  c #AE8D63",
"-  c #B49266",
";  c #B5956C",
":  c #B9976B",
">  c #B7986F",
",  c #BB9A6E",
"<  c #B79870",
"1  c #BC9C72",
"2  c #BEA077",
"3  c #BFA178",
"4  c #C09F73",
"5  c #C2A176",
"6  c #C4A57D",
"7  c #C8A77E",
"8  c #C6A87E",
"9  c #C9A97E",
"0  c #C6A780",
"q  c #C7A981",
"w  c #CAAD84",
"e  c #CAAC85",
"r  c #CBAC85",
"t  c #CAAD85",
"y  c #CBAD85",
"u  c #CAAC84",
"i  c #CAAE84",
"p  c #CAAE85",
"a  c #CBAE85",
"s  c #CBAD86",
"d  c #CBAE86",
"f  c #C9AC84",
"g  c #CCAC85",
"h  c #CCAE84",
"j  c #CDAE85",
"k  c #CDAF85",
"l  c #CCAD86",
"z  c #CCAE86",
"x  c #CDAE86",
"c  c #CCAF86",
"v  c #CDAF86",
"b  c #CCAE87",
"n  c #CDAE87",
"m  c #CCAF87",
"M  c #CDAF87",
"N  c #CEAE86",
"B  c #CEAF86",
"V  c #CAAC83",
"C  c #CBAF88",
"Z  c #CDAF88",
"A  c #CEAF88",
"S  c #CDB087",
"D  c #CEB186",
"F  c #CCB088",
"G  c #CDB088",
"H  c #CDB188",
"J  c #CDB189",
"K  c #CEB088",
"L  c #CEB188",
"P  c #CEB089",
"I  c #CFB089",
"U  c #CEB189",
"Y  c #CFB189",
"T  c #CEB289",
"R  c #CFB18A",
"E  c #CEB28A",
"W  c #CFB28A",
"Q  c #CFB38A",
"!  c #CEB28B",
"~  c #CFB28B",
"^  c #CFB38B",
"/  c #CFB48C",
"(  c #CEB289",
")  c #D0B386",
"_  c #D0B188",
"`  c #D0B289",
"'  c #D1B289",
"]  c #D0B18A",
"[  c #D0B28A",
"{  c #D1B28A",
"}  c #D0B38A",
"|  c #D1B38A",
" . c #D0B28B",
".. c #D1B28B",
"X. c #D0B38B",
"o. c #D1B38B",
"O. c #D3B38B",
"+. c #D0B48B",
"@. c #D1B48B",
"#. c #D2B48B",
"$. c #D2B58B",
"%. c #D1B38C",
"&. c #D2B38C",
"*. c #D0B48C",
"=. c #D1B48C",
"-. c #D0B58C",
";. c #D1B58C",
":. c #D0B48D",
">. c #D1B48D",
",. c #D0B58D",
"<. c #D1B58D",
"1. c #D2B48C",
"2. c #D3B48C",
"3. c #D3B58C",
"4. c #D2B48D",
"5. c #D3B48D",
"6. c #D2B58D",
"7. c #D3B58D",
"8. c #D1B68D",
"9. c #D3B68C",
"0. c #D2B68D",
"q. c #D1B58E",
"w. c #D2B58E",
"e. c #D3B58E",
"r. c #D2B68E",
"t. c #D3B68E",
"y. c #D3B78E",
"u. c #D2B68F",
"i. c #D3B68F",
"p. c #D2B78F",
"a. c #D3B78F",
"s. c #D4B58C",
"d. c #D4B58D",
"f. c #D5B58D",
"g. c #D4B68C",
"h. c #D5B68D",
"j. c #D4B58E",
"k. c #D5B68E",
"l. c #D4B68F",
"z. c #D4B78F",
"x. c #D7B78F",
"c. c #D0B48A",
"v. c #D2B790",
"b. c #D3B790",
"n. c #D4B790",
"m. c #D5B790",
"M. c #D4B791",
"N. c #D6B791",
"B. c #D3B890",
"V. c #D3B891",
"C. c #D4B890",
"Z. c #D5B890",
"A. c #D4B891",
"S. c #D5B891",
"D. c #D4B991",
"F. c #D5B991",
"G. c #D6B891",
"H. c #D6B991",
"J. c #D5B992",
"K. c #D6B992",
"L. c #D7B992",
"P. c #D6BA92",
"I. c #D7BA92",
"U. c #D7BA93",
"Y. c #D6BB93",
"T. c #D7BB94",
"R. c #D8BA93",
/* pixels */
"                                                                                          V P @.P @.@.@.@.@.@.@.@.@.q 8 V 8 8 V ",
"                                                                                          @.m.A.A.A.A.A.R.R.A.A.A.@.P @.@.V V @.",
"                                                                                          @.@.@.A.A.A.A.A.A.R.R.A.A.A.@.@.@.@.@.",
"                                                                                          @.A.A.A.A.A.A.m.m.A.A.A.A.@.@.@.@.@.@.",
"                                                                                          @.A.@.@.@.m.A.m.m.A.@.m.A.m.@.A.@.@.@.",
"                                                                                          @.A.@.@.m.@.@.@.@.@.@.A.A.@.@.@.m.@.V ",
"                                                                                          @.A.A.A.A.A.m.A.@.@.m.A.m.P P P m.m.@.",
"                                                                                          @.A.A.A.R.R.A.A.A.A.@.m.A.m.P P @.m.@.",
"                                                                                          @.m.m.@.@.m.A.A.A.m.@.A.m.A.m.m.@.@.@.",
"                                                                                          S @.m.m.@.@.A.A.m.@.@.@.@.@.@.@.@.@.@.",
"                                                                                          V @.m.A.@.@.m.@.P V @.@.@.P P @.@.P V ",
"                                                                                          @.m.A.A.@.P P P P @.A.@.@.P P @.@.V 2 ",
"                                                                                          @.@.@.A.@.@.@.@.A.A.@.@.@.@.P @.@.A.V ",
"                                                                                          V P V P @.@.@.@.@.@.@.P P P C @.@.m.@.",
"                                                                                          V q q P @.@.@.@.@.@.P V P P P P @.@.@.",
"                                                                                          8 V P @.P C C P V V V V V V V P P @.@.",
"                                                                                          8 V V V V V V V V V V V V q V V V P @.",
"                                                                                          1 8 0 0 8 8 8 8 8 8 8 8 8 8 8 8 V V V ",
"                                                                                          ; ; 1 1 1 ; ; ; ; ; ; ; ; 1 1 1 1 8 8 ",
"                                                                                          1 1 8 8 8 8 8 8 0 8 8 8 8 8 8 8 8 V V ",
"                                                                                          q V V P @.P @.@.A.A.A.m.m.m.@.P P @.@.",
"                                                                                          8 V V P @.P P @.A.A.A.m.m.@.@.V V V V ",
"                                                                                          q V V P @.@.@.@.@.A.A.m.m.@.@.V 8 V @.",
"                                                                                          8 V V V @.P P @.A.A.A.@.@.@.C V P @.@.",
"                                                                                          8 V V V @.A.A.A.A.A.m.@.@.@.@.P @.@.@.",
"                                                                                          8 0 q V @.A.A.A.A.A.@.@.@.@.@.@.@.@.@.",
"                                                                                          8 8 0 V P @.m.m.A.m.@.@.@.@.@.@.m.A.@.",
"                                                                                          8 0 0 V @.m.A.@.P A.A.@.@.V V @.@.m.@.",
"                                                                                          8 8 0 V @.A.A.V V A.A.A.C P V A.A.m.@.",
"                                                                                          8 8 V C @.m.@.V q @.A.A.C @.V A.A.A.@.",
"                                                                                          V V q V V C q 8 8 @.m.@.V q V @.A.@.@.",
"                                                                                          @.V 8 8 8 8 8 0 0 P @.V 8 0 q V P @.V ",
"                                                                                          8 8 8 8 8 8 8 8 8 V V 8 8 0 q q V @.@.",
"                                                                                          8 q 0 0 0 q 0 8 8 8 8 0 0 q q 8 q @.@.",
"                                                                                          V V 0 8 0 V V 0 8 8 8 q q V q q q P @.",
"                                                                                          V V V V V V V V q 8 0 P P P C q q q q ",
"                                                                                          V V V V P V V V q 0 q V P P V P V 8 8 ",
"                                                                                          V V V q V q q q 8 8 q q V V V @.V 8 8 ",
"                                                                                          q P V q 0 8 8 8 8 8 V V q V @.V 8 0 8 ",
"                                                                                          8 P P V V V q q V V P P q V @.V V @.q ",
"                                                                                          1 1 1 ; ; ; ; 1 1 1 1 1 ; ; < ; < 1 1 ",
"                                                                                          & & % # + O O O o o o O O . . X o + % ",
"                                                                                          = & % $ # # # # # o o o O O @ @ @ $ % ",
"                                                                                          1 1 ; ; ; ; ; ; ; = = = = ; 1 ; ; ; ; ",
"                                                                                          1 2 3 8 8 8 1 1 1 < ; ; 1 1 1 1 1 1 1 ",
"                                                                                          2 3 3 8 V 8 5 5 1 3 8 8 8 q V 8 3 8 3 ",
"                                                                                          3 8 8 8 8 8 4 8 8 8 V V q V V V q 8 8 ",
"                                                                                          8 q P V 8 8 5 4 5 8 V V V 8 8 q V V V ",
"                                                                                          8 V P S V 8 8 4 5 9 0 8 V 8 8 V V 9 V ",
"                                                                                          V S q q V q q 8 V V q V V q q q 8 9 8 ",
"                                                                                          V q 8 V V V P P P V V P S V V V V V V ",
"                                                                                          V q 8 V V P P @.P P @.) S S S P V V V ",
"                                                                                          V V q V S S S S P @.@.@.S V S S V 8 8 ",
"                                                                                          V V V V V V V S S S ) ) S S S V V 8 8 ",
"                                                                                          8 9 9 9 9 8 9 V V S S S S S V 9 8 8 8 ",
"                                                                                          5 5 5 8 5 5 9 9 8 V V V V V 9 8 8 8 8 ",
"                                                                                          ; , 1 5 5 8 7 8 8 9 9 9 9 8 8 9 8 1 5 ",
"                                                                                          ; ; : 1 1 5 5 5 5 5 5 8 8 5 8 8 1 , 1 ",
"                                                                                          1 1 , , , , 4 5 5 5 4 5 5 5 5 5 4 1 , ",
"                                                                                          1 , , 4 1 , , , 1 1 1 , 1 5 5 5 5 4 1 ",
"                                                                                          1 , , 1 1 1 , : , ; : : : 1 5 5 5 4 1 ",
"                                                                                          : , , 1 4 , , , ; - ; : , 1 , 5 4 , , ",
"                                                                                          - ; : ; : ; = = ; , , , 1 , ; , , , , ",
"                                                                                          1 1 , ; ; = = = : 1 1 , , ; ; , ; : , "
};
