/* XPM */
static char *exit_open_64[] = {
/* columns rows colors chars-per-pixel */
"64 64 209 2 ",
"   c None",
".  c #040405",
"X  c #080707",
"o  c #050609",
"O  c #07080B",
"+  c #0A0A0D",
"@  c #0A0907",
"#  c #100F0E",
"$  c #12100E",
"%  c #0E0E13",
"&  c #0F1015",
"*  c #0F1018",
"=  c #121215",
"-  c #191612",
";  c #1D1A13",
":  c #13141A",
">  c #19191C",
",  c #17171D",
"<  c #100F13",
"1  c #211D14",
"2  c #221E18",
"3  c #262018",
"4  c #2B2419",
"5  c #2D2517",
"6  c #332A1A",
"7  c #1C1D25",
"8  c #1D1E29",
"9  c #161721",
"0  c #201F22",
"q  c #1F202A",
"w  c #1F2023",
"e  c #232225",
"r  c #2A2625",
"t  c #2C2826",
"y  c #24242C",
"u  c #28272C",
"i  c #29282D",
"p  c #27282D",
"a  c #362E21",
"s  c #3D3425",
"d  c #393627",
"f  c #252732",
"g  c #272833",
"h  c #2C2B33",
"j  c #2D2E39",
"k  c #302F3B",
"l  c #302E35",
"z  c #2F303B",
"x  c #333235",
"c  c #32323B",
"v  c #3C3C3D",
"b  c #3A3736",
"n  c #4A3E2B",
"m  c #443928",
"M  c #443D34",
"N  c #4C412B",
"B  c #4E482C",
"V  c #44403E",
"C  c #4E463C",
"Z  c #484236",
"A  c #534A3D",
"S  c #584B39",
"D  c #5C503E",
"F  c #5D4B2D",
"G  c #634F2E",
"H  c #6C5A3C",
"J  c #655337",
"K  c #725D33",
"L  c #725D3C",
"P  c #64502D",
"I  c #76613D",
"U  c #7C653D",
"Y  c #7A6538",
"T  c #353641",
"R  c #3B3B45",
"E  c #3D3E49",
"W  c #373842",
"Q  c #44434E",
"!  c #48454F",
"~  c #494647",
"^  c #544D48",
"/  c #5C5243",
"(  c #5C544B",
")  c #464652",
"_  c #484650",
"`  c #474854",
"'  c #494955",
"]  c #4E4D59",
"[  c #524D56",
"{  c #504F5B",
"}  c #53535F",
"|  c #52515E",
" . c #54535F",
".. c #52525D",
"X. c #5C5758",
"o. c #635540",
"O. c #6C5B42",
"+. c #665A4B",
"@. c #635C59",
"#. c #6C6747",
"$. c #7B6541",
"%. c #776548",
"&. c #6C6356",
"*. c #746553",
"=. c #7B6A54",
"-. c #756858",
";. c #555460",
":. c #565561",
">. c #585763",
",. c #5C5A66",
"<. c #5C5B68",
"1. c #5D5C68",
"2. c #5E5D68",
"3. c #5E5D69",
"4. c #605F6B",
"5. c #63616C",
"6. c #6C686D",
"7. c #696771",
"8. c #7C736F",
"9. c #816B3D",
"0. c #81713D",
"q. c #866E45",
"w. c #827542",
"e. c #8D7243",
"r. c #85774B",
"t. c #917543",
"y. c #977A45",
"u. c #957B4C",
"i. c #816E53",
"p. c #8C7554",
"a. c #8E7856",
"s. c #877554",
"d. c #937A55",
"f. c #9A7D54",
"g. c #927B58",
"h. c #9C804E",
"j. c #9D8258",
"k. c #A48656",
"l. c #AB8B54",
"z. c #A68A59",
"x. c #A98A57",
"c. c #B18E55",
"v. c #AF905B",
"b. c #B69355",
"n. c #BD9655",
"m. c #BC9A55",
"M. c #B4945A",
"N. c #BA9659",
"B. c #BD9A5B",
"V. c #B79A5A",
"C. c #C29C57",
"Z. c #C29D5A",
"A. c #C89F56",
"S. c #CCA257",
"D. c #C6A15C",
"F. c #CBA55B",
"G. c #CCA95B",
"H. c #C5A257",
"J. c #D3AB5C",
"K. c #D5AA59",
"L. c #DDB35D",
"P. c #D2B15E",
"I. c #E1B65D",
"U. c #E6BB5E",
"Y. c #D3AE60",
"T. c #DBB663",
"R. c #CEAA61",
"E. c #E5BC61",
"W. c #E8BE62",
"Q. c #EBC364",
"!. c #EDCA6C",
"~. c #E6C46B",
"^. c #F1C664",
"/. c #F2CA66",
"(. c #F4CD6A",
"). c #F6D16C",
"_. c #FAD66D",
"`. c #FAD96D",
"'. c #E9CB72",
"]. c #F3D373",
"[. c #FADC74",
"{. c #FADD79",
"}. c #F6DC7B",
"|. c #FDE47C",
" X c #FEE97D",
".X c #FCE075",
"XX c #F8DB88",
"oX c #FEEB84",
"OX c #FEED8B",
"+X c #FAE585",
"@X c #FEF18C",
"#X c #FEF087",
"$X c #FBEB96",
"%X c #FEF294",
"&X c #FEF49B",
"*X c #FFF998",
"=X c #FEF6A2",
"-X c #FEF8A4",
";X c #FEF9AC",
":X c #FEF7A9",
">X c #FEFBB4",
",X c #FEFCBC",
"<X c #FEFDC3",
"1X c #FEFECC",
"2X c #F5F3C2",
"3X c #FFFED4",
"4X c #FFFFDC",
"5X c #FFFFE3",
"6X c #FFFFE9",
/* pixels */
"  . . . . . . . . . . . . . . . . . . . . . . . . . . . . . . . . . . . . . . . . . . . . . . . . . . . . . . . . . . . . . .   ",
". O 8 f y f f f g g f f f f f f f f f f f f f f f f f f f f f f f f f f f f f f f f f f f f f f f f f f f f g g g g g f h 8 O . ",
". y :.<.` ] <.<.<.<.<.<.<.<.<.<.<.<.<.1.<.<.<.<.<.<.<.<.<.<.<.<.<.<.<.<.1.<.1.1.<.1.1.<.<.<.<.<.<.<.<.<.<.<.<.<.<.<. .` <.:.y O ",
"O h 1.:.` ] :.:.:.:.:.:.:.:.:. . . . . . . . . . . . .:.:. .:.:.:.:.:.:. . . . . . . . . . . .:. . .:.:. . . . . .:.] ] :.<.j O ",
"O h >.` ` ` ` ` ` ` ` ` ` ` ` ` ` ` ` _ _ _ _ _ ` ` ` ` ` ` ` ` ` ` ` ` _ _ _ _ _ _ ` _ _ _ ` ` _ ` ` ` ` ` ` _ _ _ ` ` _ >.j O ",
"O h >.` ` ` ` ` ` ` ` ` ` ` ` ` ` ` ` ` ` ` ` ` ` ` ` ` ` ` ` ` ` ` ` ` ` ` ` ` ` ` ` ` ` ` ` ` ` ` ` ` ` ` ` ` ` ` ` ` ` >.j O ",
"O f ] Q Q Q Q Q Q _ _ Q Q Q Q Q Q Q Q Q Q E E Q Q _ _ Q Q Q Q Q Q Q Q Q Q Q Q Q Q Q Q Q E E Q Q E Q Q Q Q Q Q Q Q Q Q Q Q ` f O ",
"O 8 h h h g f f f f f f f f f f f f f f y 8 f f f g g g f f f f f f f f f f f f f f f f f f f f f f f f f f f f f f f f f f 9 . ",
". % : : : : : : : : : : : : : : : : : : + . % : : * * * * : : : : : : : : : : : : : : : : : : : : : : : : : : : : : : : : : % . ",
". O = = = = % . . + + . O + . = > % . . = e + + d #.#.#.&.Z + . . . . . . . . . . . . . . . % + . > > = . + + . . % % % & & . . ",
"O y Q W W W j % + p y . > u = u u + % y  .5.e 8 r.*X*X>X1X1X                            . * h 8 + V Q x + 8 8 O % f T T T Q q . ",
"O j 1._ _ _ T & = x x . w x = + = y W :.] E y y s.*X>X1X<X1X                            . : T q $ ^ ^ b + y h + % j Q Q Q 1.z + ",
"O j 1._ _ _ T % = b x . > e O = x ` 1.` T 8 y x r.&X<X>X,X4X4X                          . 9 Q y = O.+.M + h z % % j Q Q Q 1.x + ",
"O j 1._ _ _ T % = v x . . = y E 1.{ W h , . u [ r.@X;X>X1X4X3X3X                        . 8 :.h - i.-.C + T Q % % j Q Q Q 1.x + ",
"O z 1._ _ _ T % = v e O > W 1.1.` j 8 O : = y [ r. X%X>X<X<X4X4X                        . 8 :.h - q.=.C + W Q % % j Q Q ! 1.x + ",
"O z 1._ _ _ T % + > = h ` 5.1.Q h % 2 $ y e y [ w.oX@X-X,X3X5X5X5X                      . 8 :.h ; u.i.A + W Q % % k _ ! ! 1.x + ",
"O z 1._ _ _ x + . 8 W 1.1._ T y % + J 3 h u 0 Q r.OX@X-X1X4X4X5X5X                      . 8 :.j ; l.a.A + W Q % % j _ _ _ 1.x + ",
"+ z 1._ _ W > % g ` :. .W j : . u e I 3 h u : x w.oX&X<X1X3X4X4X4X                      . 8 :.j ; V.z.A + W Q % % j Q Q _ 1.x + ",
"+ z 1._ _ h O z 7.<.E T g = # . x e U 3 h u : x w.oX;X>X>X3X4X4X                        . 8 :.h ; m.z.D + W Q % % j _ Q _ 1.x + ",
"O z 1._ _ h O h 5.Q j 8 + 3 n . x r q.6 h u > ` 0.oX&X%X>X3X4X4X                        . 8 >.h 2 x.j.o.+ W Q % % j _ _ _ 1.x + ",
"O z 1._ _ h O q ] h + O y a S . x r q.6 h u 0 [ 0.|. X@X,X3X3X3X5X                      . 8 :.h 2 x.k.O.% W Q % % k ! ! _ 1.x + ",
"O z 1._ _ h O q ] y + = W s J . x r e.6 h u e [ 0._.|.&X1X3X<X5X6X                      . 8 >.j 2 x.k.O.+ W Q & % x _ _ _ 1.x + ",
"O z 1._ _ h O q { j : = Q m H X x r e.6 h u e [ 0.[.OX>X<X,X3X6X6X                      . 8 >.j 2 b.l.O.+ W Q % % x _ _ _ 1.x + ",
"O z 1._ _ h O 8  .x > = Q m L X x r e.6 h u e [ w. X=X<X>X;X4X5X3X                      . 8 >.j 2 b.k.J + W Q % % x Q ! _ 1.x + ",
"O z 1._ _ h O 8  .x > = Q n I X x r t.6 h u e [ w.OX;X>X;X>X5X1X<X                      . 8 >.j ; b.x.H + W Q % % x _ _ _ 1.x + ",
"O z 1._ _ h O 8  .x > = Q n U X x r t.6 h u e [ w.OX-X%X-X3X3X<X1X                      . 8 >.j ; m.N.$.+ W Q & % x _ _ _ 1.x + ",
"O z 1.! _ h O 8  .x > = Q n U X x r t.6 h u e [ w.|.OX@X,X3X>X3X5X                      . 8 >.j 2 m.x.H # W Q % % x Q Q _ 1.x + ",
"O z 1.Q _ h O 8  .x , = Q n U X x r t.6 h u e [ r.oX X%X,X,X-X1X5X                      . 8 >.j 2 H.Z.$.# W Q & % x Q Q _ 1.x + ",
"O z 1._ _ h O 8  .x > = Q N U X x t y.6 h u e [ w.|.oX=X&X%X-X3X5X4X                    . 8 1.j 2 G.J.e.= W Q & % k ! ! _ 1.x + ",
"O z 1._ _ h O 8  .x > = Q N 9.X x r y.6 h u e [ 0.|.&X&X@X%X>X4X5X4X                    . 8 1.j 2 G.J.y.= W Q & % k ! Q _ 1.x + ",
"+ x 1._ _ h O 8  .x , = Q N 9.X x u y.6 h u e [ w.OX%X@X&X;X3X5X4X4X                    . 8 >.j 2 G.J.t.$ W Q & % k _ _ _ <.x + ",
"O z 1._ _ h O 8  .x > = Q N 9.+ x u y.6 h u e [ r.%X|.oX@X;X4X4X<X5X5X                  . 8 >.j 2 G.J.t.$ W Q & % k _ _ _ 1.x + ",
"O z 1._ _ h O 8  .x > = Q N U X x r y.6 h u e [ w.[._..XoX;X4X1X<X5X5X                  . 8 1.j 2 P.J.e.# W Q & % x _ ! _ 1.x + ",
"O z 1.! _ h O 8  .x = % Q n U X x u y.6 h u e [ 0._.).`.oX>X1X>X1X5X4X                  . 8 >.j 2 G.J.e.# W Q & % x _ _ _ <.x + ",
"O z 1._ _ h O 8  .y % : W n U X x r t.6 h u e [ U ).|.[.%X>X>X>X<X4X3X                  . 8 >.j 2 H.D.$.# W Q & % x _ _ _ <.x + ",
"O z 1._ _ h O q ` Q ` x c n I X x r e.6 h u e [ U ^.).|.&X%X@X=X1X4X4X                  . 8 >.j 2 C.m.$.# W Q & % x _ _ _ 1.x + ",
"O z 1._ _ h O y  .>._ h x n L X x r q.6 h u e [ Y W.Q.|.oXoX#X>X5X4X4X                  . 8 >.j 2 H.R.$.+ W _ & % x _ _ _ 1.x + ",
"O z 1.! _ h O 8 ` T g 8 8 m L X x r 0.3 h u e [ Y W.Q.[.|. X%X1X5X1X1X                  . 8 1.j 2 m.D.$.+ W _ & % k _ _ ! 1.x + ",
"O z 1.! _ h O 8 _ y 8 T x m H X x r U 3 h u e [ K L.(.[.+XOX;X3X1X;X,X                  . 8 >.j 2 b.x.O.+ W _ = % k _ _ ! 1.x + ",
"O z 1.! _ h O 8 ` W  .<.] s H X x r U 3 h u e [ K J.!.[.[.oX;X1X>X-X<X    1X            . 8 1.j 2 x.k.O.+ W _ = % k _ _ ! 1.x + ",
"+ x 1.! ! h O 8 ` y h Q 8 a J . x r L 3 h u 0 ` K J.L.Q.[.&X<X<X&X,X3X4X3X<X            . 8 1.j ; l.j.o.+ W _ = % k _ _ _ 1.x + ",
"+ x 1.! Q h O 8 ` = . = 2 a S . x e H 3 h u > Q K L.L.I.}.&X,X:X@X>X4X5X3X,X            . 8 >.j ; h.a.o.+ W _ & % k _ _ _ 1.x + ",
"+ z 1.! Q h O 8 ] y @ J H s S . x e H 3 h u > c K L.J.I.{.-X=XoX@X,X3X6X1X>X            X 8 >.j ; j.d.o.+ W _ & % k _ Q _ <.x + ",
"O z 1.Q ! h O 8 ] y 2 L H s S . x e J 2 h u e ` K G.A.I.[.&XoX X%X<X5X4X>X<X3X          X 8 >.j ; d.p./ + W Q & % k _ _ _ 1.x + ",
"O z 1.Q Q h O 8  .f ; q.U a C . x e D 2 h y e [ P n.S.Q.[.oX.X|.;X1X5X1X;X1X3X    >X    X 8 >.j ; u.s./ + W Q % % x ! ! _ 1.x + ",
"O z 1.Q ! h O 8  .h $ J 5 3 Z . x e A 2 h y 8 ! G n.J.(.[.[._.oX>X3X4X>X;X<X,X    <X1X  X 8 >.j ; q.=.A + W Q % % k ! ! _ <.x + ",
"O z 1.Q ! h O 8  .x 8 + > r Z . x e C ; h y : x G C.J.^.(.^.`.%X1X3X1X;X;X1X1X    1X3X  . 8 >.j ; s.=.A + W _ % % k ! ! _ 1.x + ",
"O z 1.Q _ h O 8  .j : % x t M . x e Z ; u y : h H J.Q.(.Q.Q.|.;X1X3X,X%X=X,X1X  >X>X1X  @ 8 :.j - %.-.C + W _ & % k ! ! _ 1.x + ",
"O z 1.! _ h O 8 W : O = Q t M . x e M - h y = x Y Q.W.W.I.Q.oX>X1X<X&X@X<X>X3X4X1X1X>X2X$ 8 :.j = %.-.C + W Q & % k ! ! ! 1.x + ",
"O j 1.! ! h O 8 ` h = = Q r d . x e t = h y u 6.U (.L.L.I.[.%X<X>X>XOXOX>X>X4X4X<X<X;X2X; 8 :.j = D / M + W Q % % j ! ! ! 1.x + ",
"O j 1.Q Q h O 8  .x : = _ # + . x 8 . . y 8 u X.Y L.S.S.Q.OX>X<X-X=X|.oX%X,X3X3X1X>X%X$Xd 9 ` h O + # + O x W % % j Q Q ! 1.x + ",
"O j 1.Q Q h O 8  .x : = ! > > . x > + . : > y Q K Z.c.S.].OX>X,X=X+X[.OX%X>X3X1X>X%X@X$XN 9 E f O 8 8 : O g z % % j Q Q ! 1.x + ",
"O j 1.Q Q h O 8  .x , = Q > e . h > O = y Q T h F l.n.L.[.%X;X;X%X^.^.|.%X>X,X<X=X%XOX+XB % y : % f h y % , 8 O % j Q Q ! 1.z + ",
"O j 1.! _ h O 8  .x , = Q > e . h : y  . ._ y 8 J l.J.(.[.=X&XOX}.I.I.[.+X>X>X;X&XOX|.[.H O = : h Q Q W f : % . % x _ _ _ <.x + ",
". > h y y , O 8  .x : = Q : : . 8 y `  .E h % r q.G.!.+X&X&X].}.T.K.W._.|.:X,X=XOX[.).Q.0.8 W ! Q Q Q Q Q E j % O > y y y h 8 . ",
". . 8 8 8 : O 8  .x : = E + & : y  .` T h % = A M.(.[.%X&X'.W.].F.K.Q.^.{.;X>XOX[.^.^.Q.h.x ^ X.X.` ` ` Q Q W f 8 8 8 8 8 : . . ",
". 8 ]  ._ h O 8  .x , % x = f ` 1.Q T y % % b s.T._.OXOX'.L.!.Y.n.J.I.Q.{.&XOX[.Q.].$X(.M.^ ~ &.8.7.5.5.5.4.<.1.>.:.` _ :.` 8 . ",
"O h 5.1.{ x O 8  .x : % h > ] 1._ x w + , b %.V.(.{.OX'.G.L.~.b.c.J.L.I.|.%X[.^.L.!.XX^.G.-.! @.8.6.5.5.<.<.<.<.<.<. .] 1.5.j O ",
"O h 1._ _ h O 8  .x : O h  . .W x 8 O 8 x +.z.!.(.+X'.D.Z.L.Z.f.c.J.C.L.{.{.(.W.J.I.I.Q.Y.d.( ^ -.&. .] ] ] ] ` ` ` ` ` ` 1.h O ",
"O h 1._ _ h O 8  .x 8 h _ ` W x , + 8 x / d.G.Q.[.'.B.c.N.Z.f.p.c.Z.n.L.].).^.L.n.S.L.I.J.x.-.~ &.-.@. .] ] ] ` ` ` ` ` ` 1.h O ",
". y  .Q Q h O 8 :.W Q :.E T h = + e x ^ =.x.T.W.!.B.k.x.M.M.i.p.M.b.n.G.W.(.W.J.b.n.J.J.J.N.i.^ @.-.@. .` ` _ _ _ _ _ _ _  .h O ",
". : g y y : O 8 5.7._ E T h % % y h V &.a.M.Z.J.B.d.d.j.v.p.s.z.Z.x.b.T.Q.Q.J.C.b.c.J.G.J.B.p.+.v W W W x h h h h h h h g g : . ",
". % 8 : : % O 8 ` ` T x y % : y x V ( i.z.v.M.M.a.=.=.g.j.=.a.M.x.k.x.J.Q.J.G.c.l.k.Z.G.G.M.j.-.v h h h y y q 8 8 8 8 8 8 8 % . ",
". . . . . . O 8 x T j 8 . = y h V ( &.a.z.z.x.g.&.-.-.=.-.=.z.x.f.d.j.B.Y.Z.N.k.f.f.N.Z.D.B.z.=.V = . . . . . . . . . . . . . . "
};
