/* XPM */
static char *map_T[] = {
/* columns rows colors chars-per-pixel */
"64 64 73 1 ",
"  c #614F38",
". c #64513A",
"X c #6E593E",
"o c #705A3F",
"O c #6D5940",
"+ c #735E43",
"@ c #776145",
"# c #7A6346",
"$ c #7C6549",
"% c #846C4E",
"& c #896F4E",
"* c #8B704F",
"= c #866E51",
"- c #877053",
"; c #8F7759",
": c #917654",
"> c #927857",
", c #987B57",
"< c #997E5B",
"1 c #9D815E",
"2 c #A1825E",
"3 c #9F8768",
"4 c #9F8869",
"5 c #A38662",
"6 c #A88761",
"7 c #A98B65",
"8 c #A58B6A",
"9 c #AB8D69",
"0 c #AD916D",
"q c #B2936D",
"w c #AC9372",
"e c #AF9879",
"r c #B49672",
"t c #B59975",
"y c #B99B76",
"u c #BB9E79",
"i c #BEA17C",
"p c #C1A37E",
"a c #BDA482",
"s c #C2A682",
"d c #C5A985",
"f c #C9AC86",
"g c #C6AC8A",
"h c #CAAE8A",
"j c #CDB28D",
"k c #D0B48F",
"l c #CDB492",
"z c #CBB698",
"x c #CDB99A",
"c c #D2B692",
"v c #D5BA95",
"b c #D8BC97",
"n c #D5BC9A",
"m c #D9BE9A",
"M c #D6C09F",
"N c #DCC19D",
"B c #D6C0A0",
"V c #DEC5A1",
"C c #DFC8A7",
"Z c #E1C6A4",
"A c #E2C9A6",
"S c #E4CCA9",
"D c #E8CEAC",
"F c #E8D0AE",
"G c #E8D1AF",
"H c #E7D1B1",
"J c #EAD3B1",
"K c #EED8B7",
"L c #EDD7B8",
"P c #EFDABA",
"I c #F0DBBB",
"U c #F3DFC0",
"Y c #F5E1C2",
/* pixels */
"qrqrrrtrryyttupudVVVZASAZZASGSScujjhfhdsutqqqq75.-277577qqqq72% ",
"qvNNNNNNVSGSSSJVvGDSADJSSZGJJGJVvGDGSGJJSZVZAZVg+%-<79790qq975<-",
"tAAZZNmnVAGGJJKVvSASASJSSAASSSJAvSSSASGJDSSSSSJl5cvnNNNVAAZZZVZm",
"iSAAVmmnvnAAGJJVcSZZZZGSAZAAVAJAvSSSSGJGGDASDDJl8NZNmNZSSSAZASGV",
"pSVVNNmmnvmSJPPVcSAAZZSAAVZAVVSVvDDSSJJDDDAASGGl8NmvvvmSAZNNZAGV",
"uANmNNmNVNVSJKPVjSAVAZAAAZZAAZZmcJGSSJJDSSSADJJl5cvmNbmVANmNZSSA",
"uAANmNNSGJSASSAvjAAmNAAAAZZAANVvjGJDSJJGSAAASJGl5kccvvmmNNNZASSA",
"uASAmNSGGGGGJJSnvAAANSSAAAAZNNAnhGDDSSDDSAAZASSj3ccvmNZAASSSSSGS",
"uVVAZSJJJJJJPJANvAAAASSAAAANmZGmsGDSSSSDSASAZASl3cvbNZAZZSAASSGS",
"iAVJSASJJPJJSSSnjAAAZASAZAZNmNJmiSSSGSSSZAAAAASl8cbvvNAVNZAASSSA",
"sANGSZSJJJJJAASnhZZZZAAAZAZZNNGmiAAAZASANZAZAAAl8cmmvmZZNNVAASSA",
"pVNSSnASSSSSNNANjZNAAAAZASGSAAGvuZAZAZAZNNNVAAAjwkcvbNZVNmNZZASV",
"sNmANjvVSSSAVNNvcVNZAAAZAGDAZVVjuZVVNNmmmmbbNNNgwjcvmNmNNmmNNNAV",
"immAndjnmNVVVNvjhVVAZAAASGSSANNf0mvvvvkjkkjjcvbg9hkccckcmvvbvvZN",
"rhfhdsdddhjhhdsudASSAASSSDDSAVNd5spuuyyyrtyiiupt5pfvkfffkccjjjmm",
"ycnnnmVNNVNmvvnd8sdhjjjhdhddspu9qfpsdsssdjllllna%qyppyyippsppphh",
"hGJJSSDJJJJGJGGlX*177556709962&XuGSGJSSSSSSSSGJn3uaaaasuryuiuyyy",
"dGGSAAASDDGDGGDlX>50tyyutrq96<%XwGJGSSSSSSSSSSGnsAJJIPJSSGGJGZAV",
"dGSSSSAAASGGSDGl-pffjjkNNvcvldy<8VSSSSGSSSSSSGJnsADSGJJJJJJJKGJS",
"gGAZZAAASSJGSSJl-sjvvmjNAVNNnkd58mASSSGGGGGJGJPBsASZAJJKJJGJJJJG",
"dGSAAAASGDDDSSGl=dvNVANvSAAVvhp18ccNSSSSGJJGSJJndAAASGJJPJJPJJJS",
"sGGSASDDJJGSGGGl-fnVSSNcvSAmst9&8hjnSSSGSSKKGGJnsAZASSJIIIIPPPJV",
"gJGSSDDGJGDSDJJl-hNZSVdfNJGAct7%8jhlSJGSGSJJGGGvsAASDDJIIIPJJJGZ",
"jJGGJJGDGGDSDDJl-fmVAvsjAGSANp7&8hdfVJSASGJGGGGnsASSGGDJJJJJGJJS",
"vGSJJJGDGJJDSSJl-fmVVANkmAANmkt&8hddNGAZGGGSGGGnsVASDSSDGGGGSSJG",
"vGAGGGJGGJJJJGJz=fmVVAVnVVVVNvu-8jjlmSZSJGGGSGSvaASSSSGJGSSAZSJJ",
"vGGGSSSSSSGJJSJx$pcNVNvvNmmNmvu-5jllvSSJJSSJJGSvuSSSSSJJGSSZASJJ",
"nJGSASASSAAGGAGz$udkVmjcvvNmvkt*6jjjjAJJJSJPJGSvtASSGJGSSSSSSJPJ",
"NJSAASAGGDSGGAGl$ridjjjhhjvmkhr*5jjhhVJJGJPJJGSnrVSSGGGSSSSSSGJH",
"jSGGGGGJJJJJGGIl$0tdjjdddfkvkf9&5hhhhNSSAJJJGGGntjNSSSSSSSSSSJJS",
"9dvnvlcjhhccvmVu$0qydfpiuidhdi1$:0rryshjhvvvvnNgujcASZmvvnZSSSVn",
"##$$$@@###$$%=-$%qrtuppitqryr9:+O##@%%==%%@+@=<>9dighdpipphvlhdp",
"880w8883>;348we8aAAVVVNncjcnldu8----;><3388wwwr5%227777567790qrq",
"cNNNNVVNmmNNmNSVnPGSSGGASJPPLScs6piisppssdjjvmNi#&*-::---><13567",
"lAVVVNVVVNNVNNZNVPGSVASASJPPPJNd9ssspddddddhVNVg-0ttyisstryspipi",
"gSASAASSZZVAAVVnVPSSSSPJSJPIYIJcuvcjshhdhjNNJGGl-ijvkmmmvjfdssfc",
"dASSSSSSAAAAVNZnVPJGSAPPSJIUYIJvsSSANvjhjVSASGJn>hvvcvbmmbmjjvNN",
"dSSSSJGSSSAVNSDnnJJSAAPKSJIIIPJnhSSSGZNNVASAASJn1jcvmbvvmNNNNZSV",
"gSSSSJGSSSAVVJJNVJSSAAPJNSPIIPJmcGGGSZVVVSJGGGJn>fvmVNNNZAASSGDA",
"dSSAASSSSSZVNSIVVJSSSJIJNAKPIPJNvJJJGSSSSJPJPJJn:kmmmNNNNZAZZSSV",
"aAASSSSSSJGSSSPVnJSGPPIPGJJKPPJVnJSGJHSSGJJPJJJl1vNZmmVmbNZVNZAV",
"aAASGSSSJPJSSSSnnJJGSAGPPGGJPPICnGSSSSGSSGJJJSJl>jvAmbNmvNNNNNZV",
"rASSSSSSJKHSSAVncGJSZNSPKJHJPPJVvSAVSSJGSGJJSSJx-fjvkkvcvNmbvmVN",
"0SSSSSASGJJSSVVvlSJSSAVSSSSJPJDmjSVNASJJSSGGSSJz=dssfjjjkkhkccmc",
"tSSZASZZZGGAVVVcjVAVNmmmvvVSJSZnhAVZASGGGSSSSSJg$yyyypppiuypfhcj",
"dSAASGSZASSAVVAlsvvjhhhjfdhvVVmlhAAJJGSSSGSSSSSa@752270y9557qydd",
"nGSSJKJSSGSSZVZjrhhddpiuuiiidjchdZSSGSSSGJGSSSDd$<<<156975579qyt",
"sncclcljddaiiuu8tAAVNVNmNVVNNVAvrcmNNnvcnnchddi6>sjhvNNNNmmmmmVn",
"<q76777755221,-owGSSAASAAAAZVVAn0hvnNncjcjduww0>8SSSZZZZZZNNmZSS",
"5096551<<<<>>-$.3ASSAAAAVZZAVVAniNVASGSGSSSAAVNuuDJGNNNNNNNbcVGS",
"jvccccvvvjjhdiq:4ASAAAAAZZAAVZSnuvmVAAZSZASSAVNuaJJGZVNNmmvcvSJS",
"vNNmmVVVNNbccjp>wSAAASAAAZSAVASntcNAAAVNmVSSSVnuaJSAZAZZNmvcvZSS",
"mAZVNAAVNVmccvp>wSAAASSSAASAVVSnrvNSSAVmmVAJSVvusDAAAAZZVmvvvvZS",
"NSAAVSSSVNNmvvd1wSAAAASSSSSANNAnrnNZZAZVVASSSANigSSSSSZNVmbvbvNS",
"NSASAASSAVNmvcp<8ASAZASSSSSAVNAntnNNZZZVAASGSAnulGSDSSZbmNmvNNZA",
"VSASAAASSVVmvjp<3ASAAAAASSSSSSSnrvNNZVVVASSSSVvujIJDAZZVmmmNSGGS",
"NGSSSAASSVZVvjs1>ZAAZZVASSSSSSGnwvNVVVVVVAAAANculKJSZZZANmNSDGGS",
"nSSSGSSSZVAVmkp13AAZVAASSSSSSAGnwbVAAAAVVAZAAmvilJGSANmZVZSGGJJS",
"nSAAAASSVZANNvd<8SAZZSSGSAVVVADnuvVZASAZVVASSVmigIJSZANSJASGJKIS",
"vASSSSSAAZVNNvd<8SSSGGGGSAAVZSJnibVASSAAZVSSSANidJGSASVSJSSGJKJS",
"vSSSSSAVVVVmnvf20SSSGGGJSSSSSGGvumNAAAAZZASSSZNaaGASSZVAJAAGJJJS",
"nSSASSAVVNNNmvf6tSZAAASSSASSSSSliNVZAAAAAASSSANauSSDSASGJSAGJJJS",
"vSSAASAVVnNVNvh00jhjjjfshkjcvvjtiNAAAASASSSSSSVs8vbmNmmNZNNNNNZv",
"lSSSSAAAANVVNvjr2yuuuuutuaadait50jccljlvclhdhhi91ryurqruuyrrruuq"
};
