/* XPM */
static char *map_K[] = {
/* columns rows colors chars-per-pixel */
"64 64 115 2 ",
"   c #251F17",
".  c #272118",
"X  c #31291E",
"o  c #352C21",
"O  c #3C3124",
"+  c #463827",
"@  c #473928",
"#  c #4C3D2A",
"$  c #503F2C",
"%  c #4F402E",
"&  c #55432E",
"*  c #58452F",
"=  c #574632",
"-  c #5A4731",
";  c #5D4A33",
":  c #624D36",
">  c #634F38",
",  c #665037",
"<  c #685037",
"1  c #665139",
"2  c #6B543A",
"3  c #6F593E",
"4  c #70573C",
"5  c #735A3E",
"6  c #795D3F",
"7  c #745D41",
"8  c #7A5E40",
"9  c #7D6244",
"0  c #846545",
"q  c #876846",
"w  c #886847",
"e  c #856A4B",
"r  c #8B6C4A",
"t  c #916E4B",
"y  c #8E704E",
"u  c #94724E",
"i  c #98744F",
"p  c #836D51",
"a  c #8C7151",
"s  c #8D7659",
"d  c #8E785C",
"f  c #947552",
"g  c #997651",
"h  c #967956",
"j  c #9C7A55",
"k  c #9D7E59",
"l  c #A17D55",
"z  c #A17F59",
"x  c #957E61",
"c  c #9F805C",
"v  c #A4825C",
"b  c #AA855D",
"n  c #9C8465",
"m  c #9B8568",
"M  c #A48662",
"N  c #AB8760",
"B  c #A68965",
"V  c #AC8A63",
"C  c #A28B6D",
"Z  c #AB8E6A",
"A  c #B28D64",
"S  c #AC906C",
"D  c #B49067",
"F  c #B5936B",
"G  c #BC986F",
"H  c #A68F70",
"J  c #AB9374",
"K  c #AD9779",
"L  c #AF987A",
"P  c #B39671",
"I  c #B69975",
"U  c #BB9B74",
"Y  c #B39B7B",
"T  c #BB9E7A",
"R  c #BEA17D",
"E  c #C19D75",
"W  c #CC9C76",
"Q  c #C2A077",
"!  c #C1A37D",
"~  c #C8A77F",
"^  c #BDA482",
"/  c #BEA788",
"(  c #C2A681",
")  c #C5A985",
"_  c #C9AB85",
"`  c #C5AB89",
"'  c #CAAE8A",
"]  c #CCB18D",
"[  c #D0B38F",
"{  c #CDB593",
"}  c #CFB897",
"|  c #CEB898",
" . c #D1B692",
".. c #D4B996",
"X. c #D8BB97",
"o. c #D9BE9A",
"O. c #D6C09F",
"+. c #DBC19E",
"@. c #DEC5A1",
"#. c #DFC8A5",
"$. c #E1C6A3",
"%. c #E1C8A5",
"&. c #E5CCAA",
"*. c #E8CFAD",
"=. c #E7D0AE",
"-. c #EAD2AF",
";. c #E7D1B0",
":. c #EDD4B3",
">. c #EFD8B7",
",. c #EDD7B8",
"<. c #EFD9B8",
"1. c #F0D8B7",
"2. c #F0D9B8",
"3. c #F3DFC0",
"4. c #F4E0C0",
/* pixels */
"+.*.&.%.$.@.&.:.&.$.%.%.$.@...Z 0 k M V R _ _ ' ' _ ( ) ) ! T B R [  . .' ' _ _ ' ' ' ) ) ) ( Z ( .. . . .] ] ] ] ] ]  ... ...! ",
"&.:.:.:.-.%.&.:.*.%.%.&.*.&.-.T 9 f j v U _ _ _ _ _ _ ) ) ! F v ..=.-.-.-.:.*.-.:.=.-.&.&.&.-.R  .&.%.%.%.%.@.%.%.%.%.&.*.&.&. .",
"&.:.:.:.-.%.&.:.%.@.$.&.*.&.:.^ ; 9 e e M U U G F U F F F Z k y ..-.-.&.%.&.&.&.:.-.-.-.&.&.&.J { $.@.$.%.@...@.%.%.%.&.%.&.&. .",
"&.>.<.:.-.&.&.:.&.$.&.%.&.:.1.^ O - 2 5 e v j j j j k j a r 7 3 ..:.&.$.@.@.%.&.:.-.=.&.&.&.&.S ] %.$.%.$.@.+.@.@.%.&.&.%.&.=...",
"&.2.:.:.-.&.%.*.%.+.$.%.&.:.2.` O ; 0 y f j g k j v v j u q 9 3 ..-.%.$.$.@.%.=.=.&.&.$.$.%.%.P ] %.%.@.+.@.$.$.@.%.&.&.&.&.&...",
"&.:.-.-.-.&.@.+.$.+.@.$.&.*.:.` O 2 v V V b b A F D D b l u y 7 { -.&.&.&.&.&.&.&.%.%.$.$.%.$.M ] &.&.%.$.$.%.%.%.%.&.&.&.&.&...",
"&.-.-.*.&.+.o.+.%.$.$.+.$.%.%.Y o 2 D E E F F D F A F V l i y 7 } -.&.&.&.&.&.&.%.$.%.%.%.%.$.B { &.&.&.%.%.$.$.&.&.&.%.&.&.%...",
"%.-.*.%.+.o.o.o.+.$.$.&.*.-.:./ o 2 N W G F E U D U U A A v u 7 } &.%.&.&.&.&.&.&.%.%.%.%.&.%.Z ..&.%.%.%.%.@.$.&.&.&.&.&.&.&.o.",
"%.@.o.o...o.+.o.o.$.&.*.*.&.-.^ O 5 j A U E U D Q E E A V v u 2 } &.+.@.%.&.&.&.&.&.%.%.%.&.%.P ..&.@.%.%.%.$.%.&.%.&.=.&.&.=.o.",
"&.+...o.X.X.o.$.$.$.&.*.&.&.&.^ O 5 l F ~ E E F U E U F F b w 1 { &.+.@.%.&.&.&.&.&.&.%.%.&.&.T ..&.$.@.%.%.%.&.&.%.%.&.&.&.-.@.",
"&.%.........+.+.$.$.&.%.$.%.-.Y o , j F U U U G D D F F A l 0 : { &.@.@.%.&.%.%.&.&.&.%.%.&.&.R { &.%.@.@.@.%.&.=.&.&.&.&.&.&.@.",
"&.-.%... ...o.+.$.$.%.$.&.*.:.Y o 1 t V F F D F b l b A v r 6 > { -.%.@.%.%.$.%.&.%.&.%.%.&.&.Y ..-.&.@.%.@.$.&.=.:.&.&.&.&.=.@.",
"&.:.&.....X.o.+.+.+.@.$.-.:.:.Y o 5 g b j l j g u u g v g 0 5 1 | &.%.@.%.%.$.$.%.%.%.%.&.&.%.S ..*.=.@.@.%.%.%.&.-.&.%.&.&.-.@.",
"&.-.@. .X.+.+.@.+.+.+.@.-.:.*.J X < r r 9 0 w r y r 0 y r 0 2 ; { %.$.@.$.$.$.$.%.%.%.%.&.&.%.P ..-.&.%.@.%.&.&.&.-.&.%.%.%.&.+.",
"&.*.$.+.+.@.$.%.%.%.%.%.&.&.&.n . # : , < 2 5 7 3 2 2 4 8 2 - = { %.$.$.%.&.&.%.&.&.%.%.&.&.=.R ..&.&.&.%.%.&.-.:.-.&.&.%.%.&.o.",
" .o...................] ( ) ! h . O # & ; ; ; = & & & & & # @ # ` @.o... ..... . .....o.o.+.+.I U R R ( R R R ) ) ) ' ] [ [  .) ",
"{ o.@.@.@.@.+.+.+.+.o.] ! ( ] S h C J J Y Y Y Y J J L Y Y Y K n ( ] _ ! R ! ! ! ! ! ^ ( ) ` ^ S T ( R R U R R R ) ] {  .......) ",
"&.-.:.-.:.:.-.&.&.&.&.&.&.&.&.! +.:.:.*.*.&.%.-.&.&.&.:.:.:.-.o.@.>.2.:.&.&.&.=.=.&.-.:.:.:.:.] ..&.%.%.&.&.=.&.&.:.>.:.&.&.-.+.",
"%.-.-.=.&.&.&.=.&.%.&.&.&.&.&.R ..:.-.&.&.&.o.@.&.&.-.:.:.&.-...@.>.4.2.<.&.&.&.-.&.&.&.=.:.:.{ ..&.%.@.%.&.&.%.%.&.:.&.&.%.&.' ",
"%.:.-.&.%.%.%.=.<.-.&.$.@.$.&.( +.>.:.=.&.&.%...&.&.&.%.@.o.@.] +.&.:.4.3.:.&.&.-.=.&.-.:.<.:.} ..&.$.$.%.=.&.$.$.$.%.%.$.&.&.T ",
"@.:.&.&.@.+.@.%.:.&.%.+.+.$.&.R @.<.=.&.=.&.+. ...&.%.+.) ( ' ! { +.&.2.4.<.>.:.:.=.:.>.>.<.:.....$.%.&.&.:.:.&.&.%.&.%.&.&.&.I ",
"@.&.&.&.%.@.%.%.%.&.&.$.+.$.&.U @.:.&.&.:.%.] ] @.:.&.&...) ' R ] +.@.&.2.<.<.3.3.:.&.=.:.<.:.....$.%.&.&.:.>.:.&.&.&.&.&.&.%.Y ",
"@.-.&.%.&.&.=.&.%.%.@.@.%.@.%.U o.:.&.:.:.%. . .$.=.&.&.%...{ ( ] o.o.@.<.:.:.2.2.:.&.=.:.:.:.....&.&.&.&.:.<.:.&.&.&.=.&.%.%.( ",
"&.&.%.%.&.&.&.@.@.%.$.%.:.%.%.U ..:.:.:.:.:.&.+.@.&.:.:.-.&.+.! ] +.+.+.:.:.:.:.2.2.<.<.:.=.:...@.<.-.&.&.:.:.&.&.&.&.&.&.%.%.) ",
"&.&.%.%.&.&.%.@.$.&.@.$.:.&.&.R +.:.:.<.:.<.:.&.&.&.=.:.:.:.@.R ] o.o...;.<.&.@.<.2.:.;.&.=.<.@.@.2.&.@.%.%.&.&.&.&.&.%.%.&.&.` ",
"%.&.&.%.%.&.%.@.@.%.@.@.%.&.&.I +.:.:.:.;.:.=.&.&.&.&.&.-.:.+.T ' ......&.<.&.@.:.<.&.%.&.=.:.@.@.>.:.@.@.%.&.&.&.-.:.&.&.&.&.' ",
"%.-.:.*.&.&.&.%.$.$.@.@.@.@.o.V +.:.=.%.&.=.&.%.&.&.&.:.:.-.+.U _ ......%.2.:.&.>.<.%.%.&.:.:.O...:.&.@.@.&.&.&.&.:.:.=.&.&.&.' ",
"%.-.&.&.&.%.%.@.+.+.+.$.+.+.+.P +.>.:.&.&.&.&.&.&.&.:.:.-.:.+.I ' ....o.%.2.:.&.<.<.%.&.&.:.<.@...&.@.%.&.&.&.&.&.=.-.&.=.=.&.) ",
"%.&.$.%.@.@.+.+.+.+.+.o.+.$.$.I ..:.:.:.-.=.:.:.=.-.-.&.&.&...P ' o.+.+.+.:.:.&.:.<.&.&.&.&.<.@...$.%.&.&.%.&.&.=.=.&.&.=.&.&.' ",
"%.&.%.&.&.$.+.$.%.@.@.+.%.:.*.Y ..:.=.:.:.=.:.:.:.:.-.&.&.&.{ Z ) o.......&.<.=.&.&.%.@.&.=.<.@.....@.&.&.&.%.&.&.&.&.&.&.&.-. .",
"@.&.-.:.:.&.%.%.$.&.:.&.-.2.2.^ ..:.=.:.:.:.-.:.:.:.:.:.=.%.{ Z ) ........%.:.%.@.&.-.&.&.:.2.@.@... .%.&.%.o...o.@.&.&.&.&.%. .",
"! { ..o...{ ` ( R R ( ( ( ) ' I ) ..........+.+.+.....] ) ( I B T ) ( ) ' ' ]  ...@.#.%.&.;.:. .' { ) ' ] R P F T ( ' { { ' ) U ",
"! ) ....{ { ] ] ) ' ' ) ' ] ] U ) ..................{ ` ) ( F k r c M V U R R ( ) ) ( ) _ _ ( Z T ' ( ( R T I U T R R ( ( ( R F ",
"@.%.:.&.&.&.&.-.-.-.:.:.:.:.:.] +.-.;.:.:.:.:.:.:.>.:.&.&.%.] M 9 f k M T ] _ _ _ ' _ _ _ ! F c )  .] .. .o.@.$...] ] ] ] ] ] ) ",
"&.:.:.&.&.&.&.&.&.&.&.=.:.:.:.{ +.&.=.:.:.<.:.:.:.:.&.&.-.&. .n : 9 e r V ! U U U U U U U F v y ) ....&.&.&.&.*.%.o...' ) ] ....",
"=.:.-.&.&.&.&.&.&.&.-.=.-.:.:.] +.&.-.>.<.:.&.:.:.:.&.&.:.:.&.C O ; 3 7 e M v c v c v k h f 9 7 { &.%.-.-.%.%.&.&.%.%...o.&.&...",
":.<.:.&.&.&.&.&.&.=.:.:.&.:.:.' o.&.-.:.:.&.&.;.:.&.&.=.:.:.:.C . # , 5 9 e 9 9 9 9 9 r 5 , & % | :.&.:.:.-.&.&.&.&.&.%.%.&.&. .",
":.:.&.%.%.&.&.-.:.:.=.&.&.:.:.{ ..&.&.&.=.=.=.=.&.$.&.=.:.-.:.J X - 8 f f u r r r n a e f e ; ; | :.-.:.:.:.:.=.-.:.-.-.-.%.&...",
":.:.&.@.$.&.&.=.:.:.&.&.&.;.:.....-.-.=.=.=.-.&.%.%.=.&.%.%.&.J o 2 r f v v j u B ..M r T N 5 1 { :.&.&.&.:.:.-.*.:.:.:.:.&.-...",
"=.:.&.&.&.&.&.=.-.&.&.-.-.=.:.....=.-.-.=.:.=.&.%.&.:.=.&.%.&.J o 4 f v V b j g M P j f b j 5 ; { :.*.&.&.&.-.:.*.*.:.-.-.-.-.' ",
"&.:.:.=.:.:.:.:.*.&.-.:.-.:.:.+.o.=.=.:.:.:.&.=.&.=.:.:.:.&.=.J o : w l V j j v j z u t r 0 2 2 { :.-.*.&.&.-.:.-.*.&.&.&.:.:.) ",
"@.-.:.=.:.:.<.<.>.:.-.-.=.-.:.+.@.:.-.&.:.:.&.&.=.&.&.-.:.:.=.J X - 8 r f i l b F u t t r 6 2 9 ..&.-.-.&.*.:.:.&.&.&.%.&.-.-.( ",
"@.:.>.:.>.2.2.2.<.:.&.&.&.&.:.+.@.:.:.&.-.:.:.=.&.&.&.&.-.-.-.J o - 5 0 u v b v j r r j j 9 2 : { *.&.&.&.&.&.&.&.%.%.%.%.&.&.) ",
"%.:.:.:.<.>.>.<.:.:.-.&.&.&.:.@.#.<.:.-.:.=.=.=.-.=.&.&.&.-.-.C o & 2 8 r g v j u r t j a 9 5 ; { :.&.&.-.:.&.&.%.%.$.@.@.%.=.) ",
"&.:.:.:.:.:.:.:.<.<.:.&.&.-.:.o.@.:.=.&.&.&.&.&.&.=.&.&.&.=.-.n . $ 2 8 0 r f j j r 0 j r 7 2 = { -.*.&.-.-.&.%.%.%.&.&.&.&.&.^ ",
"&.:.:.>.:.-.:.:.:.:.:.&.&.:.:...@.=.&.&.&.&.&.&.&.&.&.&.=.:.-.H . # : 5 5 9 r u u 0 5 6 0 5 ; = { *.*.-.*.-.*.&.&.%.%.%.&.-.&.^ ",
"@.&.&.:.:.:.:.:.-.:.<.2.>.:.:...@.:.-.&.&.&.=.&.&.&.&.:.&.&.:.J   O & * : 2 5 9 9 5 - & < : # % { -.*.-.-.:.:.:.:.*.&.&.:.:.-.` ",
"R R ( _ ] ' ' ) ] ....+.+.o...( ` ..{ ] { { ' ) ( ( ( ) ! ! ) n   X + + # $ - : ; & @ + + O X O Y ..{ ..o.+.@.+.+.@.o.......{ P ",
"! ' ] ' ] ] ] ] [  . . .......T ( ] ] ] ] ' ) ( ) ( ( ( _ _ ( Z p s d h h x n n n m m m x d d p T ......@.@.@.@.+.@.@.@... ...T ",
"@.-.&.%.%.&.&.%.%.%.%.*.&.%.&.{ o.&.&.&.&.&.$.$.&.&.*.-.&.&.*.R [ $.@.$.%.&.&.%.&.&.&.&.&.&.-.] ..&.:.<.<.<.<.:.:.:.:.>.>.:.:.] ",
"@.&.+.+.@.&.%.$.+.o.+.&.-.%.&.{ ..&.%.%.%.$.%.%.%.%.&.*.&.&.&.T [ $.@.%.&.&.&.&.%.%.%.$.&.%.&.{ ..%.:.<.<.<.:.:.;.&.@.:.<.:.:.' ",
"@.&.+.+.@.$.$.$.o.o.+.+.%.@.$.{ ..&.&.%.$.$.&.%.%.&.&.*.*.&.&.!  .$.@.$.%.&.-.%.%.%.%.%.%.+.%. ...&.=.:.:.:.:.:.:.@...&.:.%.%.` ",
"%.&.+.@.$.@.@.$.+.+.$.$.$.$.%.{ ..&.*.*.&.%.%.%.&.&.&.*.&.&.&.R ..&.%.%.&.-.*.%.$.%.%.&.%.+.$.] O.&.#.%.:.:.:.:.:.&.+.=.:.%.%.) ",
"$.&.%.%.$.$.@.$.$.%.%.$.+.+.$.{ ..&.*.*.&.&.&.$.&.-.&.&.&.&.&.! +.:.$.$.%.%.%.$.%.%.%.$.$.$.%.) ..;.&.&.:.:.<.,.:.-.%.:.:.@.&.) ",
"%.*.&.&.%.@.+.@.$.%.@.o.+.@.$.' ..&.&.&.&.&.%.%.&.-.&.:.*.&.&.! +.:.+.o.+.+.%.$.%.%.%.@.$.%.%.' ..&.=.&.<.<.2.<.:.-.%.:.:.%.&.( ",
"%.*.&.&.%.$.@.+.$.$.+.o.+.$.$.( ..&.%.%.&.&.%.&.*.&.&.*.*.*.-.! o.:.$.o.+.%.%.$.%.&.&.%.%.%.&.{ ..&.:.<.:.:.<.:.:.:.&.%.&.@.$.R ",
"&.&.&.&.&.%.$.+.$.%.+.o.o.+.@.T  .&.%.%.$.&.&.&.-.*.&.&.*.-.-.' o.&.+.+.@.%.%.$.%.&.&.%.%.%.%. ...&.<.:.:.:.-.:.:.&.@.+.@.%.%.T ",
"&.-.&.&.&.&.&.%.%.$.$.+.o.o.@.I { *.-.&.%.%.%.&.-.:.*.&.*.-.*.' ..@.+.$.$.$.$.%.%.%.%.%.&.%.$.{ +.:.<.:.-.=.:.:.&.@.+.o.@.&.%.R ",
"&.&.&.&.%.$.$.@.@.+.o.......+.I  .:.:.&.%.&.%.&.*.:.:.&.&.-.:.] ..$.$.%.%.$.$.%.&.%.$.&.&.%.&.] @.<.<.:.:.%.%.%.@.o.+.+.o.@.%.T ",
"%.&.&.%.$.+.+.@.o.o...o.o.o.+.I { -.:.&.$.%.&.&.&.-.:.&.&.*.-...+.%.@.$.%.$.@.%.%.%.$.%.%.%.&.' @.<.<.:.&.....o.+...+.@.+.+.%.R ",
"$.*.%.@.+.o.@.%.$.o.X.+.o.+.$.T { :.-.&.&.%.*.-.*.:.:.&.&.&.&...@.&.@.+.%.%.$.%.&.*.$.$.$.$.&.` +.:.:.;.@.+.......o.o.@.%.$.&.R ",
"@.-.%.$.+.+.$.%.&.+.......$.&.R ..:.&.&.&.%.&.*.-.:.&.%.&.%.&...@.:.&.%.%.%.%.&.&.:.%.$.%.$.&.{ +.:.:.=.&.&.@.......+.@.$.%.%.T ",
"@.-.&.&.%.&.&.&.&.%.$.$.$.&.&.R ..-.&.&.&.%.%.*.:.:.&.&.&.&.-...@.:.-.:.:.&.%.&.&.:.&.$.%.&.*. .@.<.:.:.:.:.:.&.+.+.@.@.$.%.+.F ",
"[ ......o.+.+.+.........' ' ] P R ! ' ' ) ) )  .+.+.@.+.@.$.@._ +.:.-.:.:.-.$.&.-.:.&.%.&.-.:.] ` { ' ` ' ] ] ) ) ) ) ( ( ! ! F "
};
