/* XPM */
static char *map_U[] = {
/* columns rows colors chars-per-pixel */
"64 64 63 1 ",
"  c #524330",
". c #64523A",
"X c #69563D",
"o c #6F5B41",
"O c #745E42",
"+ c #766045",
"@ c #7A6346",
"# c #7D6549",
"$ c #7F684C",
"% c #896E4E",
"& c #866E50",
"* c #886F50",
"= c #877155",
"- c #8C7353",
"; c #8B7558",
": c #927655",
"> c #957B5B",
", c #9A7E5B",
"< c #987F61",
"1 c #9D805E",
"2 c #A1835E",
"3 c #9D8362",
"4 c #A28663",
"5 c #AA8B66",
"6 c #A58B6A",
"7 c #AA8E6B",
"8 c #AD916D",
"9 c #B1936E",
"0 c #AC9271",
"q c #B29672",
"w c #B69975",
"e c #B59C7A",
"r c #BA9E7A",
"t c #BDA17D",
"y c #C1A47E",
"u c #BDA381",
"i c #C2A682",
"p c #C9AB86",
"a c #C6AC89",
"s c #CAAE8A",
"d c #CDB18D",
"f c #D1B48F",
"g c #CEB491",
"h c #D2B692",
"j c #D5B995",
"k c #D8BC97",
"l c #DCC19D",
"z c #DDC3A0",
"x c #DEC5A1",
"c c #DFC7A3",
"v c #E0C6A2",
"b c #E3C8A6",
"n c #E3CBA8",
"m c #E8CFAD",
"M c #E7D0AD",
"N c #E8D0AE",
"B c #E8D1AF",
"V c #EAD3B1",
"C c #EDD8B7",
"Z c #EFD9B9",
"A c #F1DCBC",
"S c #F4DFC0",
"D c #F4E0C0",
/* pixels */
"+%%%->>>>-%#%-3-@O+##OO++@##%&*-axxkkkkgspaaips5@OO#@O+@@@$#%*-*",
".O@@-,,,,>:::::%qu04347000870ee6lVVVNNVVVNNMNNNr3666765555466312",
"->3336777008763:kVnbxxbnnnnbnnbtknnVNbnVVNbnnVCupnnvbnbxxxxbbxjw",
"jbnnnbbnNVNnnblwknbnnnvnnnnnnbleknbNVVVNnnbvnnVppnnxxxbvnnvxvbxw",
"knnnnnnnnnbnnxkwknbbnnnnbnnnnbxekNnnnVVNnbbvnbnasnVVMVVbbvkxbvxr",
"kmbbnnnnnnnnnvkqkVnbnnNnbnnnnvlekNnnnVVVmnbbnnndgnMMVVVblklxxxxr",
"lnbnnnnnnnnnxlkqhVnxnnnnnVVnbxxwkNbbNVNmmnbbbnVhhbkkxbnnxlllllxr",
"jnnnnnnnnnnbbxk8dVnjxnnnnVVMnvvwjVNnmNNNVnnbbMVgdxllnNNVnlkkkkxt",
"jbbnbbnbbbbvxlh5gnbxxnnnnnnnnvl0gVnnnNNVVVMnnNVgsxnMVVVVVnxlkklr",
"jbxllvnnbbnnvlk4anbbNVNnnnnnnvk5hVnnNVVNNVnMnVVgdbnVVVZVVVbkklnr",
"dvllllllvbvxllk4pNnNVZZVnMnnbvk5kVnnVVVmnmNVVNVggnNVVZAVVVxjkbVi",
"dkhjkkjjkkkkkkh1innNVVVNbnnnbvl0kVVVVVmnnnmmmmVsgMVVVVZVVNxkxMVi",
"djdfhhjjjjffhhs>tnbnmnnnvxxnnvlekNnnVmnmNNnmnNNpdMVVVVZVVVVnbMVt",
"pfdpipppsppppyt-uvxxnnnnxxxbnvlrxNbnnNnNNmnmNmmpdnVnbnVZVVVVMNVt",
"tirw9wwwq999999%rxxxbbnnnVnxvxxixCVVVVVVVmNVNnNadnMnbnVVZAAZVVVi",
"884222221122222%tvnbxxnZAVNbvbNuedggjjjjjhhhhjhrgxvnnNnnnVAAVCVa",
"ijssstipdgjgpdjiwhkkkklxxxkkkxx0@--*>,,>>>-%->4>eghklkkkkxxxxxxi",
"gNnnnnnnnnnnnnNg6shkkjklxxxxxxxuXO@@:,,,,>:::::%6dghdsdjjhghhkkd",
"gnnbbbbnnnbnnnngrbnMVVxVZVVZZZZx&>,>>>>,4675455%embvvbbbbbnnnnNn",
"hnNnxbbbbbbbbnbgrvnVZZxxnnVVnMNx6yiyyppdhhhhfdd7enbllvbbnbbbvbnb",
"jNVnbbbbbbnbbbvdevbVVVnkxnnbkjkd8piyyphlllllkhd7unbbbvbbnnnbvbnv",
"hNNMnbbbnnnnbbbswxbnVnkkjxbxdist7ppsddkxbxxxljd8anvbnvvbbnnvvvbv",
"hVVVnbbnnnnnbbnpqlvnNlslnnnnbsdt6pfjhlbxxxnnbkdwanbbbbbnnbvvbnmn",
"hVMNMnbnnnnbbvnp9lbnMnkxVZZAZlhr4ishjlxxblxnnlhranbbbbnnnbbbmVVm",
"hmnnnnnnnnvvxvna9lnnVAZnnVVVVnkw,wwighjlxllbnljwpnbvvbbbbbbbnnnn",
"hNnxbnnnnnnbvvnd9lxbVAAVlxnMMMkq>w89sdjjklxbnvkrunnnbvvbvbbvbnnv",
"hVbxvnbnnnnbbvns9lxnVVVVnVZCCZl8:757idjklxnbbljwtmnNNbbbbvvxvbbv",
"jmbxbnnnxbxxbvbp9lnCZZVVZZAAACxw*445tsfjjlbxljd7rnnnMvlbbvvbbnVn",
"kNnbbnnbllxxxxba8vVADAAAZAAAACxe%244wdpsdhjjhdi5ebnbbvllxbbbbbVN",
"kNVnnnnbxvbnbvbgqmZADSAAAAZADVk7@:,28ytyyisspiy1qkvvbxkklvbxlnVN",
"plNVNNNmmnMVNnnjrVZVZAAAAAZZAVj6X@%%%2575577777-7phxnxlxkkvvbnnn",
"18etrwerrrtrtuiqtNVVCASSAAAAAVj8#%**&>11,21,,24:9ppknxkhfdlbMnlj",
"#@@##+OOOO+@%%%%8ggdgjkkkhdsauq,8ppppppppdkgjll9297wrwwwwwyspiyw",
"tidddpiipapipsdwplllxxbbxxkkgu7-wddggdppsdghxbv9,9qwwrtiiippiipw",
"llllklllkllkjkxdknnnnnMVVNMMnlt>uhhhhdppdhkknnnq4ydkjvnmljhsppdp",
"xvlxxxxlllxxllxjxMnvlbnMNVVMnxs>abxxkgsshlnnnnMw9fknnnnmNNnhfkxj",
"xvvbbvvxxxvnbxnkxVVbvbnVNMVnbxl4gnnnnxllvnnnnnnrrlbnnnVmnnnlxnnd",
"lvbbnnxxxxvbvbMklMVnnnnVMnVVbxl7kVVnnxxbnnnnMnnwwlbnnnmnnnNnnbnh",
"lbbbbnvxxvvxvbMhknMnnMnMnnnMMnl0kVVVNbxvnNnVnnnwqkvbnmnnnVVVVnNh",
"xbbbbbxlxxxlxbndjnnNVVnnnnnnnnlqkVVVVMnnMnNMnnnewklvnNmmNVNmVVVd",
"xbbvvxxlxxlklbndknnMnnnnnnnnnnxekVMnnVVMnnVMnnnrwjlvbbnmmmnnNNNs",
"lbvxlxxxvvlkkxbslNMnnnNVMnbnnnlrlZCVnMNNVVVMnnnuqhlvbbbnnnnmNnnt",
"kbbxllxvbvxllxnpknnnNVVVCVnnnblekVCCVMMVACVVnnniwjlvbnnnnbnnnnbw",
"jvvvxlklxvvxxvxthnnnVVVVCVnnnnxekVVZVnMnVNnNnnnitkklbbnnbbnbbbbw",
"hvxxllklxxxvxllqdnnnnVVZZVbnVMxekNNVNMMMMMVVMnNutllvnnbbvbbbnnnw",
"hlkjjhdhjjjjjjj5snnnnnNVVNnMVnxrknnnnnNMMVVVNMVatlxbmmnbnNVNmnnt",
"tsiiiyrriiitipp4pnnMMnMNVVVVMnxthnbbbbnbnnVVnnNpilvbnnnnnmVNNnbw",
"8tipdhsddspiurq,rbnVZVVVVMNVnnvw-3,>4565443>36q7axbbbnnnnnnnnVnw",
"knVVVVZVnnmNmnl4$37qqq9qrrrrwq7-%-&##$=;;;=-=;<->0qwwrrwqqwwwrr9",
"bnnVVVVVnnnmVmn6 O%::::>,1,,,:#oulkjkkkklllxlkx0O:,2421,,,,24458",
"nnmnnnmNmnvnVNb4.>5q0000q6378q0&snbbbbxxbbvvvbnu,wriiiyrrwwwrti5",
"nnnbbbbnmnbvvxb0Owphjkkkllhfhkj>dnnbbbbbbbxvvnVa9pdfjfhhhfffjllw",
"bbvnvvvbnnnbllneOrsdhjkxvkjhjlj,dNnnnbbnnnbvvnVaqsjjkhkkhfdfhkvw",
"bbxvllvvvvvxllne+rdfjjxnblljhhh3gNnnVnnnmnnnnVCpwjxkkjjjjjfjjhly",
"nnbnvvblkvxvllbu%wfjjllllkllhhj3gNnnMMnnnNVVVVVpwhjjllkjkkhjjhxp",
"VVVVnllkkvlklxbu&thllblxvllkjjk3gNnnnVVnmVCVVVVtwffjlvxlxxkjkjvp",
"nbnnblkllklkllbu-rfbbbvbbxljjjh3gNnnnVVMVZAZVVnqwhfhkvvvvvlklvbp",
"vbbnnbkkkkjjklvu-tknvbbxlxvkklf3jnnnnnnMVAACVVVwwhjkxvvlxbllnnnd",
"nVVNNNbkjkjhjkxu-ijklbnbxvbljjh4hnnnnnnnVZAVMVVwwjklxxxlvnxxvvnh",
"nVVVVNmbkkjkjjxu>pjjkxnnbnnxkkj7jnnnnbbMVVZZVVVwwklllxlvbnxklvnh",
"nVVAVNVnkjknbxbi3djkkxnnnnnblllqknnnnvvnMMCVVZVwwklllxvbbnvlkxnf",
"VVVAZVVnxxbVVNNp3sklxnbbbbnbxbbekVNNNnbnVVZVVVnqwjjkxvnnnnnvlvns",
"knbnbvvxxbbbbvbu4hlxbbbbbnNbxxlekNVVVVVVVNVVVVn9rkjklbnnnnnbvbns",
"8tqqq578wtye7wy9qjvnnbnbnnNnxxxtkVVAAAAAVVNVZVNqilklxbnnnnnnnnns"
};
