/* XPM */
static char *map_J[] = {
/* columns rows colors chars-per-pixel */
"64 64 107 2 ",
"   c #251E16",
".  c #2C251C",
"X  c #32291F",
"o  c #352C22",
"O  c #392E21",
"+  c #3D3224",
"@  c #3D3428",
"#  c #453726",
"$  c #483927",
"%  c #423629",
"&  c #453A2B",
"*  c #4C3D2B",
"=  c #4F412F",
"-  c #53422E",
";  c #544431",
":  c #594731",
">  c #5D4A33",
",  c #634F38",
"<  c #665037",
"1  c #695137",
"2  c #655038",
"3  c #6C543A",
"4  c #6B583F",
"5  c #70563A",
"6  c #785C3F",
"7  c #6E5A40",
"8  c #775E41",
"9  c #7B5F41",
"0  c #7E6244",
"q  c #7F6749",
"w  c #886746",
"e  c #8A6947",
"r  c #866948",
"t  c #8C6C4A",
"y  c #906E4A",
"u  c #8E704E",
"i  c #94724E",
"p  c #99744E",
"a  c #877359",
"s  c #947551",
"d  c #997751",
"f  c #967855",
"g  c #9D7A53",
"h  c #967A58",
"j  c #9C7D5A",
"k  c #A27D55",
"l  c #A27F58",
"z  c #9F805B",
"x  c #A5825B",
"c  c #AA855D",
"v  c #9B8365",
"b  c #9E8768",
"n  c #9E886C",
"m  c #A58762",
"M  c #A78863",
"N  c #A48C6C",
"B  c #AB8E6B",
"V  c #B08C64",
"C  c #AE916C",
"Z  c #B59067",
"A  c #B3936D",
"S  c #B9956D",
"D  c #A38F74",
"F  c #AD9473",
"G  c #AB967A",
"H  c #AE997D",
"J  c #B29672",
"K  c #BA9770",
"L  c #B69974",
"P  c #BB9B75",
"I  c #B59C7C",
"U  c #BB9E79",
"Y  c #BEA17C",
"T  c #C49C75",
"R  c #CE9F78",
"E  c #C2A37D",
"W  c #BDA382",
"Q  c #BFA788",
"!  c #C2A681",
"~  c #C5A985",
"^  c #C9AC86",
"/  c #CAAE8A",
"(  c #CDB18D",
")  c #D1B48E",
"_  c #C6AF90",
"`  c #CDB491",
"'  c #D1B692",
"]  c #D8BC97",
"[  c #D9BE9A",
"{  c #D7C09E",
"}  c #DCC19D",
"|  c #DEC5A1",
" . c #DFC8A7",
".. c #E0C5A1",
"X. c #E2C8A5",
"o. c #E5CCA9",
"O. c #E8CFAD",
"+. c #E7D0AE",
"@. c #E9D2AF",
"#. c #E8D0B0",
"$. c #EAD3B1",
"%. c #EED8B7",
"&. c #EDD7B8",
"*. c #EFD9B8",
"=. c #F1DCBC",
"-. c #F3DFC0",
";. c #F4E1C1",
/* pixels */
"E } [ } | ..X.| | | } } [ [ [ ^ P } | o.| } } | o.o.o.o.o.| | ' ! } } | | | | | | } ] ] } } | ( ! | | | X.X.| | | ....X.X.....[ ",
"/ @.$.@.o.@.$.$.@.@.@.@.@.o.$.] U o.$.$.$.$.@.$.%.*.$.*.*.$.@.} ] @.o.o.@.$.O.@.@.$.@.$.$.$.@.| ' @.@.$.$.o...| o.$.$.*.*.$.$.$.",
"/ o.o.o.X.o.o.o.o.o.X.| } } o.[ E X.@.$.$.$.$.$.@.o.o.$.$.$.$.| ] @.X...o.$.o.o.X.o.X.o.@.$.@...' X...o.o.[ ] ] o.$.@.$.=.$.$.+.",
"/ o.X...X.o.o.o.o.o.X...} } ..] E @.$.$.$.*.$.@.o.X.X.o.o.o.o.} ' $.o.X.o.@.X.X.X.X.o.o.o.+.@...` | ] ] [ ] ] [ X.O.@.$.$.$.$.o.",
"( o...} ..X.o.o.o.o.X...| | X.] ~ $.$.$.*.*.$.$.o.X...o.o.o.o.[ ` %.@...o.o.X.X.o.o.o.X.X.o.@.X.( | ] ] ' ] ] ] } o.@.$.$.$.$.o.",
") o.| [ } ..o.X.X.....} } X.X.] ! $.@.X.$.=.%.$.+.o.o.o.o.o.o.[ ( @.X.| X.o.o.o.o.o...} ..o.$.o.( ..} ] ] ] ] ] [ } o.O.o.o.X...",
"' o.X.| } | o.X...} | } } } } ' ! $.$.} o.=.*.$.+.o.o.o.o.o.o.[ ~ X.| } X.o.o.X.o.+.X.| X.o.@.X.` ..} [ [ [ [ } } [ } X.o.X.X.X.",
"' o.X.X...| o.| } | ....X.| X.] Y o.$.$.o.=.=.$.@.+.@.o.o.o.o.[ ! X...} } X...} | o.o...o.+.o.| ` X.| } [ } | } [ [ } o.$.$.$.$.",
"( o.O.X.} } X...........} } X.] ! o.$.*.$.=.=.$.@.$.$.o.o.o.@.] Y ..X.} } X.| | | X.o.o.*.@.o.| ` X.} } ......[ [ X...X.@.o.O.O.",
"^ X.| } [ } ..X.X.X.X.} [ [ X.[ ' $.$.*.$.$.$.O.o.$.$.@.o.o.@.] Y o.| } } | X.o.X.X.o.o.$.X.o.| ` X.} } | ....| ..X.} } | | X.X.",
"^ ..] [ ] [ ....} ..X...} } X.[ ` =.$.$.$.o.@.@.o.o.@.$.$.o.$.[ ! $...} } | | ..X.| o.X.o.o.o.| ( o.} } ..o.o.o.X...} | o.X.X.X.",
"^ ..] [ [ ] } } [ [ ..X.} ..o.[ ' =.$.o.o.o.@.$.@.o.o.$.$.+.$.] E o.| [ ..X.| | ..| X.| ..o.o.] ! o.} ....X.o.O.o...X.X...o.o.o.",
"! ..[ [ } ] [ [ } } [ ....$.o.} ] =.o.X.o.o.+.$.$.o.o.o.@.$.$.] E o.X.} } | ..$.$.o.} } | o.O./ J X.o.o.o...o.O.O.o.o.o.o.@.O.o.",
"Y o...} [ ] [ [ ....} ....X.X.} ] *.$.@.o.o.+.$.$.$.$.$.$.$.$.[ ! $.$...} } X.o.o.| | | ..o.o.^ J o.@.$.@.X.o.o.@.$.@.$.$.o.o.X.",
"W o.o.X.} } } } ....| X...X.o.} ' $.$.$.$.@.$.$.$.$.$.$.$.$.$.[ ~ =.$.X...} o.o.X.o.o.o.o.o.@.' J X.O.$.@.O.o.o.$.=.$.$.*.$.o.| ",
"L / / ^ ~ ~ ~ ^ ( ' [ [ [ [ } ( ~ | | ..o.| X. .| | ] ] ] ] ] ~ Y ' / E U B L ! Y U Y Y ~ ! ! U x L ~ ( ` ` ] [ | } | } ] ] ` Y ",
"K / ( / / / / ( ` ' ] ] ] ] ] / ! | ] ] | ] ] ] ] ] ` ' ' ] ] / E ` ( / ( ( ( ( ~ ~ ` ` ~ ~ ~ J j A L U Y Y ! ! E ! ~ ~ ~ ! ! P ",
"P o.$.$.@.$.@.o.o.o.o.o.o.o.o.} ` $.$.$.*.$.X.o.+.@.o.o.o.o.o.| ' $.$.$.*.$.$.$.$.$.*.=.=.$.$.~ f P E ^ / ^ E E ^ ( ( ] ] ) ' ' ",
"Y X.o.@.@.$.@.o.o.o.o.o.o.X.o.] ( $.o.+.$.$.} | +.$.+.+.+.+.+.| ] @.+.$.$.@.$.$.$.+.o.+.$.@.$.~ 8 j B P P B B B P E E ^ ^ ^ ^ ^ ",
"E o.o.O.@.@.o.X.X.X.o.@.o.o.o.] ( o.o.o.$.o...] o.+.o.@.o.| | ] ( o.$.%.+.X.@.%.$.$.+.o.+.o.O.W & 6 0 t s i s f x B B B A A P P ",
"U o.o.o.X.X.X...X.o.o.o.X...o.[ ( o.o.o.$.o.| ] ] o.o...] ' ` / ~ } o.$.o.o.+.*.*.*.$.+.+.o.O.Q o - 6 3 3 5 6 w w 0 w w 0 0 j h ",
"U X.o.X.X.o.X.X.o.o.o.X.X...o.] ( o.o.o.@.X.] ] | o.+.o.| ] ' ~ Y ] ] | o.o.$.*.$.$.$.$.o.o.@.~ + 3 t w t y g x i t i i w w t r ",
"Y X.o.o.o.o.X.o.o.o.o.o.o.X...' / o.o.o.+.X.' ' X.$.@.o.o.} ] ~ Y ( ( ] o.o.@.$.$.$.$.+.o.+.$.` & 9 x B k p B V k k c x c S V g ",
"! o.o.@.O.o.o.o.o.X.X.X.X.X...( ! o.o.o.+.o.X.[ | +.@.$.+.@.} ~ Y ' ( ' X.o.X.o.@.+.o.o.o.+.$._ & r V A c g B P A S S V T R S x ",
"( $.@.@.o.o.@.@.@.o.o.o.X.X.o.' Y o.o.o.@.@.@.+.o.X.o.$.$.$.| ~ Y ' ' ( | o.o.o.o.o.o.@.+.o.o.~ * r B P V g k V P E ^ P S T B l ",
"( $.$.$.@.$.$.@.O.@.$.O.o.X.o.' Y o.o.+.@.o.o.+.o.X...o.$.$.| ~ U ( ( ( } o.o.o.o.o.$.$.+.o.o.~ * 6 k S V g k c S P P P B A c k ",
"' @.o.$.$.$.$.o.o.o.o.o.o.o.O.( U o.o.o.o.o.o.$.$.o.o.o.o.+.} ! P ( ( ( } @.X.o.$.o.o.o.o.@.o.~ & 6 t d k k k c S S S S A B k g ",
"' o.X.o.o.o.o.o.O.$.o.O.O.O.@.( U @.o.o.o.o.O.$.$.o.+.+.o.o.[ Y L ` ^ ~ ] $.o.@.$.o.o.o.o.$.$.` & 6 w w y g g g V Z c c B B k k ",
"' O.o.o.X.o.O.O.o.$.o.o.@.o.o.' L o.+.o.o.+.$.$.o.X.$.$.$.o.] U C ( / / ' o.$.$.$.o.X.| X.$.$.` @ , w w w t s t d x x c x x x k ",
"] O.o.o.O.@.$.@.@.o.o.o.o.o.o.( J o.$.@.+.$.$.+.o.X.+.$.$.$.] U C ~ ^ / ( X.$.$.+.o.X.| X.o.$.` o - 3 3 6 6 w w 0 t d g d y d g ",
"' o.o.o.O.$.@.@.$.@.o.o.O.@.$.( J o.$.$.$.@.+.o.o.o.$.$.$.o.] L B / ~ ( ( } $.+.o.+.o.o.o.o.@._ . O - > > , , 3 3 6 0 w w w t s ",
"P ' [ } } ] ' ` ~ ! ~ ! ~ I Y A B ~ ~ I I ~ ( ( ( ( ( ~ ~ ~ L M m J J P U ~ ( ] ] | | } ] } } I . X # * * - - > , , , , , , 3 0 ",
"E / ] [ ] ( / / / ( ( ~ ~ W ! B u B L U P P P Y ! ~ ! Y Y L M s C Y Y Y Y E ! / / ` ] ] ] ] } ! v b N N N N N F B B B B B N N m ",
"X.o.$.$.o.X...o.$.$.$.$.X.....P 8 A ! ^ / / / ) ' ' ) ' ( ! m 0 I ] [ } ] ] ] [ } | o.o.o.+.$./ ~ ^ ( ' ' ] [ } ) ( ( ( ( ( / ! ",
"o.@.o.X.| ..} } o.| | o...| ..J > g A P Y ! E E E P U E P A s 3 J ' ] [ ] ] ] ] ] [ } ] o.$.$./ E ( ] | | | } } } } ] ^ / ' ] ' ",
"@.$.o.} | X...} [ [ | X.X.X.X.F + 8 f z m B M M x j j z j s 6 : I } ] | } ] ] ] ] } o.o.-.=.*./ / | | | | | } } X.o.o.' ] X.o.] ",
"@.$.X.X.X.X.X.| } } ..o.X.o.o.F . & , 3 6 9 9 9 r t 0 8 9 6 : * ~ $.+.o.| } ] ] [ o.=.=.;.*.$.^ ( X...X...X.X.X.o.o.o.| } X.o.] ",
"o.$.X.X.X.....X.X.} ..@.o.o.O.F . # , 6 9 w w 6 w w 9 0 t w < - W $.$.$.$.o.| X.o.$.*.*.*.#.o./ ' o...X.X.o.o.o.o.X.o.| | o.$.' ",
"..X.X...| ....X.X.X.X.@.@.+.@.F X - 3 6 e p i y w w e t d i 5 - W $.$.$.$.+.| | o.$.$.*.@.o.o.^ ] o.......X.o.o.o.o.o.X.X.o.@.' ",
"..o.o.X.X.X.X.X.X.....X.o.o.o.F . - 1 6 e p k d y t y k x u 0 , ~ o.+.+.+.o.} } o.=.=.$.o.o.+.^ ( o.| | ..X.o.o.o.o.o.o.o.o.@.' ",
"o.o.o.o.X.X.X.X.X.X.X.....X.o.I . : 8 w i g g k k g d B c d 0 2 ~ X.o.$.$.$.$.$.*.=.;.$.+.@.@.^ ( o.X.X.o.o.o.o.o.X.o.o.@.$.$.` ",
"O.$.$.@.X.X.X.o.o.o.X.X.X.X.o.I . 2 r t g x x k k c d s k s 0 , ` o.o.*.=.*.*.-.=.*.$.$.+.+.+./ ( o.o.X.X.o.o.o.o...X.o.@.$.$.` ",
"o.@.o.X.....X.o.o.X.X.X.X.X.O.W . - 6 d B x B c c c d y t r 3 > ` $.o.o.o.o.o.$.=.o.o.$.O.o.@./ ` X.X.X.o.o.o.X.X.X.X.o.+.@.@.' ",
"X.X.......X.X.X.X.....X.X...o.W . * 0 s B B B x g k g i w 9 , > ` +.| o.o.X.X.o.=.+.o.$.$.o.$./ ` ..X.X.X.o.X.X.X.X.....o.$.O.' ",
"| X.X...X.o.o.X.X.....X.X.X.o.I X - 0 i g x x g t t l t 0 0 > ; ] +.o.o.+.o.o.o.$.$.$.$.$.+.$.( ' X.o.o.X.X.X.X.X.X...| X.o.o.` ",
"X.o.X...X.X.X.o.X.X...} | X.o.I . - 8 w w t t w 6 5 6 6 q B 7 ; ] $.+.o.$.$.o.o.+.$.*.=.*.$.$.` ] o.o.o.X.X.o.o.o.X.X.X.X.o.o.( ",
"X.O.o.o.o.o...X.X.X.....| X.@.I . # , 1 > > , > , : : > > 4 = & { =.*.&.*.$.$.$.$.$.$.$.$.$.$.( ] @.o.o.o.o.o.o.o.X.X.X.o.o.@.( ",
"` [ [ ] ] ] ] [ [ ] ' ] [ [ [ N   X * - # # * - - * $ # # + o % Q o.o.o.o. .o.o.| | } } { ] ] I U ~ ~ Y ~ ( / ~ Y U L ! ! ! ( U ",
"Y ] ] ] ] ] ] ] ] ' ] ] ] ] ` U a D G H G G G I H H H H H H G n I | { ] ] ] ] { ] ] ] ` ` ` ` Y B ~ / ( ( ( ( ( ( ^ ~ ^ ^ / / ! ",
"/ $.$.$.=.=.$.o.o.o.$.+.o.o.o.| ` $.@.$.$.@.@.$.$.$.$.$.$.$.=.o.] *.o.X.o.@.$.=.*.o.| X.o.+.@.( L o.@.o.$.o.o.o.o.o.X.X.X.X.o.} ",
"! $.$.$.*.=.=.%.$.$.o.o.o.$.$.| ~ o.o.o.O.o.o.@.@.o.@.o.o.X.o.X.] o.X...| o.$.o.$.o.X.X.| X.X.~ J X.o.+.+.o.X.| X.o.o.X...| X.] ",
"Y $.$.$.$.$.$.$.*.@.o. .o.*.&.| ~ @.@.o.o.o.@.@.o.o.O.$.@.o.@.| ` o.o.o.X.| | } X.o.o.o.| | X.~ L X.X.X.| | | | X.o.o.| ....X.] ",
"Y $.o.X.+.$.$.$.&.&.$.$.$.*.*.| ` @.O.O.O.O.o.o.o.o.$.$.$.@.$.} ( o.o.o.o.| | | o.o.o.o.X.X.o.! J ..| | | | | X.X.X.| } | X.X.] ",
"Y $.+.| [ X.@.$.$.*.&.$.$.*.*.o.] $.@.@.$.o.O.o.o.$.$.$.o.o.$.[ ~ +.o.o.o.o.X...+.$.o.$.o.o.o.~ J X...X.X.| X.X.X.X.| | | | X.] ",
"! $.X.] ] | $.$.$.=.*.$.&.$.*.o.] $.@.o.o.o.$.@.@.$.$.O.o.o.$.] Y o.X.o.o.o.o.o.$.*.$.$.@.o.+./ J X.o.o.| | X...| ..| | } ] } ] ",
"Y o.} ] ] | $.$.$.*.*.$.$.$.$.| ' $.@.X.o.o.$.$.$.@.@.o.o.o.$.] Y X.o.o.o.o.o.o.o.$.$.@.X.X.o./ L o.o.X.X.X.o.X.| | X.| | | | ' ",
"U | ] ] } | o.$.$.$.$.$.$.$.$.| ] $.o.X.X.o.o.$.@.@.O.o.o.o.$.[ ~ o.o.o.o.o.o.o.o.o.o.o...| o.` L +.o.X.o.o.o.o.o.o.X.| | | X.] ",
"Y } ] ] [ [ | o.$.@.$.+.o.o.$.o.] @.o.X.X.X.o.o.O.@.$.o.X.X.o.} ( $.o.+.+.$.+.o.o.o.o.o...X.$.] Y +.@.@.$.+.o.X.o.o.o.X. ...X.] ",
"U | } [ } } } | o.o.X.| ] } $.o.] o.X.o.X.X.o.o.@.$.$.o.o.o.o.} ( $.o.o.+.$.$.o.o.o.o.o.X.o.*.] Y o.+.+.+.o.X.o.o.o.o.o.o.X.X.] ",
"P | | } | } [ } X.+.$.o.o.o.$.o.` o.X.o.| | X.o.@.$.@.o.o.X.o.| ` o.o.o.o.+.o.o.o.+.o.o.o.o.$.] ! X.X.X.o.o.o.o.o.X.o.o.o.o.o.] ",
"U | ..X.| ] } | o.%.$.$.$.=.*.| ( $.o.o.| X.o.o.@.$.$.@.o.X.o.| ` o.o.+.+.o.o.X.o.o.o.o...o.o.] ~ X.X.o.o.o.o.o.o.X.o.o.X.X.o.} ",
"P | X...} } X.o...o...X.o.$.$.{ ~ %.$.o.o.X.o.@.$.o.X.O.$.o.o.| ( o.o.o.+.+.o.o.o.X.o.o.o.X.o.] ~ X.X.o.o.o.o.o.o.o.o.o.X.X.o.] ",
"P } o.o.o.X.X.X...o.o.X.X.+.$.} ~ @.o.+.+.o.$.$.$.@.o.O.$.@.$.| ( +.o.o.o.o.o.o.X...X.o.o.o.o.] ~ X.X.o.o.o.o.+.o.X.X.o.o.o.o.] ",
"A P ! ( / ~ ~ ~ ~ ( ' ' ] ] } ( P ] ' ` ] ] ` ] [ | X.| o.o.o.' / o.X.] ] ] ] ] ] ` W I W ` o.` Y X.o.o.o.o.+.o.X.X.| | X.| } ( "
};
