/* XPM */
static char *floor_64[] = {
/* columns rows colors chars-per-pixel */
"64 64 150 2 ",
"   c #666666",
".  c #676767",
"X  c #6A6A6A",
"o  c #6C6C6C",
"O  c #6D6D6D",
"+  c #6E6E6E",
"@  c #6F6F6F",
"#  c #6F6F71",
"$  c #707070",
"%  c #717171",
"&  c #717173",
"*  c #727272",
"=  c #737373",
"-  c #747474",
";  c #757575",
":  c #747476",
">  c #757576",
",  c #767676",
"<  c #767677",
"1  c #777777",
"2  c #767678",
"3  c #787878",
"4  c #797979",
"5  c #78787A",
"6  c #79797B",
"7  c #7A7A7A",
"8  c #7A7A7B",
"9  c #7B7B7B",
"0  c #7B7B7C",
"q  c #7B7B7D",
"w  c #7C7C7C",
"e  c #7D7D7D",
"r  c #7C7C7E",
"t  c #7D7D7F",
"y  c #7E7E7E",
"u  c #7E7E7F",
"i  c #7F7F7F",
"p  c #7E7E80",
"a  c #7F7F81",
"s  c #808080",
"d  c #808081",
"f  c #818181",
"g  c #808082",
"h  c #818183",
"j  c #828282",
"k  c #838383",
"l  c #828284",
"z  c #838385",
"x  c #848484",
"c  c #858585",
"v  c #848486",
"b  c #858586",
"n  c #858587",
"m  c #868686",
"M  c #878787",
"N  c #868688",
"B  c #878788",
"V  c #878789",
"C  c #888888",
"Z  c #898989",
"A  c #88888A",
"S  c #89898A",
"D  c #89898B",
"F  c #8A8A8A",
"G  c #8B8B8A",
"H  c #8B8B8B",
"J  c #8A8A8C",
"K  c #8B8B8C",
"L  c #8B8B8D",
"P  c #8C8C8C",
"I  c #8C8C8D",
"U  c #8D8D8D",
"Y  c #8C8C8E",
"T  c #8E8E8E",
"R  c #8F8F8E",
"E  c #8E8E8F",
"W  c #8F8F8F",
"Q  c #8F8F90",
"!  c #8F8F91",
"~  c #909090",
"^  c #909091",
"/  c #919191",
"(  c #929291",
")  c #909092",
"_  c #919192",
"`  c #919193",
"'  c #929292",
"]  c #929293",
"[  c #939393",
"{  c #949493",
"}  c #919194",
"|  c #929294",
" . c #939394",
".. c #939395",
"X. c #949494",
"o. c #949495",
"O. c #959595",
"+. c #959596",
"@. c #959597",
"#. c #969696",
"$. c #969697",
"%. c #979797",
"&. c #989897",
"*. c #969698",
"=. c #979798",
"-. c #979799",
";. c #989898",
":. c #989899",
">. c #999999",
",. c #98989A",
"<. c #99999A",
"1. c #99999B",
"2. c #9A9A9A",
"3. c #9A9A9B",
"4. c #9B9B9B",
"5. c #9C9C9B",
"6. c #9A9A9C",
"7. c #9B9B9C",
"8. c #9B9B9D",
"9. c #9C9C9C",
"0. c #9D9D9D",
"q. c #9C9C9E",
"w. c #9D9D9F",
"e. c #9E9E9E",
"r. c #9E9E9F",
"t. c #9F9F9F",
"y. c #9E9EA0",
"u. c #9F9FA0",
"i. c #A0A0A0",
"p. c #A1A1A0",
"a. c #A1A1A1",
"s. c #A0A0A2",
"d. c #A2A2A2",
"f. c #A3A3A3",
"g. c #A2A2A4",
"h. c #A4A4A4",
"j. c #A4A4A5",
"k. c #A5A5A5",
"l. c #A6A6A6",
"z. c #A7A7A7",
"x. c #A8A8A8",
"c. c #A9A9A9",
"v. c #AAAAAA",
"b. c #ABABAB",
"n. c #ACACAC",
"m. c #AEAEAE",
"M. c #AFAFAF",
"N. c #B1B1B1",
"B. c #B4B4B5",
"V. c #BABABA",
/* pixels */
"Y 5 n Y n 5 k.0.k.k.t.0.) Y Y ) Y Y ) Y Y M Y n n 5 5 s Y 3 < o 3 < @ 5 n 5 5 Y n n ~ ~ Y Y n 5 Y Y Y ) ) 0.) ) 0.) Y 5 5 Y < Y ",
"n # 5 n < Y ) 0.0.0.0.&.) Y Y Y n Y Y Y Y Y n s n 5 5 n 0.< < < 5 5 5 5 < 5 Y Y Y M Y Y Y Y Y n n Y Y ) ) ) n Y ) Y Y n n N n n ",
"N n Y 5 5 Y Y 0.Y Y 0.) ) Y Y n 5 Y Y Y Y ) n Y M n 5 5 5 5 5 5 s n n n 5 n ) Y Y n ) 0.) Y Y Y Y Y ~ 0.0.Y Y ) ) Y 5 5 p 5 n ) ",
") n p p n n Y ) ) n ~ 0.&.Y n n n Y ~ ) ) ) M Y Y Y 5 3 < < 5 n n n n Y Y Y Y Y ) Y ) ) Y ) ) ) M Y Y ) ) Y ) Y ~ n < 5 n Y N ) ",
") n n n 5 < n ) ~ ~ Y ) 0.) Y Y ) Y ) Y ) ) Y ~ Y ) n <   5 5 n n 5 n ) Y M Y ) ) ) ) Y ) 0.) 0.Y M n n Y n @ . n Y n ) ) 0.-.) ",
") ) ) Y Y 5 Y n < 5 n Y M Y Y Y ) ) 0.) Y ) ) 0.) Y n n 5 5 n n Y 5 M Y n Y Y ) Y Y Y ~ ) 0.0.) &.Y s 5 5 5 5 < 5 n ) 0.) k.k.0.",
"&.0.0.&.0.&.Y 5 o o 5 n n 5 Y ) &.0.0.) Y ) ) ) ) Y n ~ Y 5 n Y 5 5 M M Y M Y ) ) ) Y ) ) 0.0.0.0.&.Y 5 < n Y n Y 5 n Y n 0.0.k.",
"k.0.) n Y n 5 Y n 5 5 < n Y ) 0.0.0.0.) ) &.) ) ) Y n Y n 5 n n n n Y Y n Y Y ~ ~ 0.) ) 0.0.0.0.k.&.Y 5 n n 5 n Y n n 5 n ) ) -.",
"&.) ) n 5 5 M Y n 5 5 < 5 Y 0.0.0.0.0.&.t.&.0.) ) Y Y n 5 5 n n Y n M n Y Y Y Y ) 0.) ) k.0.0.0.0.0.) Y Y 5 n n 5 Y &.Y ) 0.k.) ",
"~ k.) ) Y ) Y n n n 5 5 n ) 0.0.) ) 0.x.0.) 0.) Y Y Y n n n M n n n n M Y ) ) Y ) ) 0.) k.0.) ) 0.0.0.) n 5 n n n Y ) ) 0.0.0.) ",
"&.k.0.) ) &.Y n n n n n n ) 0.0.) ) k.k.0.0.&.) Y ) ) Y 5 Y n s n n Y Y n Y ) ) ) ) ) &.0.k.Y ) 0.0.0.Y ~ Y ) M ) ) ) 0.0.0.0.) ",
") 0.0.0.0.) ) ) n ~ Y Y Y ) 0.0.Y 0.x.0.) 0.) ) ~ ) Y Y n Y n n 5 n Y ) n Y Y Y &.) ) ) 0.0.) ) 0.k.0.) ) 0.) Y 0.Y Y 0.0.k.0.) ",
"~ &.k.0.0.Y Y ) Y Y 0.0.&.) ) 0.0.0.0.0.Y ) ) ) ~ Y Y ~ Y n n 5 s n ~ M n Y ~ ) ) &.) Y ) Y Y k.k.k.0.0.0.0.0.) ) Y ) 0.k.k.Y ) ",
") Y k.0.0.) Y ) ) 0.0.0.&.0.k.k.k.Y ) ) Y ) &.) Y ~ ~ Y ) Y n n n n ) ) n Y ) Y ) k.) M ) 0.) k.k.k.k.) ) 0.k.0.) Y 0.0.k.0.Y ) ",
") ) 0.k.0.0.Y ) k.k.0.) ) k.k.t.0.) 0.) Y &.0.) Y ) Y Y Y ) n n n n Y 0.) M ) ) 0.k.) Y ) 0.) ) ) 0.0.Y 0.0.k.k.0.) &.0.k.0.) y.",
"0.) 0.k.0.) ) 0.x.k.0.) Y ) ) ) ) ) 0.) ) ) k.0.) Y Y 0.) Y s Y n 5 Y ) Y Y ) &.0.k.0.0.) ) ~ Y Y ) n Y 0.0.k.x.t.0.) ) 0.0.Y ) ",
"Y Y 0.0.) Y 0.k.x.k.0.0.M n Y Y Y Y &.0.) 0.k.0.) ) Y 0.Y n 5 n M n Y Y Y n ) ) 0.0.0.) ) ~ M Y Y Y M n ) 0.k.x.k.k.) ) 0.0.Y n ",
"M Y ) 0.) ) z.x.x.k.0.Y n Y Y Y Y n ~ ) ) 0.0.0.0.Y Y ) Y n n n Y n Y Y ) Y ) 0.) 0.0.&.Y Y n Y Y ) Y Y Y 0.k.k.k.k.) ) 0.~ Y Y ",
"~ Y ) 0.) ) 0.k.0.0.&.) Y n Y ) Y n Y Y 0.t.0.0.0.Y Y ) n Y Y Y Y Y n ~ ~ Y ) 0.0.0.k.0.Y Y 5 Y ) Y n Y ) ~ 0.) ) 0.0.) &.) ~ ! ",
") Y ) ) ) 0.0.Y ) 0.Y ) M n Y ~ M 5 Y ) ) 0.k.0.0.Y ) 0.Y n ) Y 5 n Y ) Y Y ) 0.0.k.0.) 0.Y 5 n ) Y n n Y ) &.Y ) ) 0.) ) ) Y Y ",
"Y ) ) ) ) Y ~ ) ~ 0.0.Y n M Y Y 5 5 ) 0.) t.k.0.) Y ) ) Y Y 0.) n n Y Y ) ) 0.0.) 0.0.&.0.0.5 n Y Y Y n n ) Y n ) Y n Y ) ) ) 0.",
"k.-.0.) Y 5 Y Y Y ) 0.n n Y M n n Y ) 0.) &.0.) n n n n Y Y ) 0.) n Y ~ ) ) 0.) ) 0.) ) 0.M Y Y n n Y n n Y n 5 Y Y n ) &.t.0.0.",
"0.k.k.0.B.k.Y n Y ) ) ) Y M n n Y n Y &.&.) ) Y 5 n n 5 n ) 0.0.) n Y ~ ) ) ) Y 0.) Y ) 0.) n ) n n Y n n s 5 n M n Y ) k.t.0.) ",
"5 0.-.y.x.x.Y Y ) 0.) ) n Y M n Y ~ t.0.) n Y Y n 5 5 3 5 n 0.t.) n n Y ) ) 0.) ) ) ) 0.t.k.0.~ n Y n n n Y n Y n n Y Y ) 0.) Y ",
"n 5 ) Y n 0.) ~ Y Y ) ) n Y n 5 n 0.0.0.Y 5 5 Y Y n 5 < < n ) 0.Y n Y Y ) k.k.) ) ) ) 0.0.0.) Y Y Y n ) Y n n Y n n n Y Y ) ) ) ",
") N Y n Y Y n n M Y ) ) ) 0.0.n Y 0.0.) ) ) n n n 5 5 5 5 n Y 0.) n Y Y ) k.k.0.) ) Y ~ 0.0.Y n Y ) ) ) &.n n Y Y Y s n &.0.0.0.",
"0.) n n ) Y 5 n n ) 0.) n Y 0.~ ) ) k.&.0.&.Y n o   < n n 5 n Y ) ) Y Y 0.0.0.0.) ) Y Y k.0.&.0.) ) ) 0.~ Y n n Y ) n 3 Y ) ) 0.",
"0.) Y ) Y Y n n 5 Y 0.) s 5 o n ) Y ) Y Y < n Y n n Y Y ) Y Y M ) ) Y 0.0.0.0.&.0.) Y Y ) ) ) 0.) ) &.0.) ) Y n Y ) Y 5 Y Y ) 0.",
"0.) 0.0.n Y n Y 5 Y Y ) Y 0.Y M ) n n n 5 < 5 ~ ) Y Y ) 0.) Y Y Y Y 0.&.) 0.0.0.) ) Y n Y 0.) &.k.x.k.k.0.Y M Y ~ ) Y n Y Y 0.0.",
"0.k.0.Y Y Y n Y n Y Y ) n Y Y Y Y n Y n n n Y Y ~ n Y 0.) ) Y n Y ) ) ) ) ) k.0.) ) Y n ) 0.) ) k.z.x.k.0.Y n Y Y Y Y Y ) 0.) 0.",
"x.x.k.0.~ Y n n Y ) 0.) ) n M M Y n Y n 3 n Y ) Y Y &.) 0.) ~ Y Y Y Y ) Y ) 0.) ) ) Y Y 0.0.) ) ) 0.x.k.0.0.n n ) ~ Y ) ) 0.0.k.",
"B.k.x.t.~ Y Y Y Y ) ) ) ) Y ) ) ) n n s 5 n 0.Y n Y ) ) 0.0.) &.) n ) ) Y ) 0.0.Y ~ Y Y ) k.0.) ) 0.z.k.0.&.Y 0.0.&.) ) k.0.0.x.",
"k.k.x.0.0.0.) ) ) 0.0.Y ) ~ 0.0.) Y n ) Y Y 0.Y n Y Y Y ) ) ) 0.) Y ) Y ~ ) ) ) Y ) Y Y 0.k.0.0.Y ) 0.k.0.) ) 0.k.0.0.~ 0.) Y ) ",
"0.k.0.) 0.k.0.0.Y ) ) Y ) ) 0.Y ~ Y n Y Y n Y n s Y n n n n ) 0.k.0.) ) ) ) ) ) ) ) Y Y 0.t.0.) Y ) ) 0.k.0.0.0.0.k.0.Y Y Y Y ) ",
"0.0.0.0.0.0.0.0.Y Y ) Y Y Y 0.0.Y n Y Y s 5 5 n Y n 5 3 3 n ~ 0.0.0.&.0.&.&.) ) ) ) Y Y 0.t.0.Y Y ) Y ~ 0.0.) ) ) 0.) ) 0.0.~ ~ ",
") 0.&.) ) 0.0.) ) 0.0.Y n Y ) ) Y Y ) ) Y ) n n n 5 5 5 < n Y 0.0.0.) t.&.0.) ) Y Y Y Y ) 0.0.) ) ) n Y Y Y Y ) 0.&.Y ) k.&.&.0.",
") Y Y Y Y 0.0.Y Y k.0.) Y Y Y n M Y 0.k.&.0.) n 5 n 5 s n 5 5 Y ) 0.) 0.) ) 0.) Y Y Y Y 0.0.) ) Y n n n s n M ) 0.0.) ) 0.k.) 0.",
"Y 5 Y M Y ) 0.) ) 0.0.0.Y n Y 5 5 ~ 0.0.) 5 n Y n n n 5 Y Y Y Y Y Y ) ) ) ) 0.~ Y ~ Y Y 0.) Y ) Y 5 5 n 5 5 n ) 0.0.0.) 0.k.) ) ",
"n 5 s n ) 0.0.0.&.0.0.0.n n n 5 5 ) 0.~ 5 < < Y Y Y Y Y 0.~ Y 5 n n Y Y Y Y ) Y ) Y ) 0.0.) n s n Y n 5 5 < 5 Y ) ) ) ) ) 0.) Y ",
"5 5 5 n ) 0.0.0.0.0.) Y < n n n n ) k.) n n n ~ ) Y n ) 0.Y n n 5 n Y Y Y ) Y Y ) ) ) 0.0.0.) n n Y n 3 5 s Y ) Y Y k.0.0.) ) 5 ",
"n Y n M 0.0.0.) ) ) M M 5 n n n Y Y ) 0.Y n Y ) ) Y ) ) ~ Y Y n 5 n Y Y Y ) ) Y ) ) Y &.0.) n ~ n 5 Y 5 n 5 M n Y n x.V.x.) k.) ",
"n n Y n M Y ) ) Y ) Y n n Y n n n Y Y ) ) Y t.0.) 0.0.) ~ Y M s 3 n Y Y ) ) 0.) ) 0.) ) 0.Y Y Y n n Y n n Y 0.n Y 0.Y 0.) t.0.k.",
"s Y Y Y n n Y ) ) ) ) n s Y Y Y n 5 ) 0.&.k.k.&.0.0.) Y ) Y Y 5 < M Y Y ) ) 0.0.) 0.0.0.0.0.n 5 n Y Y M s t.0.) ) ) n Y ) ) ) 0.",
"~ Y ) ) ) ) ) ) ) 0.) Y n n M ) n < Y ) 0.k.k.0.0.) Y ~ Y Y n s 5 n n ) ) Y ) 0.0.k.k.) ) ) 5 5 ) Y n Y ) ) 0.0.) &.) 0.) ) Y Y ",
") ~ ) 0.) 0.0.) ) 0.) ) Y n Y Y Y 5 Y ) t.t.0.0.0.) ) ~ Y n M Y Y Y n Y ) ~ Y ) &.0.0.0.Y Y n n ) ) n ) 0.) 0.0.) ) 0.) ) ) ) ) ",
"Y Y Y 0.0.) 0.z.k.k.0.Y Y Y Y ~ Y n ) ) 0.0.0.) 0.) Y ) Y Y n Y Y n Y Y Y Y ) 0.0.0.0.&.Y Y Y Y ) Y 0.~ Y ) k.k.k.k.0.) 0.) Y Y ",
"n Y ) 0.) ) k.x.x.x.0.) n M Y Y Y Y 0.0.) 0.0.0.0.) n Y Y Y n M M n Y ~ Y n Y ) 0.0.0.) ) ) Y Y Y ) ) n Y 0.k.x.x.k.) ~ 0.0.~ n ",
") Y 0.0.) ) 0.0.x.k.t.0.Y n ~ Y Y 0.0.) ) ) k.0.) ) Y Y ) Y s n Y 5 Y ) ) Y Y ) 0.k.0.) 0.0.) Y ) 0.Y n 0.0.k.x.k.0.) ) 0.0.) Y ",
"t.) &.k.0.0.) 0.k.k.0.) ) 0.0.0.k.&.0.0.Y ) k.0.~ ~ Y ) 0.~ n n n s Y ) ) Y Y ) ) 0.0.Y ) 0.) 0.k.0.0.) ) 0.k.x.0.) &.0.k.0.~ 0.",
") ) ) z.0.0.Y ) 0.k.k.) ) 0.k.k.k.) 0.) n ) 0.0.Y ~ ~ Y Y ) n n M n Y 0.) Y ) Y ) 0.0.Y ) 0.) 0.k.k.k.0.) 0.k.0.) Y 0.0.k.k.Y ! ",
") Y 0.k.0.) Y ) ) &.k.0.) 0.t.0.0.Y Y ) Y ) ) &.Y Y ) Y M ) n n n n Y ) Y Y Y Y ) ) ) ) ) ) Y 0.0.0.0.0.0.0.0.) ) Y Y 0.k.k.) Y ",
") ) k.0.0.Y Y &.Y Y &.0.0.&.) 0.) Y 0.0.) ) ) ) ~ Y Y n Y Y n 5 5 n Y ) Y Y Y Y ) ) ) Y 0.k.) ) ) ) &.) 0.0.) Y ) ) Y ) k.0.k.Y ",
") 0.0.0.0.) ) ) n Y Y ) Y Y 0.0.~ ~ k.0.&.) 0.) ~ ) Y n n Y n n n n ) k.) Y ) ) ) 0.0.&.0.0.) Y 0.0.) Y Y Y Y n Y ) ) &.0.0.0.) ",
"0.t.0.0.) ) ) n n n n n n ) &.0.) ) 0.k.0.&.0.) Y ~ ) Y n n n n n Y &.t.0.) ) Y ) ) 0.0.k.0.) ~ 0.&.) Y n n n n n Y &.) ) 0.0.0.",
") k.0.) Y ) ) 5 5 n 5 5 n ) 0.0.0.0.0.k.) ) 0.) Y Y Y Y Y Y n n Y ) ) 0.k.) Y Y ) ) ) ) k.0.0.0.0.0.0.n 5 5 n n 5 n ) Y Y ) k.Y ",
"0.t.0.~ Y Y Y Y Y 5 5 < 5 Y 0.t.0.0.0.0.) ) 0.) ~ M Y n M Y n n ) 0.0.0.t.) Y ) ) ) ) ) &.0.0.k.k.0.Y 5 < < 5 n Y Y n 5 5 Y ) 0.",
") 0.0.0.&.) Y ) ) Y n 5 5 Y ) 0.0.0.0.) ) Y ) ) 0.~ Y Y Y Y 5 n &.0.0.&.) Y M ) ) ) Y Y ) &.0.0.&.0.Y n < 5 n n Y n 5 Y n ) k.y.",
"Y ) 0.0.0.&.Y ) ) ) ) Y 5 n Y &.&.) 0.) Y Y Y Y &.Y n Y Y n 5 M Y 0.0.) ) Y Y ) ) Y ~ Y ) ) ) &.) Y s 5 5 s < o < n ) 0.0.0.k.) ",
"Y Y ) Y ) Y ) 0.Y Y k.) n n M Y 0.) 0.) Y ) ) ) ) Y Y Y ) Y 5 n n ~ 0.) ) Y Y &.) ) ) ) Y 0.) &.Y Y Y n Y n 5 o 5 Y s Y ) ! 0.Y ",
"n n n n n Y 0.k.) ) 0.0.) ) Y Y ) ) ) Y ) ) ~ ) Y ~ Y Y Y n 5 n Y &.) ) M Y 0.Y ) ~ ) 0.Y ) Y ) Y Y ) ) ) Y ~ Y ) Y 3 < n N n Y ",
"n n 5 5 5 0.k.0.0.0.&.0.0.) n Y Y Y Y ) ) ) Y Y Y Y n 5 n 5 n n n ~ ~ ~ n Y ) Y Y n ) ) ) ) M M Y M Y &.0.) M Y ) Y n 5 n p p Y ",
"Y 5 5 < n ) 0.k.0.) ) ) ) ) Y n n M Y Y Y Y Y Y Y Y 5 3 5 5 5 5 5 n n Y Y 5 n Y Y n ) Y Y M Y n n Y Y ) ) ) ~ M &.) Y n 5 n N 5 ",
"M s 5 5 n M ) 0.0.) 0.0.) Y Y Y n n Y Y Y ~ n n Y n 5 n 5 < < 3 < 5 < Y Y 5 5 Y n n Y Y Y Y Y s Y Y Y ) ) 0.0.0.0.) ) 5 5 p 2 5 ",
"5 5 5 Y n s ) 0.k.0.0.&.) Y Y ) Y n ~ ) Y n n 5 s 5 5 5 < @ < < < < 5 Y Y 5 5 5 5 Y n Y Y ~ Y n ~ Y Y ) 0.0.0.k.0.k.) < n n < n "
};
