/* XPM */
static char *_[] = {
/* columns rows colors chars-per-pixel */
"16 28 58 1 ",
"  c #AD0F1B",
". c #AF101D",
"X c #B0101D",
"o c #B10F20",
"O c #B21620",
"+ c #B81525",
"@ c #B41A21",
"# c #BA2321",
"$ c #BE2D28",
"% c #CB1F35",
"& c #DE6130",
"* c #E0602F",
"= c #E06232",
"- c #D92741",
"; c #D92841",
": c #EA364E",
"> c #ED3353",
", c #EE3851",
"< c #F5345A",
"1 c #F73F5B",
"2 c #FA3D5C",
"3 c #F85D4E",
"4 c #F54354",
"5 c #F84A55",
"6 c #F7415E",
"7 c #F7425E",
"8 c #FD5F52",
"9 c #FA7447",
"0 c #FE774B",
"q c #F4843B",
"w c #F48839",
"e c #FF9C3E",
"r c #FFA03E",
"t c #F48940",
"y c #FE8F41",
"u c #FF9C42",
"i c #FFA042",
"p c #FBA04B",
"a c #FFA84C",
"s c #FDB55E",
"d c #FFBD5F",
"f c #E09363",
"g c #FFCF75",
"h c #FFCE76",
"j c #FBD383",
"k c #FFDB85",
"l c #FBDD8D",
"z c #FBDD94",
"x c #FFE48F",
"c c #FFE490",
"v c #FFE894",
"b c #FFE999",
"n c #FFEBA2",
"m c #FFF0B9",
"M c #FFF6D4",
"N c #FFFAE6",
"B c #FFFBEB",
"V c white",
/* pixels */
"...XOO@@@@@@@OX.",
".. +:9slzzzjp3;.",
".XO$thvnBVMvxs*X",
".&slccvnBVMvvd*X",
".fvvvvvbbbvvvd*X",
"XfvvvvmNnvvvvd*X",
"X=dxccvbvvvvvd*X",
"X=uuuhvvvvvvvd*X",
".;25yhvvvvvvvd*.",
".;<4yhvvvvvvvd*.",
".Xo#whvvvvvvvd*X",
".. #whvvvvvvvd*X",
".. #whvvvvvvxd*X",
".. #wedxxxckar=X",
".. #weeiuuiuer=X",
".. #weeeeeeeer=X",
".. #weeeeeeeer=X",
".. #weeeeeeeer=.",
".. #weeeeeeeer=.",
".. #weeeeeeeer=.",
".. #wiueeeeeui=X",
".. #qhhuuiuajs*X",
".. +,0slllljp8;X",
".. +>217777722;X",
".. +>111<11121-X",
"....O;<<<<<<<%XX",
".....XOOOOOOOX  ",
"........        "
};
