/* XPM */
static char *H[] = {
/* columns rows colors chars-per-pixel */
"16 28 5 1 ",
"  c #AF101D",
". c #F7385B",
"X c #FF9B3D",
"o c #FFE894",
"O c white",
/* pixels */
"                ",
" .XoooX  XoooX. ",
" XooOOo  oooooX ",
" XooOOo  oooooX ",
" Xooooo  oooooX ",
" XoOooo  oooooX ",
" Xooooo  oooooX ",
" Xooooo  oooooX ",
" Xooooo  oooooX ",
" Xooooo  oooooX ",
" XoooooXXoooooX ",
" XooooooooooooX ",
" XooooooooooooX ",
" XXooooooooooXX ",
" XXXXXXXXXXXXXX ",
" XXXXXXXXXXXXXX ",
" XXXXXX..XXXXXX ",
" XXXXXX..XXXXXX ",
" XXXXXX  XXXXXX ",
" XXXXXX  XXXXXX ",
" XXXXXX  XXXXXX ",
" XoXXoX  XoXXoX ",
" .XooX.  .XooX. ",
" ......  ...... ",
" ......  ...... ",
"  ....    ....  ",
"                ",
"                "
};
