/* XPM */
static char *M[] = {
/* columns rows colors chars-per-pixel */
"16 28 5 1 ",
"  c #AF101D",
". c #F7385B",
"X c #FF9B3D",
"o c #FFE894",
"O c white",
/* pixels */
"                ",
" .XooX    XooX. ",
" XooOOX  XooooX ",
" XooOOooooooooX ",
" XooooooooooooX ",
" XoOooooooooooX ",
" XooooooooooooX ",
" XooooooooooooX ",
" XooooooooooooX ",
" XooooooooooooX ",
" XooooXooXooooX ",
" Xoooo.XX.ooooX ",
" Xoooo....ooooX ",
" XXooX .. XooXX ",
" XXXXX    XXXXX ",
" XXXXX    XXXXX ",
" XXXXX    XXXXX ",
" XXXXX    XXXXX ",
" XXXXX    XXXXX ",
" XXXXX    XXXXX ",
" XXXXX    XXXXX ",
" XoXoX    XoXoX ",
" .XoX.    .XoX. ",
" .....    ..... ",
" .....    ..... ",
"  ...      ...  ",
"                ",
"                "
};
