/* XPM */
static char *Z[] = {
/* columns rows colors chars-per-pixel */
"16 28 5 1 ",
"  c #AF101D",
". c #F7385B",
"X c #FF9B3D",
"o c #FFE894",
"O c white",
/* pixels */
"                ",
" .XooooooooooX. ",
" XooOOooooooooX ",
" XooOOooooooooX ",
" XooooooooooooX ",
" XoOooooooooooX ",
" XooooooooooooX ",
" .ooooooooooooX ",
" .......XoooooX ",
" .......ooooooX ",
"      XooooooX. ",
"     XooooooX.. ",
"    XooooooX..  ",
"   XXXooooX..   ",
"  XXXXXXXX..    ",
" XXXXXXXX..     ",
" XXXXXXX..      ",
" XXXXXXXXXXXXX. ",
" XXXXXXXXXXXXXX ",
" XXXXXXXXXXXXXX ",
" XXXXXXXXXXXXXX ",
" XoXXXXXXXXXXoX ",
" .XooooooooooX. ",
" .............. ",
" .............. ",
"  ............  ",
"                ",
"                "
};
