/* XPM */
static char *wall[] = {
/* columns rows colors chars-per-pixel */
"64 64 188 2 ",
"   c #0F0C09",
".  c #110D0A",
"X  c #1D1611",
"o  c #231B15",
"O  c #291F16",
"+  c #261F18",
"@  c #2B2017",
"#  c #34281D",
"$  c #392B1E",
"%  c #352A20",
"&  c #3B2E21",
"*  c #3E3023",
"=  c #44301F",
"-  c #443324",
";  c #4A3625",
":  c #4E3926",
">  c #43372A",
",  c #4C3B2B",
"<  c #533C27",
"1  c #593F28",
"2  c #463C30",
"3  c #55402D",
"4  c #5C422B",
"5  c #544535",
"6  c #5B4531",
"7  c #5D4936",
"8  c #544738",
"9  c #5C4D3C",
"0  c #62462C",
"q  c #66492F",
"w  c #694A2F",
"e  c #604731",
"r  c #624D38",
"t  c #684F38",
"y  c #704F32",
"u  c #6E5036",
"i  c #65513B",
"p  c #6C533B",
"a  c #745334",
"s  c #795636",
"d  c #7C5837",
"f  c #74553A",
"g  c #75593E",
"h  c #7C5A3B",
"j  c #5A4F41",
"k  c #665543",
"l  c #6E5A44",
"z  c #745B42",
"x  c #7B5E42",
"c  c #705E49",
"v  c #7C6045",
"b  c #74624D",
"n  c #7D644A",
"m  c #796956",
"M  c #805937",
"N  c #835D3B",
"B  c #87603D",
"V  c #90663F",
"C  c #825E40",
"Z  c #846243",
"A  c #8C6544",
"S  c #8E6847",
"D  c #836649",
"F  c #886748",
"G  c #86694D",
"H  c #8C6B4C",
"J  c #906742",
"K  c #936945",
"L  c #996D46",
"P  c #946D4A",
"I  c #996E49",
"U  c #96714E",
"Y  c #9C714C",
"T  c #836C52",
"R  c #8B6F51",
"E  c #8D7154",
"W  c #83725D",
"Q  c #937354",
"!  c #9B7652",
"~  c #9E7854",
"^  c #937659",
"/  c #96795B",
"(  c #9B7C5B",
")  c #A3754E",
"_  c #A8784F",
"`  c #A27750",
"'  c #A47A54",
"]  c #AB7C53",
"[  c #A37E5B",
"{  c #B07F54",
"}  c #847561",
"|  c #8B7A65",
" . c #927C63",
".. c #AE8057",
"X. c #A4815E",
"o. c #AC825B",
"O. c #B28156",
"+. c #B4855A",
"@. c #B8865A",
"#. c #B6885E",
"$. c #BC8A5D",
"%. c #9D8263",
"&. c #94826B",
"*. c #9A856A",
"=. c #9B866B",
"-. c #9C8B74",
";. c #A48463",
":. c #AC8661",
">. c #A28865",
",. c #AC8965",
"<. c #A58A6B",
"1. c #AB8C6A",
"2. c #B38B63",
"3. c #BC8D61",
"4. c #B28F6A",
"5. c #AE916F",
"6. c #BD9065",
"7. c #B3926D",
"8. c #BB936B",
"9. c #A28D72",
"0. c #A98F71",
"q. c #A69175",
"w. c #AB9374",
"e. c #A5937A",
"r. c #AB967A",
"t. c #AD997E",
"y. c #B39572",
"u. c #B69975",
"i. c #B69977",
"p. c #BB9A75",
"a. c #BB9D7A",
"s. c #BEA17C",
"d. c #C08D5F",
"f. c #C18F61",
"g. c #C39264",
"h. c #C89667",
"j. c #C4966A",
"k. c #C89768",
"l. c #CB9A6B",
"z. c #D09F6F",
"x. c #C19B74",
"c. c #CA9D71",
"v. c #C19F79",
"b. c #D19F70",
"n. c #CBA076",
"m. c #C2A27D",
"M. c #C9A57E",
"N. c #D3A272",
"B. c #D8A777",
"V. c #AC9A80",
"C. c #B29E82",
"Z. c #B4A185",
"A. c #BCA382",
"S. c #B4A288",
"D. c #BBA68A",
"F. c #BEAB90",
"G. c #C2A581",
"H. c #CAA680",
"J. c #C5A985",
"K. c #CBAA85",
"L. c #C5AC8B",
"P. c #CAAD8A",
"I. c #CCB18E",
"U. c #D1B28D",
"Y. c #C3AF92",
"T. c #C4B195",
"R. c #CCB392",
"E. c #D1B693",
"W. c #D4B996",
"Q. c #D8BC97",
"!. c #D5BD9A",
"~. c #D9BE9A",
"^. c #D4BEA0",
"/. c #D7C09F",
"(. c #DCC19D",
"). c #DEC5A2",
"_. c #DAC4A4",
"`. c #E1C7A4",
"'. c #E2C9A6",
"]. c #E5CCA9",
"[. c #E8CFAD",
"{. c #E7D0AE",
"}. c #E9D1AF",
"|. c #E9D3B3",
" X c #EBD4B3",
".X c #EED8B7",
"XX c #EED9B9",
"oX c #F0DCBC",
/* pixels */
"7.p.7.y.7.u.u.y.y.p.p.u.u.p.s.a.J.).).).).'.].'.`.`.'.].[.].].E.a.I.I.P.K.P.J.G.a.y.7.7.7.7.,.,.;.5.1.y.s.s.s.G.P.P.P.J.G.m.G.m.",
"7.W.(.(.(.(.(.(.).].{.].].]. X).W.}.].].'.]. X].].`.}. X X}. X).W.}.}.}.].}. X X].).(.).'.`.).I.a.'.`.`.`.`.'.'.].].].].].'.].).",
"u.'.'.`.`.(.~.!.).'.{.}. X X.X).W.].'.].'.]. X[.[.'.].].].]. X'.W.].].].'.]. X X}.].].].].]. XW.a.].].(.~.Q.(.].].'.`.`.'.].}.`.",
"A.].`.'.).(.~.!.W.!.'.'.]. X X).E.].).!.E.W.(.).`.'.'.'.).'. X'.W.].].].]. X X'.(.~.E.!.`.[. XW.a.'.(.Q.~.Q.~.'.'.`.(.(.`.'.}.`.",
"m.].).).).(.~.~.!.W.~.]. X.XXX).G.G.,.Q ( ( o.X./ w.W.'.).).].).W.[.].].`.E.y.,.Q ! E R ( 0.R.P.u.(.~.~.(.W.~.(.`.(.(.`.`.].].'.",
"a.'.(.~.(.(.~.(.).(.).]. XXX Xu.[ X.;.^ ( ( X.( n D E w.(.'.`.~.E. X[.I.7.,.( ,.X.[ ( R / H G T w.(.Q.W.W.Q.(.(.(.(.`.'.].].].'.",
"s.'.'.(.~.(.(.].{. X].'.].).7./ X.o...h K J ) K e H G n  .W.).W.I.[.G.;.o.2.D ] ) ] ) f Y S H x G A.~.~.(.`.`.'.'.].].].].].}.].",
"s.'.].'.(.(.].}. X X{.}.].G.( A ] $.f.S ] ] @.A 6 K h x p &.'.!.P.E.( ' _ $.A +.O.$.) f I K Y t f T I.(.(.).'.`.`.'.'.].].].}.].",
"s.`.).'.'.]. X X X X X X).2.) A { l.l.Y $.f.g.Z 4 K A h p r Y.!.s.%.Z ] ] #.P o.O.$.) e Y ' O.h t t 9.~.W.(.'.`.(.`.'.].].].].'.",
"m.].'. X X].}. XXXoXXX Xm.O.I C $.z.l.P $.g.g.A t Y Y h h 3 m C.R f K 3.) +.! ' ) O.] u Y ] @.A h f l r.u.A.L.R.!.(.).].].].[.'.",
"J.].). X X'.}. XXXXXXX).3.@.K Z $.l.g.P +.O.$.A h Y Y f h 4 2 =.f a ] g.Y +.Y ' ) $.+.x ' ] O.P C A e m r.t.t.t.C.L.).'.'.].].'.",
"J.'.'. X X).]. X X X XP.{ @.P Y f.g.g.A ] ) $.A h ) I f f 6 % m f h O.f.P ] S ' ) g.3.C ' ] ] S h K u k t.t.r.t.t.t.R.`.`.).].'.",
"L.'.'. X].!.). X X X Xa.) O.Y Y g.k.g.S { +.h.P h ] K e f e # 9 t h _ $.P ' A +.' l.g.h ' O.] A f A f 7 q.r.w.w.t.t.C.~.(.(.].'.",
"P.{. XoX X(.). X X X X1.) f.! P l.l.l.P +.k.z.Y f ] I t h t & & 4 h I g.] +.P #.] N.3.x #.$.{ A f f f 5 9.r.w.w.r.t.C.L.(.(.].).",
"I. X XXX X X X}. X X).( Y f.] U N.N.N.~ +.g.z.Y t ) ) h h f - @ 4 f ) l.$.6.~ 3.$.B.+.C $.$.@.A s h f , | r.r.t.u.C.C.D.).'.}.`.",
"J.).).'.{. X].R.<.^ l A ) g.O.P l.N.N.~ +.f.l.' t ] ' C h h & @ 4 u ] N.g.l.o.j.] l.] h O.+.$.H C J h - > 5 k  .9.w.q.u.W.(.(.R.",
"7.J.P.I.P.7.,.X.G g 4 A ] g.] S f.k.j.! 2.j.c.:.p ' U P Z h # @ 4 a ) l.l.l.~ 8.X.8.X.D ' ] O.A Z K C , # # , z x v R %.a.s.p.p.",
"P.[. X].7.X.X.' Z 4 0 A ] g.] Z 4.m.G.u.s.m.K.J.w.y.Q P h f # @ 0 h ) g.n.H.G.P.G.m.y.0.y.1.o.Z N K h 1 @ @ , v D v z -.).'.'.).",
"J.].].m.[ ! ) Y A 1 t B ] ] :.w.p.3.#.Z ` +.g.o.z Q <.<.x e # O 0 h Y m.U.p.[ +.K ] P Z ] ! [ ( Q A h 3 @ @ , Z N Z z b S.!.].].",
"G.{.E.! A ] O.K K 1 q N ] ,.y.R ..3.p.5.p.v.v.p.T x H H E 7 # o 4 Z 1.8.k.6.;.p.y.p.y.1.2.' K f ^ ( C 4 @ @ ; K A K t e W Z.F.^.",
"L.].p.K ' g.+.A Y 3 4 h ;.7.) Q p.m.y. .( ;.,.,.%.<.;.f f i & o 1 R H ] x.m.a.y.( ( ^ ^ ;.;.;.D C R R , @ # - Z A K t e i -.S.D.",
"L.E.$.Y $.l.+.A L 3 1 Z ;.H :.y.;.[ X.^ ( X.X.( n n Q ^ z , - o 6 Z v y.p.,.( ,.( ( ( E Q H G E Q Z D , o & - h N A f 4 t m S.A.",
"G.v.3.' $.g.] N J 1 1 G H Q 1./ X.o.o.x K K ) P p H H n n 6 & o 1 Z ;.;.:.2.R o.) ] Y g Y H H v n D e , o * - h A J N 6 s k V.A.",
"G.8.3.Y { $.] Z A 0 0 g ! 1.[ H ] @.$.A ) ) O.K 6 K h v z r # X ; H ( ' ' +.A +.O.$.' f I K I p z v 7 & @ , 4 A C Y P e h p e.D.",
"A.3.+.P _ g.3.Y Y u t u 2.:.` A ] k.l.Y $.$.g.A 4 A A h p 5 @ . - H H ) ] +.P o.O.$.` e P ) O.h t p 7 @ # t f Y C ] K e h p -.Y.",
"m.+.+.A O.l.l.] o.h s q ' O.Y C @.l.l.U $.g.g.A e I Y h h 4 +   - f A $.' +.! ' ) +.] t P ] @.A s p 3 o & h s P A $.A e N p &.T.",
"p.+.$.A +.N.l.$.2.U A t ] @.K N $.l.j.P +.@.$.K h ) Y f h 6 @ . - a ) g.Y ..! ' ` +...h ) ] +.P C Z e @ - h h Z N ] N t A p m Y.",
":.O.f.U +.g.N.g.o.! F f { @.I P d.g.g.A ] ) $.A h Y Y f f 6 @ o 4 h { g.P ] P ' ) g.3.Z ` ] ] P h K f & e A C h a A t f K t c Y.",
"[ O.k.' ..g.n.K.m.s.y.Q ) O.Y Y f.k.g.H ] ] g.P h ) L t f e # - q h _ $.P ` S o.' l.g.h ` ] ] A f A f , T / / T z f 1 f A e 7 F.",
"o.] h.' [ K.U.M.( :.A A ) 3.` P g.l.k.P +.g.z.Y f ] I t h e & # 4 h I f.] ] P +.] N.g.C +.$.{ A f s f , h P D x T n 6 t A e 8 Z.",
"X.) $.2.y.8.j.l.X.8.( A Y 3.] P z.N.N.~ +.g.z.` u ) ) f h f - @ 1 f Y l.#.3.! +.+.N.$.Z #.$.+.A f f f , z Q v 6 t t i z C 6 7 t.",
"[ L 2.4.Z +.x.m.y.;.n A Y g.+.P l.N.N.' +.3.l.] t ' ' N h h - @ 1 t ] z.g.l.o.j.O.N.+.N +.@.$.P N A h - 2 7 l T D e : p n 6 i <.",
"4.! ,.' ( u.7.o.D g 4 A ' g.+.S g.l.l.! o.6.k.o.t ` ! K Z h $ @ 4 u ) l.k.l.[ 6.' 3.' x ` O.O.K Z K C , # # 2 l n n p 4 g 7 l %.",
"P.2.` 2.4.X.X.[ Z e 0 A ] g...Z 2.x.m.u.G.J.P.J.<.1.P P N s # @ 4 h ) f.l.n.a.P.G.G.a.w.y.,.' Z h J N 1 # @ , v D z l p 6 7 T w.",
"I.7.U 7.X.' ) Y B 1 t B ] +.o.>.a.p.3.P ' +.j.2.T %.1.;.x t # O 4 h Y x.U.m.1.2.! o.Y D [ [ ;./ H A h 3 # @ , N h Z z l 3 ,  .Z.",
"L.p.X.( P ) ] L K 1 e N ] o.p.( o.#.6.;.4.p.x.8.x g H ( E 7 # o 4 h ;.v.c.3.( 8.;.7.1.;.+.Y K x ( Q C 6 # @ ; A A K t i 6 > | t.",
"J.m.o.P Y $.+.A Y 4 4 h [ p.' H 7.a.y.;.( ( ( ;.1.1.X.f g p & o < H ( ] j.m.a.5.X./ Q ( ;.,.;.x C Q R 1 @ # - Z A K p e 6 5 } -.",
"P.I.+.Y @.l.+.A L 4 1 h ;.Q [ y.( h t 0 0 0 4 4 a A [ ( g 3 > o 3 Z g 1.1.U B d N N a a a a Z / E Z G 5 + # - h N A f 4 e 7 | -.",
"L.H.3.' $.h...N K 3 1 D Q H :.C 0 4 4 1 4 w a a d d a Z H 6 * o 1 x ;.Q a a N B J K B N N N h a Z G p 3 o & - f A A N 4 f 7 } -.",
"A.p.3.` O.$.] N A 4 0 z U X.f < < 0 t y a N N d a f a a N g & X ; H P a d h s a s h N B N N B N w g e & @ ; 1 Z Z P K e h r m -.",
"u.8.#.P _ 3.$.I I t t p o.Z 4 a h N N h s a a s B A B d t h & . - A t t N A B N N h s s a a s N a 4 r # # 6 p I Z ) P e h t W Z.",
"5.2.+.A ] k.l.] ] s s e U t 4 h a t a a N B B B N d s a 0 a &   - N 1 t a s a s h B B B N N N N t < 4 @ * Z Z ) A +.P e h p | Z.",
"( +.$.A +.N.l.@.2.P A 0 h 0 ; t a d N B N N s s a h B B w t # . $ s < a N N N N d a a a s d N N a 4 1 + 1 ) Y ] Y $.A e Z f m C.",
"U O.f.U ..j.b.f.+.Y A q q q ; a B N h a a d N J K K B s w y O o # w 4 ; 4 w a s s N N N a a t w 4 0 : @ f ] ' ' I @.h p J t c C.",
"U O.h.' o.g.c.n.p.y.5.^ z t < < a h N d N B B N B B s t a 0 # 7 e e t < 4 0 0 0 4 0 w a a N N t 0 t - i 1.p.p.;.P ) t f A t 7 V.",
"~ ] h.] ' m.U.K.1.4.Q H h 1 0 < < a N B B B N N h a u a a : 1 f t , t t 4 0 w w 0 0 4 < < 0 y y a 1 , Z o.8.7.1.1.;.p f A t 5 t.",
"X.' $.:.y.p.k.l.~ 2.Q P H 6 4 4 < < 0 t t a s s a s a a h f g H Z e e t t w t t t w t t y s s a y p f ! o.6.' h P Q E D Z e 7 C.",
"X.I +.7.Q o.k.m.a.u.1.;.( / R p 4 < 4 0 0 w w y a w u H ( ( / Q / / Q n p q y a s d N N N s t x Q %.( ( ( %.<.;.( x e H D 6 l w.",
"7.Y ,.' Q y.1.Q A N N N a a h h x 6 - - - = ; < t v R v h a s s w d s h Z p 4 1 1 : : 1 1 p G H Z a a h s a s h H ( H h x 6 b q.",
"P.,.' o.7.H a a N V V V N s N a t f e - @ o * 4 H F a a B N N y N N s 0 a h x 1 # + # , i H h a a s N N N N h a a s H H e e | D.",
"!.7.U ,.B s h h a a h B V B N B N a t 3 @ 8 3 x Z s s N N B t s N N q u B a a p # 2 7 e H f s B B B B N a a h B N a t Z p 5 &.D.",
"(.p.' Z 4 a A A B N h s s s s N B N 0 4 % b e Z q a N N K h a N B a u N s 4 < a - j l v h t B K J N s s N B B h t q t y x 7 e.D.",
").G.' t q h s a d N B B N N s a h N 0 4 2  .z f : N B L B a N B N t B h t : 1 t 1 b T h 0 a B N a s N B B N a t a B h 0 a k V.D.",
").E.~ 4 4 d N N N d a a N B B B B h 4 4 k r.R t : N K J a N B B a N s w 4 0 4 w 6 &.&.h 1 q s h N B B h a a N N h a 4 1 t c t.D.",
").].;.0 - 1 0 a s s N N h t t a h a 0 e &.C.=.a : s K s s B B a N N y 1 0 q 0 w n t.t.D 4 4 N B A h a d N N a t 0 < < 0 a  .r.D.",
"~.}.G.h < 4 0 0 0 4 w s N N N a w w w n r.t.Z.Q 0 4 a h N K h a B d 0 0 t t w f =.C.Z.0.a < t a s d N N s 0 4 4 0 0 0 y G q.r.D.",
"!.].).;.t 1 4 t e 0 4 4 4 q s N a a g =.t.Z.!.L.h 4 4 a N h a N d 4 4 t a a a R r.C.Y././ e 3 t d d t 0 4 0 q w w w a h 9.Z.D.!.",
"!.'.].!.( t 0 q t w q 0 4 0 a s s g &.t.A.!.`.).A.x q q t q s d t 0 s d M s R q.C.R.).].!./ a y a w 4 q t t a s s a h =.Z.Y.).].",
"W.].].].).w.Z a y a s s M N d a g <.D.R.).'.'.].].L./ h a s N N N N N N v  .C.L.!.).'.].].).w.D s s N N N N M s s G q.Y.^.]. X].",
"W.].].].].].!.w.^ G Z Z G R  .%.%.!.).).).].].{.].].!.A.;.Q R D H Q / <.D.!.).`.`.).].].{.[.].R.;.%.Q H D H E %.C.R.).]. X XXX].",
"!.].].'.].].'.).(.W.W.W.!.(.).I.5.].].].].{.{.}.].'.).).).).).R.P.).).'.].].'.'.`.'.].}. X]. X/.I. X].~.!.).~.]. X].].}. X.X.X].",
"E.].].'.].'.'.`.).!.).'.`.).`.R.y.'.].].}.}.{. X].].].'.].}.}.(.W.].'.'.'.'.'.'.'.'.].{. X].].!.L.}.].[.].`.).'. X].'. X X X X].",
"I.].].].].'.'.'.'.).'.'.'.'.].E.G.}.].].].}.{. X}.[. X}.}. X].(.E.].].].'.'.].'.'.].].]. X X X!.s.].].].].'.'.]. X].'.}. X X X].",
"a.I.P.I.P.J.K.P.J.J.J.L.P.P.I.G.7.G.G.G.G.J.G.G.G.s.G.G.L.P.J.a.a.W.!.W.R.I.R.W.W.R.P.P.P.I.J.u.;.P.W.!.!.!.!.(.).~.W.!.!.(.).E."
};
