/* XPM */
static char *F[] = {
/* columns rows colors chars-per-pixel */
"16 28 5 1 ",
"  c #AF101D",
". c #F7385B",
"X c #FF9B3D",
"o c #FFE894",
"O c white",
/* pixels */
"                ",
" .XooooooooooX. ",
" XooOOooooooooX ",
" XooOOooooooooX ",
" XooooooooooooX ",
" XoOooooooooooX ",
" XooooooooooooX ",
" Xoooooooooooo. ",
" XoooooX....... ",
" XoooooX        ",
" Xoooooooooooo. ",
" XooooooooooooX ",
" XooooooooooooX ",
" XXooooooooooXX ",
" XXXXXXXXXXXXX. ",
" XXXXXXX....... ",
" XXXXXXX....... ",
" XXXXXXX        ",
" XXXXXXX        ",
" XXXXXXX        ",
" XXXXXXX        ",
" XoXXXoX        ",
" .XoooX.        ",
" .......        ",
" .......        ",
"  .....         ",
"                ",
"                "
};
