/* XPM */
static char *N[] = {
/* columns rows colors chars-per-pixel */
"16 28 5 1 ",
"  c #AF101D",
". c #F7385B",
"X c #FF9B3D",
"o c #FFE894",
"O c white",
/* pixels */
"                ",
" .XooX    XooX. ",
" XooOOX   ooooX ",
" XooOOoX  ooooX ",
" XooooooX ooooX ",
" XoOoooooXooooX ",
" XooooooooooooX ",
" XooooooooooooX ",
" XooooooooooooX ",
" XooooooooooooX ",
" XooooooooooooX ",
" XooooooooooooX ",
" XooooooooooooX ",
" XXoooXooooooXX ",
" XXXXX..XXXXXXX ",
" XXXXX...XXXXXX ",
" XXXXX ...XXXXX ",
" XXXXX  ..XXXXX ",
" XXXXX   .XXXXX ",
" XXXXX    XXXXX ",
" XXXXX    XXXXX ",
" XoXoX    XoXoX ",
" .XoX.    .XoX. ",
" .....    ..... ",
" .....    ..... ",
"  ...      ...  ",
"                ",
"                "
};
