/* XPM */
static char *_[] = {
/* columns rows colors chars-per-pixel */
"16 28 5 1 ",
"  c #AF101D",
". c #F7385B",
"X c #FF9B3D",
"o c #FFE894",
"O c white",
/* pixels */
"                ",
" .XooooooooooX. ",
" XooOOooooooooX ",
" oooOOooooooooX ",
" oooooooooooooX ",
" ooOooooooooooX ",
" XooooooooooooX ",
" XXXXXXXooooooX ",
" ......XooooooX ",
" ......XooooooX ",
"       XooooooX ",
"       XooooooX ",
"       XooooooX ",
"       XXooooXX ",
"       XXXXXXXX ",
"       XXXXXXXX ",
"       XXXXXXXX ",
"       XXXXXXXX ",
"       XXXXXXXX ",
"       XXXXXXXX ",
"       XXXXXXXX ",
"       XoXXXXoX ",
"       .XooooX. ",
"       ........ ",
"       ........ ",
"        ......  ",
"                ",
"                "
};
