/* XPM */
static char *exit[] = {
/* columns rows colors chars-per-pixel */
"64 64 203 2 ",
"   c None",
".  c #020203",
"X  c #080604",
"o  c #060609",
"O  c #07080B",
"+  c #0A0A0D",
"@  c #100E0A",
"#  c #14120D",
"$  c #070911",
"%  c #0B0B11",
"&  c #100F12",
"*  c #0F1017",
"=  c #121216",
"-  c #1C1A14",
";  c #14151C",
":  c #17181F",
">  c #1B1B1D",
",  c #191612",
"<  c #211E1B",
"1  c #27221A",
"2  c #2B251B",
"3  c #2A2419",
"4  c #332B1C",
"5  c #392F1D",
"6  c #3D331D",
"7  c #151722",
"8  c #171821",
"9  c #1A1B24",
"0  c #1D1F29",
"q  c #201F23",
"w  c #1F2028",
"e  c #212124",
"r  c #24232B",
"t  c #2A292C",
"y  c #29282A",
"u  c #342E26",
"i  c #322E28",
"p  c #35312A",
"a  c #393428",
"s  c #252631",
"d  c #272833",
"f  c #2B2B35",
"g  c #2C2D39",
"h  c #312F35",
"j  c #2F303B",
"k  c #313136",
"l  c #32323C",
"z  c #3C3B3C",
"x  c #3A3835",
"c  c #41361F",
"v  c #41381F",
"b  c #423620",
"n  c #453921",
"m  c #443A2D",
"M  c #4A3E2C",
"N  c #463A28",
"B  c #433E3A",
"V  c #4D412D",
"C  c #57462A",
"Z  c #4B4337",
"A  c #554B3C",
"S  c #5E4E36",
"D  c #624F2B",
"F  c #65522D",
"G  c #69572E",
"H  c #695837",
"J  c #745F3B",
"K  c #716335",
"L  c #72653A",
"P  c #76673C",
"I  c #6F6136",
"U  c #353641",
"Y  c #3C3B46",
"T  c #3E3E49",
"R  c #383842",
"E  c #403E47",
"W  c #403F49",
"Q  c #3F404B",
"!  c #45434D",
"~  c #4B4747",
"^  c #524C4A",
"/  c #5C534A",
"(  c #464652",
")  c #494651",
"_  c #474855",
"`  c #4B4A55",
"'  c #4E4E5B",
"]  c #4E4D59",
"[  c #4F4F5C",
"{  c #4D4C59",
"}  c #504D56",
"|  c #514E59",
" . c #53515D",
".. c #5C5759",
"X. c #4F505B",
"o. c #665947",
"O. c #665D58",
"+. c #715F43",
"@. c #766A45",
"#. c #6E6152",
"$. c #6C635B",
"%. c #736553",
"&. c #7D6B53",
"*. c #786958",
"=. c #6F604F",
"-. c #575662",
";. c #585763",
":. c #5A5965",
">. c #5F5E6A",
",. c #5E5D69",
"<. c #5E5D69",
"1. c #605F6B",
"2. c #605E6A",
"3. c #62616C",
"4. c #686772",
"5. c #6B6A76",
"6. c #676672",
"7. c #766E68",
"8. c #866C3E",
"9. c #8C703F",
"0. c #856D46",
"q. c #8D7347",
"w. c #927642",
"e. c #957949",
"r. c #997B49",
"t. c #836E54",
"y. c #847156",
"u. c #8B7555",
"i. c #947B55",
"p. c #937C59",
"a. c #987C55",
"s. c #847E7F",
"d. c #9D8156",
"f. c #9B8259",
"g. c #A48454",
"h. c #AC8B55",
"j. c #AA8D5A",
"k. c #A68858",
"l. c #B28E55",
"z. c #B08F5A",
"x. c #AF905B",
"c. c #B49259",
"v. c #BC9A5C",
"b. c #BA9557",
"n. c #C39D5A",
"m. c #C59C56",
"M. c #CBA45C",
"N. c #CAA35A",
"B. c #D3AA5B",
"V. c #D7AB58",
"C. c #DDB25D",
"Z. c #E2B65E",
"A. c #E7BA5C",
"S. c #CDAC64",
"D. c #DBB562",
"F. c #DAB765",
"G. c #E4BB62",
"H. c #E8BE62",
"J. c #E0B761",
"K. c #EBC15F",
"L. c #F0C45F",
"P. c #ECC263",
"I. c #ECC769",
"U. c #F3CB66",
"Y. c #F2CC6A",
"T. c #F5CB67",
"R. c #F6D26D",
"E. c #FAD66D",
"W. c #FEDA6E",
"Q. c #F9D466",
"!. c #FBDC74",
"~. c #F6D776",
"^. c #EFD575",
"/. c #FDE275",
"(. c #FDE47B",
"). c #FEE97B",
"_. c #7B7982",
"`. c #F7DF87",
"'. c #FDE683",
"]. c #FEEC83",
"[. c #FEEC8B",
"{. c #FCE789",
"}. c #FFF085",
"|. c #FFF28C",
" X c #FAEB93",
".X c #FEF394",
"XX c #FFF59C",
"oX c #FFFC9A",
"OX c #FFF892",
"+X c #EDE48D",
"@X c #FEF6A2",
"#X c #FFF9A4",
"$X c #FFFAAC",
"%X c #FEF7A8",
"&X c #FFFBB4",
"*X c #FFFDBC",
"=X c #EFE6B1",
"-X c #FFFDC3",
";X c #FFFECC",
":X c #FFFFD3",
">X c #FFFFDB",
",X c #FFFFE4",
"<X c #FFFFEB",
/* pixels */
"  . . . . . . . . . . . . . . . . . . . . . . . . . . . . . . . . . . . . . . . . . . . . . . . . . . . . . . . . . . . . . .   ",
"  . % ; ; ; ; ; ; ; ; ; ; ; ; ; ; ; ; ; ; ; ; ; ; ; ; ; ; ; ; ; ; ; ; ; ; ; ; ; ; ; ; ; ; ; ; ; ; ; ; ; ; ; ; ; ; ; : : ; + .   ",
". + Y  .( T ' ' | | ' ' ' ' ' ' ' ' ' ' ' ' ' ' ' ' ' ' ' ' ' ' ' ' ' ' ' ' ' ' ' ' ' ' ' ' ' ' ' ' ' ' ' ' ' ' ' ' ! _  .U + . ",
". 8 ;.6.-.' 3.1.1.3.1.1.1.1.1.1.>.>.>.>.>.>.>.>.>.1.1.1.1.1.1.1.1.1.>.>.>.>.>.>.>.>.>.>.>.>.>.>.1.1.1.1.1.1.>.>.1.>.' -.6.-.7 . ",
". 8  .' ( _ ( ( ( ( ( ( _ _ _ ( ( ( ( ( ( ( ( ( ( ( ( ( ( ( ( ( ( ( ( ( ( ( ( ( ( ( ( ( ( ( ( ( ( ( ( ( ( ( ( ( ( ( ( ( '  .; . ",
". 8  .' _ _ _ _ _ _ _ _ _ _ _ _ _ _ _ _ _ _ _ _ _ _ _ _ _ _ _ _ _ _ _ _ _ _ _ _ _ _ _ _ _ _ _ _ _ _ _ _ _ _ _ _ _ _ _ _ |  .; . ",
". 8  .' _ _ _ _ _ _ _ _ _ _ _ _ _ _ _ _ _ ( ( _ _ _ _ _ _ _ _ _ _ _ _ _ _ _ _ _ _ _ _ _ ( _ _ _ _ _ _ _ _ _ _ _ _ _ _ _ ' ' ; . ",
". ; g g g g g f f g g f g g f f f f f f f d f f g g g g g g g g g g g g g g g g g f f f f f g f f f f f f f f f f f f f g s % . ",
". % 8 8 8 8 8 8 8 8 8 8 8 8 8 8 8 8 8 8 ; . ; 8 8 7 7 7 7 8 8 8 8 8 8 8 8 8 8 8 8 8 8 8 8 8 8 8 8 8 8 8 8 8 8 8 8 8 8 8 8 7 + . ",
". . O O O O O . . . O . . . . o + + . . . ; O . , a a a p - . . . . . . . . . . . . . . . . O . . + + . . O . . . O O O O . . . ",
". % U U l l g ; . w t O = r = e x = . ; ! 4.q 8 @.oXOX$X:X;X                            . ; d ; , ~ B e O r ; . ; f g g U l + . ",
". 8 ;._ ( ( W 8 . k z + ; z > + + ; f  .:.| r w @.oX$X;X;X;X                            . 0 Y ; - / ^ y O l 8 . 8 Y ( ( _ -.8 . ",
". 8 ;._ ( ( W 8 . k z + = k . . r ! 3.;.Y r r g @.oX-X&X*X>X                            . 0 ! ; 1 %./ i O l r . 8 Y ( ! _ -.8 . ",
". 8 :._ ( ( W 8 . z z + . + : l -.:.! U w . 8 | P OX&X$X:X,X:X                          . s :.8 2 p.#.i O _ g . 8 Y ( ! } -.8 . ",
". 8 :._ ( ( W 8 . Y k . + r  .:.:.l f + % = 8  .P }.OX*X;X-X>X>X                        . f >.8 4 a.#.p % | g . 8 Y ( ! } -.8 . ",
". 8 :._ ( ( W 8 . t + 8 T 3.4._ l ; , @ 8 t > ;.L ].|.#X*X;X,X<X,X                      . f >.8 4 k.%.p %  .g . 8 Y ( ! } -.8 . ",
". 8 :._ ( ( ! ; . % g X.6. .Y f = . S 4 r k ; _ P |.}.#X;X>X>X,X,X                      . f >.8 6 c.&.a % | g . 8 Y ( ! _ -.8 . ",
". 8 :._ ( ( f O ; T  .3.Y l r . e 8 J 5 r l % l K }.OX-X:X>X>X,X>X                      . f >.8 6 S.u.a %  .g . 8 Y ( ) _ -.8 . ",
". 8 :._ ( W . 8 >.5.( R l > X . f r L 6 r k % l L }.$X*X&X:X>X,X                        . f >.7 6 F.a.a %  .g . 8 Y ( ! _ -.8 . ",
". 8 :._ ( W . 8 3. .l r + @ A . f r P 6 r k = _ K ].%XOX$X:X>X>X                        . f >.8 6 b.u.m %  .g . 8 Y ( ! _ -.8 . ",
". 8 :._ ( W O ; ( ! % . 8 < o.. f r 8.b r k =  .K ).).}.*X>X:X:X<X                      . f >.7 6 v.a.m %  .g . 8 Y ( ) } -.8 . ",
". 8 :._ ( W O ; _ l + . T y @.. f r 9.b r k =  .K W.(.OX;X:X*X<X<X                      . f >.8 6 v.f.V %  .j . 8 Y ( ) } -.8 . ",
". 8 :._ ( W O ; _ Y 8 . _ u 0.. f r 9.b r k =  .K !.[.$X;X-X;X<X<X                      . f >.7 6 M.f.V %  .l . 8 Y ( ) } -.8 . ",
". 8 :._ ! E . ; _ T e . ( u q.. f r 9.b r k ;  .K ).#X;X&X#X>X<X:X                      . f >.8 6 M.a.m %  .l . 8 Y ( ) } ;.8 . ",
". 8 :._ ) W . ; _ T e . ( u w.X f r 9.v r h ;  .K }.&X*X$X&X,X:X-X                      . f >.8 6 M.d.M %  .j . 8 Y ( ! } ;.8 . ",
". 8 :._ ) E O ; _ W e . ( u e.. f r 9.b r h ;  .L |.$XOX#X:X:X-X;X                      . f >.8 6 B.c.V %  .l . 8 Y ( ! } ;.8 . ",
". 8 :._ ! E O ; _ W e . ( u e.. f r 9.n r h ;  .L (.|.|.*X>X&X>X,X                      . f >.8 6 B.d.M %  .l . 8 Y ( ) } ;.8 . ",
". 8 :._ ! E . ; _ W e . ( u r.X f r 9.n r h ;  .@.|.).OX*X*X#X;X,X                      . f >.8 v J.c.V %  .j . 8 Y ( ) } ;.8 . ",
". 8 :._ ! E . ; _ W e . ( u r.X f t w.n r h ;  .P ).].#XXX|.#X:X<X>X                    . f 1.7 v H.M.F $  .l . 8 Y ( ) } -.8 . ",
". 8 :._ ! W . ; _ ! e . ( u r.X h t w.n r h ;  .K ).XXXX|.OX&X,X,X:X                    . f >.7 v H.B.F $  .l . 8 Y ( ! } ;.8 . ",
". 8 :._ ! W O ; _ ! e . ( u r.X h t w.n r h ;  .L |.OX].@X$X>X,X>X>X                    . f 1.7 v P.M.D $  .l . 8 Y ( ! } ;.8 . ",
". 8 :._ ! E O ; _ ! e . ( u r.X f t w.n r h ;  .@.oX(.).|.$X>X>X-X,X,X                  . f 1.7 n I.N.F $  .l . 8 Y ( ! } ;.8 . ",
". 8 :._ ! W O ; _ W e . ( u r.X f r w.n r h ;  .L !.E.!.].$X>X-X;X<X,X                  . f 1.7 n Y.M.D %  .l . 8 Y ( ! | ;.8 . ",
". 8 :._ ! W O ; _ W > . ! u e.X h t w.n r h ;  .I W.Y.E.[.&X;X&X;X,X>X                  . f 1.7 n I.M.S $  .l . 8 Y ( ! | ;.8 . ",
". 8 :._ ! E O ; ' Y O = Y u e.X h t 9.b r k ;  .H E.'.!.OX*X&X&X-X>X:X                  . f 1.7 v J.b.V %  .l . 8 Y ( ! | ;.8 . ",
". 8 :._ ! E O 7 T _  .! l u q.. h t 8.v r k ;  .H R.Y.(.XXOX}.@X:X,X>X                  . f 1.7 6 D.h.V %  .l . 8 Y ( ! | ;.8 . ",
". 8 :._ ) E O ; _ 1.! f l u q.. f r 8.6 r k ;  .G P.P.(.].].}.*X,X,X>X                  . f >.7 v D.S.V %  .l . 8 Y ( ) | ;.8 . ",
". 8 :._ ) E O ; T T r r = 1 q.. f r P 6 r k =  .F H.P.!.(.).OX;X,X;X-X                  . f >.8 6 D.v.V %  .l . 8 Y ( ) | ;.8 . ",
". 8 :._ ) E O ; ! l ; U ( 1 0.. f r J 5 r k ;  .F C.Y.!.'.|.$X:X;X$X*X                  . f 1.8 6 M.d.M %  .l . 8 Y ( ) } ;.8 . ",
". 8 :._ ) E O ; ! Y -.1.>.2 @.. f t J 5 r k ;  .F C.I.!.!.].&X:X$X#X;X    ;X            O f >.8 6 n.f.M %  .j . 8 Y ( ) } ;.8 . ",
". 8 :._ ! E O ; ( f ; Y 8 - @.. f r J 4 r k = ' D C.C.H.E.@X;X-XOX-X>X,X:X-X            . f >.8 6 v.a.m %  .j . 8 Y ( ! } ;.8 . ",
". 8 :._ ! E . ; ( t . . 4 1 +.. f t H 4 r h = ! D C.C.A.~.XX*X@X}.&X>X<X:X*X            . f >.8 5 k.u.m %  .j . 8 Y ( ! } ;.8 . ",
". 8 :._ ! Y O ; ( Y . S 0.4 o.. f r H 4 r h = Y F G.N.C.!.$X@X).|.-X>X<X-X&X            . f >.8 4 k.y.m %  .j . 8 Y ( ! } ;.8 . ",
". 8 :._ ! Y O ; ( Y + J P 4 o.. f t S 2 r h ; ;.D M.m.G./.@X(.(.XX;X,X:X$X;X            O f >.8 4 k.y.m %  .j . 8 Y ( ! } ;.8 . ",
". 8 :._ ! E O ; _ Y . @.e.1 o.. f r A 2 r h ; ;.C v.m.P./.].!./.&X:X,X-X#X:X:X    &X    O f >.8 4 f.&.a %  .j . 8 Y ( ) } ;.8 . ",
". 8 :._ ! E O ; _ T O n 1 , / . f r Z 2 r h = ! C m.M.R.!.R.Q.].*X:X>X#X&X-X      :X    . f >.8 4 f.%.a %  .l . 8 Y ( ) } ;.8 . ",
". 8 :._ ! E O ; _ ! r O 8 > A . f r Z 1 r h % l C n.B.T.T.P.W.@X:X:X;X#X$X:X    -X;X>X  . d >.8 2 p.%.p %  .l . 8 Y ( ) } ;.8 . ",
". 8 :._ ) E . ; ( Y % . Y e A . f r m < r f + r D Z.P.Y.P.K.].$X;X:X&X|.@X*X    &X*X;X  . d >.8 2 y.%.p %  .l . 8 Y ( ) | ;.8 . ",
". 8 :._ ! E . ; U 8 % . _ e A . f t x > r h + ! G R.G.Z.C.T.|.*X;X*XOXOX;X&X>X>X;X-X&X=X. d >.8 2 y.%.p %  .j . 8 Y ( ) } ;.8 . ",
". 8 :._ ) E O ; _ W 8 . _ < u . f t > + r f q _.G R.B.B.Z.(.XX;X$X$X].[.$X*X>X>X*X*X&X=X. s >.8 , Z Z < %  .g . 8 Y ( ) | ;.8 . ",
". 8 :._ ! Y . ; _ ! e . _ ; + . f r . . r e ; ;.F C.m.m.I.[.*X-XXX@X/.].|.-X:X:X;XXX[.+X- r _ 8 . % + . % T f . 8 Y ( ! | -.8 . ",
". 8 ;._ ! E O ; _ ! e . _ > r . f r . . O 8 f Y F n.h.N.!.OX&X&X@X~.!.|.OX&X:X;X#XOX|.+X- 0 Q 8 + s r * + U s . 8 Y ( ! | -.8 . ",
". 8 ;._ ! Y O ; _ ! e . ( > r . t e O 8 Y  .l r N g.b.G.W.XX$X#X'.A.P.(. X*X*X*XXXXX'.^.1 O = O 8 l l r % % + . 8 Y ( ! | -.8 . ",
". 8 -._ ! Y . ; _ ! e . ! > r . r > r 4. .! 8 = H l.C.E.(.$X{.'.~.V.G./.(.&X*X$XOX'.!.R.M % e r Y ! ^ Q j r ; . 8 Y ( ! | -.8 . ",
". . = = = & . ; _ ! 8 . ! ; % . + f :._ Y f O t a.G.R.[.$X XP.`.B.B.P.T.'.&X*XOX(.E.T.A.F w } } ! ! ! ! ! ! s O O % = = = = . . ",
". . r j f s . ; _ ! 8 . E & * w Y :.! U r . = o.v.W.!.OX XC.P.^.N.B.P.L.!.$X$X(.T.T.E.T.q.l ..O.O. ._ _ _ _ ! l l j f g g ; . . ",
". ;  .5.-._ O ; _ ! q . l = d :.3.Y U 8 . ; Z u.I.E.XX[.D.C.R.N.l.B.A.K.'.XX(.Y.A.`.@XL.h.^ ^ 7.s.5.5.5.5.5.5.4.5.6._ ;.5.' ; . ",
". 7 -.;._ ! O ; _ ! 8 . f w :. .Y l ; O e B &.S.T.'.].F.m.J.D.g.l.C.M.A.(.[.E.P.V.P.Y.P.N.=.~ O.7... . . . . .| | | _ ' -. .; . ",
". ;  ._ ( W O ; _ ! 8 . r 3. .U l = . r z +.x.Y.R.'.F.b.n.B.c.i.l.B.m.Z.'.E.T.C.N.C.Z.P.M.a.^ ^ *.$. .' _ _ _ _ _ _ _ ( |  .; . ",
". ; -.| _ ! O ; ' T w !  .T R g % + t z o.f.D.P.(.F.h.h.b.v.t.u.b.b.b.B.Y.Y.P.B.h.M.C.C.M.h.O.) *.7.O. .' ' _ _ _ _ _ _  . .; . ",
". ; Y Y R k . ; ' :.( -.R U r O % t l / &.k.D.G.F.h.g.g.z.k.&.a.v.h.b.B.H.Y.C.M.h.v.B.B.B.c.*.^ / ..} ( T T Y Y Y Y Y Y T Y ; . ",
". % 8 8 8 ; . ; _ _.! U U r O ; t k ~ %.a.c.c.M.x.t.t.a.v.&.u.c.v.h.l.G.P.G.M.b.b.h.B.M.M.c.y./ k Y U l f s s s s s r r r 8 O . ",
". O % % % + . ; l Y l j ; . 8 r k ~ o.y.k.k.c.k.%.%.%.y.t.%.p.c.d.a.g.M.G.n.n.k.a.g.n.M.n.z.f.#.l 8 > : ; ; ; ; ; ; = = = % . . ",
"  . . . . . . ; f Y j ; . 8 r k ~ o.#.p.a.a.p.y.O.*.*.*.#.*.x.k.d.i.k.v.M.N.l.a.u.a.c.c.v.D.k.%.k . . . . . . . . . . . . . .   "
};
