/* XPM */
static char *border_left_right[] = {
/* columns rows colors chars-per-pixel */
"64 64 149 2 ",
"   c None",
".  c #030404",
"X  c #070807",
"o  c #080806",
"O  c #070708",
"+  c #08070B",
"@  c #070808",
"#  c #0B0C0D",
"$  c #0E0E11",
"%  c #0F1012",
"&  c #111113",
"*  c #151619",
"=  c #17191A",
"-  c #191A1E",
";  c #1D1E22",
":  c #1E2024",
">  c #202125",
",  c #24262C",
"<  c #262A2F",
"1  c #28292F",
"2  c #272A30",
"3  c #2B2D34",
"4  c #2D3035",
"5  c #2E3138",
"6  c #33353B",
"7  c #37393E",
"8  c #383B3F",
"9  c #363940",
"0  c #3B3E46",
"q  c #3C3F48",
"w  c #3C4047",
"e  c #3F424A",
"r  c #3E424B",
"t  c #3E424A",
"y  c #3D4149",
"u  c #3D4049",
"i  c #404248",
"p  c #40454E",
"a  c #40464E",
"s  c #41464E",
"d  c #40474E",
"f  c #40464E",
"g  c #434951",
"h  c #434A51",
"j  c #434852",
"k  c #434952",
"l  c #434A52",
"z  c #444951",
"x  c #444A51",
"c  c #444B51",
"v  c #444852",
"b  c #454852",
"n  c #444952",
"m  c #454952",
"M  c #444953",
"N  c #454953",
"B  c #444A52",
"V  c #454A52",
"C  c #444B52",
"Z  c #444A53",
"A  c #454A53",
"S  c #444B53",
"D  c #444952",
"F  c #4A4D56",
"G  c #4B4E57",
"H  c #4B4F57",
"J  c #4C4F56",
"K  c #4C4F57",
"L  c #484B54",
"P  c #4B4F58",
"I  c #4D4F58",
"U  c #4C5057",
"Y  c #4D5057",
"T  c #4D5058",
"R  c #4D505B",
"E  c #4F565D",
"W  c #51545B",
"Q  c #53575D",
"!  c #50555E",
"~  c #50565E",
"^  c #51565E",
"/  c #50575E",
"(  c #51565F",
")  c #54575D",
"_  c #54575E",
"`  c #55575E",
"'  c #54575F",
"]  c #50565E",
"[  c #54585D",
"{  c #55585E",
"}  c #575C62",
"|  c #575C62",
" . c #585D63",
".. c #595D63",
"X. c #585E63",
"o. c #5A5F63",
"O. c #5B5F63",
"+. c #5A5F64",
"@. c #5B5F64",
"#. c #5A5F65",
"$. c #595E64",
"%. c #596065",
"&. c #5B6064",
"*. c #5A6065",
"=. c #5B6065",
"-. c #5C6065",
";. c #5D6065",
":. c #5C6066",
">. c #5C6166",
",. c #5D6367",
"<. c #5C6166",
"1. c #5A616A",
"2. c #5B616A",
"3. c #5B626A",
"4. c #5C626A",
"5. c #5C636A",
"6. c #5C626B",
"7. c #5C636B",
"8. c #5D636B",
"9. c #5C646B",
"0. c #5D646B",
"q. c #5E646B",
"w. c #5D646C",
"e. c #5C636B",
"r. c #60646D",
"t. c #656872",
"y. c #646972",
"u. c #656972",
"i. c #656973",
"p. c #666973",
"a. c #656A72",
"s. c #646A73",
"d. c #656A73",
"f. c #666A73",
"g. c #666974",
"h. c #666A74",
"j. c #696F75",
"k. c #696E76",
"l. c #696F76",
"z. c #6A6E76",
"x. c #6A6F76",
"c. c #696E76",
"v. c #6B6F78",
"b. c #6A7076",
"n. c #6B7077",
"m. c #6C7079",
"M. c #70757F",
"N. c #727780",
"B. c #757882",
/* pixels */
"O < a Z Z Z Z Z 1.#.# : , < < , , , , , , , , , , , , , , , , , , , , , , , , , , , , , , , , , , , < < , # ; t Z Z Z Z Z ] b.& ",
"O < a Z Z Z Z Z 1.#.O O # @ @ @ O O O O @ @ O O O O O O O O O O O O O O O O O O O O O O O O O O O O # # O O ; t Z Z Z Z Z ] j.& ",
"O < a Z Z Z Z Z 1.#.#                                                                                     O ; t Z Z Z Z Z ] j.& ",
"O < a Z Z Z Z Z 1.#.o                                                                                     O ; t Z Z Z Z Z ] j.& ",
"O < a Z Z Z Z Z 1.,.O                                                                                     O : w Z Z Z Z Z ] j.& ",
"O < a Z Z Z Z Z 1.,.O                                                                                     O : w Z Z Z Z Z ] j.& ",
"O 2 a Z Z Z Z Z 1.#.O                                                                                     O ; w Z Z Z Z Z ] j.& ",
"O < a Z Z Z Z Z 1.#.O                                                                                     O ; w Z Z Z Z Z ] j.& ",
"O < a Z Z Z Z Z 1.#.O                                                                                     O ; w Z Z Z Z Z ] j.& ",
"O < a Z Z Z Z Z 1.#.O & & & & & = ; ; ; ; ; ; ; ; ; ; ; ; ; ; ; - - < 7 7 7 7 7 7 7 7 7 7 7 7 7 7 7 - & & # > w Z Z Z Z Z ] j.& ",
"O < a Z Z Z Z Z 1.,.# 2 3 5 5 3 7 t t t t t t t t t t t t t t t q q E y.y.y.y.y.y.y.y.y.y.y.y.y.y.y.q 3 3 # : t Z Z Z Z Z ] j.& ",
"O < a Z Z Z Z Z 1.,.# - ; ; : ; ; ; ; ; ; ; ; ; ; ; ; ; ; ; ; ; ; ; ; ; ; ; : ; ; ; ; ; ; ; ; ; ; ; : : - @ : q Z Z Z Z Z ] j.& ",
"O < a Z Z Z Z Z 1.#.O O O O O O O O O O O O O O O O O O O O O O O O O O O O O O O O O O O O O O O O O O O O ; q Z Z Z Z Z ] j.& ",
"O 2 a Z Z Z Z Z 1.} @                                                                                     O ; q Z Z Z Z Z ] j.& ",
"O 2 a Z Z Z Z Z 1.#.O                                                                                     O ; q Z Z Z Z Z ] j.& ",
"O 2 a Z Z Z Z Z 1.#.O                                                                                     O : w Z Z Z Z Z ] j.& ",
"O < a Z Z Z Z Z 1.,.O                                                                                     O : t Z Z Z Z Z ] j.& ",
"O < a Z Z Z Z Z 1.#.O                                                                                     O ; t Z Z Z Z Z ] j.& ",
"O < a Z Z Z Z Z 1.} @                                                                                     O ; t Z Z Z Z Z ] j.& ",
"O < a Z Z Z Z Z 1.#.O O O O O O O O O O O O O O O O O O O O O O O O O O O O O O O O O O O O O O O O O O O O : q Z Z Z Z Z ] j.& ",
"O < a Z Z Z Z Z 1.,.# ; ; ; ; ; < 3 3 3 3 3 3 3 3 3 3 3 3 3 3 3 4 3 a ] ] ] ] ] ] { { ] ] ] { { ] ] 1 ; ; # : w Z Z Z Z Z ] j.& ",
"O < a Z Z Z Z Z 1.,.# 2 3 5 3 3 7 7 9 9 9 9 9 9 9 7 9 9 9 9 7 7 9 9 t L L L L L U U U L L L L U L L 7 3 3 # ; t Z Z Z Z Z ] j.& ",
"O < a Z Z Z Z Z 1.,.O $ & & & & & & & % & & & & & & & & & & & & & & & & % % % & $ $ $ % & & & & % % & & & O ; t Z Z Z Z Z ] j.& ",
"O < a Z Z Z Z Z 1.#.+                                                                                     O ; q Z Z Z Z Z ] j.& ",
"O < a Z Z Z Z Z 1.#.O                                                                                     O ; t Z Z Z Z Z ] j.& ",
"O < a Z Z Z Z Z 1.,.O                                                                                     O : q Z Z Z Z Z ] j.& ",
"O 2 a Z Z Z Z Z 1.,.O                                                                                     O : w Z Z Z Z Z E j.& ",
"O 2 a Z Z Z Z Z 1.,.X                                                                                     O ; w Z Z Z Z Z E j.& ",
"O 2 a Z Z Z Z Z 1.#.O                                                                                     O ; w Z Z Z Z Z E j.& ",
"O < a Z Z Z Z Z 1.#.O                                                                                     O ; t Z Z Z Z Z ] j.& ",
"O < a Z Z Z Z Z 1.#.O # # # @ @ # $ $ # # # # # # # # # # # # # # # & = - - = - = = = = = = = - - = # O O O : t Z Z Z Z Z ] j.& ",
"O < a Z Z Z Z Z 1.,.# , 2 2 2 < 7 q q q q q w t t t t t t t w q t q ] j.j.m.v.j.v.v.m.m.b.j.v.m.m.j.9 < , # : t Z Z Z Z Z ] j.& ",
"O < a Z Z Z Z Z 1.,.# , , < 2 < 2 3 3 3 3 3 3 3 3 3 3 3 3 3 3 3 3 3 3 5 7 5 5 7 7 7 7 5 5 5 7 7 7 7 3 2 , # ; t Z Z Z Z Z ] j.& ",
"O 2 a Z Z Z Z Z 1.,.O O O O O O @ O O O O O O O O O O O O O O O O O O O O O O O O O O O O O O O O O O # @ O ; q Z Z Z Z Z E j.& ",
"O < a Z Z Z Z Z 1.#.X                                                                                     O ; q Z Z Z Z Z E j.& ",
"O < a Z Z Z Z Z 1.#.O                                                                                     O ; q Z Z Z Z Z E j.& ",
"O 2 a Z Z Z Z Z 1.#.O                                                                                     O : w Z Z Z Z Z E j.& ",
"O < a Z Z Z Z Z 1.,.O                                                                                     O ; w Z Z Z Z Z ] j.& ",
"O < a Z Z Z Z Z 1.,.O                                                                                     O ; t Z Z Z Z Z ] j.& ",
"O < a Z Z Z Z Z 1.,.O                                                                                     O ; w Z Z Z Z Z ] j.& ",
"O < a Z Z Z Z Z 1.#.O                                                                                     O ; q Z Z Z Z Z ] j.& ",
"O 2 a Z Z Z Z Z 1.,.@ & * & & & - ; ; ; ; ; ; : : ; ; ; ; ; ; ; ; ; 3 q 8 8 8 8 8 8 8 q 8 8 8 7 7 7 - & & # : q Z Z Z Z Z E j.& ",
"O 2 a Z Z Z Z Z 1.,.# 2 3 3 3 3 7 q q q q q q q q q q q q q q q q q I r.r.r.1.1.r.r.r.r.r.r.1.1.r.1.9 3 3 # ; w Z Z Z Z Z E j.& ",
"O 2 a Z Z Z Z Z 1.,.# = ; ; ; ; - - - - - - - - - - - - - - - - - - - - - - - - - - - - - - - - - - ; ; - O ; w Z Z Z Z Z E j.& ",
"O < a Z Z Z Z Z 1.#.O O O O O O O O O O O O O O O O O O O O O O O O O O O O O O O O O O O O O O O O O O O O ; q Z Z Z Z Z ] j.& ",
"O < a Z Z Z Z Z 1.} X                                                                                     O ; q Z Z Z Z Z ] j.& ",
"O < a Z Z Z Z Z 1.#.O                                                                                     O ; q Z Z Z Z Z ] j.& ",
"O < a Z Z Z Z Z 1.,.O                                                                                     O ; q Z Z Z Z Z ] j.& ",
"O 2 a Z Z Z Z Z 1.,.O                                                                                     O ; w Z Z Z Z Z ] j.& ",
"O 2 a Z Z Z Z Z 1.#.X                                                                                     O ; q Z Z Z Z Z ] j.& ",
"O < a Z Z Z Z Z 1.#.O                                                                                     O ; q Z Z Z Z Z ] j.& ",
"O < a Z Z Z Z Z 1.#.O O O O O O O O O O O O O O O O O O O O O O O O O O O O O O O O O O O O O O O O O O O O : q Z Z Z Z Z ] j.& ",
"O < a Z Z Z Z Z 1.,.# ; : : : ; < 7 7 7 7 7 7 7 7 7 7 7 7 7 7 7 7 7 a ,.1.,.,.,.,.,.,.,.,.,.,.,.1.#.4 ; ; # : w Z Z Z Z Z ] j.& ",
"O < a Z Z Z Z Z 1.,.# , 3 3 3 3 4 7 7 7 7 7 7 7 7 7 7 7 7 7 7 7 7 7 q Z Z Z Z Z L L Z L L Z Z Z L L 7 3 2 # ; w Z Z Z Z Z ] j.& ",
"O < a Z Z Z Z Z 1.,.O $ $ $ % % $ $ $ $ $ $ $ $ $ $ $ $ $ $ % % $ $ $ $ $ $ $ $ $ $ $ $ $ $ $ $ $ $ & & $ O ; q Z Z Z Z Z ] j.& ",
"O < a Z Z Z Z Z 1.#.O                                                                                     O ; q Z Z Z Z Z ] j.& ",
"O 2 a Z Z Z Z Z 1.#.O                                                                                     O ; q Z Z Z Z Z ] j.& ",
"O 2 a Z Z Z Z Z 1.#.O                                                                                     O : w Z Z Z Z Z ] j.& ",
"O 2 a Z Z Z Z Z 1.#.O                                                                                     O ; w Z Z Z Z Z ] j.& ",
"O < a Z Z Z Z Z 1.#.O                                                                                     O ; q Z Z Z Z Z ] j.& ",
"O < a Z Z Z Z Z 1.#.O                                                                                     O ; q Z Z Z Z Z ] j.& ",
"O < a Z Z Z Z Z 1.#.@                                                                                     O ; q Z Z Z Z Z ] j.& ",
"O < a Z Z Z Z Z 1.#.O # # # @ @ # # # # # $ # # # # # # # # # # # # & - - = = = = - - - = = = = - * # @ # O : q Z Z Z Z Z ] j.& ",
"O 2 a Z Z Z Z Z 1.#.# , , , , , 7 t t t t t t t t t t t t t t t t t #.B.B.N.N.N.N.N.N.N.N.N.M.M.N.m.7 , , # : w Z Z Z Z Z ] j.& "
};
