/* XPM */
static char *wall_dark_2[] = {
/* columns rows colors chars-per-pixel */
"64 64 159 2 ",
"   c None",
".  c #010101",
"X  c #070908",
"o  c #0A0C0C",
"O  c #0C100E",
"+  c #0E0F10",
"@  c #0E1010",
"#  c #121414",
"$  c #131817",
"%  c #151718",
"&  c #181719",
"*  c #16191A",
"=  c #1A1D1D",
"-  c #1C1F20",
";  c #201E21",
":  c #1D2222",
">  c #212525",
",  c #252A27",
"<  c #232728",
"1  c #262A2B",
"2  c #292D2E",
"3  c #2B302D",
"4  c #2A2F30",
"5  c #2D3233",
"6  c #313536",
"7  c #333837",
"8  c #323739",
"9  c #363B3C",
"0  c #383D3F",
"q  c #3A3E40",
"w  c #3D4244",
"e  c #404547",
"r  c #434947",
"t  c #414649",
"y  c #43494B",
"u  c #43484B",
"i  c #44484B",
"p  c #44494B",
"a  c #44494C",
"s  c #45494C",
"d  c #454A4C",
"f  c #454A4D",
"g  c #454B4D",
"h  c #464A4D",
"j  c #474A4D",
"k  c #464B4D",
"l  c #464B4E",
"z  c #474B4E",
"x  c #474B4F",
"c  c #464C4E",
"v  c #474C4E",
"b  c #464C4F",
"n  c #474C4F",
"m  c #474D4F",
"M  c #454A4C",
"N  c #4A4D4D",
"B  c #484C4E",
"V  c #484C4F",
"C  c #484D4F",
"Z  c #4A4E4E",
"A  c #4C4F4F",
"S  c #484C4F",
"D  c #484C50",
"F  c #484D50",
"G  c #494D50",
"H  c #484D51",
"J  c #494D51",
"K  c #484E50",
"L  c #494E50",
"P  c #484E51",
"I  c #494E51",
"U  c #494F51",
"Y  c #4A4E51",
"T  c #4A4F51",
"R  c #494E52",
"E  c #494F52",
"W  c #4A4E52",
"Q  c #4A4F52",
"!  c #4B4F52",
"~  c #4A4E53",
"^  c #4A4F53",
"/  c #494E51",
"(  c #4A5052",
")  c #4B5052",
"_  c #4A5053",
"`  c #4B5053",
"'  c #4A5153",
"]  c #4B5153",
"[  c #4C5053",
"{  c #4B5054",
"}  c #4B5154",
"|  c #4C5154",
" . c #4C5155",
".. c #4F5154",
"X. c #4C5254",
"o. c #4D5254",
"O. c #4C5255",
"+. c #4D5255",
"@. c #4D5355",
"#. c #4E5355",
"$. c #4D5356",
"%. c #4E5356",
"&. c #4F5356",
"*. c #4E5357",
"=. c #4E5456",
"-. c #4E5457",
";. c #4F5457",
":. c #4F5557",
">. c #4C5254",
",. c #4F5458",
"<. c #4F5558",
"1. c #4F5558",
"2. c #515354",
"3. c #505558",
"4. c #515558",
"5. c #505559",
"6. c #505659",
"7. c #515659",
"8. c #51575A",
"9. c #52565A",
"0. c #52575A",
"q. c #52575B",
"w. c #53575B",
"e. c #515659",
"r. c #52585B",
"t. c #53585B",
"y. c #53585C",
"u. c #53595C",
"i. c #54595C",
"p. c #55595C",
"a. c #54595D",
"s. c #545A5D",
"d. c #555A5D",
"f. c #555A5E",
"g. c #555B5E",
"h. c #565B5E",
"j. c #565B5F",
"k. c #575B5F",
"l. c #565C5F",
"z. c #575C5F",
"x. c #545A5D",
"c. c #565C60",
"v. c #575C60",
"b. c #575D60",
"n. c #575D61",
"m. c #585C60",
"M. c #585D60",
"N. c #585D61",
"B. c #585E61",
"V. c #595E61",
"C. c #585E62",
"Z. c #595E62",
"A. c #5A5F62",
"S. c #5A5F63",
"D. c #595F62",
"F. c #5A6063",
"G. c #5B6063",
"H. c #5B6064",
"J. c #5D6266",
/* pixels */
". . o % > q w 0 9 9 9 t w 6 6 > = o # > > < w L o.a o.o.o.C.o.9 o.L 5 5 8 w w < 6 o.o.q 9 9 6 6 8 q o.f.o.a 9 a o.o.f.f.e ; o . ",
". # = 4 w 6.f.f.6.o.o.f.C.n.C.L a e a o.,.o.6.f.f.6.C.C.n.f.6.L L o.L a a o.o.a L L L o.o.L L x o.o.o.L L a a a L L L L t & o . ",
". 1 0 5 o.f.f.f.6.f.f.f.,.f.C.C.G.G.f.6.f.f.f.f.6.f.C.G.C.o.o.o.o.o.o.o.o.o.L L o.o.L L L L L L L o.o.L L C L o.o.6.6.L a 0 # . ",
". 1 w w 6.L 6.L 6.n.n.f.o.o.f.f.G.n.C.C.n.f.C.f.o.,.o.f.f.o.o.o.o.o.o.o.o.o.o.o.o.o.L L L L L L L o.L L L C L L 6.f.f.o.o.q . . ",
". = t w 6.L o.o.f.C.C.f.f.f.f.o.,.n.n.C.n.6.o.o.o.6.f.o.o.o.o.o.o.o.o.o.o.o.o.o.o.o.o.L L L L L L L L L C C L L L o.o.o.o.4 . . ",
". - 6 1 a t 0 t o.6.f.n.C.n.6.o.o.6.6.f.f.f.6.o.o.6.6.o.6.o.o.o.o.L o.o.o.o.o.o.o.o.o.L L L L L L L L L C C L L L a L L a = . . ",
". 6 t < a a a a a w 6.f.C.6.L L a L o.o.o.6.,.o.o.,.6.o.6.6.o.o.o.o.o.o.o.o.o.o.o.o.o.L L L L L L L L C C C a L L L L L L = . . ",
". 4 o.C q w e w e w a o.L a w w a L o.o.a a a o.6.f.f.o.,.6.o.o.o.o.o.o.o.o.o.o.o.o.L L L L L L L L L L a a L L o.o.L L o.5 o o ",
". > C w % 4 w e 9 9 8 5 4 9 9 9 a a L L C t a 6.f.C.G.C.f.o.o.o.o.o.o.o.o.o.o.o.o.L L L L L L L L L L L L C L L o.o.L C a t O . ",
". > 2.C 5 w t w 1 8 9 5 < 9 8 5 0 a a a a L o.6.6.C.G.C.f.o.L L L L L L L L L L L L L L L L L L L L L L L o.o.o.L L C a a a # . ",
". > C a q t a 8 < 5 5 1 < 5 < < < 5 9 w w a L o.o.6.f.o.o.o.L L L L L L L L L L o.o.L L L L L L L L L C a L o.L L L a a a L : o ",
". = w e t w q < : 4 9 9 8 9 0 < < 5 9 w a a C L o.o.o.L L L o.L L L L L L L L L o.o.L L L L L L L L L a w a o.a a a w a o.o.e = ",
". # 9 w a w 5 : > < 8 9 w t w 0 5 5 w a a a C L L o.o.C L L L L L L L L L L L L o.L L L L o.o.o.L L L a w 9 w t a a a a a a C > ",
". o 3 0 q 5 : < < 4 5 9 5 w t e w w a a a a C C C L L o.o.o.L L L L o.L L L L L a C L L o.o.o.L L a a a w t t t a L a L t a a 7 ",
". o 6 5 4 > < 9 6 < 8 q q t a a a a a a a a a a a a L o.6.o.L L o.f.f.o.L o.L L a a L o.6.6.6.o.o.a a L C 9 0 L o.L a a w w a e ",
". # 9 0 5 6 9 e w 6 9 5 q a a a a a a a a a a a a a a o.6.o.o.f.f.f.f.f.f.6.o.o.C C C L o.f.C.C.f.6.o.L a w w a a w w t 9 0 C r ",
". X < 9 0 9 w w w q 9 5 w a a a a a a a a a a a a C C C o.o.o.6.6.o.o.f.f.6.o.o.L C a t C o.f.f.6.o.o.o.o.o.o.a a a t q w w w 6 ",
". X - 8 0 w L w w e w w t a a a a a a a a a a a a a a a a C o.2.o.o.6.6.o.o.o.o.L C t t a o.o.o.o.o.6.6.o.t q t 6.a a w a t 0 = ",
". . = 5 8 6 5 0 w e w q w t t a a a a a a a a a a a a a a C L o.L o.o.o.o.6.o.a o.o.a a L a o.o.6.6.6.f.6.a 5 6 t t L C a w q # ",
". . 4 9 8 9 5 9 w w 9 9 q w t t a a a a a a a a a a a a C L a w w a a a L L L o.6.L L L a a L o.o.6.6.6.o.L t w t a t a w 5 w < ",
". - 9 q w w w q q 9 9 0 w w w t a a a a a a a a a a a a a C L w 9 a e w w L a L a w t a w L a o.o.o.o.o.L C a w e w w e 0 q e 8 ",
". > 0 9 q 0 q w w w w q w 9 w t a a a a a a a a a a a a L L L t 9 0 w t w t w w 9 1 w e a L o.o.o.o.o.L a a a e a 9 w t a L o.9 ",
". > w 0 q w w w w e w w w q w t a a a a a a a a a a a L o.L a a a a a a L a a a 0 % 9 L L L C o.o.o.o.o.L C a a w 9 a L L L 9 : ",
". < 9 w w e t e w t t w w w t a a a a a a a a a a a a a L L a a w w w a L a a q : X < w w w a a a o.o.o.o.L a a a C o.o.o.o.- . ",
". > 5 w e w w e t w t t t t a a a a a a a a C L a w q a L L a C t w 0 w a w 5 > < = : 1 w q w w t a 6.2.o.o.L a a L 6.o.o.C # . ",
"o 5 q q w t q q w w w t t t a a a a a a a a a a a t t a o.C a a a a t q e 1 5 < < 9 9 5 w w 0 t a o.6.o.L L a a o.6.f.a a w % . ",
". % 5 e t t q w w w t t t a a a a a a a a a a a a a a a a t 0 < 1 8 8 9 w 1 1 : > w a 9 0 q 6 0 a o.o.o.o.L a C w f.6.9 a q > . ",
". # 6 w w e w w e t t t e t t t t a a a a a a a a a a a a w 0 5 : < w 9 < 8 5 > > 1 < < 5 8 8 w a a a o.o.o.o.t 5 1 1 1 w e # . ",
". @ 5 1 9 w w w w e e e e w e e w t t t t a a a a a a a e t w 5 : : > < % 5 5 5 9 5 % 1 6 8 9 a a L a o.o.o.o.w 5 1 < 4 q t = . ",
". o 6 9 w w w w e e e e w w e w w w w w e t t a a a a t w t w < = % > : = > 1 5 9 5 > 5 9 0 w q L o.o.o.L o.o.o.a e w a a C 6 . ",
". o 5 w w w w w w w w w w w w w w w w w w w t t w a w 0 w w w 9 5 : % % < 6 5 < 5 t 0 4 : 9 q q t L o.o.a o.o.6.o.o.o.o.C a 5 . ",
". = 8 w w w w w w w w w w w w w w w w w w w t w 0 0 8 5 w e w q w 9 5 6 6 < = 5 q t w 5 < w a a w L o.o.L o.L L L L o.o.L a 5 . ",
". < w w w w w w w w w w w w w w w w q w w w e w 9 5 w w 9 9 9 9 w w w w 0 < > 6 w a t q t a a o.a a a L o.a a a a o.6.o.L a > X ",
". < w w w w w w w w w w w w w w q 9 9 w w w w q 9 6 q w 4 8 5 8 9 e w w w w 8 w t a t w t a a a a a L L o.a t t t a L o.o.L 9 # ",
". > w q w w w w w w w w w w w w q 9 0 w w w 9 9 q w q 0 q e e 9 9 e a t w t t a a a a a t 5 % 9 o.o.o.a a t w w w t t a C o.q o ",
". > q w w w w w w w w w w w w w w q 9 9 w 9 6 8 q w q 5 9 t w 0 w w w 9 w a L o.L w w a a w < 1 a a t e t t e e w t t a o.o.< . ",
". = q w w w w w w w w 0 q q w w w w w w q 9 0 q 5 8 9 q w w 9 9 w w 9 w a a a o.o.t t a a a a a a e e w t t w t a t t L o.w : # ",
". : q q q q w w w w w 0 q q w 9 9 w w w w q q w 9 1 9 w w 6 : 5 q w w w w t a o.L t a o.L a L a e w w t a a e t a a t L a q 5 1 ",
". + 9 0 9 9 w w w w q q w w q 6 > 5 9 w w t w w e w w e w 5 > = q w 9 9 q q w L a L 6.6.o.6.6.o.w w w w t a t w t a t a a 9 < % ",
". o 9 9 9 9 q q q q q 0 0 0 9 5 1 < < 5 9 w w w e a e w t 8 < : 9 q 9 9 9 q w w t a o.6.6.6.L a e w w w w t w w w t a a e 1 % o ",
". - 0 9 9 9 0 9 9 q q 9 9 q 0 9 q 1 < 8 6 9 w w w w w w q 8 9 9 9 9 w w w e w w t L o.L a a w t a w w w w w w w q q q w w e w # ",
". % 9 9 9 9 9 9 9 9 9 9 9 q 9 0 0 9 8 9 9 0 q q w q q q q q w 9 w w w e w w a t w a a a a a a a a w w q w w t w q 0 9 0 w e 0 # ",
". o 5 9 9 9 9 9 9 9 9 9 9 0 0 q 9 q q 5 9 0 0 q q q q q q q q q w w w w w w L a e a L a o.o.a t a e q q q w e w 0 0 0 0 0 q 9 1 ",
". . 1 9 9 9 9 9 9 9 9 9 9 9 0 0 8 5 6 6 9 0 9 9 9 9 0 q q q q q w w t t w w w w w t a t a a a a a w q q q q q 0 9 9 0 0 0 q 9 > ",
". # 8 8 9 9 9 9 9 9 9 9 9 9 0 9 1 = 5 9 9 9 6 9 q 0 0 q q q q q w w t a e e w w w w q q e e w a w q q q q 0 0 0 9 9 9 9 9 0 9 : ",
". % 9 9 6 6 9 9 9 9 9 9 9 9 0 9 - # - 5 6 8 8 9 9 9 0 q q q q w w w w w w t w w w q q q e a w e w w w q 9 9 9 9 5 9 9 9 9 9 9 % ",
". = 5 8 1 < 8 9 9 9 9 9 6 6 0 8 5 5 < < : < 1 8 9 0 q q q q q w w w w e w w q q w q w q q w w q w w t w 9 8 6 5 1 1 1 6 9 9 - . ",
"o < 5 8 5 5 9 9 9 9 9 9 8 4 < < = 5 1 = o o 4 9 0 0 0 q q q q q q w t w q q q q 0 q q q q w w q w w a w 9 9 5 5 > - > 5 4 < o . ",
"o > < 9 8 5 5 5 9 9 8 5 8 5 5 < > 6 < : 5 : 5 8 9 0 q q q q q q q w w q 9 9 q q 0 0 q q w w w e w 9 q q 9 8 5 4 5 > 1 9 1 % % . ",
"% 9 6 9 5 5 4 6 9 9 8 6 8 9 9 9 9 9 5 < 1 5 9 6 9 0 q q q 0 0 0 0 9 0 0 9 9 0 q 0 9 0 q q 0 q w 0 9 9 9 9 9 8 8 5 > 1 9 < = o . ",
"o 5 5 5 8 8 5 5 5 5 6 8 9 9 9 9 9 9 8 5 5 6 9 9 9 9 q 0 0 9 9 0 9 9 9 9 9 9 0 0 9 9 9 0 0 9 9 9 9 9 9 9 9 8 8 5 1 < 5 5 : % . . ",
". < < < 6 5 8 5 5 1 < 5 6 9 9 9 9 9 9 9 9 9 9 9 9 9 9 9 9 9 9 9 9 9 9 9 9 9 9 9 9 9 9 9 9 9 9 9 9 9 0 6 < 6 6 6 5 5 5 < < % . . ",
". # < 4 4 : 1 5 5 < 4 5 8 8 8 9 9 9 9 9 9 9 9 9 9 9 9 9 0 0 9 9 9 9 9 9 9 9 q 0 9 9 9 9 9 9 0 9 9 9 > # # 1 9 8 6 6 6 5 4 < . . ",
". # 4 < < - : 5 5 4 1 < 5 8 8 9 0 9 9 9 9 9 9 9 9 q 0 9 9 0 9 9 9 9 9 9 9 9 9 9 9 9 9 9 9 9 9 9 9 < # # o = 7 6 6 5 5 5 5 = . . ",
". = 1 < < < < 4 5 5 5 8 8 9 9 8 9 9 9 9 9 9 9 9 9 0 0 9 9 9 9 9 0 0 9 9 9 9 9 9 q 0 9 9 9 9 9 9 < . o = # O : 5 5 5 4 1 < % . . ",
". = 1 4 4 5 1 1 4 6 9 9 9 9 8 5 9 9 9 9 9 9 9 9 9 9 9 9 0 9 9 9 0 0 9 9 9 9 9 9 w q 9 9 9 9 9 7 - X 5 0 6 # # < 4 4 1 4 < < o . ",
". = 6 5 5 1 5 5 5 9 9 9 8 9 9 9 9 9 9 9 9 9 9 9 9 9 9 9 9 9 9 9 0 9 9 9 9 9 9 0 q 9 9 9 9 9 7 6 3 6 w 5 - # o : < 4 < < 1 < X . ",
". o 1 6 5 5 6 6 6 9 8 6 6 8 8 9 9 9 9 9 9 9 9 9 9 9 9 9 9 9 9 9 0 0 9 9 9 9 9 9 9 9 9 7 7 7 7 6 3 = . . . . . % < 5 1 < 1 - . . ",
". . 1 6 5 5 6 6 6 8 8 8 8 9 9 9 9 9 9 9 9 9 9 9 9 9 9 9 9 9 9 9 9 9 9 9 8 8 9 9 8 8 6 5 5 5 6 6 3 # . . . . o > 1 1 4 < + . . . ",
". . < 6 6 6 6 6 6 6 8 9 9 9 9 8 9 9 8 9 9 8 9 9 9 9 9 9 9 9 9 9 9 9 9 6 8 8 8 6 6 6 3 3 3 3 3 3 1 > % # # o % > < 4 < o . . . . ",
"o = 4 5 5 5 6 6 6 6 8 9 9 9 8 8 8 8 6 8 8 6 8 6 9 9 9 9 9 9 9 9 9 9 6 5 8 9 8 6 6 6 5 1 , > 1 3 3 < < > : : > < < 1 1 = . . . . ",
"# < 5 < 5 8 8 8 8 8 6 6 8 9 8 6 6 6 6 8 8 8 8 6 9 9 9 9 9 9 9 9 5 8 8 8 9 9 8 8 9 6 7 > o o % 1 5 1 1 < < < 1 5 1 4 < # . . . . ",
". : < 4 4 5 5 5 6 8 6 6 6 6 8 6 5 6 6 5 5 5 4 1 5 5 1 1 5 5 5 < 8 8 6 5 5 8 8 1 : = = o . . # : > : : : : < 4 4 < # = o . . . . ",
"  o o # # + # # < 9 5 9 9 5 1 6 8 4 5 < # # + o @ o X . @ # = = 9 1 < 5 : 4 > o . . . . . . . o . . . o o # # # # . . . . . . . "
};
