/* XPM */
static char *wall[] = {
/* columns rows colors chars-per-pixel */
"64 64 143 2 ",
"   c None",
".  c #000000",
"X  c #04050B",
"o  c #07080E",
"O  c #09090E",
"+  c #020612",
"@  c #050912",
"#  c #0B0C13",
"$  c #0A0C18",
"%  c #0F1119",
"&  c #12141D",
"*  c #141621",
"=  c #151823",
"-  c #191B25",
";  c #1D1F2A",
":  c #201F28",
">  c #1F212C",
",  c #21232E",
"<  c #242631",
"1  c #272835",
"2  c #292A36",
"3  c #2C2E3B",
"4  c #2F303B",
"5  c #32333E",
"6  c #363745",
"7  c #363744",
"8  c #353644",
"9  c #333542",
"0  c #363845",
"q  c #373845",
"w  c #363845",
"e  c #383844",
"r  c #383845",
"t  c #393945",
"y  c #393946",
"u  c #393A46",
"i  c #3A3A46",
"p  c #3A3B47",
"a  c #393A46",
"s  c #373848",
"d  c #3C3C48",
"f  c #3D3D4B",
"g  c #3E3E4A",
"h  c #3E3E4B",
"j  c #3E3F4B",
"k  c #3B3D4C",
"l  c #3C3D4C",
"z  c #3D3D4C",
"x  c #3D3E4C",
"c  c #3D3F4D",
"v  c #3E3F4C",
"b  c #3E3E4D",
"n  c #3E3F4D",
"m  c #3F3F4D",
"M  c #3C3F4F",
"N  c #3D3F4F",
"B  c #3E3F4E",
"V  c #3D3E4C",
"C  c #3D3F50",
"Z  c #3E3F50",
"A  c #403F4E",
"S  c #3E404F",
"D  c #3F404F",
"F  c #3F404E",
"G  c #3D4050",
"H  c #3E4050",
"J  c #3F4050",
"K  c #3F4150",
"L  c #3E4051",
"P  c #3F4051",
"I  c #3F4151",
"U  c #3F4152",
"Y  c #40404C",
"T  c #40404D",
"R  c #41404D",
"E  c #41414D",
"W  c #40414F",
"Q  c #40404D",
"!  c #404150",
"~  c #404151",
"^  c #414250",
"/  c #414251",
"(  c #424351",
")  c #404152",
"_  c #404253",
"`  c #424352",
"'  c #454551",
"]  c #454552",
"[  c #464552",
"{  c #464652",
"}  c #404254",
"|  c #404354",
" . c #414354",
".. c #424354",
"X. c #464656",
"o. c #424352",
"O. c #494856",
"+. c #4B4B5A",
"@. c #4C4B59",
"#. c #4E4E5B",
"$. c #4F4E5C",
"%. c #4E4E5C",
"&. c #545360",
"*. c #545361",
"=. c #545461",
"-. c #555461",
";. c #555462",
":. c #545463",
">. c #555563",
",. c #565563",
"<. c #565564",
"1. c #565664",
"2. c #575664",
"3. c #575764",
"4. c #565665",
"5. c #575665",
"6. c #575765",
"7. c #575766",
"8. c #575767",
"9. c #555463",
"0. c #585765",
"q. c #585765",
"w. c #575867",
"e. c #585866",
"r. c #595866",
"t. c #595966",
"y. c #585867",
"u. c #595867",
"i. c #595967",
"p. c #5A5967",
"a. c #5A5A67",
"s. c #595967",
"d. c #585868",
"f. c #595868",
"g. c #595968",
"h. c #5B5969",
"j. c #5A5A68",
"k. c #5B5A68",
"l. c #5A5A69",
"z. c #5B5B6A",
"x. c #5B5B6B",
"c. c #5C5B6A",
"v. c #5A5A69",
/* pixels */
"  . . . X X . . . . . . . . . . . . . . . . . . . . . . . . . . . . . . . . . . . . . . . . . . . . . . . . . . . . X X . . .   ",
". & 2 9 2 3 9 9 9 9 9 9 9 9 9 9 9 9 9 9 9 9 9 9 9 9 9 9 9 9 9 9 9 9 9 9 9 9 9 9 9 9 9 9 9 9 9 9 9 9 9 9 9 9 9 9 9 9 3 3 9 3 & . ",
". t c.y.d +.c.y.c.c.c.c.y.y.y.y.y.y.c.c.y.w.y.y.y.y.y.c.c.c.c.c.c.y.y.c.y.y.y.w.y.w.y.y.y.y.>.>.y.y.y.y.c.y.y.y.w.c.) ) c.c.9 . ",
". d >.d D I ) I I ) I I I I I I I I I I I I I I I I I I I I I I I I I I I I I I I I I I I I I I I I I I I I I I I I D D d >.t . ",
". d >.d I I I C C I I C d C I C C C I I C C C C C C C C C C d C C C C C C C C C C d d C C C C d d C d C C C C d C I I I d >.t . ",
". d >.I ) ) ) ) ) ) ) ) ) ) ) ) ) ) ) ) ) ) ) ) ) I ) ) ) ) I I ) ) ) ) ) ) ) ) ) ) ) ) ) ) ) ) ) ) ) ) ) ) ) ) ) ) ) ) I y.t . ",
". 3 d 9 9 9 9 9 9 9 9 9 9 9 9 9 9 9 9 9 9 9 9 9 9 9 9 9 9 9 9 9 9 9 9 9 9 9 9 9 9 9 9 9 9 9 9 9 9 9 9 9 9 9 9 9 9 9 9 9 9 d 2 . ",
". = ; , , , , , , , , > , , , , , , > , > > , , , > > , , > , , , > > > > > > , , , > , , , , , , , , , , , , > > , , , > ; & . ",
". . X # # # O O O O O O O O O O O O O O O O O O O O O O O O O O O O O O O O O O O O O O O O O O O O O O O O O O O O # # # X . . ",
". ; 5 2 2 2 , X .       . # # # .         . # # # .       . X # # X .       . # # # .         . # # # .       . o , 2 2 2 5 ; . ",
". d >.d ) ) 9 & .       . , 2 % .         . ; 3 & .         # 2 , X         . = 3 ; .         . = 3 ; .       . & 9 ) ) d y.t . ",
". d >.d W ) 9 % .       . , 3 # .         . ; 5 & .         X 3 < .         . & 5 ; .         . & 4 ; .       . & 9 ) W d 0.t . ",
". d >.d ) ) q & .       . t +.& .         . 3 +.> .         X O.d .         . , +.2 .         . > +.2 .       . & 9 ) W d y.t . ",
". d >.d ) ) q & .       . W 0.= .         . 9 c., .         X >.) .         . < c.3 .         . , c.5 .       . & 9 ) ) d y.t . ",
". d 0.d ) ) q % .       . W >.& .         . 9 y., .         + >.) .         . < y.3 .         . , y.5 .       . & 9 ) ) d y.t . ",
". d >.d ) ) q % .       . W >.= .         . 9 y., .         + >.) .         . < y.4 .         . , y.5 .       . & 9 ) ) D y.t . ",
". d >.d ) ) q % .       . W >.= .         . 9 y., .         + >.) .         . < y.4 .         . , y.5 .       . & q ) ) D y.t . ",
". D >.d ) ) q % .       . W >.= .         . 9 y., .         + >.) .         . < y.4 .         . < y.5 .       . & 9 ) ) d y.t . ",
". d >.d ) ) 9 % .       . W >.= .         . 9 y., .         + >.) .         . < y.4 .         . < y.5 .       . & 9 ) W d y.t . ",
". d >.d ) ) q % .       . W >.= .         . 9 y., .         + >.) .         . < y.4 .         . < y.5 .       . & q ) ) d y.t . ",
". d y.D ) ) q % .       . W 0.= .         . 9 y., .         + >.) .         . < y.4 .         . < y.5 .       . & 9 ) ) d y.t . ",
". D >.d ) ) q % .       . W >.= .         . 9 y., .         + >.) .         . < y.4 .         . < y.5 .       . & q ) ) d y.t . ",
". D >.d ) ) q % .       . W >.= .         . 9 y., .         + >.) .         . < y.4 .         . < y.5 .       . & 9 ) ) d y.t . ",
". D >.d ) ) q % .       . W >.= .         . 9 y., .         + >.) .         . < y.4 .         . < y.5 .       . & 9 ) ) d y.t . ",
". d >.d ) ) 9 % .       . W >.= .         . 9 y., .         @ >.) .         . < y.4 .         . < y.5 .       . & 9 ) ) D y.t . ",
". d >.d ) ) 9 % .       . W >.= .         . 9 y., .         + >.) .         . < y.4 .         . < y.5 .       . & 9 ) W D y.t . ",
". D y.d ) ) 9 & .       . W >.= .         . 9 y., .         @ >.) X         . < y.4 .         . < y.5 .       . & 9 ) W D y.t . ",
". D w.d ) ) q & .       . W >.= .         . 9 y., .         + >.) X         . < y.4 .         . < y.5 .       . & 9 ) W d y.t . ",
". d >.d ) ) q % .       . W >.= .         . 9 y., .         + >.) .         . < y.4 .         . < y.5 .       . & q ) ) d y.t . ",
". D >.d ) ) q % .       . W >.= .         . 9 y., .         + >.) .         . < y.4 .         . < y.5 .       . & q ) ) d y.t . ",
". D w.d ) ) 9 % .       . W >.= .         . 5 y., .         + >.) .         . < y.4 .         . < y.5 .       . & q ) W d y.t . ",
". D w.d ) ) q % .       . W >.= .         . 5 y., .         + >.) .         . < y.4 .         . < y.5 .       . & 9 ) W d y.t . ",
". D >.d ) ) q % .       . W >.= .         . 9 y., .         + >.) .         . < c.4 .         . < y.5 .       . & 9 ) ) d y.t . ",
". D >.d ) ) q % .       . W >.= .         . 9 y.< .         + >.) .         . < y.4 .         . < y.5 .       . & 9 ) ) d y.t . ",
". d >.d ) ) q % .       . W >.= .         . 9 y., .         + >.) .         . < y.4 .         . , y.5 .       . & 9 ) ) d y.t . ",
". d >.d ) ) 9 % .       . W >.= .         . 9 y.< .         + >.) .         . < c.4 .         . < y.5 .       . & 9 ) ) d y.t . ",
". d >.d ) ) q % .       . W >.= .         . 9 y., .         + >.) .         . < c.4 .         . < y.5 .       . & q ) ) d y.t . ",
". D >.d ) ) q & .       . W >.= .         . 5 y., .         + >.) .         . < y.5 .         . < y.5 .       . & q ) ) d y.t . ",
". D 0.d ) ) q % .       . W >.= .         . 5 y., .         + >.) .         . < y.5 .         . < y.5 .       . & q ) ) d y.t . ",
". D y.D ) ) q % .       . W >.= .         . 5 y., .         + >.) .         . < y.4 .         . < y.5 .       . & 9 ) ) D y.t . ",
". D >.d ) ) q % .       . W >.= .         . 5 y., .         + >.) .         . < y.5 .         . , y.5 .       . & q ) ) d y.t . ",
". D >.d ) ) q % .       . W >.= .         . 5 y., .         + >.) .         . < y.4 .         . < y.5 .       . & q ) ) d y.t . ",
". D >.d ) ) q % .       . W >.= .         . 5 y., .         + >.) .         . < c.5 .         . < y.5 .       . & 9 ) ) d y.t . ",
". D >.d ) ) q % .       . W 0.= .         . 5 y., .         + >.) .         . < c.5 .         . < y.5 .       . & q ) ) d y.t . ",
". d >.d ) ) q % .       . W 0.= .         . 5 y., .         + >.) .         . < c.5 .         . < c.5 .       . & 9 ) ) d y.t . ",
". D >.d ) ) q % .       . W 0.= .         . 5 y., .         + >.) .         . < y.4 .         . < c.5 .       . & q ) ) d y.t . ",
". d >.d ) ) q % .       . d >.= .         . 5 y., .         + >.O..         . < y.4 .         . < y.5 .       . & 9 ) ) d y.t . ",
". d >.d ) ) q % .       . D >.= .         . 5 y., .         + >.O..         . < y.4 .         . < y.5 .       . & 9 ) ) d y.t . ",
". D >.d ) ) 9 % .       . D >.= .         . 5 y.< .         + >.O..         . < y.4 .         . < y.5 .       . & 9 ) ) d y.t . ",
". d >.d ) ) 9 % .       . D 0.= .         . 5 0., .         + >.) .         . < y.4 .         . < y.5 .       . & 9 ) ) d y.t . ",
". D w.d ) ) q % .       . d >.= .         . 4 0., .         + >.) .         . < y.4 .         . < y.5 .       . & 9 ) ) d y.t . ",
". D w.d ) ) q % .       . W y.= .         . 4 c., .       . X >.) . .       . < c.5 .         . < c.5 .       . & 9 ) W d y.t . ",
". d >.d W ) 9 # . O # O . 9 ) ; . O O O O . 1 ) > . O O # . # W t @ . # O # . > ) 2 . X # O # . > ) 3 . O O O . & 9 ) W d >.t . ",
". d y.d ) ) q # # < < , X 3 s ; # < < < < O < 9 > O < < < ; # 9 9 # = < < < O ; s 1 . , < < < # ; d 1 . ; < < # & q ) ) D c.t . ",
". q +.t d d 5 X O 3 9 3 . ; < X & 9 9 9 5 X & < # % 9 9 9 , . < > . , 9 9 9 # # < & X 3 9 9 9 & @ < & . 3 9 3 O o 5 d d t +.5 . ",
". . . # & & $ # = 9 W d < , : , 3 A W W d 2 , , , 3 W D ) 9 , : , , 9 ) W W 3 , , , 2 d W D ) 3 ; : , < d ) 9 ; # # & & $ X . . ",
". , d ) 9 d ) ) ) +.+.+.+.+.+.+.+.+.+.+.+.+.+.+.+.+.+.+.+.+.+.+.+.+.+.+.+.+.+.+.+.+.+.+.+.+.+.+.+.+.+.+.+.+.+.) ) ) q 9 ) d ; . ",
". d c.>.D +.>.>.>.>.>.>.>.>.>.>.>.>.>.>.>.>.>.>.>.>.>.>.>.>.>.>.>.>.>.>.>.>.>.>.>.>.>.>.>.>.>.>.>.>.>.>.>.>.>.>.>.>.) ) >.c.q . ",
". d >.d D d d d d d d d d d d d d d d d d d d d d d d d d d d d d d d d d d d d d d d d d d d d d d d d d d d d d d d D d >.9 . ",
". d >.d I I I I I ) I I I I I I I I I I I I I I I I I I I I I I I I I I I I I I I I I I I I I I I I I I I I I I ) ) I ) d >.q . ",
". d >.d ) ) ) I ) ) ) ) I ) I I I I ) ) I I I ) ) I ) ) ) I I I I I I I I I I I I I I I I I I I I I I I I ) I I I ) ) ) D >.9 . ",
". , 5 3 3 3 3 3 3 3 3 3 3 3 3 3 3 3 3 3 3 3 3 3 3 3 3 3 3 3 3 3 3 3 3 3 3 3 3 3 3 3 3 3 3 3 3 3 3 3 3 3 3 3 3 3 3 3 3 3 3 5 ; . ",
". # = ; ; ; ; ; ; ; ; ; ; ; ; ; ; ; ; ; ; = ; ; ; ; ; ; ; ; ; ; ; ; ; ; ; ; ; ; ; ; ; ; ; ; ; ; ; ; ; ; ; ; ; ; ; ; ; ; = = # . ",
". . . . . . . . . . . . . . . . . . . . . . . . . . . . . . . . . . . . . . . . . . . . . . . . . . . . . . . . . . . . . . . . "
};
