/* XPM */
static char *wall_dark[] = {
/* columns rows colors chars-per-pixel */
"64 64 165 2 ",
"   c None",
".  c #040505",
"X  c #070807",
"o  c #070808",
"O  c #0B0C0C",
"+  c #0E100F",
"@  c #10110F",
"#  c #0F1110",
"$  c #131413",
"%  c #161817",
"&  c #171918",
"*  c #1B1D1C",
"=  c #1E201F",
"-  c #20211F",
";  c #1F2120",
":  c #232423",
">  c #262926",
",  c #292927",
"<  c #262928",
"1  c #2B2C2B",
"2  c #2E312E",
"3  c #31312E",
"4  c #2E3130",
"5  c #333534",
"6  c #363936",
"7  c #383937",
"8  c #373A39",
"9  c #3C3E3C",
"0  c #3E423E",
"q  c #41403E",
"w  c #3E4241",
"e  c #424544",
"r  c #454946",
"t  c #494C47",
"y  c #464A49",
"u  c #4A4D4C",
"i  c #4C514E",
"p  c #4E5351",
"a  c #525654",
"s  c #545956",
"d  c #585D56",
"f  c #565B59",
"g  c #5A5E5C",
"h  c #5B605E",
"j  c #5D6361",
"k  c #616664",
"l  c #646966",
"z  c #696A64",
"x  c #666C6A",
"c  c #686E6C",
"v  c #6A716E",
"b  c #71736D",
"n  c #6E6E70",
"m  c #6E7371",
"M  c #717674",
"N  c #737976",
"B  c #787A74",
"V  c #747B78",
"C  c #747C78",
"Z  c #747C79",
"A  c #757C79",
"S  c #757C7A",
"D  c #757D7A",
"F  c #767C7A",
"G  c #767D7A",
"H  c #767D7B",
"J  c #777D7B",
"K  c #767E7B",
"L  c #777E7B",
"P  c #777E7C",
"I  c #777F7C",
"U  c #747A79",
"Y  c #7B7C79",
"T  c #787D7B",
"R  c #787E7B",
"E  c #787F7B",
"W  c #787E7C",
"Q  c #787F7C",
"!  c #797E7D",
"~  c #787F7D",
"^  c #797F7D",
"/  c #797F7C",
"(  c #78807D",
")  c #79807D",
"_  c #7A807D",
"`  c #79817E",
"'  c #7A817E",
"]  c #7B817E",
"[  c #7A817F",
"{  c #7A807E",
"}  c #7B827F",
"|  c #7C817E",
" . c #7A807E",
".. c #7B8280",
"X. c #7B8380",
"o. c #7B8281",
"O. c #7C8380",
"+. c #7D8380",
"@. c #7C8281",
"#. c #7C8381",
"$. c #7C8280",
"%. c #7D8481",
"&. c #7D8581",
"*. c #7E8481",
"=. c #7D8482",
"-. c #7D8582",
";. c #7E8582",
":. c #7F8583",
">. c #7F8582",
",. c #7E8683",
"<. c #7F8683",
"1. c #7F8783",
"2. c #7F8684",
"3. c #7F8784",
"4. c #7D8481",
"5. c #808684",
"6. c #808784",
"7. c #808785",
"8. c #818785",
"9. c #808784",
"0. c #808885",
"q. c #818885",
"w. c #828885",
"e. c #818886",
"r. c #818986",
"t. c #838886",
"y. c #828986",
"u. c #828A87",
"i. c #838A87",
"p. c #828A86",
"a. c #858B87",
"s. c #848A87",
"d. c #828986",
"f. c #838A88",
"g. c #828B88",
"h. c #838B88",
"j. c #848B89",
"k. c #848B88",
"l. c #848C88",
"z. c #848C89",
"x. c #858C89",
"c. c #858C8A",
"v. c #848D8A",
"b. c #858D8A",
"n. c #868D8A",
"m. c #868D8A",
"M. c #878E8A",
"N. c #868E8B",
"B. c #878E8B",
"V. c #878F8B",
"C. c #878F8C",
"Z. c #848C89",
"A. c #888F8C",
"S. c #888F8D",
"D. c #888F8C",
"F. c #88908D",
"G. c #89908D",
"H. c #89908E",
"J. c #89918E",
"K. c #8A918E",
"L. c #8A918F",
"P. c #8B928F",
"I. c #89908E",
"U. c #8E9693",
"Y. c #8E9693",
/* pixels */
": , 7 e i v v k f h x M m g g r 8 1 5 9 e a x V V V T V T h.{ k #.V h j k M M a j V T x k x j f p l { h.V m k m { T 5.t.c i 9 1 ",
"- 9 u g c #.t.t.#.T V 5.h.h.h.V N m V #.#.{ #.t.t.#.F.h.h.t.#.V N V N m m V V M N N N V V N N M V { V M N m m M M N N N m u 9 : ",
"* d z h T t.h.#.#.5.t.h.#.t.h.F.U.F.h.#.#.#.h.t.#.t.h.F.h.V V V V V V V V V N N V V N N M M N V V V V V N M M V T { #.N M k q : ",
"@ u z c #.V #.N #.h.h.t.{ { t.h.F.h.F.A.h.t.h.t.V { { #.t.V V V V V V V V V V V V V V M M N N N V V V N M M M V { #.t.{ V x 1 $ ",
"@ 9 M c #.N V { 5.F.h.#.h.t.#.T { h.h.A.h.#.{ V V #.t.T V V V V V V V V V V V V V V V V V V N N V V N M M M M N N V { V N f : $ ",
"* e g s m v k m { #.h.h.h.h.{ V V #.#.t.h.t.#.V V #.#.{ #.{ V V V N V V V V V V V V V V V V V V V V N M M M M N V M N N M r * @ ",
"* g n a M M M m M l #.t.F.{ N N m V V V V #.{ { V { #.{ { { T V V V V V V V V V V V V N V V N N V V M M M M M V N V N N M y - * ",
"O a T M l c c x v c M T V m x x m M V V M m m T #.t.#.{ { #.T V V V V V V V V V V V V M M V V V V V M N M M M M N V N N V g 9 3 ",
"X e B c y f x c j j h g s j h h m M N N M c m #.t.F.F.F.h.{ V V V V V V V V V V V V N M M V V V V M M M M M N N V V N M m v 7 - ",
"$ u T M f x v x s g h f a j h f k m m M M N V { #.h.U.F.#.V V V N V V V V V V V V V N M V V V V V M M M M N V V V V M v M m 0 $ ",
"@ t M m k c m h p f f a p f p p a f h x x m M V { #.t.{ V V V V V N V V N V V V V V N N V V V V N N M M m N V N N M m m M N i 5 ",
"X 9 z c c x k a u f j j g j k a p f k l v m M M V V V N M N V V V V V V N N V N V T N M M V V V V N M M x v V M M m x m V { b t ",
"X 2 h x m x f u p a h j x c x k g f l v M m M M N V V M M N M N V V V V V V N N V N M N N V T V M N M m l j x v m m m m v m N i ",
"O = s k k f i a p s f j g x v x x x v m m m M M M M N V V V V M V V V N V V N N m M M V T V V V N m M m x c c v m N m M v v v h ",
"+ 2 g f s p a j g p h k k c v v v v m m m m m M m M M T { V N N T 5.t.V V V N N M M M V #.#.#.{ V m m N M j k N V N m m x l b v ",
"$ 9 j k f g j c x g j f l m m m m m m m m m m m m m m V #.V { t.5.h.t.t.h.#.V V M M M N { t.A.F.5.{ V N M x x M M x x c h k N v ",
"& 5 a j k j l x x k h f l v v m m m m m m m m m m M M M V V V #.#.V V #.t.#.T T N M v v M { 5.t.{ T { { V V V M v v v l x x l h ",
"O 4 u h k x V c x c l x v v v m v v m m m m m m m m M m m M N { { T { { V T T T N M c v m V V V V V #.#.V c l m #.M m c m v k 9 ",
"O $ e f g g g k x x x k x x v v m m m m m m m m m m m m m M N V N V T { T { { M { V M M M m V V { #.{ 5.#.m g h v v M M m c l 8 ",
"$ : a h g h g j x l j h k x v c v v v v v m m m m m m m M N m x c v m M N V N V { N N N m m N V V { #.#.{ N c l v v v m l f x p ",
"$ e j k l l l k k k j k x l x c v v v v v m m m m m m m m M N x k v c x x N m N m x c v x N m V V T T T V M v l c x l c k l c j ",
"O e k h k j k l x x l k l j x v v m v m m m m m m m m M M N N v j k l v x c x x j s x c m N V V V V V N m M m c M k l v m V V l ",
"O e x k k x x x x x x l l l x c v v v v v m m m m m m N V N M m v v v m N M m m k y k N N N M V V V V V N M m M x k v V V V k 9 ",
"% i j l x x x x x v c x x x v v v v v v v m m v m m v m N N m m l l x m N m m k u 9 a x x c m v M V { V N N m m m M V V V V 9 X ",
"$ e g l x x x x c x c x x v v v v v v v v m M N m x k m N N m M c x k l m x f p p u u s x k c x v M { { T V N m m N { { V M 4 O ",
": s k l x x k k x x x x x v v v v v v v v v m m v x c M V M m m v m v l c s f s s j j g x c k c m V #.{ N N m m V #.t.M m x e = ",
"% w f x x v k l x x x x x v v v v v v v v v v v v v v v v c k s f h h j x f a u p x m h k l g k m V V V V N M M v t.t.k M l a 1 ",
"O 8 h x x x x x x x x x x x x v v v v v v v v v v v m m v x l f u p x j a g g p p s a a f g h c m m M V V V T v f s s s c c w 1 ",
"X 4 f a j x x x x x x x x x x x x x v c v v v v v v m v c v x f i i p p r f f g j f e s g h j v m N m V V T V x f s p f l M u 1 ",
"O 4 g h l x x x x x x x x x x x x x x x x x v v v v v c x c x a u r a u u p s f j f p f j k c k M V V V N V { T m c c m m M g 1 ",
"O 4 g k l x x x x x x x x x x x x x x x x x x x x v x k x x x j f u y r a g f a g c k s u j l k c N V V M V { #.T T V V M m g 1 ",
"O 9 h l l x x x x x x x x x x x x x x x x x x x k k h g x c x l x j g g g a u f l c x f a c v m c N T T N V N N N N T V N m h 5 ",
"O u l l l l l l x x x l l l x x x l k x x x x l j f x x j j h j l x l c k a p g x m v k v m m V m m M V V m v v m V #.V N m a 5 ",
"O u l l l l l l l x l l l l l x k j j l x x x k h g k l s g g h j c x x x x h x v v v x c m v m M m N N V m v x v m N V V N k 9 ",
"O e l k l l l l l l l l l l l x k j k l l x j j k l k k k x c k h x v c x c v m v v v v c g w l V V V m m c x x x c c v M V l 5 ",
"# y l k l l l l l l l l l l l l l k h j l j g g k x k g h c x k l x l j x m M V N x x v v c s f m m x x v c x x x c c m V V p < ",
"# e k l l l l l l l l j k l l l l l x l k h k k g h j k l l h j x x j l v m m V V v c m m m m m v x x x v v x c v v c N V x i w ",
"O w k k k k l l l l l k k k l k j x x x x k k x j s j x x g i f k l l l x c m V N v M V N m M m x x l c v v c v m v v N M k f f ",
"O : j j j j l l l l k k l l l g p f j x x x x x c l l c x g p u l c j j k k x N M M { { V { #.V x l l x c M v x v v v M m h a 9 ",
"X < j j j j k l k l k k k k j f f a p f j l x x x v x x c h a p k l j j j k l x c m { #.#.#.N v c x x x x v l l c c m m c a e 1 ",
"o 9 k j j j j j j k k j j k j j k s a g g h x x x x x l k h j h j j l x l c l l c N V V M v x c m x x l l l l x k k l l c c x 9 ",
"X 5 j j j j j j j j j j j k j k k j h h j k k k l k k l k k l j l l x x x x m v x m M v v m v v v x l k l x c x k k j k l c k 9 ",
"O * f j j j j j j j j j j j j k j k k g j j j k k k k k k k k k l l x x x x N m c m N m V V m c m c k k k l c l j j k k k k k a ",
"O * a j j j j j j j j j j j j k g f g g j j h j j j k k k k k l l l c v x k x x l c m v m m m v v x k k k k k k j j k j k k j a ",
"O 5 g g j j j j j j j j j j j j a y f j j j g j k j k k k k k k l l c m c c x x l l k k c c x m x k k k k j k j j j j j j j j u ",
"X 8 j j g g h j j j j j j j j h u w u s g g g h k j k k k k k l l l x x x c x x x k k k c v x c l l x k j j j h g h h j j j k w ",
"O w g h a a g j j j j j g g j h f f a a u a a g j k k k k k k l l x x c x l k k l k l k k l l k l x v x h g g f a s s g h j e * ",
"* i f g f f h j j j j j h s a p u f s u 9 9 s h k j k k k k k k k x v l k k k k k k k k k x x k l x v c j j f f i u p f s a 5 $ ",
": i a g g f f f j j g f g g f a p g a u f u f g j k k k k k k k k l l k j j j k j k k l l l l c x j k k j g f s s i s g a y e * ",
"5 j g h f f a g h h g g g j j j j j f p a f h g j k k k k k j k k j j j j j k k j j j k k j k l k j j j j h g g f p a h a u 5 O ",
": f f f g g f f f f g g h j j j j j h f f g j h j j k j j j j j j j j j j j j j j j j j j j j j j j j j j g g f a p f f i e * O ",
"# i a a g g g f f s a f g j j j j j j j j j j j j j j j j j j j j j j j j j j j j j j j j j j j j j j g p g g g f f f a a e * $ ",
"O 8 a s s u s f f p s f g g j j j j j j j j j j j j j j j j j j j j j j j j k j j j j j j j k j j h u 0 e s h g g g g s s p ; O ",
"X 5 f a p u u f f s a a f g h j j j j j j j j j j k k j j j j j j j j j j j j j j j j j j j j h h i 0 0 9 t h g g f f f g r * O ",
"X 8 a a a a a s f f f g h j h h j j j j j j j j j j j j j j j j j j j j j j j j k j j j j j j h i , 6 r e 0 u f f s s a a e < $ ",
"O 9 a s s f a a s g j j j h g f h j j j j j j j j j j j j j j j j j j j j j j j x l j j j j h h r 2 h k g r e p s s a s p a 1 O ",
"O 9 g f f a f f f h j h h h h j j j j j h j j j j j j j j j j j j j j j j j j k k j j j h h h d s h l f u e 9 u a s p p a p * $ ",
"X : a g f f g g g h g g g g g j j j j j j j j j j j j j j j j j j j j j j j j j j j h h h h h d s 0 $ % & * 1 y a f s p a u $ $ ",
"X : a g f g g g g g g g g h j j j j j j j j j j j j j j j j j j j j j j h h h h g g g s s s s s s 9 % $ # # 4 i a a s a 5 * O $ ",
"O : a g g g g g g g g j j j j g j j g j h g h h j j j j j j j j j j j g g g g g g s s s s s s s s i e 0 9 8 y p a a p 9 * O $ $ ",
"1 e g f f f g g g g g j j j h g g g g g g g g g j j j j j j j j h h g f g h g g g d s s i r s s s a p i u u p p a a a y : $ X X ",
"9 i f a f g g g g g g g g h g g g g g g g g g g j j j j j j j j f g h h h h g h h h h i 5 2 0 s s s a a p a a f a s a e : X O $ ",
"O w p a a a s s g g g g g g g g g g g f f f a a s a p a a f f a h h g g f g g p 9 9 6 1 > 2 9 u u e r u u p a a u 5 e 4 $ O $ # ",
"  1 : : : * = 1 p j f j j g a g g s f p 5 8 < * : ; & % ; 8 u u j s a f i a i * X X X X + $ * : * * $ > 1 8 5 5 5 * $ O O = 1 * "
};
