/* XPM */
static char *wall[] = {
/* columns rows colors chars-per-pixel */
"64 64 157 2 ",
"   c None",
".  c #3C3F3E",
"X  c #3F4241",
"o  c #444543",
"O  c #4B4D4C",
"+  c #51514F",
"@  c #4E5050",
"#  c #535555",
"$  c #565856",
"%  c #595A57",
"&  c #575958",
"*  c #5A5C5B",
"=  c #5F605F",
"-  c #60605E",
";  c #5F6160",
":  c #636463",
">  c #666867",
",  c #686866",
"<  c #666968",
"1  c #6B6C6C",
"2  c #70706F",
"3  c #6F7171",
"4  c #737574",
"5  c #767977",
"6  c #787877",
"7  c #777A79",
"8  c #7B7D7B",
"9  c #7F807F",
"0  c #81827F",
"q  c #7F8180",
"w  c #838584",
"e  c #858887",
"r  c #8B8987",
"t  c #868988",
"y  c #8A8C8B",
"u  c #8D908E",
"i  c #90918F",
"p  c #8E9190",
"a  c #939594",
"s  c #999796",
"d  c #969896",
"f  c #969998",
"g  c #9A9C9B",
"h  c #9EA09E",
"j  c #A0A19E",
"k  c #9FA1A0",
"l  c #A3A5A4",
"z  c #A9A7A7",
"x  c #A5A8A7",
"c  c #A8ABA7",
"v  c #A7A9A8",
"b  c #ABADAC",
"n  c #AEB0AF",
"m  c #B0B2AF",
"M  c #AFB1B0",
"N  c #B3B5B4",
"B  c #B5B8B7",
"V  c #B6B9B8",
"C  c #B9BCBB",
"Z  c #BABCBB",
"A  c #BBBDBB",
"S  c #BCBCBA",
"D  c #BABCBC",
"F  c #BABDBC",
"G  c #BBBDBC",
"H  c #BBBDBD",
"J  c #BBBCBC",
"K  c #BBBEBC",
"L  c #BBBEBD",
"P  c #BBBEBE",
"I  c #BCBCBC",
"U  c #BCBDBD",
"Y  c #BCBEBD",
"T  c #BCBFBD",
"R  c #BDBFBC",
"E  c #BCBEBE",
"W  c #BCBFBE",
"Q  c #BDBFBE",
"!  c #BDBFBF",
"~  c #BEBEBF",
"^  c #BABCBB",
"/  c #BEC1BD",
"(  c #BDC0BF",
")  c #BEC0BF",
"_  c #BFC0BF",
"`  c #BEC1BF",
"'  c #BFC0BE",
"]  c #BFC2BF",
"[  c #BDC0BF",
"{  c #BEC0C0",
"}  c #BEC1C0",
"|  c #BFC1C0",
" . c #BFC1C1",
".. c #BFC2C0",
"X. c #BFC2C1",
"o. c #BFC1C0",
"O. c #C0C0C0",
"+. c #C0C2C1",
"@. c #C0C3C1",
"#. c #C0C3C1",
"$. c #C0C2C2",
"%. c #C0C3C2",
"&. c #C1C3C2",
"*. c #C1C3C3",
"=. c #C1C4C1",
"-. c #C1C4C2",
";. c #C1C4C3",
":. c #C3C4C2",
">. c #C2C4C3",
",. c #C2C5C3",
"<. c #C5C5C3",
"1. c #C2C4C4",
"2. c #C2C5C4",
"3. c #C3C5C4",
"4. c #C3C5C5",
"5. c #C3C6C4",
"6. c #C3C6C5",
"7. c #C4C6C5",
"8. c #C6C6C5",
"9. c #C4C6C6",
"0. c #C4C7C6",
"q. c #C5C7C6",
"w. c #C5C7C7",
"e. c #C2C4C3",
"r. c #C7C8C5",
"t. c #C5C8C6",
"y. c #C5C8C7",
"u. c #C6C8C7",
"i. c #C6C9C7",
"p. c #C5C8C7",
"a. c #C6C8C8",
"s. c #C6C9C8",
"d. c #C7C9C8",
"f. c #C7C9C9",
"g. c #C7CAC9",
"h. c #C7C9C9",
"j. c #C8CAC9",
"k. c #C8CBC9",
"l. c #C8CACA",
"z. c #C8CBCA",
"x. c #C9CBCA",
"c. c #C9CCCA",
"v. c #C9CCCB",
"b. c #CACCCB",
"n. c #CACCCC",
"m. c #CACDCC",
"M. c #CBCDCC",
"N. c #CBCDCD",
"B. c #CBCECD",
"V. c #CCCECD",
"C. c #CCCECE",
"Z. c #CCCFCE",
"A. c #CDCFCE",
"S. c #CDCFCF",
"D. c #C8CAC9",
"F. c #CDD0CF",
"G. c #CFD1D0",
/* pixels */
"0 w d g x N N b x v N ( S b b g y 8 8 y g b S ;.;.;.;.;.;.b.;.V d.;.N N N S S b N ;.;.V N V N x g b ;.b.;.;.N | y.y.b.b.S z s r ",
"8 d x M S d.b.b.b.y.;.b.b.b.b.;.;.( ;.d.d.y.b.b.b.d.b.b.b.b.d.;.;.;.;.| ;.;.;.;.;.;.;.;.;.;.;.;.;.d.;.;.;.;.;.;.;.;.;.;.( x s 8 ",
"5 b S N ;.b.b.b.d.b.b.b.d.b.b.b.G.F.b.b.b.b.b.b.d.b.b.b.b.;.;.;.;.;.;.;.;.;.;.;.;.;.;.;.;.;.;.;.;.;.;.;.;.;.;.;.y.d.d.;.;.B g 8 ",
", h S S d.;.d.;.d.b.b.b.;.y.b.b.b.b.b.b.b.b.b.b.;.y.y.b.b.;.;.;.;.;.;.;.;.;.;.;.;.;.;.;.;.;.;.;.;.;.;.;.;.;.;.;.d.b.b.y.;.V w , ",
", d ;.S d.;.;.y.b.b.b.b.b.b.b.;.y.b.b.b.b.d.y.;.;.b.b.y.;.;.;.;.;.;.;.;.;.;.;.;.;.;.;.;.;.;.;.;.;.;.;.;.;.;.;.;.;.;.;.;.;.b 8 , ",
"6 g N b | ( V ( y.d.b.b.b.b.d.;.;.d.d.b.b.b.d.;.;.b.b.d.d.y.;.;.;.;.;.;.;.;.;.;.;.;.;.;.;.;.;.;.;.;.;.;.;.;.;.;.;.;.;.;.;.g 5 , ",
"2 b S b | ;.;.| ;.S b.b.b.d.;.;.;.;.;.;.;.b.d.d.;.y.d.d.d.d.y.;.;.;.;.;.;.;.;.;.;.;.;.;.;.;.;.;.;.;.;.;.;.;.;.;.;.;.;.;.;.x 5 5 ",
"- x ;.;.S S S S S S ;.;.;.| S S | ;.;.;.;.| | ;.d.b.b.y.d.b.y.;.;.;.;.;.;.;.;.;.;.;.;.;.;.;.;.;.;.;.;.;.;.;.;.;.;.;.;.;.;.n d y ",
"+ d ;.S x M S S V V N N M N N N | ;.;.;.;.S | d.b.b.F.b.b.y.;.;.;.;.;.;.;.;.;.;.;.;.;.;.;.;.;.;.;.;.;.;.;.;.;.;.;.;.;.;.;.( d 8 ",
", x ;.;.N S ( S n N N M b B N N V | ;.;.;.;.;.y.d.b.G.b.b.;.;.;.;.;.;.;.;.;.;.;.;.;.;.;.;.;.;.;.;.;.;.;.;.;.;.;.;.;.;.| ;.| d 1 ",
", j ;.;.S S | N b N N b b M b b b N N S S ;.;.;.y.d.b.y.;.;.;.;.;.;.;.;.;.;.;.;.;.;.;.;.;.;.;.;.;.;.;.;.;.;.;.;.;.;.;.;.;.;.x i ",
"$ i S S S S V b v M N B N V V b b N V S | ;.;.;.;.;.;.;.;.;.;.;.;.;.;.;.;.;.;.;.;.y.;.;.;.;.;.;.;.;.;.;.S ( ;.;.;.| S ;.;.y.( x ",
"O w B S | S N v b b N V S S S V N M S ( ;.;.;.;.;.;.;.;.;.;.;.;.;.;.;.;.;.;.;.;.;.;.;.;.;.;.y.;.;.;.;.| S V S ( | | | | ( ;.;.x ",
"* 5 n V V N v b b n M N N S S S S S ( ;.;.;.;.;.;.;.;.;.;.;.;.;.;.;.;.;.;.;.;.;.;.;.;.;.;.;.;.;.;.;.;.;.S S S ( ;.;.;.;.( | ( N ",
", t N N n b b N N b N S S S | ( ( ( | | ;.| ;.;.;.;.;.;.d.;.;.;.y.b.b.;.;.;.;.;.;.;.;.;.b.b.b.d.;.| ;.;.;.N V ;.;.;.| ;.S S ;.S ",
"1 d B V M N B S S N N N S | | | | | | | ;.| | ;.| ;.;.;.b.;.y.b.b.b.b.b.b.d.;.;.;.;.;.;.y.b.b.b.b.y.;.;.;.S S ;.;.S S S N V ;.( ",
"3 d b V V B S S S V N N S | | | | | | ;.;.| ;.;.;.;.;.;.;.;.;.d.d.;.;.b.b.d.;.;.;.;.( ( ;.d.b.b.d.y.y.y.;.;.;.;.| | ( S S S S N ",
", t v N V S ;.S S S S S ( ( ( | | | | | | | ;.;.;.;.;.| ;.;.;.y.y.;.d.d.;.y.;.;.;.;.S ( ;.;.;.;.;.;.d.d.;.S S ( d.;.| S | ( B d ",
"* 1 g N N N N V S S S V S S ( | | | | | | | | | | | | ;.;.;.;.;.;.;.;.y.y.d.y.| y.;.;.;.;.| ;.;.d.d.d.b.d.| N N ( ( ;.;.| S S d ",
"1 8 b N N N N V S S B N S S ( ( ( ( ( ( | | | | | | | ;.;.;.| S S ( | | ;.;.;.;.d.;.;.;.| | ;.;.;.d.d.d.y.;.S S S ( S | S N S x ",
"1 g V S S S S S S V N V S S S S ( ( ( ( | | | | | | | ;.;.;.;.S V ( S S S ;.| ;.| S S ( S ;.;.;.;.;.;.;.;.;.| S S S S S V S S N ",
"; g V N V V V S S S S S S V S ( ( | | | | | | | | | | ;.;.;.;.S B V S S S S S S V n S S | ;.;.;.;.;.;.;.| ;.;.S ;.V S ( ;.;.;.V ",
", g S V V S S S S S S S S V S S ( ( ( ( ( | | | | ;.;.;.;.;.;.;.| | | ;.;.;.;.| V x B ;.;.;.;.;.;.;.;.;.;.;.;.;.S V ( ;.;.;.N u ",
"3 x B S S S S S S ( S S S S ( ( ( ( ( ( ( | | | | | ( | ;.;.;.;.S S S ;.;.;.| S x f b S S S | | ;.;.y.;.;.;.;.;.;.;.;.;.;.;.u # ",
"1 g N S S S S S | S S S S | | | ( ( ( ( ( | ;.;.| S S | ;.;.;.;.S S V S | S M b b x v M S V S S | ;.y.y.;.;.;.| | ;.y.y.;.;.t ; ",
"8 b S S S S V S S S S ( ( | | | ( ( ( ( ( | | | ( S S ;.;.;.;.;.( ( S S S n M b b N N N S S V S ;.;.d.y.;.;.;.;.;.d.b.;.;.S g 7 ",
"1 g M S S S V S S S S S ( | | | ( ( ( ( ( ( | | ( ( ( ( ( S V b n N N N S M n v b S ;.N V S N V ;.;.;.;.;.;.;.;.S b.d.V ;.S b y ",
"& p N S S S S S S S S S S S S ( ( ( ( ( ( ( | | ( ( | | ( S S M x b S N b N N b b n b b N N N S ;.;.;.;.;.;.y.( M n n M S S g y ",
"O w N M V S S S S S S S S S S S S S ( ( ( | | | ( ( | | S S S M v v b b x N M N N M x b N N N | ;.;.;.;.;.;.;.S N n b M S ;.x w ",
"* y N N S S S S S S S S S S S S S S S S S S ( | ( | | S S S S b x x b x x b n M N M b N V V S S ;.;.;.;.;.;.y.;.| S S ;.| ;.N w ",
"; y N S S S S S S S S S S S S S S S S S S S S S S | S V S S S N N x x x b N N b N S V n x N S S ( ;.;.;.;.;.y.b.;.;.;.;.;.| M w ",
"; d N S S S S S S S S S S S S S S S S S S S S S V V N N S S S S S N N N N b x M S S S M b S | ;.S ;.;.;.;.;.;.;.;.;.;.;.;.| N p ",
", x S S S S S S S S S S S S S S S S V S S S S S B M S S N B N V S S S S V b b N S | ( S ( ;.;.;.| ;.;.;.;.;.| ( | ;.b.;.;.| b d ",
", k S S S S S S S S S S S S S S S N B S S S S V N N V S M N N N V S S S S S N S ( ( ( S S | ( | ;.| ;.;.;.| ( S ( | ;.;.;.;.V g ",
"; f S S S S S S S S S S S S S S V V V S S S N B V S V V V S S V N S ( S S S ( | | ( ( ( S M f B ;.;.;.| | S S S S S S | ;.;.V p ",
"* g S S S S S S S S S S S S S S S S N V S N N N V S S N N S S V S S S V S | ;.;.;.S S ( ( S b b | | S S ( S S S S S S ;.;.;.v w ",
"& g S S S S S S S S S V V S S S S S S S S N V V N N V V S S N V S S V S | | ;.;.;.( S | ;.| | ;.( S S S ( ( S S | ( S ;.;.S v g ",
"& d S S V S S S S S S V V S S V N S S S S V S S N M V S S N v M S S S S S S | ;.;.( ;.;.;.;.;.;.S S S S | | S ( ;.| ( ;.;.V M M ",
"& 5 V V V V S S S S S V S S S N b M N S S S S S S S S S S N b x S S V N V V S ;.;.;.y.y.;.y.d.;.S S S S ( ;.( S ( | ( ;.| N b d ",
"# 8 V V V V V S S S S V V V B M M b b M B S S S S | S S S N b b V S B V B V S S S ;.y.d.d.d.;.| S S S S S ( S S S S | | S b g w ",
"& d S V V V V V V V V N N V V B S n b N N N S S S S S S S N N N B V S S S S S S S ;.;.;.;.( S S | S S S S S S S S S S S S S S f ",
"* y V V V V V V V V V V V S B V V B N N B V S S S S S S S V V N S S S S S S | ( S ;.;.( | ;.| ( | S S S S S S S V V V V S S S g ",
"; 5 M V V V V V V V V V V V V V V S V N N V V S S V S S V S V V S S S S S S ;.;.S ;.;.;.;.;.;.S | S S S V S S S V V V V V S N b ",
"* 5 b B B B V V V V V V V V V V N N N N N V N N N B S S S V V S S S S ( S S S S S ( | ( | ;.| ( | S V S V S S V B B V V V S B b ",
"* y N N N B B V V V V V V V V B b x M N V V N N V V V V S S S S S S S | S S S S S S V V S S S | S S S V V V V V B V V V V V V x ",
"& y V N N N N V V V V V B N V N x g x M N N N N V V V V S S S S S S S S S S S S S V V V S ( S S S S S S B B B N N N N N B N N g ",
"; f N N b b N B V V V B N N V N M M b b x b n N V V V S S S S S S S S S S S S S S V S S S S S S S S ( S N N N N b n n N N N g 1 ",
"5 x N N M N N N B N N B N M b b x N M x f f M N V V V S S S S V V S S S S V V V V V S S S S S S S S ( S B N N M b x b N n b d , ",
"5 x b N N N M N N B N N N N N b b N b v M x N N N V S S S S V V S S S V V V V V V V V S S S S S S V V V N N N M M b n N b x x 5 ",
"y N N N N M M N N N N N N N N N B B N b n M N N N V S S S V V V V V V V V V V V V V V S V V V S V B V V N N N N N b n N b x y * ",
"5 b M N N N N M M N N N N N B B B B N M N N B N N V V V V V V V V V V V V V V V V V V V V V V V V V B N N N N N b b M M b k 5 * ",
"* x b b N N N M M n b N N N N B B B B B B N V V B V V V V V V V V V V V V V V V V V V V V V V V V V V N b N N N M M M b b h 5 1 ",
"@ p b n n v n N N b M N N N N N V B B B B B V V B V V V V V V V V V V V V V V V V V V V B B V B B B x d g b N N N N N M M b 8 , ",
"@ y M b b x v N M M n b N N N V V B B B B B V B B S V V V V V V V V V V V V V N B B B B B B B N N c g g d x N N N N M N N k 5 = ",
"# y b b b b b n N N N N N N N N B B B B V B B B B V V V V V V V V V V V V V B B S V B B B B B B b w d x h g x N M M n b b k q > ",
"% d N n M N b b M N N N N N N N N B B B N B B B B B B V V V V V V V V V V V B B S S B B B B N N h y m S N x k b n n b n b b w , ",
"* d N N N b M M N N N N N N N N N B B B N N B B B B V V V V V V V V V V V V B V S B B B B N N N n m N n x g f x b n b b b b 5 , ",
"& 5 b N N N N N N N N N N N N N B B B B N N B B B B V V V V V V V V V V B B N B B N N N N N N N m d , , 1 5 t x b M n b b x , 1 ",
"# 8 b N M N N N N N N N N N N N B B B B N N N B B B V V B B V V V V V B N N N N N N N N N m N N n d 1 1 , ; y b b b n b y 1 , 1 ",
", 8 b N N N N N N N N N N N N N N N N N N N N N N B B B N N N B B B N N N N N N N N m n n n n n n b g g g d x b b n b d 5 * 1 , ",
"y x M M N N N N N N N N N N N N N N N N N N N N N B B N B N N B N N N N N N N N N N N n c x b n n b b b v v b b b b b x 8 , o o ",
"p v M b N N N N N N N N N N N N N N N N N N N N B B B B N N N N N N N N N N N N B N B c u y g n n n b b b b b M b M b k 8 O # , ",
"* g b b b b b n N N N N N N N N N N N N M N b b b b v v b N N b N N N N N N N x p y y w w y d x x g k x x b b b x y g w , & 2 , ",
"  t 7 5 8 , , q v V N N B N b N N M N b y d 8 < 5 5 , * 5 d x x B n b M b n v 1 . X o # > 1 5 7 3 5 1 q w d y y y 5 , O # 7 w 5 "
};
