/* XPM */
static char *wall_left[] = {
/* columns rows colors chars-per-pixel */
"64 64 46 1 ",
"  c black",
". c #120F0A",
"X c #15120D",
"o c #836947",
"O c #876C49",
"+ c #8B6F4B",
"@ c #8D704C",
"# c #92744F",
"$ c #8E7451",
"% c #927551",
"& c #967852",
"* c #9B7C55",
"= c #9A7E5B",
"- c #9F825B",
"; c #A4855E",
": c #A68964",
"> c #AD8D63",
", c #A78C68",
"< c #A98D6A",
"1 c #AD926E",
"2 c #B39166",
"3 c #B5956C",
"4 c #B9976B",
"5 c #BB9A6E",
"6 c #AF9571",
"7 c #B19772",
"8 c #B59974",
"9 c #BC9C72",
"0 c #B79D79",
"q c #BFA077",
"w c #C09F73",
"e c #C2A176",
"r c #C8A77E",
"t c #C6A87E",
"y c #C9A97E",
"u c #C6A780",
"i c #C7A981",
"p c #CDAF88",
"a c #CCB088",
"s c #CFB18A",
"d c #D0B386",
"f c #D0B28B",
"g c #D2B790",
"h c #D4B790",
"j c #D5B890",
"k c #D8BB94",
/* pixels */
"                                            X8fssfffffffffititti",
"                                            Xqjjjjjjkjjjjfsffiif",
"                                            Xqjfjjjjjjjjjjjfffff",
"                                            Xqjjjjjjgjjjjjffjfff",
"                                            Xqjffffjgjjfjjgfjfff",
"                                            X0jffgfffffgjjfffgfi",
"                                            Xqkjjjjjjffgjjfssgjf",
"                                            Xqjjjkkjjjjfjjjssfjf",
"                                            Xqjgggjjjjjfjfjgjfff",
"                                            X8fgjffjjjffffffffff",
"                                            X7gjjffjfssfffssffsi",
"                                            X0jjjfssfffjffssffie",
"                                            X0ffjffffjjffffsffji",
"                                            X8sisfgfffffssssffjf",
"                                            X7iisffffffsisssffff",
"                                            X1isfsppsiiiiiiissff",
"                                            X<iiiiiiiiiiiiiiiisf",
"                                            X,tiuttttttttttttiii",
"                                            X-399933333333999qtt",
"                                            X,9ttttttuiutttttiii",
"                                            X6iisffffjjjjjgfssff",
"                                            X6iisffsfjjjggffiiii",
"                                            X6iisfffffjjgggfitif",
"                                            X1iiifssfjjjfffsisff",
"                                            X6iiifjjjjjgffgfsfff",
"                                            X1iiifjjjjjfgfffffff",
"                                            X1uuisfjgjgffffffjjf",
"                                            X1iuifjjfsjjffiiffgf",
"                                            X1uiifjjiijjjssijjjf",
"                                            X1uipfjfiifjjpfijjjf",
"                                            X8iiiisittfgfiiifjff",
"                                            X0itttttuisfitiiiffi",
"                                            X1ttttttttiittuiiiff",
"                                            X1iuuuiuttttuuiitigf",
"                                            X7iutupiutttiiiiiisf",
"                                            X8iiiiiiiitussspiiii",
"                                            X8iipfiiiiuiissisitt",
"                                            X8iiiiiiittiiiiifitt",
"                                            X6fiiutttttiiiifiuut",
"                                            X6fsiiiiiiissiifisfi",
"                                            X,t93333999993383899",
"                                            .%;*%#@@@+++@@ooO+#*",
"                                            .=;*&%%%%%+++@@$$$&*",
"                                            X,93333333,,,,393333",
"                                            X,qqttt9999339999999",
"                                            X,tqtiteeqttttiitttq",
"                                            X,tttttwtttiiiiiaitt",
"                                            X1isitteeetiiittiiis",
"                                            X1issittweyitittiiyi",
"                                            X8siiiiiyiiiiiiiiyyt",
"                                            X7itiiisssiisaiiiiii",
"                                            X7itissffssffaaasiii",
"                                            X7iiisaaaffffsiasitt",
"                                            X7iiiiiiaaddddaaiitt",
"                                            X1yyyytyiisaaaaiyttt",
"                                            X,teteeyytyiiiiytttt",
"                                            X-59eetrtttyytttyt9e",
"                                            X;44w9eeeeeettett959",
"                                            X,95555weeeweeeeew95",
"                                            X:55w9555ww955eeeew9",
"                                            X,5599954534449eeew9",
"                                            X;559w5553234595ew55",
"                                            X-44343,>45559535555",
"                                            X,9533,,,4w955335345"
};
