/* XPM */
static char *wall_top_left[] = {
/* columns rows colors chars-per-pixel */
"64 64 79 1 ",
"  c #000000",
". c #1F1C16",
"X c #201D17",
"o c #25211A",
"O c #2A261E",
"+ c #2C2720",
"@ c #322D24",
"# c #383127",
"$ c #3F382C",
"% c #433A2E",
"& c #4A3E2E",
"* c #463D30",
"= c #483F31",
"- c #4D4234",
"; c #514636",
": c #534837",
"> c #524738",
", c #554939",
"< c #5B4E3D",
"1 c #5E503E",
"2 c #60523E",
"3 c #69573D",
"4 c #5F5140",
"5 c #685741",
"6 c #6C5B45",
"7 c #6F5E49",
"8 c #715E46",
"9 c #705F49",
"0 c #766044",
"q c #7C6446",
"w c #73614A",
"e c #7A664C",
"r c #7D694E",
"t c #816849",
"y c #8C704D",
"u c #91744E",
"i c #836E51",
"p c #8B7353",
"a c #8E7759",
"s c #947651",
"d c #967852",
"f c #9C7C54",
"g c #9C7E59",
"h c #A07F57",
"j c #A07F58",
"k c #9F8057",
"l c #9F8059",
"z c #A08057",
"x c #A4845B",
"c c #A7885F",
"v c #938064",
"b c #A68861",
"n c #AC8C63",
"m c #B08F66",
"M c #AF9067",
"N c #AF9068",
"B c #B19066",
"V c #B4946A",
"C c #B7986E",
"Z c #AB9270",
"A c #B19776",
"S c #B79970",
"D c #BFA076",
"F c #BFA27A",
"G c #C09F75",
"H c #C1A176",
"J c #C9A77D",
"K c #C7A87E",
"L c #CAA97F",
"P c #BFA581",
"I c #C5A780",
"U c #C9AB84",
"Y c #C9AE89",
"T c #CDB087",
"R c #CEB189",
"E c #D0B38B",
"W c #D4B690",
"Q c #D6B991",
"! c #D9BB93",
/* pixels */
"IFFIPPIIIYv                                                     ",
"ERREEEQWE!A&&&&---&&&&&&&&&&&&&&&&&&&&&&&&------;;;--;;;;;--;;--",
"EEEEEWEEREUSKUUEEUIKKKKKKKIKKKKKIKKIKKKKKKURREQQEEEEEEWEWEEEQWEY",
"QQWWWQQWERKVHUYEEUKKKKKKKIIKKKKKKKIIKKKUKFUUUUURUUEEEQWEEWEEEURE",
"QQQWQQQQEEIVSUURUIKKKKKKIIIIIIIUIKIIIKKIUUUUUIKKIUUREEEWWQEERUKI",
"EEQQQWWQEEIVSUUUUKKKKKKKIKKKKKKKKKKKKKKIIIUUYYUUUREEEEEQQQQQEERR",
"EEEEEWQQQQIVSURRRUKKKKKKKKKKKKKKKKKKKKKKKIIREERREQQQQQREEQEWWWQE",
"WQEEWQQWWEKVDIREEUKKIIIKKIKKKKKKKKKKKKKKKKKIREEWWEQQQQQEWWEEWWEE",
"WWWWQEEEEEKVFIREEUKKKKIIIIIKKKKKKKKKKKKKKKKIRWWWWQQQQQQQQWEEQQQQ",
"EEWQQQEWWQUVKUREEERRUUIKIIKKIKKKKKKKKKKKKKKKUQQQQQQQQQQQWEEEEEEE",
"KKUREEEUURKSKUEEEWEEEEYIIIKKUIIKKIUUIKKKKKKKUQQQQQQQQQQEEEEEEEEE",
"fcVSSKKSSSSSIRREWEEEEWEKIIUUIIIKIUUIKIKKKKKKUEQEEEEQEWQEEEEEEEEE",
"txVDKUUSVnnVSSFKKSSSSSVVnnVVVVVVVSKKSSSSKKIUUUUUTRTUUUUUUUUUUUKK",
"$0xVSSSCVxdffhxxxxzfffffffsffffdffnSKCVnVVSSVVVCHKKKKHDSSCCCVVVS",
"@;scBCCVVgsffffzfffffffffffffffssfxmKVVVVVVVVBVCSHHHHHHSSCCCVCCS",
"+$8fnVVVVxfxxxzfffffffssssssffddfzxnSVVnnnnnnBVSSSSSHHKKHSSCVSSS",
"O@:uxnVVVxffxxxxfffzffsssdsssssfffxxCVnnnnnnnnnBCSSSHHHKHSCCCSSD",
"o+$qxnVCSnfzzxxxxfffffffsssuuusdffzxVnccnnnnnnnnVCSSHHKKHSSCCCCS",
"XO$2fnVSDnzzzxzhfffffffsuuuuuuufffzxVcccccnnnccnCVCSHHHKSSCVCCCC",
"XO$;fnVVCnfzzzfffffffssuuuuuussfffffnxxxxxxxxcnnVVVCSSSSSSSSSCCC",
".O@-ylxnnnxxxxxxxxlxxfflxxxxxxxxnnnnnnnnnnnBMBBBBCSCVSSSHHHHHHSS",
".o+#3ysfxxfffffffffgfslnxxxxxxxnnnBVnnxxnnncccnnnSKKSSSSSSSSSSCC",
"XO@$<dxxnnnncccnnnBnnxbxxxxxxxcxxxxxxxlffxxzfffffnSSGCVVVBBVVBBm",
"o+$%;pnnVVVVVVVCCSCCVncxxxxxxxxxxxxxxxlffffgffzffxVVCCCVVBVVVVVB",
"o@$*-6nVVVCSSCSSSSSSVnnxzxxxxxxxxxxxxxxllffffkxxzcVBVVCVVVCCCSSC",
"O@$=;<gVVCSSSSSSSSCVBxbxfffffxxxxxxxxxxxlggfffxxcBCVCCCCCCCSGSSS",
"@$%-;,rVCCSSSCSSSCVBnxxfdfdfffxxxxxxxxxxxzfffhxcnVSVCCSSSCVSSSSS",
"@$%-,<5nSSSSSSSSCVVVnxgffddddffxxxxxxxxxffffffxncBSVCCSSSCCCCCCC",
"#$*-;,<iVVVCCCCVVVVVnjfffkxxffxxxxxxxxxxxxxxxxnBnVCVVCCCSCCCCCVV",
"$%=-;,,5bSDKKIIUUKKKSSKKKKKFSSSSDKKSVnnnnxnbnnBBnCSSSHSVVVVCCCCC",
"$%=--;>,aHDFFFKKKKDSSSDKKKKDSSSSSDSDSxfffffffxcxxxcBVBncccnBBnnB",
"%*--;;;;6nVVVnnnnnnnnnBVVVVVVVBBBVVVVffffffffzxzxxcnnnnnnnBBBBBB",
"=--;;;;;<pVVVVVnnnnnnBVVVVVVVVVVVVVVnffffffffffxxxxcnnnnnnnBBBVV",
"--;;;,,,<6bVVVVVnnnnnBVVVCVVVCCVVVVVnfffffduuffxxcccnnnnnnnBBVVC",
";,,;,,,,<<pVVVVBnnnnnMVVVCVVVCVVVVVVnffffffdufffxnnnncxnnnnBBBVC",
",,,,,,,,<<6nVVVBVBnnnnVVVCCCCCVCCVVVnffffffffxxfxnBnncccxxcmBBVC",
",,,,,,,;,,<gVVVVVVnnnnBVVCCCCCCCCCVnxffffffzxxzzxxccnncxzzxcnnnV",
"211<11<<255eSKKHSCVVVVBnMVVVVVVVVVnnnxxxxxxxxxxnxcnVSSVVVBBVVVCS",
"88666556666wZUUUKKSSSDVffxllllxlfffdsussssssssdddnKUUUUULLKKKKKK",
",,,>;;;;>>,>6nncccxxcnVxxnnccccccxxxzffffffffjxzfnKUULLLLUUULLLJ",
",,>;;;>,,;;;<sxxcccccnVcVVVVVVVVVnnnccnnnnnnmmmnxcKLLLLLLLUUULLL",
",,,;;,,,;;;;;6xxcccccnBcVCCVCVVVBnnnccnBVVCCCCCmxnKLLLLLLJLLLLLL",
",<,,,,,,>>,,;<pxxccccnnxBCVVVVVBnmnnnnmBBVVCCCSSmVKLLLLLLLLLLLLL",
"<<<<<<<,,,,;:;6fxxxxcnnxmCVVBBBmBBmmnnBmnBVVCCHKSSLLLLLLLLLJJJJK",
"25551<<,>>,;;;<sxxxxxmVxVCCVBmBBVVVBVVVVCCCSSHKKSSLUUUUULLJJKJJK",
"55512<<>>,,,,,:excxxxnnxmVBVVVVVVVVmmVCCCSGHHKKKCSKLUUUUULLLLLKK",
"------%*<5555526bVVCSSKKKKHSHKKKKHSSSCSGHKKHHHHKKKLKKKKKHSSSSSSS",
"******%$56666552pCCSGGKLULLKKLLLLLLULSCSSGSSSSSHHHSSCCSSCCCVVCCH",
"---;;;-*596655556VSSKKJUUUULLLLLLLLULHHSSSSSSSHHGGSSSSSSCCCCCCCH",
"---;,>;-599665555gGHKJLUUUULLLLLLLLUKSGGSCSSSSHHGGSSCCCCCCCCCCCH",
",,,,,,;-577976666rDUUUUUUUULLLLLLLLUKDHSSCCCCSGGSCCCCCCCCCCCCCCS",
",,,,,,;-5677766667bULLLLLULJJJKKKLUULHDSSCCCCCCCCCVVVVVVVCCCCCVH",
",,,,,,;-5699776666eSJKKHKKKKKKKKKLUUUSSSSCCVVVVVVVBBVVVVVVVVVVVS",
";---;---<5555555555lSCCCCCCCVVCSSHHHSVVVBBBnnnnnncxcccccncccnnnB",
"--*%%%%%**--------=5jfdssssdssssdfffdddsssssssfssffffdffffffgxcn",
"<;--;,<<,,<<<<<>>,;5xcxxxxxxxxxxxxncxxxxxxxxxnnnVVVVVnVBVVVVCSSC",
"5,---<255555555<<<12dVmnnnnnmVVVVVVVVVVNnmVmVVVVSHHHGSCCSKKGKSGS",
"6<--;,155555555<<<<<eVVmnmVNVmVVVVVVVVVVVVmnVVVVSSVnVCCSSKHSHSSK",
"7<%-><1145555551<<<<5lVBBVVVVVVVVVVVVVVVVVmBVVVCHSVVVSHSSSSSHSSH",
"71*-,<115555555<<<<<<eVVVVVVVVVVVVVVVVVVVVmVVVVVSKHSGKHSSSBmSSSS",
"94*-,<<55544445<<<<<<5lVVVVVVVVVVVVVVVVVVVVVVVVVSKKKHSSHKSSCSSSS",
"w4-;,<155555555<<1<<<,rnmmVVVVCCVCCVVVVVVVVVVVVVVKKKSnnHKSGKKHSS",
"94-;,<155555554<<11<<,enBVVCVVSVVSCVVVSCVVVVVBVVSKKHVnVSSVSHKKSS",
"7<=;,<155555554<<1<<<<rVVVVmmBVVSSCVVCSVVVVVnnVVSKKSVVCSCVCSSSSM"
};
