/* XPM */
static char *player_test_collec_1[] = {
/* columns rows colors chars-per-pixel */
"64 64 220 2 ",
"   c None",
".  c #0C0909",
"X  c #140D0C",
"o  c #1D1C1C",
"O  c #1A1516",
"+  c #241A16",
"@  c #2B1D1A",
"#  c #241E1A",
"$  c #301E1C",
"%  c #34241C",
"&  c #3B291F",
"*  c #39271E",
"=  c #2C201A",
"-  c #252323",
";  c #2D2826",
":  c #2D2A28",
">  c #2F2725",
",  c #3A2A21",
"<  c #332C2B",
"1  c #3C2E2B",
"2  c #372826",
"3  c #3B312E",
"4  c #3C3533",
"5  c #393736",
"6  c #442D23",
"7  c #462D29",
"8  c #4A2F28",
"9  c #453024",
"0  c #4C3325",
"q  c #44332E",
"w  c #4D342A",
"e  c #4F382A",
"r  c #513627",
"t  c #513629",
"y  c #543A2B",
"u  c #5C3D2C",
"i  c #463632",
"p  c #4B3933",
"a  c #443D3B",
"s  c #4E3D3B",
"d  c #483634",
"f  c #533A35",
"g  c #543D3A",
"h  c #5E3C38",
"j  c #653E37",
"k  c #5E402F",
"l  c #4A413C",
"z  c #5D4434",
"x  c #54413B",
"c  c #5C433C",
"v  c #64412E",
"b  c #68422F",
"n  c #654331",
"m  c #6B4531",
"M  c #62423C",
"N  c #6A483B",
"B  c #744A35",
"V  c #7A4D36",
"C  c #7A4F38",
"Z  c #724638",
"A  c #7E5139",
"S  c #5D3D43",
"D  c #454242",
"F  c #4E4947",
"G  c #5D4643",
"H  c #544943",
"J  c #574B48",
"K  c #5A514D",
"L  c #555253",
"P  c #5D5B5B",
"I  c #5A5555",
"U  c #634643",
"Y  c #654B44",
"T  c #6B4A46",
"R  c #6B4745",
"E  c #7A4C45",
"W  c #734D4C",
"Q  c #754A46",
"!  c #6D5349",
"~  c #6A5048",
"^  c #72534D",
"/  c #785747",
"(  c #635953",
")  c #725B54",
"_  c #7A5B53",
"`  c #795D58",
"'  c #7F4C53",
"]  c #6B615B",
"[  c #66615D",
"{  c #74615B",
"}  c #7B625B",
"|  c #796357",
" . c #605E62",
".. c #656263",
"X. c #6C6C6F",
"o. c #6C6464",
"O. c #746965",
"+. c #726D6B",
"@. c #7E6861",
"#. c #7F7972",
"$. c #7C7B7C",
"%. c #737478",
"&. c #716E6E",
"*. c #83533A",
"=. c #8D593F",
"-. c #88543A",
";. c #925A3E",
":. c #895C43",
">. c #86564B",
",. c #925C41",
"<. c #995F41",
"1. c #855C53",
"2. c #885956",
"3. c #905E5C",
"4. c #9C6344",
"5. c #956246",
"6. c #84635C",
"7. c #8B645B",
"8. c #84695E",
"9. c #8D6653",
"0. c #9C7357",
"q. c #976F51",
"w. c #A26545",
"e. c #A87756",
"r. c #BC7550",
"t. c #B9724E",
"y. c #875F60",
"u. c #836A62",
"i. c #8B6C6B",
"p. c #886863",
"a. c #946B63",
"s. c #986D69",
"d. c #8B746C",
"f. c #8B756A",
"g. c #94796D",
"h. c #97766B",
"j. c #8C7672",
"k. c #857B77",
"l. c #957673",
"z. c #957B74",
"x. c #9C7D7C",
"c. c #9D7B74",
"v. c #A36D65",
"b. c #A4736C",
"n. c #A77C77",
"m. c #B27E77",
"M. c #B4835F",
"N. c #9C827A",
"B. c #9A8074",
"V. c #B78966",
"C. c #BF916E",
"Z. c #A68679",
"A. c #B08F7F",
"S. c #A7836F",
"D. c #C6805A",
"F. c #C89A76",
"G. c #D69C73",
"H. c #C6936D",
"J. c #D2A47E",
"K. c #D8A67D",
"L. c #7D7E81",
"P. c #7F8187",
"I. c #888686",
"U. c #9A8883",
"Y. c #898C93",
"T. c #999598",
"R. c #A38D84",
"E. c #AE8D85",
"W. c #A78986",
"Q. c #B38D85",
"!. c #B48987",
"~. c #AB9187",
"^. c #AE938B",
"/. c #B5948E",
"(. c #B79386",
"). c #A79799",
"_. c #B59C92",
"`. c #BD9D92",
"'. c #BA9A95",
"]. c #BAA199",
"[. c #9A9DA1",
"{. c #C2978B",
"}. c #C69A95",
"|. c #D9AB83",
" X c #C4A49B",
".X c #CCA59C",
"XX c #C7A59B",
"oX c #D1A89C",
"OX c #E6B68C",
"+X c #E6B489",
"@X c #E9BA91",
"#X c #F0BF94",
"$X c #E0AF85",
"%X c #CCA5A3",
"&X c #C3ABA3",
"*X c #C5A8A3",
"=X c #D3ADA5",
"-X c #D1ADA9",
";X c #D0A3A7",
":X c #D4B0A5",
">X c #D4B3AB",
",X c #DBB5AC",
"<X c #DCB8AD",
"1X c #D7B5AA",
"2X c #DBBCB3",
"3X c #D4B6B4",
"4X c #CDB0A7",
"5X c #E0BBAF",
"6X c #E2BDB7",
"7X c #F3C59B",
"8X c #DAC2BE",
"9X c #E5C3BB",
"0X c #E9C4BA",
"qX c #EAC8BD",
"wX c #DEC6C3",
"eX c #EBCBC5",
"rX c #EDCCC9",
"tX c #E7CBC8",
"yX c #F2D4D2",
"uX c #F1CEC8",
/* pixels */
"                                                          $.I.Y.[.[.T.                                                          ",
"                                                    $.%.X.X.%.P.Y.I.Y.P.L.                                                      ",
"                                                +...I L I +.I.).).T.Y.o. .X.I.                                                  ",
"                                              k.P I o.U._.&X3XwXrXwX3X].O.L %.                                                  ",
"                                            U.( L k. X,X9XtXrXyXyXyXyXyX8Xj.P $.                                                ",
"                                            +.D O.`.oX:X6XeXeXrXrXeXuXuXyXwXk...k.                                              ",
"                                            I a N.{.}.oX,X6X9X9X9X0X0X0XqXeX&X....                                              ",
"                                          #.3 K A.(.{..X=X,X,X,X,X<X,X<X<X2X3Xd.L $.                                            ",
"                                          F - ) A.(..X.X.X.X=X=X:X:X1X,X<X<X>XR.F ..I.                                          ",
"                                          : - ^ S.(. X=X>X>X-X=X:X>X<X2X3X3X:X~.a D X.                                          ",
"                                          - o ! S.N.N.U.E. X%X%X.X/.x.j.j.~.&XZ.< - L                                           ",
"                                        F o # | 8.x i 1 d _ Z.Q.n.^ g c ! @./.R.: o 5 P                                         ",
"                                        l o : f.Y 7 7 7 6 t 1.s.1.N N T 1.g._.].5 O - D                                         ",
"                                          : 4 B.! 8 q 1 2 6 _ Q.6.j T ^ E 7.].&XF o o :                                         ",
"                                          p x Z.g./ ^ G U T l.>Xh.W H a 6.n. X XK 1 O <                                         ",
"                                            Y Z.].E.a.1.6.l.E.>X`.a.3.i./.4X2X X@.Y o                                           ",
"                                        H ^ c g.`. X/.E.E.Q.!.-X>X!.a.h.`.2X2X X6.! :                                           ",
"                                      ( H 6.~ p.Z.(..X}.!.n.!.;X3X%X.X.X-X>X:X_.a.p.F                                           ",
"                                      }   z.} _ 6.b.m.b.>.s.!.}.%X}.m.{.}. X X~.N.R.                                            ",
"                                            8.! N >.2.>.a.W h E 1.s.b.v.m.Q.E.~.^.O.[                                           ",
"                                            _ Y f j Z >.n.i.g 7 U x.n.E 1.a.a.~.Z.I +.                                          ",
"                                            3 x f f M W i.x.l.p.x.^.W.U M 1.f.z.x [ I.                                          ",
"                                            4 x f c M g G U U ` p.l.f.) ! 6.g.) 4 #.I.                                          ",
"                                              H p x c f $ . . X X @ Y ) 8.f.g.H K #.                                            ",
"                                                i p g c M 8 @ O @ S i._ u.g.g.                                                  ",
"                                                d i p x T R Q ' 2.c.x.} 8.g.                                                    ",
"                                                g q i x U g w d g 6.l.@.} f.                                                    ",
"                                                  q 1 p G c T W 2.i.i.u.` j.                                                    ",
"                                                  q 2 1 c Y R W y.z.z.{ { z.                                                    ",
"                                                    1 > 1 d d f U } { ( u.g.                                                    ",
"                                                    7 2 < < < 4 i a H ~ | ~                                                     ",
"                                                    n t w 3 d a H x c T N                                                       ",
"                                                  B ,.*.C y z 0.F./ *.,.4.4.                                                    ",
"                                                  m *.A *.b 9.@XF.A 4.,.4.w.5.                                                  ",
"                                                  t u n C m / K.9.*.w.=.*.=.=.                                                  ",
"                                                  6 6 6 m *.C :.=.w.4.m b B A                                                   ",
"                                                u b u % r m A =.,.,.*.r r B =.                                                  ",
"                                                B *.B   & u B =.A B b   C w.r.                                                  ",
"                                                ;.*.b   % u B A A C b     -.t.                                                  ",
"                                              :.e.4.    % u B A A C m     b r.D.                                                ",
"                                              0.K.H.    & u B A *.*.C     m D.G.                                                ",
"                                              e.$X      9 m A :.=.=.;.      F.$X                                                ",
"                                              F.OX      6 m A 0.:.<.*.      C.$X                                                ",
"                                              |.OX    = 9 w y k n m n u     V.OX                                                ",
"                                              K.7X    % w w r u b m m u       @X                                                ",
"                                              C.#X    % e 0 6 0 0 u n u     |.7X                                                ",
"                                              M.K.    % y y & + % y n u     |.@X                                                ",
"                                              V.      % y y &   @ 0 b u     H.G.                                                ",
"                                              V.      & t 0 6   + 6 u u       V.                                                ",
"                                                      & r 0     + & y u                                                         ",
"                                                      & r 0       % r y                                                         ",
"                                                      % 0 0       @ 0 t                                                         ",
"                                                      @ 6 0       + & 0                                                         ",
"                                                      @ 6         + % 6                                                         ",
"                                                      & 0 y       + & r                                                         ",
"                                                      & r t       @ 9 u                                                         ",
"                                                      6 N         , 0 u                                                         ",
"                                                      e.V.        y q.                                                          ",
"                                                      z z           z                                                           ",
"                                                      , 9           ,                                                           ",
"                                                      0 *           % y                                                         ",
"                                                    e 6             % y                                                         ",
"                                                  9 u                 y y                                                       ",
"                                                  9 w                 6 y                                                       "
};
