/* XPM */
static char *player_collec_1_test[] = {
/* columns rows colors chars-per-pixel */
"64 64 221 2 ",
"   c None",
".  c #0C0909",
"X  c #070707",
"o  c #130C0D",
"O  c #1C1B1B",
"+  c #181617",
"@  c #241A1A",
"#  c #331D11",
"$  c #3A2112",
"%  c #211F20",
"&  c #242323",
"*  c #2B2725",
"=  c #2C2A2A",
"-  c #332A27",
";  c #352D2B",
":  c #3A2926",
">  c #3B302C",
",  c #3B3432",
"<  c #3E3B39",
"1  c #333030",
"2  c #45230F",
"3  c #55270D",
"4  c #482A17",
"5  c #552D14",
"6  c #5C2D11",
"7  c #522F18",
"8  c #4F311C",
"9  c #54311B",
"0  c #5E361B",
"q  c #63361B",
"w  c #6A3B1C",
"e  c #663719",
"r  c #743B15",
"t  c #7B3D15",
"y  c #733C1A",
"u  c #783E18",
"i  c #492C26",
"p  c #442927",
"a  c #43312D",
"s  c #4C322A",
"d  c #5D3A22",
"f  c #57392C",
"g  c #443532",
"h  c #4B3632",
"j  c #4A3934",
"k  c #433E3B",
"l  c #473A36",
"z  c #533C35",
"x  c #5A3C35",
"c  c #543C39",
"v  c #5D3C3A",
"b  c #543531",
"n  c #683E21",
"m  c #643E38",
"M  c #7E431D",
"N  c #7B4019",
"B  c #55423D",
"V  c #5C433C",
"C  c #5C4437",
"Z  c #4F413F",
"A  c #6C4123",
"S  c #68462C",
"D  c #724222",
"F  c #774A2C",
"G  c #684539",
"H  c #754A3A",
"J  c #5C3C42",
"K  c #4D4B4B",
"L  c #494747",
"P  c #5D4541",
"I  c #5E4A43",
"U  c #524D4A",
"Y  c #524743",
"T  c #5C534D",
"R  c #5A5552",
"E  c #585657",
"W  c #634541",
"Q  c #6D4B45",
"!  c #674946",
"~  c #744B46",
"^  c #6E534B",
"/  c #6A544A",
"(  c #74564B",
")  c #7D554B",
"_  c #655957",
"`  c #755E5B",
"'  c #785955",
"]  c #7F4B53",
"[  c #68615B",
"{  c #7C635B",
"}  c #75645B",
"|  c #5E5D60",
" . c #665F60",
".. c #686769",
"X. c #796865",
"o. c #79736C",
"O. c #736F71",
"+. c #787676",
"@. c #6A6B72",
"#. c #833F14",
"$. c #8D4415",
"%. c #84431A",
"&. c #8A4718",
"*. c #994C1A",
"=. c #92491A",
"-. c #9F531F",
";. c #A4521B",
":. c #AC561D",
">. c #B45A1E",
",. c #BC5E1E",
"<. c #B0571C",
"1. c #A14E19",
"2. c #905525",
"3. c #AE5C25",
"4. c #B4672C",
"5. c #C5631E",
"6. c #CB6C23",
"7. c #C36521",
"8. c #D26D21",
"9. c #804B4C",
"0. c #84524B",
"q. c #855755",
"w. c #945E57",
"e. c #82645B",
"r. c #8B635B",
"t. c #86675B",
"y. c #97665A",
"u. c #946549",
"i. c #A87B5B",
"p. c #AB7149",
"a. c #945E67",
"s. c #836B65",
"d. c #886865",
"f. c #956B67",
"g. c #8C7165",
"h. c #8B726B",
"j. c #86756B",
"k. c #927266",
"l. c #9D7A6C",
"z. c #96766B",
"x. c #867774",
"c. c #957B71",
"v. c #9B7B73",
"b. c #997777",
"n. c #A36D66",
"m. c #A37C75",
"M. c #A57978",
"N. c #B17D75",
"B. c #C17A43",
"V. c #8B867E",
"C. c #9B8175",
"Z. c #96837D",
"A. c #B68562",
"S. c #AD837B",
"D. c #A8887A",
"F. c #B38B7D",
"G. c #A5826E",
"H. c #C89874",
"J. c #D19E76",
"K. c #D5A27B",
"L. c #DAA77E",
"P. c #7B7C82",
"I. c #7F8289",
"U. c #848382",
"Y. c #8A8584",
"T. c #898889",
"R. c #8D9199",
"E. c #979597",
"W. c #928489",
"Q. c #A58D83",
"!. c #A98888",
"~. c #B28C85",
"^. c #B18788",
"/. c #AB938A",
"(. c #B5968C",
"). c #BC9689",
"_. c #B99A95",
"`. c #AF9B97",
"'. c #BEA39A",
"]. c #BDA297",
"[. c #9B9EA3",
"{. c #BCA8A7",
"}. c #C3978B",
"|. c #C29595",
" X c #C49C97",
".X c #C4A49C",
"XX c #CCA29A",
"oX c #C4A99E",
"OX c #C7A296",
"+X c #D1A79B",
"@X c #D9AA84",
"#X c #E1AF86",
"$X c #E3B48C",
"%X c #EABA90",
"&X c #CF9FA0",
"*X c #C3AAA3",
"=X c #CCACA4",
"-X c #CCAAA7",
";X c #D2ADA4",
":X c #D5AEA7",
">X c #CEB2A9",
",X c #D5B1A6",
"<X c #D3B3AB",
"1X c #DBB5AC",
"2X c #DDB9AD",
"3X c #D8B2A6",
"4X c #D7AEB2",
"5X c #CAB5B2",
"6X c #DBBBB3",
"7X c #D8B7B5",
"8X c #E1BCB4",
"9X c #DEC1B9",
"0X c #E5C3BB",
"qX c #E8C4B9",
"wX c #E9C8BE",
"eX c #DBC4C2",
"rX c #ECCAC4",
"tX c #E8CBC7",
"yX c #EDD0CE",
"uX c #F2D1CE",
"iX c #F3D6D3",
/* pixels */
"                                                          +.U.T.R.[.E.E.E.                                                      ",
"                                                    P.+.@...+.P.T.T.P.R.I.P.U.                                                  ",
"                                                ..E E L U  .O.Y.E.E.Y.T.......+.                                                ",
"                                              ..E E E j.b.Q.{.5XeXeX7X*X/._ U ..U.                                              ",
"                                            +.E | o._.>X7X9XtXtXiXiXyXyXtX5Xj.U O.T.                                            ",
"                                          Y.E L x.'.;X1X0XtXtXtXuXuXuXiXiXiX9Xx.E o.E.                                          ",
"                                          o.k E /.OX+X3X6X0XtXtXtXtXtXtXtXuXiX7Xo...o.                                          ",
"                                        x.R , j.).}.OX+X1X8X0X0X0XqXqXqXqXqXwXtX`._ E U.                                        ",
"                                        o.1 Z D.F.).}.XX;X1X2X2X1X2X2X2X2X2X8X6X>XX.E +.E.                                      ",
"                                      V.U & T F.F.).OXOXXXXX;X,X,X,X3X3X1X2X2X<X<XZ.L _ U.                                      ",
"                                      [ = & I G.D.).XX;X;X;X;X;X;X;X;X1X6X6X6X<X,X/.k L ..Y.                                    ",
"                                        % + I l.F.(._.-X:X<X<X>X<X<X<X*X*X*X*X>X>XQ.; = L +.                                    ",
"                                      < & + V l.c.s.X.` j.!._..X X).c.' _ _ } Q.oXC.* + < ..                                    ",
"                                      < + + ^ g.P a : : : V f.S.S.f.W x C ^ { h.].Q.* + = L                                     ",
"                                      , + & g.{ a s i s i i ~ y.y.) G G H ) k.Q.'.'.< + & =                                     ",
"                                      U & ; c.t.s p g ; : p x m.S.~ G ~ ' ) ~ c.*X*XL + + +                                     ",
"                                        > , C.c.( V P g c x ^ _.*X) G Y ; ! r.m.*XoXU ; @ +                                     ",
"                                        / B C._.D.f.r.q.q.d.c..X7Xm.f.d.' b.(..X<XoX_ Q @ &                                     ",
"                                        ' V c.OX.X/.k.e.h.Q.~. X6X_.f.q.f.S.-X9X9XoXe.r.@ 1                                     ",
"                                    Y Y ( x g.~.OXoX'._._.~.~.|.7X4X Xm.m.).<X6X1X'.q.r.;                                       ",
"                                  } T Y g./ e.l.S.).XX XS.M.^.|.4X4X XXX-X;X<X;X-X(.r.c.T                                       ",
"                                  }     c.{ ' r.f.N.N.n.9.f.^.|.&X>X|.N.}.|. X.X.XQ.c./.                                        ",
"                                  g.      t.( Q 0.y.w.0.w.q.m 0.y.f.m.n.n.N.F.(.(.Q./.x.[                                       ",
"                                          e.^ x x ~ ~ q.M.d.c : i x b.N.0.y.z.c.l./.(._ E +.                                    ",
"                                          B I x b x G ' b.b.h.W ! b.`.!.Q m q.r.k.Q.e.U +.Y.                                    ",
"                                          * l c x V G ! e.f.c.b.M.Q.!.Z.` x ( e.c.g.- [ Y.U.                                    ",
"                                          k Y x c V V h h s p x ! ( g.s.` ^ e.t.C.T , o.V.                                      ",
"                                              j x V P x @ . X . . . @ P ( { g.f.h.k T o.                                        ",
"                                              g h x c W W i @ o o + J c.' { h.c.j.                                              ",
"                                                a j j V ! ~ 9.] q.a.M.D.X.{ h.c.                                                ",
"                                                a g h B ! G b b x ! g.c.s.{ s.h.                                                ",
"                                                  > h B P x x x x ~ d.h.s.' X.                                                  ",
"                                                  ; ; j I P Q ' q.h.h.h.h.' {                                                   ",
"                                                    - - B ! W ~ ] d.b.c.} _                                                     ",
"                                                      * ; h h h c W { ` /                                                       ",
"                                                        = = ; ; > g Z Y                                                         ",
"                                                        d s l k k x C S                                                         ",
"                                                      =.,.,.>.4.4.6.6.6.2.                                                      ",
"                                                    r 8 8 d n A S S C f D >.                                                    ",
"                                                    0 r %.5.8.6.B.G.D.3.;.%.                                                    ",
"                                                    F d $ 9 n A S S S 9 F p.                                                    ",
"                                                    i.u.2 r ;.<.>.>.1.  A.#X                                                    ",
"                                                  A.i.    4 0 w A n q   u.K.                                                    ",
"                                                  H.J.    r ;.<.>.7.;.  u.K.%X                                                  ",
"                                                  H.K.    4 0 n D A D     H.#X                                                  ",
"                                                  H.    7 $.;.>.,.7.>.    A.L.                                                  ",
"                                                  K.    # 4 q w n A n       L.                                                  ",
"                                                  @X    $ 4 e %.%.D d       $X                                                  ",
"                                                  H.    $.;.y 9 q -.6.    K.$X                                                  ",
"                                                  i.    4 w y 3 6 N A 9   H.H.                                                  ",
"                                                  i.    $.;.*.  3 %.<.,.    i.                                                  ",
"                                                        7 M w     e M q                                                         ",
"                                                        N *.$.    e =.;.                                                        ",
"                                                        r =.      6 *.M                                                         ",
"                                                        7 y       2 9 M                                                         ",
"                                                        r %.      2 #.=.                                                        ",
"                                                        e %.      2 e %.                                                        ",
"                                                        w y       2 e y                                                         ",
"                                                      6 =.*.      6 r =.                                                        ",
"                                                      $ q q       $ 7 q                                                         ",
"                                                        q r         7 q                                                         ",
"                                                      & =           + =                                                         ",
"                                                      = &           + = =                                                       ",
"                                                      &               &                                                         "
};
