/* XPM */
static char *player_collec_2[] = {
/* columns rows colors chars-per-pixel */
"64 64 240 2 ",
"   c None",
".  c #12100D",
"X  c #1E1915",
"o  c #191512",
"O  c #110F0C",
"+  c #231B16",
"@  c #251D19",
"#  c #2A1D19",
"$  c #261A16",
"%  c #321D17",
"&  c #2D221C",
"*  c #25201B",
"=  c #32241D",
"-  c #3A261D",
";  c #2F2720",
":  c #2F2821",
">  c #322421",
",  c #3B2520",
"<  c #342A23",
"1  c #3B2D24",
"2  c #3D322A",
"3  c #3E3125",
"4  c #45231D",
"5  c #442B23",
"6  c #4A2C25",
"7  c #472C27",
"8  c #542E24",
"9  c #4B3226",
"0  c #43352B",
"q  c #4C332B",
"w  c #4C3A2D",
"e  c #443529",
"r  c #53352C",
"t  c #5C3B2E",
"y  c #57372C",
"u  c #443930",
"i  c #4C3D33",
"p  c #4F3631",
"a  c #5C3C32",
"s  c #523D33",
"d  c #65372D",
"f  c #623E33",
"g  c #6B3C35",
"h  c #4E4239",
"j  c #4F4137",
"k  c #544434",
"l  c #594534",
"z  c #5B4836",
"x  c #53443B",
"c  c #5B423B",
"v  c #5C4A3B",
"b  c #57493F",
"n  c #564937",
"m  c #644235",
"M  c #63443A",
"N  c #6B453A",
"B  c #624D3C",
"V  c #6C4639",
"C  c #724B3D",
"Z  c #74463B",
"A  c #63523D",
"S  c #77513E",
"D  c #5B4C42",
"F  c #584C43",
"G  c #5E5245",
"H  c #694C43",
"J  c #734D42",
"K  c #7B4E44",
"L  c #645244",
"P  c #6A5445",
"I  c #64544A",
"U  c #6D5B4B",
"Y  c #6B5749",
"T  c #755245",
"R  c #7C5445",
"E  c #745449",
"W  c #7D5549",
"Q  c #715C4C",
"!  c #7C594E",
"~  c #6E5D51",
"^  c #765D51",
"/  c #73614D",
"(  c #6F6053",
")  c #746252",
"_  c #7A6556",
"`  c #7A6859",
"'  c #6F624B",
"]  c #845444",
"[  c #835549",
"{  c #845A4C",
"}  c #8B5B4E",
"|  c #93584B",
" . c #8B5D53",
".. c #865B52",
"X. c #935E52",
"o. c #9A5953",
"O. c #814C42",
"+. c #97634F",
"@. c #856153",
"#. c #8C6354",
"$. c #836C5C",
"%. c #8C675A",
"&. c #936354",
"*. c #9A6454",
"=. c #946954",
"-. c #94655A",
";. c #9C655A",
":. c #966A59",
">. c #9B6B5C",
",. c #9C6B55",
"<. c #9E715D",
"1. c #817159",
"2. c #A26C5D",
"3. c #A7685B",
"4. c #A3725E",
"5. c #AA725D",
"6. c #B1725D",
"7. c #9D6D61",
"8. c #897565",
"9. c #987466",
"0. c #8E786C",
"q. c #A56C63",
"w. c #AB6D62",
"e. c #A76361",
"r. c #A57462",
"t. c #AA7463",
"y. c #AC7B65",
"u. c #AD7369",
"i. c #AC7C69",
"p. c #A47869",
"a. c #B37564",
"s. c #B37C65",
"d. c #BA7B64",
"f. c #B47C6B",
"g. c #BB7C6C",
"h. c #B5766B",
"j. c #B97C72",
"k. c #B17169",
"l. c #9A8673",
"z. c #95816C",
"x. c #AE816C",
"c. c #A4816E",
"v. c #B4826B",
"b. c #BB846D",
"n. c #BC896E",
"m. c #BC8367",
"M. c #A28674",
"N. c #B58571",
"B. c #BB8572",
"V. c #BC8A73",
"C. c #BA8678",
"Z. c #B1907A",
"A. c #C4856B",
"S. c #C4896B",
"D. c #C98C6E",
"F. c #C5856B",
"G. c #C38374",
"H. c #C28B74",
"J. c #CB8C72",
"K. c #C48B7D",
"L. c #C9877A",
"P. c #D1887E",
"I. c #CD9273",
"U. c #C3937D",
"Y. c #CC957C",
"T. c #C69074",
"R. c #D29475",
"E. c #D4957B",
"W. c #D49A7B",
"Q. c #D99D7E",
"!. c #DCA07F",
"~. c #BE8D82",
"^. c #AA9685",
"/. c #B3A38E",
"(. c #BEB2A9",
"). c #C88C83",
"_. c #D28C81",
"`. c #CC9284",
"'. c #C99A87",
"]. c #D49384",
"[. c #D49F83",
"{. c #DB9E82",
"}. c #D3958A",
"|. c #D29A8B",
" X c #DB9B8D",
".X c #D89786",
"XX c #DD9D90",
"oX c #E09D91",
"OX c #CCA28D",
"+X c #DDA284",
"@X c #DBA38C",
"#X c #DDA98C",
"$X c #D5A78B",
"%X c #DDAC92",
"&X c #D8A896",
"*X c #DDB295",
"=X c #DBB49A",
"-X c #CFAD98",
";X c #E2AB8B",
":X c #E2A787",
">X c #E2B08D",
",X c #E2A594",
"<X c #E3AD92",
"1X c #E5AA9A",
"2X c #E3B393",
"3X c #E3B59B",
"4X c #E8B897",
"5X c #C7ADA3",
"6X c #D9B9A5",
"7X c #D3B9AE",
"8X c #E2BCA3",
"9X c #ECBDA5",
"0X c #E6BAA6",
"qX c #E9B9A6",
"wX c #E6C19D",
"eX c #DAC9B7",
"rX c #D4C8B7",
"tX c #E6C3A5",
"yX c #E2C4AC",
"uX c #E9C7A9",
"iX c #E2C5B3",
"pX c #E4CAB3",
"aX c #E6CCB7",
"sX c #E9D5B4",
"dX c #E5D5BB",
"fX c #E9DABB",
"gX c #E8D6B7",
"hX c #EDCDAD",
"jX c #DCD2C2",
"kX c #D3CBC0",
"lX c #E4D5C3",
"zX c #E3DCCA",
"xX c #E5DAC3",
"cX c #E2D7C9",
"vX c #EBE4CB",
"bX c #E7E1CB",
"nX c #E6E3D2",
"mX c #E8E3D3",
"MX c #EAEBDA",
"NX c #EAE8D6",
/* pixels */
"                                                                                                                                ",
"                                                                                                                                ",
"                                                                                                                                ",
"                                                                                                                                ",
"                                                                                                                                ",
"                                                                                                                                ",
"                                  /.l.$.) U D i 0 s E #.r.i.v.V.V.N.N.x.c.M.                                                    ",
"                                /.M._ _ _ ` Y D Y #.r.v.H.I.W.$X$X$X&X=X=X6X5X                                                  ",
"                            ^.^.M.` Q ) ` $.~ %.i.T.W.+X;X4XtXhXsXsXfXfXvXvXvXzX                                                ",
"                          l.l.z.$.Q ` ) ~ ) $.x.Y.+X;X4XwXtXhXgXfXfXfXbXNXMXMXMXmX                                              ",
"                        0.8.$.$.` ) ) U U ` 8.V.@X2X4X4XwXwXwXtXhXsXsXfXdXdXlXvXNXnX                                            ",
"                      8.$.$.Q ` ~ I L L I ~ 8.U.<X2X2X2X2X2X2X>X4XtXpXpXsXdXdXfXbXvXxX                                          ",
"                    0.` 8.Y U ) G F F x D L $.'.2X2X;X;X;X;X;X;X;X3X4X8X8X8X8XuXaXfXxXeX                                        ",
"                  0.` _ ) L ~ L D h i h D I $.U.<X;X;X;X+X:X;X+X;X#X@X#X<X3X8XuXiXpXsXgX                                        ",
"                  ( ) ) Y Y Y D j 0 0 h I I _ V.+X!.!.!.!.+X+X+X+X+X;X2X*X*X*X=X4XtXhXpXiX                                      ",
"                U U ) / L L v x 0 2 u F D v ^ v.H.I.R.R.W.Q.Q.Q.{.Q.W.{.#X2X2X2X%X[.$X=XuXyX                                    ",
"                U U ) Y v v k i 2 0 i x h x Y 7.s.S.J.I.I.R.W.R.R.R.I.Q.;X2X2X%X*X2X*X=X8XuX                                    ",
"              U U U Y v v v i < 2 i x x x i L %.y.b.b.S.S.J.I.D.I.R.R.W.[.%X%X3X8XtXtX4X*X6X                                    ",
"              / U U L l v v w 2 i x F I x i Y %.i.y.s.m.S.D.S.I.R.W.Q.W.[.'.U.|.|.'.&X3X*XuXdX                                  ",
"            ` / / U v v v k 0 0 i b I D i x I @.=.,.5.m.S.A.A.D.R.W.W.{.s.=.#.@.E R :.V.$X3X6X                                  ",
"            ) U / B v v v w e i D ~ x 2 0 x L Q { =.5.S.S.A.d.S.J.J.Y.v.R m a 0 7 7 r { K.|.c.`                                 ",
"            U L A B B v s w k L I u 2 u h x v Y { <.v.S.J.D.S.S.A.b.4.R M m r 6 6 7 6 V i.V.^                                   ",
"          ` Y B z B B k 0 k v x 1 < 2 2 0 0 c E <.V.Y.I.W.R.D.S.b.4.R m a r 7 7 0 r r V =.#.Y                                   ",
"          / Y B z B B i i x k < ; ; : & = 5 c @.N.[.+X+X+XW.I.n.y.R m t 7 = @ % 7 6 t C } J                                     ",
"          / A v z Y B w i i < # * @ @ & < 0 B #.N.W.+X:X:X+XW.n.=.C t 7 = u G 0 - 6 t { p.E                                     ",
"        1.Y B l A Y v w w 0 = + + + @ & < 0 Y @.y.I.Q.{.+X@X[.n.=.S f r 0 ; I E 6 r J r.&Xp.                                    ",
"        ' z z l v Y l w w < = & = & > < = 0 Y R 4.S.R.Q.{.+X+XY.y.,. . .%.M E  .J ^ 7.V.*XiX                                    ",
"        A z z l v L l s 9 7 7 4 7 r a 0 < i H R 2.m.D.R.W.{.;X<X@XU.N.f.t.2.,.,.-.p.'.$X%X6X                                    ",
"        k k k k B B l r 9 t t t r m V M w v E R =.s.A.D.W.{.:X2X4X2X#X[.V.t.*.X.-.'.8XtX<X%XiX                                  ",
"      A k k w k B v k w t m f 8 t C R R B B ^ E } 5.6.d.F.J.{.;X2X4X9X9X%Xt.[ [ N.*X9X9X<X,X<X0X                                ",
"      v k w e w v l r r f g 8 8 V [ *.,.{ B ~ ^ [ *.3.a.g.A.J.W.{.:X<X4X9X%XU.|.8XqX,X].{.,XXX&X                                ",
"      G k 1 < 0 c 0 0 r V d 8 V [ | s.s.=.M M H E +.t.s.d.g.A.A.J.J.W.W.@XqXhXhXuX@Xa.g..X{.].].&X                              ",
"      G 0 = = < k < < 0 C [ S } +.+.b.v.4.R a M R 4.f.s.d.d.d.d.a.d.A.G.K.@X9XuX3Xh.3.L._.].K._.}.                              ",
"    ( v < & & < 2 + & < r  .2.t.5.2.s.n.v.<...$.7.i.v.s.s.d.a.a.3.3.5.a.g.].,X1X].| q._.P.P. X1X{.                              ",
"x D v v 0 < 2 < < + + = = f ,.H.K.s.2.n.b.y.y.x.N.V.b.v.f.s.6.5.2.*.*.2.g.K.{..Xg.o.o.a.3.o.3..X&X                              ",
"D D w 1 2 & < u < + + & # 6 =.b.G.N.N.H.b.v.y.x.V.H.V.v.s.y.5.5.2.*.*.2.a.G.G.G.K.`.| d 4 4 | L.L.j.                            ",
"  x 0 + + X @ 2 ; + X + + # a 2.f.g.f.b.b.f.i.x.V.H.V.b.s.t.t.t.2.=.X.=.2.q.q.a.}.1X}.7.V 5 } h.h.2.                            ",
"  e 1 & @ @ + * + X         # a 7.N.H.N.b.s.i.v.N.V.V.b.f.y.t.t.4.=.} } X.X.=.t.}.1X,X1X`.} 2.h.j.q.                            ",
"w w = & 1 2 < + o O             r #.f.N.b.y.y.i.v.v.N.b.f.y.r.r.4.=.#.} [ R [ u.`.{.,X1X1X].3.k.j.u.                            ",
"k w < + # < < + .                 , f ,.b.f.4.r.y.v.b.b.f.y.t.4.4.,.:.=.{ R [ 2.K.}.{.{.oXG.2.q.g.i.                            ",
"i < < < @ < & X O                   7 Z t.v.4.,.r.i.y.y.f.y.t.4.4.r.r.r.7.-.X.X.q.q.h.G.q.Z u.}.|.~.                            ",
"  & + & @ X X o                       M  .i.r.,.,.<.r.r.t.t.r.4.t.v.N.V.C.C.j.-.[ K [ O.d g C.`.}.~.                            ",
"    & X                                 a @.<.:.=.:.,.,.2.2.2.r.i.v.N.V.K.`.K.-.R K K o.e.e.C.K.K.~.                            ",
"                                          p W :.=.=.=.=.-.,.,.,.r.i.i.f.N.N.f.-.} [ V g g [ q.).`.C.                            ",
"                                            0 E #.{ } #.#.=.-.-.,.r.r.r.u.r.2.,.-.{ f 5 - J -.u.}.).                            ",
"                                              5 H W R [ {  .=.-.,.,.,.:.#.{ [ R S K V 6 %  .j.G.`.~.                            ",
"                                                , M V J R { ..#.#.#.#.{ C V C W { [ V 6 5 X.`.}.`.p.9.5XrXrX                    ",
"                                                  , p f V J R W [ { R C m m E -.,.#.R M p  .h.G.G.j.'.0XlXnX(.                  ",
"                                                    > 0 a m V C J R J m t m J  .,.=.{ J a  .q.u.j.K.6XlXzXnX5X                  ",
"                                                      = 5 r a f m f a r 9 a V [ } } } K M  .q.u.j.&XaXzXnXnX5X0.                ",
"                                                          < 9 9 9 7 7 - - 7 r m C C K V a ..q.f.C.6XxXnXnXnXeXeXjX7X            ",
"                                                          # > , = = = & & & - 7 r r r 7 0 ..r.N.|.iXxXnXnXnXeXmXMXnXjX^.        ",
"                                                            @ # & & & # # # @ & > > > > c %.h.K.&X8XiXlXzXmXnXnXMXMXmX7XrXrX    ",
"                                                              X @ # # # # + + &         H -.q.q.G.@X*X6XiXxXnXnXnXNXNXrXjXmXkX  ",
"                                                                  + &                   c  .q.a.g.G.`.Y.&X6XiXaXaXzXmXzXjXzXcX(.",
"                                                                                        c -.u.h.q.a.f.f.N.|.&X&XOX-XiXeXaXlXjX5X",
"                                                                                        s W 2.q.-.-.2.2.t.f.N.N.N.N.'.OXOX=X6X5X",
"                                                                                                                                ",
"                                                                                                                                ",
"                                                                                                                                ",
"                                                                                                                                ",
"                                                                                                                                ",
"                                                                                                                                ",
"                                                                                                                                "
};
