/* XPM */
static char *wall_bot_left[] = {
/* columns rows colors chars-per-pixel */
"64 64 67 1 ",
"  c #000000",
". c #130F0A",
"X c #261E13",
"o c #2A2116",
"O c #2E251A",
"+ c #2F281C",
"@ c #362E23",
"# c #392F21",
"$ c #3D3223",
"% c #413525",
"& c #473A2A",
"* c #4A3D2C",
"= c #4B402F",
"- c #56452F",
"; c #5C4A33",
": c #665137",
"> c #69563D",
", c #6C583E",
"< c #705C42",
"1 c #756045",
"2 c #796346",
"3 c #806A4D",
"4 c #8A6E4A",
"5 c #8D714E",
"6 c #94744E",
"7 c #8E7350",
"8 c #937651",
"9 c #967954",
"0 c #9C7B54",
"q c #937B5A",
"w c #9A7D58",
"e c #A17E55",
"r c #9F8059",
"t c #A38157",
"y c #A5835A",
"u c #A6885F",
"i c #A58660",
"p c #A68B67",
"a c #AC8C63",
"s c #AA8F6B",
"d c #B08F65",
"f c #AE9067",
"g c #AC916C",
"h c #B29166",
"j c #B4936A",
"k c #B8976D",
"l c #BA996E",
"z c #B69872",
"x c #BD9D72",
"c c #BB9F7A",
"v c #BFA177",
"b c #BCA17B",
"n c #C09F75",
"m c #C1A176",
"M c #C1A27A",
"N c #C7A87D",
"B c #C9AA7F",
"V c #C2A781",
"C c #C3A882",
"Z c #CBAC81",
"A c #CEAF88",
"S c #CEB186",
"D c #CEB088",
"F c #D0B187",
"G c #D2B489",
"H c #D3B88D",
"J c #D5B890",
/* pixels */
"                                            Ogzgssgssppsssssssss",
"                                            @VDZCCMMxxMMVZZCVCZZ",
"                                            @CSCCMMMMxMCZCCCVZZM",
"                                            @CDCCMMMMMZZZZZZZZZM",
"                                            @CZCCNMMMCZZZZZZZZZC",
"                                            @VZCZZCMVZZZZZCZZZVM",
"                                            @bZCCZZZCCVCCVCZZAMM",
"                                            @cZCVZZCCCMVZZZGGDCM",
"                                            @bZZZZZZZZCVZADGDZZD",
"                                            @bZZZZMMZCMVZZZAZZDG",
"                                            @bZZZZVbxMMZZVVZZCGJ",
"                                            +sxxxxxljjkljxxjjjxx",
"                                            X600tuuuttttee0e0666",
"                                            o6teeuu00ttte0886666",
"                                            o0uuuut000eye0800yyt",
"                                            otutyyyyeetyytyuuadu",
"                                            Oyuee000tyyttyuuuutt",
"                                            .,w09988999555578544",
"                                             *xvvvmvvxjauuuuuyyy",
"                                             *xmmvxxxxxjjjjhhhhh",
"                                             %ahjjjjjjjjhaaaaaaa",
"                                             &xmMMmvxmxxxxxxxxvm",
"                                             *MBBBBBBBBBNNNMMNBB",
"                                             =MBZZZBBBZZZZZZZZZZ",
"                                             =NBZZZZBBBZZZZZZZZZ",
"                                             =NBZZZZBBBZZZBBZZZZ",
"                                             =NBZZZZZZZZZZZZZZZZ",
"                                             *MNNBBBBBBBBBBBBBBB",
"                                             *MMNNMMMMNZZZSGGGGF",
"                                             &xvmmmmmZZZZZSSFGGG",
"                                             &xxvxxxxMBMMMNMMMMM",
"                                             *xxxxxxxMBMNNBNNMMM",
"                                             &xxxxxxxMNMNBNNNMMm",
"                                             &xxxxxxxMMMNNNMNMMM",
"                                             ;xxmmmmxMMMMNMMMMMM",
"                                            .qmxvmmvxnmmMMMMMMMM",
"                                            OxmmmMmmxmmmMMBZZZBM",
"                                            OMGSSSZZZSFFGGGHHGGG",
"                                            OxmmxxxxxxxxmmMMMmmm",
"                                            Ojxxxxxxxxxxxmmmxxxx",
"                                            Ofxxxxxxxxxllllxxxxx",
"                                            oamxxxxxxxxxlllllxxx",
"                                            Xyxxxlklxxjjhaaaauua",
"                                            Xyxxhkllhhuuuuyyytty",
"                                            Xyxljlxxjjjhhdaaaaaa",
"                                            XimxxxxxxMMMmmmmMmxx",
"                                            XaMxxxxmxMMMMMMMMmvx",
"                                            ogxkjjxMnxnxxxkjjjjj",
"                                            Oajaajxmxxxljjjjjhjj",
"                                           O;yauaaaaajxjhhddaaaa",
"                                           %,090te064ujjjjjhdau0",
"                                           $>yyyuuy08axmnxxlkjdy",
"                                           $>ajjjjhaalxnxxxllljh",
"                                           #>aMZZZZBBZZBNMMMMMMM",
"                                           #>xGGGGGGFGGGGFFGZZZS",
"                                           $<xZZNNZZBZZZZZBZBMMM",
"                                           &2jljjjjjjjjjjjjjjhjj",
"                                           *3hjjjjjjjjjhhjjjjjjj",
"                                           -7jljjjjjjjjjjjjjjjjj",
"                                           ;0kkhdadhddjjjjjjjjjj",
"                                           :yjauyuuuyyuaaauuaaaa",
"                                           1jay0988875577777789r",
"                                           3BMxxxxxxxxxxxMMMMjjj",
"                                           qZZBBBBBBMMMMMBZZBxkj"
};
