/* XPM */
static char *map_L[] = {
/* columns rows colors chars-per-pixel */
"64 64 110 2 ",
"   c #2C251D",
".  c #342C22",
"X  c #392E22",
"o  c #3B3226",
"O  c #3E3428",
"+  c #423526",
"@  c #403629",
"#  c #463928",
"$  c #4D3D2A",
"%  c #503F2C",
"&  c #59452F",
"*  c #574530",
"=  c #594630",
"-  c #5E4932",
";  c #634C34",
":  c #695137",
">  c #665139",
",  c #6C543A",
"<  c #6E583D",
"1  c #70573B",
"2  c #74593D",
"3  c #7A5D3F",
"4  c #735B40",
"5  c #7A5F41",
"6  c #7C6243",
"7  c #7F6649",
"8  c #826544",
"9  c #886745",
"0  c #876846",
"q  c #8B6946",
"w  c #856A4A",
"e  c #8C6D4A",
"r  c #916F4B",
"t  c #8E704E",
"y  c #95724D",
"u  c #99744E",
"i  c #8D7250",
"p  c #937552",
"a  c #9A7650",
"s  c #977956",
"d  c #9D7A54",
"f  c #957B5A",
"g  c #9D7E59",
"h  c #A17B53",
"j  c #A37F58",
"k  c #9E805C",
"l  c #A78057",
"z  c #A4825C",
"x  c #AA855C",
"c  c #AF885F",
"v  c #9D8463",
"b  c #9D886C",
"n  c #A28663",
"m  c #A68863",
"M  c #AC8B64",
"N  c #A48B6A",
"B  c #AD8E69",
"V  c #B28E65",
"C  c #AD916D",
"Z  c #B59067",
"A  c #B3936C",
"S  c #BC986F",
"D  c #AD9473",
"F  c #AE9779",
"G  c #B49672",
"H  c #B69974",
"J  c #BB9B74",
"K  c #B39B7A",
"L  c #BB9E7A",
"P  c #BEA17C",
"I  c #C09E75",
"U  c #C3A077",
"Y  c #C1A37C",
"T  c #B69F80",
"R  c #BDA483",
"E  c #BDA788",
"W  c #BEA88B",
"Q  c #C3A681",
"!  c #C6A985",
"~  c #C9AC86",
"^  c #CAAE8A",
"/  c #CDB28D",
"(  c #D1B48F",
")  c #C4AF90",
"_  c #C6B293",
"`  c #CEB492",
"'  c #C8B598",
"]  c #D1B692",
"[  c #D4B996",
"{  c #D8BC97",
"}  c #D6BC99",
"|  c #D9BE9A",
" . c #D7C09F",
".. c #DCC19E",
"X. c #DEC4A1",
"o. c #DFC8A5",
"O. c #E2C7A4",
"+. c #E1C9A6",
"@. c #E4CCA9",
"#. c #E8CFAD",
"$. c #E7D0AE",
"%. c #E9D1AF",
"&. c #E7D1B1",
"*. c #EBD5B4",
"=. c #EED8B7",
"-. c #EDD7B8",
";. c #EED9B9",
":. c #F1DCBC",
">. c #F3DFC0",
",. c #F4E1C1",
/* pixels */
"A S A G A G H H G J J H H J P L ! X.X.X.O.+.@.+.O.O.+.@.@.@.@.] J / / ^ ^ ^ ! Q L G A C A A M M n C B G P P L Q ^ ^ ^ ! Q Y Q Y ",
"A [ ..........| X.@.@.@.@.@.*.X.[ *.#.@.+.#.*.@.+.O.%.*.*.%.*.X.[ %.%.%.@.%.*.*.@.X...X.+.O.X./ L +.O.O.O.O.+.+.@.@.@.@.@.+.@.X.",
"H +.+.O.O...| } X.+.%.%.*.*.=.X.[ @.+.+.O.@.*.#.#.+.+.@.@.@.*.X.[ @.+.@.+.@.*.*.#.@.+.@.@.@.*.[ L @.@...| | X.@.@.+.O.O.+.@.%.O.",
"P @.O.+.X.| | } [ } +.+.$.*.*.X.] @.O.O.O.+.%.@.+.O.+.+.X.+.*.+.[ @.@.@.@.%.*.%.%.@.+.@.#.#.*.] L +...{ { { | +.+.O.....O.+.%.O.",
"Y @.X.X.X...| ..[ [ } @.*.=.;.X.( @.+.+.O.O.+.+.+.O.O.+.X.X.@.X.[ #.#.@.@.*.*.#.%.#.+.+.@.*.%.` H ..| | ..{ | ..O.....X.O.@.@.+.",
"L +...| ....| ..X.....@.*.=.;.X./ @.+.X.+.O.O.+.+.O.O.+.+.O.O.| ] *.%.@.@.*.*.#.@.@.@.+.#.*.*.] H ..{ [ [ { ........X.+.@.@.@.+.",
"L +.+...| ....@.$.*.@.+.@.@.+.[ / +.+.| ..+.+.@.+.O.O.+.+...X.[ / %.*.#.@.*.*.%.@.+.+.+.@.*.%.] H X.| | ..X.O.+.+.@.@.@.@.@.%.@.",
"P +.@.+.....@.%.*.*.$.%.*.=.@.} [ +.+.+...@.@.+.+.+.+.O...| +.} ^ %.%.%.@.@.%.%.@.@.+.O.+.@.#.` L O...| ..X.+.O.O.+.+.@.@.@.%.@.",
"P O.O.+.O.@.*.*.*.*.*.*.;.*.@...[ +.+.+.+.@.@.+.O.+.+...| O.%.| ! *.%.#.@.@.#.%.@.@.@.@.+.+.@.[ Q O.X...{ ..+.O...O.+.+.@.@.@.+.",
"Y +.+.*.%.@.%.*.;.:.;.-.*.*.@.} ( +.+.+.O.+.@.+.O.+.O...| ..*...Y %.#.%.*.@.%.@.+.+.@.@.+.@.@.} ! O.O...| ..+.O.O...O.@.@.@.#.+.",
"! @.O.*.*.+.%.*.;.;.*.*.@.@.$...^ +.O.O.O.+.+.+.O.O.O.O.....*...Q @.@.@.@.@.%.@.+.@.@.@.@.@.#.} / O...| ..+.+.+.O.X.O.+.+.@.@.O.",
"! +.+.*.*.X.@.*.*.*.*.*.@.+.$.X./ O...+.+.+.+.O.+.@.%.@.+.+.*.| P @.@.#.#.@.#.@.+.@.+.@.%.#.@.} ` +.O.O.+.O.X.X.O.X.X.O.O.X.@.O.",
"^ +.+.*.@.| +.*.*.*.*.*.@.@.@...[ O...+.+.+.+.O.+.%.@.+.+.O.+.[ Q @.#.%.#.@.@.@.+.@.+.+.@.@.@.[ ` +.O.O.....| | O.O.X.X.....@.O.",
"^ @.%.;.*.| o.*.*.*.;.;.=.*.@.| ] +.+.+.O.+.+.+.@.%.@.@.+.O.O.] P #.@.@.%.@.+.+.+.+.O.O.+.@.@.} ` +.O.#.O...| | O.+.+.X...| @.X.",
"/ *.*.;.*.$.%.&.*.-.;.;.;.*.@.} ] %.@.@.+.+.+.@.@.#.#.@.+.O.O.] L %.@.@.%.#.@.+.O.O.+.@.@.@.@.} ` @.+.@.@.O.O.O.+.@.@.+.O.O.#.O.",
"^ @.+.@.*.*.$.@.$.*.*.*.@.@.@.] Y ] ` ] [ ] ] ` / / / / ~ ~ ^ Y J } | | | | } | [ [ ..X.....X.` ^ O.X.X.X.X.............| X.O.] ",
"A Q ! ^ ` ] } ] ] [ [ ] ^ ^ / L p A L ! Q Y Y Y ! ! ! ! Y L B s M J G A A A A G H L Q ! Q R ! L G ^ ^ ^ ^ Q ! Y H J P Y P L J J ",
"~ @.*.*.@.@.%.*.*.*.%.%.@.@.%.` 6 A Q ^ ^ ^ ^ ( ] [ ] ] / ! m 6 H +.X.X.@.+.+.@.@.@.@.@.@.@.*.X.} *.*.*.;.*.*.@.O.@.@.@.@.X.X...",
"! @.*.$.+.+.@.@.%.*.*.#.%.#.#.` > g A J Y ! Y Y Y J P Y J G p , G *.*.$.@.@.@.@.@.@.@.@.@.@.*.X.} *.*.*.*.*.*.*.*.*.*.*.*.%.*.@.",
"Q @.@.@.@.@.+.+.@.@.%.%.@.%.%._ O 6 g n M A M M n k z z k p 4 & N @.@.@.@.@.@.@.@.@.@.@.@.@.$...} *.%.+.@.*.*.*.*.*.$.*.*.*.*.$.",
"^ $.@.+.O.+.+.+.+.@.*.%.@.#.*._ . * 6 8 e y r e 5 1 1 , , , % + v ..@.@.@.@.$.*.$.@.$.*.%.*.*.X...*.#.@.@.%.*.*.;.*.*.;.*.*.*.@.",
"^ @.+.+.O.O.+.@.@.@.@.#.@.@.%._ . = 8 y y p p e 6 3 w 6 1 6 & # n [ | X.@.@.@.%.$.*.*.%.@.*.;.X...*.@.@.@.@.*.;.:.:.:.:.;.=.*.X.",
"! %.$.@.+.@.@.@.%.*.%.@.#.#.%._ . = 8 y x V V z d q d t 2 1 - $ n / / | @.@.@.%.@.%.*.*.@.*.*.X.| *.@.@.%.#.*.:.:.:.;.*.*.*.%.O.",
"! *.*.@.@.@.#.%.*.*.#.@.#.%.%._ . - 8 y x V S A M z d e 3 2 , & n ^ / ] @.*.$.$.@.@.*.;.*.$.%...} *.*.%.*.*.#.*.*.*.*.*.$.*.*.+.",
"^ *.*.#.%.%.#.%.*.%.@.@.#.%.*._ o ; 8 e u h V S J S x u 9 8 1 & n ^ ~ ^ +.*.@.@.@.@.*.*.%.%.$.} | *.*.*.%.@.@.#.*.$.$.$.@.$.*.@.",
"] %.@.*.*.*.%.#.%.%.%.@.@.@.*.` # : y d q y V J J V x d r q 2 = n ^ ! ! ..%.+.O.@.%.%.@.$.%.%...} *.*.@.@.@.%.*.$.@.@.+.O.@.*.*.",
"} #.+.%.%.*.*.%.%.*.*.%.#.#.*.` @ , h x y y M S A V z u u q , & n / ^ ^ | @.O.@.$.%.$.@.@.$.@.} ` *.*.@.@.@.*.*.*.@.@.O.O.@.*.*.",
"[ %.@.%.@.@.%.@.@.#.*.*.*.%.*.' o , e d j r d M M x a y r 3 ; & v ] ` ` } @.@.*.*.@.@.*.*.$.@.| / *.*.@.%.*.*.$.@.@.@.@.@.*.;.&.",
"[ *.*.%.+.@.+.@.@.@.@.*.*.@.*.' X > 6 e p e 8 y p d e q 3 : = & v / ` / ` @.%.*.*.@.*.=.=.%.@.| ^ &.*.%.%.*.@.@.@.@.@.@.@.*.*.&.",
"..*.@.@.+.@.+.@.@.@.@.%.@.+.$._ . & , 8 6 2 1 5 w e 0 5 : - & & v / / / ^ X.*.*.*.%.;.=.*.$.@...^ | +.%.$.@.@.@.@.@.@.@.@.*.*.@.",
"} %.@.@.@.@.@.*.*.*.*.*.%.@.*._ . + & ; ; - - 5 2 , ; - & & + + k / / ^ ^ X.*.$.@.*.;.*.$.$.@.../ [ } @.#.+...| | | +.@.@.@.+.| ",
"P } @.@.@.X.+.+.X.X.X.X.+.@.*.W . X # $ $ $ & = & $ $ = $ + . X f P Q Q Q / } | } @.@.@.+.+.@.[ ! [ ~ ] [ ^ ! Q ! ! ] | } ] ^ ! ",
"G Y ^ / ^ ^ ^ Y H G L R ^ ` ` K b W W E R R K K D N D K D N v f z M B B C H L Y Y ^ ^ / / ` / Y A J C A A B B M B A H P L L L G ",
"} @.@.@.@.%.*.@.X.X.@.@.@.@.*.X.X.:.*.*.*.*.%.+.@.*.;.;.;.@.[ ~ C ^ ! ^ / / / ] ( [ X.X.+.@.@./ J ] ] / ^ [ } [ ~ ! ^ [ / / / ^ ",
"} %.@.@.@.@.@.@.@.@.@.@.+.+.@.X.X.;.$.@.+.@.@.+.@.*.;.;.=.*...^ C ^ ^ ^ ^ / / ] / / / ] +.+.@.] H } X.+...O.O.O...[ [ / / / ] | ",
"/ #.@.$.@.@.$.$.@.@.@.@.@.+.O...X.;.@.@.+.@.*.*.@.*.;.:.,.:.%.] L [ ] / ! / / / / ] X.X.*.*.*.[ J O.+.X.| ....X.....X.] [ ..+.X.",
"! @.@.$.@.@.$.$.@.@.@.@.@.X.+.} X.;.*.$.@.@.:.;.@.*.:.,.,.:.*.[ ! @.@.+.} [ / ^ / X.@.@.%.*.*...L X.....X.....| ..X.+.X.X.+.@.+.",
"! @.$.@.@.*.*.@.@.@.@.O.X.@.#.}  .*.*.@.+.+.=.;.@.*.:.:.:.;.*.} ! @.$.%.*.O.....X.@.@.@.+.%.*...A | ..X.+.X.X.O.+.@.@.@.%.*.%.+.",
"^ @.@.@.@.*.*.@.@.@.@.X.X.*.*.X.X.*.$.@.+.+.;.*.X.*.;.:.:.;.*.| ] $.*.$.@.O.X.X.X.@.*.@.@.$.*...A +.+.X.X.X.O.X.O.+.@.@.+.#.#.+.",
"! @.@.+.@.@.@.@.@.@.O.X...@.:.X.X.;.@.@.@.$.:.*...+.;.;.:.;.*...[ *.*.*.@.@.+.@.+.*.=.*.;.*.*...L @.@.%.X.X.@.X...+.@.+.+.@.@.@.",
"R @.@.@.@.@.@.@.@.$.@.@.+.@.;.X.} *.$.*.;.:.:.;.@.*.*.;.:.:.;.X.[ *.$.*.*.$.@.@.$.*.*.-.*.*.*.} L +.+.*.+.O.@.O.X.+.@.@.+.+.@.@.",
"R +.+.@.$.@.@.@.%.;.*.@.@.@.$...} *.*.*.*.$.*.:.:.*.*.:.:.:.:.@.} *.@.@.@.@.@.@.@.*.*.*.*.$.*.[ D +.O.@.O.X.+.X.@.$.@.@.+.@.%.X.",
"K +.@.@.@.@.@.@.*.;.$.@.@.+.O.} } *.;.*.@.+.*.>.>.=.*.:.>.:.:.@.} %.@.+.@.@.*.@.@.*.*.*.%.@.*. .G @.X...X.@.@.@.@.@.+.@.@.+.@...",
"C @.@.@.@.@.@.@.*.*.*.@.@.+.O.} } *.;.*.*.%.*.;.;.;.;.>.,.:.:.X.[ @.O.X.@.@.*.*.@.$.*.$.@.@.;.X.D @.O.....+.+.@.O.X...O.@.@.%.X.",
"G @.@.O.+.@.O.O.+.%.%.@.+.X.+.} } *.;.*.*.%.$.$.@.%.;.,.,.:.*.X.` @.O.X.+.@.*.%.@.@.@.@.@.$.;.} L @.O...X.@.%.;.@.O.X.O.+.@.*.X.",
"R @.+.+.@.@.+.X.O.@.@.+.X.O.@...[ %.*.&.@.@.$.*.@.+.%.;.,.>.*.X.[ @.@.*.*.%.@.@.$.$.@.@.@.$.*.} L @.+.+.@.@.@.%.%.+.+.@.@.*.%.+.",
"[ @.+.@.$.*.*.@.@.%.@.@.+.+.@...] *.*.*.*.%.$.%.$.@.@.*.:.:.;.X.} %.$.*.*.$.@.@.@.%.@.@.@.*.*.} H @.@.#.@.@.+.+.@.@.%.%.%.%.%.+.",
"` +.X.X.o.+.X...[ [ [ ] [ ] [ / L [ } } [ ] ] ( ] ( ] ] ] | | ] ^ X.+.+.X.X...| X.@.X...} | | ! G ..[ [ ..@.@.@.+.@.*.$.@.@.@...",
"J ! Q ! Q Y P L L H H G J H H A C ! / ^ ! ! Q Y Y ! ~ Q Q ^ ] ! p M A H ! ^ ! ~ ~ ! Y P P L J n s B G H Y / / ] ( ( ] / ] ] ] ! ",
"[ +.O.+.+.+.@.@.@.X.X.X.X.X.X.] P %.@.+.O.+.@.+.+.@.@.+.O.+.+.` 7 p g z J ~ ~ ~ ~ ~ ~ ~ ~ Y A d v | O.X.+.@.+.+.+.O.O.X.X.O.@.@.",
"..+.+.+.+.@.%.@.@.@.+.X.+.@.%.[ L @.@.@.+.+.@.+.X.O.O.O.X.X.+.` > 6 w e m Y J J H J H H J A z w D @.@.@.....X...X.X...| [ ..@.@.",
"..@.@.@.O.@.%.@.+.@.+.X.O.$.@.[ C +.@.@.+.+.+.+.X.O.O.+.X.X.@._ o - , < w z g g g g z g p i 6 , K %.*.%.O...X.......| [ ] +.*.@.",
"..$.@.@.+.@.*.@.+.X.+.+.X.$.%.[ H @.@.+.+.+.+.+.+.O.+.+.X.+.%._   X $ & - , < 6 e w e e 6 , & + F *.%.@.O.O.X.O.| | [ ] [ @.*.@.",
"X.@.@.@.@.@.%.$.@.X.X.X.X.@.@.] P @.+.+.+.@.+.+.+.O.@.+.X.O.@._   o & ; : , 6 e d a y d y 6 ; # K %.+.O.O.+.O.O.....[ ] [ | +.@.",
"X.$.@.@.@.+.+.@.@.+.+.X.X.O.@.` L @.@.+.+.@.@.@.@.@.@.+.....@.) . % 2 6 8 8 y d u y d x z p , & T #.@.@.@.@.O.O.O.| [ [ [ [ X.@.",
"..%.@.@.@.@.+.@.@.+.+.+.X.X.@.[ H +.@.+.+.+.@.@.@.@.@.+.....@._ X - 8 e e y y a u u V S M d , $ R @.@.@.@.@.O.| ....| [ | [ ..+.",
"| @.@.@.$.@.@.@.O.X.+.+.+.+.+.[ C +.@.+.O.O.@.@.@.@.@.+.O.X.@._ O > 8 e y u u u a l V V z r , $ ^ *.%.#.@.+.O.| { ..| | X.+.@.+.",
"} @.+.+.+.+.@.@.O.O.+.+.+.@.@.` N O.+.+.O.+.+.+.@.@.+.@.@.@.%._ O > y h h h h d z x h u r 8 1 $ R :.*.#.+.O.O.O.| | | O.@.*.*.@.",
"[ +.@.@.@.@.@.+.+.O.O.X.+.@.@./ n X.+.+.X.O.O.+.@.@.@.@.@.@.%._ O 2 d x x h x M M x h u d a 5 & ^ *.%.@.+.X...+.....O.#.%.%.%.@.",
"[ @.@.@.@.@.+.X.O.X.X...X.+.+./ C +.+.X.X.+.@.@.@.@.+.+.+.+.%._ O 1 y x Z x x x M c x x A x 0 - W *.%.@.+.X.| O.+.O.@.%.*.*.*.@.",
"} @.@.+.@.@.+.X.X...X...X.O.+.` G @.+.+.@.@.$.%.@.+.X.X.X.+.%.` O 1 y x S V x M J J S S A a 5 - R :.*.@.O.@.X.@.*.+.@.%.*.=.:.@.",
"[ @.@.+.+.@.O.X.X.| X.+.O.X.O.` D +.@.@.*.%.%.*.@.@.+.+.+.%.*._ o 2 h V S S Z J Y Y U I S y 2 = K *.@.#.@.+.X.+.*.@.+.%.*.*.*.@.",
"` @.@.@.@.+.+.+.+...X.+.O.O.+.] P #.@.@.#.%.%.*.%.#.%.@.@.%.%.) O 6 x A A J I J S U I ~ S h 6 ; F #.+.@.@.O.O.@.*.+.O.%.*.*.*.@.",
"^ O.X.+.X.....X.| ..X.X.X.X.O.] P ........X.X...X...X.X.@.@.+.R @ 8 M M A J U Y A I I Y V d e ; N @.#.%.@.@.@.%.*.@.+.#.*.*.*.@."
};
