/* XPM */
static char *map_Q[] = {
/* columns rows colors chars-per-pixel */
"64 64 97 2 ",
"   c #1A1711",
".  c #2B241B",
"X  c #2F281E",
"o  c #31291F",
"O  c #352D21",
"+  c #382F23",
"@  c #3A3125",
"#  c #423728",
"$  c #443829",
"%  c #4A3D2C",
"&  c #4E402E",
"*  c #50412F",
"=  c #544532",
"-  c #584733",
";  c #5B4A34",
":  c #584A38",
">  c #5F503C",
",  c #614E37",
"<  c #624F38",
"1  c #655139",
"2  c #6E583E",
"3  c #70593E",
"4  c #6C5941",
"5  c #745E43",
"6  c #785F43",
"7  c #7B6245",
"8  c #74624B",
"9  c #7D6548",
"0  c #7E684D",
"q  c #816748",
"w  c #8A6E4D",
"e  c #8C704F",
"r  c #92734F",
"t  c #816D53",
"y  c #886F51",
"u  c #857157",
"i  c #8E7251",
"p  c #87745B",
"a  c #897458",
"s  c #927553",
"d  c #967956",
"f  c #9B7B57",
"g  c #92795A",
"h  c #9A7D5A",
"j  c #9C815E",
"k  c #A2835D",
"l  c #958065",
"z  c #9C8263",
"x  c #978369",
"c  c #9D8668",
"v  c #9F896C",
"b  c #A38662",
"n  c #A78965",
"m  c #AB8B65",
"M  c #A28B6C",
"N  c #AB8E69",
"B  c #B08F69",
"V  c #AE916C",
"C  c #B2936D",
"Z  c #A28C71",
"A  c #A79074",
"S  c #AD9371",
"D  c #AB977B",
"F  c #B39671",
"G  c #B69975",
"H  c #B69D7B",
"J  c #BC9E79",
"K  c #BDA17D",
"L  c #C1A37E",
"P  c #B59F81",
"I  c #BCA485",
"U  c #BEA788",
"Y  c #BEA88A",
"T  c #C3A682",
"R  c #C9AB86",
"E  c #C6AC8A",
"W  c #CAAE8A",
"Q  c #CDB18D",
"!  c #D0B48F",
"~  c #CEB491",
"^  c #D2B692",
"/  c #D8BC97",
"(  c #D6BC99",
")  c #DCC29E",
"_  c #DEC5A1",
"`  c #DFC8A6",
"'  c #E0C7A4",
"]  c #E3CAA6",
"[  c #E6CDAB",
"{  c #E8CEAC",
"}  c #E7D0AD",
"|  c #E9D1AF",
" . c #E7D1B0",
".. c #E8D1B0",
"X. c #EED8B7",
"o. c #EFD9B9",
"O. c #F0DBBB",
/* pixels */
"J R W ~ Q Q ^ ^ / ( ( ( ( / ^ J R ~ K C N V J K K I K K T W / K T / / ~ W Q W T K J J H F G H b G K K K J H F F F F C J G V m m ",
"/ [ [ [ [ [ ] [ | | [ } } [ [ Q ) | [ ] _ _ ' ] [ [ [ ] [ | ..Q ) ......| | | | { [ [ [ [ [ [ K ( ..[ ] ] [ ] _ _ ) ) ] ] _ / J ",
"/ [ [ [ [ [ [ [ [ [ ] [ [ ] ] W ) [ ] [ [ [ ' ] [ [ [ [ [ [ [ Q _ [ [ ..[ ] [ ....| [ [ [ | ..E ( ....] ` _ ] ' ] [ ' _ ] ] _ J ",
"/ { ] ] [ [ [ [ [ [ [ [ [ ] ] W ) [ ] ] [ [ [ [ ] [ [ | } [ [ Q _ [ ] | ..| | | [ [ ] ] [ } ..E _ X.o.........] ] ' / ) ] ' ' J ",
"/ [ ] [ [ [ ] [ [ [ [ [ ] ] ] R ) ..[ ] [ [ } [ ] [ [ [ [ [ [ ~ _ { ] [ [ ....| [ ] ] ' [ ] [ ~ [ o...........] ) / ) _ _ _ _ J ",
"^ ] [ [ [ [ ] [ [ ] ] ] [ [ ] T ( ..[ _ [ [ [ [ [ ....} [ [ | Q ) | [ [ [ ....| [ [ ] ' [ ] [ ~ [ .._ / _ ] [ [ _ ) ) ) ) ) _ J ",
"/ ] ] ] ] [ [ [ ] ] [ ] ] ' ) L ^ ..[ / _ [ [ [ [ ....} } [ ..~ ) [ ] ] [ ....| { [ ] ] ] [ { ( [ .._ _ [ | | ..[ ) / / / / _ K ",
"/ ] ' _ _ ] [ [ [ [ [ [ [ [ [ K / [ ] _ ) [ [ [ [ [ [ [ } [ } W ) ..[ [ { ..| | | [ [ ] ] [ ../ _ ................[ ) / ( / ) J ",
"^ ] _ _ ' ] ' ] [ [ [ [ ] [ } K Q [ ] ' [ ..| [ [ [ [ [ [ [ [ L ( ..[ [ [ [ { ....| [ ] ] | ..^ ` ........X.o.......] / ( ) ] J ",
"/ ) / ) ' ' ' _ ' ] ] ] [ [ ] J Q ..[ [ ..X.X. .[ [ [ [ [ [ ] J / ..] ] [ ..| | ....[ [ [ | ../ [ o.......o.O.......' / / ' ..T ",
"/ ' ) _ ' ' ] ] ] ] _ _ ] ] ] J W [ [ | ......| ] [ [ [ ] ] [ T / | ' ' [ ..| [ [ | [ ..| ..../ [ o.o.......o......._ / _ [ ..T ",
"/ ] ] _ ) ' ] ] ] ' _ ] _ _ ' J R [ ] [ [ [ [ [ ' ' ' [ [ ] [ R / [ ' ] [ [ ] ] [ [ | ..| | ..^ [ o.o.......o.........[ ] } ..K ",
"/ ] ] ' _ ] ] ] ' _ _ _ _ ] ] K Q ] _ ] [ [ [ [ ) ) ) ] ] _ _ R / _ ) ) ' ' ' ] [ { [ [ [ | | E _ o.o...[ } ..o.........[ } ..K ",
"( ' _ ' ] [ [ ] _ _ ] [ } [ ] J W ] _ ' ] ] [ [ _ [ _ / ) / / T Q ^ Q Q / / ) ] [ [ [ { | | | E _ ....[ _ [ | X.o.O.o.X.......T ",
"/ ] _ ' ] [ [ ] ] ] [ | [ } [ J Q [ [ ] _ ) [ ....| ' / ^ / / K W Q T T W / ) ' ] ] [ | | [ | Q _ [ [ [ [ } [ [ } X.O.o...X...R ",
"^ ) / ) / / ) _ _ _ _ _ _ _ _ J Q ] ` _ _ / ) _ _ / ^ Q W Q Q M N G V F F K W ^ ( ) _ [ [ ] _ T ^ _ _ _ [ ` _ _ _ [  .} [ [ [ R ",
"G K G F G N C F J J K J F J L C j J T R R K J G C N b h s q 4 = 2 q d K H 4 g M J E W W W ~ / H V E W Q E T T Q Q Q R W W ~ ^ T ",
"Q [ ' ] _ ) ) _ ' ] [ ] _ ] [ E i C J L L J C C m f e q 2 ; % = d L / ' ] p d R / _ [ [ | | ..^ R | ] ] ' ' ] [ ' ] [ [ [ [ { ] ",
"~ [ [ [ ] [ ] [ [ [ [ [ [ [ { E 5 h m C C m k f w 5 2 - % > a J ! / ^ / [ Y 5 J ^ ) ] [ [ [ [ Q R [ ] ) ) ' ' ] ] ' ] ] ' ] { ] ",
"~ [ [ ] ' ] ] ] ] ] ] ] [ [ [ Y $ 7 s s s w q 5 , * * 4 M ( _ / Q ! Q Q ] [ t z W / _ [ [ ] ' Q E [ ] ' ' ' ] ] [ [ [ ] ' ] [ ' ",
"^ { | [ _ ' ' ] ' ] ] ] ] ] ] I X % 1 2 3 ; % @ O : v ( [ [ _ ^ Q W R W _ [ P 5 G Q _ ] [ ] _ / ~ ] ' ] [ ' ' ] ] [ [ ' ' ] ' ' ",
"/ | ..[ ] ] ] ' ] [ [ [ ] ] ] I X * 2 5 6 1 = 2 c ( | { [ [ / W R R T R / ] _ 8 j K ^ ] [ ] ' ( ^ [ ] ] ] ' ' [ [ ] ' ' ' ] [ ] ",
"^ | } } [ ] ' ] [ [ [ ] ] ] [ I o ; 7 q 5 2 s T [ | | [ ] { / W T T L R ^ ' { D 8 C R / ] ] ] ( ~ [ ] ] ] ] [ [ [ ] ' ] { ....[ ",
"^ ......[ ] ' [ [ [ [ ] ] ] [ H o ; q q 5 2 b Q [ ....[ ' [ / R T T J L ^ [ ..[ 8 j T / ] [ [ ( Q [ ] ' ' ] ] ] [ ] ] ] [ { [ [ ",
"^ | [ [ [ [ [ [ [ [ ] ] ' _ [ H o ; q w 5 2 n J ' [ ] ' ' [ ^ R T R T T / ....{ Z 0 R / ] [ } ( E [ ] ] ] ' ' ' ' ] ] ] ] [ [ ] ",
"^ { [ ] [ [ [ [ [ [ ' ' ' ' [ I O , w e 7 2 N N ^ ] ) ) ' ' Q K J L L L W _ ] ' ~ 8 G / ) _ ] Q R [ [ { [ ' ] ] ] ' ' _ ' ] ] ' ",
"^ ..[ _ _ [ [ [ [ [ [ ] ' ' [ I O 2 w r q 1 z C R [ ) ) _ ' Q L J J J L R / [ [ [ x d W / ) _ W T { [ | | ] ' ] ] ' _ ' ] ] [ ] ",
"^ | ] _ ] [ [ [ ] [ ] ] ] ' [ P o , w r w 1 4 m F ' ' ) ) ) R L L K J L W / _ ] ' ~ 0 K / ) ] W T [ [ ] [ ' ) _ ' ' ] ] ] ] ..| ",
"( | ] _ ' [ [ ] _ _ _ _ ' _ ] H o < w q q 2 # i B ^ ] ) ) / L J J J J R Q ^ / / / ' l z ! ) ] W L ] ] ] ] ' ) / ) ] ] ' _ ] ..| ",
"/ | | ] ] [ [ ' ) ) _ ' ' _ ] I . ; 7 5 2 = @ ; b L ' ' ) / J J J L L W Q Q / / ^ ) I t R / ' R J ^ ) ' ] ) / _ / ) ' _ _ [ | { ",
"^ [ | | [ | [ ] ] ] [ [ ] ] ] U . $ ; ; ; & @ . 7 C / ' ) / K J J J L W Q Q / / Q J z 5 K / ' R L W Q ) [ ' ) / / ^ _ ' [ [ ] _ ",
"J / _ ] ' _ ` _ _ _ _ ` ] _ _ I . + # $ % # O   $ b T _ ) / Q ! W R T W Q Q W J N n b 5 H / ) R L Q L Q / Q Q R R T Q ) ) / ! R ",
"G L Q ~ ^ Q R T E E E E Q ~ ~ G z A S M M M z u 5 e J ( ) ^ / ] ) / ) ) W G N N C C h 7 h V G C C V m V V N N C F G J L K J J C ",
"_ ] [ [ [ [ [ ] [ [ [ ] ] ] } ^ ) | | [ [ ] ) ^ J e m R ' ) [ | [ [ ( K V V C V b h i b Q ( ) F J W W Q W ^ / ) ! Q Q W W W W L ",
"] [ ] ] ] [ [ ] ] ] [ ] ' _ [ ( _ } [ ] _ _ ) / R j d J ) [ | [ ( K F C C m k d w w h F / ) ) F L ^ ( [ ] [ [ | ] _ / Q R Q ^ ! ",
"] [ ] [ [ [ [ ] ] ] [ [ [ ] [ / _  ...' ) ) _ / Q G s C W [ W V n m n n k s w q s N T W _ ] _ J Q ] [ { { [ { { | | [ / / ] [ ^ ",
"_ ] ] [ [ [ ] ] ] ] ] [ [ [ } / _ ....] ] ] _ _ / T b k N z d h h i w q w e i h C R / / _ [ [ K ^ | { { { [ ..[ [ [ [ ' ' [ [ Q ",
") ] ] [ [ [ ] ' ' ] ] ] ] [ ..( ) [ ..[ [ [ ] ] / R J h h w s i q 7 7 s N F J T Q / ) _ ] [ [ K ^ { [ [ [ [ [ [ [ | ....| ] [ ^ ",
"_ [ ] ] [ [ ] _ _ ' ' _ ' ] } ~ ( [ [ [ } ..[ ' / ^ T n e q q 5 9 d F L T R W Q / ) _ ] [ [ [ J Q [ [ [ [ | | [ { ........| ..~ ",
"_ ] ] ] ] ' _ _ _ _ _ ) _ [ } Q / ] [ } ..} [ ] _ / ! L q 7 i y N R Q ^ ( ^ ^ ( _ ] ] [ [ [ [ J ^ [ ] ] { [ [ { | | { [ | ....Q ",
"_ ] ] ' ' _ _ _ ' ] _ / ) ] [ Q ( [ [ [ [ [ [ [ ' ) / ! F S R F K / ( ) _ _ _ ] ] [ [ [ [ [ [ K Q ] ] ] ] ' ] [ [ [ [ { | { [ T ",
") [ ] ' _ _ ] ] ] ] ' _ _ ] [ Q _ ..} [ [ } | | [ ' ) / ( / / T Q _ ) ) _ [ [ [ ] [ | [ [ [ [ T Q _ ] ] ] ] ] ] [ ] [ { { [ ] J ",
"( [ [ [ [ ] ] [ [ [ [ ] [ [ [ R / | [ [ | ........[ ` _ ) ) _ R / [ | [ ] [ [ } ......} [ [ [ R ^ ] ' ] ] [ [ [ [ ] [ ] ] ] ' J ",
"( [ [ } [ [ ] [ [ ......} [ [ K / [ [ } } ....X...[ _ ' [ [ [ W ( [ ....} [ [ | o...| ..[ [ [ W ( [ ' ' ] [ [ [ ' ] ] ' [ ] ] J ",
"/ ......} [ [ [ ....| ..[ [ [ G ^ [ [ } [ | ..X.X.} ] [ ....[ Q ) [ ......[ } | ..[ [ | [ [ [ E / [ ] ] { [ ] ] ' ] [ [ [ [ [ J ",
"_ | [ [ [ [ ] [ } ....[ [ [ [ J ^ | } } [ [ } ....} [ | ..[ [ ~ _ [ } ..| } | | } } ....[ [ } E / [ ] [ { [ [ ] [ | ..| | [ [ K ",
"( [ [ } [ [ ] ] [  .| [ [ [ [ J ^ ........ . .............[ | ^ _ [ [ [ [ [ | } } ......} [ ..W ( [ ] [ [ [ [ [ [ [ | | | | ] F ",
"W _ ` [ [ [ ` _ _ ] [ ` ` ] _ F R _ _ [  .[ _ _ [ ] [ [ ] _ ' W ( ` _ _ _ _ _ _ _ [ [ [ ] ` [ R ~ _ _ _ _ _ _ _ ) ) _ _ _ ] _ J ",
"V K R W ^ / ~ ^ ^ W E R R K F k N S F F S V N V F N m F F J T J K W W R R E ~ / / ( ( ( ~ ~ ^ G J Q Q ^ ^ ~ W T J G J J J J J N ",
"( [ | ..........[ [ [ { [ ] ) V ~ ] ] [ ' ' _ _ ] ) ^ ) _ [ ..R ( ..|  .......................Q / [ ] ] ] ' ' ) ) ) ) ) ' ] ] K ",
"] [ [ ..........[ [ [ { ..[ [ G W [ [ ' ' ' _ ] [ [ ) ) ' ..o.T / ............} ....{ { ......~ / [ ] _ ' ) _ _ ) / / / ) [ [ K ",
"[ [ [ [ [ [ | | [ [ ' [ ..{ ] F R { [ _ _ ) [ ...._ ) ) _ [ | L ( ....| [ } } | | [ [ [ [ ..o.~ ( [ | ' ' / _ ) / / / / / / ] K ",
"[ [ [ ' ] ] ] [ { [ ' ' ' _ ] J ~ [ [ _ ) _ _ [ ] _ ] _ / _ [ L / ..} | } [ [ | ....[ [ ] { O.~ ( { [ _ ' ) / / ) ) / ) / / ' R ",
"] ] ' [ ' ' ' ] [ [ [ ' ) ) [ W ) [ [ [ ] [ ) _ _ ) _ ) / _ | L / ..[ ....[ [ [ ..| [ { | ..O.W ( ] ) ) ' ] ) / ) _ / / / / ' R ",
"] ] _ ' ) ) ' ' ' ' ' _ ) ) ] ~ _ [ ] } ] [ ] ] [ ' _ ) ) _ [ L / | [ } ....| [ { ..........o.Q ( ' / / ) ] ' ' ' ' ) / / / ] R ",
"[ [ ' ] ' ' ] ) / _ _ ' ) ) ] ~ _ [ [ o.[ ] _ ' ] _ _ ) ) _ ' J / | [ [ [ ....{ | o.o.......| T / ] / / ) ' ' ' ' ] ) / _ [ ] W ",
"........[ ) ) / / ' ) ) ) _ ] ^ _ [ } | ] ] [ ) ) _ ] ) ) ] ' L ( [ [ [ [ ..} } ..O.O.o.....[ J / ] ) ' ' ' _ ) ) ] ) ' ] [ [ ^ ",
"[ [ [ [ ] ) / / ) / ) / ) ) ] ~ _ [ [ ' _ ] } ] ' ] [ _ ) ) ] T ( [ [ [ [ [ [ [ ..o.O.X.......K / [ ' ' _ _ ) _ ' [ _ ) _ ' [ ^ ",
"' ' ] ] [ ' / / / / / / / ) ' ~ [ ..[ ' ) _ [ [ [ [ [ ] _ ' [ W / [ [ [ [ [ [ [ ..o.O...} ..| L ^ [ [ _ _ _ ) ' ] [ _ / ) _ [ ^ ",
"] | | | | { ' / / / / ^ / / _ Q [ ..[ ' _ ] [ [ [ [ [ ] _ [ ..~ ( [ [ [ [ ] ] } ....o.o.......K ^ ] _ _ ' ' ] ] ] [ ] _ / ) ] Q ",
"[ ........| { ' / / / / ^ ^ ) ^ ' } [ ] [ [ ] ] ] ] [ ] ] } ..~ / [ [ [ [ ' ' [ | } X.....o...J Q ' ) ) ' ] [ [ [ [ [ ' _ ' [ W ",
"[ ........| ..[ / / / ] _ ) _ ^ ' | | } [ [ ] ] ] [ | [ _ ] | ^ _ | | | } [ ] [ ....o.......[ J / ] / / ) ] [ [ [ [ [ [ ] ] [ R ",
"| ....X.o.| ..[ ) ) ' | ..[ [ ^ _ { | ..} [ [ [ [ [ | [ ] [ | / ) [ ..............| ........[ G / { ' ] [ [ [ [ [ [ [ [ [ | [ R ",
"[ ......X.......[ | | ........~ ) ....| | [ ..................~ ) ....O.O.O.O.O.....| ..o.X.| G Q | | ....| ............| | | W "
};
