/* XPM */
static char *map_P[] = {
/* columns rows colors chars-per-pixel */
"64 64 108 2 ",
"   c #1A1711",
".  c #231E17",
"X  c #27211A",
"o  c #2D261D",
"O  c #2E281F",
"+  c #332A1E",
"@  c #342C22",
"#  c #392E21",
"$  c #3A3125",
"%  c #433626",
"&  c #42372A",
"*  c #453828",
"=  c #4B3C2A",
"-  c #52412E",
";  c #554430",
":  c #594732",
">  c #5C4934",
",  c #5B4B38",
"<  c #624E36",
"1  c #634F38",
"2  c #655139",
"3  c #6A543B",
"4  c #6E583F",
"5  c #735A3F",
"6  c #655541",
"7  c #6D5B44",
"8  c #745D42",
"9  c #785E41",
"0  c #766046",
"q  c #75634A",
"w  c #7A664C",
"e  c #7E694F",
"r  c #846645",
"t  c #846A4C",
"y  c #8C6E4C",
"u  c #906F4C",
"i  c #8B704F",
"p  c #91704E",
"a  c #816D52",
"s  c #8D7352",
"d  c #85735A",
"f  c #89755B",
"g  c #937553",
"h  c #997652",
"j  c #967855",
"k  c #9A7A56",
"l  c #9B7D5A",
"z  c #A07E59",
"x  c #947E61",
"c  c #9E815D",
"v  c #A2835D",
"b  c #9D8363",
"n  c #9C8669",
"m  c #9E886C",
"M  c #A38562",
"N  c #A88762",
"B  c #A68964",
"V  c #A48B6C",
"C  c #AB8E6A",
"Z  c #AD906D",
"A  c #B2936D",
"S  c #A58E71",
"D  c #A79173",
"F  c #AE9574",
"G  c #B39672",
"H  c #B69873",
"J  c #B69C7B",
"K  c #BB9E79",
"L  c #BEA17C",
"P  c #C1A37E",
"I  c #B69F80",
"U  c #BEA482",
"Y  c #BFA788",
"T  c #C3A681",
"R  c #C6A985",
"E  c #C8AB86",
"W  c #C4AC8A",
"Q  c #CAAE8A",
"!  c #CDB18D",
"~  c #D0B48F",
"^  c #C3AF91",
"/  c #C6B194",
"(  c #CEB492",
")  c #CCB799",
"_  c #CFBB9C",
"`  c #D1B692",
"'  c #D4B995",
"]  c #D8BC97",
"[  c #D6BC9A",
"{  c #D9BE9A",
"}  c #D7C09E",
"|  c #DCC19E",
" . c #D7C1A0",
".. c #DEC5A2",
"X. c #DFC8A5",
"o. c #E2C7A4",
"O. c #E1C8A5",
"+. c #E4CCA9",
"@. c #E8CEAC",
"#. c #E7D0AE",
"$. c #E8D1AF",
"%. c #E7D1B1",
"&. c #ECD5B4",
"*. c #EED8B7",
"=. c #EED7B8",
"-. c #EFDAB9",
";. c #F0D8B7",
":. c #F0DBBA",
/* pixels */
"A H A A A H H H G H H H H H L K R ....| o.O.+.O.o.o.O.+.$.+.+.` H ! ! Q Q Q R T K G A C A A B B M Z C G L L K T Q Q E E T P T P ",
"A ' | | | | | { ..+.#.+.+.+.&...' $.@.+.O.@.&.+.+.o.$.&.&.$.&...' $.$.$.+.$.&.$.+...| o.O.o...! K O.o.o.o.o.O.O.+.+.+.+.+.O.+...",
"H O.O.o.o.| { [ ..O.#.$.&.&.*...' +.O.O.o.+.&.+.+.O.+.+.+.+.&.O.' +.O.+.+.+.&.&.@.+.O.+.+.+.&.' K +.+.| { { | +.+.O.o.o.O.+.$...",
"U +.O.O...{ { [ ' [ O.O.#.&.&...` +.o.o.o.o.$.+.O.o.O.O...O.&.O.' +.+.+.+.$.&.$.$.@.O.+.@.@.&.` K O.| ] { ] { O.O.o.| | o.O.$.o.",
"P +.......| { { [ ' [ +.&.*.-...` +.O.O.o.o.+.O.O...o.O.....+...' @.@.+.+.&.&.@.$.@.O.O.+.&.$.( H | { { | ] { | o.| | o.o.+.+.O.",
"K O.| { | | { | ..| | +.&.*.-...! +.O.o.O.o.O.O.O.o.o.O.O.o.o.{ ` &.$.+.+.&.&.@.+.+.+.O.@.&.&.` H | ] ' ' ] | | ..| o.O.+.+.+.O.",
"K O.O.| { | | +.#.&.+.O.+.+.O.' ! O.O.{ | O.O.+.O.o.o.O.O.| ..' ! $.&.@.+.&.&.$.+.O.O.O.+.&.$.` G ..{ { | o.o.O.O.+.+.+.+.+.$.+.",
"L O.+.O.| | +.$.&.&.#.$.&.*.+.[ ' O.O.O.| +.+.+.O.O.O.o.| | O.{ Q $.$.@.+.+.$.$.+.+.O.o.O.+.@.( K o.| { | o.O.o.o.+.+.+.+.+.$.+.",
"L o.o.O.O.+.&.&.&.&.&.&.-.&.+.| ' O.O.O.O.+.+.O.o.O.O.| { o.$.{ R &.$.@.+.+.@.$.+.+.+.+.O.O.+.' T o.o.| ] | O.o.| o.O.+.+.+.+.O.",
"P +.O.&.&.+.$.&.-.:.-.&.&.&.+.[ ` +.O.O.o.O.+.+.o.O.o.| { ..&.| L @.@.$.&.+.$.+.O.+.+.+.O.+.+.[ R o.o.| { | O.o.o.| o.+.+.+.@.O.",
"R +...&.&.O.$.&.-.-.&.&.+.+.#.| Q O.o.o.o.O.O.O.o.o.o.o.| | $.| P +.+.+.+.+.$.+.O.+.+.+.+.+.+.[ ! o.| { | O.O.o.o...o.O.O.+.+.O.",
"T O.O.&.&...+.&.&.&.&.&.+.O.+...! o.| O.+.O.O.o.O.+.$.+.O.O.@.' K O.+.+.+.+.@.+.O.+.+.+.$.@.+.[ ( O.o.o.o.o.....o.....o.o...+.O.",
"W O.O.&.+.{ O.&.&.&.&.&.+.+.+.| ' O.| O.O.O.O.o.O.@.+.....| | ! K O.+.+.+.+.+.+.+.+.O.O.+.+.+.' ( O.o.o.| | { { o.o.....| | +.o.",
"Q +.$.:.&.{ X.&.&.&.=.-.=.&.+.{ ' O.o.O.o.O.O.O.O.+.+.o.| { { R G ..o.o.+.+.O.O.O.O.o.o.O.+.+.[ ( O.o.$.O.| { { o.O.O...| { +...",
"! &.&.-.&.#.#.#.&.=.-.-.-.&.+.[ ` $.+.+.O.O.O.O.o.O.O.| { ' ` P C { | ..O.+.O.O.o.o.+.+.+.+.+.[ ( +.O.+.@.o.o.o.o.+.+.O.o.O.@.o.",
"Q +.O.+.&.&.#.+.+.&.&.&.+.+.+.` P ' ` ` ' ` ` ! R R T L H G A B l L R ! ( ` ` { ' ' | ..| | ..( W o.........| | | | | | { ..o.` ",
"A T R Q ( ` [ ` ` ' ' ` Q Q ! P L ! Q Q ! ! Q Q U H A C M l j s 0 t g l M B C F G K U T U U R K G W Q W W T R L H H L P L K H H ",
"Q +.&.&.+.+.@.&.&.&.$.$.+.+.@.| | &.o.{ { ' ` { [ ! R T K A B j s G B L ` ' | ..+.+.+.O.+.+.&...' &.&.&.-.&.&.+.o.+.+.#.+.....| ",
"R +.&.#.O.O.+.+.$.&.&.@.&.$.@...[ +...| ' ' T E Q P H C c l B K Q ~ d V ! ' | o.O.+.+.+.+.+.&...[ &.&.&.&.&.&.&.&.&.&.&.&.$.&.+.",
"T +.+.+.+.+.O.O.+.+.$.$.+.$.@.| ` +...| [ ` T A H C c l Z ! [ ~ ` ` V w L ` | ..O.+.+.+.+.+.#.| [ &.$.O.+.&.&.*.&.&.#.&.&.&.&.+.",
"W #.+.O.o.O.O.O.O.+.&.$.+.@.$.| ( +...[ ' E C s t c L | o.+...` ` ` Q q b E [ ..O.+.#.&.$.&.*...| &.@.+.+.$.&.&.=.&.&.-.&.&.&.+.",
"W +.O.O.o.O.O.+.+.+.+.@.+.+.+.{ ` O.| ` R M 0 a F { $.&.+.O.| ` ' ' ' n w L ( | O.+.&.$.+.&.-...| &.+.+.+.+.&.-.:.:.:.:.-.*.&...",
"R $.#.+.O.+.+.+.$.&.@.+.@.@.+.{ ( ..' T C b J | +.O.O.&.&.O.{ ! ` ` ~ T 7 B E { ..+.&.&.+.$.&...| &.#.+.$.@.&.:.:.:.-.&.&.&.$.o.",
"R &.&.+.+.+.@.$.&.$.@.+.@.$.$.{ ! | ! Z U ..@.@.O.o.| @.&.+.{ ! ! ! ! ~ x a P ' | ..&.-.$.#.$.{ [ &.&.$.$.&.@.&.&.&.&.&.#.&.&.+.",
"Q &.&.@.$.$.@.$.&.$.+.+.@.$.&.[ T ' T M [ +.+.@.+.+.o.O.+.o.~ R Q ! ! ! L 7 C E { ..+.#.$.#.#.[ { &.$.&.$.+.+.@.&.#.#.#.+.#.&.+.",
"` &.+.$.$.&.$.@.$.&.$.+.+.+.$.[ L ! H M R &.$.+.O.O.| | o.| R K P T T L E f t K ` ..O.+.#.$.$.| [ &.$.+.+.+.$.&.#.+.+.O.o.+.&.&.",
"[ @.O.$.$.&.&.$.$.&.&.$.@.+.&.[ K ! B M H +.*.$.O.O...o.O.| R K H H H H R U 7 Z ~ | o.+.+.#.+.[ ( &.&.+.+.+.&.&.&.+.+.o.O.+.&.&.",
"' $.+.$.+.+.$.#.+.@.&.&.&.@.&.[ U E B l B [ &.$.+.O.o.o.o.] T L H H H H T ' d j Q ' ..+.$.#.+.{ ! &.&.+.$.&.&.#.+.+.+.+.+.&.-.%.",
"[ &.&.$.+.+.O.+.+.+.+.&.&.+.#.} T E C k N R &.&.&.+.O.O.o.' R L K H H K Q ` F w T ` O.&.&.#.+.{ Q %.&.$.&.&.+.+.+.+.+.+.+.&.&.%.",
"| &.+.+.O.+.O.+.+.+.+.$.$.O.+.} Q ~ H c l A ..;.&.@.@.+.O.{ R P L P H K R ! Q a V ' +.$.#.+.+.| Q { O.&.#.+.+.+.+.+.+.+.+.&.&.+.",
"[ $.+.+.+.+.+.&.&.&.&.&.$.+.&.} Q ' R A k v E &.+.+.@.+.+.| E P L K K H K R ! D a ` O.+.+.+.+.| ! ' [ +.@.O.| { { { O.+.+.+.O.{ ",
"K [ +.+.+...O.O.........+.+.&.( H W L C g g G | +.+.O.o.O.o.{ ' ` Q R P L R E G 8 J [ ....O.+.' R ' E ` ' Q R T R R ` { [ ` Q R ",
"G P Q ! ! W W L H G K U W ! ( G g C A C l j B E +.+.+.o.o.| | | ..| | { E K H G 6 f L R Q ! ! P A H Z A A C C B C A H L K K K G ",
"[ +.+.+.+.$.&.+.....+.+.+.+.&._ s A H H A j B L | $.&.$.o.| | ..O.O.{ R K K H G e C ~ [ ..O.+.! H ` ` ! Q ' ' ' E R Q ' ! ! ! Q ",
"[ $.+.+.+.+.+.+.+.+.+.+.O.O.@.) 7 l B B v t j R R @.&.&.O.o.O.O.[ T H L H A C M l G P ! ....+.` H { ..O.| o.o.o.| ' ' ~ ! Q ` [ ",
"! @.+.#.+.+.+.#.+.+.O.+.+.O.O.^ & 8 y y t 3 7 P P [ +.+.O...! H A A Z C B v k g M P ' | &.&.&.' H o.O...{ | | ..| | ..` ' | O...",
"R +.+.#.+.#.#.+.+.+.+.+.+...O.W O - 5 3 < - % x E H | ' K M v v v l g g s s g c H ` X.O.+.&.*.| K ..| | ..| { { | ..O.....O.+.O.",
"R +.#.+.#.&.&.+.+.+.+.o...+.$.W @ < h y 0 3 = 2 E H B M l k l l g t 0 t b Z H T ! | O.O.O.$.&.| A { | ..O.....o.O.+.+.+.$.&.&.+.",
"W +.+.+.+.&.&.+.+.+.+.....&.&./ $ 3 z z p 0 > - C H v G Z v k i t s M H P R Q ` ' o.+.+.+.#.&.| G O.O.....| o...o.O.+.+.+.@.@.O.",
"R +.+.O.+.+.+.+.+.+.o...| +.:.( $ 2 y v h 0 3 - 0 B M H H B t = s K R ! ` ' ' | | #.&.&.*.&.&.| K +.+.$.....+.o.| O.+.O.O.+.+.+.",
"U +.+.+.+.+.+.+.+.+.+.+.O.+.:./ $ 2 y v k r 5 < : s M H g > .   b ` ` [ | ....o.+.$.&.&.&.$.&.[ J O.O.&.O.o.+.o...O.+.+.O.O.+.+.",
"U O.O.+.#.+.+.+.&.=.&.+.+.+.$.^ $ 8 y k g r r 5 > 2 w , o @ + o F { { | ....O.O.+.#.&.&.&.#.&.' F O...+.o.| O...+.#.+.+.O.+.$...",
"J O.+.+.+.+.+.+.&.-.#.+.+.O.o.W $ t k k g r r 0 2 - * + * < = @ J ..| | ..O.%.+.+.$.&.&.$.+.&. .G +...| ..+.+.+.+.+.O.+.+.+.+.| ",
"Z +.+.+.+.+.+.+.&.&.&.+.+.O.O.^ @ 8 c k h y r r 5 2 > : 2 : % $ J O.| | O.O.#.$.+.+.&.#.+.+.-...F +.....| O.O.+.o...| o.+.+.$...",
"G +.+.O.O.+.o.o.O.$.$.+.O...O.W @ 2 t g k u r 0 t w 7 2 2 < = % J +.....O.+.$.#.+.+.+.#.#.#.-.[ K +.o.| ..+.#.-.+.o...o.O.+.&...",
"U +.O.O.+.+.O...o.+.+.O...o.#.^ @ - 5 t k p r 0 0 w q 4 1 < - * U +.+.#.&.$.+.+.#.#.+.+.+.#.&.[ K +.O.+.+.+.+.$.#.O.+.+.+.&.$.O.",
"' +.O.+.#.&.&.+.+.$.+.+.O.O.+.^ o * < 3 5 8 8 9 4 2 3 2 > = % $ Y $.#.&.&.#.+.+.+.$.+.+.+.$.&.[ H +.+.@.+.+.O.O.+.+.$.$.$.$.$.O.",
"( O.....X.O...| [ ' ' ` ' ` { I X # = = - : > < < ; - - = # + # J O.+.+.O...| | X.+...| [ { { W G | ' ' | +.+.+.O.+.&.#.+.+.+.| ",
"H R T R T P L K K H H G H H H C a m D D S S V n b V V b b n S m H ~ ' ' [ ` Q E Q R K G V C Z B l C G H P ! ! ` ~ ~ ` ! ` ` ` R ",
"' O.o.O.O.O.+.+.+.............` U $.+.O.O.O.+.O.O.+.+.O.o.O.+...[ +.+.+.#.$.+.+.O.+.O.......+.( V { o...O.+.O.O.O.o.o.....o.+.+.",
"| O.O.O.O.+.$.+.+.+.O...O.+.$.' J +.+.+.O.O.+.O...o.o.o.....O...[ +...O.+.+.O.+.O.+.+.+.+.+.%.[ J +.+.+.| | ..| ....| ] ' | +.+.",
"..+.+.+...+.$.+.O.+.O...o.#.+.' Z O.+.+.O.O.O.O...o.O.O.....+...' O.o.+.+.O.....| ..+.$.+.+.#.[ U $.&.$.o.| | | | | { ' ` O.&.+.",
"..#.+.+.O.+.&.+.O...O.O...#.$.[ H +.+.O.O.+.O.+.O.o.O.O...O.+...` O.+.+.+.O...{ { ..O.&.&.+.+.[ R $.$.+.o.o...o.{ { ' ` ' +.&.+.",
"..+.+.+.+.+.$.#.+.........+.+.` L +.O.O.O.+.+.O.O.o.+.O...o.+...( +.+.+.+.O.....| ..+.&.&.$.&.} W @.O.o.o.O.o.o.| { ' ` ' | O.+.",
"..#.+.+.+.O.+.+.+.O.O.....o.+.` K +.+.O.O.+.+.+.+.+.+.O.| | +.| ` +.O.O.o.O.o...o.O.+.&.&.&.&.[ Q +.+.+.+.+.o.o.o.{ ' ' ' ' ..+.",
"| $.+.+.+.+.O.+.+.o.O.O.....+.' J O.+.O.O.O.+.+.+.+.+.O.| | +...` +.O.O.O.o.o...O.O.+.$.&.$.+.[ ` +.+.@.+.+.o.{ | | ] ' { ' | O.",
"{ +.+.+.#.+.+.+.o...O.O.O.O.+.' Z O.+.O.o.o.O.+.+.+.+.O.....+.| ! +.O.O.O.........+.+.+.#.+.+.[ ' &.$.@.+.O.o.{ ] | { { ..O.+.O.",
"{ +.O.O.O.O.+.+...o.O.O.O.+.+.( V O.O.O.o.O.O.O.+.+.+.+.+.+.+.| ! +.+.+.O.O.O.....+.O.O.+.O.+.[ ` :.&.@.O.o.o.o.{ { { o.+.&.&.+.",
"[ O.+.+.+.+.+.O.O.o.o...O.+.+.! M ..+.O...o.o.O.+.+.+.+.+.+.$.| ` +.+.+.+.+.O.....O.O.+.+.+.+...[ &.&.+.O...| O.| | o.@.$.$.$.+.",
"' +.+.+.+.+.O...o.....| ..O.O.! Z O.O.....O.+.+.+.+.O.O.O.O.+...[ +.+.+.+.+.+.o.o...+.+.+.+.#.| ' &.&.+.O...{ o.O.O.+.$.&.&.&.+.",
"[ +.+.O.+.+.O.....| ......o.O.! G +.O.O.+.+.#.$.+.O.......O.@...' +.O.+.+.+.O.O.o.o.+.$.&.+.&.[ ! ;.&.+.o.+...+.&.+.+.$.&.*.:.+.",
"' +.+.O.+.+.......{ ..O.o...o.( F O.+.+.&.$.$.&.+.+.O.O.O.$.&.| ' +.O.O.O.O.O.O.O.O.+.$.&.+.+.[ W &.+.@.+.O...O.&.+.O.$.&.&.&.+.",
"( +.+.+.+.O.O.O.O.| ..O.o.o.O.` L +.+.+.@.$.#.&.$.@.&.+.+.$.+.{ ` +.+.O.O.O.O.O.O.+.+.+.&.#.$.[ U +.O.+.+.o.o.+.&.O.o.$.&.&.&.+.",
"Q o...O...| ....{ | ........o.` L | | ........| ..| ..o.+.+.O.( ! +.+.+.+.O.+.+.+.+.....O.+...Q G O.+.$.$.+.+.$.&.+.O.@.&.&.&.+."
};
