/* XPM */
static char *wall_right[] = {
/* columns rows colors chars-per-pixel */
"64 64 48 1 ",
"  c black",
". c #120F0A",
"X c #16120E",
"o c #171410",
"O c #6E583D",
"+ c #725B3F",
"@ c #765F41",
"# c #7B6243",
"$ c #816746",
"% c #866B49",
"& c #896D4A",
"* c #8F724E",
"= c #997C57",
"- c #997D59",
"; c #9E815C",
": c #A1845E",
"> c #A9895F",
", c #A28560",
"< c #A68964",
"1 c #AB8C65",
"2 c #B18F64",
"3 c #AE936E",
"4 c #B39166",
"5 c #B4946A",
"6 c #B8966A",
"7 c #BC9A6E",
"8 c #AF9570",
"9 c #B19671",
"0 c #BE9D72",
"q c #B69C79",
"w c #BFA077",
"e c #BBA07C",
"r c #C09E72",
"t c #C2A175",
"y c #C5A479",
"u c #C8A77B",
"i c #C8A87C",
"p c #CBAA7D",
"a c #C7A980",
"s c #CBAC82",
"d c #CDAF88",
"f c #CEB187",
"g c #CEB288",
"h c #D0B186",
"j c #D1B389",
"k c #D4B790",
"l c #D5B991",
"z c #D8BD94",
/* pixels */
"54454577774::<2255;.                                            ",
"777770t07765470777-.                                            ",
"70ttrr7764677rtr07:X                                            ",
"7ttttt7777777r0r00,X                                            ",
"7rttttt7tttr070r7r,X                                            ",
"70tyttytttyyt7707r:.                                            ",
"00tyyyuiyytyytyt75;.                                            ",
"tyyiiiiiiiyuiytytt:.                                            ",
"tyyissffssssityyyu<X                                            ",
"yysssfhhhhffsissss5X                                            ",
"yysffffjhhfffssssf9X                                            ",
"iisffsfjjjjfffssas9X                                            ",
"sssdssffffgggfssys9X                                            ",
"sfgfsssfsssssssays9X                                            ",
"shjgssssssytyiaasf9X                                            ",
"sssggfssiy07tissff9X                                            ",
"ssasssyay0077yssss9X                                            ",
"iyyyyy0ew00660yyya8X                                            ",
"0000555<<<3<255590<X                                            ",
"sssssayy0eyyyeeyis8X                                            ",
"jkllklljgssdssdjjkqX                                            ",
"jkkkjjjgsyyyyysjjjqX                                            ",
"jklkjjjjdsisssgjgj9X                                            ",
"jklkjjjjkjgggdjjgg9X                                            ",
"jjjjjjjjlljgdjkkjj9X                                            ",
"jlljgjjjklkjjjkkjj9X                                            ",
"jlljkjlkkkkllkjkjjqX                                            ",
"gjjgjjllkklllllklzqX                                            ",
"fjjjjjlkjjjjkklklzeo                                            ",
"jkllklkkklllljjklzeo                                            ",
"jklllllllllklljjklqX                                            ",
"jkklkkkllllkllkkklqX                                            ",
"jkjjjjjjkllkljjjklqX                                            ",
"jkjjjjjkkklkkjgjklqX                                            ",
"jjjjjjkkkllllljjjjqX                                            ",
"jjjsjjjjkllkjjkjgj9X                                            ",
"jjsdgjkjllljggjggj9X                                            ",
"jsysjkkklljgjjjjjj9X                                            ",
"sdssjkkkkkkjggjjjjqX                                            ",
"jjgdjjjkkkkjjggggg9X                                            ",
"<<,,,,,,,:,,<<<<<5;.                                            ",
"*&$#@++OOOO+@###%*$.                                            ",
"5<:;:;------=--=:<-X                                            ",
"yyyyy00w0wy00000yy3X                                            ",
"sssssaaaaaaayssass9X                                            ",
"sjgfgfsssdssssdggg9X                                            ",
"jggggggdggjjggjjjj9X                                            ",
"jjggggggjgjjjjjjjj9X                                            ",
"jkjjggggjjjjjjljgf9X                                            ",
"kljjgjjgjkkkkllgsgqX                                            ",
"jlkjgjjjkllkkkkjgjqX                                            ",
"ygjjgjjjllkjggklllqX                                            ",
"ysgggggljddgjgjkkk9X                                            ",
"gjjggjgjggjjkjjkkj9X                                            ",
"jkjkjjjjjjklkjjjjjqX                                            ",
"jkggjkkkjklllllkkleX                                            ",
"jkjgggkkjjjklllllleo                                            ",
"gjjggjkljjjjjjlkjleo                                            ",
"ggjjjjlkkkkjjjjjjlqo                                            ",
"jjjkjjkjkljjkkjjklqo                                            ",
"gjjjjkklllkklkjkjleo                                            ",
"jggjjgkllllllllkjjeo                                            ",
"gaysasjljllllllkkjqo                                            ",
"kjjljjllllllzllllleo                                            "
};
