/* XPM */
static char *wall_top_right[] = {
/* columns rows colors chars-per-pixel */
"64 64 65 1 ",
"  c #040302",
". c #352C21",
"X c #554631",
"o c #5B4B34",
"O c #635037",
"+ c #6C573C",
"@ c #6E593D",
"# c #715B3E",
"$ c #745E41",
"% c #7D6444",
"& c #776349",
"* c #7A664C",
"= c #7D694F",
"- c #7F6B50",
"; c #806646",
": c #836847",
"> c #856B4A",
", c #8A6E4B",
"< c #8E714D",
"1 c #92744E",
"2 c #826E54",
"3 c #857156",
"4 c #877359",
"5 c #89755B",
"6 c #8B785D",
"7 c #967953",
"8 c #9C7E58",
"9 c #A07F56",
"0 c #9E805A",
"q c #A18057",
"w c #A8875D",
"e c #A7885F",
"r c #A9895F",
"t c #A68861",
"y c #AD8C63",
"u c #AF8F68",
"i c #B08F65",
"p c #AF9067",
"a c #AF9068",
"s c #B19166",
"d c #B4946A",
"f c #B8976D",
"g c #B7986D",
"h c #B9996E",
"j c #B69972",
"k c #BC9D72",
"l c #BFA078",
"z c #C09F74",
"x c #C1A176",
"c c #C9A77D",
"v c #C7A87D",
"b c #C9A97F",
"n c #C6A780",
"m c #C7A881",
"M c #CAAC84",
"N c #CDAF88",
"B c #D0AF85",
"V c #CDB087",
"C c #CEB089",
"Z c #D0B086",
"A c #D1B58D",
"S c #D5B88F",
"D c #D6B790",
"F c #D6B890",
"G c #D8BC95",
/* pixels */
"                                                     .lvvvnnmMMM",
"555544445555555555555652355554345544432--==2---=*=*&$>vnvvvmmMMM",
"DFSSAAASFGGGGGFFGGGGGGGGGGFSAAAAFFAAAMMMMMMMMmmnvvlkdyvnvvnvnnMA",
"AAAAAAAAAFFFFFFFFFFFDFFFFGFAAAAFFDAACMmmmvvmmnvvvkkjywvnvnnnvvMA",
"AAFAAAAFFFFFFFFFFFFDDFFFFFFFFFFFFFFAMmmnvvvnnvvvvkkjywvvvvvvvvmC",
"AFFDAADFFFFFFFDDAADDFFFFDFFFFFFFFFFAMMMmvnvnvvvvvkkjywlvvvvvvvmM",
"AAADAADAAAFFFFAAAAAAFDFFFFFFFDFFFFFDNMvvvvnmvvvvvlkjywvvnvnmvnMM",
"ADAADAFDACAFFFDACCCAAAAAFFFFFFFFFADDAnvvvvvvvvvvvlkjywlvvnmmmmMm",
"MMNADFFFFDAAAMMMmMMMMCCAAAAAFFFFAADACmmMnvvvvvvvvvkjywvvvnmmmmmm",
"MvMCAAAAAAAACMmmvvmMMMMMMvvMCAAMMMCMMMCACMvvvvvvvvkkdyvvvmmmmMMm",
"AAAAAADAADFFAACCACCCNMvlMCNMMADCMvvvvMCDFDmvvvvvvvlkdyxvvvkkkkkd",
"CAFFAAFFFFFFFFFFFFFAACCCADAACAAAAAVVMAAAAAmvvvvvvvvkkdhkkhdddye7",
"MAFFFFGFFFFFFFFFFFFFFFFFFSAMvkkkvvvvvkkkkjdddddddddgghkxlkkhdyw7",
"xvvvvvvvvbvvvvvvvMMMvvvvvvvvkyyysddddssdddsyyryyyrryyidxvkdsyw1%",
"vvvvvvvvccvvvvvMMMMMvvvvvvvvkyydddddddsdddsyyiiyyyyyysdkvkdyw7>+",
"bvvvvvvvvvvvbbbMMVVMbvvvvvvvksddddddsddssyyyyyyyyyyysddkvkdyw1%O",
"MvvvvvvvvvvvvvbMMMMMvvvvvvvvxdddddddddddsyyyyyyyyyyysddkvhdr7<$o",
"vvvvvvvcvvvvvvvbbbvvvvvvvvvvvdddddddddssiyyyyyyrrryysddkxdiw7,$o",
"xvvvvvvvvvvvvvvvvvvvvvvvvvvvvdddddddssiyyyyyrwwwwryisddgxdiw7>#X",
"xvvvvvvvvvvvvvvvvvvvvxxvvvvvldddddssssssyyyrrryyyyyysdddkdyw7>@X",
"vxvvvvvxlvvvvvxkkhhhhdddhkhkkddddddddddddyydhdddddysfkkxxhsr7<$o",
"hhhkkkhhkkxxvvvssdsyyyyyyyyyyrwwrwwweyywwwyrdddddsrrysdkkdyw7,@X",
"yddddfhhkxvvxxkdkkddhgdkkkhhhdddsyydssddywyrydgkkkdrwwdhdsr71;+X",
"ddddhhdfhkkkkkkhlkkkxkkxlkkkhkkkkkkvvklkhddsddhhdkdsywdkdsr71;@o",
"fdhhhhhhhkkkkxvkvvbbvvvvvvvvvbbbMMMMMMMvvkkddddddkkkdydkfdyw7>#o",
"hhhhhhkhkkkkzvvkvvvbbbbMMMbbbbMMbMMMMMbvxkkdddsddfhkkhdkhdyw7,$O",
"hhhhhkkkkkkkxvbkvvvbbbbMMMMbbMMMbbMMMbvvldgyyyyysddkkhhkhdyw7,%+",
"ddhhhkkkkkkkxxvkvbbbbbbMMMMMMMMMbbbMMbbvlddyyyyyydddhhhkhdpw7<;#",
"sddkkllkkkklxxlhlvvvvvvvvvvvvvbbbbbvvvvvkdddddfddddfhkkhdddyw7<;",
"kkllxxlklxxvvvvvxxxxxvvvvvvvMMMVAAAACVMMMVVVMMMMMMMMVCVMvkhdrw7<",
"vkkhhhhhhkkkklkkkkkkkkklkkkvMMMMMMMMMMbMMMMMMMMvvvvvbMMMvsyrw971",
"vkkkkhhhhkkkkkkkkkkkkkkkkkhxbvvvvvvvvxxvvvvvvvvvvvvvvvvMkiyrwwq7",
"vxlkkhhhkkkkkkkkkkkkkkkkkkkxvvvvvvvxxllxvvvvvbvvbbvvvvvvkiyyyrwq",
"vxxzkhhhhhhkhkkkkkkkkkkkkkkvvvvvvvvvxxxxxvvvvbvvvbbvvvkkhsyssyrw",
"xxxxzhddfhhkkkkklkkkkkkkkkkvvvvvvvvvvvvxxvvvvbvvbbvvvvhddsyssyyy",
"lxxxzkhhhkkkkkxvvxkxxlklxxkxvvvvvvvvvvvvxvvvvbbbbbbbbvkdsiiysdds",
"kkxxxkkkkkkkkkxvvxxxxkkkxlkkkxvvvvvvvvxlxvvvvbbbbbbbbvxdyissssdd",
"vvMMMMbvbvvvxlxbMMMbvvvvvvvvMvbMMMMMbvvvvvxkxvvvvvvvvvkkhsdddddd",
"bMVAAAAVVMMMMMbMVVVVMMMbvbbMMMMMMVMMMbvvMMhidddddddsiyyyw7wwwwww",
"bMMMBBBMMMMMMMxkkkkkkkkkkhkkkkkllkkkkkkklvkgkklkkkkkkkhhdrwrysdd",
"bMMMMBBBBZZVVMxkkhhkkkkkkkkkkkkkkkkkkkkklvxxvcbvvvvvvxxlkhsyshzx",
"bbbbbbMMMBZBBMkhhhkkkkkkkkkkkkhhhkkkkkhklvklvbbvvvvvvxxxkhsyifzv",
"cbbccccbMBBBMbkhhkkzxxxxzkkkkkkkkkkkhkkklvkkvbbccvvvxxxxkxkdiidz",
"vccccccbMMMBMvkhhkzxxxxxxzkkkkkkkhddfhhkkvklcbccvvvvvxxxlxzdiyyd",
"cbbbbbbMMMMMMvkkklxxvvxxxlkkkkkhkhhhhhhhkvkkvbcvvvvvxxxxxhdyiiii",
"xvvcbcvvvvvvvvxlxxxxzkkllkkkkkzkkkkkkkhkkxhkvvvvxxxzkkkhdyrrryyy",
"7778w08880wwww00wwryrwwww07dbMMMMvvvvvvbMMMVAMMMMbbvvvvksyyyyidd",
">,<1779777779711777wwqqqq7<tMMMMMbbbbbbMMMMAAVMMMMbbbbbvdrrrryys",
"<77wwwyyrwwrw9qqwrqwyrrwww10vvvvvvvbvbbMMMMAVMMMMbbccvxkdsyyyrww",
"<79wwwrrw97wwqq9qwwwwww777,wxkxxzxxvvvvbMMBBMMMMbbccbbxlkkdssyry",
"17qwwwq77779qq977qqqw77777<0kklxzkkkkkxvbvMMMMbbbbbbbbvvvkhddddf",
"17qwq771177777777777977777,8hkkkkkkkhhkvvxvvbbccccvvvbMbvkkghgff",
",7qq7111,17777177777777771,7hxxzkkkhffhzkkkhkvvvvxvvvcMMvkhhhddd",
">1771<,;;:>,,,,,,,,,,,,1<,:7yddddddsyyyiyyyiydhdddddkzxxkddsssyy",
"0877111<<<,,>,,,<,,<,,<<,,><77777777<,::>,,,,>>>,17777777777777w",
"kddddpydddyyddyuddysyyyyddddyyduddyww080ww8887778wwwwwwwwwwwwwwy",
"kkkkkkkkkkkvxvkkvxkkkddydkkkkkkvvvhdddddsdyyyyyyyydddddddyyyw77d",
"kvvkkkvvvlvvvvvvvxvvkhdddkkxkkkkxvkddddddddyyiiyyyddddddayytw7<j",
"kxvlkkklvkvxlvvvvvvvkdddkkkkkvzkkkkddddddddiiddddddddddddyyww7,j",
"kkkkkkkvvvkkkkkvzlvvxkfkkkkkkkkkkkkddddddddddddddddddddddyww71>k",
"kkkkvvkvvkvzkkkkkkvvvkkzvkkkkkkkkkjdddddidddddddddddddddsyww7<>k",
"kklkllxvvvvzzvvvvlvvvvxzvzvvkkkkkkjdddddyiiiiiddddkddkddyyww7<>j",
"lvkkkkkvvvvvvvvvkkzvvvvkvvvvvkkkvkdddddddidiuddfddkdfkddyyyw7<,j",
"kkkddddkvkvvvvvvlkkkklvlvvvvvxzxxkdddddddddddddisdddkkhdssyw7<>j"
};
