/* XPM */
static char *wall_random_2_64[] = {
/* columns rows colors chars-per-pixel */
"64 64 210 2 ",
"   c #000000",
".  c #00070C",
"X  c #1C0100",
"o  c #031012",
"O  c #2B0200",
"+  c #2F1A06",
"@  c #3A1700",
"#  c #241D16",
"$  c #1E201C",
"%  c #3F2303",
"&  c #2C2219",
"*  c #33261A",
"=  c #3E2E1E",
"-  c #2A2620",
";  c #332821",
":  c #3B2F24",
">  c #3F362D",
",  c #421800",
"<  c #4A2904",
"1  c #542F00",
"2  c #56330A",
"3  c #452D16",
"4  c #43301F",
"5  c #4B321C",
"6  c #543413",
"7  c #56381C",
"8  c #5C3C1D",
"9  c #643E16",
"0  c #443324",
"q  c #4A3828",
"w  c #523D2A",
"e  c #583F28",
"r  c #734716",
"t  c #594129",
"y  c #5C432B",
"u  c #574A3B",
"i  c #644324",
"p  c #6A4625",
"a  c #6F4A26",
"s  c #63452B",
"d  c #67492D",
"f  c #6B4B2D",
"g  c #754C27",
"h  c #79512C",
"j  c #654A32",
"k  c #6C4D31",
"l  c #714F31",
"z  c #6F5134",
"x  c #66513C",
"c  c #6C523A",
"v  c #745334",
"b  c #7A5635",
"n  c #7D5836",
"m  c #755539",
"M  c #795739",
"N  c #745B3F",
"B  c #7D5A3A",
"V  c #685A47",
"C  c #6A5E4D",
"Z  c #745D44",
"A  c #7C5E41",
"S  c #7C644A",
"D  c #786956",
"F  c #7F7360",
"G  c #985E1D",
"H  c #87582C",
"J  c #925D2A",
"K  c #825936",
"L  c #8A5C35",
"P  c #835D3A",
"I  c #895F3A",
"U  c #86613D",
"Y  c #8B623D",
"T  c #91653E",
"R  c #9A683B",
"E  c #A36D3A",
"W  c #805F41",
"Q  c #856243",
"!  c #8E6844",
"~  c #886A4C",
"^  c #926741",
"/  c #956A42",
"(  c #9B6D44",
")  c #956F4C",
"_  c #9E7045",
"`  c #92714E",
"'  c #9E734C",
"]  c #836D53",
"[  c #896F54",
"{  c #887256",
"}  c #82715B",
"|  c #8B755C",
" . c #947353",
".. c #9A7856",
"X. c #937A5D",
"o. c #9B7B5B",
"O. c #A06F45",
"+. c #A27246",
"@. c #A4754A",
"#. c #A9774B",
"$. c #A6794D",
"%. c #AC7A4C",
"&. c #B17E4F",
"*. c #A37B57",
"=. c #A57C54",
"-. c #AC7C51",
";. c #B37E51",
":. c #877A66",
">. c #8D7B64",
",. c #937D62",
"<. c #9C815F",
"1. c #B7814F",
"2. c #AC8055",
"3. c #A5835E",
"4. c #B48354",
"5. c #B98455",
"6. c #BC8956",
"7. c #B48659",
"8. c #BA8659",
"9. c #B4885D",
"0. c #BC8A5B",
"q. c #968165",
"w. c #9D8364",
"e. c #96836B",
"r. c #9B856A",
"t. c #9E896D",
"y. c #978973",
"u. c #9C8B72",
"i. c #A18464",
"p. c #A88765",
"a. c #A38A6C",
"s. c #AA8D6B",
"d. c #B38C65",
"f. c #BB8D62",
"g. c #AD916D",
"h. c #B3936E",
"j. c #BD926A",
"k. c #A28E73",
"l. c #AA8F71",
"z. c #A69276",
"x. c #AB977B",
"c. c #AD997E",
"v. c #B29673",
"b. c #B59976",
"n. c #BA9B75",
"m. c #B39778",
"M. c #B49B7B",
"N. c #BB9E7A",
"B. c #BDA17D",
"V. c #C28E5E",
"C. c #C6905E",
"Z. c #C18F62",
"A. c #C69363",
"S. c #CB9665",
"D. c #C59669",
"F. c #CC9B6B",
"G. c #C39B73",
"H. c #C09D7A",
"J. c #C2A27D",
"K. c #CCA57D",
"L. c #D6A776",
"P. c #A79881",
"I. c #AC9B81",
"U. c #B29E82",
"Y. c #B89F80",
"T. c #B5A185",
"R. c #BDA382",
"E. c #B6A489",
"W. c #BBA68A",
"Q. c #B7A88F",
"!. c #BCA88C",
"~. c #BDAC92",
"^. c #C2A682",
"/. c #C4A986",
"(. c #C9AB86",
"). c #C5AC8B",
"_. c #C9AE8B",
"`. c #D1AE87",
"'. c #CCB18E",
"]. c #D3B28C",
"[. c #C3AE92",
"{. c #C4B193",
"}. c #CDB493",
"|. c #CBB698",
" X c #CEBA9D",
".X c #D1B693",
"XX c #D8BC97",
"oX c #DABE9A",
"OX c #D1BEA0",
"+X c #D7C09F",
"@X c #DCC19E",
"#X c #D7C1A2",
"$X c #DDC5A2",
"%X c #DEC8A6",
"&X c #E1C6A3",
"*X c #E2C9A6",
"=X c #E5CDAA",
"-X c #E7CEAC",
";X c #E9CFAC",
":X c #E7D0AE",
">X c #E9D1AE",
",X c #E2CFB1",
"<X c #E7D1B1",
"1X c #EED8B6",
"2X c #ECD7B8",
"3X c #EED9B9",
"4X c #F1D9B6",
"5X c #F2D9B6",
"6X c #F2DBBB",
"7X c #F9E4C4",
/* pixels */
"g.h.h.h.h.h.v.h.h.b.v.v.v.b.B.b./.&X$X@X$X*X-X*X$X&X*X-X-X-X-X.Xb.'.}._._._.)./.N.h.g.s.g.v.3.p.i.z.a.z.J.B.B.^._._._./.^.J.^.B.",
"h.@X*X*X*X*X*X&X>X6X1X1X1X<X6X-XoX6X4X>X;X<X6X<X>X-X4X6X6X4X6X-XoX6X4X4X<X4X6X6X<X;X*X;X>X;X>XXXR.4X;X;X>X>X>X>X4X4X4X<X<X>X4X-X",
"v.-X-X&X*X@XoXXX$X-X<X<X>X<X6X$XXX;X&X*X&X-X<X-X-X*X*X*X*X-X<X-XXX;X*X-X*X*X>X<X;X-X-X-X-X*X4X#XN.>X-XoXXXXX@X;X*X*X&X$X*X*X<X$X",
"R.>X&X*X$XoXXXXXXXXX*X$X-X<X1X$X}.>X&X&X&X&X<X-X*X&X*X-X$X*X<X-XXX>X*X-X-X>X<X>X>X-X*X-X;X-X<XXXM.;X@XXXXXXXoX*X-X$XoXoX&X*X<X$X",
"R.:X@X$X$X@XoX@XXXXXXX-X3X<X6X-X.X>X&X-X&X&X*X&X*X$X&X.X`.oX;X$XXX>X-X-X-X<X<X-X>X;X*X*X-X>X<XXXb.&XoX@X@XXXoX@X&XoXoX@X&X*X;X*X",
"n.-X@XXX$X@XXX@X$X@X@X:X<X1X6X$X}.>X&X$X-X&X&X*X*X$Xj.A.C.(.-XXXXX4X;X-X-X<X<X-X-X*X-X&X-X<X<XXXb.&XXXXX.XXX@X@X@X@X@X&X-X*X>X*X",
"N.*X-X@XoXoX@X-X<X<X-X*X*X-X*X.X'.*X*XXX@X*X*X-X-XJ.5.F.A.G.*XXX_.>X<X>X-X<X<X>X-X&X*X*X-X<X<XXXv.*XXXoX@X&X&X*X-X-X-X-X-X-X<X-X",
"B.-X-X*XoX@X-X<X>X:X:X>X<X3X-XoXXX*X-X*XoX-X-X-XXX8.Z.f.A.j.XXU.r.}.>X>X-X-X;X>X-X*X*X&X*X-X>XXXM.*XoXoX@X$X*X&X$X*X*X-X-X-X<X-X",
"B.*X$X*X&X-X<X<X<X<X<X<X3X<X-X$XXX-X*X*X*X-X-X-X^.;.-.@.O.i.E.z.,.[.-X;X-X-X-X>X-X-X-X-X*X*X>XXXR.&X@X@XXX@X*X&X@X&X*X*X-X-X>X*X",
"B.>X$X3X<X*X>X1X3X6X3X3X<X:X>XXX}.-X&X*X&X*X*X-Xn.+.! Y ! u.~.c.| E.$X<X<X-X>X-X*X*X-X-X*X-X>XXX).*X&X$XXX@X*X&X$X@X@X-X-X-X<X*X",
"/.>X@X<X<X*X>X<X3X6X<X3X-X-X<X$X_.-X&X&X$X*X*X-XN.R B M ( w.!.c.X.[.*X-X-X-X<X-X$X-X-X-X-X-X>XXX}.*X@XoX@X-X*X*X&X$X$X*X*X*X>X$X",
"^.-X$X<X<X@X:X<X<X<X<X<X*X$X<X$X'.*XoX*X-X*X*X-X/.R m j ( w.!.z.X.*X>X-X-X-X-X-X&X*X*X-X<X:X>XXX}.-X&X&X*X*X@X$X&X$X$X&X&X@X>X*X",
").*X$X<X:XXX$X<X<X2X3X<X-X-X-X$XXX*X@X*X-X*X&X*X}.I k w P o.I.z.,.$X>X>X>X-X-X-X-X-X&X&X-X-X;XXX.X-X@X&X@X@XXXoX*X$X$X$X@XoX<X*X",
").<X-X6X<XXX$X<X<X<X2X3X6X<X*XXXXX*X$X*X&X&X*X-XXXQ s q f Q !.}.]  X>X-X-X*XoXXX@X*X&X$X*X*X-XXX}.*X&X<X*XoXoXXX@X&X-X@XoXXX-X$X",
"'.6X4X6X3X<X<X<X<X6X6X6X3X<X<XXXXX4X>X>X*X-X-X;X;Xw.8 q j ) ^.B.` J.K.G.D.D.Z.V.`.*X-X;X;X-X>X$XXX<X*X>X<X*X*X*X-X;X;X-X&X*X<X*X",
").-X$X-X:X<X-X-X-X<X<X-X-X%X-XXXN..X'.}.XX.X.X'.'.i.O 4 ' L.V.#.-.A.5.0.2.M ! @.s.XX@X$X@XXX$X}./.&X@X@X@X@X@XoX@XoXoXoXXX$X&X}.",
"g./._.}.}.XXXXXXXXXXXX.X'._..XB.R.XX'.'.XXXXXXXX}.'.>.Y -.2.0.( ( ^ ( %.B   4 ^ B w.a.t.z.).).B.b.}.}.}.}.)._.N.h.n.N.J.N.n.h.v.",
"_.<X6X6X-X;X<X<X<X1X<X<X<X>X4X$X$X6X-X&X*X&X@X<X<X>X.XO.B U 7.^ P Y / @.b . = / ! I.T.I.T.-X6X-XXX6X4X6X6X6X6X>X;X<X<X<X<X*X;X*X",
"/.>X>X-X&X*X*X-X;X>X<X-X>X-X;X$XXX<X*X*X*X-XXX$X>X-XN.J m P 7.U s Y ( +.v . & ! P k.T.v.S.].<X$XXX4X<X-X>X<X<X<X<X3X>X<X6X>X<X-X",
"R.<X-X-X-X-X*X*X*X*X>X>X-X-X<X$XXX<X-X-X:X<X-XXX:X-Xd.T m B 7.! & P ( +.v . # B Y e.E.p.1.j.<X$XXX4X>X*X*X<X3X3X1X>X:X<X<X>X<X<X",
").<X*X$X$X&X*X*X*X-X<X<X-X>X<X$XXX<X:X:X<X<XoX'..X<Xh.L m v $.$.# z ( ( P o # j h | E.s.%.%.$X,X$X6X-X-X-X>X<X<X3X<X1X3X<X<X<X-X",
").<X*X&X&X&X*X-X-X-X>X@X..M.<X$XXX<X<X:X<X$Xn.(.-X3XR.H m k ! -.q 0 ! ( Y o # j v S {.h.0.;.f.XX$X6X-X-X-X-X<X3X6X6X6X6X3X3X<X$X",
"^.<X>X-X*X-X-X-X>X<X<X_.A } <X$XXX<X-X-X-XXX(._.*X<X}.H m k U -.y ; j +.^ $ & s b y %XN.&.f.@.-.XX6X>X#XW.$X1X6X6X6X3X<X>X<X>X$X",
"/.<X>X-X-X;X;X>X<X<X*X;XXXT.4X$XXX-X-X<X%X-X*X.XoX-X&X .p z P 4.m * ; P n     w f 1 %XR.R 8.7.@.f.oX-XE.x.XX>X>X<X<X<X<X-X<X<X-X",
").<X<X>X>X>X;X>X<X<X.Xp.X.XX4X$XM.I.XX>X$X*X$XoX*X$X*X}.B 5 m @.n & : y Z D C 5 j k.<X}.E %.4.8.@.8.G.i.A a.-X>X:X-X-X:X-X-X6X<X",
".X<X-X<X<X<X>X;X;X<XK.6.X.-X<X$Xi.c.XX-X:X$XXXoX$X@X@X*X}.c f Z X.M.q.{ T.<X[.6 j E.<XXX( 4.4.5.-.@.S.A.( 7 U.4X-X-X-X&X$X*X1X2X",
"XX<X$X<X>X>X<X;X<X$XF.7.T.<X<X$X,.!.XXXX-X$X.XXXXXXX*X$X&XX.g Z g.XXz.q.).<X.Xc y u.-X$Xj ( 4.4.5.&.-.@.! : 3 x.{.$X-X$X&X-X<X<X",
"}.<X-X<X-X-X>X-X>XH.S.*.#X>X1X X>.).XXXXXXXXXXXX.XXX$X-X$Xl.Y m w..X)./..X>X*X] 2 >.%XW.  w T +.%.5.7._ Y 0 0 O } !.$X>X-X<X6X<X",
"XX<X<X>X*X-X*X>X$X$.5.a.:X*X-XE.r.XX.XXX&X$X.X.X.XXX@X*X;XR.R U | '..X}.'.-X<Xe., D OXr.4 o * l I ( #./ M 0 w q b s.T.$X-X;X3X<X",
"$X<X*X*X*X-X&X>X_.%._ U.4X*X#Xz.U.$XXXXX@X$XXXXX.X.X@X$X*X}.Y P { ).'._./.$X6XT.O D !.'.,.  q = = q b v & 0 : w -.5.v.I.}.<X<X-X",
"XX<X>X>X>X>X>X<XG.V. .#X}.@X Xz.{.>X$X$X-X-X>X<X*X@X&X*X*X@X) I ~ )..X'._.$X6X{.@ u X.o.u & v s w 0 k y * : M @.-.0.A.v.E.$X*XXX",
"h..X$X$X%X$X*X{.%.0.| !.  C E.r.v.XX}.}.}.XX}.'._.J.^.J.n.n.` P N a.B.N.N./.XX).X + 4.%.  0 M P d e v k - j ;.V.7.4.A.S.i.r.N.^.",
"B.N.@.-.*.3.g.` #.^ z.]   V x.q.}.<X-X%X@XXXoXXX.X).XX@XXX'.X.a Q w.g.g.v.n.B.B.r.i.S.'   s v I Y k b y ; ( ;.4.Z.8.-.@. .,.,.s.",
"*XW.r ' @./ ! / ( Y z.Z   >.~.OX<X7X<X<X-X<X<X*X-X<X6X6X6X<X).s.s..X_.}.XX.X'.XX.Xd.F.j & v m M Y ( v y y -.0.0.%.^ P f ] a.r.a.",
"XXW.r Y v d y y k Y L / @.@.o.z.R.$X$X-X*X;X:X-X:X<X2X<X<X<X&X.Xs._./._./.'.'.XXM.@.9.& * b P M P ( d f P / 4.( Q S w s D t.k.R.",
"}.).J ' T T T P b k k v M P K a a h ` o.s.R.XX$X$X3X6X7X7X7X<XXXB.@X.X.X^.'.'.'.3.&.o.C X 0 P L ( @.! ' +.f P | z.e.w p | c.U.XX",
"_.^.%.4.%.$.#.@.+.( / Y P B P M z j s f p f l W  .a.W.XX,X<X6XoX).1X>X-X$XXX'.J.0.0.t.e.  - u.r.R +.;.8.Q | k.x.M.e.w i >.U.}.-X",
"}.R.G %.4.4.&.%.+.+.+.( ( ( ( / T Y Y ! ! Q B k f p g H Y  .l.a.z.XX$X-X1X-X*Xv.0.@.T.u.    P.W.3.m.P Y [ U.c.x.T.x.e i ,.E.-X-X",
"_.*X).s./ +.@.@.@.@.#.+.( ( ( ( ( ( / / ( ( %.-.' ! S m f p a g b ^ ..s.N.^.). .%.~  XV   C E.).n.*XA i [ c.x.M.@X}.w 7 | }.>X*X",
"R.<X<X}.I T Y Y P P Y ( @.@.+.+.+.O.+.+.+.( ( +.4.0.0.0.7.' ! B k v K T +.@.@.@.( o.z.5 > I.{.XXB.$XW f [ U.I.}.*X).3 % k.;X-X-X",
"R.-X-X}.+.+.@.@.@.( / Y P P P Y T ( +.+.@.%.%.@.@.#.%.&.4.V.V.0.f.j.d.*.! P ! ! / Y ( ( D U. X@Xv.$XA p ] c.W.$X&XXXy   U.-X-X-X",
"R.;X_.{ 4.4.%.%.+.+.+.@.@.@.@.( Y K P P I Y ( +.$.-.4.4.4.4.4.4.6.A.F.L.L.F.f.2.' ! A 7 y.U.%X$Xv.*XB i ] x.XX*X-X<X{.T.*X*X<X$X",
"z.>Xr., ( _ @.%.&.&.%.+.( +.+.@.%.@.( ( / P b b b P Y Y ( @.&.4.&.%.%.%.2.0.V.F.F.F.S.U y.T.{.[.a.XXc 7 ] {.-X*X*X*X*X>X>X%X<X@X",
"s.>X,.9 z f v P T ( @.%.%.4.4.4.%.@.( / ( ( / / T T / ! B v n Y / @.%.%.( ^ _ %.;.4.0.Y y.T.Q.P.] [.c < | *X-X:X&X$XoX@X-X-X<X$X",
"v.<Xi.h B v f d s s f b Y ( ( @.@.%.+.( / T Y P P Y / +.@.' / v B P U U Y ' 4.0.0.0.0.Y u.E.~.z.,.*XD   r.>X:X6X-X&X&X*X*X>X<X$X",
"R.<Xw.h U U Y Y Y Y b f y y e s s b b Y ^ R ( +.( / Y P P I Y v B ( ' *.*./ ! Y ! / +. .I.T.W.u.w.>XXXT.$X-X&X-X:X*X*X-X-X>X<X%X",
"#X4X,.p P P U ! ! / _ @.+.( U b k s s k v v P / +.@.%.@._ _ ( T P b v n / ' *.-.2.4 C U.E.E.~.z.M.<X>X4X;X-X-X-X-X>X<X<X>X<X<X-X",
"^.$Xz.S f i 9 9 9 p g P ! ! ! / / Y n v z v k d d k v b Y / _ +.+.( ( Y K K K Y ( 7 >.z.q.a.r.w.v..X^.^..X$X$X$X$X$X-X-X&X$X$X}.",
"N.'.'..X_.R.Y.z.t.] m i 2 1 6 i v P P B B B n b v d y y y y y f v P Y T / ^ / ( ( w Z { a.N.N.v.` g.B.N._.XXXXXXXXXX.X.XXXXXXX'.",
"@X>X*X-X;X;X<X<X>X*X@X}.T.k.] x 5 @ , < 8 s k v m B v v M v v k d f s e e y d I +.k s e.$X-X4X$Xa.>X;X-X-X;X-X*X*X*X&X&X$X&X<X:X",
"@X-X*X*X$X-X-X*X*X-X*X&X-X>X<X}.w.T.t.,.S j 8 2 6 e s k z v v v v v b n v f s y d j 7 } W.$X<X#XR.>X;X-XoXoX@X@X$X@X@XXX`.@X>X%X",
"@X<X-X-X$X-X>X*X*X*X*X@X$X-X<XXXg.>X>X-X@XXX).N.i.` k 6 1 2 8 s k k k z v b n P B P y F |.-X:X+X).<X<X<X&X@X@X@X@XoXoX.X.X-X<X-X",
"@X:X-X-X*X-X<X>X*X$X$X*X$X-X<XXXM.-X*X*X*X;X-X>X*X$X@X).x.q.S c 8 1 2 8 s f k v n ! a :.-X-X-X#X).<X-X-X$X*X$X&XoXoXXX`.XX-X<X-X",
"$X-X*X-X-X*X-X:X-X$X$X$X$X*X>XXXR.>X*X*X*X-X*X*X*X*X>X-X*X*X-X XM.W.k.| Z s < 1 6 s @ I.<X:X<X$X).<X*X$X*X-X&X$X@XoXXXXXXXXX*X-X",
"$X<X-X-X-X*X*X-X-X$X*X$X$X@X>XXXM.>X*X*X*X-X-X-X-X*X-X*X@XoX-X$XXX<X-X*X@X}.T.u.| Z w #X<X-X<X$X'.;X*X;X-X-X$X&X&XoXXXXXoX.X$X-X",
"XX>X-X-X:X-X*X-X*X$X*X*X$X$X>XXXz.-X-X*X$X*X-X-X-X-X-X*X@XoX-X$X}.-X$X*X-X*X*X*X*X$X+X-X<X-X:X+XXX>X*X-X-X-X$XXXoX@XoXXXoXXX@X-X",
"XX-X*X*X-X*X-X-X$X$X*X*X*X*X-XXXa.-X-X*X*X*X*X-X-X-X-X-X*X&X-X$X'.;X*X*X$X$X$X@X$X-X>X-X-X&X*XXXXX6X>X;X-X&X&X@XXX@XXXoX*X-X>X*X",
"XX-X*X*X*X*X-X-X$X&X*X$X-X-X-XXXw.-X*X&X&X*X$X$X-X-X*X*X-X-X<X$X'.>X-X-X*X*X*X$X$X*X$X*X-X$X-X$X.X6X<X;X&X$X&X-XoXXXoX-X>X>X<X-X",
"XX-X-X-X-X*X*X*X*X$X$X$X*X*X-X.X<.*X-X$X*X*X*X*X-X-X-X-X-X*X<X$XXX-X-X-X-X-X-X$X$X$X*X-X-X-X<X$XXX<X;X-X*X@XoX&X@X@X-X>X>X;X<X-X",
"}.>X*X-X-X-X*X$X$X$X$XoX$X&X-X.Xv.;X$X$X$X-X-X:X-X*X@X&X&X&X>X$XXX-X-X-X-X-X*X*X&X$X-X-X>X-X<X$X}.6X<X*X&X$XoX*X;X*X-X>X<X<X6X-X",
"XX<X*X*X-X-X*X$X$X@X$X&X&X$X-X.Xg.>X*X-X-X:X>X<X-X*X$X@X$X-X<X$XXX>X*X-X-X-X*X$X&X*X-X>X<X-X<X$X_.6X<X-X&X-X$X-X6X*X*X>X<X<X6X-X",
"}.>X*X&X*X*X$X$X$XXX@X*X$X@X*X.Xz.-X*X-X>X:X-X<X*X-X-X*X*X-X>XXXXX-X*X*X&X*X*X*X*X*X-X-X<X-X-X#X).<X*X;X-X$X@X&X<X*X*X>X<X<X<X-X",
".X<X>X<X-X-X-X-X-X&X-X-X-X*X>XXX/.6X;X<X<X<X<X<X<X<X4X<X<X<X<X$XXX>X-X-X-X-X-X-X-X-X>X<X<X<X6X$XR.4X-X<X>X-X-X>X6X-X*X<X<X<X6X<X",
"n.'.(.'._.^./.).^./.).).)._.'.^.s./.^.R.^./.^.R.R.R.R.^.).).).M.M.XXXX}.}.'.}.XX}.}.).)._.}./.b.w.}.XXXXXXXXXX@X$XoXXXXXXXXX$X.X"
};
