/* XPM */
static char *map_R[] = {
/* columns rows colors chars-per-pixel */
"64 64 63 1 ",
"  c #69553C",
". c #6D583E",
"X c #725D41",
"o c #766044",
"O c #7E674A",
"+ c #7E684C",
"@ c #846B4C",
"# c #8A704F",
"$ c #876F51",
"% c #8C7252",
"& c #8F7658",
"* c #917655",
"= c #947857",
"- c #987B57",
"; c #957B5A",
": c #9A7E5B",
"> c #9D815E",
", c #A1825E",
"< c #9E8361",
"1 c #A38663",
"2 c #A58966",
"3 c #AA8C66",
"4 c #A68B69",
"5 c #AB8E6A",
"6 c #AD916D",
"7 c #B2936E",
"8 c #AE9371",
"9 c #B29672",
"0 c #B59975",
"q c #BA9B76",
"w c #B59B79",
"e c #BB9E79",
"r c #BEA17C",
"t c #C1A37E",
"y c #BEA481",
"u c #C2A681",
"i c #C5A985",
"p c #C9AC86",
"a c #C6AC8A",
"s c #CAAE89",
"d c #CDB18D",
"f c #D0B48F",
"g c #CEB492",
"h c #D2B692",
"j c #D5BA95",
"k c #D8BC97",
"l c #D6BC99",
"z c #D9BE9A",
"x c #DCC29E",
"c c #DEC5A1",
"v c #DFC8A6",
"b c #E1C7A4",
"n c #E4CAA7",
"m c #E6CCA9",
"M c #E8CFAD",
"N c #E7D0AD",
"B c #E8D1AF",
"V c #E7D1B0",
"C c #EAD3B1",
"Z c #EED8B7",
"A c #EDD7B8",
"S c #EFD9B8",
"D c #F1DCBC",
/* pixels */
"%554651,5qq00e5%=222257775777771%554651,5qq00e5*ymmmmmmnnmmmNmmb",
" @%%%%#%=::;;;@X5jzxzjjlxccxxxziX@%%%%#%*::;;;@XiBBCCnxxmCBSDCCC",
";0etttuuuutte05;9MCCCCCCDSCDSCBl;0ruyruuuueee04%ybxnmzjzmCBCSCCm",
"sBBBBBCCBCBBBmnuqnBCCCCCBmNCCCClybmmCCBBCBmmmcj7ucjhjjkzbMBCCCCm",
"smmmnmmmmmmcxzxurBCCCSCBmbnmmmmlybccmBmmnmmmmcf7ibzjhjkjznBCBBBn",
"smnbnmmmmmnxzjkttCCCSSCCmbbmmmmlebbcnBmnnnmncxf7ibxzjjkzzznmmnbb",
"dmbxbmmmmmnbxzkrrCBnCDZCNmmmmmmlwmmcnmnnmmmnxzd7incxzxzxxkxnmmmm",
"fmczxbmnnbbcxxzreCCxnDDCNmmmmmmjwbxxnmmmmmbzzzf0incxxxbzzxxmCCCC",
"hmbxzbmnbxxzzzhqqmCCmDDCNNBmmmmj8zxxbmmnmmnxzkd7inxxbbbzxnbbnbmm",
"hmbbccmcxccbbzjrrmCCCSZBmCCmmmBg4jzzxnbxbmnxxzp3umxxbbbbbbxxbbnn",
"dnmnxxnxxbbxzjjesCCCCCBmmNCmmmMg1hxxzbxxxcnnBxp3ymxxnmmmnbbbmnnn",
"inczkxbbbbbzhhheaCBmmnmmbnmNmmmg<jjjkxcnbcnnnji30ncbbbmMmnnnnmmm",
"icjjhjxxxxbxjffqaCmccbnmnbbnmnms<xkjjxxxcxnxcjp56nBCmbmMMBMmmMmm",
"ixhhhfkjhjzzhhhqaBczzzxccxxxcbna<hhfzxlzzzxjjju16mMCMmmmCCCCCMmb",
"rzffhsfffhfjhzf7ubzjhfjjjjjjjzci;dfdhjjbnxjhffi;<lbmmmnmCCCCCBmj",
"9zhppuppddpdsst30jdddsddsdddddhe%djspsfjjdddppt%*28wweuiutiiutr7",
"5pitqqqqrtetqq7>iCNNCmnmmmmmmmmg+etqqqiutttteq7%o;:>><<:::;;:::;",
"qzxzlzllxxzzjjheaCmNCCcmBBmmmmml6jjlxxccxxnmcll0:uaaiaiyyiaaaaa0",
"qmBBBBMmmmmmnbxiiNmmCCczBCNCCNNlrbmCCCCCCCCSCCCs6bccxbcczzcccccg",
"tmmBCCBmnmmmncztimmmBmnjxmmmxjjaecmCCmBCCNmNNNMd5cvccmmnxxcnnnmz",
"tmmMmmmnnnmmnxztammmCmzllmmmxjhu8jmCmnCSCCBmNmmd5nnmmmmNmnmmmmml",
"enmmnnnbmmnncxztimmmNcgjmBNmmljy4dcmmmNCCCCNNmmh0nmmNmNmmcmmmmmj",
"ebmnnmnmmmmnbxkeummmNmxhcCBmmmxy1idzmmCSCCCCmmMlummnnmmmmnnmmmml",
"rnmMMmnmnnnnbxh0emmmNBNmmmmCCCcr1rijmmmCCCBmmNCcamncxcnnnnccbnnx",
"imMBMmmmmnbnbxj0emmmCmNNmbbNCCcr1updcnmmNmmmNmmldmczzcbbcccbbnnc",
"dCCBmBBBBmmmbxze0mmmmmmCVmmmNCcy<ussxmmNmmCCNmnjsmnxlxccxccbcnnc",
"gCBCCCCMmBBmncz00NmmmmmCCNBmmmxe<tsszmnmmmCNBmmjdmcccccxxcnnnbnx",
"hmnBCCBmmmmmmnx09NmmmmCCmmmCVml0>uipzBmmCmmmmBmljmcxccxxxxbnbcbx",
"dmmmnmmmmCmmmnxe6mCNmCCCmnCCCCj0;uuujVmVCmmnnCNxjnxxcxzzzxxxcxxx",
"jBmmmMBBMmmmmnxe7mCCCBBmmmCCCVj9;ripdmCCNmbxcmmzdjjjzjjjjjjjjjxz",
"lMmmMBBBBMmmmnbe6llgglxxxxclllu2;ruadcCCmmmbnnnjr0qiiputuipppsfh",
"pnmmmBmmmccxcxl9=76569657ee0qq5-;erislnnnCNmmmbseq0rre090qrrtrrq",
"7udgdirr0999922*X$%%%%%%*><>><%X*2557qriiggdssi7tpsddhjlddddddpt",
"jcVNmcxbmNNmxzj6 %:>::>,1211,-@.6fhjjhhllxvmmnx9esgxxccxzlhpsdhd",
"mBCmbbxbMmmmccx0%60990qeeeeeq5*X8hjlllllzzxzcbx5uxxcccxxnmndhcnl",
"BBmccbczxzxnccc0:isfffffhhfdst1@9jjxllllzzccCCn9incncbnbmmmxznmj",
"BCnbbnbxzxbnnnne1dfhjjjhjzjdds7%imcncllllcCCDCb5ambnnmmmmnmcxnBh",
"BCnnnbbbcxbmnmme5hjzxxxzxzjjjhp:sCCCVcxxcCSSSmz6dmcbnnmmmmmncmBh",
"nmnbccbnnbnBBmMr5jxcnmcxxzxxxjd<iCCCAmnmmNCCBcz5inccbnmmmmmmmmMh",
"bnmbbbbbnbbmmmmr6fxbmmncxzxljds1imCCCmxzmSDCnxz5innnnmmmmnmmBNCg",
"nmmnnnnnnnbbnnmy6jxnmCncxjhdsip1dnmmVmnnCDDCmvx5imnnnmmmmbnmBCCg",
"mBBmnnnmmmnbnnni0lcnnnczzjdspis4gnnSDDSDDDDCmnx6snnnmmmnnnnmNBBh",
"mCBmnbnmmnnnbnnaqhxcxjjhddipuid4gNmCVNCSDmmmmcz8abnnnmnnnnnbmCMh",
"nnbbbnnnmbbnbbna7idjjsshduuurtp4gmcnnnnNDNmCmbx8dnmnnnnnnbbcmBmg",
"bnnbnmmnnbbnbcbi3eidfsuspiuettt4jmnmBmmmCCBCNnc9gmmmnnnmmnnbnmmd",
"cmnbnnnmnnbxccne:39etre00e73656;lmmmNCmmmCCSZmnwgBmmmmmmmnnnmmMd",
"nMnnnnbbnncxxcn0@-,111111:%%%%*@gNNVCCCCCCCCCmnw0siudgdaurqiiigr",
"znbccccccxxxcxx55dggggdgggaggggugmVCCVCCmmmmvcx5*5900qq077779906",
"qgdsdgghgssddsr1uCmBCBmCCCCCCCZc8dgggggjggddaay<o*:>>1<>:>::<><>",
"sCCCSSCmmmVNnczuiMmBmmmBBmBmnnmcymmbnmCSCmnnmmmyo=-:>::::>>,1377",
"uCCCSDSCBNmnnncuuBBmmmBBmmMCBmBxrxxxxmCCCmcccnbeO9eerrrrrqqqerir",
"rCCCCZZSSmmcmBnisBmBBMmmmmCCCBCl0jxnccnxnmmmccbr@tdhhdddddddsdhs",
"rCmnCCCCACCmmCmidCBBCmMmmCCCmmCj8jxnncccmmmmnnmr%ihjjjfhjzjjjjzd",
"tCNbxmBCCACCCCmsgCBmmmCBBCCMnmCg5zcbnnnbmmmBmmmr%shhjjjzzxzjlxxh",
"uCnzjcCCCDCCCmnadCBnmmBCCBBmmmCg<jxbnmmmVZCCBmNy&dhjxzxccxxzzxch",
"rmcjjcCCCSCCVmcidCmnnmmBBMBmmmCl>hxbnmmmmCCBnnNi;fxxxxcccbccxzxh",
"ecllzcmCCCCCNmxigBmnnnmmMBCmnnml4jcnmmmmmmmmccma;jccccvcxcccxzxh",
"rxllzzcmCCCmccxidmnmbnmmBCCmmmBl8xcmmNNmmmmmcnCg<zxcnmmmnnncccnh",
"eczzxxxcmmnxjjxsamnmcbnmBCBmnnml8xcnmCCmmmmmnmSg<xbnmNmmmmncccnj",
"eccxxxzxnmmmcccsaCNmbnmmBCBBNnml8zcnmNNmmmmmmmCg1znmNmnnmmmnmnnj",
"ecbnczxcnZCCCCmiaCCmmmNCCmnmCmml0zcmmmmnmmmmbmmg4jccnnmmmnmmmmmj",
"qcnbxxnmbmcnnmnirmmmmmmBBBMMCCCl0xnmmmmmmnmmmnmj5jxcnmmmmnmmnnmz",
"qxmmnnnnbnnncmma7diisauusjljlxzy0cnmnmmmnbnmmmmj6jxnmmmmmnmmnnml",
"7qudsiiipdhgjjhe5ssdsspudzjljhs70ccljjlllgywygmd6zxnmnmmmnnmmmmj"
};
