/* XPM */
static char *map_N[] = {
/* columns rows colors chars-per-pixel */
"64 64 94 2 ",
"   c #16130F",
".  c #1A1611",
"X  c #1E1A14",
"o  c #201B14",
"O  c #2D251D",
"+  c #32291E",
"@  c #392F22",
"#  c #3D3226",
"$  c #423526",
"%  c #473A2A",
"&  c #4B3C2B",
"*  c #503F2C",
"=  c #52412E",
"-  c #564530",
";  c #594731",
":  c #5C4A34",
">  c #5C4C39",
",  c #634E36",
"<  c #655037",
"1  c #66523C",
"2  c #6C553B",
"3  c #725A3E",
"4  c #6C5A43",
"5  c #745D41",
"6  c #746048",
"7  c #7C6549",
"8  c #7F694F",
"9  c #806445",
"0  c #846847",
"q  c #816748",
"w  c #856A4B",
"e  c #896D4C",
"r  c #8B704F",
"t  c #91724E",
"y  c #866F52",
"u  c #896F50",
"i  c #867154",
"p  c #8D7252",
"a  c #89765C",
"s  c #997752",
"d  c #957956",
"f  c #9A7B56",
"g  c #907759",
"h  c #9C7E5A",
"j  c #A27F59",
"k  c #917C60",
"l  c #9E815D",
"z  c #A2825D",
"x  c #9C8363",
"c  c #A38662",
"v  c #A58966",
"b  c #AA8B66",
"n  c #A08768",
"m  c #AC8E6A",
"M  c #AE916D",
"N  c #B2936E",
"B  c #A68F70",
"V  c #A49176",
"C  c #A99477",
"Z  c #A6957C",
"A  c #AE987B",
"S  c #B59974",
"D  c #B99B75",
"F  c #B59C7B",
"G  c #BB9E79",
"H  c #BEA17C",
"J  c #C1A47E",
"K  c #BEA482",
"L  c #C3A681",
"P  c #C5A985",
"I  c #C9AC86",
"U  c #C5AC89",
"Y  c #CAAE8A",
"T  c #CDB18D",
"R  c #D0B48F",
"E  c #CEB491",
"W  c #D1B692",
"Q  c #D8BC97",
"!  c #D6BC99",
"~  c #D9BE9A",
"^  c #DCC19D",
"/  c #DEC5A1",
"(  c #E1C6A3",
")  c #E2C8A5",
"_  c #E5CCA9",
"`  c #E8CEAC",
"'  c #E7D0AD",
"]  c #E9D2AF",
"[  c #E7D2B0",
"{  c #EAD3B1",
"}  c #EED8B7",
"|  c #EED7B8",
" . c #EFD9B8",
".. c #F1DCBC",
/* pixels */
"L ^ ~ ^ / ( ) / / ^ ^ ^ ~ ~ ~ I D ^ / _ / ~ ^ / _ _ _ _ _ / / W L ^ ^ ^ / / / / / ^ Q ! ^ ^ / T L / / / ) ) ( / / ( ( ) ) ( ( ~ ",
"Y ] { ] _ ] { { ] ] ] ] ] _ { ! G _ { { { { ] { }  .{  .| { ] ^ Q ] _ _ ] { ` ` ] { ] { { ] ] / W ] ] { { _ ( / _ { { }  .{ { { ",
"I _ _ ) ) _ _ _ _ _ ) / ^ ^ _ ~ H ) ] { { { { { ] _ ' { { { { / Q ] ) ( _ { _ _ ) _ _ _ ] { ] ( E ) ) _ _ ~ Q Q _ { ] { ..{ { _ ",
"Y _ ) ( ) _ _ _ _ _ ) ( ^ ^ ( Q J ] { { {  .{ ] _ ) ) _ _ _ _ ^ W { _ ) _ ] ) ) ) ) _ _ _ ' ] ) E / Q Q ~ Q Q ~ ) ` ] { { { { _ ",
"T _ ( ^ ( ) _ _ _ _ ) ( / ^ ) Q P { { {  . .{ { _ ) ( _ _ _ _ ~ E  .] ( ) _ ) ) _ _ _ ) ) _ ] ) T / Q Q W Q Q Q ^ _ ] { { { { _ ",
"R _ / ~ ^ ( _ ) ) ( ( ^ / ) ) Q L { ] ) { ..} { ' _ _ _ _ _ _ ~ T ] ) / ) _ _ _ _ _ ( ^ ( _ { _ T ( ^ ~ Q Q Q Q ~ ^ _ ` _ _ ) ( ",
"W _ ( ^ ^ / _ ) ( ^ / ^ ^ ^ ^ R L { { ^ _ .. .{ ' _ _ _ _ _ _ ~ P ) / ^ ) _ _ ) _ ' ) / ( _ ] ) E ) ^ ~ Q ~ ~ ^ ^ ~ ^ ) _ ) ) ) ",
"W _ ) ) ( / _ / ^ / ( ( ( / ) Q H _ { { _ ....{ ' ' ] _ _ _ _ ~ L ) ( ^ ^ ) ( ^ / _ _ ( _ ' _ / E ) / ^ ~ ^ / ^ ~ ~ ^ _ { { { { ",
"T _ ` ) ^ ^ ) ( / ( ( ( ^ ^ ) Q L _ {  .{ ....{ ] { { _ _ _ ] ! H ( ) ^ ^ ( / / / ) _ _  .] _ / E ) ^ ^ ( ( ( ~ ~ ) ( ) ] _ ` ] ",
"I ) ( ^ ~ ^ ( ) ) ) ) ^ ~ ~ ) ~ W { {  .{ { { ` _ { { ] _ _ ] ! H _ / ^ ^ / ( _ ) ) _ _ { ) _ / E ) ^ ^ / ( ( ^ ( ) ^ ^ / / ) ) ",
"I ( Q ~ Q ~ ( / ^ / ) ( ^ ^ ) ~ E ..{ { { _ ] { _ _ ] { { _ { ~ L { ( ^ ^ ( / ( ) / _ ) _ _ _ / T _ ^ ^ ( _ _ _ ) ( ^ / _ ( ) ) ",
"I ( Q ~ ~ Q ^ ^ ~ ~ ( ( ^ ( _ ~ W ..{ _ _ _ ] { ] _ _ { { ' { Q J _ / ~ ( ) / / ( / ) ^ ( _ _ Q L _ ^ ( ( ) _ _ _ ( ) ) ) _ _ ) ",
"L ( Q ~ ~ Q ~ ~ ~ ^ ~ ( ( ] _ ~ Q .._ ) _ _ ' { ] _ _ _ ] { { ! J _ ) ^ ^ / ( { { _ ^ ^ / _ ` U S ) _ _ _ ( _ ` ` _ _ ) _ ] ` _ ",
"G _ ( ^ ~ Q ~ ^ ( ( ^ ( ( ) ) ^ Q  .{ ] _ _ ' { ' ' { { { { { ! J { { ( ^ ^ ) _ _ / / / ( _ _ P S _ ] { ] ) _ _ ] { ] { { _ _ ) ",
"L _ _ ) ^ ^ / / / ( / ) ( ) _ ^ W { { { { ] { { { { { { { { { ! L { ` ( ^ ^ _ _ ) ) _ _ _ _ ] W S ) ` ] ] ` _ _ { ..{ { ..{ _ / ",
"S Y Y I P P P Y T W ~ ~ ~ ~ ^ T P / / / _ / ) ) / / ! W E Q Q L D Y L G S b S L H G H H P L L G z S P E E E Q ~ / ^ / / ~ Q E H ",
"S Y T T Y Y Y Y W W Q Q Q Q Q Y L ^ ! ! ^ ! ! Q Q W T T T T T J S P J H L P U T U U E E U U U D m U E E E E E Q W Q ! ! ! Q E H ",
"D _ { { { { ] _ _ _ _ _ _ _ _ ^ E { { {  .{ ( _ _ _ ) ) / ^ ^ E J ~ ~ ^ _ _ ' { { {  ... .{ { E S { { ' _ { { _ _ _ { { { ' { Q ",
"H ) _ ] { { ] _ _ _ _ _ _ ) _ ! T { _ ' { { ! ^ _ ) / ^ ^ ! Q P S T Y Q ~ ^ ) _ _ _ _ ' [ ' { E S _ _ _ _ { { _ ) ) _ _ _ _ ] ^ ",
"J _ _ ` ] ] _ ) ) _ _ ] _ ) _ ! T _ _ _ _ ) ^ T ^ ^ ~ Q T L H M x S D P Y W ^ ' { [ _ _ ' _ _ E M _ _ _ { { { { _ _ _ ] { { { ^ ",
"G _ _ _ ) ) ) ( ) _ _ _ ) ( _ ~ T _ _ _ _ ( Q Y L W T L N c d w 7 l S m M P ! _ { { { ' ' _ _ E S _ _ [ { { { { _ _ _ ' { ] ' ! ",
"G ) _ ) ) _ ) ) _ _ _ ) ) ( _ ! T _ _ ) ) ! P L P Y L D v e 7 y n P T S 6 F Q ) _ _ { ] _ _ ` Q H _ _ _ _ _ ' _ _ ) _ _ _ _ _ ! ",
"H ) _ _ _ _ ) _ _ _ _ _ _ ) ( W P _ ) ) / W G N H G M h d x G Y R T P L 8 d I ^ / _ _ _ _ ' ] ^ U _ _ / / ) _ _ _ _ ) / ) _ _ ^ ",
"L _ _ ] ` _ _ _ _ ) ) ) ) ) ( T L _ ( / ~ W J m c l h m T ) ~ Y T P G L n 4 N T ^ / ) _ _ ' ' ^ T _ ( ^ ^ / ) ) ( ) / ( ( ) ) / ",
"T { ] ] _ ` ] ] ] _ _ _ ) ) _ W H ) / ^ Q I D c h S ! _ _ ~ I J L D S H L 6 d P Q ^ ) _ _ _ _ Q T ' _ / ~ / ( ( / / / ) ) ) ) / ",
"T { { { ] { { ] ` ] { ` _ ) _ E G ( / ~ T S m K / { { { _ ~ L D S S D H P n 4 S T ~ _ _ _ _ _ Q T ' ) / / / ( ( / ) ) ) ) ) _ / ",
"W ] _ { { { { _ _ _ _ _ _ _ ` T D ) ^ Q H P ( { ....] ] _ ^ L D D D G J L Y 4 d I Q ^ / _ ] _ ! Q [ ) ) ) ) ) ( ( ) _ _ _ ) _ ^ ",
"W _ ) _ _ _ _ _ ` { _ ` ` ` ] T D ) ^ T N Q { { } { { ] _ ~ J D D D G J L R x 5 H T ! ^ / { ] / ^ ' _ ) _ ) ) ) ) ) _ _ _ ) ) / ",
"W ` _ _ ) _ ` ` _ { _ _ ] _ _ T S / ^ T m S ] { { { { ] ( Q J G G H G H J P H 4 v P T Q ^ { { / ! _ ) _ _ _ ) ) ) _ _ _ _ ) ) / ",
"Q ] _ _ ` ] { ] ] _ _ _ _ _ _ T N / / W b f Q { { ] _ _ ^ Q J H L P L J J L Y i 7 H T W ^ ) ' ( Q Q ^ ) _ _ ) ) ) _ _ _ ) ) _ ) ",
"W _ _ _ ` { ] ] { ] ` _ ` ] { Y N ) / Q M w S _ _ _ ) ) ^ Q J G J L P L J J I M 1 M T ~ / _ _ ^ W W R / ) / ~ Q Q ^ ) ) _ ) / ^ ",
"D W ^ ^ ^ ! W E U L P K P F H M b L G c i 5 h Q ( ) ] ] ( ( ^ Q W T Y I L J P H 7 y H U E ! ! Y P E L T T L L H H J T ! Q Y L G ",
"J Y ! ~ ! T Y Y Y T T U P K K N D P L S x w w H { { { { ( ( ) ( ) ) ( ~ W T T I c : u c m S S c G P J L L H H J H J J L L H H N ",
") _ { { _ ) ( _ { { { { ( ( ( L U _ ) ^ T m 7 v _ ] ( / ^ ~ ( ( _ _ _ ( _ ( ~ ~ P 5 1 z M S m p F P Y W T Q ~ ^ T T T T T T Y L ",
"_ ] _ ) / ( ^ ^ _ / / _ ( / ( J P ) ^ ! T D e d Y _ ( ) _ ( ( ) _ _ _ ) _ _ ( Q S e % 7 h h d 5 S T Q / / ( ^ ^ ^ ^ ! I Y W Q W ",
"] { _ ^ / ) ( ^ ~ ~ / ) ( ) ( J T _ / ~ W L l e N ^ ) ) ) ( ) _ ] ` ) _ ` / P N S p @ & 5 7 3 : H / / / / / ^ ^ ) _ _ W Q ) _ Q ",
"] { ) ) ) ) ) / ^ ^ ( _ ) _ _ L T _ ) / ^ W S r z Y _ _ ` _ ` ] { { ` / U S G P I p O O = - & % K ) ( ) ( ) ) ) _ _ _ / ~ ) _ W ",
"_ { ) ) ( ( ( ) ) ^ ( ' _ _ _ P T ) ) ) / Q L h d N ) _ _ { { { { _ T D H P P L L w O # < ; & % K _ ( ) ) _ _ _ _ ) _ / / _ { W ",
"( ) ) ( / ( ( ) ) ) ) ] ] _ ` P T _ _ _ _ / T N w h Y _ _ { { ( Y N m S P L J H m > O - 2 , = & K _ ( ( ( ) _ _ _ _ _ ) ) _ ] W ",
"( ) _ ) ) ) ) ( ( ( ( ) _ _ _ P Q ] _ ' _ ) W H d e m / ) W G M N b z m L J x 1 # # : 9 9 3 ; = K _ / / ( ) _ _ _ _ _ _ _ _ ] W ",
"_ _ _ _ ) ) _ ) ) ) ) ( ( ) _ Y ^ { { { ) ^ W L c w h v n c b b z f h h g > + O & 7 d f e 7 1 = H _ ) ) _ _ _ _ _ ) _ _ ] ] { E ",
"` { { ` ) ) ) _ _ _ ) ) ) ) _ E ~ _ _ ' ) ! W Y S p d d m b c h f p 2 $ O O $ : 7 d l j t w 2 & K _ _ ) _ _ _ _ ) ( ) _ ] { ] E ",
"_ ` _ ) ( ( ) _ _ ) ) ) ) ) _ Q ! ) _ ] ' ^ Q Q I m p r m v h w : + X O * ; ; 3 i d d z f d 3 & K ) ) ) _ _ _ ) ) ) ) _ ' ] ] W ",
"( ) ( ( ( ) ) ) ) ( ( _ ) ( _ Q ! / ) ' { _ ^ ! R I v q h h l 7   X @ % ; , , 5 d p l b j d 3 & K ) ) ) ) _ ) ) ) ) ) / _ { ` W ",
"/ ) ) ( ) _ _ ) ) ( ( ) ) ) _ T W / ) _ ' _ ) / ^ W S w d c S g . O & = ; 2 2 3 7 e z b s e , & U ) _ ) ) ) ) ) ) ( ( / ) _ _ E ",
") _ ) ( ) ) ) _ ) ) ( ^ / ) _ Y W ) ) _ ' ' _ _ ( W J S N D P x X + & & - , 2 2 3 0 t t e 5 ; & U _ _ _ _ ) ) _ _ ) ) ) ) _ _ T ",
") ] _ _ _ _ ( ( ) ) ( ( / ) ] Y Q { ' ] { { _ _ ) ~ W P P Y Q B X + $ & * = ; , 2 5 5 3 2 , & $ U { _ _ _ _ _ _ _ ) ) _ _ _ ] T ",
"E ~ ~ Q Q Q ! ~ ~ Q W Q ~ ~ ~ F P / / ! ! / ^ ! Y P P P P T W n o O $ $ & & & = : , ; = * % + + n U P H U T Y P H G S L L L T G ",
"G ! ! Q ! ! ! ! ! Q Q ! ! Q E K S Q ! Q Q Q Q E T T E E E Q Q K a Z A C C A A K F K A A A A V k c U Y T T T T T T I P I I I Y L ",
"Y { { { ....{ _ _ _ [ [ _ _ _ / E { _ ] { ] ' ] { { { { _ _ { _ ! ..` ) _ ] { ...._ ) ) _ ' ] T S _ ] _ ] _ _ _ _ _ ) ) ) ) _ ^ ",
"L { { {  ... .} { { _ _ _ { { / U _ _ ` _ _ _ ] ] _ ` _ ) / _ / Q _ ) ( / _ { _ { _ ) ) / ) ) P S ) _ ' ' _ ( / ) _ _ ) ( / ( ! ",
"H { { { { { { {  ._ _ / _ | { / U ] { _ _ _ ] ` _ _ ` { _ _ _ / E _ ) _ ) / / ^ ) _ _ _ / / ) P S ) ) ) / / / / ) _ ) / ( ( ) Q ",
"H { _ ) ' { { { | | { { {  . ./ E ] ` ] _ _ _ _ _ _ { { { ] { ^ T _ _ _ _ / / / _ _ _ _ ) ) _ L S ) / / ) / / ) ) ) / ^ / ) ) Q ",
"J { ' / ~ ) ] { {  .| { {  . ._ ! { ] { { _ ` _ _ { { { _ _ { ~ U ' _ _ _ _ ) ( ' [ _ { _ _ _ P S ) ( ) ) / ) ) ) ) / / / / ) Q ",
"L { ) ! Q / { [ { .. .{ { {  ._ ! { { _ _ _ { ] ] { { ` _ _ { ! H _ ) _ _ _ _ _ {  .{ { ] _ ' Y S ) _ _ / / ) / / ( / / ^ ! ^ Q ",
"H _ ^ Q Q ( { { {  . .{ { { { / W { ] ) _ _ { { { ] ] _ _ _ { ! G ) _ _ _ _ _ _ _ { { ] ) ) _ Y F _ _ ) ) ) _ ) / / ) / / / ( W ",
"G / ! ! ^ / _ ] { { { { { { [ / W { _ ) ) _ _ { ] ] _ _ _ _ { ~ P _ _ _ _ _ _ _ _ _ _ _ ( / _ E S ' _ ) _ _ _ _ _ _ ) / / ) ) Q ",
"H ^ ! ! ~ ~ / _ { ] { ' _ _ { _ ! ] _ ) ) ) _ _ ` ] { _ ) ) _ ^ T { _ ' ' { ' _ _ _ _ _ ( ) { Q G ' ] ] { ' _ ) _ _ ) ) ) ( ) Q ",
"G / ^ ~ ^ ^ ^ / _ _ ) / ! ^ { _ Q _ ) _ ( ) _ _ ] { { _ _ _ _ ~ T { _ _ ' { { _ _ _ _ _ ) _  .! J _ _ _ ' _ ) _ _ _ _ _ _ ) ) W ",
"D / / ^ ^ ^ ~ ^ ) ' { _ _ _ { _ E _ ) _ / ( ) _ ] { ] _ _ ) _ / E _ _ _ _ ' _ _ _ ' _ _ _ _ { ! J ) ) / _ _ _ _ _ ) _ _ _ _ _ Q ",
"G / ( ) / ~ ^ / ) } { { {  . ./ E { _ _ / ) _ _ ] { { ] _ ) _ / E _ _ ' _ _ _ ) _ _ _ _ ( _ _ ! P ) ) _ _ _ _ _ _ ) _ _ ) ) _ ^ ",
"D / ) ( ^ ^ ) _ ( _ ) ) ) { { ! U } { _ ) ) ' ] { _ ) ` { _ _ / T _ _ _ ' ' _ _ _ ) _ _ _ ) _ ! P ) ) _ _ _ _ _ _ _ _ _ ) ) _ ! ",
"D ^ _ _ ) ) ) ) ( ) _ ) ) ' { ^ P ] _ ' _ _ { { { ] _ ` { ] { / T ' _ _ _ _ _ _ ) ( ) _ _ _ _ ! P ) ) _ _ _ _ _ _ ) ) _ _ _ _ ! ",
"N D L T Y P P P P T W W ! ! ^ T D ! Q E ! Q E Q ~ / ) / _ _ _ W Y _ ) ! Q ! ! ! Q E K F K E _ E K ) _ _ _ _ ' _ ) ) / / ) / ^ T "
};
