/* XPM */
static char *exit_open_64[] = {
/* columns rows colors chars-per-pixel */
"64 64 152 2 ",
"   c #000000",
".  c #0B0602",
"X  c #070806",
"o  c #0E0804",
"O  c #120B05",
"+  c #110D08",
"@  c #14100A",
"#  c #1D160C",
"$  c #1E180E",
"%  c #201816",
"&  c #301F13",
"*  c #2E251C",
"=  c #352314",
"-  c #3A2414",
";  c #3F2816",
":  c #31271C",
">  c #392B1D",
",  c #152324",
"<  c #1D2422",
"1  c #242621",
"2  c #292621",
"3  c #272923",
"4  c #2C2A24",
"5  c #332E25",
"6  c #392D22",
"7  c #302F28",
"8  c #353027",
"9  c #3D3224",
"0  c #353129",
"q  c #3E362B",
"w  c #432D1A",
"e  c #4B331E",
"r  c #423422",
"t  c #4D3621",
"y  c #42362B",
"u  c #483729",
"i  c #443A2E",
"p  c #503720",
"a  c #523A23",
"s  c #5A3A21",
"d  c #523E2C",
"f  c #583F29",
"g  c #473D30",
"h  c #483E31",
"j  c #54412C",
"k  c #5B442E",
"l  c #4C4133",
"z  c #534433",
"x  c #5C4631",
"c  c #574937",
"v  c #5D4A35",
"b  c #5C4C39",
"n  c #7B4E2C",
"m  c #624E36",
"M  c #6B4D35",
"N  c #634E38",
"B  c #714F35",
"V  c #645037",
"C  c #6C5037",
"Z  c #6A553C",
"A  c #6D593E",
"S  c #755136",
"D  c #7D5231",
"F  c #73563A",
"G  c #7B5639",
"H  c #725A3E",
"J  c #7D593B",
"K  c #655641",
"L  c #745E41",
"P  c #7B6243",
"I  c #855937",
"U  c #835B3C",
"Y  c #8A5F3B",
"T  c #8B613E",
"R  c #94643C",
"E  c #9A683F",
"W  c #826545",
"Q  c #8D6341",
"!  c #826847",
"~  c #886A47",
"^  c #816748",
"/  c #866B49",
"(  c #8A6E4B",
")  c #926642",
"_  c #966943",
"`  c #9B6C45",
"'  c #946F49",
"]  c #8E714D",
"[  c #92734E",
"{  c #9C734C",
"}  c #947650",
"|  c #967852",
" . c #9C7C55",
".. c #947B5E",
"X. c #9E7F58",
"o. c #A16E44",
"O. c #A47146",
"+. c #A9774C",
"@. c #A7784F",
"#. c #AC794E",
"$. c #B17C4F",
"%. c #A27C54",
"&. c #AD7C51",
"*. c #B27E51",
"=. c #96805F",
"-. c #9F8058",
";. c #A18157",
":. c #A8875E",
">. c #A7885E",
",. c #A8885F",
"<. c #B58254",
"1. c #BA8556",
"2. c #B6865B",
"3. c #BA875A",
"4. c #978162",
"5. c #AA8A61",
"6. c #AC8B62",
"7. c #A58C6B",
"8. c #AD8E68",
"9. c #B18F64",
"0. c #BA8C61",
"q. c #AB916E",
"w. c #B09167",
"e. c #BE9063",
"r. c #B39268",
"t. c #B9966B",
"y. c #BD9A6E",
"u. c #AC9371",
"i. c #B59973",
"p. c #BA9B70",
"a. c #BC9E78",
"s. c #BFA37D",
"d. c #C28D5F",
"f. c #C08E61",
"g. c #C59263",
"h. c #C99767",
"j. c #C69669",
"k. c #CD9A6B",
"l. c #D19E6E",
"z. c #C19F74",
"x. c #C5A67E",
"c. c #D5A271",
"v. c #D8A372",
"b. c #C6A981",
"n. c #C9AD86",
"m. c #CEB087",
"M. c #CDB089",
"N. c #D3B58C",
"B. c #D7B98E",
"V. c #DDBF96",
"C. c #DEC096",
"Z. c #E3C59A",
/* pixels */
"} | } }  . .} | } }  .|  . .X.X.:.|  .-. . . .|  . . . . .| } | ( / / ( ( ] ] ( ] ] ( ( ] ] ( ] ] ( ( ( ] ] ] ] [ } [ [  .] ( ] ",
":.:.6.:.:.6.:.:.:.:.:.,.r.r.r.r.w.6.r.r.r.r.w.6.6.6.r.r.r.r.6.:.:.6.:.:.6.6.6.6.6.6.6.w.:.-.6.6.:.:. . .}  . .:.:.:.:.:.>.6.>.:.",
"6.6.6.:.-.-.:.:.:.:.:.6.9.t.r.r.9.r.y.y.p.p.p.p.p.p.p.p.p.y.t.w.r.y.r.y.t.w.r.y.y.y.z.p.r.r.y.y.r.r.6.;.[ } |  . .:.:.:.>.:.6.6.",
"6.w.6. .[ [ { { x k x m m V V V V Z Z Z Z Z V Z A A Z Z Z Z Z V V Z Z Z m m V Z Z Z Z V V A V V V V V k j j u r k { { %.%.:.6.6.",
":.6.:.] _ ` ` T                                                                                                 - _ ` ` '  .:.:.",
"6.6. .( @.#.#.`   # # # # # # # # # # # # # # # # # # # # # # # # # # # # # # # # # $ # # # # # # # # # O O #   e @.#.#.' ]  .:.",
":.:.[ ~ f.h.k.f.                                                                                            X   f g.h.g.W / :.:.",
"|  .( P &.3.g.<.  .                                                                                         O   a 3.3.<.v b :.:.",
"[  .( P <.3.3.&.  .                                                                                         .   t 2.3.3.N 0 } :.",
"]  ./ P d.k.c.g.  .                                                                                         O   k k.k.g.Z , ^ :.",
"( [ / P 3.f.l.g.  .                                                                                         O   k k.g.3.M < Z :.",
"] [ ! P g.k.v.g.  .                                                                                         O   k l.k.h.Z 4 l } ",
"[ | P H 2.e.j.0.                                                                                            O   d g.0.0.m 0 i P ",
"[ } P x 6 : > 9                                                                                                 # 5 * 5 5 q i b ",
"[ ] A m { #.&.{                                                                                             .   t @.@.@.j 5 i h ",
"/ / V x @.1.h.g.                                                                                            O   k f.1.#.d 4 i g ",
"/ ! m Z #.#.&._   .                                                                                         .   w @.#.#.v 1 i h ",
"P P x P @.+.3.@.  .                                                                                         .   e <.#.@.v 1 i g ",
"P H x W O.&.h.&.  .                                                                                         X   p g.<.@.x 1 y g ",
"W P x ! ` 3.h.@.  .                                                                                         .   e f.f.O.v 4 y i ",
"! P m P U 1.h.#.  .                                                                                         .   e d.3.T y 5 q i ",
"P P V / S <.g.+.  .                                                                                         .   e 3.1.U q 8 q i ",
"W P V ( U *.1.@.  .                                                                                         .   e *.1.Q y 5 q i ",
"/ P V [ J <.1._                                                                                             .   ; #.3.Y i 5 q i ",
"/ ! Z P G 1.g.)                                                                                             .   = 3.3.U u 5 5 q ",
"/ W V / U $.d.)                                                                                             .   - 3.1.T y 1 5 q ",
"/ P V :.) *.g.`                                                                                             .   ; 3.3.) ^ i 5 i ",
"( P Z 8.U R +.Y   .                                                                                         .   - O.o.n 6.V 2 g ",
"( W A p.4.4.6...                                                                                            .   y 4.4...i.K 1 h ",
"] ! A n.Z.V.Z.N.  X                                                                                         @   K C.C.C.B.V 2 l ",
"] / Z q.u.q.i.6.                                                                                            X   u u.q.q.7.z 5 h ",
"] W Z ( s D E Y                                                                                             .   ; R I s % 4 y g ",
"] / H X.) @.d.<.  .                                                                                         O   a 3.#.) V 8 q h ",
"[ / L 6.Q T *.@.  .                                                                                         .   e $._ U  .x 5 l ",
"[ W P r.Z C W F                                                                                                 = J F v 6.K 4 l ",
"[ P P x.M.n.m.a.  .                                                                                         O   x b.n.n.n.V 4 l ",
"} ( P i.n.n.N.s.  X                                                                                         +   b n.n.n.i.c 0 l ",
"] ( L V Z H ( W                                                                                             .   > Q L Z r 5 i l ",
"] ] L V S I O.)   .                                                                                         .   w o.Y S u 5 g l ",
"] } L Z G Q { _                                                                                             .   w ` ) J u 8 g l ",
"( [ L m S Q U T                                                                                                 - G Q J u 0 i l ",
"( [ P Z M U T T                                                                                             .   w U U B u 0 g l ",
"} } P Z B U @.@.                                                                                            .   e @.Q S u 0 h l ",
"| } L Z J T #.#.                                                                                            .   t #._ U d 0 h l ",
"} } L Z T ` 1.@.                                                                                            .   e <.@.Y k 4 i g ",
"[ [ A F ` @.1.&.  .                                                                                         .   a <.#.` k 4 i g ",
"[ [ Z m ` +.1.<.  .                                                                                         o   a <.#.@.v 1 i g ",
"[ ] L =.@.$.3.#.  .                                                                                         .   a 1.<.@.m 4 i h ",
"[ ] L 4.#.*.3.&.  .                                                                                         X   a 3.<.#.m 3 i h ",
"] [ V z @.#.3.&.  .                                                                                         X   a <.$.+.k < i i ",
"/ / V b _ #.3.&.  .                                                                                         X   a <.*.` d 1 i g ",
"[ / V x ` #.1.&.  .                                                                                         X   a <.$.@.j 1 i h ",
" .( V v #.$.1.&.  .                                                                                         o   a *.$.*.k < i l ",
":.] A z O.+.<.@.  .                                                                                         .   t *.#.@.d 1 i l ",
":.[ L m { ` +.@.  .                                                                                         .   a @.` @.j 1 i i ",
":. .W H ` _ _ `   .                                                                                         .   e ) ) ` k 4 y q ",
":.} ! H U U J )                                                                                             .   w G G U d 0 i l ",
" .] P H ) ) S )                                                                                             .   w S T _ d 0 h l ",
"%.[ P F ` T G Y                                                                                                 = G U ` k 0 h l ",
":.} P Z ) G F U .                                                                                               & S G Q k 7 h l ",
":.} L x Q U U `                                                                                             .   e U G ) u 4 h l ",
":.} H x _ Y @.+.  .                                                                                         .   a @.U ` u 4 g l ",
":.[ A H @.O.1.&.  .                                                                                         .   a <.@.@.d 2 i l ",
":.[ A H ` +.d.<.  O                                                                                         O   f d.#.@.d 4 i h "
};
