/* XPM */
static char *wall_top[] = {
/* columns rows colors chars-per-pixel */
"64 64 62 1 ",
"  c #080705",
". c #0A0907",
"X c #15110D",
"o c #372F24",
"O c #6F583C",
"+ c #735B3E",
"@ c #775F40",
"# c #7D6444",
"$ c #7F6748",
"% c #816746",
"& c #846947",
"* c #846B4A",
"= c #8C6F4A",
"- c #8E714C",
"; c #98784F",
": c #897354",
"> c #8D7759",
", c #8F7A5D",
"< c #937650",
"1 c #977852",
"2 c #917B5D",
"3 c #9B7E59",
"4 c #A07F55",
"5 c #947F62",
"6 c #9F8057",
"7 c #9E805A",
"8 c #A38157",
"9 c #A9875C",
"0 c #A7885F",
"q c #AA895E",
"w c #968164",
"e c #998366",
"r c #9A8568",
"t c #A78861",
"y c #AD8D62",
"u c #A48D6E",
"i c #B08F64",
"p c #B29166",
"a c #B9976B",
"s c #B7986D",
"d c #BA9A6E",
"f c #BD9D72",
"g c #BB9E78",
"h c #BFA074",
"j c #BFA27A",
"k c #C09E73",
"l c #C2A176",
"z c #C5A57A",
"x c #C9A77C",
"c c #C7A87D",
"v c #C9AA7E",
"b c #C7A980",
"n c #CCAC80",
"m c #CDAF88",
"M c #D1AF84",
"N c #CDB085",
"B c #CEB188",
"V c #D0B286",
"C c #D2B68D",
"Z c #D4B88E",
"A c #D4B790",
"S c #D5B990",
/* pixels */
"       ............XuACBBmCBCSSAACCAACBBBCCjo ..................",
"***$*:>,,,,,wwww5,::gCCBCCACCAAACAACCCCBCCCb2:25ww55wwre5we5252,",
"kffdlznnnnnnBCCCNzfpjnbnBCCCAAACCSACCCABCCBnsfbBCSABBCSSAAACSSBn",
"fddlllvnnnnnnBBBnzs0gnzbnmBCSSCASASAASABBBCmysznBCACCCSACCCSSACC",
"fdfzzlvnNBBnnnvxvzftjnzznCCAASCAAASAASSACCCBysznBCCASSBCCCCSSCCC",
"dllzzvnNNBBNzllzzzfyzBbnCAACAACCSSACCAAAAAAByfznBCCASSCBCAAACCCC",
"fllzzvnNCCBNnvznbjs0zCBBCCCCCSACASCCCCCCCAABsfbnBCCCASSBmCCCCCCA",
"dklzvnNVCCBBBBBnnfy0bACCBCCCCCCCASCCCCCCCCCmsfbnBCCCCCCCCCCCCAAC",
"flzzvnNNNNBNBCBnnzdybSCCCCBCCBCASSCCCBBnnnmnsfzNBBBCCCCBBCCACCAC",
"lllzcnnNBBNnBCCCmbjsnCCAACCSACCCSSCACCBBnbmnsfnBBBBCCCCBmCCBBBCC",
"lkklzzznnnnBCCBBnbzsfffffffffffffhffffffffffsznCCCCCCACBBCCCCCCC",
"zzllzzbnnnCCCCCCBnbhspppyyyyyyyyyyyyypsspyyyfznBCCAAACnzBCCCCBNC",
"ZZCCZCCZCZZZZSSSSCCnlssdffffsssiyyyyypppssflzzzzvnnnnvcnnnnnczzz",
"vvvvvczzzcvnnccczzzzfqyppssspssspiyqqyqqyypfzlfflllllflllllffdss",
"vczxxcccvnnnnvvzzzzzfypssssppppppiiiiiyyyisfzllfkfffffllkllllffd",
"zczcvvvvnnnNNnczzzzzfpsssspppppyyyyyyyyyypsfcllffffffffkklllllfd",
"zvccccvvvnnnnvczcccclpsssssspppyyyyyyyyyipsdzlfffflkffffffllllfd",
"zzxccczcvvvvczzzzvvvzasssssppppiyyyyqqqqypsdzfkffkllfffffkllzlfd",
"zzzzzzzzzzzzzzlzzvvczssssspppyyyyqq99qqyppsszfdfffffdfffffllllfd",
"zzzzzzzzzzzzzzllzzzzlssssppppppyyqqqqyyyipssfddddffffffddfhllfff",
"zzllzzzzlddddaspsdsddssspppssspyysdaassipdflzlflzzzzlllfllzzzzzz",
"ffdfllzzzsssppyyyiyyyq0q909qyy00yqsssssyqipffdadffddddsfzlzllzlk",
"ddfklzllddfdsdddffdddsssiisspspqyqysffdpq0ydsssssssspppslkkkkkff",
"dddfkfffffllllffllffdffffhzzllfsspsadsdspqyddsssssssssppfddddddf",
"ddddkfflzfzvvvvvvvvvvvnnnnnnnvzffsssasdffsidddssssssssipdadddddd",
"dddffkklcfzcvvvvnnnvvnnvvnnnvvzffppppsadffddddssssssssipdddddddd",
"dfffffllvhzvvvvvnnnnvnnnvnnnvzzdsyyyyisdfdddddssssssssipfdddfddd",
"ffdddfllzhzvvvvvnnnnnnnnvvnnnvzapiyyyypsaddddddsppssspypfddddfdd",
"llfffflllflzzzccvcczzvvvnvvvvcladddddssddfffddfddsssssssdddddddd",
"llflllzvvzlllllzzzzcnnNCCCCCNNNNCBNNnnnnNVCNclfdsddspppsddffsppp",
"dddffffhlhfffffhlffznnnnnnnnvvnnnnnnvccccvvnzspyippiiiyyyppiyqqy",
"ddddfffhffffffffhffhvzzczzzzlzzzcccvzzzzzzzvlpiiippiiiyyyyyyyyyp",
"fdddffffffffffkfffflvcvvczzlllzzccvvvvvvczzzfppppiyiiyyqyyyyyyyy",
"ddddddffffffffffffflczccczzllllzzcvvcvvvczlffppppyyyyyyyyyiiiyyy",
"fdddddfffllfffffklllczczzzzzzzlzzvvvvvvvvcfsdpppppyyipppiyqqyyyy",
"ffddfffflzzlllllllllzzczzzzzzzzzzcvvvvvvvvzdpppppspsssssppyqqqqq",
"lhfffffklzzllllfhlffflzzvczzzlllzzvvvvvvvvzdpppppssdsdaspppyq909",
"nnvvvzzlznNNnvvvvvcvnnnNCCNnvvvvlllzzlzzzllfdpppsssdadddlzzlfffd",
"VVVnnnnnvnNNnnnvvvcvvnnnNNnnvcvnfpsssppspiiy938099q9qyqsVVNnnnvv",
"MVMMVNNNzfhfkkffffffffllllfffflzldllllllkffddy9ypsaaddsdnnnvvvnn",
"MMMVVVVnlfddkkfffffffdffffffkflzllvvvvvvxzllldpyskllxlddvvvvvvvv",
"vnMVVVVnlddffllfffffffdfffffkklzllvvvxxvzzllldpiskxxxxfdvvvvvvvv",
"xvvnMMMvhddfkllllkfffhhfddddffhzflvvvxxzzzllllfsipkzxxfdzvxlkkkk",
"xvvnMMnvfdffllllllkfffffddddddfzflvvvxxzzzllllfsiisakkaskldaaaaa",
"vvnnnnnxfflllzzllllffkkfddddddfzklvvxzzxzlllldpipppsffsdzkdaaaas",
"zzzlzzzzlflllkfflffffllhffffffflflzzzzlllffdsyqqyyypdfsdlllkdaas",
"3333380033009q00063yvnnnvvvvvvnnVCCNnnnnvvzlsyyyppadffdflkkfsyqq",
"38833483;388890008;7nnnnvvvvvnnnVCCVNnnvvvvvdqqqqypdfddffdfddi99",
"0yyq09q888990qqq9033lzxlzvvvvnnnVCVNnnnvxxzldpiiqqqsfffkddffdppp",
"0qq048988489890833;3flllllzlzxnnMVVNnnvvxvcllfsppqysfkkkdddddaas",
"884434888338884333;3dfllkffffzvvvnnnnvvvvvvzzldadsdddkkddddddada",
"33;;3343;334484333;3dllkffffflzllzvvvvvvcvnnvlfdddddddddssasaaaa",
";;;-;333;333333333-<dlllffdddfkffdkzzzlzzxnnvfffddasaddsppsssssp",
"-=%%&=--==-====-;=&-0pssssiyyyyyyiysdssssfllfssppppyyyyq0990qqq0",
"@+O+##%##%&&%%**&%#*=-;;;-;;-==;;;;<<<;<<;<1<<<;;<<<<;&-=;;;-;;-",
"737009yyyyyyyy000yyyyyppsy00000000000000000000000000yytyyyyyyyss",
"flllklzzlzzlffdsidkllllzzfsssassiiipiiissssssssppspsssflllfddfzz",
"fzzzlzzzzzzzzlfasdfllkflzfsssaassissppissssssssssppsssffsisdffzz",
"sfzzllzzzzzzzkasdfffkzzllfssssssssssssssssssssssspsssdfldafllfff",
"ffzzlllklzlzzzfdklffkkffffsssssssssssassssssssssspssssfzzlllkffs",
"fkzllzllkffzzzffllklffffffssisipiipsssssssssssspppssssskzzkdflkf",
"ffkklkfkkffflllkkfflffdffssspyyyyyyyipsaissspppiyispsspfzlsqslff",
"ssdfffffffddfffffdfffdsdapyyyyqqq99yiiisyspyypsyyyyyqyiafayqpsyp",
"00ypyppsspyyyyyyippsiiiyy030008883383380090000034333340yy0440000"
};
