/* XPM */
static char *collectible_64[] = {
/* columns rows colors chars-per-pixel */
"64 64 204 2 ",
"   c #000000",
".  c #030603",
"X  c #031604",
"o  c #141508",
"O  c #0C1514",
"+  c #003603",
"@  c #192717",
"#  c #132B1D",
"$  c #05331C",
"%  c #1A371F",
"&  c #212D1E",
"*  c #000722",
"=  c #061E2F",
"-  c #001F32",
";  c #062C22",
":  c #172E20",
">  c #1A3624",
",  c #173925",
"<  c #1C3B24",
"1  c #0D2436",
"2  c #152939",
"3  c #213B26",
"4  c #223D2A",
"5  c #2A3A28",
"6  c #313026",
"7  c #4D3D2A",
"8  c #005706",
"9  c #195C00",
"0  c #00471A",
"q  c #345D1B",
"w  c #38671D",
"e  c #024426",
"r  c #1C4325",
"t  c #1A4228",
"y  c #005020",
"u  c #224526",
"i  c #2A442A",
"p  c #254B2A",
"a  c #2B4D2A",
"s  c #2B542C",
"d  c #365D26",
"f  c #315D2E",
"g  c #324E31",
"h  c #375932",
"j  c #1D652A",
"k  c #386832",
"l  c #3C7235",
"z  c #474334",
"x  c #49652E",
"c  c #486C32",
"v  c #5A663D",
"b  c #477736",
"n  c #557636",
"m  c #537E39",
"M  c #1B2F40",
"N  c #2E3744",
"B  c #3C474F",
"V  c #5A5A47",
"C  c #655B45",
"Z  c #53774D",
"A  c #686347",
"S  c #74644F",
"D  c #7B6D56",
"F  c #607552",
"G  c #575C61",
"H  c #5C6166",
"J  c #666768",
"K  c #6F756A",
"L  c #78746A",
"P  c #957556",
"I  c #847564",
"U  c #897B67",
"Y  c #927D6D",
"T  c #5A8535",
"R  c #5C8C35",
"E  c #568638",
"W  c #59853D",
"Q  c #618A38",
"!  c #67933C",
"~  c #7FAE3D",
"^  c #5A8741",
"/  c #628C42",
"(  c #669243",
")  c #6D984A",
"_  c #709C47",
"`  c #628B5F",
"'  c #78A24C",
"]  c #7AA551",
"[  c #788E65",
"{  c #9C815F",
"}  c #A4845C",
"|  c #82AD4A",
" . c #87B24C",
".. c #82AB53",
"X. c #8BB356",
"o. c #8FB955",
"O. c #8DB659",
"+. c #92BB58",
"@. c #8F846C",
"#. c #988666",
"$. c #868870",
"%. c #968B79",
"&. c #8C9675",
"*. c #A28460",
"=. c #AC8B64",
"-. c #A58B6A",
";. c #AD8E6A",
":. c #AD916D",
">. c #A4986C",
",. c #AA996D",
"<. c #B3936D",
"1. c #A88E71",
"2. c #AE9473",
"3. c #A6957D",
"4. c #B39672",
"5. c #B59975",
"6. c #B99B76",
"7. c #B69C7A",
"8. c #BB9E7A",
"9. c #98BF6E",
"0. c #B1A16F",
"q. c #B7A776",
"w. c #B8A774",
"e. c #BDA17D",
"r. c #C1A37E",
"t. c #C4B37F",
"y. c #9BC65A",
"u. c #A6D15C",
"i. c #9DC464",
"p. c #A3CD62",
"a. c #A9D366",
"s. c #ACD469",
"d. c #AFD86A",
"f. c #88958E",
"g. c #999185",
"h. c #9C9489",
"j. c #A4998A",
"k. c #B19F86",
"l. c #BDA482",
"z. c #B9A585",
"x. c #BFB185",
"c. c #B7AA97",
"v. c #BCB899",
"b. c #C2A682",
"n. c #C4A985",
"m. c #C9AC87",
"M. c #C4A789",
"N. c #C6AC8A",
"B. c #C9AE8B",
"V. c #C8B883",
"C. c #CCB18E",
"Z. c #D1B48E",
"A. c #C3AC92",
"S. c #C5B494",
"D. c #CDB492",
"F. c #CEB69B",
"G. c #D1B693",
"H. c #D8BC97",
"J. c #D9BE9A",
"K. c #C6B9A5",
"L. c #CEBCA2",
"P. c #D4BFA2",
"I. c #A5C881",
"U. c #B4D783",
"Y. c #D1C08A",
"T. c #C9C199",
"R. c #D5C29F",
"E. c #DCC19E",
"W. c #D5CB9E",
"Q. c #ECDB9C",
"!. c #C8C1A0",
"~. c #D6C1A2",
"^. c #DDC5A2",
"/. c #DEC8A6",
"(. c #D0C2AB",
"). c #DBC7A9",
"_. c #DEC9AA",
"`. c #E1C6A3",
"'. c #E2C9A6",
"]. c #E4CBA8",
"[. c #E7CEAC",
"{. c #E9CFAC",
"}. c #E2D6A5",
"|. c #E7D0AE",
" X c #E9D1AE",
".X c #E2CFB2",
"XX c #E6D1B1",
"oX c #EED8B7",
"OX c #E7D5B8",
"+X c #ECD7B8",
"@X c #EED9B9",
"#X c #F0D7B3",
"$X c #F0D9B6",
"%X c #F2DCBB",
"&X c #F4E4A5",
"*X c #F4E5AA",
"=X c #F9EAAC",
"-X c #EDE6B7",
";X c #F1E6B2",
":X c #F7EAB3",
">X c #F3DFC0",
",X c #F5E1C2",
"<X c #F9E5C5",
"1X c #E3EBDB",
/* pixels */
":.<.<.<.<.<.4.<.<.5.4.4.4.5.e.5.n.`.^.E.^.'.[.'.^.`.'.[.{.[.[.G.5.C.D.B.B.B.N.n.8.<.:.;.:.4.} =.*.2.-.2.b.e.e.b.B.B.B.n.b.r.b.e.",
"<.E.'.'.'.'.'.`. X%XoXoXoXXX%X[.J.%X#X X{.XX%XXX X[.$X%X%X#X%X[.J.%X$X$XXX$X%X%XXX{.'.{. X{. XH.l.#X{.{. X X X X#X#X#XXXXX X$X[.",
"4.[.[.`.'.E.J.H.^.[.XXXX XXX%X^.H.{.`.'.`.[.XX[.[.'.'.'.[.[.XX[.H. X'.[.'.'. XXX{.[.[.[.[.'.$X~.8. X[.J.H.H.E.{.'.'.`.^.'.'.XX^.",
"l. X`.'.^.J.H.H.H.H.'.^.[.XXoX^.D. X`.`.`.`.XX[.'.`.'.'.E.`.XX[.H. X'.[.[. XXX X X[.'.[.{.[.XXH.7.{.E.H.J.H.J.'.[.^.J.J.`.'.XX^.",
"e.|.E.^.^.E.J.E.H.H.H.[.@XXX%X[.G. X`.[.`.`.[.`.'.^.'.'.E.E.[.^.H. X[.[.[.XXXX[. X{.'.'.[. XXXH.5.`.J.E.E.H.J.E.`.J.J.E.`.'.{.'.",
"6.[.E.H.^.E.H.E.^.E.E.|.XXoX%X^.D. X`.^.[.`.`.'.'.`.^.'.'.`.'.J.H.XX{.[.[.XXXX[.[.'.[.`.[.XXXXH.5.`.H.H.G.H.E.E.E.E.E.`.[.'. X'.",
"8.'.[.E.J.J.E.[.XXXX[.'.'.[.'.G.C.'.'.H.E.'.'.[.'.`.`.`.'.E.`.H.C.XXXX X[.XXXX X[.`.'.'.[.XXXXH.4.'.H.J.E.`.`.'.[.[.[.[.[.[.XX[.",
"e.[.[.'.J.E.[.XX X|.|. XXX@X[.J.H.'.[.'.J.[.[.'.'.'.'.`.E.H.{.H.C.XX{. X[.[. X X[.'.'.`.'.[. XH.7.'.J.J.E.^.'.`.^.'.'.[.[.[.XX[.",
"e.'.^.'.`.[.XXXXXXXXXXXX@XXX[.^.H.[.'.'.'.[.[.'.`.'.'.E.H.'.XXE.b.XX{.[.[.[.[. X[.[.[.[.'.'. XH.l.`.E.E.H.E.'.`.E.`.'.'.[.[. X'.",
"e. X^.@XXX'. XoX@X%X@X@XXX|. XH.D.[.`.'.`.'.[.'.`.'.^.E.J.E.%X^.8.XX[.XXXX[.{.[.'.'.[.[.'.[. XH.N.'.`.^.H.E.'.`.^.E.E.[.[.[.XX'.",
"n. XE.XXXX'. XXX@X%XXX@X[.[.XX^.B.[.`.`.^.'.'.'.`.`.`.`.^.J.XX^.e. X[.[.[.[.XX[.^.[.[.[.[.[. XH.D.'.E.J.E.[.'.'.`.^.^.'.'.'. X^.",
"b.[.^.XXXXE.|.XXXXXXXXXX'.^.XX^.C.'.J.'.[.'.'.`.'.{.XX[.'.'.XXE.8.{.[.[.{.{.{.{.'.'.'.[.XX|. XH.D.[.`.`.'.'.E.^.`.^.^.`.`.E. X'.",
"N.'.^.XX|.H.^.XXXX+X@XXX[.[.[.^.H.'.E.'.'.'.'.`.'. X{.^.'.`.'.H.b. X[. X X[.[.'.'.[.`.`.[.[.{.H.G.[.E.`.E.E.H.J.'.^.^.^.E.J.XX'.",
"N.XX[.%XXXH.^.XXXXXX@X@X%XXX'.H.H.'.^.'.`.`.'.'.'.[.[.[.'.^.'.G.7.XX[.[.[.[.'.`.`.`.`.^.'.'.[.H.D.'.`.XX'.J.J.H.E.`.[.E.J.H.[.^.",
"C.%X$X%X@XXXXXXXXX%X%X%X@XXXXXH.H.$X X X'.[.[.{.{.XX X X[.'.{.H.e.$X{.{.XXXX{.[.'.'.{.{.{.[. X^.H.XX'. XXX'.'.'.[.{.{.[.`.'.XX'.",
"N.[.^.[.|.XX[.[.[.XXXX[.[./.[.H.8.G.C.D.H.G.G.D.N.B.B.n.b.b.m.e.5.H.J.J.H.H.G.H.G.G.J.E.E.H.^.D.b.`.E.E.E.E.E.J.E.J.J.J.H.^.`.C.",
":.n.B.D.D.H.H.H.H.H.H.G.C.B.G.e.l.H.C.C.H.H.H.H.G.N.B.N.N.b.n.r.;.<.=.;.:.:.<.4.5.e.n.N.n.l.B.e.5.D.D.D.D.N.B.8.<.6.8.r.e.6.<.4.",
"B.XX%X%X[.{.XXXXXXoXXXXXXX XXX^.^.%X[.`.'.`.E.XXXX[.[.XXXX[.XXE.l.XX XXXXX[. X XXXXX X{.|.XX%X[.H.%X$X%X%X%X%X X{.XXXXXXXX'.{.'.",
"n. X X[.`.'.'.[.{. XXX[. X[.{.^.H.XX'.'.'.[.H.^.XX[.[.[.[.'. XE.n.XXA.F. X X[.'.[.[.[.[.[.[.XX^.H.#XXX[. XXXXXXXXX@X XXX%X XXX[.",
"l.XX[.[.[.[.'.'.'.'. X X[.[.XX^.H.XX[.[.|.XX[.H.|.[.[.[.E.H.'.H.P U w x Y F.XX X[.[.[.[.[.[.XX^.H.$X X'.'.XX%X%XoX X|.XXXX XXXXX",
"N.XX'.^.^.`.'.'.'.[.XX X[.[.XX^.H.XX|.|.XXXXJ.C.G.[.[.'.Z.n.1.C q E / W E n @.H.XXXX[. X XXX%X_.^.%X[.[.[. XXXXX@XXXoX%XXXXXXX[.",
"N.XX'.`.`.`.'.[.[.[.[. X[.[. X^.H.XXXX|.XX^.6.m.[.@X$X^.3.7 X ( ) m X.] ^ W R n @.F.oXXX[.XX%X_.E.%X[.[.[.[.XX@X%X%X%X%X@X@XXX^.",
"b.XX X[.'.[.[.[. XXX X[. X[. X^.H.XX[.|.[.H.n.C. X^.@.7 #.T.&.+ 9 p.d.a.p.X.) W ! c @.H. XXXXX^.R.%X[.[. X XXX%X%X%X@XXX XXX X^.",
"n.XX X[.[.[.[. XXX X{.[.{. XXX^.H.XX X|./. X{.M.U V >.}.:X*X*XW.&.E o.s.s.a.p.X.( T R d I F.XX^.H.@XXX|.XXXX[. XXXXXXXXX[.XXXX[.",
"N.XXXX X X X{. XXX X[.[.{.{.XX^.N. X XXX[.F.Y v m h e.;X&XQ.Q.*X:X!.K Q y.s.s.u.9.f.9 O.| + k.^.J.XX[.XX X[.[.{.[.[.[.|.[.[.%XXX",
"G.XX[.XXXXXX X{.{.XXXX[.{.[.XX^.n.'.^.A.I x R _ / ' T C S.:X&XQ.Q.*X;Xv.[ ! y.y.Z [ o.X.] 8 D ^.H.@X|.[.[.[. XXX[.[.'.`.^.'.oX+X",
"H.XX^.XX X XXX X[.XXoXXX X[.#X^.N.^.S q ! ( ( b +.a.s.o.W L T.*X&XQ.Q.=X;Xv.F 8 ]  .' l s   U ^.D.%X|.[.[.[.XXXX X[.[.`.`.[.XXXX",
"D.XX[.XX[.[. X X[.[.XXXXXX[.oX).D.l.  _ O.c j b p.a.p.a.a.~ d L W.=X&XQ.Q.:X-X$.T ^ f u i   U E.B.@X X[. XXX X[.[.[.'.[.[.XX%XXX",
"H.XXXX X'.[.'.[.[.'.'.XXXX^.XX).G.l.  t ^ O.] m _ p.a.p.p.U.s.| h %.}.=X;X;X;XW.u a > p g   U ^.N.XXXX[. XXX[.[.[.[.[.[.|. X@XXX",
"^.XX[.'.'.[.'.[.[.[.'.{.{.^. X^.H.N.  4 t k _ O._ m ..u.U.1XI.| k w V T.-XW.x.0.5 r s > 5   I ^.N.H.^.XX[.[.[.[.[.[.[.[.[.XXXX[.",
"H.XX X XXXXX X%X%X$X%XXXXX[.%X_.H.S.  > > > e l ] O.( W ) ` k m ..+.R V G.,.w.q.i r # > h + U '.D.E.H.{.XX'.E.H.H.J.'.[. X[.'.J.",
"<.D.^.^.^.H.E.E.H.H.H.H.^.^.[.D.8.l.@ # : > 3 : e b ] O.( Q O.+._ ^ k A t.q.V.q.& % p s g   I H.b.H.e.C.C.b.e.8.e.e.B.H.D.N.b.r.",
"8.n.C.D.D.C.D.n.<.:.l.N.C.H.~.l.D.S.  a u # : > > ; e ^ O.i...W f u + A Y.t.q.,.i p p > i   S m.<.6.;.=.:.;.;.;.;.4.8.e.8.e.b.4.",
"^.XX|.XX[.XXXX X[.[.XX X[.[.%X[.[.~.  3 u p u # # > 3 ; f W s r s k y A V.,.>.>.5 , 3 3 @   3.H.4.J.J.H.G.^.`.E.C.m.C.H.G.B.C.C.",
"H.XX[.[.[.'.[.[.[.'.[.[.'.`.[.^.[.L.  4 > > u p u # > 3 : p p f f s X A q.#.>.#.5 > @   N %.[.H.<.J.`.[.J.`.^.'.'.J.H.C.B.B.H.^.",
"N.XX[.|.[.[.|.|.[.'.'.[.[.'.'.H.XXL.  & 4 > > > p s > # # s s u > a 0 A q.#.#.D o   2 L K.XXoXH.6.[.`.E.J.J.E.E.E.E.`.G.H.^.[.^.",
"n.{.[. X[. X|.[.[.[.[.[.'.E.[.H._.@XU     % 4 r > < s u O > > a k k $ C >.D C 6 M K c.^.XXXX@X^.6.'.J.J.'.E.J.J.E.`.'.'.^.[. X[.",
"N. X[.[.[.XXXX[.[.{.[.^.E.[.XXH.^.%X.Xg.B   o > t u > p s f f f p u $ z S 6 1 J j.~.XX[.`.[.oX^.=.E.E.^.'.^.^.'.[.[.[.[. X XXX[.",
"N.XX[.[.[.XX|.[.[.|.[.^.E.XX%X^.^.+X[.[.c.L 2   o 3 u > p f p > u 4 @   - H j.H.`. XXX|.XX|.XX^.<. X'.^.^.E.`.E.^.'.[.'.'.[.{.[.",
"l. X[.'.'.[.[.[.[.[.^.^.E.`.%X/.^.%X[.[. XXXc.J -   @ 4 > u u 4 @   = G h.P.[. X'.XX@XXX@XXXXX^.8. X[.XX^.^.[.`.E.'.[.'.'.'.{.[.",
"l.[.`.[.[.[.[.[.[.XX X[.'.[.%X^.E.XX[.XX%X,X,XOXc.J *   O > X   1 G g.L.XXXX[.[. XXXXX+XXX[.XXE.4.[.`.oX'.^.'.^.E.[.[.[.'.`. X[.",
"l.[.^.[.|.[.[.'. X@XXX[.[.[.[.E.J.oXXXXX|.[.XX,X,X_.j.J 1 * N H g.L.[.[.[.[.[.[.[. X X@XXX[.XXJ.:. XE.[.^.E.'.^.[. X[.[.'.'.XX^.",
"2.[.[.[.[.[.[.[.XX@X[.[.[.^.`.E.H.oX@XXX[.'.XX,X>X%X@XXXK.K.(.L.H.XX`.^.[.[.XX X[.XXXXXX X[.@X_.:. X^.E.^.|.[.'.'.'.^.[. X'.XXE.",
";.[.[.[.'.[.'.[.[.XXXX[.[.'.'.J.H.XX@XXX@XXX|.oXXX@X@X,X<X%X%X[.H. X^.E.'.'.XXXX'.[.XX[.[.[.%X_.:. X^.E.E.'.[.|.`.^.E.^.[.'.XX^.",
"4.XX[.^.'.'.`.`.`. X X'.^.^.[.R.H.XX%X@X X{.|.|.'.[.@X>X,X@XXX^.D. X`.`.'.[.{.[.|.[.[.|. X|.%X^.8.XX^.E.^.[. X%X[.^.`.'.'. XXX^.",
"l. X^.'.[.[.'.^.`.[.[.'.^.^.|.~.H. XXX[.[.[.[.XX[.'.[.@X%X>XoX^.H.XX[.XXXX X[.[.[.[.[.[.[.[.XXH.<. X'.[.[.[.`.[.|.'.'.[.[. XXX/.",
"^.XX[.|.XX%X@X|.XXXX|.|.[.'.XX^.H.%XXX$XXXXXXXXXXX X XXX%X%X%X[.J.XXXXXXXX|.[.[.XXXXXXXXXXXX%X^.7.XX XXX[.[.[.[.[. XXXXX XXXXX[.",
"b.^.H.H.H.H.H.D.n.n.n.b.m.b.C.b.:.N.D.D.N.N.b.r.r.r.b.r.b.N.G.B.b.E.^.^.E.H.G.Z.H.E.G.C.N.B.B.8.:.G.b.n.G.^.^.^.^.^.[.[.`.^.^.D.",
"8.C.B.B.n.b.n.b.b.e.e.e.r.8.e.4.5.H.H.H.G.H.D.C.C.H.H.D.D.H.E.H.b.H.H.J.^.J.D.C.D.C.b.8.2.4.8.4.P :.e.8.B.H.H.H.H.H.G.G.H.H.H.C.",
"E. X'.[.{.{.XXXXXX[.[.[.[.[.XXJ.l.$X X[.'.'.[.[.[.[. X[.'.'.[.^.E.XX[.|.XXXXXXXX[.XX X{.XX|.%X^.-. X{.[.[.{.[.'.'.'.`.`.^.`.XX|.",
"R.[.'.'.^.[.{.[.'.[.`.E.'.[.XXH.4.[.[.[.'.`.'.^.E.^.E.^.E.^.'.^.H.'.E.`.[.'.^.[.^.`.[.[.[.[.XX^.l. X{.[.J.J.E.E.^.E.E.H.Z.E. X/.",
"^.XX[.[.^.[. X'.'.'.'.^.^.|. XH.-.[.[.[.'.'.'.'.^.`.'.'.^.^.[./.H.'.`.[.'.'.^.E.J.E.[.XX[.[.XXR.N.XXXXXX`.E.E.E.E.J.H.G.G.[.XX[.",
"E.|.[.[.'.[.XX|.'.^.^.'.^.[.XXH.7. X'.`.'.[.'.[.`.`.'./.^.`. X^.D.'.[.[.[.'.^.H.J.^.'.XXXX[.[.~.N.XX[.[.^.`.^.`.J.J.H.Z.H.[.XX[.",
"^.[.'.[.[.'.[.[.[.^.^.^.^.'. XH.e. X'.'.'.[.[.[.'.'.[.'.E.^.|.^.D. X[.[.'.'.`.^.^.'.[.XX XXXXX^.N.XX'.^.`.[.`.^.E.J.H.H.H.H.'.[.",
"^.XX[.[.[.'.'.[.[.^.'.^.^.E. XH.7. X'.'.'.[.[.[.[.[.[.[.E.E.[.^.H. X'.'.'.'.`.^.'.[.[.XXXXXXXX^.C.{.[.{.[.[.^.`.`.J.H.H.J.G.^.[.",
"H. X[.[.|.[.'.[.'.^.'.'.^.^. XH.2.[.'.'.^.'.[.[.[.[.[.'.E.J.[.^.D.[.'.'.'.^.^.^.'.[.[.|.XX[.|.R.H. X'.[.[.[.^.H.J.E.J.H.J.H.E.[.",
"H.[.'.'.[.'.[.[.^.^.'.'.'.'.[.H.-.[.[.'.'.'.'.[.[.[.[.[.'.`.[.^.C.[.'.[./.^.^.^.^.[.'.[.[.`.'.H.H.%X X{.[.`.`.E.H.E.H.J.'.[. X'.",
"H.[.'.'.'.'.[.[.^.`.'.^.[.[.[.H.#.[.'.`.`.'.^.^.[.[.'.'.[.[.XX^.C. X[.'.'.'.'.^.^.'.^.'.[.^.[.^.G.%XXX{.`.^.`.[.J.H.J.[. X XXX[.",
"H.[.[.[.[.[.'.'.'.^.^.^.'.'.[.G.{ '.[.^.'.'.'.'.[.[.[.[.[.'.XX^.H.[.[.[.[.[.[.^.^.^.'.[.[.[.XX^.H.XX{.[.'.E.J.`.E.E.'. X X{.XX[.",
"D. X'.[.[.[.'.^.^.^.^.J.^.`.[.G.4.{.^.^.^.[.[.|.[.'.E.`.`.`. X^.H.[.[.[.[.[.'.'.`.^.[.[. X[.XX^.D.%XXX'.`.^.J.'.{.'.[. XXXXX%X[.",
"H.XX'.'.[.[.'.^.^.E.^.`.`.^.[.G.:. X'.[.[.|. XXX[.'.^.E.^.[.XX^.H. X'.[.[.[.'.^.`.'.[. XXX[.XX^.B.%XXX[.`.{.^.[.%X'.'. XXXXX%X[.",
"D. X'.`.'.'.^.^.^.H.E.'.^.E.'.G.2.[.'.[. X|.[.XX'.[.[.'.'.[. XH.H.[.'.'.`.'.'.'.'.'.[.[.XX[.[.~.N.XX'.{.[.^.E.`.XX'.'. XXXXXXX[.",
"G.XX XXX[.[.[.[.[.`.[.[.[.'. XH.n.%X{.XXXXXXXXXXXXXX$XXXXXXXXX^.H. X[.[.[.[.[.[.[.[. XXXXXXX%X^.l.$X[.XX X[.[. X%X[.'.XXXXXX%X X",
"6.C.m.C.B.b.n.N.b.n.N.N.N.B.C.b.;.n.b.l.b.n.b.l.l.l.l.b.N.N.N.7.7.H.H.D.D.C.D.H.D.D.N.N.B.D.n.5.#.D.H.H.H.H.H.E.^.J.H.H.H.H.^.G."
};
