/* XPM */
static char *map_O[] = {
/* columns rows colors chars-per-pixel */
"64 64 91 1 ",
"  c #1D1913",
". c #251F17",
"X c #252018",
"o c #2C251C",
"O c #2F281E",
"+ c #332B1F",
"@ c #362D21",
"# c #382E22",
"$ c #3E3325",
"% c #413627",
"& c #423729",
"* c #4B3D2C",
"= c #4F402E",
"- c #52432F",
"; c #534432",
": c #584733",
"> c #574836",
", c #614E37",
"< c #604F39",
"1 c #655139",
"2 c #6A553C",
"3 c #6E583E",
"4 c #715A3F",
"5 c #625441",
"6 c #6B5943",
"7 c #745D42",
"8 c #776044",
"9 c #7C6346",
"0 c #7C664B",
"q c #806748",
"w c #846A4B",
"e c #8A6F4E",
"r c #8C704F",
"t c #877054",
"y c #8C7253",
"u c #8E785D",
"i c #957856",
"p c #997B57",
"a c #967B5B",
"s c #9B7D5A",
"d c #9D815E",
"f c #A1825D",
"g c #9D8261",
"h c #99866B",
"j c #A58866",
"k c #AA8B65",
"l c #A38969",
"z c #AC8F6B",
"x c #AE916C",
"c c #B2936D",
"v c #AB9373",
"b c #AE9678",
"n c #B39672",
"m c #B69975",
"M c #B99C76",
"N c #B59C7B",
"B c #BB9E7A",
"V c #BEA17C",
"C c #C1A37E",
"Z c #BFA481",
"A c #C2A681",
"S c #C6A985",
"D c #C8AB86",
"F c #C5AC8A",
"G c #CAAE8A",
"H c #CDB18D",
"J c #D0B48F",
"K c #C5AF90",
"L c #C7B091",
"P c #CEB492",
"I c #CFB99A",
"U c #D1B692",
"Y c #D4B995",
"T c #D8BC97",
"R c #D6BD9A",
"E c #D7C09E",
"W c #DBC19E",
"Q c #DEC5A1",
"! c #DFC8A6",
"~ c #E1C7A4",
"^ c #E1C8A5",
"/ c #E4CCAA",
"( c #E8CFAE",
") c #E7D0AD",
"_ c #EAD1AF",
"` c #E7D1B0",
"' c #EDD5B3",
"] c #EED8B7",
"[ c #EFD8B7",
"{ c #EFD9B8",
"} c #F0DBBB",
/* pixels */
"W(/^~Q/'/~^^~QYnCHRYUYRWQWTWQ^~ACHUUGGDDGGGGSSAzSYHUUHJHHHHUYUUC",
"/'''_^^'(^^/(//SR___///^^/^^///UW)'__'/_')_(//_VP/^^^^Q^^^^/(//J",
"/''''^/'^Q~/(/_HQ//'_/^^^^^^^^/YW__/^///'___///vP~Q~^QTQ^^^/^//U",
"/{{'_//'/~/^/''UQ'/'_/^^^^///^/YQ_/~QQ^/___////zH^~~~QWQQ^//^/)R",
"/}''_/^(^W~^/'[YQ_/_)/Q~^^/////RQ(^~~Q^))//~~^^nH^^QWQ~~Q^/////Y",
"/'___/QW~WQ~^('RW)/~/^~~~^/////YW_^//////^^^^^~jH^/^Q~^^^^/////Y",
"/__(^WTW^~QW~^^HY/^TW^^~~^^^///HW_//////^^^^^^~jP///^^~~///^//^R",
"^_(^WTTTW~~/(_'YR^^^W//QQ~~^^^/HW/^/////^^^^^/^zY/^^^^QQ//^////T",
"^QTTTTWTT~/((//YW//'///^~~^^^^/UQ^WQ^/////^^^/^nY/Q^^^^^/^/)//)T",
"/WYTTTW~~~/((//UW`'''/^^^^^^^^/YW^WQ^//////^^^/BY/~Q^^^//^^///_Q",
"/^TYYTWW~~/^^^(HQ''_'/^QQ~^^///UW/QQ^/^^///^^//BP//QQQ^/)/^////Q",
"/_^YUYTW~~^~/('HW//''/QWW~^///^UQ/^W~^~~^^/^^//NY_/Q^Q~/)'/^///Q",
"/'/YYTTWWWQ~_'_GW//)'/QWWQ^^/^^YQ/QWQ~QQ^^^^//^zY))QQ^^^/_/^//_Q",
"/_QUTWWQWWWW_'/SW)////^Q^^^/^~^YW~WWWWWWQ^^^//^nY_/^Q^///_/^^^/W",
"/(~WWQ~^^^^^//^MR'//////)/))/^/YTWTTTWWW~^~~//_VY///^^/_'_/^^^/T",
"UTYYYYYYYYYHASVkVSAVSGUUUYWQWRYCGUGAAFGSGURTWWWmMVVAVVVSSSGHJJUS",
"PTQQQQWWWWTHAAGmVDGSGHUYHHUYYYHx0yw9eifznmBCCVMdmAVVmVVVSHHUYYYS",
"/_'_''_////////CR'_/(/~/^~Q^QWTn:1::3qixMmmMVCciP/^^//)//'''//_T",
"^__)///)/^/////VR'_///RTQQ~QWUUl$&%$-9wwsjkkkkp8P)^Q^//^^/'//^/G",
"^'_/^^^){_/~Q~/AW[))//QHWWYHAMmt o$1gmw;2wriyw9<F/~~^)/~~~/^~//B",
"Q'//QWQ^_/^WW~/VQ{)///YSSYGMsrw1.>amW/m#o;::::**F^^//''//^/////m",
"W///^Q^^^//~W~/MQ'//)QSBDHVci79ylSDSW(~6 =1<12:=K^^//'['//////^N",
"Q_/^//_/^^QQ^Q^MT'/''WSBAVkpijVSDACAQ''No$49qq1:P////'{'///)/^^A",
"//^^///QQ^~^'^^MR'_''^RVcjjnP~YSCCVAY_(~5o2qew2:P{)//''//////^^S",
"//^^//^W~/Q~'//VW''''/WVxVY~QWHCCCCAG~/(bO*7wq71I}/Q~~/////^^//F",
"^//^^/^QQ^QQ^//mW'__/QHzY/~TYTDBVAADDQ/^Q5o29q7<P['QQ^///_'////G",
"^_'_///^~~QQQQTkW'/~QTDdA_/TUYABVCADGW//'vo:992:L'/QQ////'')///G",
"^_///^^WWWW~WWWnW[_^QTDsj/'/TUCBCACADUW~^Q;@272;F/Q^/////)_/)_/S",
"^/~^QQWWWWTTW~~nR'''^WHdiU'/TJBMVCBAASGYY/hX*31;F~^//^//))//)//G",
"^/^//~W^^QQW^'/mY')'/WUxeM/QYYBMCACSAASGHWH&o<,*FYQ///^///^///_U",
"Q/_'[/^^~/'/_}}ZR'))/QYCydT^TYCBBVCDCCSSHUU0 @*$KYU^/^TYTQ////^Y",
"VPRRRPFAVZAAASGnSRRYYPGBywC^Q^QTUDSSCCSSGHWN+ o@NHAGHVncBAGPPGSM",
"CSYYPPHHSGGSGHHMSRRYPPGBg0jW_'///~WQUDGDHT/T6<uymSACVBmmBVVACCVc",
"W^'////(__'''''HW_))')^YAaiS_(_///^_/TYYQ/Pj37GVSUHYUTQ~YHHHGHHS",
"/''////////)'''PW/)'''^TJxecQ''''/^/'^~WFlaj80SSSUY////(^TRGSHYU",
")'_///////_)_''HT/)[['QQRVisS''''_^^'/AjjkzjwkGSY/^__^^//^^YT//Y",
"'{'//////)''/''GR/)''/~QWSjic^''''/TFxjkjssiwnGSQ'/''_/////^^//U",
"`'/^^//_'')//''HR/)/)//^RDMifG'''WBjzxkiw9wjcAYAE'__'''(_'___^(Y",
"''/Q~//)''///`'YR__)))/^YHDjic~Wmsiskji9qixDHUTAT'///''___'''/_Y",
")'/////)_//__)'RR)__)'/^WYYBifjsirwqeeesjmSHTQ^SR'(///_'_('___'G",
"/'')''''_/_'_''WW))_''//^QTHziiiw934rjnBVGYYQ//PR__(//_'_(///''S",
"Q)')''{{['__)_'WQ'_/''///QTYSsww77ejmAGHHJYW^//RR/__/_'_///^/__V",
"Q'['[}}}{'////'WQ''/_'')/~WTUn97icMAHYWQTYT///'RR///(////^^^^//S",
"^'''{[[{''(///'Q!{'_'))))/QWTHmynGGHTW//~Q/_/)'UW_//_'//^^~QQ^)F",
"/'''''_'{{'//_'TQ')///////^QWWYgATYYWQ^/)/))//'PW__/__/^^^/////Z",
"/''[')'''''//''RQ)/////////^^^WnHWWW~^//'//^//_YW/__/_(//^^^/_/Z",
"Q//''''_''{{[''RQ'_///)//////^^BU^~^/Q^)_^^QQ^'RW_(__''''(//''_F",
"VVADHGGSGRRWQTRAFYPHPPGSAAAAVBCcSHHYYYYQ!WWTYRQFAYPYTWQWWQTRRRHn",
"CGHGHHHHJUUUYYYBAPGHHGSASAAASSAcMBMMBVCASGHGAVVzZYYRQQQWWQQQRPYB",
"Q'/^^//^^^^(/^/PT/////~~//(_///BHQW~^//^^^/^//(HY/'[{{{'`''{[''H",
"Q/WWQ/^~WTW/_^/PR/^^^~~~^^/(///MJ~Q^///^^^^~^^/PY/'{{{''`/Q'{''G",
"Q/WWWQ~~TTTW^Q~UY///~~/^^//((//CU~Q~^/_^^^^^^Q^UR/)''''''QR/'^^F",
"^/WQ~WQ~WW~~~~/UR/((/^^^///((//VR/^^^__^~^^/^W~HE/!^'''''/W)'^^S",
"~/^^~~Q~~^^~WW~PR/((///~/_/////CW'~~^^^~^^^~~Q^SR)//''{'')^''Q/S",
"^(//^QWQ~^QTWQ~GR//////^/_/'(//CW'WTWW^~^^~~^^^GR/)/[{}{'_^''^/A",
"^(//^~QW~~WTWQ~AY/^^//^/(//(((_CT'~TW^^^^//^^^^PR/'{''{'''/^/~~B",
"^////^~W~^WTTWQBU/^^~///_(///__GR/WTQ^^~^//^^^^UR/{''')''/QW~^^B",
"/_/////^^~~WTTQmP/_^^^^/_'(/(_(GYQW~~~~^^^^^/^~UQ'{'_)'_/QWTQ/^B",
"////^~~QQWTYYYWmU''/^/^/(''//_'HR~~^^Q~^/^~//^/HQ{{''^^^QTWWTQ~M",
"^//^~WWQTTYTTTWmP_'/~^/(/_'//(_YW^Q~^~Q^^^~~^^/GQ{{'/RYRTTWQWW^V",
"~(^~WTQ^~TTWTW~BU__//^(_(''////YQ/QW^^~^/(~~~~/FW'''QWYYRTWQ^~/Z",
"Q_^~WW~^/WYYT~/VR'///^/(_'/^/^/Y!'/~^^^//'^~^~/PQ'')//QRYRWQ~^^B",
"Q_//^////^~~~//VY_///^^(''////(YQ'_''/~//'/~^/(UQ{'''''/WWQQ~^Wc",
"HYYYTWWWRYYYGGHnBCGGSSSHWQQWQ~QDW'_''_~/_'/^/_'HFPGFGGHSSSSAACCc"
};
