/* XPM */
static char *map_I[] = {
/* columns rows colors chars-per-pixel */
"64 64 47 1 ",
"  c #9C7D59",
". c #A38661",
"X c #A48865",
"o c #AA8A64",
"O c #AB8F6B",
"+ c #AD916D",
"@ c #B2936D",
"# c #AF9471",
"$ c #B39671",
"% c #B69974",
"& c #B69C79",
"* c #BB9E7A",
"= c #BEA17C",
"- c #C1A37E",
"; c #BDA381",
": c #C2A681",
"> c #C5A985",
", c #C8AC87",
"< c #C6AC89",
"1 c #CAAE8A",
"2 c #CDB18D",
"3 c #D0B48F",
"4 c #CEB491",
"5 c #D1B692",
"6 c #D4B995",
"7 c #D8BC97",
"8 c #D6BD9A",
"9 c #D9BE9A",
"0 c #D7C09E",
"q c #DCC19E",
"w c #DEC4A1",
"e c #DFC8A6",
"r c #DFC9A8",
"t c #E2C7A4",
"y c #E2C9A6",
"u c #E4CCA9",
"i c #E8CFAC",
"p c #E6D0AE",
"a c #E8D2AF",
"s c #E7D1B0",
"d c #ECD6B4",
"f c #EDD8B7",
"g c #EDD7B8",
"h c #EEDAB9",
"j c #F1DCBC",
"k c #F3DFC0",
"l c #F4E1C2",
/* pixels */
"@%@$@%%$$%%%%%=*>wwqtyuyttyuauu5*231,1>:*$@@@@oo.+O$===:111>:-:-",
"@6qqqqqqwupuuudw6aiuyiduutaddadw6aaauadduwqtytw2*yttttyyuuuuuyuw",
"%yyttq98wypaddfw6uyytuduuyuuuudy6uyuyuddiuyyuud6*uu999quuyttyuaw",
";uyyw99868yypddw5uttttauytyywydt6uuuuadaauyuiid5*yq9979yytqqtyat",
"-uwwwq99669udfhw5uyyttyyywtywwuw6iiuuddiaiyyuda4%q99q69qtqqttuuy",
"*yq9qq9qwqwuddhw2uywytyyyttyytt95dauuddiuuuyidd5%q7667qqqqtyuuuy",
"*yyq9qqupduyuuy62yy9qyyuyttyyqq62adiuadauyyyuda5$w99qttyyuuuuuau",
"=yuyqwuaddpadfu86yyyquuyyyytqqy81aaiuuaauuytyuu4*tq9qwyttyyuuuau",
"=ttyyuddddddhduq6yyyyuuytyyq9td9>daiuuiauuuuyyu6:ttq7qytqtyuuuuy",
"-uydduadhjhdddu82yyytyuytywq9qdq-iiaduauyuuuyuu8>ttq9qyttqtyuuay",
">uwddyadghdduupq1ytttyyyttttwqdq:uuuuuauyuuuuuu82tq9qyyttwtyyuut",
">yyddwuddddduypw4tqyyyytyuauyya9=uiiiuiiyuyuaiu84yttttqwtwwttwuy",
"<yydp8wddddduuuq6yqyyyytyaiyytt5:uiaiuuyyuyyuuu64yttqq99ttwwqqut",
"1udjdqedddghhdu96yyytyyyuauuywt3*iuuauyyyyttyuu84ytayq99tyywq9uw",
"2ddhddapdghhhdu85auuyyyuuiiuytt3=aiuaiuyttuuuuu84uyuiyttyuuytyit",
">wwyupuuuusuuew4=2246552111>>>,-%5666556559q99q2>wqqq99998996qq3",
"@>1245865665214::5226668511>>>>-@%%$$$$%%=:>:;<=%<22<<1-%*-:-=%%",
"1idduuiddddaaiaqqdywwwqaduyuuuu8:uyuuuuuuuuuupdw8ddfjjduuaadutyw",
">udpyyuuaadidaiw8auyyy8wauuuuuu9:papuuuuuuuuuudw8ddaddddddddfadu",
":puuuuyyyuaauaaw6duupay8uuuuq9w2%yuuuuuuuuuuuudq8dayuddddapddddu",
"<puytyyyyudauudw6dapdp846upt2>1-$qyuuupapupdadfwqdiuuaddfddhdddu",
"<uyyyyyuuuuiuuuq8dapdq:1ydaaw,1-$68wuuupaddaudfw9duuuudhjjjhffdw",
":aauyuuuadauiuuq8aauu912wpuuy63-@129uuuauafduadw9dauaidhjjfdddat",
">dduuiiadauuiaaq6dapyuw6qyyyyt9:$115udppuudhapa98ddadaidddddpddu",
"1ddaaaiadauuuadq1uauyyq9ttwyuuw:$1>1yduuupdaapp89daaauuaapupuudp",
"5audddaiadduuudq>twyuw69qqqwyuq:$1>>qpyyuaaupaaq8dduuuadpuuytudd",
"6iyaaadaadddaidq>w69yq6688tywy9:$2229utuaapuupu84dduuuddauutyudd",
"6aiauuuuuidddudw1958986656wyww8:@4446uudduuddpu91dduadauuuuuudhd",
"8ddayuyuuyuadupw2958qq6556qyyw5:+2422udddudffau91udaaduuuuuuudds",
"qduyyuyuuuuaaypw4w68qw9866qtww2=+1221wddddhddpuq18wapuuuuuuuuddu",
"6uuuiaudddddaudw4ywwyuuuwqqtqq2=O1211qduudfdppuq288uit9666tuuuw8",
"%4www9q96688wwu1*44246421-::=-%@.%***>465wwwwww5-2-12:-=--1541:-",
"*>24422>%%;<258;<uuwqq86525851:%o++@$%=::224465:$%@@@@@@+$*-===%",
"9uuuudduuuuuuudrwjdpuauyudhhhp6>+112422555qqyyu2%6665qq92,152222",
"6auuuuuuuyuuuyuwwhpuwuuyudhhhdw1+11112252226uyu5%9tyqttyw962226q",
"1uupuuppuuuuuyt9whuuuufdudhjljd6=965,22226tyddd6%ttq9qqqqqw69wyw",
">uppuapuuuuuywy8whdpuyhhudjkljd6>puuw8225wuupdfq%wqqtqqqqtyytuiy",
"1uuupdduuuuwwua80dduyyffudjjjhf81ppadyqwwuuuypdq@9qwtwwtyuuuaday",
"<iuuudauuuuwwddwwduuyyhdwuhjjhd95pdautwwwudpdadq$uytwwtwtyuyyuiy",
">uuyyuuuuutwwujwwhpuudjfquhhjjdq6ddduuuuudhdhddq*uudwwutqyuuyyuy",
";yyuuuuuudpuyuhw8dpdhjjjdddhjjhw8duadpuupdddddd8%yydytytwuuuyyuy",
";yyupuuudhduuuu98dddpudjjddjjjju8auuuupuuadddpd8#ywuwwyyupuuyuaw",
"$yuuuuuudfduuyw86dhduydjjhhjlkjr8aytuudauadduudw#uwqwuuyyywyuuuq",
"+uuuuuyuudduuyw98dhdddpddfhlljfw6uwqyudduuapuuhw$utqqyupywqwuuaw",
"%uutyyttypputtu88dhddappuudkljdw4uyyuuiuuuuuupf8*utwtuphuytyuadw",
">uyuupuyyuuywtuq6adpuupauyuhjkdw8puddauuupuuupd6%uuuuuyupuuuuaay",
"8auuddduuauuyyuq4ddddauapuuafjhw8apaauuupdauudd8&uuuuuuuupddaaau",
">88866621,>:,>1-@><<>>::::>:>121>9wwq8658851<11*+2>>5qwwqwuyttq5",
"=2121>>>>--=:==%%6865552266246q6>699q95242>*$%*$ $==156666556662",
"8uyyyuadpuytyyu6=auutyuuyuuywwyq9puuppppuuuuuud6+yuyyuyyytwqqtiu",
"quyytuauuuywyup6%uuuyyyywtttwwyw8ytyuyyuwyuuuup8=uauqqqqwqq75wau",
"wuuuyuauyuywwpu6+yuuyyyyttyywwuw6yyuyyww9wuduuu8>adatqqqq9766ydu",
"wpuuyuduuwwywua6&uuyyuyyytyywyuw5yuuuyw99wudduu8>auutywt99656uau",
"wuuuuuuuuywwwyu4=uyyyuuuyyuywwuq5uuuyywwwtudadd0<iytyyttq96667yu",
"wpuuuyyuuyytwwu6*uuyyuuuuuuyqqyq5uyyyytwyyudddd82uuuuuttt96696qu",
"9puupuyuywyytwu6$yuytyuuuuuywqyw5uyyywwwyuupduu85uuiuut99q9699qy",
"8uuuuuuuwwyyyyu6Oyuytyyuuuuuyyuq2uyyywwwwyuuuyy86daiuttq799qyuuy",
"8yuuyuuuttyyuuu4Xtyytytyuuyuuuaq2uuuyyywwyyuuyu85jdittty979yiaau",
"6uuuuuyyytwwyuy2Xwytwyyuuuuuuuaq6uuuuuutwwyuuuuw8dauywqtqqyaaaau",
"6uuuuuywwwwqwty2$yywwuupuywttyuw8uuuuuuytwuupup84dduytqyuyuaddhu",
"8uuyuuywwqwttty4#uuuupaauywwtuaw6uyuuuyytyuadud81dduyuwuduuaddfu",
"5uuyuyytw8wytww4$yuuaapduuuyuaa96uyyyyyyyyupduu8<auiutwyduyddddu",
"2uuiuyyyywyyyyu6:auuuapdaidaadu95uuuyuuyyuuuddd8;iuiuyyudyyadddu",
"*1121>,1>>><112:@::::>:::=::<1>**6664246641112>%X168888qw9699qw5"
};
