/* XPM */
static char *wall_random_4_64[] = {
/* columns rows colors chars-per-pixel */
"64 64 211 2 ",
"   c #000000",
".  c #070103",
"X  c #180100",
"o  c #041416",
"O  c #1A1B19",
"+  c #250300",
"@  c #2D120A",
"#  c #3E230A",
"$  c #292119",
"%  c #34271D",
"&  c #3A2A1C",
"*  c #362B21",
"=  c #3E3324",
"-  c #481D00",
";  c #492602",
":  c #592B00",
">  c #5A340C",
",  c #452D1A",
"<  c #55361C",
"1  c #613C18",
"2  c #402F20",
"3  c #433222",
"4  c #4B3623",
"5  c #4E3926",
"6  c #473929",
"7  c #4C3A2A",
"8  c #533823",
"9  c #543B26",
"0  c #5A3C24",
"q  c #543E2A",
"w  c #483F33",
"e  c #6A4015",
"r  c #784A1A",
"t  c #53432C",
"y  c #5D432B",
"u  c #564B29",
"i  c #5B552A",
"p  c #4C4438",
"a  c #554332",
"s  c #594937",
"d  c #5C4A35",
"f  c #62452C",
"g  c #684628",
"h  c #734C29",
"j  c #605A2E",
"k  c #77512F",
"l  c #7B532D",
"z  c #654A32",
"x  c #644A35",
"c  c #6B4D33",
"v  c #6C5036",
"b  c #695737",
"n  c #735235",
"m  c #7A5534",
"M  c #765A37",
"N  c #745539",
"B  c #795639",
"V  c #7C5B3C",
"C  c #6D6135",
"Z  c #79643B",
"A  c #5E5343",
"S  c #695946",
"D  c #755C44",
"F  c #7B6249",
"G  c #7D7241",
"H  c #746654",
"J  c #7A6A56",
"K  c #855628",
"L  c #845A34",
"P  c #835D3C",
"I  c #93602E",
"U  c #85613F",
"Y  c #92643B",
"T  c #99693B",
"R  c #845F40",
"E  c #856241",
"W  c #8C6442",
"Q  c #8A6A49",
"!  c #916642",
"~  c #946A45",
"^  c #9A6D45",
"/  c #956D49",
"(  c #9A6E49",
")  c #857A46",
"_  c #9A734B",
"`  c #9D724A",
"'  c #866D53",
"]  c #8D7255",
"[  c #85735C",
"{  c #88735A",
"}  c #987755",
"|  c #927A5E",
" . c #9B7C5C",
".. c #A36F43",
"X. c #AC7545",
"o. c #A3754C",
"O. c #A9774B",
"+. c #A6784F",
"@. c #AB794D",
"#. c #B37D4D",
"$. c #A37A53",
"%. c #AC7C52",
"&. c #A17D5B",
"*. c #B27E51",
"=. c #887862",
"-. c #8C7A63",
";. c #937C62",
":. c #9A7F60",
">. c #9A8B56",
",. c #AD8254",
"<. c #A8835C",
"1. c #B48254",
"2. c #BA8454",
"3. c #B78C56",
"4. c #B5855A",
"5. c #B98659",
"6. c #BC8A5C",
"7. c #B0965C",
"8. c #8F816B",
"9. c #968066",
"0. c #9C8364",
"q. c #9B856A",
"w. c #9E896D",
"e. c #9D8B73",
"r. c #A48361",
"t. c #AA8563",
"y. c #AA8B66",
"u. c #A28769",
"i. c #A48A6B",
"p. c #AC8E6C",
"a. c #B88D63",
"s. c #AD916D",
"d. c #B3936D",
"f. c #B8926C",
"g. c #A38E73",
"h. c #A88D71",
"j. c #A59176",
"k. c #A6947A",
"l. c #AA967A",
"z. c #AC997E",
"x. c #B39673",
"c. c #B59976",
"v. c #BA9B76",
"b. c #B49B7C",
"n. c #BA9E7A",
"m. c #BDA17D",
"M. c #C0864F",
"N. c #C28E5E",
"B. c #C49359",
"V. c #C49263",
"C. c #CA9565",
"Z. c #C8986A",
"A. c #C39B74",
"S. c #C59E76",
"D. c #CCA168",
"F. c #D7A969",
"G. c #C2A27E",
"H. c #CAA37D",
"J. c #D5AC71",
"K. c #DCB376",
"L. c #DDB67C",
"P. c #E2BA7F",
"I. c #AE9C82",
"U. c #B29E82",
"Y. c #B4A186",
"T. c #BDA483",
"R. c #BFA887",
"E. c #B5A48A",
"W. c #BAA68B",
"Q. c #BCA98D",
"!. c #C2A683",
"~. c #CBA782",
"^. c #C4A985",
"/. c #C5AC8B",
"(. c #CAAE8B",
"). c #D9AE84",
"_. c #CCB18E",
"`. c #D7B587",
"'. c #C5AF90",
"]. c #C6B497",
"[. c #CCB493",
"{. c #CCB699",
"}. c #CDB99B",
"|. c #D1B693",
" X c #D4B996",
".X c #D8BC97",
"XX c #DABE9A",
"oX c #E5BF84",
"OX c #CFBDA0",
"+X c #D7C09F",
"@X c #DCC19E",
"#X c #E8C58C",
"$X c #D5C1A1",
"%X c #DDC5A2",
"&X c #DFC8A6",
"*X c #DDC7A8",
"=X c #E1C6A3",
"-X c #E2C9A6",
";X c #E8CFAC",
":X c #E7D0AE",
">X c #E9D1AE",
",X c #E4CFB1",
"<X c #E7D1B0",
"1X c #EED8B7",
"2X c #EDD7B8",
"3X c #EED9B9",
"4X c #F0D7B3",
"5X c #F1D9B6",
"6X c #F2DCBB",
"7X c #F7E1BF",
"8X c #F8E1C0",
/* pixels */
"s.d.d.d.d.d.x.d.d.c.x.x.x.c.m.c.^.=X%X@X@X=X;X-X%X@X=X;X;X;X;X|.c._.[./.(.(./.^.n.d.s.p.s.x.<.y.r.l.i.l.G.m.m.!.(.(.(.^.!.G.!.m.",
"d.@X-X-X-X-X-X=X:X6X3X3X3X<X6X;XXX6X<X<X>X5X6X<X>X;X6X8X6X<X6X;XXX6X5X5X<X5X6X6X<X;X-X;X>X;X>X.XT.4X;X;X>X>X>X>X<X4X4X<X<X>X5X;X",
"x.;X;X=X-X@XXX.X%X;X<X<X>X<X6X%X.X>X-X%X|.~.S.S.S.G._.@X;X;X<X;X.X>X-X;X-X-X>X<X;X;X;X;X;X-X5X$Xn.>X;XXX.X.X@X;X-X-X=X%X-X-X<X%X",
"T.>X=X-X%XXX.X.X.X.X-X%X;X<X3X%X.X-XS.4.@.@.@.*.1.O.*.Z.|.-X<X;X.X>X-X;X;X>X<X>X>X;X-X;X;X;X<X.Xb.;X@X.X.X.XXX-X;X%XXXXX=X-X<X%X",
"T.:X@X%X%X@XXX@X.X.X.X;X3X<X6X;Xx.t.@.5.%.%.%.o._ _ 6.C.~.%X;X%X.X>X;X;X;X<X<X;X>X;X-X-X;X>X<X.Xc.=XXX@X@X.XXX@X=XXXXX@X=X-X;X-X",
"v.;X@X.X%X@X.X@X%X@X@X:X<X3X6X%XV.C.6.+.o.o.@.1.4.6.V.C.~.-X-X@X.X5X<X;X;X<X<X;X;X-X;X=X;X<X<X.Xc.=X.X.X|..X@X@X@X@X@X=X;X-X>X-X",
"n.-X;X%XXXXX@X;X>X<X;X-X-X;X-X|.4.( W ~ ^ o.@.#.2.N.V.B.S././.Y.b.OX*X;X;X<X<X>X;X=X-X-X;X<X<X.Xx.-X.XXX@X=X=X-X;X;X;X;X;X;X<X;X",
"m.;X;X-XXX@X;X<X>X:X:X:X<X1X;X.XY P ! Y ^ %.d.v.G.d._ 1.t.g.U.g.q.Y.U.[.;X;X>X>X;X-X-X=X-X;X>X.Xb.-XXXXX@X%X-X=X%X-X-X;X;X;X<X;X",
"m.-X%X-X=X;X<X<X<X<X<X<X1X<X;X.X! B Q x.[.%X;X;X'.I.N ] l.U.W.l.9.W.U.Y.;X;X;X>X;X;X;X;X-X-X>X.XT.=X@X@X.X@X-X=X@X=X-X-X;X;X>X-X",
"m.:X%X1X<X-X>X3X1X7X1X1X<X:X:X%XU V [.;X-X;X;X/.j.b.V ] l.g.E.k.| E.z.{.<X;X>X;X-X-X;X;X-X;X>X.X/.-X=X%X.X@X-X=X%X@X@X;X;X;X<X-X",
"^.>X@X<X<X-X>X<X1X6X2X1X;X;X<X;XQ V .X=X@X-X@Xz.b.l.c ] T.U.{.W.| Y.W.=X;X;X<X;X%X;X;X;X;X;X>X.X[.-X@XXX@X;X-X-X=X%X%X-X-X-X>X%X",
"!.;X%X<X<X@X:X<X<X<X<X<X&X%X<X;X .B |.>X;X;XQ.j.l.Q.d 9.;X-X5X[.{ .X;X;X;X;X;X;X-X;X-X;X<X:X>X.X|.;X=X=X-X-X@X%X=X%X%X=X=X@X>X-X",
"/.-X%X<X:X.X%X<X<X2X1X<X;X;X;X;X:.c [./.g.[ b d d J & [ -X=X%Xg.i.;X;X>X>X;X;X-X-X;X=X=X;X;X;X.X|.;X@X=X@X@X.XXX-X%X%X%X@XXX<X-X",
"/.<X;X6X<X.X%X<X<X<X2X1X1X<X-X%X:.q d # ; < 0 4 , +     Y.-X[.q.b.5X;X;X;X;X-X=X=X=X%X%X-X-X;X.X[.-X=X<X-XXXXX.X@X=X;X@XXX.X;X%X",
"_.6X3X6X1X<X<X<X<X6X6X6X1X<X>X%XQ , f n c z f n W _ } _ <.f. .] r..XXX%X<X<X;X;X-X=X;X;X;X;X>X%X.X<X-X>X<X-X-X-X;X;X;X;X=X-X<X-X",
"/.;X%X;X;X<X;X;X;X<X<X;X;X*X;X[.L q c y z V ~ %.4.6.6.6.4.o.Y Y _ p.|..X/..X.X.X|.|.XX@X@X.X%X[.!.=X@X@X@X@X@XXX@XXXXXXX.X%X=X[.",
"s.^.(.[..X[..X.X.X.X.X|._.(..Xn.k 5 f ~ +.@.@.%.o._ o.o./ <.s.m.^.|.-X=X .L $.x.n.m.!./.^.T.(.m.c.[.[.[.[./.[.m.d.v.n.G.m.v.x.x.",
"(.<X6X6XXX).S.%X6X<X<X<X<X;X4X}.g n ( o.o.+.o.o.o._ ~ P W y.n.(.~.(.%X;X.XP ~ l.&X<X>X;X;X<X6X;X.X6X5X6X8X=XXX=X>X<X<X<X<X-X;X-X",
"^.>X<X%X%.2.P }.<X>X<X;X>X;X>X{.g %.o._ _ _ ~ ~ W W W V b d.d.G.(.~.%X-X-Xg.g k Q W.%X;X;X;X<X%X.X<X<X;X<X~.M.V.*X6X>X<X1X>X<X;X",
"!.<X;XG.*.%.q [.;X-X>X>X;X;X<X{.< / W ~ _ +._ ( ~ ~ ~ V i y.' s._.^.%X>X=X(.b V B N k.[.-X>X<X%X.X3X>X=X;X~.V.@.!.<X;X<X<X:X<X<X",
"/.<X-XS.2.@.d .X;X;X<X>X;X;X5X}., o.^ ( W b ~ W ~ W ~ Q ) b F y.G.G.^.^.y.} V V W P Q I.W.OX6X*X%X6X;X;X>X~.2.O.H.3X3X1X<X<X<X;X",
"/.<X%XV.*.^ l.>X;X;X;X;X[.U.'.U.g ~ W U Z b n 7 c c z ) 7.b S }  .r.] z y f z b N P B 9.Y.I.OX*X@X6X;X-X>X.X@.@.G.6X6X6X2X$X%X%X",
"!.<X;XV.%.o.(.<X;X<X<X{.l.E L U ~ W ~ U >.>.6 7 V E B d b u 3 z b B z y b V V N c b c b z.E.E.E.@X6X;X;X<X~.o.*.p.1X3X<X.XI.U.Q.",
"^.<X;XZ.1.%.S.>X<X<X;XY.j./ _ _ o.o.o.~ G ) t t Z ~ N b i u V V B P P P V P W W W W / W g.Y.Y.e.'.6X:X<X%X%.5.@.-.<X<X<XW.Y.W.I.",
"/.<X;XZ.2.$.N.|.<X>X[.I.i.~ o.%.$.o.%.o.u u t b C c 7 M i b E U V V V V P P U W W ~ / ~ i.W.W.l.l.;X<X-Xt.#.a.n [ >X:X;XY.U.Q.E.",
"|.<X;XS.1.%.C.V..X<XQ.W.;.P / / W W ~ ! C j u 7.>.= z ~ U P V b n n V V V V P U U U W V H -.e.g.e.OX%XS.6.%./ ; e.>X;X%XU.z.Q.E.",
".X<X-X|.X.1.5.2.<.k.J J D ~ ~ ! ^ ~ W ~ Z b b Z G = y W ! U V V W U U W U P P W V V P U y   , n D [ a.C.4.W B b .X>X;X[.l.U.E.E.",
"[.<X;X<X&.@.2.2.P       9 W / / / ~ _ _ ~ U N u u t c n n N N c f 9 4 y B N N V P P V V 3 $ q P P 1 %.V.^ E h [ :X>X-XY.I.E.W.}.",
".X<X4X{.4 P O.1.U O % $ 5 o.1.1.1.,.,.%.+.+./ C i V _ P n c N N _ 3.,.U P E E W ! ~ ~ ~ 2 O f ! E c 5.C.( B 9   /.<X[.z.Y.U.Q.,X",
"%X<X;X0.; z U P 4 $ $ % 4 n W W ~ ~ ~ ^ ^ _ _ ~ Z V B ( 4.,.B 3.P.P.P.D.n b P V n g h n $ % P ^ W B W %.W & =   H Q.U.U.U.I.%X;X",
".X<X;X| g B U c $ $ 7 y q f U P W ^ ( ^ U U U W V U D.oXP.J.O.3.L.`.`.L._ z V n Q z.g.7 o d o.o.~ W q n B * * & D g.I.U.U./.=XXX",
"d.|.%X} B V ~ n $ 5 U P c 5 B o.o.+.@.o._ ( ~ ~ ! U L.#X`.J.1.T F.K.L.L.V.P ~ ~ } Y.9.< P _ 1.@.o.W z U U = t P F ;.q.g.l.^.!.G.",
"n.^._.&.L V W z o N ^ ! P c 0 ~ o._ ( _ o._ _ ^ ( k a.#XL.J.B.Y B.F.D.C.3.P R W Q w.a B O.1.6.%.^ U c ^ U O V W N ] | | x.G.T.c.",
"%X<X>XS.L W U n c P o.o.~ P q 4 P ! ~ ! W ~ W W U c U K.J.a.@.L U ~ k l L P E B F 9.6 ^ 1.V.C.%.U ~ P o.P q W B F w.q.j./._._._.",
".X<X;X.XO.@.P B ~ E 1.*.o.~ B y c U Y ^ _ ~ P U P c f ~ m 0 9 0 y f N V W ~ _ P -.[ 0 1.N.C.Z.V.$.( o.O.P B P b j.l.g.g.(.(..X@X",
"/.<X;X<XG.O.6.,.O.P 1.1...T L P k ' { L U P W P k n c 9 4 t z c n N B P V f z ;.g.[ y o.1.1.2.2.6.#.2.*.~ R f S z.l.l.!.XX@X;X%X",
"^.;X;X<X%Xf 1.N.^ E $.} }  .;.' > -.Y.y 9 b g a./ 3 4 q q 4 9 y g < < D S X d q.g.9.0 6 j.l.h.&.~ o.@.2.~ 9   S z.k./.-X%X;X>X;X",
"/.>X;X;X;X$X0.Y 0.I.I.k.k.I.E.-.; [ Y.9 9 '.T.N.4.~ B , & * w p d J 8.U.8.  D z.U.w.h a k.Y.}.'.Q z.| ..F J H q.I.Q.;X>X>X<X<X;X",
"/.<X;X;X;X6Xg.r T.Q.z.T./.$X;Xl.: -.U.q 9 %X[.#.6.6.5.o./ } r. .r.S.f.g.9.X J z.I.g.g a k.Q.<X-Xp.<XT.K F U.U.b.[.-X;X-X-X;X;X;X",
"R.>X;X=X-X:Xu.K l.Y.b.%X@X-X7XU.: =.Y.y b %Xz.O.6.N.6.6.1.*.1.%.%.6.1.-.9.X J Y.Y.g.g a I.$X3X%Xn.<X!.I H z.I..X=X=X;X;X-X-X;X;X",
"T.;X-X;X;X<Xi.K w.E..X>X&X;X6Xz.: [ U.z b }.I.o.2.2.1.1.1.1.1.1.o.^ h e.Y.  [ W.E.l.k 7 E.>X<X@Xl.>XT.T D g./.=X@X;X;X;X-X=X>X;X",
"T.;X%X;X:X>Xq.r q.].<X;X;X;X;Xj.- -.{.H y z.E.q.X.2.2.1.1.5.1.*.O.o.Y H -.  H U.Q./.< 7 OX>X<X.Xs.<Xm.T D j..X-X;X>X;X;X-X-X<X%X",
"l.;X;X;X;X>X9.e g.*X<X;X;X%X-Xj.  e.1XJ 9 j.}.I.- P O.1.1.1.O.O.^ W n   + @ H Y.W.z.  S ;X;X3X*Xs.<X!.T z Q.;X-X-X-X%X;X>X-X<X@X",
"p.;X;X;X-X>X9.X T.5X:X;X;X%X-XW.z E.6X[ 4 I.;Xb.@ o $ f B P B c y n & $ 6   J W.I.z.Q.{.;X;X6X*Xs.<Xn.r S +X;X:X%X%X@X%X;X-X<X%X",
"x.<X;X%X-X;XT.Q /.<X:X-X%X%X;XXX.X<X1X-.5 .X<Xx.> O 5 3 & % $ O $ c 2 % 7   H W.I.Q.<X<X:X:X6X%Xn.<X/.n q.>X:X6X;X%X=X=X-X>X<X%X",
"T.>X%X-X;X;X-X-X-X-X;X-X%X%X>X%X.X<X<XH q -X>Xi.> 7 c z z z y f z B 4 q d   J Y.I.$X;X-X;X;X<X.Xx.>X-X%X&X;X=X;X:X-X-X;X;X>X<X&X",
"%X<X;X:X<X6X1X:X<X<X:X:X;X-X<X%X.X6X<X*X$X<X%XU y ^ _ U P n c z f P * z & p z.U.%X<X<X<X<X<X6X%Xb.<X>X<X;X;X;X;X;X>X<X<X>X<X<X;X",
"!.%X.X.X.X.X.X[.^.^.^.!.~.!._.!.s./.[.[._./.x.Y B ~ @.@.@.@.o._ ! B 9 z   A j.l..X@X|.[./.(.(.n.s.|.!.^.[.%X%X%X%X%X;X;X=X%X%X[.",
"n._.(.(.^.!.^.T.!.m.m.m.G.n.m.x.c..X.X.X|..Xb.U ^ P W ~ ( _ o.1.1.n ~ c   d w.T.|._.!.n.l.x.n.x._ s.m.n.(..X.X.X.X|.|.|..X.X.X_.",
"@X>X-X;X;X;X<X<X<X;X;X;X;X;X<X.XT.3X>X;X-X>X'.h W ^ ^ ^ ( ~ W ! o.o.( w   A Q.;X;X<X>X;X<X:X6X%Xi.>X;X;X;X;X;X-X-X-X=X%X%X=X<X:X",
"+X;X-X-X%X;X;X;X-X;X=X@X-X;X<X.Xx.;X;X;X=X;X/.h d q.<.@.O.@.O...^ ^ n *   p /.;X%X%X;X;X;X;X<X%XT.>X;X;XXXXX@X@X%X@X@X.X|.@X>X-X",
"%X<X;X;X%X;X>X-X-X-X-X%X%X:X>X.Xi.;X;X;X=X;X/.h q g.Y.[.b.u.u.q.;.W g S d J .X%XXX@X;X<X;X;X<X+X/.<X<X<X%X@X@X@X@XXXXX.X|.;X<X;X",
"@X:X;X;X-X;X<X:X-X%X%X-X%X;X<X.Xb.>X-X-X=X>X/.k a e..X;X%X.X.XQ.g.} r 9.E.Q.=X.XXX%X-X<X<X;X;X$X/.<X;X;X%X-X%X=XXXXX.X|..X;X<X;X",
"%X;X-X;X;X-X;X;X;X%X%X%X%X-X>X XT.>X-X-X-X<X/.L q z.;X-X@X=X>X%X/.t.e -.U..X-X%X%X-X;X<X>X<X<X%X/.<X-X%X=X;X=X%X@XXX.X.X.X.X-X;X",
"%X<X;X;X;X-X-X;X;X%X-X%X%X@X>X.Xb.>X-X-X-X>X/.1 7 }.>X-X@X@X;X%X[.t.r [ '.-X=X%X-X;X;X<X<X<X<X%X_.;X;X;X;X;X%X=X=XXX.X.XXX|.%X;X",
".X>X;X;X:X;X-X;X-X%X-X-X%X%X>X.Xl.;X;X-X%X;X[.; H ;X;X-X@XXX;X%X_. .> -.%X-X%X%X-X;X;X:X<X;X:X+X.X>X-X;X;X;X%X.XXX@XXX|.XX.X@X;X",
".X;X-X-X;X-X;X;X%X%X-X-X-X-X;X.Xi.;X;X-X=X-X-X.X+X>X;X;X-X=X;X%X/.| + k.;X%X%X%X%X;X;X;X;X%X-X.X.X6X>X;X;X=X=X@X.X@X.XXX-X;X>X-X",
".X;X-X-X-X-X;X;X%X=X-X%X;X;X;X.X0.;X-X=X=X-X%X-X;X;X-X;X;X;X<X%X(.;.+ '.;X%X-X%X%X-X%X-X;X%X;X%X|.6X<X;X=X%X=X;XXX.XXX;X>X>X<X;X",
".X;X;X;X;X;X-X-X-X%X%X%X-X-X;X|.0.-X-X%X%X-X-X-X;X;X;X;X;X-X<X%X.X&X}.-X;X;X;X%X%X%X-X;X;X;X<X%X.X<X;X;X-X@XXX=X@X@X;X>X>X;X<X;X",
"[.>X-X;X;X;X-X%X%X%X%XXX%X=X;X|.x.;X%X%X%X;X;X:X;X-X%X=X=X=X>X%X.X;X>X;X;X;X-X-X=X%X;X;X>X;X<X%X[.6X<X-X=X%XXX-X;X-X;X>X<X<X6X;X",
".X<X-X-X;X;X-X%X%X@X%X=X=X%X;X|.s.>X-X;X;X:X>X<X;X-X%X@X%X;X<X%X.X>X&X;X;X;X-X%X=X-X;X>X<X;X<X%X(.6X<X;X=X;X%X;X6X-X-X>X<X<X6X;X",
"[.:X-X=X-X-X%X%X%X.X@X-X%X@X-X|.l.;X-X;X>X:X;X<X-X;X;X&X-X;X>X.X|.;X-X-X=X-X-X-X-X-X;X;X<X;X;X$X/.<X-X;X;X%X@X=X<X-X-X>X<X<X<X;X",
"|.<X>X<X;X;X;X;X;X=X;X;X;X-X>X.X^.6X;X<X<X<X<X<X<X<X3X<X<X<X<X%X.X<X>X;X;X;X;X;X;X;X>X<X<X<X6X%XT.5X;X<X>X;X;X>X6X;X-X<X<X<X6X<X",
"v._.^._.(.!.^./.!.^./././.(._.!.p.^.!.T.!.^.!.T.T.T.T.!./././.b.n..X.X X[._.[..X[.[././.(.[.^.c.0.[..X.X.X.X.X@X%XXX.X.X.X.X%X|."
};
