/* XPM */
static char *wall_random_6_64[] = {
/* columns rows colors chars-per-pixel */
"64 64 175 2 ",
"   c black",
".  c #151715",
"X  c #360E00",
"o  c #201B14",
"O  c #372717",
"+  c #33291D",
"@  c #2F2A23",
"#  c #3C2E20",
"$  c #3F3020",
"%  c #492A05",
"&  c #532700",
"*  c #4F300F",
"=  c #4C3217",
"-  c #53371A",
";  c #54391D",
":  c #623F1A",
">  c #453524",
",  c #483724",
"<  c #4D3C2A",
"1  c #553D25",
"2  c #5A3E23",
"3  c #523E2A",
"4  c #443D32",
"5  c #64411E",
"6  c #5E4124",
"7  c #55412C",
"8  c #5B442D",
"9  c #5D4731",
"0  c #5F4831",
"q  c #544A3C",
"w  c #634323",
"e  c #6C4925",
"r  c #61472E",
"t  c #6E4C2C",
"y  c #74512F",
"u  c #614730",
"i  c #694E33",
"p  c #6D5136",
"a  c #6D5339",
"s  c #725336",
"d  c #795735",
"f  c #7C5937",
"g  c #735639",
"h  c #785739",
"j  c #77583A",
"k  c #5B5041",
"l  c #675C4B",
"z  c #725B43",
"x  c #7B5F40",
"c  c #7B6245",
"v  c #7B644A",
"b  c #776854",
"n  c #7D6A53",
"m  c #805C37",
"M  c #815E3C",
"N  c #84613E",
"B  c #8A633E",
"V  c #996C3F",
"C  c #805F41",
"Z  c #856241",
"A  c #8B6642",
"S  c #8E6945",
"D  c #85694C",
"F  c #8D6C4A",
"G  c #906741",
"H  c #936B45",
"J  c #986E46",
"K  c #986F48",
"L  c #9A7047",
"P  c #96714B",
"I  c #816C54",
"U  c #857159",
"Y  c #8C755A",
"T  c #967350",
"R  c #9C7651",
"E  c #927659",
"W  c #927A5E",
"Q  c #9A7C5C",
"!  c #A5774A",
"~  c #A1764D",
"^  c #A3794F",
"/  c #A07750",
"(  c #A97E54",
")  c #A47E58",
"_  c #8A7963",
"`  c #957E62",
"'  c #9C815F",
"]  c #AB8156",
"[  c #A5815B",
"{  c #B08356",
"}  c #B1865B",
"|  c #B48A5E",
" . c #BA8C5F",
".. c #9E8464",
"X. c #95836B",
"o. c #9B866B",
"O. c #9A866C",
"+. c #9D8C73",
"@. c #A38565",
"#. c #AD8A64",
"$. c #A38B6D",
"%. c #AC8E6B",
"&. c #B58C61",
"*. c #B98E62",
"=. c #B18E6A",
"-. c #AE906C",
";. c #B3936D",
":. c #BE9469",
">. c #A28E72",
",. c #A59176",
"<. c #AD9474",
"1. c #A49279",
"2. c #AC9579",
"3. c #AD997E",
"4. c #B39672",
"5. c #B59976",
"6. c #B99B76",
"7. c #B59C7C",
"8. c #BB9E7A",
"9. c #BCA17C",
"0. c #C1966A",
"q. c #C49A6D",
"w. c #C59C71",
"e. c #C89E71",
"r. c #C09E78",
"t. c #CAA175",
"y. c #C1A37E",
"u. c #A69780",
"i. c #B19E82",
"p. c #B5A186",
"a. c #BEA483",
"s. c #BFA887",
"d. c #B6A48A",
"f. c #BBA98D",
"g. c #BBAA91",
"h. c #C2A682",
"j. c #C4A986",
"k. c #CAA983",
"l. c #C5AC8A",
"z. c #C9AE8B",
"x. c #D1AE88",
"c. c #CCB18E",
"v. c #D2B28E",
"b. c #C0AD93",
"n. c #C6B194",
"m. c #CEB493",
"M. c #CEB898",
"N. c #D1B693",
"B. c #D8BC97",
"V. c #DABE9A",
"C. c #CFBDA2",
"Z. c #D3BEA0",
"A. c #D7C09F",
"S. c #DCC19E",
"D. c #E0C39E",
"F. c #D7C1A1",
"G. c #DEC5A2",
"H. c #DFC8A6",
"J. c #DEC9A9",
"K. c #E1C6A3",
"L. c #E2C9A6",
"P. c #E7CFAC",
"I. c #E9CFAC",
"U. c #E7D0AE",
"Y. c #E9D1AE",
"T. c #E4CFB0",
"R. c #E7D1B1",
"E. c #EAD3B0",
"W. c #EED8B7",
"Q. c #ECD7B8",
"!. c #F0D7B3",
"~. c #F1D9B6",
"^. c #F2DCBB",
"/. c #F2DFC0",
"(. c #F9E6C7",
/* pixels */
"-.;.;.;.;.;.4.;.;.5.4.4.4.5.9.5.j.K.G.S.G.L.P.L.G.G.L.P.I.P.P.N.5.c.m.z.z.z.l.j.8.;.-.%.-.4.[ #.@.<.$.<.y.9.9.h.z.z.z.j.h.y.h.9.",
";.S.L.L.L.L.L.K.U.^.W.W.W.E.^.P.V.^.!.Y.I.E.^.E.Y.L.~.^.^.!.^.P.V.^.~.~.E.~.^.^.E.P.L.I.Y.I.Y.B.a.!.I.I.Y.Y.Y.Y.!.!.!.E.E.Y.~.P.",
"4.P.P.K.L.S.V.B.G.P.E.E.Y.E.^.G.B.I.K.L.K.P.E.P.P.L.L.L.P.P.E.P.B.Y.L.P.L.L.Y.E.I.P.P.P.P.L.~.F.8.Y.P.V.B.B.S.I.L.L.K.G.L.L.E.G.",
"a.Y.K.L.G.V.B.B.B.B.L.G.P.E.W.G.m.Y.K.K.K.K.E.P.L.K.L.L.S.K.E.P.B.Y.L.P.I.Y.E.Y.Y.P.L.P.I.P.E.B.7.I.S.B.V.B.V.L.P.G.V.V.K.L.E.G.",
"a.U.S.G.G.S.V.S.B.B.B.P.W.E.^.P.N.Y.K.P.K.K.P.K.L.G.L.L.S.S.P.G.B.Y.I.P.G.E.E.P.Y.I.L.L.P.Y.E.B.5.K.V.S.S.B.V.S.K.V.V.S.K.L.I.L.",
"6.P.S.B.G.S.B.S.G.S.S.U.E.W.^.G.m.Y.K.G.P.K.K.L.L.K.G.L.L.K.L.B.B.^.P.v.&.j.E.Y.P.L.P.K.P.E.E.B.5.K.B.B.N.B.S.S.S.S.S.K.P.L.Y.L.",
"8.L.P.S.V.V.S.P.E.E.P.L.L.P.L.N.c.L.L.B.S.L.L.P.L.K.K.K.L.S.K.B.z.V.w.| /  .k.P.P.K.L.L.P.E.E.B.4.L.B.V.S.K.K.L.P.P.P.P.P.P.E.P.",
"9.P.P.L.V.S.P.E.U.R.R.Y.E.W.P.V.B.L.P.L.V.P.P.L.L.L.L.K.S.V.I.N.:.e.] a i T 0.k.K.I.L.K.L.P.Y.B.7.L.V.V.S.G.L.K.G.L.L.P.P.P.E.P.",
"9.L.G.L.K.P.E.E.E.E.E.E.W.E.P.G.B.P.L.L.L.P.P.L.K.L.L.S.V.G.v.q.:.F p F H Z K :.t.V.Y.L.K.L.Y.A.a.K.S.S.B.S.L.K.S.K.L.L.P.P.Y.L.",
"9.Y.G.W.E.L.Y.E.W./.W.W.E.U.U.B.m.P.K.L.K.L.P.L.K.L.K.V.z.w.*.P i i P *.} ^ A Z | :.B.P.L.P.Y.B.l.L.K.G.B.S.L.K.G.S.S.P.P.P.E.L.",
"j.Y.S.E.E.L.Y.E.W.W.Q.W.P.P.E.G.z.P.K.K.G.L.L.L.L.L.N.w.*.R i r K ( ^ P | :./ A j [ :.c.I.P.Y.B.m.L.V.V.S.P.L.L.K.G.G.L.L.L.Y.G.",
"h.P.G.E.E.S.U.E.E.E.E.E.H.G.E.G.c.L.V.L.P.L.L.L.S.x.e.] j u Z ( P P / ~ ~ :.q.( K s [ q.z.P.G.3.7.L.K.G.L.L.S.G.K.G.G.K.K.S.Y.L.",
"l.L.G.E.U.B.G.E.E.Q.Q.E.P.P.P.G.B.L.S.L.L.L.G.z.t.:.F 0 i ~ } / ] / P ] / ^ :.t.} H s ) q.r.i.1.o.s.V.K.S.S.B.V.L.G.G.G.S.V.E.L.",
"l.E.P.^.E.B.G.E.E.E.Q.W.W.E.P.B.B.L.G.L.K.N.;.:.R i i K ~ P / } ( ] / ~ ] ] ^ } :. .P j R q.;.+.>.3.7.J.P.V.B.B.S.K.P.S.V.B.P.G.",
"c.^.W.^.W.E.E.E.E.W.^.^.W.E.E.B.B.~.Y.P.P.8.~ 0.T S ( ~ / / A R } / ( } P ] &.( ~ | *.P j F &.] >.p.3.p.G.L.L.L.P.I.I.P.K.L.E.L.",
"l.P.G.P.U.E.P.P.P.R.E.T.P.J.P.N.8.m.c.B.G.6.( | q.q./ ( P ~ ] Z P | ] | } A / *.] P } } K s P q.] +.3.,.1.n.G.V.S.V.V.V.B.G.K.c.",
"-.j.z.m.m.B.B.B.B.B.B.N.z.l.N.h.j.B.z.8.` F K P  .e.q.] | / ] ] Z K / ] } / A / | ( ( ] / &.q.] M n >.+.o.X.<.8.4.6.8.y.8.6.4.4.",
"z.E.^.^.P.I.Y.E.E.E.E.E.E.E.E.B.l.z.@.c O M P i / } :.q.] ] ] ] ( Z P | } ] ( ^ ] ] ~ ] q.:.P g d o.g.g.g.g.s.n.P.E.E.E.E.L.I.L.",
"j.Y.Y.P.G.L.L.P.I.E.E.Y.P.N.8.#.^ B t , . j P i H H ( :.:.] ~ ( ] / S K ( *.| ~ K ] :.:.) A i i j o.s.i.p.d.d.i.b.T.E.E.W.Y.E.P.",
"a.E.P.P.P.P.P.P.P.G.N.h.:.] ~ A a < 7 7 o j P p ~ B H ] :.:.] P ( ] ( P K / ] / &.0.] A j j 0 i f o.d.3.i.d.s.f.d.d.G.E.E.Y.E.R.",
"l.E.L.L.L.L.G.N.k.w.} / F j i i j s s g + j K i ~ S M H ( &.q.| ~ ] ] ^ K K &.q.&.P j s i j i i s o.d.i.i.p.d.d.f.d.f.P.E.E.E.P.",
"l.E.L.G.l.8.:.&./ F j a M Z P A H M p i , j S i P H A H S / :.w.:./ / P &.w.0.P j p i i i Z i 0 s X.p.u.i.i.d.g.g.g.g.d.P.W.E.G.",
"h.E.E.m.~ 0.P g p j A A ] ] P R j N s i < j A 8 H P Z H H A / | q.:./ :.:.) A g p p i i p Z i 0 s X.d.i.p.i.d.f.g.f.d.f.P.E.Y.G.",
"j.E.E.N.{ 0.[ S ( P ] P P ] ^ / K j j i > Z A 8 H H j H H A B ~ { | :.] A j i i a g i p g S i 9 s o.g.d.d.d.p.d.d.d.i.Z.E.Y.E.P.",
"l.E.E.B.P } t.&./ ( P ( A R ] K P Z j p > j A 8 H H j H H A B A P P S N g i i p s i p p a Z i 8 g n +.>.1.1.3.i.u.i.d.P.P.P.W.R.",
"N.E.I.V.M S q.q./ | ( / ( M / ] P P j j 3 g A r A S j S P H H H P ~ Z g i i i p g p p g i j i 7 j O   j P R / } Q 1.M.L.G.L.W.Q.",
"B.Y.L.V.N i ] q.:./ | / | S S / P / M p i s j 3 N A M H ~ H H P ^ ( F j g p i i g g i j i g 9 8 j # . 8 g j j | [ 3.P.L.L.P.E.E.",
"m.E.I.V.M i P *.q./ ( ] / / j P / P A i i i p i i j j H H B J P / / K j g g i i g p 8 g i p 8 3 g + $ i Z j g :.] s.L.G.H.P.W.E.",
"B.E.E.V.m i H / 0.:.P / ] ( A K ( ^ H Z g g r j i i j P H M P P / / P j g g 9 i g i i p i i > > i > r j / H A :.[ 1.p.p.s.p.G.E.",
"G.E.P.N.d i J H } :.] P ( ] / A P ] ( A s s i p A s 8 A J B P K P ^ S j p p 8 p g i i i < > 7 8 7 8 s Z ] K A :.R +.p.u.i.u.G.P.",
"B.E.E.B.t 8 L A ~ 0.q./ / ] ] ^ A K ^ K K P K j j H j i j H P H P / S p i p 8 i g 9 7 , , 8 i 3 8 s j P *.K A :.F X.i.i.p.i.B.S.",
";.m.P.m.s 8 H G H ] e.:./ / P P R ] :.| ] / S j i i A M 8 j P H P ( K p i p 8 i i > > 7 r 8 7 i p M A / :.P K 0.D I o.>.>.X.7.h.",
"8.j.m.h.s 8 A B H H } q.] / | :.q.:.] P H M j i 8 3 3 A A p M J P ( S p i i 8 < > , 8 7 < 3 g j j K A ] 0.P P q.x v W ` W W 7.6.",
"G.E.E.B.t 8 N M H A L | :.*.&.] / H N j g p i i 8 i 7 # N H j j H ] A p i 3 > , 8 9 < > i g A j j ( P / *.H R q.i Y $.,.>.o.j.c.",
"B.E.Y.m.6 , M j H H A ~ K P H A M s g j j j i p i j i > # j H Z j ] K i , , 8 i 8 7 7 8 j A A N Z ( / / *.J ) w.0 X.<.o.o.o.m.G.",
"l.E.Y.M.% , s M H H H ^ H Z j s g s g N j j s s i N s , 1 < W P N P S 9 3 i i 3 8 i a p Z / P H P ( P / *.H ] w.7 o.7.$.,.3.G.G.",
"j.P.Y.P.n ; 0 s A B H ] P S M j j s s Z g j g g p Z s , 8 9 u.$.B ^ A 2 i g 3 8 p i j g A ~ H A / ~ P ( ] M ) :.# +.i.3.3.p.P.P.",
"l.Y.P.Y.M.i 7 i N M H ] P K A N M g s Z Z M j M i j g 3 i i u.3...[ 5 _ v B H P / / ] ] } ] ) / ] ] ] &.| P ] *.> +.p.i.p.f.Y.P.",
"l.E.P.L.E.p.* 0 j M A ( / K N N Z p p j A j p A s j j 3 i p u.2.m.G.n.P...J ] ] }  .*.} | *.*.*.| :.q.:.:.:.0./ + >.d.u.3.s.P.P.",
"s.Y.P.G.L.P.I ; i j B P P H M M Z i s j N s i M s s g 3 s s 1.p.B.W.E.E.4.~ P / ^ ^ P P ~ ^ ~ / ( ] } ] ( ^ ] A @ ,.p.i.3.a.I.P.",
"a.P.L.P.P.E.m.2 8 i j P P A s M j r j M h s g j s h i > i i b.G.B.E.P.U.;.~ Z H B N A M H H A N H A A ~ H j / P 4 3.i.i.3.s.Y.P.",
"a.P.G.P.U.P.Y.>.* i i P P Z s j j i p N j p j s r 8 3 < 7 2 R.E.B.E.P.P.%.] F ~ P B H M L H P A G A N ^ P j / ^ q p.i.i.3.f.E.G.",
"<.P.P.P.P.P.U.G.v r i H K Z g j j i p j p 8 8 7 < 7 1 % % b R.T.B.E.L.G.;.{ S ( P S J j P H K H B H B ] / j / ( q 3.3.i.i.m.E.S.",
"%.P.P.P.L.P.H.Y.l.6 a A K M s s p i 8 9 < < 7 ; * ; z 1.C.E.^.J.B.Y.G.S.%.] S P P K K s P P H H J H A } / j ~ ^ k 3.2.2.f.L.E.G.",
"4.E.P.G.L.L.G.G.L.>.w H J M i i 3 3 < < = * ; n >.l.T.(.(.^.E.G.m.Y.G.H.=.~ A P L P S s K P ~ H H L H | ( M P P l 3.3.3.B.E.E.G.",
"a.Y.G.L.P.P.L.G.L.G.v y H s > 3 , % % 6 I >.m.P.P.I.U.W.^./.W.G.B.Y.P.E.5.~ Z H J H N j H H ^ N P ~ A ] / f P P b p.3.f.U.Y.Y.H.",
"G.E.P.U.E.^.W.U.Y.^.n.r x i 3 8 z X.p.G.E.~.E.E.E.Y.Y.E.^.^.^.P.B.E.E.E.;.~ Z H H H j M P J J j S ( H P ^ f / P _ s.d.J.E.Y.E.P.",
"h.G.B.B.B.B.B.m.j.j.j.x X ; r c Q a.m.m.l.l.h.y.y.y.h.y.h.l.N.z.h.S.G.G.#.~ C H H H M j J J B M S ~ A P ~ j / P _ u.f.P.K.G.G.m.",
"8.c.z.z.j.h.j.a.h.9.y.7.>.4.a.8.8.B.B.B.N.B.N.c.c.B.B.m.m.B.S.B.h.B.B.S.=.~ j A A B N j H ~ A N H H N H H p / P U >.l.B.B.B.B.z.",
"S.Y.L.P.I.I.E.E.E.P.P.P.Y.P.E.B.a.~.Y.P.L.L.P.P.P.P.Y.P.L.L.P.G.S.E.P.U.;.V g j j s g p N N j j H N M H N i P P _ l.G.G.G.K.E.U.",
"A.P.L.L.G.P.I.P.L.P.K.S.L.P.E.B.4.P.P.P.L.K.L.G.S.G.S.G.S.G.L.G.B.L.S.L.@.B 9 7 8 7 7 3 7 7 7 7 i 9 8 0 i < Z A 1.V.S.B.v.S.U.L.",
"G.E.P.P.G.P.Y.L.L.L.L.G.G.U.Y.B.$.P.P.P.L.L.L.L.G.K.L.L.G.G.P.H.B.L.K.P.Y & w w t e e w : ; ; w w - ; w t r s f l.D.B.B.N.P.E.P.",
"S.U.P.P.L.P.E.U.L.G.G.L.G.P.E.B.7.Y.L.K.L.P.L.P.K.K.L.H.G.K.Y.G.m.L.P.U.m.s.a.7.<.2.2.2.2.>.$.` U $.@.Q E E D D c.V.B.N.B.P.E.P.",
"G.P.L.P.P.L.P.P.P.G.G.G.G.L.Y.B.a.Y.L.L.L.P.P.P.L.L.P.L.S.G.U.G.m.Y.P.P.P.I.P.L.L.P.E.E.E.E.~.G.c.!.P.K.K.K.S.S.S.V.B.B.B.B.L.P.",
"G.E.P.P.P.L.L.P.P.G.L.G.G.S.Y.B.7.Y.L.L.L.P.P.P.P.P.P.P.S.S.P.G.B.Y.L.L.K.G.G.G.L.L.P.E.E.R.E.F.c.P.L.I.P.P.K.K.K.V.B.B.V.N.G.P.",
"B.Y.P.P.U.P.L.P.L.G.L.L.G.G.Y.B.<.P.L.K.G.L.P.P.P.P.P.L.S.V.P.G.m.P.L.L.L.G.G.G.L.P.P.P.E.P.U.A.B.Y.L.P.P.P.S.B.V.S.V.N.V.B.S.P.",
"B.P.L.L.P.L.P.P.G.G.L.L.L.L.P.B.$.P.P.L.K.L.L.P.P.P.P.P.L.K.P.G.c.P.L.P.H.G.G.G.G.P.L.P.P.G.L.B.B.^.Y.I.P.K.K.S.B.S.B.V.L.P.Y.L.",
"B.P.L.L.L.L.P.P.G.K.L.G.P.P.P.B...P.L.K.K.L.G.G.P.P.L.P.P.P.E.G.c.Y.P.L.L.L.L.G.G.L.G.L.P.G.P.G.N.^.E.I.K.G.K.P.V.B.V.P.Y.Y.E.P.",
"B.P.P.P.P.P.L.L.L.G.G.G.L.L.P.N.' L.P.G.G.L.L.L.P.P.P.P.P.L.E.G.B.P.P.P.P.P.P.G.G.G.L.P.P.P.E.G.B.E.P.P.L.S.V.K.S.S.P.Y.Y.P.E.P.",
"m.Y.L.P.P.P.L.G.G.G.G.V.G.K.P.N.4.I.G.G.G.P.P.U.P.L.S.K.K.K.Y.G.B.P.P.P.P.P.L.L.K.G.P.P.Y.P.E.F.m.^.E.L.K.G.V.L.I.L.P.Y.E.E.^.P.",
"B.E.L.L.P.P.L.G.G.S.G.K.K.G.P.N.-.Y.L.P.P.U.Y.E.P.L.G.S.G.P.E.G.B.Y.L.P.P.P.L.G.K.L.P.Y.E.P.E.G.z.^.E.P.K.P.G.P.^.L.L.Y.E.E.^.P.",
"m.Y.L.K.L.L.G.G.G.B.S.L.G.S.L.N.<.P.L.P.Y.U.P.E.L.P.P.L.L.P.Y.B.B.P.L.L.K.L.L.L.L.L.P.P.E.P.P.F.l.E.K.P.P.G.S.K.E.L.L.Y.E.E.E.P.",
"N.E.Y.E.P.P.P.P.P.K.P.P.P.L.Y.B.j.^.I.E.E.E.E.E.E.E.~.E.E.E.E.G.B.Y.P.P.P.P.P.P.P.P.Y.E.E.E.^.G.a.~.P.E.Y.P.P.Y.^.P.L.E.E.E.^.E.",
"6.c.j.c.z.h.j.l.h.j.l.l.l.z.c.h.%.j.h.a.h.j.h.a.a.a.a.h.l.l.l.7.7.B.B.m.m.c.m.B.m.m.l.l.z.m.j.5...m.B.B.B.B.B.S.G.V.B.B.B.B.G.m."
};
