/* XPM */
static char *wall_64[] = {
/* columns rows colors chars-per-pixel */
"64 64 210 2 ",
"   c #000001",
".  c #0B0A0B",
"X  c #0B0F0F",
"o  c #17120F",
"O  c #191510",
"+  c #1E1A15",
"@  c #261E18",
"#  c #3A210C",
"$  c #28211A",
"%  c #2C231B",
"&  c #31261C",
"*  c #34291E",
"=  c #3D2C1D",
"-  c #2E2921",
";  c #352C23",
":  c #3C2E22",
">  c #3D3024",
",  c #452402",
"<  c #522E06",
"1  c #5D3406",
"2  c #442D1A",
"3  c #4E331C",
"4  c #55361B",
"5  c #643A0B",
"6  c #623D1A",
"7  c #433324",
"8  c #4D3826",
"9  c #443628",
"0  c #4C3B2B",
"q  c #513722",
"w  c #543B25",
"e  c #533D2A",
"r  c #583F29",
"t  c #69421E",
"y  c #73481F",
"u  c #5E4026",
"i  c #56412D",
"p  c #5C432C",
"a  c #494238",
"s  c #554433",
"d  c #5C4631",
"f  c #5D4934",
"g  c #584A39",
"h  c #6E4825",
"j  c #63452C",
"k  c #65492E",
"l  c #6B4B2E",
"z  c #774C26",
"x  c #724C2B",
"c  c #77522F",
"v  c #7A512D",
"b  c #614730",
"n  c #654A32",
"m  c #6C4D32",
"M  c #624D39",
"N  c #714F31",
"B  c #6E5035",
"V  c #67513B",
"C  c #6C533B",
"Z  c #7A5635",
"A  c #7D5837",
"S  c #73553A",
"D  c #79573A",
"F  c #77583B",
"G  c #7D5A3B",
"H  c #574F43",
"J  c #5D5143",
"K  c #6C5741",
"L  c #695946",
"P  c #745C43",
"I  c #7A5E43",
"U  c #705E48",
"Y  c #7D6146",
"T  c #73614C",
"R  c #7D654B",
"E  c #786A56",
"W  c #776A58",
"Q  c #835B35",
"!  c #855A34",
"~  c #835D3C",
"^  c #86603D",
"/  c #8B623E",
"(  c #95663D",
")  c #825F41",
"_  c #856243",
"`  c #8E6846",
"'  c #836649",
"]  c #86694D",
"[  c #886848",
"{  c #916742",
"}  c #946A45",
"|  c #9A6D45",
" . c #946D4A",
".. c #996E49",
"X. c #9C724C",
"o. c #866D51",
"O. c #8A6E51",
"+. c #916F50",
"@. c #8D7154",
"#. c #89745B",
"$. c #937354",
"%. c #9B7552",
"&. c #9C7854",
"*. c #927659",
"=. c #967A5B",
"-. c #9A7C5C",
";. c #A3754D",
":. c #A87448",
">. c #AB7A4F",
",. c #B17B4C",
"<. c #A27751",
"1. c #A57A54",
"2. c #AC7C53",
"3. c #A37E5A",
"4. c #A87F58",
"5. c #B17F53",
"6. c #887965",
"7. c #957E64",
"8. c #997E61",
"9. c #AE8056",
"0. c #A4815D",
"q. c #B38256",
"w. c #B9865A",
"e. c #B5885E",
"r. c #BD8A5D",
"t. c #9D8263",
"y. c #97836A",
"u. c #9A856C",
"i. c #958670",
"p. c #9D8B73",
"a. c #AA8662",
"s. c #AB8965",
"d. c #A38768",
"f. c #A58A6B",
"g. c #AB8D6C",
"h. c #B08660",
"j. c #B48C64",
"k. c #BC8D62",
"l. c #B48E69",
"z. c #AE906D",
"x. c #BF9065",
"c. c #B3926D",
"v. c #BB936B",
"b. c #A28D73",
"n. c #A98F72",
"m. c #A69175",
"M. c #AC9373",
"N. c #A6957C",
"B. c #AB967A",
"V. c #AE997D",
"C. c #B39673",
"Z. c #B99773",
"A. c #B69976",
"S. c #BB9A75",
"D. c #B49B7B",
"F. c #BA9D7B",
"G. c #BDA17D",
"H. c #C18D5E",
"J. c #C4905F",
"K. c #C18F61",
"L. c #C49264",
"P. c #C99666",
"I. c #C49669",
"U. c #C89869",
"Y. c #CC9B6C",
"T. c #D09D6D",
"R. c #C59D75",
"E. c #D09F70",
"W. c #D3A06F",
"Q. c #C4A27D",
"!. c #CDA57C",
"~. c #D5A373",
"^. c #D8A878",
"/. c #AB9B82",
"(. c #B29E83",
"). c #B5A184",
"_. c #BDA383",
"`. c #B6A489",
"'. c #B9A68A",
"]. c #BDA98C",
"[. c #BCAB91",
"{. c #C2A583",
"}. c #C4A986",
"|. c #CAAA85",
" X c #C5AC8A",
".X c #CAAE8B",
"XX c #D0AF8A",
"oX c #CBB18F",
"OX c #C3AF91",
"+X c #CDB492",
"@X c #C7B398",
"#X c #D4BA96",
"$X c #D8BB97",
"%X c #DABE9A",
"&X c #DCC19E",
"*X c #D6C1A1",
"=X c #DEC5A2",
"-X c #DFC9A9",
";X c #E1C6A3",
":X c #E2C9A6",
">X c #E6CDAA",
",X c #E8CEAB",
"<X c #E7D0AE",
"1X c #E9D1AE",
"2X c #EBD4B3",
"3X c #EED8B7",
"4X c #EED9B9",
"5X c #F0D7B3",
"6X c #F1D9B6",
"7X c #F3DCBB",
/* pixels */
"z.c.c.c.c.c.C.c.c.A.C.C.C.A.G.A.}.;X=X&X=X:X>X:X=X=X:X>X>X>X>X#XA.oX+X.X.X.X X}.F.c.z.g.z.C.0.s.a.M.f.M.{.G.G.{..X.X.X}.{.Q.{.G.",
"c.&X:X:X:X:X:X;X<X7X3X3X3X2X7X>X%X7X2X1X,X2X7X2X1X,X6X7X7X2X7X>X&X7X6X6X2X6X7X7X1X>X:X,X1X>X1X$X_.5X,X,X1X1X1X1X2X5X2X2X2X1X6X>X",
"C.>X>X;X:X&X%X$X=X>X2X2X1X2X7X=X$X,X;X>X:X>X3X>X>X:X:X>X>X>X2X>X$X1X:X>X:X;X1X2X1X1X,X,X>X:X6X*XF.1X>X%X$X$X&X,X:X:X;X=X:X:X2X=X",
"_.1X;X:X=X%X$X$X$X$X:X=X>X2X3X=X$X2X;X&X%X%X=X:X>X:X:X:X&X;X2X>X$X1X:X>X>X2X3X>X;X&X$X&X>X1X6X$XD.,X&X$X$X$X%X:X>X=X%X&X;X:X2X=X",
"_.<X&X=X=X&X%X&X$X$X$X>X4X2X7X>X}..Xs.@.$.-.3.0.7.D.%X,X=X&X>X=X$X1X>X>X>X$XA.g.O.%.` o.-.M.%X$XA.;X%X&X&X$X%X&X;X%X%X=X;X:X,X:X",
"S.>X&X$X=X&X$X&X=X&X&X<X2X4X4X_.&.0.a.8.a.a.a.-.R ' ] D.:X:X:X%X$X2X2X#Xc.0.-.c.a.a.t.*.-.' ' ] D.:X$X$X#X$X&X&X&X&X=X:X>X:X1X:X",
"F.>X>X=X%X%X&X>X1X2X>X:X>X:Xg.$.a.w.w.G ` / ;.} M %.@.P y.&X;X$XoX2X X0.a.k.$.w.;.5.;.S <. .$.P R .X&X%X&X;X;X:X>X>X>X>X>X>X2X>X",
"G.>X>X:X%X&X>X2X2X<X>X1X2X}.%.$.>.r.L. .2.2.r.{ e } ~ ' p u.1X$X+X=X+.1.;.r.` r.w.K.1.S X.} ;.C C R $X&X&X=X:X;X=X:X:X>X>X>X2X>X",
"G.:X=X:X;X>X2X2X2X2X2X4X>X9.;.` 2.E.E.X.H.L.P.` 0  .} G S 0 =X=X{.n.Z 2.>.k.&.w.q.r.2.d X.1.r.~ n r V.&X#X&X>X:X&X=X:X:X>X>X1X:X",
"_.1X=X4X2X:X1X2X4X7X4X7X{.,.X.~ r.~.U. .H.L.U.` m ;.;.G _ , 6.].[ B ` P.X.k.1.2.;.q.9.n ;.2.r. .G N K D.D.). X+X&X=X=X>X>X>X2X:X",
"}.1X&X2X2X:X1X2X4X4X4X>Xq.r.} _ H.U.U.` w.q.H.} _ ;.X.G G p a N.B S q.U...w.1.2.1.k.w.~ 2.;.w.X.~  .r E B.V.V.B.V.+X;X;X:X:X1X=X",
"{.>X=X2X2X&X<X2X2X2X7X+X:.r...%.L.P.I.` 2.X.K.` G ;.X.D S b % 7.S Z w.L.} q. .9.;.U.L.G 2.2.2. .S X.m U (.V.B.V.V.m.+X:X;X&X1X:X",
" X:X=X2X<X$X=X2X2X2X7X_.( w.X.X.L.U.U.` q.w.U. .G 5.} m G b % U m G >.H.} 2. .k.;.~.I.S 2.w.2.} S ` S J B.M.m.M.(.B.D.=X&X%X2X:X",
" X2X>X7X2X$X=X2X2X2X7XC.( U.<. .T.U.U. .w.U.~.X.B q...S ~ m 7 > p G ..P.2.w.%.k.2.^.K.G L.r.5.` m D S s B.B.m.m.B.D.V. X&X$X>X=X",
"oX7X3X7X4X2X2X2X2X3X>X-.} U.9.X.~.~.^.9.e.x.~.<.n 2.1.~ ~ S 8 O p S ;.~.w.L.9.r.r.^.r.~ K.w.r. .S G G : p.V.V.(.(.).(.].:X:X2X:X",
" X>X=X>X<X2X<X#XM.7.C ` X.U.w.X.U.~.~.1.5.r.T.2.p w.w.~ ~ ~ 7 @ p m 9.~.k.E.j.U.:.~.2.S q.w.L. .~  .~ : 7 g U y.B.B.B.V.$X=X;X+X",
"z.}. X+X+Xg.s.1._ S 8 } 2.U.w.` H.P.I.-.c.R.!.l.w 2.<...` ~ & @ p S ;.U.L.P.1.I.a.v.a.] 1.5.,.} _  .` 0 & O 7 P I P o.t.A.S.c.C.",
".X2X7X2XC.0.a.9.` n j } 2.U.9.S S.|. X_..X.X#X+X XQ.3.} G G % @ j ~ ;.r.!.XX#X$X+X X_.F._.M.s._ S  .) e * % e ] o.R T N.-X,X,X;X",
"}.1X<XQ.&.1.;.;.{ 8 N / q.>.j._.{.v.w.Z ( ,.J.2.P -.D.A.I j & @ m Z ...X$XG.a.q.z :.Q v >.%.a.f.-./ G i % + p / D [ P K [.$X2X>X",
"_.2X$X$.` 2.w. .;.8 m ` >.c.{.O.:.k.Q.F.{.|.{.Q.=.I / $.8.V @ @ j ) D.F.P.k.g.|.(.{._.F.Z.1./ m a.a.G d % @ 0  .} ..m j #.).[.*X",
" X2XZ.( ;.P.w./ >.w b v g.{.( $.{.}.F.f.a.f.l.z.M.D.C.C m P : . w -.$.:.Q..X XF.a.a.-.t.f.g.C.O.x *.=.8 % & : ` ` ..m n n N.`.'.",
"oX&Xq.1.r.T.w.~ ;.i w ` D.Z c._.a.3.3.*.t.a.0.$.Y R =.a.I 7 0   C _ I _.F.s.$.s.-.-.-.@.$.] ] t.-.~ ` f . 7 7 _ ~ } G d j W `._.",
"}.{.H.1.K.P.2.~ } p 2 -.@.=.S.$.0.s.w._ ` ` ;.X.K $.` R ] f * + p ) C.s.0.j.=.9.<.2.<.I <. .O.P o.o.f s o 8 : ` ` { _ i G K )._.",
"}.R.r.1.5.r.q.~ } m j ] 1.C.3.$.2.w.K.` ;.;.w.} 8 } _ Y P V : O 7 -.3.3.1.r.` w.q.r.2.S ;.{ ..S P R g & + e p ..~ X.X.d ~ C /.].",
"_.v.w. .;.L.L...;.D N S v.a.<.` >.U.~.X.r.K.L.` 0  .} D S s *   8 $.[ ;.:.r.%.w.w.r.2.b X.;.w.G n C V % % S G 2.G 2...p ) m N.@X",
"{.k.w.` q.~.U.2.w.G ~ r 3.w.;.~ w.~.E. .r.L.U.` b X.;.G ~ i %   i S ~ L.;.k.4.1.;.w.q.b X.2.r. .S C i . : ~ G ..` L. .p _ j p.@X",
"G.w.r.` w.~.U.r.I.<.} p 2.r. .G r.U.U.` r.w.K.} G ;.;.G G n %   8 S 2.U.X.w.1.1.1.w.w.G 1.2.w.X.~ ` n . 8 ~ G _ ) w.~ m } k 6.@X",
"a.q.L.&.w.I.W.H.w.X. .B q.r... .K.P.I.` 2.X.H.` G ;.X.G S n & + p D q.P. .q.X.1.;.I.L.~ 2.2.2.X.S ..S % m ` ~ S l  .n G ..j W @X",
"3.q.U.9.2.H.!.XX.X.X}.-.;.q.X.X.L.U.U.` 2.2.U...G 2.} m S n & 0 n G 2.H.` 2.} w.;.U.I.S 1.q.2.} C } G 0 =.u.u.*.I Z 2 G  .j H @X",
"a.2.T.1.3.#X$XXXa.j.G ^ ;.L.1.` U.U.U. .q.U.~.<.S q...m G n 7 & p G ..L.1.w.X.j.2.~.L.D r.r.2.} m G D 7 G  .] E *.o.g n  .l a ].",
"a.;.r.c. Xv.L.P.a.Q.f.` } L.9. .~.~.~.3.w.L.~.1.b 2.;.G ~ S e O e S ..U.w.k.3.w.r.^.r.G k.r.w. .B D D 7 R -.' q h m U Y _ p J ).",
"3.( l.F.Z w.{..X_.B.*.` ..I.w. .U.~.^.9.w.r.W.9.n 2.w.G ~ G 8 @ p m 2.~.k.U.j.U.q.^.w.G w.w.K.X.G } ~ : s L E *.@.n # P O.w L f.",
"c.%.c.;.f._.A.9._ m 2 } 1.I.w.` L.P.P.X.9.L.U.w., >.2. .` ~ = @ p m ;.T.L.U.1.k.<.k.1.S ;.5.q. ._  .` 0 @ . : P ' o.P w Y f T t.",
"#Xc.} l.F.0.0.0. .C p } 2.U.w.x k.Q.}._.oXoX#X+XD.Z.%.{ ^ ~ % @ j G ;.H.U.!.}.#X+X.X{.D.F.g.9._ S  ._ e * % e ' ] P P K p M #.D.",
"#XS.` S.3.3.;.;.( 8 m ^ 2.q.9.M.{.F.v.` X.5.L.j.*.g.D.g.S m & + k G } R.$X XC.v.` 2.( G 9.0.g.d.` / ~ i & + e ~ G ' P P s 7 i._.",
"+XQ.3.a.` ;.5...X.w m _ 2.0.{.d.>.q.I.g.F.Q.Q.v.P j ` a.-.n % + j Z g.}.E.r.%.R.g.R.C.g.j.X.~ Y f.-.~ d % @ e  .` } m C M : 7.(.",
".X X2. .} L.r.` >.e j Z 0.{.;.A F.|._.D.f.d.f.z.F.D.l.j S R * O q *.a.;.R.|. XF.M.d.t.g.M.C.c.P x -.$.8 % % : ` ` ..m n p s 6.p.",
"oX$X>.<.w.T.r.~ ;.p e ~ C. .3.{.f.Y 6 < < < , , h ` s.f.S 0 0   n ` k F.F.$.Q y z v t 6 h N ] f.=.~ @.d o : 7 ^ ~ } D p m L 6.p.",
"+X.Xr.3.k.U.q.~ } p 2 =.=.] F._ < 3 p i p m S G G S h ` -.s : + p D M.a.t l ~ } } } } ^ / / Z x O.@.n f . 7 ; ~ ` ` _ e G M 6.p.",
"].R.r.1.q.r.5.~ } n u ] $.g.D # e n m S Z ~ ~ A S G S l ~ Y * + = =.%.t G G S m S G / / ~ ~ ` / r Y V * @ 0 e } _  ...p ~ n W m.",
").R.w...;.k.K.} ;.S m S v._ 3 G ~ ~ ` ~ Z S S Z / } / G l G 9   7 +.j n ^ } ` / ~ G S S S m S / G r S % @ n S ;.~ 2.X.p ) n 6.'.",
"M.k.w.` 2.U.U.2.w.D G p 1.k j / D m S S ~ / / / ~ S S S j S 8   i _ w S Z G D Z ~ / / / / ~ ~ ~ S w j @ : { ) ;._ r...e _ j i._.",
"=.w.r.` q.~.U.r.I.X. .e ` j 7 m m ~ ^ / / A S S S ~ / / k S 7   7 ~ w S ~ ~ ~ ~ G Z S S Z A ~ / S r j . d ;.%.2...K.` n ` l 6.(.",
"+.q.L.%.2.U.~.H.w.} { 3 j l = Z / ~ A S S G / } } } } A k S @   @ N p 2 p l S Z Z ~ / / S S l l r l r   Z 2.;.;.} K.D S ..j W ).",
"+.q.U.9.9.H.E.!.{._._.t.R S w w S ~ ~ Z ~ / / ^ / / Z l Z m - P K n S 8 p j p p w p l A G / / m j S > U A.{.{.g. .;.b D  .k J ).",
"%.q.U.2.X.|.$X#XM.Z.$.` G 8 l 8 8 Z ~ ( { ` ^ ~ G S m Z Z 2 2 S m 7 m S p j m m j p p 8 8 p l S Z w = ~ 9.v.Z.D.D.g.K m  .m 0 (.",
"a.1.H.h._.Q.U.P.X.v.-.$.$.s w u w 8 p S m N Z Z Z A S l Z I R $.` C j l N m m m m l l m S Z Q l j C R 3.j.I.1.6 / -.t.o.` j J '.",
"0.} w.F.+.:.R..X X{.D.z.g.a.=.P i w p p j l x N S j B $.a.g.f.t.a.a.-.o.S j S Z Z ~ ~ ~ ~ Z j R t.g.g.f.f.n.B.C.s.D w $.O.q U V.",
"c. .c.1.O.{.D.-.^ z z v h S G I ' M = 7 8 8 w w j o.-.] G l x v 4 c S _ ` P e w e w w p 3 C *.$.' N h v z h Z _ *.f.@.N ' p E M.",
"oXl.X.h.{.$.6 h / } } } ^ Z Q S l I C : @ o : i =.$.x x / ~ / B ^ ^ Z w S ^ ' 0 % . * 7 K -.G k l S / ` / ~ ~ l h S -.@.n f i.OX",
"$XC.` S.A x ^ G S S ~ / } / / ` / N C f @ L 8 ] ` x A / ~ { k Z ~ ^ j S ` l S P O g g n -.S S / / } ( / S l Z / ` S r  .P 7 p.].",
"=XR.1.` 3 F ` } / ~ A S S A Z A / / u d ; #.V ` u S ^ Q } ~ S ~ ` S m ` G r q G = T T _ G l { } } / Z S G / / A m n m l _ s /.].",
"=X.X1.n m ~ S D G ~ / / / ~ S S G ^ k w 0 p.I G 7 ^ / | ` m ~ / ~ k } G m 8 e S 3 6.6.A j Z } ~ m S ~ / / ~ S m S ` ^ j S L (.].",
":X$XX.p p ~ ~ ~ ~ G S S ~ / / / / ~ p 3 T (.@.l w ~ } } k ~ ^ / l / A l w k r m w p.p.Z p k Z Z ~ ( / ~ S S ^ ` ~ S p p k T V.].",
"=X2Xt.6 > r j S A G ~ ~ G m m S ~ A j j u.`.u.h 7 A } S Z / } m ~ ~ m w k l p h R (.(._ r p ^ ` } ~ S A ~ ~ S m j 8 8 j m 7.B.].",
"$X2X.Xh i j k p p r k A / ~ / S k n h R /.B.`.*.4 d S G ~ X.~ S / ~ j k m m m l b.(.).B.h 0 B G S Z / / Z j w p j j n x o.M.m.'.",
"$X>X>Xg.1 i k m l p p w p j Z ~ S x S b.V.V.=X+Xh w p S ~ ~ m / G p e m m D h *.V.B.OX>X8.1 s n Q ~ m p p j k l l m x F B.(.'.*X",
"$X>X>X=Xt.1 u m B m n k p j Z ~ Z S u.V.).$X;X:X XS 4 n S k G G m p G ~ Q x o.N.V.+X=X>X=X=.5 m S m p k m B S G ~ x S b.(.OX>X>X",
"$X>X>X,X>XD.Y 6 h x v Z Q Q v x B b.].+X=X:X:X:X2X$X8.x h v Q Q Q Q Q v S 7.). X$X:X:X>X1X-XD._ h h Q Q Q Q v z h R N.OX*X,X2X>X",
"+X1X:X:X>X1X=XD.7.o.' I ] @.u.u.f.=X=X;X=X>X>X<X>X>X=X Xb.*.@.' ` *.7.m.OX*X=X:X:X=X>X>X<X1X2X$Xf.b.*.' _ @.*.p.'.+X=X1X2X2X7X>X",
"$X2X:X:X>X>X:X:X;X$X$X$X=X=X>X$Xz.2X:X>X>X<X1X2X>X;X=X;X:X>X>X$X+X>X:X>X>X>X:X;X;X:X>X1X2X>X2X=X+X7X>X=X%X>X=X>X7X>X>X2X2X2X7X>X",
"+X1X:X;X:X:X=X=X=X$X&X:X;X&X:X+XM.>X:X>X1X<X>X2X:X>X>X=X:X,X2X&X$X1X:X:X;X=X:X:X:X:X>X>X2X>X>X*X X2X:X1X>X;X&X;X2X:X;X1X2X2X2X>X",
"+X2X1X2X>X>X>X>X:X;X>X>X>X:X1X$X}.7X,X2X2X2X2X2X2X2X6X2X2X2X2X=X$X1X1X>X>X>X>X>X>X>X1X2X2X2X7X=X_.2X>X1X>X:X>X1X7X>X:X2X2X2X7X1X",
"S.oX|.oX.X{.}. X{.}. X X X.XoX{.g.}.{._.{.}.{._._._._.{. X X XD.F.$X$X$X+XoX+X$X+X+X X X.X+X}.A.t.+X$X$X$X$X$X&X=X%X$X$X$X$X=X+X"
};
