/* XPM */
static char *exit_closed_64[] = {
/* columns rows colors chars-per-pixel */
"64 64 250 2 ",
"   c #0E0000",
".  c #120100",
"X  c #1C0900",
"o  c #220D00",
"O  c #261201",
"+  c #2D1A08",
"@  c #341A00",
"#  c #3D2817",
"$  c #3E2309",
"%  c #452A0E",
"&  c #482D15",
"*  c #4E351B",
"=  c #53351B",
"-  c #56391A",
";  c #543006",
":  c #4A3625",
">  c #5B3C23",
",  c #543D27",
"<  c #432D22",
"1  c #613E22",
"2  c #67431A",
"3  c #73491B",
"4  c #7C511E",
"5  c #5A4125",
"6  c #5B432B",
"7  c #56422C",
"8  c #5C4732",
"9  c #674728",
"0  c #744E29",
"q  c #75522D",
"w  c #7B542C",
"e  c #7A5327",
"r  c #694C34",
"t  c #6B5135",
"y  c #745434",
"u  c #7A5633",
"i  c #7C5A3C",
"p  c #785838",
"a  c #6E4F30",
"s  c #7A643B",
"d  c #795D43",
"f  c #6B5848",
"g  c #786249",
"h  c #865B2C",
"j  c #835C33",
"k  c #825E3C",
"l  c #885B33",
"z  c #8A612C",
"x  c #8C6334",
"c  c #8B633B",
"v  c #8B6639",
"b  c #936435",
"n  c #936935",
"m  c #93663B",
"M  c #956A3B",
"N  c #9B6C3C",
"B  c #9A6837",
"V  c #9C713C",
"C  c #9E7437",
"Z  c #95682F",
"A  c #A16E3D",
"S  c #A4743D",
"D  c #A7793C",
"F  c #815D41",
"G  c #8C6543",
"H  c #886746",
"J  c #946B43",
"K  c #9A6D44",
"L  c #946C49",
"P  c #9C7244",
"I  c #9C734A",
"U  c #98764B",
"Y  c #886C53",
"T  c #9B7B53",
"R  c #987654",
"E  c #8D714E",
"W  c #A16E40",
"Q  c #A47343",
"!  c #A57B44",
"~  c #AC7B45",
"^  c #A3754A",
"/  c #A47B4C",
"(  c #AC7C4B",
")  c #A97647",
"_  c #B27D4B",
"`  c #B17E46",
"'  c #A47C53",
"]  c #AB7D53",
"[  c #A27A57",
"{  c #B27F53",
"}  c #9A7C62",
"|  c #A27D60",
" . c #B2823E",
".. c #9C8051",
"X. c #AC834C",
"o. c #A6814B",
"O. c #B3834C",
"+. c #B9854D",
"@. c #B58A4D",
"#. c #BB8A4E",
"$. c #B28345",
"%. c #A48255",
"&. c #AC8455",
"*. c #A4825C",
"=. c #AC8B5C",
"-. c #AB8859",
";. c #B48354",
":. c #BA8653",
">. c #BC8B53",
",. c #B3855A",
"<. c #B38B5C",
"1. c #BD8B5A",
"2. c #B68A55",
"3. c #BC925C",
"4. c #BE995D",
"5. c #B69259",
"6. c #B8934F",
"7. c #9C8264",
"8. c #A58B65",
"9. c #AD8C63",
"0. c #A58A6B",
"q. c #AA8D6C",
"w. c #A68663",
"e. c #B38D62",
"r. c #B98D64",
"t. c #AC926C",
"y. c #AF9464",
"u. c #B49364",
"i. c #BA9564",
"p. c #BD9A65",
"a. c #B3946C",
"s. c #BB966D",
"d. c #BB9A6D",
"f. c #B59A6C",
"g. c #AD8E71",
"h. c #AD9271",
"j. c #B29673",
"k. c #BC9C74",
"l. c #B69B7A",
"z. c #BB9D7B",
"x. c #B69973",
"c. c #BEA17B",
"v. c #BCA175",
"b. c #BCA16C",
"n. c #C18E55",
"m. c #C18D5B",
"M. c #C39255",
"N. c #C4935B",
"B. c #C9965C",
"V. c #C49B5C",
"C. c #CB9B5D",
"Z. c #C69C55",
"A. c #C29D4F",
"S. c #C6A25C",
"D. c #CBA35C",
"F. c #D1A25E",
"G. c #C39C65",
"H. c #CD9C62",
"J. c #C29D6B",
"K. c #C69765",
"L. c #D19E64",
"P. c #D19F6A",
"I. c #C19D73",
"U. c #C29E79",
"Y. c #C99E71",
"T. c #C08D60",
"R. c #CBA363",
"E. c #CDA965",
"W. c #C4A36C",
"Q. c #CCA46B",
"!. c #CDAA6C",
"~. c #C5A263",
"^. c #D3A365",
"/. c #D5A469",
"(. c #D3AB6B",
"). c #DAAA6C",
"_. c #D6A968",
"`. c #D7B16E",
"'. c #C3A275",
"]. c #CAA474",
"[. c #CCAA74",
"{. c #C3A37B",
"}. c #CAA67A",
"|. c #CCAA7B",
" X c #C5AB7C",
".X c #D3AC74",
"XX c #DAAC71",
"oX c #D2AC7D",
"OX c #D1A679",
"+X c #D4B373",
"@X c #DBB373",
"#X c #DCBA75",
"$X c #D4B27C",
"%X c #DBB47B",
"&X c #DBBB7B",
"*X c #D6B875",
"=X c #CFB179",
"-X c #E3BC7D",
";X c #E4BA76",
":X c #E6B76F",
">X c #DDC07E",
",X c #E8C27C",
"<X c #F1C77B",
"1X c #C5A681",
"2X c #C6A882",
"3X c #CBAA82",
"4X c #C9A781",
"5X c #D3AD82",
"6X c #D8AE84",
"7X c #D5B383",
"8X c #DBB583",
"9X c #DCBB84",
"0X c #DBBC8B",
"qX c #D6B888",
"wX c #CEB081",
"eX c #E2BB86",
"rX c #E2BE91",
"tX c #DEC188",
"yX c #DBC395",
"uX c #E3C385",
"iX c #E3C48A",
"pX c #EBC48B",
"aX c #ECCA8B",
"sX c #EAC786",
"dX c #F4CC88",
"fX c #F7D28C",
"gX c #E3C493",
"hX c #EBCB93",
"jX c #E8CA97",
"kX c #F3CD94",
"lX c #EED39A",
"zX c #F8D79A",
"xX c #FFE09E",
"cX c #F3D4A3",
"vX c #FADAA7",
"bX c #F2D6A9",
"nX c #FFE3A4",
"mX c #FFE3AD",
"MX c #FFECAC",
"NX c #FBE6A9",
"BX c #FFE4B2",
"VX c #FFEBB4",
"CX c #FFECBB",
"ZX c #FCE7BA",
"AX c #FFF2B3",
"SX c #FFF3BB",
"DX c #FFF9BD",
"FX c #EEE0B3",
"GX c #FFF5C3",
"HX c #FFFAC6",
/* pixels */
"..-.T *.w.[ *.*.T *.%.,.e.=.=.=.-.%.*.=.=.=.=.&.=.u.5.p.i.<.&.-.o.o./ &.=.=.-.o.%.%.T [ ' T ..U I o.U U T R T T T *.T T T *.' T ",
"f.a.a.a.z.x.j.a.x.a.u.J.I.I.d.d.f.d.k.'.'.'.I.J.J.W.[.[.}.}.W.p.W.W.i.J.|.'.p.J.d.d.k.k.k.a.a.a.p.i.u.9.*.*.9.9.a.a.k.a.a.a.k.s.",
"k.k.k.a.a.j.a.a.9.u.u.i.'.'.d.a.a.d.k.I.I.I.I.'.'.[.$X7X$X}.J.J.W.J.W.[.oX|.W.'.I.k.'.'.k.d.k.I.I.d.'.k.9.' T T %.=.t.t.a.f.s.s.",
"k.k.k.j.q.q.q.9.t.u.d.|.vXBX3X'.{.k.U.I.I.{.'.'.}.|.jXVXkX[.}.8XpX}.[.iXBXvX}.'.'.I.'.k.k.U.U.{.}.}.bXBX5Xa.9.9.9.9.8.8.t.k.s.k.",
"z.z.j.y - 6 p y y q 0 2 qXBXv w u q u u w j j j m j i.CXeXV x J.pXP V i.CX0Xx n j j j u q u w w j 2 bXcXq q 9 y y y 9 5 5 8.k.d.",
"k.z.h.% . # r p p 9 0 2 3XBXx j u k L J k J U J P P i.VX8XN x G.eXn V 3.CXeXn S M P L v c G v w x 3 cXjX0 0 1 9 p r , $ o 7.k.a.",
"k.z.h.* . : r d d t y 9 7XBXJ x j J ' U G J U ^ / / J.CXeX! Q Q.iXP / 3.BXgXV ! P U J v L R J w x e cXjX0 q 9 p d t r * @ q.z.k.",
"k.{.l.*   # 6 9 9 - 9 ; k.cXw 3 0 q j u w u j x M x o.vX.XZ n G.qXx n ;.vX[.h n z j w w j u q 2 e ; gX0X- a = 9 9 > , $ X q.{.{.",
"a.2Xl.6 o 7 g E E T *.%.*.e.&.' %.9.9.e.=.<.e.i.3.p.5.4.Q.G.4.%XiXW.J.J.G.5.3.p.<.u.<.*.e.e.9.9.' *.e.=.%.T T T H Y d r 6 t.c.k.",
"x.{.l.t # g q.k.{.{.{.}.'.}.}.}.|.3X5XoXoX|.oXoX8X%X$X$XeXeX-XkXnX%XeXeX%X+XeX8X$XoXoX5X5X3X5X}.5XoX'.'.|.}.'.{.z.q.7.E g j.k.d.",
"U.{.l.6 O 8 Y E E R U U '.oX] &.%.' ] ] &.&.&.<.<.3.!.zX-XN.3.-XkX3.V.%XvXeX3.:.6.;.] ' ] ] ' ' ' ^ |.|.' U E E L H g 9 5 q.{.'.",
"U.{.h.- X : r i u q j u 0XBXP M K U J U K K ^ / ! V G.VXpX~ o.XXhX6.o..XSXeXC S / / K J U K J K P h cXcXv w u 9 p p 6 % @ q.{.k.",
"k.k.t., X < 6 i p k c u qXBX/ M P U K ^ J K ^ ] Q V G.VXpXX.o..XpX6.$.(.GXrXB A / ] K J U K J K V x cXcXv w i y i r : % @ g.2X{.",
"d.{.t., . # 6 y u u u w d.gXP x v v M J J K ^ / &.o.G.zX%Xo.! $XjX&.X.(.vX5X~ O.! U J J J m v x x j qX|.j w q y a 1 = * % q.2X{.",
"a.k.j.9 + f 7.t.u.I.s.I.{.|.|.'.'.'.}.}.|.|.oX7X7X$XqXqXeX%X$XiXzX=X$XqX0XqXqXoX7XoX}.}.}.{.'.I.J.}.'.{.{.k.d.a.a.w.R d a h.2XU.",
"a.x.x.t # f q.k.d.I.I.OX0XqX|.}.|.5X|.7X|.oXoX$X%XqXaXvXlXuX&XjXzXqXuXjXvXjXqX8X$X$X|.oX5X|.|.|.}.}.7XqX|.I.I.d.k.q.T H d j.{.k.",
"d.c.l., X : a j j m j e |.NX/ n ^ M n N Q Q O.O.@.6.Q.VXnX4.@.`.sX6.3.aXHX0X@.@.o./ ) Q K m x ^ N Z cXgXj h l j w q r = % q.z.k.",
"d.c.l.6 o , i m K ^ ^ M 7XVX3.;.K.Q A ~ O.:.M.M.B.M.!.AXnXS.M.:XdXZ.S.aXGXtXM.M.M.:.n.+.) Q Q :.n.! NXjXJ N ^ K m k p 6 & q.{.'.",
"k.{.l.6 o 6 F K ^ ] ;.Q 7XVXG.O.K.1.;.) _ N.B.C.H.M.(.AXnX!.D.`.sXS._.kXGXgXV.C.C.N.n.+.) ;.:.1.:.O.NXjX/ / ] ^ K v p 6 & q.{.I.",
"'.{.l.5 X , k I ] ,./ P 7XBXP./ 1.1.:.~ O.:.C.^.^.V.+XAXNX.XV._.sXZ._.zXHXgXV.C.R.H.M.` ~ ;.1.1.:.o.BXjXP ^ ;.{ U J i > & q.{.k.",
"{.2Xz.6 o 6 G ' ,.) N N 7XVXP.O.;.Q Q / :.N.).).^.V.+XAXMX+XV.`.sXS.(.zXHXgXR.F._./.B.:./ Q Q _ :.O.BXjXP B Q { / J i 9 = j.4X'.",
"{.2Xz.6 O 6 G ] / N N N oXCXG./ O.Q ) O.N.^.XX^.R.^.&XVXMX&X(.;XfXE.@XzXHXgX(.^.^.).L.N.;.~ A ~ _ O.BXgXP B n ^ ] J i 9 = g.4X'.",
"{.{.z.6 O 6 v ^ ] W Q M [.CXQ.~ / Q ~ O.N.^.XXXX^.@XtXAXMX&X@X:XfX`.#XzXHXjX@X_.(.XX/.N.;./ Q ) O.O.BXgXM N N ) ^ m k 9 = g.3X{.",
"{.{.l.6 O 6 v Q { W N n }.VXP.~ 1.O.:.:.N./.XX:X).@X&XAXVX&X`.;XfX+X&XxXHXgX@X).XXXX/.B.:.;.:.;.+.O.BXgXm N A { Q J G 9 = q.{.'.",
"{.3Xz.6 + 6 v ^ / N B h }.VXQ.S N.1.:.:.N./.XX).(.@X&XAXVXtXE.-XfX`.#XxXHXgX@X`.(.XX/.n.:.n.:.n.O.~ BX0Xh n B / ^ J i 9 = q.{.'.",
"{.3Xz.6 O 6 G ^ / W Q h J.VXH.~ K.O.1.n.:.L.).).@X(.&XAXVX&XR.-XzXR.@XxXDXiX`.).)./.L.n.M.M.O.:.m./ BX0XZ A Q Q / v i 9 = w.a.'.",
"{.{.j.5 O 6 c ^ / ^ W n }.BXH.S m.O.1.N.n.H.XX).XX(.&XMXMX&XR.,XfXR.(.zXDXiX(.).)./.^.n.n.N._ :.~ ~ BX0Xn N Q / P J u 5 = w.d.s.",
"{.2Xz.6 X 6 G K ] / n x }.BXQ.h m.O.:.N.N.N./.).).R.!.zXMX+XD.,XfX_._.zXMX$XE.).).^.H.n.M.:./ 1.A ~ NX0Xn n Q ;.U J y > = q.{.u.",
"{.2Xz.6 . , G ^ ;.] N n }.VX.X~ N.~ :.N.:.B./.).).R.V.+XaX`.D.;XfXD.D.,XuXp.R.(.)./.H.:.n.:./ :.+.:.BX0XM B / ,.^ J y > & q.k.I.",
"{.2Xl.6 X , G J ^ ) m n [.VX.X:.N.~ :.N.:.M.H.).).C.V.uXsXE.Z.;XfXD.D.#XuXW.V.).).L.n.+.N.:./ :.N.N.BX0XN n ) ^ M J p > & h.3X'.",
"{.2Xz.6 X , H h l ] N M [.VX%XO.N.~ O.H.N.` @.^.^.C.S.aXsXR.Z.;XdXD.D.#XkX+XN././.n.` +.H.:.Q 1.B.:.NXtXK n / B 3 J F > & q.3X'.",
"{.c.x.6 X , E J ^ ,.K M '.BX%XN.N.S :.H.:.+.M.^.).Z.R.aXsX(.Z.:XdXC.D.;XkX.XM.).^.N.+.O.H.N.Q ;.N.V.BX0XP m { ) m [ d = & h.{.I.",
"'.{.j.5 . 7 L ,.r.,.m N }.NX%X3.:.) m.H.O.@.C.C.F.C.Z.,XsXE.Z.:X<XD.F.;XaX!.Z.^.C.H.@.` N.N.~ :.:.V.NX0X! n { 1.;.' F = & h.2X'.",
"{.3Xl.6 . , L { :.;.m N }.NX@X:.N.V :.P.+.@.H.C.^.Z.V.sXkX!.Z.:XfXA.D.sXlX!.D.F.L.L.@.$.H.m.S O.B.N.NXiX/ n / :.;.[ F = % q.3X{.",
"{.3Xz.6   7 J ] :.{ m M W.BX@Xo./ Q K.P.O.:.L.L.L.R.`.nXVX+XM.:XdXZ.E.xXAXqX/.^.L.L.N._ K.K.) ) O.N.NXqXP n / 1./ ^ F = % q.2X{.",
"{.2Xz.5   7 L ] m.:.N x i.NXXXS ! / K.H.` n.L.C.^./.#XMXAX#XV.,XfXS.(.nXSXiX(.^.H.L.B.~ N.P.;.Q ~ N.NXoXM N { m./ ^ k = % q.2X{.",
"{.2Xz.6   6 I ;.K.1.Q N J.NX%XO.:./ K.P.O.:.L.C.C._.#XMXAX&XS.;XfXS.`.nXSXiX(.R.H.H.N.` H.P.;.O.:.K.NX7XM N :.K.;.^ k = % q.2X{.",
"{.2Xz.6   6 R :.K.:.A N G.NX@X:.N.O.H./.:.:.H.H.^.(.#XMXAX&XS.,XfXS.`.nXDXiX(.^.L.C.N.+.H.H.:.m.N.K.NX8XN A ;.K.1.] G = % t.2X{.",
"{.2Xz.6   8 [ :.m.:.Q M G.NXXXO.C.:.H.H.M.M.L.^.D.(.#XMXAX>XE.,XfXE.+XMXAXuX`.D.^.H.N.@.B.P.N.N.:.N.NX7XN W _ m.:.,.H - % h.2X'.",
"{.2Xl.6 . 8 [ ;.:.O.Q N G.NX.X@.C.O.L.^.M.@.^._.^.`.#XMXAXuX_.,XfX*X*XnXDXuX@X_._.^.n.:.L.L.:.N.N.N.NX8XN Q _ O.;.,.L - % t.{.'.",
"k.2Xj.6   8 [ ;._ O.N N G.NX@XO.N.:.H.H.:.+.L.).^.@X&XMXSXuX#X,XfX&X&XnXDXiX@X).^.).@.n.N.P.:.n.:.G.NX7XP N ~ ;._ ;.L > & q.{.'.",
"k.{.z.6 . 8 T :.1._ B V p.NX@X@.N.:.N.N.:.n.).).).(.>XMXVXiX&XsXfX&XuXnXSXiX.X^.).).M.@.N.K.:.:.M.N.NX8XN B ) 1.;.;.E - & q.k.s.",
"k.{.c.5 . 8 R ,.m.{ N N p.MX%XX.N.O.:.m.N.C./.).(.(.+XMXAXiX-XsXfX#XuXnXSXiX(.^.^.^.H.M.N.:.O.:.+.N.BX$XV N W m.;.] H - = 9.j.a.",
"k.{.z.5 . , E ;.T./ l M p.VX@XD O.~ :.N.N.N.L.C.R.(.+XMXSXqX@X,XkX`.#XnXDXiX_.^.C.L.C.M.N.:./ / ~ 3.BX7XM x W T.;.' i = & 8.k.k.",
"d.{.j.6 . , G ] ,.^ x M d.VX.XV / / 1.N.:.M.H.C.V.R.*XMXVX&X`.;XaX`.+XnXSXuX(.C.C.H.N.:.N.N.o./ ~ 6.vX0XM l K <.] U y , % q.{.{.",
"e.k.j.7   , G / ] m v v i.VX.XV / Q 1.K.:.@.N.H.V.R.!.MXAX$X(.,XkX`.+XnXSXtX(.C.C.B.:.:.K.N./ o.~ 6.BX7Xv m m ^ / L p = % h.{.{.",
"d.I.j.,   : y l v j w w u.NXQ.4 M x P &.Q V ! O.O.3.W.MXVXW.4.@XaXV.~.vXSXqX4.:.O.~ N Q / / m M h o.BXwXj h w x j u 9 % % t.3X{.",
"d.k.j.t # f w.s.d.s.I.}.7XgX.XQ..X}.OXoXOX.XoX.X%X&XiXNXnXiXeXkXxXuXuXzXBXjXqX%X.XoX.XOXoXoX}.OXQ..XgX0X}.I.s.s.s.9.} Y d j.{.{.",
"f.v.j.r & g h.k.f.}.}.5X5XoX$X$X|.$X8XeXeX8XeXeXeXiXuXtXuXiXuXkXzXtXuXuXuXuXuXiXeXqX8XeX8X7X7X|.oX%X5X8X7X|.|.'.d.z.} Y d g.c.k.",
"v.v.t., O , p G H H P U r.|.-.I o./ ] ,.;.&.<.i.G.4.!.aX&XS.~.uXzX~.~.+XaX&XR.V.4.3.6.<.,.&.' o.o.o.|.I.U U J H H k t , - q.c.'.",
"'.{.j., . # > r 9 y 0 3 |.BXo.Z m x n B n m Q ~ S V Q.VX,X .$.@XaX6.@.Q.SXiXS D D Q n n N M n n B z vXjXw 0 j a a > * % $ 8.{.v.",
"k.{.l., . : t G d G J m 0XBX3./ ] &./ o.^ ^ 1.:.O.~ oXSXsXM.C.-XfXV.C.XXGXjX$. .:.1./ ^ ] { / / _ Q vXcXU J G G G p 9 : % q. X'.",
"k.{.z.5 . & t i y q j e 5XBX/ x P P M P K J / _ ~ S }.SXpX@.@.-XkX3.@..XSXjXD $._ / K J ^ K N Q S z cXlXm j w q u p r % @ q.2Xc.",
"a.c.l.6 O 8 Y E T T ' ' '.0X<.*.e.,.,.,.e.e.r.K.H.G.%XzXsX(.Q.pXzX}./.-XvXpXV.G.K.i.<.,.r.,.,.<.6.6.8X7X-./ T T T E H p 9 q.{.{.",
"k.{.z.r # g g.k.{.{.}.|.|.oX|.5X5X5X6X5XoX7X8X8X%X-X&X-X-XuXuXlXvXiXpX-X-X#X-XqX8X8X7X5X6X6X7XoXoX.XoXoXoXoX}.{.k.a.| R H a.{.I.",
"k.z.j.5 + 8 Y T *.*.9.u.=.u.i.<.a.s.J.J.i.i.J.W.Q.Q.4.~.(.!.!.aXlX[..X(.E.4.!.W.J.J.J.J.J.J.J.i.5.3.i.<.e.<.*.*.' E G y t q.{.I.",
"s.k.h.*   # , 9 9 1 0 - u.jXv 3 j w j l Z x n n V B <.zXXXD C (.pX! D N.zX$XZ S Z n n l l l j j h 3 iX7X2 0 2 0 0 9 > % @ 8.2XU.",
"I.U.j.*   : r F F 9 a 0 |.BXP j l G K K M P ! P / / }.CXeXD ! !.sXD ~ G.CXgX~ ~ S Q K m K I v j n 4 cXgXe h 2 y k a 9 @ . 8.c.k.",
"U.{.t.- X * t p u a u w 7XCX%.j j v U P v v P / &.-.wXCXiX@.5..XaX5.V.[.CXjX3.:.O.&./ U ' *.U H P U vXcX/ J H E E E H p s 8.x.a.",
"I.k.v.t.7.q.t.t.k.s.'.7XvXCXqX'.}.}.oX|.|.|.5X$XqXtXbXGXzXeX&XpXlX&X-XjXGXBXiXeX8X8X7X5X5X5X7X7X8X0XBXCXpXoX{.'.{.'.v.v.v.d.d.d.",
"k.k.k.x.a.f.f.y.u.i.J..X$X7X}.I.d.J.}.}.}.}.OXoX$XtXgXgXqX+X(.@X.X!.(.%XiXtX$X+X.X}.}.}.}.Y.'.'.'.'.|.'.p.5.-.&.=.5.d.d.u.d.d.s.",
"a.u.u.y.t.f. XtXlXcXpX.Xp.J.s.u.u.u.i.i.d.J.J.oXgXvXNXNXjX.XQ./..XQ.Q.pXNXNXvXgXoX'.d.J.K.3.i.p.u.u.i.p.$XlXvXjXqX[.p.=.=.=.<.=.",
"%.&.u.|.yXbXBXVXvXpX[.G.G.d.<.9.y.u.i.i.i.W.8XcXSXHXGXSXjX[.Q.(.!.R..XjXCXGXGXVXlXqXd.p.J.d.u.u.i.i.u.u.p.$XjXNXVXvXlXqXb.=.%.' ",
"oXgXcXBXCXBXcX7XJ.u.<.3.i.i.u.u.a.u.i.p.}.iXcXVXCXSXZXFXtX[.G.!.Q.R.Q.gXFXZXCXCXVXlXqXW.i.i.d.a.i.s.u.<.<.-.%.d.qXlXNXNXbXjX0X|."
};
