/* XPM */
static char *wall_random_5_64[] = {
/* columns rows colors chars-per-pixel */
"64 64 197 2 ",
"   c black",
".  c #000C11",
"X  c #1E1915",
"o  c #270000",
"O  c #381800",
"+  c #3E240C",
"@  c #32261C",
"#  c #3B2B1D",
"$  c #3D2E21",
"%  c #4E2902",
"&  c #532E09",
"*  c #5A3406",
"=  c #462F19",
"-  c #593719",
";  c #643D16",
":  c #433122",
">  c #4A3522",
",  c #4C3A2A",
"<  c #563C27",
"1  c #6A411A",
"2  c #72471F",
"3  c #5D432B",
"4  c #6A4522",
"5  c #63462C",
"6  c #6D4A2B",
"7  c #744A22",
"8  c #7A4F27",
"9  c #714B2A",
"0  c #7A532E",
"q  c #634730",
"w  c #664A31",
"e  c #6B4C32",
"r  c #704F32",
"t  c #6D533A",
"y  c #745235",
"u  c #7E5836",
"i  c #7B5638",
"p  c #73583F",
"a  c #7D5A3B",
"s  c #6A5E4C",
"d  c #7A5E43",
"f  c #7A634A",
"g  c #7D6349",
"h  c #7B6651",
"j  c #776957",
"k  c #975B1D",
"l  c #85572D",
"z  c #915B28",
"x  c #825A36",
"c  c #895C33",
"v  c #8B5F39",
"b  c #9B632E",
"n  c #86613F",
"m  c #8B623E",
"M  c #976438",
"N  c #9B693D",
"B  c #AA6F37",
"V  c #815F40",
"C  c #856242",
"Z  c #8E6845",
"A  c #866A4E",
"S  c #936742",
"D  c #9B6D45",
"F  c #946E4A",
"G  c #9A6E49",
"H  c #9D7046",
"J  c #96714C",
"K  c #9C724B",
"L  c #856D51",
"P  c #886E53",
"I  c #8C7155",
"U  c #89745A",
"Y  c #947454",
"T  c #9C7652",
"R  c #987755",
"E  c #927A5D",
"W  c #9B7C5D",
"Q  c #A16E41",
"!  c #A47145",
"~  c #AD7643",
"^  c #A9764B",
"/  c #A6784E",
"(  c #AB794D",
")  c #B17947",
"_  c #B17C4F",
"`  c #A07650",
"'  c #A47A52",
"]  c #A37E5A",
"[  c #B17E52",
"{  c #8B7962",
"}  c #957E63",
"|  c #9C7F61",
" . c #9C815F",
".. c #B9824E",
"X. c #AD8156",
"o. c #A4845C",
"O. c #B48255",
"+. c #BA8554",
"@. c #BD8857",
"#. c #B88659",
"$. c #B6885C",
"%. c #BA895C",
"&. c #978166",
"*. c #95836A",
"=. c #9E896D",
"-. c #9C8C73",
";. c #A98663",
":. c #AC8965",
">. c #A28769",
",. c #A48A6C",
"<. c #AA8C6B",
"1. c #B38962",
"2. c #BD8E60",
"3. c #B28C68",
"4. c #AE906C",
"5. c #BE9164",
"6. c #B3936D",
"7. c #BB926D",
"8. c #A38D72",
"9. c #A98F71",
"0. c #A69175",
"q. c #AC9374",
"w. c #A69378",
"e. c #AA967A",
"r. c #AD9A7E",
"t. c #B39672",
"y. c #B49675",
"u. c #B59976",
"i. c #BB9A76",
"p. c #B49C7D",
"a. c #BB9E7A",
"s. c #BDA17D",
"d. c #C28E5E",
"f. c #C7915E",
"g. c #C39464",
"h. c #CA9563",
"j. c #C4976A",
"k. c #C69969",
"l. c #C99B6D",
"z. c #C19A73",
"x. c #CA9E72",
"c. c #C19E78",
"v. c #CCA073",
"b. c #C1A37F",
"n. c #D4A97A",
"m. c #AE9C81",
"M. c #B19E82",
"N. c #B99F82",
"B. c #B4A186",
"V. c #BDA483",
"C. c #BFA887",
"Z. c #B5A48A",
"A. c #BAA68A",
"S. c #BCA98C",
"D. c #BCAC93",
"F. c #BEB097",
"G. c #C2A683",
"H. c #C4A986",
"J. c #CAAA84",
"K. c #C2A788",
"L. c #C5AC8B",
"P. c #CAAE8B",
"I. c #D2AC83",
"U. c #CCB18E",
"Y. c #D2B28E",
"T. c #C3AE91",
"R. c #C4B193",
"E. c #CDB493",
"W. c #C7B599",
"Q. c #CDBA9B",
"!. c #D1B693",
"~. c #D8BC97",
"^. c #DABE9A",
"/. c #E0BC96",
"(. c #D2BEA1",
"). c #D7C09E",
"_. c #DCC19E",
"`. c #E1C29D",
"'. c #D5C1A3",
"]. c #DDC5A2",
"[. c #DEC8A7",
"{. c #DBC8AA",
"}. c #E1C6A3",
"|. c #E2C9A6",
" X c #E5CDA9",
".X c #E7CFAC",
"XX c #E9CFAC",
"oX c #E7D0AE",
"OX c #E9D1AE",
"+X c #E7D1B1",
"@X c #EED8B7",
"#X c #ECD7B8",
"$X c #EED9B9",
"%X c #F0D7B4",
"&X c #F1D9B6",
"*X c #F8DFBE",
"=X c #F6E2C2",
/* pixels */
"4.6.6.6.6.6.t.6.6.u.t.t.t.u.s.u.H.}.]._._.|..X|.].].|..XXX.X.X!.u.U.U.P.P.P.L.H.a.6.4.<.4.t.o.:.;.q.,.q.b.s.s.G.P.P.P.H.G.b.G.s.",
"6._.|.|.|.|.|.}.oX*X@X@X@X+X*X.X^.*X%XOXXX+X*X+XOX.X&X*X*X+X*X.X_.*X&X&X+X&X*X*X+XXX|.XXOXXXOX~.V.%XXXXXOXOXOXOX%X%X%X+X+XOX&X.X",
"t..X.X}.|._.^.~.]..X+X+XOX+X*X].~.XX}.|.}..X+X.X.X|.|.|.|..X+X.X~.XX|..X|.|.OX+XXX.X.X|..X|.&X'.a.OX.X^.~.~._.XX|.|.}.].|.|.+X].",
"V.OX}.|.].^.~.~.~.~.|.]..X+X@X].E.OX}.}.}.}.OX.X|.}.|..X].|.@X.X~.+X.X.X.XOX+XOXOX.X|..XXX.X+X~.p.XX_.~.^.~.^.|..X].^.^.}.|.+X].",
"s.oX_.].]._.^._.~.~.~..X@X+X*X.X!.OX}..X}.}.|.}.|.}.].~.J.z.i.i.c.!.]..X.X+XOX.XOXXX|.|..XOX+X~.u.}.^._._.~.^._.}.^.^._.}.|.XX|.",
"i..X_.~.]._.~._.]._._.oX+X@X*X].E.OX}.]..X}.}..X}.G.] ( ( ( ^ ( [ O.O.7.!.+X+X.X.X|..X}..X+X+X~.u.}.~.~.!.~._._._._._.}..X|.OX|.",
"a.|..X_.^.^._..XoX+X.X|.|..X|.!.U.|.|.~._.|.|..XI.f.g.%.%.O.O.O.^ ' ^ [ h.`.+XXX|.}.|.|..X+X+X~.t.|.~.^._.}.}.|..X.X.X.X.X.X+X.X",
"s..X.X|.^._..X+XoXoXoXOX+X$X.X^.~.|..X|.^..X.X.Xz.( ' ^ ( ( [ +.O.( ( g.l./.+X+XOX.X|.}.|..XOX~.p.|.^.^._.].|.}.].|.|..X.X.X+X.X",
"s.|.].|.}..X+X+X+X+X+X+X$X+X.X].~..X}.|.|..X.X.X<.M ^ ( ( _ [ +.d.h.h.h.h.J.Q.~.~.]..X.X|.|.OX~.V.}._._.~._.|.}._.}.|.|..X.XOX|.",
"s.OX].$X+X|.OX@X$X*X$X$X+XoXOX~.E..X}.|.}.|..X.X<.v S N ^ O.5.5.%.%.d.g.h.i.m.m.e.M.A.E.]..XOX~.L.|.}.].~._.|.}.]._._..X.X.X+X|.",
"H.OX_.+X+X|.OX+X$X*X+X$X.X.X+X].P..X}.}.].|.|.|.<.l ;.E.!.~.+X].E p.q.R +.t.Z.M.r.M.M.e.A..XOX~.E.|._.^._..X|.|.}.].].|.|.|.OX].",
"G..X].+X+X_.oX+X+X+X+X+X[.].+X].U.|.^.|..X|.|.|.~.m K.+X.X.X&XE.U A.Z.A R M.B.M.M.M.M.M.Z..XOX~.!..X}.}.|.|._.].}.].].}.}._.OX|.",
"L.|.].+XoX~.].+X+X#X$X+X.X.X.X].~.|._.|.|.|.}.|.].F a..X].]._.0.E m.m.A | B.m.r.r.m.M.e.L..X.X~.!..X_.}._._.~.^.|.].].]._.^.+X|.",
"L.+X.X*X+X~.].+X+X+X+X$X$X+X.X~.~.|.].|.}.}.|..X].Z V.+X.X|.^.=.&.~.'.I <.].~.E.E.B.e.e.).|..X~.E.|.}.+X|.^.^.~._.}..X_.^.~..X].",
"U.*X&X*X$X+X+X+X+X*X*X*X$X+XOX~.~.&XOXOX|..X.XOX|.d p.~.p.t.,.L U E.].L q.%XOXOX|.M.T.].XX.XOX].~.+X|.OX+X|.|.|..XXXXX.X}.|.+X|.",
"L..X]..XoX+X.X.X.X+X+X.X.X[..X~.a.!.U.E.~.!.!.E.H.p p w ; 9 0 x y - p 3 &.^.!.^.V.=.~.}.^.~.].E.G.}._._._._._.^._.^.^.^.~.].}.E.",
"4.H.P.E.E.~.~.~.~.~.~.!.U.P.!.V.V.~.U.U.~.~.~.).:.- i ( ^ ^ ' ^ ^ ^ M 5 5 R t.q.P ,.L.L.H.V.P.s.u.E.E.E.E.L.P.a.6.i.a.b.a.i.6.t.",
"P.+X*X*X.XXX+X+X+X@X+X+X+XXX+X].].*X.X}.}.}._.+Xq.1 V D D D D D D G D n i ,.R.D.Z..XOX.X.X+X*X.X~.*X+X*X*X*X*XOX.X+X+X+X+X|.XX|.",
"H.OXOX.X}.|.|..XXXOX+X.XOXXXXX].~.+X|.|.|..X~.|.=.% w 3 w w q w e e e p 5 =.B.e.V.|..X.X.X.X+X].~.+X+X.XXX+X+X+X+X$XOX+X*XOX+X.X",
"V.+X.X.X.X.X|.|.|.|.+X+X.XOX+X].~.+X.XOXoX+X.X~.} O , > > : : = # # # # O *.Z.m.Z..X.X.X.X.X+X].~.*XOX.X.X+X+X+X@XOXoX+X+XOX+X+X",
"L.+X|.].].}.|.|.|..XM.,.9.,.8.&.E 8.=.,.9.9.,.;.C y y y a V V C C d t p p I } Y E ,.,.q.q.q.q.,.>.q.<.9.=.Q.*X+X$X+X@X$X+X+X+X.X",
"L.+X|.}.}.}.|..X.X.XX.b Q M M D D N N N N M M D ^ ^ ^ ^ ^ / ' O.%.g.k.l.l.l.k.g.g.g.v.n.n.n.n.n.v.n.v.v.g.Y.+X$X*X*X*X*X$X$X+X].",
"G.+XOX.X.X.XXX.XOX+X6.' O.O.$.$.O.O.O.O.O.[ ' ' ( ^ ( ' ( ' ' ( ' X.O.%.%.2.g.g.g.g.k.l.x.x.x.j.j.l.l.l.5.!.*X*X*X*X*X+XoX+XOX].",
"H.+XOX.X.XXXXXOX+XOXz.g.g.g.g.2.%.O.O.O.O.[ [ O.O.[ [ O.O.O.#.%.%.%.2.5.g.k.g.g.g.5.2.%.%.O.^ ' %.g.k.k.d.P.].].{.].]..XOXOX+X.X",
"L.+X+XOXOXOXXXXX+XoX:.^ X.X.X.' ' ^ ^ ^ ' ` K ^ ^ K ^ ^ K K K ^ ^ H K K S Z S S ^ ^ ^ ' ' ' K O.$.1.O.$.X.,.m.M.m.m.r.~.oX.X$X+X",
"!.+X.X+X+X+XOXXXXX+XL o 6 G F J K J J J J J J K K J F F F F Z Z Z Z Z J R K F J Z C F K R ] ] ' R ' J - % } A.Z.B.B.r.E.|.|.@X#X",
"~.+X].+XOXOX+XOX.X+XM.{ W [ O.O.O.O.O.[ O.O.O.#.O.O.O.' ' X.' ( ^ ^ K ^ ' ' / ' F a F K K ' X.X.O.%.O.h h 8.A.Z.B.M.r.E.|..X+X+X",
"E.+X.X+X.X.XOXOX.X.X+X*X^.%.5.2.%.%.%.O.O.O.$.%.2.2.%.' / ^ ^ ^ K G K G S S D H K D S Z m x m S D D K M.Z.Z.B.M.M.B.r.Q.OX+X*X+X",
"~.+X+XoX|..X|..X.X|.|.&X~.( X.O.O.O.O.O.#.%.d.%.%.O.O.' / ^ ^ ' O.$.%.%.O.O.$.%.%.O.O.[ ' ' ^ ^ ( +.O.B.Z.B.M.M.M.r.r.].OXXX$X+X",
"].+X.X|.|..X|..X.X.X].M.} i a a x a i a x x x i y y a a a x x n C Z Z Z x x V a a a a x p e e w e a Z { -.Z.M.M.B.E.~.|..X+X+X.X",
"~.+XOXOX+X+XOX*X&X*X+XK c Z Z C Z Z Z Z C Z Z C n x a a x a x C x x y e e a a x a a x x Z C x x x Z Z l >.B.0.0.0.~.XX.XOX.X|.^.",
"6.E.].].].~._._.~.~.~.] ! ^ / ' ' O.%.%.2.2.%.O.O.O.X.' ^ K G F S S F S S S S Z Z Z n C Z S Z S D D K / ;.&.E E } a.P.~.E.L.G.b.",
"a.H.U.E.E.U.E.H.6.4.s.O.O.O.O.O.O.' / ( ' / D S S S S S Z Z Z m m Z Z Z Z Z Z Z S S S S S S F S S S S S A L L L L >.t.b.a.s.G.t.",
"].+XoX+X.X+X+XOX.XXX.X1.^ ' ' X.' ' ' ' ' ' K S Z x a x F K K ' X.X.X.' K K S S K ^ ^ ^ ^ ^ ' K Z S S m W r.r.e.=.&.p.^.!.P.U.U.",
"~.+X.X.X.X|..X.X.X.X].Z 7 x x m x u x x i i 0 9 6 6 9 6 9 0 y y i y e 6 i y u x i x u x m x 0 u x y i 0 W M.r.m.r.8.V.U.P.P.~.].",
"L.+X.XoX.X.XoXoX.X.X].>.W ] R a v F L A L A I L g g h h h h h d p g d g d g C A Z A I R E I L g x Z A F &.e.q.e.e.0.L.~.~.]..X].",
"H.XX.XOX.XOXoX.X.X.X.X.X|.]._.g l p.D.B.B.m.D.D.B.D.D.F.W.D.D.w.=.A.Z.B.r.e.,.=.8.m.Z.B.Z.Z.D.*.7 ' r.e.r.e.q.q.e.e.L.|.]..XOX.X",
"L.OX.X.X.X+X+X.X.XXX.X]._..X.XR M e.Z.M.r.r.Z.Z.m.Z.Z.Z.Z.Z.Z.8.} m.m.M.Z.r.0.e.e.r.m.r.e.m.Z.=.c ' 0.e.r.r.e.e.r.e.~.OXOX+X+X.X",
"L.+X.X.X.X+XoX.X.XoX.X]._.+X+X] b L.Q.M.r.p.'.Q.t.L.'.'.{.'.'.T.V.(.Q.W.V.V.L.L.L.E.Q.Q.Q.W.(.N.z 1.E.B.e.e.A.L.L.E..X|.}..XXX.X",
"C.OX.X|.|..X.X.X.X.X].}._.|.$X;.b ].[.m.m.Q.=X$Xn.l.t.P.~..X.X~.P.^.Y.n.g.!.OXOX.X+X*X*X*X+X*X!.k 6..XT.e.p..X|._.|..X.X|.|.XX.X",
"V..X}..X.X.X.X.X.X+XOX.X|.OX$X;.) ~.R.m.D.+X=X$Xx.+.( ( ^ ^ ^ ^ ' _ ( O.^ L.+X.X.X+X+X#X+X.X@XE.B z.~.Z.e.E..X]._..X.X.X|.}.OX.X",
"V..X]..XoX.X.X|.OX$X+X.X.X.X|.X.+.E.D.B.~..X+X*Xz...g.g.d.%.+.O.O.O./ S 7 A.+X.X.XOXoX+X+X.X@XE.B v.S.r.p._.|.]..XOX.X.X|.|.+X].",
"q..X.X.X.X.X.X.X+X@X.X.X.X|._.1.+.L.Z.T..X|.+X=X7.~ O.+.+.[ _ _ ( ^ ! G l e.*XOX.X+X+X+X.X|.$X(.B z.m.0.~.OX.X|.|.|.]..XOX|.+X_.",
"<..X.X.X|..X|..X.X+X+X.X.X|.].1.~ p.D.].*X+XoX@X<.! @.+.O.[ ( [ [ ^ S Z - =.+X.X].].~.R.A.[.=X(.b :.e.V._.|..XoX}.]._.]..X|.+X].",
"t.+X.X].|.|.}.}.}.OXOX|.].}.|.<.R e.W.+X+XXX.X+X8.2 S ! ( O.[ ' D x e y + j S.B.B.m.m.m.S..X*X~.m ,.e.~.}..XOX*X.X].}.}.|.OX+X].",
"V.OX].|..X.X|.].}..X.X|.].]..XY.J.M.].oX.X.X.X+Xq.; : X : < e r , : . w + j M.r.M.B.B.r.~.OX+X].n.p.L..X.X.X}..XoX|.|..X.XOX+X[.",
"].+X.XoX+X*X$XoX+X+XoXoX.X|.OX8.p .X&X@X+X+XOX@Xq.7 , X > , : @ @ # : y = j Z.M.Z.A.B.T.OX+X*X(.* p.+X+X.X.X.X.X.XOX+X+XOX+X+X.X",
"G.].~.~.~.~.~.E.H.H.H.G.J.G.P.W y V.E.L.L.L.G.b.R x $ $ w w w w e w 5 x - s 0.,.w.w.e.L.L.P.P.p.1 ,.P.G.!.].].].].]..X.X}.].].E.",
"a.U.P.P.H.G.H.G.G.s.s.s.b.a.s.i.a.~.~.~.!.~.!.U.W i w x x x i i a i y a < h 8.=.=.8.H.s.q.t.a.t.R t.s.a.P.~.~.~.~.!.!.!.~.~.~.U.",
"_.OX|..XXXXX+X+X+X.X.X.X.X.X+X^.V.&XOX.X|.|..X.X3.9 Z O.O.[ [ [ [ O.O.a x } Z.Z.m.~.+X.X+XoX*X].>.OXXX.X.XXX.X|.|.|.}.].].}.+XoX",
")..X|.|.]..XXX.X|..X}._.|..X+X~.t..X.X.X|.}.|.].;.v V S G ^ ^ ^ G ^ ' ^ S U m.r.M.]..X.X.X.X+X].V.OXXX.X^.^._._.]._._.~.Y._.OX|.",
"].+X.X.X]..XOX|.|.|.|.].].oXOX~.,..X.X.X|.|.|.|.] N N m S D G S S Z S ^ 9 h M.w.r._..X+X.X.X+X).L.+X+XOX}._._._._.^.^.~.!..X+X.X",
"_.oX.X.X|..X+XoX|.].].|.]..X+X~.p.OX|.|.|..X|.|.E 4 W ` ^ ( ^ ^ ! S F C 4 U M.8.p.].|.+X+X.X.X'.L.+X.X.X].|.].}.^.^.~.!.~..X+X.X",
"]..X|..X.X|..X.X.X].].].].|.OX~.s.OX}.|.|..X.X|.W ; m.M.9.<.>.| | e.m.Y 8 *.M.w.~.|..X+XOX+X+X].L.+X|.].}..X}.]._.^.~.~.~.~.|..X",
"].+X.X.X.X|.|..X.X].|.].]._.OX~.p.OX|.|.|..X.X.X| * -.M.L.~.E.Z.e.A.B.E 7 *.r.V.|..X.X+X+X+X+X].U.XX|.XX.X.X].}.}.^.~.~.^.!.]..X",
"~.OX.X.XoX.X|..X|.].|.|.].].OX~.q..X.X|.].|..X.X&.; -.B.~._.XX].E.}.].<.8 *.r.~.|..X.X.X+X.XoX).~.OX|..X.X.X].~.^._.~.!.^.~._..X",
"~..X|.|..X|..X.X].].|.|.|.|..X~.,..X.X|.}.|.|.|.&.4 *.Q..X]..X].U.OX.X,.1 { S.].]..X.X.X.X}.|.~.~.*XOXXX.X}.}._.~._.~.^.|..XOX|.",
"~..X|.|.|.|..X.X].}.|.]..X.X.X~.&..X|.}.}.|.].].W & M..X.X.X+X].U.OX.X>.* 0.].}.]..X].|..X]..X].!.*X+XXX}.].}..X^.~.^..XOXOX+X.X",
"~..X.X.X.X|.|.|.|.].].].|.|..X!. .|..X].}.|.|.|.I   R.+X.X|.+X].~..XOX}   S.OX].].].|..X.X.X+X].~.+XXX.X|._.^.}._._..XOXOX.X+X.X",
"E.OX|..X.X.X|.].].].].^.].}..X!.t.XX].].]..X.XoXE.B.~.|.}.}.OX].~..X.XT.e.~..X}.}.]..X.XOX.X+X].E.*X+X|.}.].^.|.XX|..XOX+X+X*X.X",
"~.+X|.|..X.X|.].]._.].}.}.]..X!.4.OX|..X.XoXOX+XOXXX]._.]..X+X].~.OX|.oXOX.X|.}.}.|..XOX+X.X+X].P.*X+X.X}..X]..X*X|.|.OX+X+X*X.X",
"E.OX|.}.|.|.].].].~._.|.]._.|.!.q..X|..XOXoX.X+X|..X.X|.|..XOX~.~..X|.].].].|.|.|.}..X.X+X.X.X'.L.+X}..X.X]._.}.+X|.|.OX+X+X+X.X",
"!.+XOX+X.X.X.X.X.X}..X.X.X|.OX~.H.*XXX+X+X+X+X+X+X+X&X+X+X+X+X].~.+XOX.X.XXX.X.X.X.XOX+X+X+X*X].V.&X.X+XOX.X.XOX*X.X|.+X+X+X*XOX",
"i.U.J.U.P.G.H.L.G.H.L.L.L.P.U.G.<.H.G.V.G.H.G.V.V.V.V.G.L.P.L.p.a.~.~.!.E.U.E.~.E.E.L.L.P.E.H.u.&.E.~.~.~.~.~._.].^.~.~.~.~.].E."
};
