/* XPM */
static char *wall_random_3_64[] = {
/* columns rows colors chars-per-pixel */
"64 64 214 2 ",
"   c black",
".  c #0A0000",
"X  c #150402",
"o  c #10100D",
"O  c #0E1515",
"+  c #1A1A17",
"@  c #290500",
"#  c #2F0B05",
"$  c #321C07",
"%  c #38220E",
"&  c #2D231B",
"*  c #352618",
"=  c #3C2B1D",
"-  c #2C2922",
";  c #332B23",
":  c #3B2D21",
">  c #39332A",
",  c #4E0A00",
"<  c #432A15",
"1  c #47321F",
"2  c #48311B",
"3  c #54361C",
"4  c #673B07",
"5  c #643F1D",
"6  c #443323",
"7  c #483727",
"8  c #453A2E",
"9  c #4E3B2A",
"0  c #543B25",
"q  c #563D26",
"w  c #613F24",
"e  c #6C431A",
"r  c #74481C",
"t  c #584128",
"y  c #5C422B",
"u  c #584737",
"i  c #55493A",
"p  c #694626",
"a  c #62462C",
"s  c #66492F",
"d  c #6B4B2D",
"f  c #734D2A",
"g  c #7C532C",
"h  c #644A32",
"j  c #6B4D33",
"k  c #624D39",
"l  c #704E32",
"z  c #6E5036",
"x  c #6C533A",
"c  c #745335",
"v  c #755639",
"b  c #795639",
"n  c #79583B",
"m  c #504B40",
"M  c #5E5243",
"N  c #665846",
"B  c #735C43",
"V  c #745C45",
"C  c #77614A",
"Z  c #7B654F",
"A  c #6F6352",
"S  c #7A6853",
"D  c #83521F",
"F  c #885726",
"G  c #845A34",
"H  c #8A5E37",
"J  c #835E3D",
"K  c #905F37",
"L  c #85603F",
"P  c #8B623D",
"I  c #97663B",
"U  c #92643C",
"Y  c #9A693D",
"T  c #835F40",
"R  c #866241",
"E  c #8C6542",
"W  c #8E6844",
"Q  c #876B4D",
"!  c #916643",
"~  c #946A45",
"^  c #9B6D45",
"/  c #946D49",
"(  c #9A6E48",
")  c #9A7149",
"_  c #9C724B",
"`  c #826C54",
"'  c #8B6F53",
"]  c #816F59",
"[  c #8B7357",
"{  c #85725B",
"}  c #8C755B",
"|  c #967352",
" . c #9B7553",
".. c #93785B",
"X. c #9B7B5B",
"o. c #A26E42",
"O. c #A57146",
"+. c #AA7444",
"@. c #AA774B",
"#. c #A5784E",
"$. c #AC794E",
"%. c #B27C4E",
"&. c #B87F4A",
"*. c #A57A51",
"=. c #A47A54",
"-. c #AB7C52",
";. c #B27E52",
":. c #8C7A63",
">. c #8E7F69",
",. c #947D62",
"<. c #987E63",
"1. c #9C815F",
"2. c #B7804F",
"3. c #AE8056",
"4. c #A4845C",
"5. c #B98556",
"6. c #B4855B",
"7. c #B98659",
"8. c #BC8A5C",
"9. c #978065",
"0. c #9C8364",
"q. c #95826B",
"w. c #9B856A",
"e. c #9E896D",
"r. c #958771",
"t. c #9E8B73",
"y. c #A48362",
"u. c #AA8864",
"i. c #A1876A",
"p. c #A38A6B",
"a. c #AB8D6A",
"s. c #B38B64",
"d. c #BA8D63",
"f. c #AD916D",
"g. c #B3946E",
"h. c #BC9169",
"j. c #A38D72",
"k. c #A98F72",
"l. c #A69276",
"z. c #AC9374",
"x. c #A59379",
"c. c #AA967B",
"v. c #AD997E",
"b. c #B29672",
"n. c #BA9572",
"m. c #B59976",
"M. c #BA9B76",
"N. c #B49B7C",
"B. c #BA9E7B",
"V. c #BDA17D",
"C. c #C28C5C",
"Z. c #C5905E",
"A. c #C18F61",
"S. c #C49263",
"D. c #C99667",
"F. c #CB9A6B",
"G. c #C19A75",
"H. c #C39B75",
"J. c #C2A27E",
"K. c #CCA47E",
"L. c #D4A374",
"P. c #D7A678",
"I. c #AE9B81",
"U. c #B19E83",
"Y. c #B89F81",
"T. c #B4A185",
"R. c #BDA483",
"E. c #BFA887",
"W. c #B5A389",
"Q. c #BAA68A",
"!. c #B7A88F",
"~. c #BDAA8E",
"^. c #B6A991",
"/. c #BCAC92",
"(. c #C2A683",
"). c #C4A986",
"_. c #C9AA86",
"`. c #C5AC8B",
"'. c #C9AE8C",
"]. c #CCB18E",
"[. c #D0B18D",
"{. c #C2AE91",
"}. c #C5B194",
"|. c #CDB493",
" X c #C7B498",
".X c #CCB698",
"XX c #CDB99C",
"oX c #D1B693",
"OX c #D9BB96",
"+X c #DABE9A",
"@X c #CFBEA2",
"#X c #D4BEA0",
"$X c #D7C09F",
"%X c #DCC19D",
"&X c #D6C1A2",
"*X c #DDC5A2",
"=X c #DFC8A7",
"-X c #DCC7AB",
";X c #DEC9A9",
":X c #E1C6A3",
">X c #E2C9A6",
",X c #E4CBA8",
"<X c #E7CFAC",
"1X c #E9CFAC",
"2X c #E7D0AE",
"3X c #E9D1AE",
"4X c #E1CEB0",
"5X c #E7D1B1",
"6X c #EED8B7",
"7X c #EDD7B8",
"8X c #F0D6B3",
"9X c #F1D9B6",
"0X c #F3DCBB",
"qX c #F6E1C0",
/* pixels */
"f.g.g.g.g.g.b.g.g.m.b.b.b.m.V.m.).:X*X%X*X>X<X>X*X:X>X<X<X<X<XoXm.].|.'.'.'.`.).B.g.f.a.f.b.4.u.y.z.p.z.(.V.V.(.'.'.'.).(.J.(.V.",
"g.%X>X>X>X>X>X:X2X0X7X7X7X5X0X<X+X0X8X3X1X5X0X5X3X<X9X0X0X8X0X<X%X0X9X9X5X9X0X0X5X1X>X1X5X1X3XOXR.8X1X1X3X3X3X3X8X8X8X5X5X3X9X<X",
"b.<X<X:X>X%X+XOX*X<X5X5X5X5X0X*XOX1X:X>X:X<X5X<X<X>X>X>X<X<X5X<XOX3X>X<X>X>X3X5X1X<X<X<X<X>X9X&XB.3X<X+XOXOX%X1X>X>X:X*X>X>X5X*X",
"R.3X:X>X*X+XOXOXOXOX>X*X<X5X7X*X|.3X:X:X:X:X3X<X>X:X>X>X%X>X5X<XOX1X>X<X<X3X5X3X3X<X>X<X1X<X5XOXN.1X%XOXOXOX+X>X<X*X+X+X:X>X5X*X",
"R.2X%X*X*X%X+X%XOXOXOX<X6X5X0X<XoX3X:X<X:X:X>X:X<X:X>X:X%X+X<X=XOX5X<X>X<X5X5X<X3X1X>X>X<X3X5XOXm.:X+X%X%XOX+X%X:X+X+X%X:X>X1X>X",
"M.<X%XOX*X%XOX%X*X%X%X2X5X6X0X*X|.3X:X*X<X:X:X>XoXM.u.6.s.6.G.G.'.3X5X1X<X5X5X<X<X>X<X:X<X5X5XOXm.:XOXOXoXOX%X%X%X%X%X:X<X>X3X>X",
"B.>X<X*X+X+X%X<X5X5X<X>X>X<X>XoX].>X>XOX%X>X<XoXZ.S.8.7.;.$.$.%.7.h.[.<X<X3X5X3X<X:X>X>X<X5X5XOXb.>XOX+X%X:X:X>X<X<X<X<X<X<X5X<X",
"V.<X<X>X+X%X<X5X3X5X5X3X5X6X<X+XOX>X<X>X+X<X<XG.$.5.5.5.5.5.7.-.-.$.+.G.>X1X3X3X<X>X>X:X>X<X3XOXN.>X+X+X%X*X>X:X*X>X>X<X<X<X5X<X",
"V.>X*X>X:X<X5X5X5X5X5X5X6X5X<X*XOX<X>X>X>X<X3Xn.O.;.5.5.5.5.8.7.-.O.S.S.R.<X<X5X1X<X<X<X>X>X3XOXR.:X*X%XOX%X>X:X%X:X>X>X<X<X3X>X",
"V.3X*X6X5X>X3X7X6XqX6X6X5X2X3XOX|.<X:X>X:X>X1Xs.I _ O.$.%.5.5.C.D.S.F.6.q.Q.Q.}.OX>X1X<X>X<X3XOX`.>X:X*XOX%X>X:X*X%X*X<X<X<X5X>X",
").3X%X5X5X>X3X5X6X0X5X6X<X<X5X*X'.<X:X:X*X>X>X]. .' |.OX|.'.'.s.5.C.D.-.:.T.U.v.c.R.OX<X<X<X3XOX|.>X%X+X%X<X>X>X:X*X*X>X>X>X3X*X",
"(.<X*X5X5X%X2X5X5X5X5X5X=X*X5X*X|.>X+X>X<X>X>X1Xy.' 5X1X<X3X&Xx...k.-.O.t.Q.T.T.U.I.c.|.5X<X3XOX|.<X:X:X>X>X%X*X:X*X*X:X:X%X3X>X",
"`.>X*X5X2XOX*X5X5X7X6X5X<X<X<X*XOX>X%X>X>X>X:X>XX.` <X*X:X%XN.e.0.U.J ' U.I.I.U.U.U.c.`.<X<X<XOXoX<X%X:X%X%XOX+X>X*X*X*X%X+X5X>X",
"`.5X<X0X5XOX*X5X5X5X7X6X6X5X<XOXOX>X*X>X:X:X>X<X} Z 5X3X<X%XT.N.B.*Xb j.*X|.T.c.v.v.v.+X>X>X<XOX|.>X:X5X>X+X+XOX%X:X<X%X+XOX<X*X",
"].0X9X0X6X5X5X5X5X0X0X0X6X5X5XOXOX9X3X3X>X<X<X3X} u c.w.,.,.:.p.B.<Xa c.0X5X<X*XT.c..X3X1X<X3X*XOX5X>X3X5X>X>X>X<X1X1X<X:X>X5X>X",
"`.<X*X<X2X5X<X<X<X5X5X<X<X;X<XOXB.oX].|.OXoXOXT.=         . @ X 9 :.2 p.%XoXOXoXj.R.OX*X%XOX*X|.).:X%X%X%X%X%X+X%X+X+X+XOX*X:X|.",
"f.).'.|.|.oXOXOXOXOXOXoX].'.oXV.R.oX].oXOXOX].[ c ' |  ./ b z h 2     h u.b.b.[ w.(.).`.).R.'.V.m.|.|.|.}.`.'.B.g.M.B.J.B.M.g.b.",
"'.5X0X0X1X3X5X5X5X7X5X5X5X3X5X*X*X0X<XoX(.g.s.6.S.S.S.D.S.8.5.6.5._ b < r.#XXXW.<X5X<X<X2X5X0X<XOX0X0X0XqX0X0X3X<X5X5X5X5X>X1X>X",
").3X2X5X%X%X:X<X1X3X5X<X3X<X1X*X%X*Xn.O.Y O.$.O.O.-.-.-.-.-.3.3.6.8.7.-.*.z.v.}.<X>X<X<X<X<X5X*XOX5X+XOXOX<X5X5X5X6X3X5X0X3X5X<X",
"R.5X3XOXD.F.a.*X>X>X3X3X<X<X5X*XX._ ^ O.-.*.*.O.O.( ~ ( O._ _ #.-.*.O.*.*.O.| R.5X3X<X<X<X<X5X*XOX5X5.C.S.y.<X0X7X3X2X5X5X3X5X5X",
"`.5X%X6.;.E { >X>X<X5X3X<X<X5XoXY O._ _ ( ~ ~ ~ E ~ E E / _ / _ _ | ~ E P E P ~ R.*X2X5X3X5X0X;X*X5X-.;.D.O.d.5X0X5X7X0X5X5X5X<X",
"`.5XJ.5.6.3 S <X<X<X<X3X1X<X3X|.I W ~ _ O._ ( / / _ W R E R R L b b b b b J R J f >.}.*X<X5X0X;X*X5XO.o.5.6.+._.0X0XqX0X0X6X5X*X",
"(.3Xh.;.*.$ I.3X1X5X3X<X*X*X5X|.Y _ ^ _ ( ~ ~ ~ E / ~ / _ _ ( ( ~ E E ~ ~ E E E ~ G x.W.~.<X7X*XOX0XoX^ O.3.-.7.5X5X@X}.#X5X5X*X",
"'.<X6.-._ S <X5X5X3X1X{.j.w.R.z.J E L J J b b z h j j h j j c c b v z v b c z c b c Q Q.T.T.*X*XOX0X5X} H ;.;.8.>X XI.T.I.}.5X<X",
"].<X8.;.@.{ <X3X5X3X.Xx.J P H P ~ ~ ~ E E W / ~ E b b b b b v v b b b b L W J n c n p q.Q.U.W.}.*X5X<X] 5 -.5.8.}.T.T.T.U.v.XX5X",
"OX<Xd.*.7.a.<X1X3X*XW.j._ *.*.-.-.#.*.*.O._ ^ ~ ~ E J L W ~ ~ ~ ( ~ E W E ~ ~ ~ ~ _ _ <.W.T.W.x.OX0X<X` V s.5.~ }.~.v.v.v.N.Q.-X",
"OX<X8.-.S.F.<X5X3X}.!.w.P _ #._ ( O.*.-.#.E E E E E L R W E R J b J b J L L L E E E P ' I.U.T.j.T.0X5X` n L.8.y }.Q.I.v.v.U.W.}.",
"|.5Xs.%.8.C.M.2X*XU.W.} ~ _ _ ^ ~ ~ ~ ~ ~ L R ~ ~ _ _ _ ~ E J R E ~ / W E E ~ E L E L C W.Q.W.x.w.;X*XC G C.^ 8 c.Q.OXU.U.W.Q.{.",
"OX0X'.@.7.5.^ N N i N x L E E ~ P L E E E b c z j z b J L J b L J b b J b v b b c v c x r.>.,.| / V v = J C.I N I..X3X{.I.T.W.XX",
"*X7X*XE $.7.^   X X % s O.-.-.-.-.-.*.O./ E ~ R W ~ ~ E L R E E L v J ~ E R E ~ ~ W ~ h   % I O.O.j c l O.S.~ r.~.<X1XOXv.T./.;X",
"OX9XN.# L ^ j ; ; & y y E _ _ _ _ _ ( _ O._ O._ _ _ ~ E E E L J R J J J J L b b b J E 0 + v $.$.$.R J E E E b S c.`.<XOXU.I.|.%X",
"g.|.' w v b 6 & : a c 0 l P J ! ~ ^ _ ~ ~ _ ( ~ E b b b L J b b b b b b b J J b v h y & O ~ 5.5.5.~ L E H P b : } } R.`.w.p.(.J.",
"B.V.R b J J 6 6 b E b s y J ~ ~ _ O.^ E E E E ~ E R / / / / ~ ( ~ E J L E E E R 9.i $ y b -.5.5.7.O.R ! ! ^ b + Q [ ..,...m.(.b.",
"*X<XE b J c + c ~ ( ! J y j O.-.-.-.-.-.-.-.-.-.-.#.-.-.3.-.O.*.-.O.O._ ( ( ^ / p.i 3 E $.8.A.8.8.O.~ ( ^ _ c 9 0.w.w.l.).].].].",
"OX5X .J J b b J ( $._ ^ b 0 a P ~ ~ ~ ~ ~ ^ ^ ~ E L b b b b v c c v v b b v b v e.i % E -.S.F.F.-.^ O.O.O.~ P j t.c.j.z.].'.OX%X",
"`.5XM.+./ G O.J -.5.$.O.E j 0 c P ^ O.O.O.~ ^ ~ J b b b b b b b J J J E ~ _ J V e.i X E 5.F.L.L.S.-.O.-.5.O.~ k j.c.c.N.+X*X<X*X",
").3X*X-.8.8.O.E 8.C.%.@.^ P J c q.} P ^ ^ *.*.( ~ L b z j j j j j z j j a a { w.j.M   E 7.F.P.L.L.S.5.@.$.5.P { N.v.I.%X>X<X3X<X",
"`.1X5XOXd.C.O.E -.6.-.-.O.( o.P I.T.d a b G g c b c j j y y a y 0 * b *.1 - l.v.U.N   c 5.C.5.5.@.O.( | / I | v.U.v.}.3X3X5X5X<X",
"`.5X<X5XR.F c.T.v.I.c.j.x.t.c y I.T.y 9 `.N.S N y 9 > 8 > - 8 9 c  .S.S.7 > c.v.U.:.m V I y.B.i.Q I.x.c.:.g X.v.c.T.<X>X:X<X1X<X",
"E.3X<X<XR.F R.~.v.{.|.|.|.R.b d U.W.a 0 =X*X/.G.d.X... .| | _ -.7.6._ b = u I.T.I.W.&Xj., c.&Xx.,.~.`.OXe.F X.v.l.OX1X>X>X>X1X<X",
"R.<X*X3XR.F p.U.T.<X5X2X3XOXT d v.T.h x 4X}.^.G.D.6.5.8.7.7.5.5.-.O.E b 2 i U.U.I.&X0Xj.4 w./.j.p.<X:X0XN.D X.c.R.<X<X<X>X:X3X<X",
"R.<X*X5X).F i.I.OX0X5X<X5XOXJ j x. XV h ~.I./.K.&.5.8.8.7.;.@.O.^ ! J x $ i Q.I.~.;XXX,.e ] ~.x.z.3X%X<Xz.F X.c.*X5X<X<X>X>X5X*X",
"z.<X>X5XR.r w.Q.5X6X<X<X1X|.c p c.<XZ 3 I.,.S  .2.%.5.5.$.O.O.@.^ J d C ; 8 W.T.T.T.W.} r { /.}.b.3X*X:Xj.G ..}.<X>X*X<X3X>X5X%X",
"a.1X<X3XU.4 z.*X3X5X5X<X2X|.s p |.5XZ 2 W.X.r d ~ $.;.%.;.;.@.^ b 7 0 Z ; 8 T.W.I.I.~.w.e ` @X-Xf.3X*X>Xz., ..3X:X*X%X*X<X>X5X*X",
"b.5X>X<XY.# Y.>X*X3X3X>X>X|.0 y *X5X` 6 W.y.^ v c d y a a a 0 = + O p ` > i T.T.T.I.OXj.@ q.0X&XB.5X*X:X|.} Q.0X<X*X:X:X>X3X5X*X",
"(.3X*X<X*XOX*X*X:X<X<X>X*X%XOX`.OX5XC $ *X<.o.! J 0 O + : & & * = : d } > 8 U.I.I.|.3XT.0 U.0XOXg.3X>X<X<X<X>X<X2X>X>X<X<X3X5X=X",
"*X5X<X2X5XqX6X2X5X5X2X2X<X>X9X=XOX0Xt.>.5X{ H ~ b s O 0 h y a j j y a V M A T.v.{.5X5X3X<X5X0X*XN.5X3X5X<X<X<X<X<X3X5X5X3X5X5X<X",
"(.*XOXOXOXOXoX|.).).).(._.(.'.R.f.`.`.`.`.V p ! J s 9 J J P ~ ( -.O.c E j.l.j.w.}.*XoX|.'.'.'.B.f.oX(.).oX*X*X*X*X*X<X<X:X*X*X|.",
"B.].'.'._.(.).(.(.V.V.V.J.B.V.b.m.OXOXOXOXZ % ^ P d O.;.;.;.-.O.O.O.O.J :.v.w.c.oX].(.B.f.b.B.b.| f.V.B.'.OXOXOXOXOXoXoXOXOXOX].",
"%X3X>X<X1X1X5X5X5X<X<X<X<X<X5X+XR.9X2X<X>X`   ! O.v ~ ~ ~ ( ~ ! P H E 0 q.~.I..X1X5X3X1X5X2X0X*Xp.3X1X<X<X1X<X>X>X>X:X*X*X:X5X2X",
"$X<X>X>X*X<X1X<X>X<X:X%X>X<X5XOXb.<X<X<X>XZ   c O.^ K I ~ ^ ^ Y ~ R j d q.T.c.OX>X*X<X<X<X<X5X*XR.3X1X<X+X+X%X%X%X%X%XOX[.%X2X=X",
"*X5X<X<X*X<X3X>X>X>X>X*X*X2X3XOXp.<X<X>X<Xt.o v f ' y. . .*.y.0.w.x.x f q.U.Q.*X+X%X<X5X<X<X5X$X`.5X5X5X:X%X%X%X%X+X+XOXoX<X5X<X",
"%X2X<X<X>X<X5X2X>X*X*X>X*X<X5XOXN.3X>X>X>X*X*Xi.4 :.~.v.c.v.T.I.j.c.n g q.T.OX%X+X*X>X5X5X<X<X&X`.5X<X<X*X>X*X:X+X+XOXoXOX<X5X<X",
"*X<X>X<X<X>X<X<X<X*X*X*X*X>X3XOXR.3X>X>X>X<X3Xp.4 S U.U.OX+X*X|.`.&XV p :.|.>X*X*X>X<X5X3X5X5X*X`.5X>X*X>X<X:X*X%X%XOXOXOXOX>X<X",
"*X5X<X<X<X>X>X<X<X*X>X*X*X%X3XOXN.3X>X>X>X>X<Xp.4 ` I.|.:X%X3X*XOX;Xx 3 l.>X:X*X>X<X<X5X5X5X5X*X].1X>X1X<X<X*X:X:X+XOXOX+XoX*X<X",
"OX3X<X<X2X<X>X<X>X*X>X>X*X*X3XOXz.<X<X>X*X:X3Xw.e S W.*X*X+X<X*XoX>XV   T.<X*X*X>X<X<X2X5X<X2X$XOX3X>X<X<X<X*XOX+X%X+XOX+XOX%X<X",
"OX<X>X>X<X>X<X<X*X*X>X>X>X>X<XOXp.<X<X>X>X>X<X9., { =X<X>X:X<X*X].3X`.R.OX:X*X*X*X<X<X<X<X:X>XOXOX0X3X1X<X:X:X%XOX%XOX+X>X<X3X>X",
"OX<X>X>X>X>X<X<X*X:X>X*X<X<X<XOX0.<X>X:X:X>X>XN.@ t.<X>X<X<X5X*X].3X<X3X<X>X>X*X*X>X*X>X<X*X<X*XoX0X5X1X:X*X:X<X+XOX+X<X3X3X5X<X",
"OX<X<X<X<X<X>X>X>X*X*X*X>X>X<XoX1.>X<X*X:X>X>X*X#X<X<X<X<X>X5X*XOX<X<X>X<X<X<X*X*X*X>X<X<X<X5X*XOX5X1X<X>X%X+X:X%X%X<X3X3X1X5X<X",
"|.3X>X<X<X<X>X*X*X*X*X+X*X:X<XoXb.1X*X*X*X<X<X3X5X>X*X:X:X:X3X*XOX<X<X<X<X<X>X>X:X*X<X<X3X<X5X*X|.0X5X>X:X*X+X>X1X>X<X3X5X5X0X<X",
"OX5X>X>X<X<X>X*X*X%X*X:X:X*X<XoXf.3X>X<X<X2X3X3X<X:X*X%X*X<X5X*XOX3X>X<X<X<X>X*X:X>X<X3X5X<X5X*X'.0X5X<X:X<X*X<X0X>X>X3X5X5X0X<X",
"|.3X>X:X>X>X*X*X*XOX%X>X*X%X>XoXz.<X>X<X3X2X<X5X>X<X<X>X>X<X3XOXOX<X>X>X:X>X>X>X>X>X<X<X5X<X<X&X`.5X>X<X<X*X%X:X5X>X>X3X5X5X5X<X",
"oX5X3X5X<X<X<X<X<X:X<X<X<X>X3XOX).0X1X5X5X5X5X5X5X5X9X5X5X5X5X*XOX3X2X<X<X<X<X<X<X<X3X5X5X5X0X*XR.9X<X5X3X<X<X3X0X<X>X5X5X5X0X5X",
"M.]._.].'.(.).`.(.).`.`.`.'.].(.a.).(.R.(.).(.R.R.R.R.(.`.`.`.N.N.OXOXoX|.].|.OX|.|.`.`.'.|.).m.0.|.OXOXOXOXOX%X*X+XOXOXOXOX*XoX"
};
