/* XPM */
static char *map_M[] = {
/* columns rows colors chars-per-pixel */
"64 64 97 2 ",
"   c #2C251C",
".  c #362D22",
"X  c #3A2F21",
"o  c #3B3124",
"O  c #443626",
"+  c #42372A",
"@  c #463828",
"#  c #4C3D2B",
"$  c #503F2C",
"%  c #52412D",
"&  c #564530",
"*  c #594631",
"=  c #5D4933",
"-  c #624D35",
";  c #665038",
":  c #6C553B",
">  c #6F583D",
",  c #735A3E",
"<  c #6F5A40",
"1  c #755D42",
"2  c #7A5E41",
"3  c #7D6243",
"4  c #826545",
"5  c #866847",
"6  c #896847",
"7  c #84694A",
"8  c #8B6D4B",
"9  c #916E4A",
"0  c #8D704E",
"q  c #94724D",
"w  c #99744E",
"e  c #836C50",
"r  c #867155",
"t  c #8C7353",
"y  c #8E7658",
"u  c #957652",
"i  c #9A7751",
"p  c #957957",
"a  c #9D7A53",
"s  c #907758",
"d  c #937B5C",
"f  c #9C7E5A",
"g  c #A27D56",
"h  c #A27F58",
"j  c #937C60",
"k  c #9F805C",
"l  c #A4825C",
"z  c #AA855D",
"x  c #9E8669",
"c  c #A58661",
"v  c #A58965",
"b  c #A58C6C",
"n  c #AC8E6A",
"m  c #B18D64",
"M  c #AD916D",
"N  c #B49067",
"B  c #B4936B",
"V  c #B9936B",
"C  c #A78F71",
"Z  c #AC9272",
"A  c #AE9778",
"S  c #B39672",
"D  c #B69974",
"F  c #BA9B75",
"G  c #B69D7B",
"H  c #BB9E79",
"J  c #BEA17C",
"K  c #C1A37D",
"L  c #BBA281",
"P  c #C3A681",
"I  c #C6AA85",
"U  c #C5AC8A",
"Y  c #CAAE8A",
"T  c #CDB18D",
"R  c #D0B38E",
"E  c #C7B090",
"W  c #CEB491",
"Q  c #D1B692",
"!  c #D8BB97",
"~  c #D9BE9A",
"^  c #D3BFA0",
"/  c #DCC29E",
"(  c #DEC5A2",
")  c #DFC8A6",
"_  c #E1C7A4",
"`  c #E3C9A6",
"'  c #E6CDAA",
"]  c #E8CEAC",
"[  c #E7D0AD",
"{  c #E9D1AF",
"}  c #E7D2B2",
"|  c #E9D1B0",
" . c #EED8B7",
".. c #EED9B9",
"X. c #F1DCBC",
"o. c #F3DFC0",
"O. c #F4E0C1",
/* pixels */
"J I Y W Y T Q Q ! ~ ~ ~ ~ ! W H I W J B n Z H J J J J J P T ! J P ! ! W Y T Y P J H H G S S G c D J J J H G S S S S S F D M n n ",
"! ' ' ' ' ' ` ' { { ' [ [ ' ' Y / { ' ` ( ( _ ` ' ' ' ` ' { | T / | | | { { { { ] ' ' ' ' ' ' J ~ | ' ` ` ' ` ( ( ( / ) ` ( ! F ",
"! ' ' ' ' ' ' ' ' ' ` ' ' ` ` Y / ' ` ' ' ' _ ` ' ' ' ' ' ' ' T ( ' ' | ' ` ' | | { ' ' ' { | U ~ | | ` ( ( ` ( ` ' _ ( ` ` ( F ",
"! ] ` ` ' ' ' ' ' ' ' ' ' ` ` Y / ' ` ` ' ' ' ' ` ' ' { [ ' ' W ( ' ` { | { { { ' ' ` ` ' [  .U ( ....| | | | ` ` _ ! / ` _ _ F ",
"! ' ` ' ' ' ` ' ' ' ' ' ` ` ` I ! | ' ` ' ' [ ' ` ' ' ' ' ' ' W ( ] ` ' ' | | { ' ` ` _ ' ` ' W ' ..| | | | | ` / ! / ( ( ( ( H ",
"Q ` ' ' ' ' ` ' ' ` ` ` ' ' ` P ! | ' ( ' ' ' ' ' | | [ ' ' { T / { ' ' ' | | | ' ' ` _ ' ` ' W ' | ( / ( ` ' ' ( / / / / / ( H ",
"! ` ` ` ` ' ' ' ` ` ' ' ` _ / K Q | ' ! ( ' ' ' ' | | [ [ ' | W / ' ` ` ] | | { ] ' ` ` ` ' ] ~ ' | ( ( ' { { | ' / ! ! ! ! ( J ",
"! ` _ ( ( ` ' ' ' ' ' ' ' ' ' J ! ' ` ( ( ' ' ' ' ' ' ' [ ' [ Y / | ' ' { | { { { ' ' ` ` ' | ! ( | | | | | | | | ' / ! ~ ! / J ",
"Q ` ( ( ( ` _ _ ' ' ' ' ` ' [ J T ' ` _ ' | [ ' ' ' ' ' ' ' ' K ~ | ' ' ' ' { | | { ' ` ` { | Q ) | | | | ....| | | ` ! ~ / ` H ",
"! / ! / _ _ _ ( ` ` ` ` ' ' ` H T | ' [ |  . .[ ' ' ' ' ' ' ` H ! | ' ` ] | | | | | ' ' ' { | ! ' ..| | | ..X.| | | ( ! ! _ | P ",
"! _ / ( ( ` ` ` ` ` ( ( ` ` ` H Y ' ' { | | | { ` ' ' ' ` ' ' I ~ | ' ' |  .| { ] { ' | { | | ! ' ....| | | ..| | | ( ~ ( [ | P ",
"! ` ` ( / ( ` ` ` _ ( ` ( ( _ H I ' ` ' ' ' ' ' _ _ ` ' ' ' [ T / | ' { | | ] ' ' ' { | | ] | Q ' ....| | | ..| | | { ' ` [ | J ",
"! ` ` ( ( ` ` ` ` ( ( ( ( ` ` J T ` ( ` ' ' ' ' ( ( ( ` ' ' ' T ( | { | | { ' ' ] ] ' ' ' { { Y ( ....| ' [ | ..| | | | ' [ | K ",
"! _ ( _ ` ' ' ` ( ( ` ' [ ' ` H Y ` ( _ ` ` ' ' _ [ ' ( ` ` ' ! ( ' ` ' { ] ' { { { ' ] { { ] U ( | | ' ) ' {  ....... .| | | P ",
"! ` ( _ ` ' ' ` ` ` ' { ' [ ` H T ' ' ` ( ( ' ....| { ` ( ' | ~ ' | ' ' | | | | { ' ] { { ' { T ( ' ' ' ' [ ' ' [  .X...| | | I ",
"Q / / / / ! / ( ( ( ( ( ( ( ( H T ` ` ( ( / ( ' ' ' ( ( ( ' } Y ~ ' ' ' ' ' ' ` ` ( ( ' ' ` ( I W ( ( ( ' ) ( ( ( ' [ [ ' ' ' I ",
"D J D S D n B S F H J H S F K F F T W W Q W Q ! ~ ~ ~ ~ ~ ~ ~ L u v M S J I I I I P J K P K H c n U Y T U P I T T T I Y Y W Q P ",
"T ' _ ` ( / / ( _ ` ' ` ( ` ' Q T | { } | [ ` | ..| | ......X.( 7 u k c H T I I I Y I Y I K F f L { ` ` _ _ ` ` _ ` ' ' ' ' ] ` ",
"W ' ' ' ` ' ` ' ' ' ` ' ' ' ' ~ Q | |  .....( ( } [ | | [ } | ^ < 3 8 0 n K J F F F F F F B l 8 J ' ` / / _ _ ` ` _ ` ` _ ` ] ` ",
"W ' ' ` ( ` ` ` ` ` ` ` ' ' ' ! ! | | ....| ' ~ ` ' ' ' ( ( ( E + - 1 1 t n l l l l c l f u 7 : G ' ` _ _ _ ` ` ' ' ' ` _ ` ' _ ",
"Q ] { ' ( _ _ ` ` ` ` ` ` ` _ Q W | ' | | ' ( ~ ! ` ` ( T I T G . ; 3 , u m 8 8 8 p l 8 > ; = $ L ' _ ` ' _ _ ` ` ' ' _ _ ` ` _ ",
"! { | [ ` ` ` ` ` ' ' ' ` ` _ Q T { ' { | / T ! ( ` ` ` / I T Z . - 8 8 8 i q l l l a 6 , : - % L ] ` ` ` ` _ ' ' ` _ _ _ ` ' ` ",
"Q { [ [ ' ` ` ` ' ' ' ` ` ` ` R T ' ' [ [ ( W / | | | ..| ! Q Z . 1 l l q 9 a l l z l 9 6 3 , = L ' ` ` ` ` ' ' ' ` _ ` ] | | ' ",
"Q | | { ' ` ` ' ' ' ' ' ` ` ` T Y { | [ | ..| ' '  .X.X.| ` ! Z X t K z q a n v n V m q 9 8 3 - L ' ` ` _ _ ` ' ' ` ` ` ' ] ' ' ",
"Q { ' ' ' ' ' ' ' ' ` ` _ ( ` T Y { ' ' | O.X.| ( ( ' [ ' ' ! M o : 0 i q a n n V g q q g i 3 - G ' ` ` _ _ _ _ _ ` ` ` ` ' ' ` ",
"Q ] ' ` ' ' ' ' ' ' _ _ ( _ ' Q I ' ` ' ....| | ` ' | | | | / b X : t q q q i l g w 9 q z g 3 - H ] ' ] ' _ ` ` ` _ _ ( _ ` ` _ ",
"Q | ' ( ( ' ' ' ' ' ' ` _ _ ' ! Y ' [ | ..| | |  .....X.....( Z . r U f i 9 8 q a l z h z a , - H ] ' { { ` _ ` ` _ ( _ ` ` ' ` ",
"Q { ` ( ` ' ' ' ` ' ` ` ` _ ' T I { ..O.O.X.........X.o.X...` S . : v u q l q a z m m z l 0 : = G ' ' ` ' _ / ( _ _ ` ` ` ` | ] ",
"~ ] ` ( ` ' ' ` ( ( ( ( ( ( _ Y I  .X.O.O.o.X.X.X.X...O.O...( Z . * , 3 q a u q g l z z u 3 * # S ` ` ` ` _ ! ! / ` ` _ ( ` | { ",
"! { { ` _ ' ' _ / / ( ` ( ( _ T Y X.O.X.X.O.o.X.X.X...X.O. .! b   % : , , 3 8 8 8 q 8 q 4 - # O M Q / _ ` / ! ( ! / _ ( ( ' { ] ",
"Q ' | { ' { ' ` ` ` ' ' ` ` ` ! T .. .| ..X.X.o.X.X...X.X. .! Z   # - - = - , : : > : : - % O o Z Y T ( ' ` / ! ! Q ( _ ' ' ` ( ",
"H ! ( ` _ ( ` _ _ ( ( ( ( ( ( Q T ' ' ' ' ' } | } ' ' ' ' ' Q b   O % & * # % % % % % # O O X . M T K T ! T T I I P T / / ! R I ",
"n P P I I I Y I I I P P J J F c H Q W U T W ! Q W T I P J S M l 7 t t s y y d d d x j y t d j t n B n M M n n B S D F K J H H B ",
"M R R Y I I T Y I Y I I I K F k W { ' ' ' [ | | | [ ' ' ' / I n D T Y T T T Y Y Y Q / ! ( ` ` F F Y Y T Y Q ! / Q T T T I Y T K ",
"v K J F F F F F F F F B n l l t ~ [ ' ` _ ' ' [ | | { { [ ` T M H T T T W Y I I Y T T Q ( ` ( F K Q ~ ' ` ' ' { ` ( ! T I Y ! R ",
"f B c k l l l l l l h u 8 7 3 1 W | | _ ( _ ' [ | | | { ' ' ` H Y ! ! Q Q T I I T ! ( / ' ' ' F T ' ' ] ' ' ] ' ] { ' ! ! ` ' Q ",
"a u q 8 4 3 3 4 7 5 8 8 1 - # # W | | ` ` ' ' | { ' | | ` ' | J W ' ` ` ~ Q T T ! ( ' ' ' ' [ J Q { ] ] ] ' | ' ' ' ' _ _ ' ' T ",
"l l g a a q 9 q q i q u 8 : # # U [ | ' ' ' ' | ' ' [ | { [ | U ~ ] ' ' ' ( / ( ` ' ' ' ' ' ' J Q ] ' ' ' ' ' ' ' { | | { ` ' Q ",
"a a a l n n z a a z h 9 8 4 * # U ' ' [ [ | [ ' ' ` ' ' | | { T / | | ' ' _ ( ( ' ' ' [ [ ' ' J T ' ' ' ' { { ' ] | | | | { | W ",
"g g l n n V N z z m n q q 5 = # U ' ' [ | | ' ' [ ' ' ' [ | | Q ( | | | | ` ( ` ' [ ' { ' ' ' H Q ' ` ` ] ' ' { { { ] ' { | | T ",
"z g z z n B B B B n g w 8 3 - % E [ ' ' ' ' ' [ ' ' ' ' | | | ! ( | | | | [ ' ' ' ' [ [ ' ' ' J T ` ` ` ` _ ` ' ' ' ' ] { ] ' P ",
"m m n B B B N n z a a q 8 4 = & W | [ ' ' [ | | | ' ' ' | | | ! ( | [ ' ' { | [ ' ' { ' ' ' ' P T ( ` ` ` ` ` ` ' ` ' ] ] ' ` H ",
"n m z N V B z a a a w 9 8 4 - & W { ' ' { | | | ..| [ [ [ [ | W (  ...| ' [ { | | | | [ ' ' ' U Q ` _ ` ` ' ' ' ' ` ' ` ` ` _ F ",
"g z l z m n z i q a 8 6 4 4 : = U ] ' [ [ | | ..| [ ' ' | | | W ( |  . .| [ [ | ..| { { ' ' ' Y ! ' _ _ ` ' ' ' _ ` ` ` ' ` ` F ",
"g g l g a a z g 8 u 8 3 2 , : - U ' ' [ ' { | ....| ` ' | | | W ( } | ..| ' [ [ | ' ' { ' ' ' U ! ' ` ` ' ' ` ` _ ` ' ' ' ' ' H ",
"8 8 q i q u u u 4 3 3 2 : : - = U | [ } ' ' [ | | { ' | | | [ ! ( [ } | { [ [ [ [ [ | | [ ' [ U ! ' ` ' ] ' ' ` ' { | { { ' ' J ",
"3 3 3 3 4 3 3 3 : - - : , = $ % U | | | | | | | | | | | | [ { Q ( ' ' ' ' ' { [ [ | |  .[ [ | Y ~ ' ` ' ' ' ' ' ' ' { ] { { ` S ",
", : , - - : - = % # # % = % O @ G ` ( ' ' ' ( ( ' ) ' ' ` ( ` Y ~ ) ( ( ( ( ( ( ( ' ' ' ) ' ' I W ( ( / ( ( ( ( / / ( ( ( ` / F ",
"d x b b Z A C Z b x x x x d e 3 v Z S D M M n M S n n S S H P F J Y Y I I U W ! ~ ~ ~ ~ W W Q D H T T W W T Y P H D F F H H H n ",
"~ ' { | | | X.| ] ' ] { ] ' / M Q ` ` ' _ _ ( ( ` / Q ! ( ' | I ~ | { | | | | | | | | | | | | T ! ' ` ` ` _ _ / / / / ! _ ` ` L ",
"` ' ' | | | | | ' ' ' ] | ' ' D Y ' ' ` ` ( ( ` ' ' / / _ |  .P ! | | | | | | [ | | ] ] | | | W ! ` ` ( _ / ( ( / ! ! ! / ' ' J ",
"' ' ' ' ' ' { ] ' ' _ ' | ] ` B I ' ' ( / / ' | | ( / / ( ' { K ~ | | { ' [ [ { { ' ' ' ' | ..W ~ ' { _ _ ! / / ! ! ! ! ! ! ` J ",
"' ' ' _ ` ` ` ' ] ' ` _ _ ( ` H W ' ' ( / ( ( ' ` ( ` ( ! / ' K ! | [ [ [ ' ' | | { ' ' ` ' X.W ! ] ' / _ / ! ! ! / ! / ! ! _ I ",
"` ` _ ' _ _ _ ` ' ' ' ` / / ' Y / ' ' ' _ ' / ( ( / ( / ! ( { K ! | ' | | ' ' ' | { ' ] { | X.Y ~ ` / / _ ` / / / ( ! ! ! ! _ I ",
"` ` ( _ / / _ _ _ _ _ ( / / ` W ( ' ` [ ` ' ` ` ' _ ( / / _ ' K ! { ' [ | | { ' ] | | | | | ..T ~ _ ! ! / ` _ _ ` _ / ! ! ! ` I ",
"' ' _ ` _ _ ` / ! _ ( _ / / ` W ( ' ' ..' ` ( _ ` ( ( / / ( _ H ! { ' ' [ | | ] { ....|  .| { P ! ` ! ! / _ _ _ _ ` / ! ( ' ` Y ",
"| | | | ' / / ! ! _ / ! / ( ` W ( ' [ { ` ` ' / / ( ` / / ` _ K ~ ' ' ' ' | [ [ | ........| ' F ! ` ( _ _ _ ( / / ` / _ ` ' ' T ",
"' ' ' ' ` / ! ! / ! / ! / / ` W ( ' ' _ ( ` [ ` _ ` ` ( / / ` P ~ ' ' ' ' ' ' [ | ..X. .|  .| J ! ' _ _ ( ( / ( _ ' ( / ( _ ' Q ",
"_ _ ` ` ' _ ! ! ! ! ! ! ! / _ W ' | ' _ / _ ' ' ' ' ' ` ( _ ' Y ! ' ' ' ' ' ' ' |  .X.| [ | { K Q ' ` ( ( ( / _ ` ' _ ! / _ ' Q ",
"` { { { { ] _ ! ! ! ! Q ! ! ( T ' | ' _ ( ` ' ' ' ' ' ` ( ' | T ~ ' ' ' ' ` ` [ | | ....| | | J Q ` ( ( _ _ ` ` ` ' ` ( / ( ' T ",
"' | | | | { ] _ ! ! ! ! Q Q / W _ { ' ` ' ' ` ` ` ` ' ` ` [ | W / ' ' ' ' _ _ ' [ [  .| | ..| H T _ / / _ ` ' ' ' ' ' _ ( _ ' Y ",
"' | |  .| { | ' ! ! ! ` ( / ( Q ` { { [ ' ' ` ` ` ' { ' ( ` { Q ( { { { [ ' ` ' | | ..| | | ` F ! ` ! ! / ` ' ' ' ' ' ` ` ` ' I ",
"| | |  ...{ | ' / / _ { | ' ' Q ( ' { | [ ' ' ' ' ' { ' ' ' { ! / ' | | | | | | | [ | | | | ' D ! ] _ ` ' ' ' ' ' ' ' ` ' { ' Y ",
"' | |  . .| | { ' { { | | | | W / | | | { ' | | | | | | | { | W / | | X.X.X.X.X.| | { | .. .{ D T { { | | { | | | | | | { { { Y "
};
