/* XPM */
static char *wall_bot[] = {
/* columns rows colors chars-per-pixel */
"64 64 52 1 ",
"  c #6F583C",
". c #735B3E",
"X c #7D6444",
"o c #816746",
"O c #856A48",
"+ c #8C6F4A",
"@ c #8E714C",
"# c #97784F",
"$ c #98784F",
"% c #937650",
"& c #977852",
"* c #9B7E59",
"= c #A07F54",
"- c #9E805A",
"; c #A38157",
": c #A9875C",
"> c #A7885F",
", c #A78861",
"< c #AD8D62",
"1 c #A78C69",
"2 c #B08F64",
"3 c #AF9067",
"4 c #AB906D",
"5 c #B29166",
"6 c #B7986D",
"7 c #AF9370",
"8 c #B69871",
"9 c #BD9D72",
"0 c #BC9E79",
"q c #BFA074",
"w c #BEA17A",
"e c #C09E73",
"r c #C2A176",
"t c #C9A77C",
"y c #C7A87D",
"u c #CAAA7E",
"i c #C5A682",
"p c #C7A981",
"a c #CDAE84",
"s c #CDAF88",
"d c #D1AF84",
"f c #CFB186",
"g c #CDB088",
"h c #D0B286",
"j c #D3B68E",
"k c #D4B88E",
"l c #D3B791",
"z c #D6B991",
"x c #D4BB97",
"c c #D8BB96",
"v c #DBC29F",
"b c #DDC29F",
/* pixels */
"5655558858888900pbbzgjjggsjgjzzlljjjljgggjga85<<,417ww0iaaairwww",
"6rq9ryaggjggjlzlgjgrpjjgjjljjllljljjjjjgjjjawpaaazgjzzzzzzcjgjga",
"9665rraaapyaagggar9<qapagjjjjlljjzljjjjgjjja39ragjjsagzljjjjjlsa",
"966rrraaaaaaagggar5>0arpasgjzzjlzlzjjzjgggjs<5ragjlljjzjjjjzzljj",
"969rrruafggaaautur9<warrajjllzjlllzlzzzzjjjg<5ragjjlzzggjjjzzjjj",
"6rrrruaafggfrrrrrr9<rgpajlljjljjzzzjjllllllg<9ragjjlzzjgjjlljjjj",
"9rrryaafjjggaurapw5:rjggjjjjjzljlzjjjjjjjllg59pagjjjlzzgsjjjjjjl",
"6erruafhjjggsgffa9<:pzjjgjjjjjjjlzjjjjjjjjjs59pagjjjjjjjjjjjjjlj",
"9rrruaffffgggjgaar6<pzljjjjjjgjlzzjjjggaaasa59yfgggjjjjggjjljjzj",
"rrrryaafggfagjjjspw5ajllljjzjjjjzzjljjggapga5qaggggjjjggsjjgggjj",
"rrerrrraaaagjjgfaar59999969999999q99999999995rajjjjjjjjggjjjjjjj",
"rrrrrrpaaajjjjjjgapq5555<<<<<<<<<<<<<5555<<<9yagjjlljjaygjjjjgfj",
"zzjjjjkkjkkkkzzzzkjar65699q95552<<<<2555556rrrrruaaauyyaaaaurrrr",
"uauuuyyrryuuuyyyyyrr9<<55565555552<><<>><<59rr99rrrrr9rrrrr99665",
"uurttyyyuaaaauyrrrrr925555555555522222<<<559urrqr99q99rrrrrrr996",
"yyruuuuuuaaffuyrrrrr95566555555<<<<<<<<<<559urr99999999eerrrrr96",
"ruuyuuuuuaaaauyryyyur55666555552<<<<<<<<5566rr9999re999e9errrrq6",
"rtuyyyyuuuuuyrrrruuur666665555555<<<>>>>5556r9ee9err99999errrr99",
"rrrrryrryyuyrrrrruuur6556555555<<>>>>>><5555r9999999999999rrrr99",
"yyrrrrrrrrrrrrrrrryrr5555555555<<<>>><<<255596666999999969rrr999",
"yrrrrrrrr6666655566665555555555<25666655569rrr9rrrrrrrrrrrrrrrrr",
"9969rrrrr55555<<22<5<>>>>:>><<::<>56565<>259966699666659rrrrrrre",
"669errrr96965666996665655555555<<><59995>><6655555555555reeeer99",
"6669ee9q99rrrr99rr9969999rrrrr95555665655><665555555555596666669",
"6669e99rr9ruuuuuuuuuuuuuaaaaaur995566569655666555555555566666669",
"6669eeery9ruuauuaaauuuuuaaaauur695555569996696555555555566666666",
"699999rruqruuaauaaauuuaauaaaurr65<<<<556666699655555555596669966",
"999969rrrqruuuuuuaaaauaaauaauur652<<<355666999655555552596666966",
"rrq999rrr9rrryuuuyyrruuuauuuuyr656669666699966966666655666666666",
"rr9rrrruurrrrrrrrrryaafjjjjjhffhjffffaaafhjfur965666555566995555",
"6669999rrq99999qr99raauaaaaauuaaaaaauyyyyuuar55<2555552<<555<>><",
"9666999q999999qqr96qurrurrrrrrrrryuuurrrrrrur522555255<<<22<<<<5",
"96669999999999e9999ruyuuurrrrrryuuuuuuuuyrrr955552252<<<<<<<<<<<",
"6666669999999999999ryryuyyrrrrrryuuuyuuuyrr9955552<<<<<<<<222<<<",
"96666699err99999errryryrrrrrrrrrruuuuuuuuy956555552<55552<<><<<2",
"99969999rrrrrrrrrrrrrryrrrrrrrrrryuuuauuuur655555555555555<<>>>>",
"rr99999errrrrrrqrr999rrruurrrrrrrruuuuuuuur6555555666665555<>>>>",
"aauuurrrraffauuuuuuuaaafjjfauuuurrrrrrrrrre9655555666666rrrr9996",
"hhhaaaaauuffaaauuuyyuuaafffaurua95555555552<>*::>>>>><>5hhfauuuu",
"hhhddfffr999ee99996999rrrrrr99rrr6rrrrrrr9966<><56666666aaauuuaa",
"dddhhhhar999ee9999999699999eeerrrruuuuuuurrrr9525errtr66uuuuuuua",
"uaddhhhar6699rrq999999699999eerrrruuutuurrrrr9555ettut96uuuuuutu",
"tuuadhduq669errrre999rq96699999r9ruuuttrrrrrrr9525ertt96rutreeee",
"uuuaddau969errrrrre999996666669r9ruuuttrrrrrrr952556ee65er666666",
"uuaaaaat99rrrrrrrrr99ee96666669reruutrrttrrrr65255559956re666666",
"rrrrrrrrr9rrre99r9699rrq9999999r9rrrrrrrre965<>><<<59956rrre6666",
":****:::**::>>:::**<uaaaauuuuuaahjjfaaaauuyr5<<25566996eree95<>>",
"=;;**=;*#*;;:>:::;#-aaaauauuuaaahjjhfaauuuuu6>>><<569669969662>>",
"><<>:>>;;;>>:>>>>>**rrtrruuuuaaahjhfaaautrrr6552>>>5e99e99996555",
">>>:=;>;;=;>;>:;**#*9rrrrrrrruaadhhfaauuuayrr9555<26eeee96966666",
":;=**=;;;**;;;==**#*69rrre999ruuuaauuuuuuuurrr6665669ee666666666",
"**$#**=*$**==;=***#*6rre99999rrrrruuuuuuuuaaur966666666655656666",
"###@#$**$*********@&6rrrr99669ee99rrrrrrrtaaaq996665666555555555",
"#+ooO+@@++@++++@#+O@>555555<<<2<<225655559rr9555555<<<<>>>>>>>>:",
"X. .XXoXXoOOooOOOooO+@#%%@##@@@##%%%&%%%%%%*&%%%%%%%%#O@@######@",
":*-::><<<<2<<<>::<<<<<555<:::::::::::::>::::,:::::>><<<<552<<<55",
"rrrrerrrrrrr9e6526errrrrr955565552555555555555555555569rrrr969rr",
"rrrrrrrrrrrrrr96569rrr9rr955566555555555555555555555559e556999rr",
"99rrrrrrryrrre656999errrr965555555555555555555555555569r669rre99",
"99rrrrrerrrrrr96er99re999955555555555655555665555555559rrrrree95",
"rerrrrrrrrqrrr99rrer99999955555555555555555555555555555rrrr99re9",
"99errrerer9qrrree99r9969965552<<<<<<25565565555555555559rr6>5r99",
"65999999999699999699965665<<<<<<<<<<2<<52552<55<<<<<><2696<>55<5",
"::<52555555<<<<225552222<::::::::*::**;:><>::>>::::**:>2<>::>>::"
};
