/* XPM */
static char *map_S[] = {
/* columns rows colors chars-per-pixel */
"64 64 70 1 ",
"  c #594834",
". c #6B563C",
"X c #6C583F",
"o c #6F5B41",
"O c #735D42",
"+ c #766045",
"@ c #7E6649",
"# c #806748",
"$ c #846B4D",
"% c #896E4E",
"& c #8C704E",
"* c #876E50",
"= c #886F50",
"- c #877053",
"; c #8F795C",
": c #927756",
"> c #967956",
", c #987B57",
"< c #907758",
"1 c #9A7E5B",
"2 c #9E815E",
"3 c #A1825E",
"4 c #9D8363",
"5 c #A38662",
"6 c #A68965",
"7 c #AB8E6B",
"8 c #B08F69",
"9 c #AD916D",
"0 c #B1936E",
"q c #AD9372",
"w c #B39671",
"e c #B59975",
"r c #B99B76",
"t c #B49A79",
"y c #BB9E79",
"u c #BEA17C",
"i c #C1A47E",
"p c #BEA380",
"a c #C2A681",
"s c #C5A985",
"d c #C9AC86",
"f c #C6AC89",
"g c #CAAE89",
"h c #CDB18D",
"j c #D0B38E",
"k c #CCB493",
"l c #CFB896",
"z c #CEB798",
"x c #D2B692",
"c c #D5BA95",
"v c #D8BC97",
"b c #D5BC9A",
"n c #D9BE9A",
"m c #D7C09F",
"M c #DCC29E",
"N c #DEC4A1",
"B c #DFC5A3",
"V c #DFC6A3",
"C c #E0C6A2",
"Z c #E2C8A5",
"A c #E5CCAB",
"S c #E8CEAC",
"D c #E7D0AE",
"F c #E8D0AE",
"G c #E7D1B1",
"H c #ECD3B2",
"J c #EFD8B7",
"K c #EDD7B8",
"L c #EFD8B8",
"P c #F0D9B9",
/* pixels */
"BHFAAZAHSZZAAZMw276560w00009wyy7snnMbcxccccxkkkq,69ww7000ww9wer0",
"AHHHHZZHAZZASASa6uggghxcbchkxccwbFFFFHSFHHFSAAFt%&$=-%--**$$$*$@",
"AHHHHAAHZBZASAHfsBASAAAZZAAZZZMubHFAZAAAHFHHDAA4$wwerryeeeweeww5",
"APLHFAAHACACAHPhfBZFAAZZZZZZZCMubFZCBBZAFFAAZZA4-hcMBBMBCCCAAAAh",
"AJHHHAZACMCZAHHxgBZDDAZZZZAAZBMubFZZZZAAAAACBZZ4<dcMCBnCZZZAAAAx",
"AFFFFZMMCMBBZASksBAAAABCZAAAZCMabFAAAAAAZZZZZZC,-dcMCBMBBZAAZADb",
"AHHSZnnMZCCCZAAgaMBBAZCCCZAAZZnubFAAAAAAZZZZZZZ,-dcnnBBCBZAAZAAc",
"ZAZCnnMnnCZASFHxunMbMZZCCZZZZBMebACZAAAAAAZZZAZ4-dvMMBZZZZAAAAAc",
"ZMvncnMMnCASSAAhpcMZMAABBCCZZMnwbZMBZAAAAAZZZAA6-gMBBZCCAAAAAAZb",
"ABcvvvnCCCAAAAAgaMZDAAAZBCZZCMntbAMMZAAAAAAZZAAq-dnMCZBBAAZAZZAn",
"AZMcxcMMCCZCCAFfaBAFHAAZCZZCCBMybACBZACZZAAAZAAq-dcMCZBZAZADAAAn",
"AHAcxcnnCBCCSFHssBAAHAZBBCZZZCMtbAZBZZCZZZAZZAA6-dxnMCBZACZZZADB",
"AHZxcnMMMBMCFHFssMCFHABnnBZAABnybACCZZCCZZZZAAZ4:dccnMMZAZCZAZAM",
"AABcnMBCMBMBASAysBZADABMBBZZAMnabZBBCCZCZAZZAAAq<hvcMnMBZAZBZZZn",
"ZACBCCZZZZACMBb7gBZAAAAZAZZZCMMsnZZCZAAZZZZCZADq-dcxcnnnMCBnMBZb",
"eisssaassssurrr7dZZZZZAADDDDAZZatsuyussiuaasfgg6-ahhgjcccncxccnx",
"&%-,:-----<-,,,-6rreuaghghcnbch7@#@+@$$$$@+oO@-$:wryruiaddsaasga",
":652335322,,,:-@txxxcbMBcbMBBBnitttq79999qqqttt4ygdgshhxbMMMMMBh",
"raiiuiyrryr0555$kHFAAABAAAAHHAAxMFHACMMBBMCCZZAfbACZAAFAAHHHAZDb",
"nnvcccxhhhjghgd,kHDAAAMMAAFHHAAxBHLLHZMBAZCZZAAkbABBZAAZCZAAZZAs",
"MCBMnnbMncnvcch,bJDDDAZcBAABcxcscBDPPHAZAAADHHDkbZCZAFFZCCAZZAAy",
"BAZMMnnBFZBnccc6bLAAGAbhcAABgaguhMAJPLHHJDDHHLHcbBZAAHHFAAAAAAAe",
"MAZZMnMMACBvccc5bHAFHBhhCHAAMghuhMMAPHHPPHZAHLHcbBZAAGLHAAAAAAZy",
"MAZAZMCZZZAMnbc4kHDHHAbxBAAAABcahnnBJHHPPHDHHHHbbAAAAHJFAAAAACZs",
"BAZZZAAACZBMBnc4cHFHHHFCZADFDDBuhnnbHHHALPPLHDHbBLABAAAAAAAAZZZs",
"ZAZZZAABBZBCFMc4bHHHHHFZAZAADFMygbbbALZMHPDAADJBBJZMBBAAAAAZCAAs",
"ZAZZZZCMCZMMABc4lHAAAAZBZCCAAAbrscbbALHBHLZZADHmbHAMMZAZZADAZAAs",
"ZAACCACMMMMnnnc,kHABBZCBCBAAAAcwsccbZPHALLZZAHHbcZBnMBZCCAAZZZCa",
"BAAZZZCMMMnMcxs$kDAZBBBBBBZBCZx0sbbMBLHALPAAADHmxMcMMMMMBBBBCCBa",
"BZBMMMncxxccjgs-fZBZBnMMMMMcnnd6acbnnHJDHHAZAAHbkxcnncccnncnMMBs",
"MMccxxhhhhgdggi*pchxxhhjxjhhhgr,yxkkcAHAZAAZAAHcfrydgdaassgghhxs",
"cchxjdsdddsidhi$ucxxxxxxxxhfsa9,eghxcBZBMDHDFHHkairuir09wruiaaiw",
"sdhhhsaiuasuiay-kHDDHHHHDHFAABg5-4460wwyuasshhf6achhhccnxgghhhha",
"xnAAZAZZCZACBBMqcADHHLHHHHAAAAx4 .+@:3335332,>%OpxxZCAAFBcxgsgxk",
"CFHAAAAAFSSSAAZybAFHLJAHHHAAHHC6 @$->,,45qte96,+fZBFFZZAAZZxcCAb",
"AHFAAAAAAAAAAABecAFHHDAGHAADHHFqX,67009wyasaau0$zHAHHFAAAAABZFAx",
"GLHAAAAAAAHDAABqxADADDDHAZAFHHHqO,7wee090wyyayw:zHFHHHHSFHFASZAc",
"HHGAAAADFHHAAAZqcFFDADHDZZDAAAAt@0yaiye00uxjgy0-zHAAFHHFFHHHHAFc",
"HHACBAAFHHAAAAZtkFFDDHDAZAHDZZAt$igxchiyihcxguw-kHSAAAFFFFHFFFHh",
"HHAZAAADHAAAAZBulDDFHHADAAHHHADt*ajcMMcxxxnBhar-kHFSAAFHFSAAAHHs",
"AHFAHDDHAAAFAABpbHDDJHAADAAFHHDt-scnMMnnccMBMhy-kFFFAFHHAAAZAFFa",
"ZHHDHHJLHFFFAAZaBHHAFHHFAAAAHHDe-sxMMMBBbMCMBba-kFAAAAFDAZZZAADa",
"BFHHHLPPPHAAAZCaBLHFHDDDFDAAAHF7*ahcMBZBMBBMBcs,kHAAFFAAZZCBBZDf",
"BHHLLLLLLHAACCZsbHGAAAAAADAAAGF6-ajcMZAZMnbBMca,zHFAFFAZZZAZAAAa",
"AHHHHHHLHHFAZZCsbDAAAAAAAAAADHDq-ihcCZAAMnMZMcs,kSFFSFAAAZZZAFAp",
"AHHJHDHHHHHACAZaBHFAAAAAAAAHAAFq$igxMBCZBMCBnxa,kFFHFHHHHSAAHHFf",
"AHDHHHHHHHHHHHZsfbxxcxhfsssgaad6*ushxcbMMnccjdu<tbccMMBBMBnbbbxe",
"hhkbnnbxnAAAABnt%52,4,:&>35556,$$0risssghsauyr0-$566790666666665",
",5336665665552,$,4,,,,----<-,,,@>67000weeeew776-;66779966766656,",
"200666666668063$fncccxghxxxcccc0iccnMBCBBBZCBBBpgMMBBBBMbMBBBMBp",
"gxjddddddgghday,fMMMnnccvnMBMMCwhMBZAAAAZZZCZZZghMAAAAAZBMbZDAAs",
"nBcccnncxxxnnjd6fZBBnnMMMMCZZZZyhMBZZAFZZZZZZBCkcBAAGGAAAbxZFBBs",
"MCccvMnvjjxvMxd7kZZZCBCCZZZAAAZucAZZZFFZCZZZZMChbABBGHHGABbAABBa",
"BZnnMnMMccvvvxj9kAAAZZZBZAAZZAAunHCZZAZCCZZZCMCsbAZAHHHHHABDHBZa",
"CAMMMMMMMMCMvcjwkAZZZAZCAAASAAAuMHMMMMCCZZCBCCZsbAAAHKLKHAZHHBAa",
"CAZZCMMMCCBvcxhqkAZZZAZZAAASAAFinHCnMZZCZAAZZZAkbAHHHHLHHFAAABCy",
"ZAAAZBMMCCMcnnj6kAZZZAAAFSAAASHgnAMnBZZCZAAZZZZxbALHHHGHHDZMBZCy",
"ZAAAAZCMCZMccch4gSFAZZZAFHSAFFFgcCnBCZCZZAZZAZCxMHLHFFHHABMnBAZy",
"AFAAAZACCCBMcxh1kHHAZAZASHHAAFHhbBCZZCCZAZCAAZAhBLLHHAAABnMMnBCy",
"AFAAAZZZCBMvxjh,hFHACZAAAHHAASFcMZBCZCBZZZCZAZAgBPLHAbcnMbMBMMZu",
"ZAAZCMMMnnccxjh4kHFAAZAFFHHAAAAcBABMZZCZZACCCCAfBHHHBMccbnnBZCAp",
"ZAZCMnMZBnvnvxj4kHAAAZASFHAZAZAcBHABZZZAAHZCZCAkBHHAAABbcbMBCZAy",
"BFZCMMCZZncxxnn6kFAAAZASHHAAAAFcBHFHHAZAAHACZASxBKHHHHHAMMBBCZM0",
"BFAZCZZAACnnnCn7eaggsssxMBBMBCBdMHFHHFCAFHAZAHHhfkgfghhssssaaii0"
};
