/* XPM */
static char *wall_64[] = {
/* columns rows colors chars-per-pixel */
"64 64 170 2 ",
"   c #030304",
".  c #060708",
"X  c #070809",
"o  c #0A0B0D",
"O  c #0D0E11",
"+  c #0F1013",
"@  c #111216",
"#  c #15161A",
"$  c #17181C",
"%  c #19191E",
"&  c #1D1D23",
"*  c #201F26",
"=  c #1F2026",
"-  c #202026",
";  c #25242B",
":  c #28272E",
">  c #27282F",
",  c #28282F",
"<  c #292730",
"1  c #2D2C34",
"2  c #2F2F38",
"3  c #302F37",
"4  c #312F38",
"5  c #2F3037",
"6  c #2F3038",
"7  c #303037",
"8  c #34323B",
"9  c #38353F",
"0  c #373540",
"q  c #383641",
"w  c #3F3C47",
"e  c #3C3A44",
"r  c #3F3C48",
"t  c #3F3D48",
"y  c #3F3D49",
"u  c #3F3E48",
"i  c #3F3D48",
"p  c #403C46",
"a  c #403C47",
"s  c #403D47",
"d  c #403D47",
"f  c #403D48",
"g  c #403D49",
"h  c #413D49",
"j  c #423D49",
"k  c #403E48",
"l  c #403E49",
"z  c #413E49",
"x  c #423E49",
"c  c #403D4A",
"v  c #413D4A",
"b  c #403E4A",
"n  c #413E4A",
"m  c #413F4A",
"M  c #413E4B",
"N  c #413F4B",
"B  c #423E4A",
"V  c #423F4A",
"C  c #423E4B",
"Z  c #433E4B",
"A  c #423F4B",
"S  c #433F4B",
"D  c #423E4C",
"F  c #433E4C",
"G  c #423F4C",
"H  c #433F4C",
"J  c #433E4D",
"K  c #423F4D",
"L  c #433F4D",
"P  c #443F4D",
"I  c #413E4A",
"U  c #42404C",
"Y  c #43404C",
"T  c #42414C",
"R  c #43404D",
"E  c #43414D",
"W  c #43404E",
"Q  c #43414E",
"!  c #43424E",
"~  c #43434F",
"^  c #44404C",
"/  c #44404D",
"(  c #44414D",
")  c #45414D",
"_  c #44404E",
"`  c #44414E",
"'  c #45414E",
"]  c #44404F",
"[  c #44414F",
"{  c #45414F",
"}  c #44424E",
"|  c #45424E",
" . c #44424F",
".. c #45424F",
"X. c #44434F",
"o. c #45434F",
"O. c #46424E",
"+. c #47424F",
"@. c #46434F",
"#. c #44444F",
"$. c #44414E",
"%. c #454350",
"&. c #464250",
"*. c #464350",
"=. c #474350",
"-. c #474351",
";. c #454450",
":. c #464450",
">. c #464451",
",. c #474451",
"<. c #474552",
"1. c #464451",
"2. c #484351",
"3. c #484451",
"4. c #494451",
"5. c #484551",
"6. c #484452",
"7. c #484552",
"8. c #494552",
"9. c #494553",
"0. c #494653",
"q. c #4A4653",
"w. c #494654",
"e. c #494754",
"r. c #4A4654",
"t. c #4B4654",
"y. c #4A4754",
"u. c #4B4754",
"i. c #4A4755",
"p. c #4B4755",
"a. c #494653",
"s. c #4B4855",
"d. c #4C4856",
"f. c #4D4956",
"g. c #4C4857",
"h. c #4D4857",
"j. c #4D4957",
"k. c #4C4856",
"l. c #4D4958",
"z. c #4E4A58",
"x. c #4E4A59",
"c. c #4E4B5A",
"v. c #4F4B5A",
"b. c #4F4B5B",
"n. c #4E4A59",
"m. c #504B5A",
"M. c #504C5B",
"N. c #514C5B",
"B. c #514C5C",
"V. c #514D5C",
"C. c #524E5D",
"Z. c #524E5E",
"A. c #534E5E",
"S. c #524F5E",
"D. c #534F5F",
"F. c #544E5E",
"G. c #544E5F",
"H. c #544F5F",
"J. c #555060",
"K. c #545061",
"L. c #555061",
"P. c #565162",
"I. c #575262",
"U. c #575263",
"Y. c #575264",
"T. c #595365",
"R. c #595466",
"E. c #5B5668",
"W. c #5F596D",
"Q. c #675F75",
/* pixels */
"& 9 e e 1 3 1 % - ; t 1 9 n t n n p.e e >.p.h.N.N.P.R.N.>.( ( ( >.>.>.>.>.>.>.>.>.>.( n n n n n n n n n n ( ( ( n ( ( ( ( ( n e ",
"e 9 e 1 # 1 1 1 & : e ; 1 4 ( n n n ( >.( p.>.b.P.R.N.p.( ( n n ( ( ( ( ( ( ( ( ( ( n n n n n n n n n n n n n ( ( >.( ( ( ( e e ",
"0 >.( & ; 1 1 1 # * & @ & ; 9 9 e 0 e n ( p.p.b.P.N.p.p.n n n n n n n n n n n n n n n n n n n n n n n n n n n n >.( ( ( n t e t ",
"0 e 1 & @ ; * & & ; ; % & % % & 9 9 9 n n ( p.( p.p.( >.( n n n n n n n n n n n ( h.( n n n n n n n n n n n n t ( ( ( n n n n t ",
"9 e 1 % & 1 1 9 ; ; 9 1 $ & 1 9 1 e p n n n >.p.( >.n n ( >.( n n n n n n n n n n p.p.n n ( n ( n n n ( n n 0 9 >.>.( n n 9 0 ( ",
"0 1 % O @ % 9 0 e e e 9 , ; & 9 9 n n n n n ( ( p.( n n n ( ( n n n n n n n n ( ( ( ( n ( n ( p.( n n ( n n e 1 9 n e e e 9 t t ",
"0 ; ; # : ; ; ; 1 e e 9 e ; & 9 e n n n n n n ( ( n n ( ( n n n n n n n n n ( ( ( >.n n n >.>.p.p.n ( n ( n 0 1 1 9 e n t t n 9 ",
"1 @ & & & ; & 9 ; 9 e 0 e e 9 e n n n n n n n n n ( ( >.( ( n n n n n n n n n ( n e n n n >.>.>.( n n n n ( 9 9 ( 0 9 e ( t e ( ",
"& & & ; & # 1 9 ; 1 e e e e e e p n p p n e n ( ( >.h.>.( ( n ( p.p.p.n n ( ( n t t n n >.h.( ( >.n ( 0 9 n ( t 9 e >.( ( ( ( ( ",
"# % 1 e ; # 1 0 e e e e e e n e p n p e e n e p p n >.h.( n ( ( h.P.h.( n ( ( ( ( n n n ( h.N.N.b.p.p.n n n ( 0 # 4 n ( >.e e e ",
"1 1 0 e 9 1 9 ; 9 e p p p p p p p n p e e e e p n n h.p.( >.N.N.b.N.b.b.N.h.( p.( n n n n >.b.N.N.P.h.p.( n n e 9 9 n ( 9 3 e 9 ",
"9 9 9 9 9 1 1 + ; e e e p n n p p n p e p p e n n e p.>.p.p.N.h.p.>.p.N.P.p.p.p.( n n ( n ( p.N.N.N.p.h.>.( ( p.( ( n e 0 e e 9 ",
"1 1 9 0 9 9 1 3 0 e e e e e e p p n p e n n n n n n n n ( n >.h.p.n >.p.b.h.( p.( ( n 9 9 e >.p.>.b.>.( p.p.>.n p.h.e e e ( 1 9 ",
"0 b.p.9 0 e 3 9 e e e e e e e e e p e e n n n n n n n n t n p.p.p.p.p.p.n ( ( p.( n n 9 e 0 >.( >.( n ( p.p.>.e e 4 p.E.( 0 0 0 ",
"1 9 1 4 9 e t 9 e e e e e e e e e e e e p n n n n n p p e >.h.( >.p.h.p.>.p.b.( n >.( n e ( ( e p.( h.p.p.b.b.>.; = ; 0 e p.e n ",
"; & ; 0 0 e 9 1 9 e 0 e e e p e p p e e e e e e e n n n ( n ( ( t p.( p.>.p.p.e n b.( n n n e n >.( h.p.p.p.b.p.t ; ; ( 9 e ( n ",
", 1 ; 9 0 9 3 , 3 9 e e e e e e e e e p e e e p p n n n ( e 9 e e e e n ( n ( n h.( ( ( ( ( 0 n ( ( ( p.p.p.p.p.n e 9 t t t e e ",
"9 9 9 9 9 3 1 1 e 0 e e e e e e e e e p e e e e p n n n n e e ; e 9 e e e ( >.>.h.( e ( ( 9 ( e t ( ( p.>.b.>.( n e 1 4 e 4 4 e ",
"9 9 9 9 4 4 4 9 0 9 3 9 e e e e e e e p e e p p p n n e e p.e 1 e ( 3 9 1 >.e n e 0 9 9 e 1 n ( ( ( >.( ( ( ( n n e 9 t 9 9 e e ",
"1 1 9 9 9 9 0 9 9 1 1 e e e e e e p p p e e e p e n n ( ( n e 1 1 : e e 1 9 9 1 1 1 % 0 9 e ( ( >.>.>.( >.t e e ( e 9 p.9 1 e e ",
"9 0 9 0 0 0 9 9 3 9 9 e e e e e e e e e e e n p e e n n ( t n e e 9 0 e ( n e n n ; % >.( t n ( ( >.>.( ( p.p.n n n n e 9 9 e ( ",
"0 0 0 9 0 e 0 9 0 9 9 e e e e e e e e p e e t n e n >.( n n e n t ( e n ( n n n e 1   1 >.( ( n e >.>.( ( ( ( ( e p ( 9 , e p.n ",
"e e e 9 0 e 0 0 0 0 e e e e e e e e e p e e t t e ( ( ( ( n n 9 4 9 n ( ( n n n 1 o   , e 0 e ( e n ( p.p.p.n ( ( e n ( ( ( p.n ",
"0 0 0 e 0 e e 0 0 0 e e e e e e e e e e e t e n 9 1 0 ( n e ( e 9 ; 1 e n e 9 1 &   . + ; 1 & e e 9 e n ( >.p.( n n e n ( p.h.( ",
"0 0 0 e e 9 e e e e e e e e e e e e e e ( ( e 9 3 e >.( >.e ( e 0 e 9 ; n e - o & 1 % % & ( e 9 9 e e e h.p.( p.( ( e e e ( p.p.",
"e 9 9 9 e 9 0 e e e e e e e e e e e e e e e e e e e p.p.n n ( t n ( >.9 e ; : 9 & 4 , 1 1 3 e 9 9 n e ( p.h.>.( ( e n ( n p.p.0 ",
"e 1 ; 9 9 9 e e e e e e e e e e e e e e e e e e e e e e n e 0 9 0 1 & 1 e @ # ; o & 0 e 1 3 e ; 9 e e >.>.( ( n ( e e >.W.Q.n 0 ",
"e 9 e 0 0 e e e e e e e e e e e e e e e e e e e e e e e 9 9 @ + ; 1 1 1 e 9 - & % ; p.>.1 1 e ; ; 1 ( ( p.( >.p.t n >.; e P.: 1 ",
"e 0 0 0 0 0 0 0 0 0 e e e e e e e e e e e e e e t e e e 9 9 1 ; X 9 ( e ; 1 1 & o # % * @ & ; 3 9 e n t n ( ( n >.b.e - & # ; ; ",
"9 0 0 0 0 0 0 0 0 0 0 0 0 e e e e e e e e e e e n n e e e e 1 @ - # 1 @   1 ; : ; 1 ; o 1 1 , & ; >.e n 0 ( ( h.>.>.: & ; % & ; ",
"0 0 0 0 0 0 0 0 0 0 0 0 0 0 0 e e e e e e e e e e e 0 e e 9 ; # ; o & ; O 1 1 & 9 4 &   & : 1 1 e e e >.t n p.n ( ( 9 ; ; % & ; ",
"e 0 0 0 0 0 0 0 0 0 0 0 0 0 0 e e e e e e e e e e e 0 9 0 0 & o o + 9 # & @ % - 1 1 # # ; 9 9 t e 9 p.>.p.( ( n p.p.p.n 0 9 e >.",
"9 0 0 0 0 0 0 0 9 9 0 0 0 0 0 0 0 0 0 0 e e e e e e e 9 e e : - # @ o   o & 1 ; - 4 e : ; 1 ; 1 1 1 e n n >.n ( p.p.h.( p.p.>.n ",
"9 0 0 0 0 0 0 0 0 9 0 0 0 0 0 0 0 0 0 0 e e 9 e e , 1 9 9 9 9 1 ; O O # 1 9 ; ; @ 9 e 9 :   ; e 9 4 e ( >.p.e n >.p.b.p.p.( >.>.",
"9 0 0 0 0 0 0 0 0 0 0 0 0 0 0 0 0 0 0 0 e e 9 9 9 @ 1 9 e e 9 0 0 ; 1 ; 4 1 o & 1 e 0 9 & o 4 e e n e p.p.p.n ( ( ( n ( n >.>.p.",
"9 9 9 9 9 0 9 9 9 9 9 0 0 0 0 e 0 0 0 0 0 0 1 & 9 9 e e 0 9 3 9 0 1 e 4 & o o ; 1 e e e 9 e n e n e : t n p.>.>.n e e e ( h.p.n ",
"9 9 9 9 9 0 9 9 9 9 9 9 0 9 9 1 0 0 9 0 0 9 9 - 9 n 3 ; , 1 1 1 9 9 9 n n 1 - ; 4 e n e 1 9 ( n t h.p.n t t ( n 0 e e e ( b.p.>.",
"9 9 9 9 9 9 9 9 9 9 9 9 9 9 3 ; 9 9 9 0 9 9 ; ; 1 e 1 # 1 ; 1 1 e 0 9 9 9 e ; 1 e e e e 9 e n ( p.e n e t ( p.n t e 0 e e ( >.p.",
"9 9 9 9 9 9 9 9 9 9 9 9 9 1 ; 0 9 9 0 9 0 9 4 9 1 1 0 ; e 3 4 - 9 e e e 4 9 9 0 e e e e e 9 e ; 1 n n ( b.( n ( 0 e 0 0 0 9 n ( ",
"9 9 9 9 9 9 9 9 9 9 9 9 9 9 9 1 9 9 9 9 = 1 9 9 0 9 9 e e n 9 1 0 e e e e e e t e e e e e e e   @ ( b.( ( e e e 0 0 0 9 e e 9 e ",
"9 9 9 9 9 9 9 9 9 9 9 9 9 9 9 1 1 9 9 1 ; : 9 0 9 9 # 1 e 9 1 9 9 e 9 1 9 e ( ( ( e 9 e e e e e o & n e 9 0 e e 0 0 e 9 e e e n ",
"9 9 9 9 9 9 9 4 9 9 9 9 9 9 9 1 9 4 9 ; 9 1 1 9 , 9 1 9 e 9 1 0 9 0 ; 9 e e e ( p.( 9 0 e e 0 e 0 ( e e 0 0 0 e e e e 0 0 0 e >.",
"9 9 9 9 9 9 9 1 9 9 9 9 9 9 9 0 0 9 9 3 9 9 & : 1 0 9 0 9 1 4 9 e 9 3 0 e e t ( ( ( e e t ( e n n n e 0 e 9 0 n 9 9 e e e 0 t ( ",
"9 9 9 9 9 9 9 9 9 9 9 9 1 9 9 9 0 9 9 1 9 0 9 % , 0 9 0 : O ; 1 9 9 0 e 9 e n ( n n 9 e ( ( e e e e 9 9 9 0 n 0 e 0 n n e e n ( ",
"1 9 9 9 9 9 9 9 9 9 9 0 ; = 9 9 9 9 0 e 0 9 9 1 ; 0 e 9 - # @ 9 9 0 1 1 9 9 9 ( h.e n p.p.( n >.>.( 9 9 9 9 e n ( 0 0 e e 9 e ( ",
"1 9 9 9 9 9 9 9 9 9 9 9 1 @ & - e e e e 9 0 e e e e 9 0 ; ; o 1 e e ; 9 9 1 e 0 n n >.p.p.n p.N.p.e 9 9 9 9 9 e ( e e e e e e ( ",
"1 9 9 9 9 9 9 9 9 3 9 , $ & - & & 1 9 9 0 9 0 e e 9 e e 1 % O 1 9 9 , 9 1 1 9 0 e 0 e h.p.b.b.p.( 0 9 9 9 9 9 e e 9 9 e e e n e ",
"1 9 9 9 9 9 9 1 1 3 9 1 9 9 ; @ ; % 4 1 0 9 0 e e 9 e 9 ; ; 1 ; 9 , 4 9 1 9 9 9 9 e ( p.p.p.p.e 9 e t 9 9 9 9 9 9 9 9 9 9 0 0 9 ",
"5 1 9 9 9 9 9 1 , 9 9 1 1 9 - % 9 4 ; 1 9 9 0 0 9 9 1 4 ; 9 1 1 1 9 0 0 0 e 9 9 9 e ( ( n e 0 9 0 e n 9 9 9 9 9 9 9 0 9 9 9 1 9 ",
"1 1 9 9 9 9 5 9 1 9 3 1 9 1 1 ; ; 1 4 9 9 9 9 9 9 9 9 9 4 9 ; 9 9 9 0 0 9 9 e e 9 9 ( n e e n e e e e 9 9 9 9 9 0 e e 9 9 1 1 9 ",
"1 1 1 5 1 1 6 9 9 9 9 9 9 9 9 9 9 1 9 9 9 9 9 9 9 9 9 9 9 9 9 9 9 9 9 0 9 9 ( >.e e e n e t ( ( e e e 9 9 9 9 9 0 0 9 9 9 9 9 9 ",
"1 1 1 1 1 1 1 1 9 6 6 9 9 1 3 9 ; - 9 9 9 9 9 9 9 9 9 9 9 9 1 9 9 9 0 0 e 0 n >.0 e ( ( n p.>.>.e 0 ( e 4 9 9 3 9 e 9 1 9 9 9 1 ",
"1 1 1 1 1 5 6 9 1 5 1 9 9 1 1 1 1 ; 9 1 1 1 1 1 9 4 9 9 9 9 9 9 9 9 e 0 9 9 9 9 9 9 t t e n n n e e e 9 4 9 9 9 9 9 4 1 1 4 9 9 ",
"1 1 1 1 1 1 9 6 1 1 1 9 1 , # ; 4 1 9 3 ; < 1 1 9 4 9 9 9 9 9 9 9 9 ( t e 1 9 9 0 9 9 9 9 0 0 e 0 t 0 9 9 9 9 9 9 9 9 1 1 3 1 9 ",
"1 1 1 1 9 9 9 9 1 1 9 9 1 ; O ; 1 9 3 9 ; 4 9 4 1 4 9 4 9 9 9 9 9 9 0 t 9 e e 9 9 9 9 9 4 0 0 9 e e 9 9 9 9 3 9 9 9 1 1 1 1 9 9 ",
"; 1 1 9 9 9 9 9 9 9 1 9 1 o o O ; ; 1 ; 3 1 3 1 1 4 9 9 9 9 9 9 9 9 9 9 e e e 9 e 9 9 9 9 9 n 0 e e 9 9 0 9 1 1 9 5 1 ; 1 9 1 1 ",
"; 1 1 9 9 9 9 9 1 ; 1 9 ; - & # & & 9 , - 1 1 1 9 9 9 9 9 3 9 0 9 9 9 e 9 9 9 9 0 9 9 0 9 9 e 0 9 3 9 e e 9 9 1 1 1 ; ; : : ; 1 ",
"$ ; 1 5 9 9 1 1 ; ; 1 9 ; ; 1 & , @ $ % - 1 9 1 9 9 9 9 9 9 4 9 9 9 0 0 9 9 9 9 1 9 9 9 9 9 3 3 9 9 9 9 e e 1 ; 1 ; 1 & - & ; 1 ",
"; 1 9 1 1 1 1 1 1 ; ; & ; % ; ; % o   o 1 1 9 9 1 9 9 9 9 9 9 9 9 n e 9 9 9 9 9 9 9 9 9 9 1 9 e 9 4 0 e n n 9 1 4 - ; # @ + - , ",
"1 1 ; 1 4 1 1 1 1 ; $ & o o 1 1 o ; o O 1 1 1 9 9 9 9 9 9 9 9 9 9 9 9 9 2 1 1 9 9 1 9 9 9 9 9 0 9 9 9 9 9 9 9 1 1 1 ; ; @ % 1 , ",
"; - - ; 1 1 1 ; 1 1 1 1 - ; 1 & # 1 ; % ; : 1 9 9 4 9 9 9 9 9 9 9 9 9 9 1 5 1 9 9 1 9 9 9 0 1 9 9 t 9 1 3 9 1 ; 1 & & ; & & 1 1 ",
"; & 1 1 1 1 : ; ; 1 1 1 1 9 9 1 & - - 1 1 ; 3 1 9 4 9 9 9 1 9 9 9 9 5 1 9 5 1 9 9 1 1 9 9 9 1 9 9 9 1 1 1 9 1 1 1 1 1 1 % # : 1 ",
"1 ; - , 1 1 1 1 1 1 1 1 1 1 1 1 % % & ; 9 ; , 9 3 3 4 9 9 1 9 4 9 1 1 1 9 9 9 9 3 1 1 1 9 9 9 1 1 9 1 1 1 1 1 1 1 1 1 ; % ; 1 1 ",
"1 ; > - & ; ; 1 1 1 1 1 1 1 1 1 1 1 3 1 1 1 9 1 9 1 1 1 5 9 1 1 1 5 1 1 9 9 9 6 1 1 1 1 9 9 9 5 5 1 5 1 1 1 1 1 1 : ; - % ; : # "
};
