/* XPM */
static char *player_collec_3[] = {
/* columns rows colors chars-per-pixel */
"64 64 243 2 ",
"   c None",
".  c #0D0E0A",
"X  c #090906",
"o  c #14130D",
"O  c #19160F",
"+  c #161611",
"@  c #1C1A14",
"#  c #191913",
"$  c #211D16",
"%  c #291D18",
"&  c #25231C",
"*  c #2A251D",
"=  c #32251E",
"-  c #2C2B24",
";  c #292923",
":  c #332C23",
">  c #392822",
",  c #2E332D",
"<  c #34332D",
"1  c #3C332A",
"2  c #3A3428",
"3  c #3B3B34",
"4  c #383832",
"5  c #1F231E",
"6  c #43352C",
"7  c #44392E",
"8  c #4D392E",
"9  c #443C33",
"0  c #4B3C33",
"q  c #463630",
"w  c #563D36",
"e  c #4D2F2E",
"r  c #3E403A",
"t  c #4D4136",
"y  c #44433C",
"u  c #4C4339",
"i  c #464436",
"p  c #54453B",
"a  c #5A453D",
"s  c #54493F",
"d  c #5B4A3F",
"f  c #554237",
"g  c #51513D",
"h  c #63493E",
"j  c #494A43",
"k  c #484A44",
"l  c #544B42",
"z  c #5B4B42",
"x  c #594B45",
"c  c #4E514B",
"v  c #4D5145",
"b  c #52534C",
"n  c #5C554B",
"m  c #555A53",
"M  c #5A5B54",
"N  c #555852",
"B  c #624C43",
"V  c #654D46",
"C  c #645144",
"Z  c #64544B",
"A  c #6C544B",
"S  c #6B584D",
"D  c #675548",
"F  c #745C4B",
"G  c #77574C",
"H  c #645E54",
"J  c #6C5C52",
"K  c #685751",
"L  c #745E52",
"P  c #7B5D53",
"I  c #765355",
"U  c #5D615B",
"Y  c #5E6054",
"T  c #5F614F",
"R  c #63635C",
"E  c #6A6257",
"W  c #736156",
"Q  c #7D6355",
"!  c #74635A",
"~  c #7B665A",
"^  c #7D6B5D",
"/  c #7F6955",
"(  c #77614D",
")  c #686C65",
"_  c #7C6C62",
"`  c #766B64",
"'  c #6F736D",
"]  c #77736B",
"[  c #787872",
"{  c #6F7671",
"}  c #815E52",
"|  c #83655B",
" . c #846B5D",
".. c #87685A",
"X. c #8A715C",
"o. c #8D6A58",
"O. c #856D62",
"+. c #8B6E62",
"@. c #8C6E6A",
"#. c #956E62",
"$. c #847365",
"%. c #8C7364",
"&. c #8B7669",
"*. c #8D7A6C",
"=. c #83776D",
"-. c #927365",
";. c #9C7D63",
":. c #94756A",
">. c #947A6C",
",. c #9B7C6D",
"<. c #9A7468",
"1. c #887C72",
"2. c #947D73",
"3. c #9C7C72",
"4. c #A37B6C",
"5. c #A57969",
"6. c #AA7B74",
"7. c #9B836D",
"8. c #8B837A",
"9. c #958274",
"0. c #9B8374",
"q. c #9C857A",
"w. c #9C897B",
"e. c #94867C",
"r. c #9F907F",
"t. c #A9876C",
"y. c #AC8D73",
"u. c #A38B7C",
"i. c #A88878",
"p. c #B18E73",
"a. c #B28C7C",
"s. c #B7897A",
"d. c #AD937C",
"f. c #AA9278",
"g. c #B4947A",
"h. c #B7957A",
"j. c #C0927D",
"k. c #A87F87",
"l. c #958C82",
"z. c #9C8D83",
"x. c #9E9387",
"c. c #AA8D83",
"v. c #A48E83",
"b. c #A59284",
"n. c #AD9484",
"m. c #AC9A8B",
"M. c #A8968B",
"N. c #BD9C82",
"B. c #B29B8C",
"V. c #B89788",
"C. c #B49E92",
"Z. c #BC9E96",
"A. c #AE948C",
"S. c #BAA18B",
"D. c #BBA394",
"F. c #B4A49A",
"G. c #B9A699",
"H. c #ACA297",
"J. c #B9ABA2",
"K. c #BFB0A3",
"L. c #C69A88",
"P. c #C59897",
"I. c #C18E80",
"U. c #C7A68B",
"Y. c #CDAB93",
"T. c #C2AB9C",
"R. c #CCAC9B",
"E. c #C3A797",
"W. c #D1AE92",
"Q. c #D4A999",
"!. c #CBB19C",
"~. c #D4B296",
"^. c #D5B49C",
"/. c #D9B79D",
"(. c #C4ACA4",
"). c #D8ADA2",
"_. c #CCB3A3",
"`. c #CEBAAB",
"'. c #C6B4A7",
"]. c #DDBBA4",
"[. c #D3BCAB",
"{. c #DCBDAB",
"}. c #D6B5A5",
"|. c #CBBCB1",
" X c #D6BDB3",
".X c #E3BCAC",
"XX c #E3BAA5",
"oX c #E0B8AF",
"OX c #DDC2AC",
"+X c #DAC0AB",
"@X c #D4C1B3",
"#X c #DCC4B1",
"$X c #D5C4BB",
"%X c #DBC6BA",
"&X c #DCCABB",
"*X c #DDC8B7",
"=X c #E4C3AC",
"-X c #E7C6AB",
";X c #E4C4B3",
":X c #E5C9B4",
">X c #EACBB4",
",X c #E3CCBB",
"<X c #EBCDBB",
"1X c #E9C5B5",
"2X c #EDD2BC",
"3X c #E8D0BB",
"4X c #F1D4BD",
"5X c #F0CEB7",
"6X c #DACAC2",
"7X c #DED4CE",
"8X c #E2CEC5",
"9X c #E4D1C4",
"0X c #ECD4C2",
"qX c #E8D5CA",
"wX c #F2D6C2",
"eX c #F5D9C5",
"rX c #F4DCCB",
"tX c #F9DECD",
"yX c #F6D3C9",
"uX c #EBDBD4",
"iX c #EDDEDA",
"pX c #E5D7D1",
"aX c #F5DED3",
"sX c #F9E1CF",
"dX c #F4E0CF",
"fX c #F4E0D3",
"gX c #FAE3D3",
"hX c #F3E5DD",
"jX c #FCE4DA",
"kX c #FBEADB",
"lX c #F6E8DF",
"zX c #ECE3DC",
"xX c #EDE4E1",
"cX c #F5E9E3",
"vX c #FCEDE4",
"bX c #F7EBE7",
"nX c #FDF2E5",
"mX c #FCF3EC",
"MX c #FCF7EE",
"NX c #FDF5F1",
"BX c #FEFAF3",
"VX c #FEFCFA",
"CX c #F6F1F0",
/* pixels */
"                                                      r 3 3 < 4 < 3 3 < -                                                       ",
"                                                m m c c y k c k r y y 4 < < -                                                   ",
"                                          , < N ) b c k N m k k k y 3 < - - - - -                                               ",
"                                      r m b m U ' M c c R U b b N c k y 3 3 < < < <                                             ",
"                                  4 k k M M m ) [ ) U R ' ) M H R M M b 3 < , - & - & @                                         ",
"                              # , m ) U ) ' ) ' { ' ' 8.8.1.[ [ 1.' ) b y y < - ; @ @ @ @                                       ",
"                            , 3 U { ' ) { ' ' [ 8.l.l.M.x.z.l.z.M.l.` H n y 4 < < - & @ @ @                                     ",
"                            k k b { { M ' 8.l.x.M.m.m.F.G.G.m.D.F.m.1.1._ H n y 4 3 - & @ @ $ o                                 ",
"                            k k M ) R [ x.H.F.F.J.J.J.(.`.[.`.(.'.G.B.b.w.9.^ z 9 3 3 - & @ @ @                                 ",
"                          < M ' [ ` =.G.@X$X@X|.'.|.`.`.`.#X#X@X@X).[.E.S.N.d.$.H l y 3 - & & @ X                               ",
"                          c R ' [ 8.'.9X0X9X,X$X$X&X&X&X&X#X,X,X,X;X#X[.!.!.E.d.0.! 3 < - & & @ o                               ",
"                        3 c c R e.'.9XrXfXfXrXpX9XuXfXfXrXrX0X<X2X<X<X=X].^.Y.U.d.9.E b < @ & & @ .                             ",
"                        < r k [ K.3XrXgXkXkXkXlXhXlXvXvXjXgXeX0X<X0X2X:X=X]./.W.U.g.9.H 3 & $ * * @                             ",
"                        4 k b l.&XrXrXkXkXnXBXBXMXBXmXmXkXkXtXrXeX2X2X;X=X=X+X^.Y.L.n._ 9 & @ @ @ & o                           ",
"                        4 3 E '.rXdXgXvXnXMXBXBXBXBXBXmXvXjXtXtXeX4X<X>X=X=X].^.~.U.S.u.n < @ O o @ o                           ",
"                        < y l.9XrXrXgXkXnXBXBXBXmXBXmXnXkXgXgXgXrX4X>X-X=X=X/.~.~.Y.N.S.$.i * @ o + o X                         ",
"                        3 M J.0XrXdXgXkXnXmXMXmXnXnXvXvXjXgXtXtXrXeX5X-X=X]./.W.Y.U.h.N.u.l : & @ @ O .                         ",
"                      3 k R (.0XrXrXgXgXkXnXmXnXkXkXkXkXjXgXtXsXtXeX>X=XXX/.~.W.Y.U.h.g.d.J : & @ O @ @ X                       ",
"                      k k R `.0X2XeXsXgXgXsXgXkXkXkXkXgXtXsXtXeX4X4X-X-X=X].~.Y.U.h.p.p.g.$.1 $ $ @ & & .                       ",
"                    5 k y H `.3X2XeXeXtXsXsXsXgXgXsXtXeXtXeXrXeXeXeX2X=XXX~.W.Y.L.h.p.p.t. .9 @ @ $ & & @ +                     ",
"                    ; b 3 R [.,X2XeXrXsXgXgXgXgXgXgXtXeXeXeXeXeX4X5X>X=X]./.W.Y.h.p.p.p.t.F 7 @ @ O $ @ & &                     ",
"                    - 3 < W '.:X2X2XeX2X2X4XeXeXeXeXeXeXeXeXeXeX4X4X-X=X/.~.W.Y.L.p.p.y.t.F : @ @ + o + & &                     ",
"                    , k 3 W !.;X:X>X2X2XeXeXeXeXrXeXeXrXrXeX5X>X=X]./.^.~.W.Y.U.h.p.p.t.;.F : o + + + @ ; @                     ",
"                    c m y W T.OX;X>X2X2XeXeX<X>X<X<X>X=XXX=X=X=X=X=X].]././.W.U.h.p.t.t.;.F 1 o o + @ - ;                       ",
"                  , U M y H G.{.OX:X2X2X2X<X>X1X1X>X=X=X>X>X=X=XXX].].]././.^.Y.L.p.y.t.;...7 O O @ & : :                       ",
"                  3 m N y s B.{.OX=X2XeX4X2X>X=X].].XX=X=X=XXX].].=X=XOXOX].^.W.U.h.y.t.;.7.z O o @ : 0 8                       ",
"                  v b c < 9 D.OXOX=X2XeXeX4X4X<X<X<X;X]./.].XX:X>X>X<X,X:X[.G.7.7.;.;.;.t.y.D $ & : s F 8                       ",
"                  T U N 4 9 G.#X:X2X4XeX2XeXeXeXeX<X:X=X=X:X;X:X;XOX'.G.n.&.Z u s C | t.g.y.F & * 7 F }                         ",
"                    Y N 3 9 (.#X2XwX0X,X2XrXeX<X1X;X=X].^.].].^.Y.u. .A s 1 7 s u 0 F d.h.g./ - * 6 G |                         ",
"                    n k y l [.*X,X:X@X[.*X[.'.R.Q.Q.^.Y.Y.Y.L.y.%.S s 6 7 d W  .%.^ ..d.h.p. .2 = f | +.                        ",
"                    g 4 y n &X*X!.n.9.9.*._ _ %.0.a.N.N.N.N.a.,.A s s d C A F Q ..X.%.d.h.p.X.6 1 A +.,.                        ",
"                    i - 9 E &X&Xe.W Z s 7 1 1 1 0 S ,.a.a.a.4.| d A C 8 8 W 0.+.A Q 7.d.p.t.X.0 0 P ,.%.                        ",
"                    < + 4 ` @XwXx.s s 0 7 1 : 1 7 u L ,.4.4.,.F h C 0 3 _ qXjX.X,.>.d.g.t.t.X.s s %.i.d                         ",
"                    & . - ` @XdX`.$.f * 1 k & $ = > 0  .a.d.n.h f f _ H.;X.X).Q.[.&X#X[.).U.-.u s 0.y.u                         ",
"                    & o @ R |.dX0XS.F S J ! J z 0 6 6 ^ R.^.N.A G ..u.%XQ.6.#.6.,XBXBXBXBXfXB.z J i.y.                          ",
"                    @ . . < J.rXrX*X!.S.u.,.+. .Q S z *.OX:XT.>.+.:.c.'.,.G G ,.!.hXmXmXmXmXcX7X6X'.0.                          ",
"                      . X + H.rXgXkX3XE.,.-.X.| Q ! &.n.#X<X).B.2...i.G.| G X.i.N.8XhXcXmXnXBXVXmXcX|.l.                        ",
"                        X X 1.2XrXkXkXOXi.X.Q  .>.n.T.R.{.0X].S.'.i.#.i.X.X.-.-.m.%XuXcXmXhXBXVXnXnXmXCXpXJ.                    ",
"                          X y OX0XfXkXrX9X[.'.R.).{.#X{.;X<X).h.^.).Y.a.,.-.G %.T.%XuXcXcXcXVXBXnXnXmXmXBXuXF.                  ",
"                            & T.,X<X0XaXgXrXrXeX<X;X.X;X;X;X).j.L.Q./.Q.a.:.u.(.@X6XuXhXaXmXBXvXcXcXiXcXBXuX$X&.                ",
"                              u.[.{.{.<XeX0X<X).V.V.{.<X.X1XXXL.L.a.4.i.A.Z.zXuX8XpXzXuXuXBXvXhXiXuXpXVXBXuX%Xw.                ",
"                              _ G.E.Q.Q.^.Y.s.G w V.;X;X.X1X;XY.I.a.<.h :.%XBXcXuXpX8X%XiXnXhXiX8X8XCXVXcX8X Xb.                ",
"                              $.0.n.N.N.s.4.G w w Z.oX}.).XX).I.s.V.a.| &.%X9X%X6X$X`.`.cXCXxXuX%XiXVXcX8X X(.B.                ",
"                                >.%.3.,.#.P h h V V.).}.).Q.L.5.4.i.4.#.V.9X(.C.G.(.C.|.CXCXxX6X|.CXBXpX X(.B.m.                ",
"                                w.^ ~ F G V s V | @.3.}.XXQ.j.5.#.} G :.8XuXT.B.C.(.b.D.6X7X$X(.'.xXiX$X'.b.0.&.                ",
"                                m.9.*.B a a w B @.2.J O.s.5.5.#.B s L (.BXaXR.B.C.G.&.W &.q.w.9.F.J.G.G.G.9.0.0.l               ",
"                                m.n.n.^ z a z Z 2.b.2.V w w w w z _ z.xXBXtXL.3.q.v.L s Z J J $.m.b.q.v.w.0.b.n.$.              ",
"                                  B.G.u.~ B V J 2.A.c.$.s 6 6 z _ 2.(.vXjXyXP.} L ~ z 0 y s y ! e.e.1.$.*.u.u.m.v.              ",
"                                  C.G.G.0.L z Z _ q.v.q.:.P I O.:.c.iXcXtXyX).| d z B a 0 9 6 l Z J ~ %.w.q.0.C.B.W             ",
"                                  M.G.D.n.q.W Z A V V A G P | G A i.cXaXyX1XP.+.S W W A z 0 0 z d Z ~ $.*.>.w.D.D.$.            ",
"                                    m.m.n.n.w.$.! _ I % $ = > > % A ).XX).I.<.A J W J S Z 0 s Z Z A S W ^ $.b.J.C.*.            ",
"                                    r.n.q.u.n.B.B.E.(.k.I B e e w I :.4.<.#.| Z z s s s s 7 9 u s d z z S e.F.F.b._             ",
"                                      w.*._ 0.G.R.V.c.P.P.P.c.6.:.@.| G X.,.>. .Z z z y u 9 1 1 1 u z ! 8.z.A.b.e.              ",
"                                      ^ ^ J O.B.Z.V.%.P P P I A z a B P #.-.%.L d s s s 9 s y u y l ! 1.z.9.z.e.&.              ",
"                                        J Z J B.Z.a.-.A 0 6 6 q 0 z A P | %.+.S s y u u   k n H n n ! 1.q.9.z.1.                ",
"                                          z s *.G.A.%.P B a s z Z L Q | O.O.| d s y 0       l H W W _ 8.e.e.e.[                 ",
"                                            0 s >.V.u.0.%. .|  .O.-.:.-.%. .A f y 7         < k n H ` =._ ` `                   ",
"                                              7 Z 0.c.n.n.i.,.>.>.,.:.:.+.P s u 9 2           ; 1 9 y l l                       ",
"                                                9 J 2.n.n.c.u.i.0.,.-.+.L s 0 9 2                                               ",
"                                                  u Z *.v.c.0.2.:.O.~ A f 6 6                                                   ",
"                                                    9 s Z Z J ! L Z s 7 1 1                                                     ",
"                                                        1 1 1 6 1 1 : :                                                         ",
"                                                            : : ;                                                               ",
"                                                                                                                                "
};
