/* XPM */
static char *player[] = {
/* columns rows colors chars-per-pixel */
"64 64 230 2 ",
"   c None",
".  c #000000",
"X  c #00020B",
"o  c #0D0C0B",
"O  c #0B0505",
"+  c #140301",
"@  c #1B0200",
"#  c #190C08",
"$  c #000115",
"%  c #00011B",
"&  c #000B1B",
"*  c #00161F",
"=  c #161413",
"-  c #1C1C1C",
";  c #191817",
":  c #2A0200",
">  c #250B02",
",  c #290E03",
"<  c #3A0700",
"1  c #2B1407",
"2  c #3D1402",
"3  c #371806",
"4  c #221B18",
"5  c #361E11",
"6  c #3C2516",
"7  c #2D251C",
"8  c #000725",
"9  c #001A23",
"0  c #001925",
"q  c #131D20",
"w  c #002028",
"e  c #182325",
"r  c #052934",
"t  c #183235",
"y  c #0B3237",
"u  c #252525",
"i  c #2C2C2C",
"p  c #27292A",
"a  c #342A25",
"s  c #2A3739",
"d  c #3E3D3C",
"f  c #353636",
"g  c #222F34",
"h  c #440100",
"j  c #431402",
"k  c #4C1501",
"l  c #451904",
"z  c #4D1C03",
"x  c #441E09",
"c  c #561D00",
"v  c #552404",
"b  c #5A2505",
"n  c #5D2A06",
"m  c #5C2A0A",
"M  c #562408",
"N  c #4D2916",
"B  c #462819",
"V  c #542A17",
"C  c #5A321D",
"Z  c #4D2306",
"A  c #612B05",
"S  c #622D0A",
"D  c #672202",
"F  c #742A03",
"G  c #65320E",
"H  c #76350A",
"J  c #7A340A",
"K  c #7C3A0E",
"L  c #7A3307",
"P  c #66381C",
"I  c #793813",
"U  c #692D12",
"Y  c #4B3729",
"T  c #5A3726",
"R  c #453B36",
"E  c #51362A",
"W  c #633B24",
"Q  c #76431D",
"!  c #5B4632",
"~  c #4C4137",
"^  c #6C4227",
"/  c #71452A",
"(  c #784A2E",
")  c #734428",
"_  c #6D4B38",
"`  c #7A4C35",
"'  c #7A5138",
"]  c #69523F",
"[  c #003A42",
"{  c #094E55",
"}  c #3B4343",
"|  c #344D55",
" . c #325053",
".. c #494746",
"X. c #584A46",
"o. c #455253",
"O. c #535353",
"+. c #595C5D",
"@. c #55504F",
"#. c #695645",
"$. c #7A5B46",
"%. c #6E5C53",
"&. c #7A604D",
"*. c #7B6855",
"=. c #63615F",
"-. c #496E73",
";. c #843B0C",
":. c #883702",
">. c #943A08",
",. c #803C10",
"<. c #A43C00",
"1. c #9A450E",
"2. c #97460D",
"3. c #8D4416",
"4. c #9C4511",
"5. c #9D4A13",
"6. c #944615",
"7. c #8F430B",
"8. c #AD490D",
"9. c #A74609",
"0. c #B54B0D",
"q. c #B94C08",
"w. c #B75203",
"e. c #A44D12",
"r. c #AA4F14",
"t. c #A24112",
"y. c #B84C10",
"u. c #A65015",
"i. c #AA5114",
"p. c #AA531B",
"a. c #B25214",
"s. c #BC5413",
"d. c #B4551A",
"f. c #B85818",
"g. c #835436",
"h. c #8A5C3D",
"j. c #83583C",
"k. c #9B5A3A",
"l. c #9E5029",
"z. c #C25312",
"x. c #C45B15",
"c. c #CB5914",
"v. c #C45B18",
"b. c #D85C15",
"n. c #C7621A",
"m. c #CA621B",
"M. c #CE6315",
"N. c #D16316",
"B. c #D3651B",
"V. c #D5681D",
"C. c #DC691D",
"Z. c #DA671C",
"A. c #E2661A",
"S. c #E46C1D",
"D. c #EA6D1D",
"F. c #E6711F",
"G. c #EB711F",
"H. c #F2741F",
"J. c #D46821",
"K. c #E56F20",
"L. c #E67120",
"P. c #ED7321",
"I. c #F37622",
"U. c #F47822",
"Y. c #FB7A22",
"T. c #F87726",
"R. c #885C49",
"E. c #905D46",
"W. c #8D664C",
"Q. c #896248",
"!. c #976A4C",
"~. c #886C59",
"^. c #956B56",
"/. c #83705A",
"(. c #9A745E",
"). c #9D7256",
"_. c #A47555",
"`. c #A7795A",
"'. c #BA7D5C",
"]. c #8D7A63",
"[. c #9E7E6A",
"{. c #977B65",
"}. c #A57D63",
"|. c #B37E63",
" X c #B9805E",
".X c #95826D",
"XX c #9E8B79",
"oX c #AA8266",
"OX c #B68B6D",
"+X c #AD8B73",
"@X c #A78A74",
"#X c #B58D75",
"$X c #BB9276",
"%X c #BC967A",
"&X c #B4927A",
"*X c #B19276",
"=X c #C68D6B",
"-X c #C09679",
";X c #C69474",
":X c #D59B79",
">X c #D4A07D",
",X c #A89481",
"<X c #B69D86",
"1X c #C39D83",
"2X c #CBA183",
"3X c #CBA68B",
"4X c #CDAA8F",
"5X c #C4A389",
"6X c #CEAC91",
"7X c #D8AC99",
"8X c #D2B096",
"9X c #D4B39A",
"0X c #DAB49B",
"qX c #DAB99E",
"wX c #E6AC87",
"eX c #F3B48D",
"rX c #E4B393",
"tX c #EEBB99",
"yX c #F3BC98",
"uX c #E0B08D",
"iX c #DCBCA2",
"pX c #E7BCA9",
"aX c #E0BFA6",
"sX c #F5C29E",
"dX c #DFC0A8",
"fX c #E1C1A7",
"gX c #E3C4AA",
"hX c #E8C9AE",
"jX c #EFCEB3",
"kX c #F8C5A0",
/* pixels */
"                                                        ,XXX,X/.B *.,XXX                                                        ",
"                                                      ].! E N $.[.$.N ] .X                                                      ",
"                                                    .X2 _ <X8XiXhXiX6X~.! @X                                                    ",
"                                                  ].&.~.iXgXgXgXgXgXgXaX^.! ~.                                                  ",
"                                                  &.N 9XhXfXgXgXgXgXgXgXiX$.!                                                   ",
"                                                /.Y ~.4XqXgXgXgXgXgXgXfXgX5XN /.                                                ",
"                                              <X{.. W.-XiXgXgXgXgXgXgXgXgXiXV /.                                                ",
"                                              @X#.@ Q.iXfXqX4X4X6X6X4X3XqX9XN #.                                                ",
"                                              *.Y : [.3XQ.$.^ / !.!.( ^ $.$.< $.                                                ",
"                                              #.6 . {.).h N B j (.#Xm 6 2 W T !                                                 ",
"                                                B . [.1X) v : h @XqX` l V }.}..                                                 ",
"                                                B . [.hX6X+X@X#XqXpX#XQ.).7X+X                                                  ",
"                                                R.+ [.fXfXhX5X1XpXpXqX%XqXjX9X                                                  ",
"                                                `.Q.#X%X3X1Xg.).$X7X7X' +XjXdX                                                  ",
"                                                  $X%Xh._.Q %X3X` R.(.+X' %X9X                                                  ",
"                                                  W.`._.!.A oX%Xh.G }.5X/ h.OX                                                  ",
"                                                  l ( oX%XQ.) R.R.R.^.R.( !.                                                    ",
"                                                    T g.}.%X8X1XE.` ^.1XW.j.                                                    ",
"                                                    ` M c j.qXqX#XoX&X3Xh.v                                                     ",
"                                                    _.( V c !.3XqXgX8X1X`                                                       ",
"                                                    oX_.^ V z P !.oXg.S                                                         ",
"                                                      W.P P W C ' g./ ^                                                         ",
"                                                      C G n A b g.`._._.                                                        ",
"                                                @.X.8 #.:X=X;X;X=XwX{.9 } ..                                                    ",
"                                              $ X X e.l.-XsXtXyXsX2Xk.9.U $ [ O.                                                ",
"                                          p X e.a.H K F w -XyXrXkX{.. 6.+ ;.w.V -.                                              ",
"                                          = 8.I.Y.Z.e.d.:.7 -XsX2Xk.s.i.d.A.Y.N.e...                                            ",
"                                        u : e.e.5.r.a.a.3.. (.uXR F d.r.a.e.5.i.4.+ a                                           ",
"                                        * . . . . . . . . . #.#.. X . . . . . . . . 0                                           ",
"                                      9 7.r.r.e.e.e.e.e.e.i.F c p.e.e.e.u.u.e.e.4.>.;..                                         ",
"                                      w N.A.5.P.I.I.I.I.U.Y.f.6.Y.U.I.H.I.I.Y.Z.1.A.x.                                          ",
"                                    =.. ;.;.. J.V.B.B.B.V.B.v.d.B.V.V.B.N.B.Z.d.. 4.H $                                         ",
"                                    O.c X . @ . . . . . . . > , . . . . . . . . . . , M o.                                      ",
"                                     .w.f.F , v n m A m n S n n A n n n A n n Z j H x.r.{                                       ",
"                                    | w.T.c.z Z.F.L.L.F.F.F.L.F.L.A.A.A.L.L.G.f.D b.H.e.{                                       ",
"                                  ..- > d.8.2 Z.P.G.G.G.G.G.G.G.P.P.G.G.G.P.I.s.j 0.4.@ - R                                     ",
"                                  i @ 3 . . + H H H H H H H H H H H H H H H K A . . . 2 > f                                     ",
"                                  t s.K.e.F > . . . . . . . . . . . . . . . . . l L a.G.5.0                                     ",
"                                  y M.I.G.c.l v.m.n.n.n.m.m.m.m.m.n.m.m.m.n.m.e.D b.G.Y.d.8                                     ",
"                                  f :.5.m.8.2 G.Y.U.U.U.U.U.U.U.U.U.U.I.I.U.Y.x.j z.v.e.H 9                                     ",
"                                  d . . . . , e.i.i.i.i.r.r.i.i.i.e.r.r.i.r.i.3.. > . . . a                                     ",
"                                  t u.m.m . . . . . . . . . . . . . . . . . . . @ . K J.3.8                                     ",
"                                  s x.G.8.:.2 5.e.4.1.5.5.5.5.5.5.5.5.5.1.5.u.K 2 >.s.G.p.8                                     ",
"                                  d x B V j x K.P.D.G.P.P.P.P.P.P.P.U.P.D.P.I.x.. z N B 5 i                                     ",
"                                  g OXrX:X;Xa z S Z.A.z.s.s.z.z.z.s.s.B.A.6.m h #.:X>XrX(..                                     ",
"                                  ~ 5 2XeX:XY . . m S k 2 j k k k 2 2 b S > . . &.wXeX%Xi ..                                    ",
"                                    . 6XrXC '.6 9.8.9.0.y.0.8.8.8.0.0.0.8.s.D $. X_ yX+Xr                                       ",
"                                    o.|.:X; E 1 V.F.Z.A.A.A.A.A.A.A.P.A.Z.P.2.* E W eX&X|                                       ",
"                                      X.T d   + Z.U.P.G.A.c.q.9.0.A.I.G.G.I.1.8   a ] %.                                        ",
"                                              # s.B.B.B.V.i.0 * m B.m.B.V.Z.;.&                                                 ",
"                                              = . . . . . . ..  o . . . . . . p                                                 ",
"                                              o v G S n M < @.  o l m G m S 2 q                                                 ",
"                                              o B.P.L.A.A.<.}   > y.Z.P.A.P.6.%                                                 ",
"                                              4 B.D.A.P.A.t.|   a q.Z.A.A.P.2.%                                                 ",
"                                              = v v b S b E     f k b b n S 2 e                                                 ",
"                                              o . . . . . e     - . . . . . . -                                                 ",
"                                              X s.J.B.c.>.e     9 L z.B.m.B.;.$                                                 ",
"                                              . B.I.I.D.9.9     0 >.A.I.P.I.2.%                                                 ",
"                                              u I ;.,.H k -       T L K K ;.V p                                                 ",
"                                                r . . . X i       s X . . $ o.                                                  ",
"                                          i u - 4 R # + O.          O.+ + R a = i f                                             ",
"                                        f . d ..4 = O . O.          O.. . ; O f R . d                                           ",
"                                        i . o = . . . . ..          O.. . . . o o . f                                           ",
"                                        d u u u i i u - O.          +.- u i i u u - ..                                          "
};
