/* XPM */
static char *exit_close_64[] = {
/* columns rows colors chars-per-pixel */
"64 64 197 2 ",
"   c None",
".  c #030304",
"X  c #080604",
"o  c #050807",
"O  c #060608",
"+  c #07080A",
"@  c #090A0C",
"#  c #0B0806",
"$  c #170F06",
"%  c #1B1308",
"&  c #0D0E12",
"*  c #0E1014",
"=  c #111216",
"-  c #1D1917",
";  c #14151A",
":  c #16181D",
">  c #191A1D",
",  c #24190C",
"<  c #2B1C0B",
"1  c #301F0C",
"2  c #2E200D",
"3  c #34240D",
"4  c #3C280E",
"5  c #382815",
"6  c #2D2719",
"7  c #161821",
"8  c #1C1D23",
"9  c #1E1F28",
"0  c #1F2025",
"q  c #1E2028",
"w  c #202226",
"e  c #23252C",
"r  c #27282E",
"t  c #292A2E",
"y  c #292422",
"u  c #262730",
"i  c #272931",
"p  c #2B2C35",
"a  c #2E2F38",
"s  c #312F30",
"d  c #2E3037",
"f  c #2F3139",
"g  c #323235",
"h  c #32333B",
"j  c #37383F",
"k  c #3A3B3C",
"l  c #422C0E",
"z  c #402C11",
"x  c #4B3212",
"c  c #573A14",
"v  c #603E13",
"b  c #5C481E",
"n  c #5E431A",
"m  c #6F4815",
"M  c #684919",
"N  c #7C571C",
"B  c #704915",
"V  c #594924",
"C  c #59502F",
"Z  c #464027",
"A  c #634B22",
"S  c #70582F",
"D  c #655733",
"F  c #776137",
"G  c #353740",
"H  c #363841",
"J  c #3B3C45",
"K  c #3C3E48",
"L  c #3D3F49",
"P  c #3E4048",
"I  c #3E4044",
"U  c #41424B",
"Y  c #40414A",
"T  c #42434C",
"R  c #44464F",
"E  c #46454E",
"W  c #45454D",
"Q  c #48464E",
"!  c #47484F",
"~  c #4A4B4E",
"^  c #474751",
"/  c #464751",
"(  c #474954",
")  c #474854",
"_  c #474A54",
"`  c #474852",
"'  c #484A52",
"]  c #484954",
"[  c #484954",
"{  c #484A55",
"}  c #494A55",
"|  c #4A4B55",
" . c #494B54",
".. c #4E4F5A",
"X. c #4F4F5A",
"o. c #4D4E59",
"O. c #4D4F58",
"+. c #494750",
"@. c #504F59",
"#. c #4F505B",
"$. c #4E5059",
"%. c #4E5057",
"&. c #515255",
"*. c #53545D",
"=. c #58585F",
"-. c #726F47",
";. c #767144",
":. c #565661",
">. c #565760",
",. c #585760",
"<. c #575861",
"1. c #5A5A62",
"2. c #5E5F68",
"3. c #5F606A",
"4. c #5F606A",
"5. c #5E6069",
"6. c #5F6069",
"7. c #5D6063",
"8. c #616266",
"9. c #60616A",
"0. c #62626B",
"q. c #63636C",
"w. c #6A6B6E",
"e. c #6C6E72",
"r. c #6D7075",
"t. c #75767A",
"y. c #7B7D7D",
"u. c #8A6427",
"i. c #8D712F",
"p. c #997E36",
"a. c #947535",
"s. c #99732B",
"d. c #A97B2A",
"f. c #B37D27",
"g. c #907F45",
"h. c #9D8039",
"j. c #AE822D",
"k. c #B3822E",
"l. c #BC8A2F",
"z. c #BB842B",
"x. c #A98334",
"c. c #B38A34",
"v. c #BA8B33",
"b. c #B38632",
"n. c #BD953A",
"m. c #C9922F",
"M. c #C18D30",
"N. c #C59234",
"B. c #CA9433",
"V. c #CD9A36",
"C. c #C39539",
"Z. c #C6983C",
"A. c #CA9C3C",
"S. c #D39D36",
"D. c #D29E39",
"F. c #CFA13F",
"G. c #D5A43D",
"H. c #DBA63B",
"J. c #D9A93E",
"K. c #E4AE3E",
"L. c #8D8244",
"P. c #9D9253",
"I. c #988442",
"U. c #A08E47",
"Y. c #BA9741",
"T. c #A79951",
"R. c #B9A04A",
"E. c #B1AA63",
"W. c #C69C42",
"Q. c #CBA544",
"!. c #DBAC44",
"~. c #D3A641",
"^. c #C5AE5A",
"/. c #C7B055",
"(. c #D8B754",
"). c #E3AD42",
"_. c #E3B444",
"`. c #EAB542",
"'. c #ECBB45",
"]. c #EABC4A",
"[. c #E8BF53",
"{. c #CDB966",
"}. c #EFC04A",
"|. c #F3C44C",
" X c #ECC556",
".X c #F6CB57",
"XX c #F4CA56",
"oX c #F7D667",
"OX c #7D7F82",
"+X c #7E8184",
"@X c #87888A",
"#X c #8E9091",
"$X c #969897",
"%X c #9FA1A4",
"&X c #A8AAAB",
"*X c #B6B7B8",
"=X c #C4C4C4",
/* pixels */
"  o O @ @ @ @ @ @ @ @ @ @ @ @ @ @ @ @ @ @ @ @ @ @ @ @ @ @ @ @ @ @ @ @ @ @ @ @ @ @ @ @ @ @ @ @ @ @ @ @ @ @ @ @ @ @ @ @ @ @ + o   ",
"O ; p a p f h h h h f h f f h h h h f f f f f f f f f f f f f f f f f f f f f f f f f f f f f f f f f f f f h h h h h f h p ; + ",
"& j 0.2.` >.0.0.0.0.0.0.0.4.0.0.0.4.4.4.0.0.0.0.0.4.4.4.0.4.4.4.4.4.4.4.4.4.4.4.2.2.4.4.4.4.4.4.4.4.4.4.4.4.4.0.0.0.>.[ 2.0.h & ",
"& H 2.@.[ X.#.X.X.X.X.#.X.X.X.X.X.X.X.X.X.X.X.X.X.X.X.X.X.X.#.X.X.X.X.#.X.X.X.X.X.X.X.X.X.X.X.X.X.X.X.X.X.X.X.X.#.X.X.[ #.2.G & ",
"& G >.[ [ [ [ [ [ [ [ [ [ [ [ ` ` ` ` ` ` ` ` ` [ [ [ [ [ [ [ [ [ [ [ [ [ [ [ [ ` ` ` ` ` ` ` ` ` ` ` ` ` ` ` ` ` ` [ [ [ >.G & ",
"& H >.[ [ [ [ [ [ [ [ [ [ [ [ [ [ [ [ [ [ [ [ [ [ [ [ [ [ [ [ [ [ [ [ [ [ [ [ [ ` [ [ [ [ ` ` ` [ [ [ [ [ [ [ ` [ [ [ [ [ >.h @ ",
"& f R H K K K K K K K K K K K K K K K K K K K K K K K K K K K K K K K K K K K K K K K K K H K K K K K K H K K H H K K H H R p @ ",
"@ 9 i e e e e e e e e e e e e e e e e e e e e e e e e e e e e e e e e e e e e e e e e e e e e e e e e e e e e e e e e e e e 7 O ",
"o & * & & & & & & & & & & & & & & & & & & & & & * & & & & & & & & * & & & & & & & & & & & & & & & & & & & & & & * * & & * * @ o ",
"o & 9 : : : = o O @ + ; ; = = ; ; ; ; ; = = = = ; ; ; ; ; = = = o o = ; = ; ; ; ; ; ; ; = = = = ; ; ; ; = = @ @ * * : : > 9 @ o ",
"& a ^ H K H p @ & ; & p h H P K R [ R R R R R R R R R R R R H h ; & h [ ` R R R ^ R R *.R R R R R R R H h p ; * 9 u H H H [ p @ ",
"& H >.R R ^ a @ & ; ; h R [ p e e p e e e e e e i e e e e p ` P 9 ; [ [ h e r p p e p p e e e r r e e r h H 9 & 9 p R R R 2.H & ",
"& K ,.R R R a @ & ; : H [ h O o o o @ & o o o o O @ @ o o X w R w > ! p & o o o @ @ o o o o o & O o o o > H 9 & 9 p R R R 2.H @ ",
"* K 2.R R R a @ & ; > H ^ 9 o     + p p @       & p 9 o     & R e > ! q O     o e p o       @ d =       > ` 9 * 9 p R R R 2.H @ ",
"* K 2.R R R a @ + & = h ^ 9 o     @ H h +       = R i o     & R e > ! e O     o h k o       = R ;       ; P ; & 9 p R R R 2.H @ ",
"* K 2.R R R a & = g w r R q o     @ R H +       = #.d o     * R e > [ e O     o h H o       = *.>       & t e h 9 p R R R 2.H @ ",
"& K ,.R R R f = = 9 ; > P q o     & ` P +       = #.d o     * R e > [ e O     o h H o       = *.>       @ 9 > > ; p R R R 2.H @ ",
"& K ,.R R R f = = 9 = : P w o     @ ` P @       ; X.p o     * R e > [ e O     o h H o       = *.>       @ 9 ; ; = p R R R 2.H @ ",
"& K ,.R R R f = = ; = : H q o     @ ` R @       ; *.d o     & R e > ~ e O     o h H o       = #.>       @ 9 = = = p R R R 2.H @ ",
"& K 2.R R R h = = t 9 9 H w o     @ ^ R @       ; *.h o     & R e > ~ e O     o j H o       = [ >       @ 9 9 p : p R R R 2.H & ",
"& K 2.R R R h & @ w ; 9 R w o     @ ^ P @       ; *.h o     * R e > [ q O     o h h o       = [ >       @ q ; w ; p R R R 2.H & ",
"& K 2.R R R h @ + @ = p ^ q o     @ ^ P +       ; #.d o     = R e > [ q O o   o 9 t o       = [ >       = h ; @ : p R R R 2.H & ",
"* K 2.R R R f @ * ; ; H [ q o     @ ^ P +       ; #.d o     = R e > [ 9 w y.$X#X&.> @       = #.>       ; R 9 = q p R R R 2.H @ ",
"* K 2.R R R f @ * ; ; H ` q o     @ ` P +       = #.f o     = [ e = 9 8.*X*X&X*X=X@Xr       = *.>       > [ 9 = q p R R R 2.H @ ",
"& K 2.R R R h @ * ; : H [ e o     & R H @       = #.f o     * P e & ~ *X#X&.H R t.&Xw.>     = *.>       9 X.9 = q p R R R 2.H @ ",
"& K 2.R R R h @ * : : H [ e o     & R H @       = *.f o     * H w r %X+Xd = o o t e.#Xk     = *.>       > [ q = q p R R R 2.H @ ",
"& K 2.R R R a @ * : : H [ e o     & R H @       = *.h o     & H 9 =.&Xh o     o ; h @Xw.q   = *.>       > [ q = q p R R R 2.H @ ",
"& K 2.R R R h @ * : : H X.w o     & R H +       = *.h o   = = > = 8.OXq @     o e t e.OX>   = *.>       > [ q = q p R R R 2.H @ ",
"& K 2.R R R h @ * : : H [ q o     & ` P +       ; #.h @ R *.[ [ e 7.r.q h t   o p g 2.t.>   = *.>       > [ 9 = q p R R R 2.H @ ",
"& K 2.R R R h @ * : : H H 9 o     & ^ P +       ; #.d > R h h h 9 2.e.9 9 t @ o h g &.t.>   = *.>       > [ 9 = q p R R R 2.H @ ",
"& K 2.R R R h @ * ; ; H ` w o     @ ^ P +       = #.d = h 9 > > @ t g = = 9 @ o e > t k *   = *.>       > [ q = q p R Q Q 2.H @ ",
"& K 2.R R R h @ * ; ; H [ e o     @ R P +       = #.p ; s F a.S C E.E.g.$ ; @ o 6 T.E.E.Z o = *.>       > [ q = q p R Q R 2.H & ",
"& K ,.R R R h @ & ; : H [ e o     & R P @       = #.p ; g D F F Y._..X XC @ o o D  X X[.h.z - #.>       > [ q = q p R R R 2.H & ",
"& H ,.R R R h @ & ; ; H [ e o     & R K @       = #.d ; h q = P.Q.v.H..X{.-.-.;.(.`.G.Z./.V 3 ` >       > [ 9 = q p R R R 2.H & ",
"* K 2.R R R h @ * ; ; H [ e o     & R K @       = X.p ; h p ; P.Z.b.G.|..XoXoX.X`._.v.k.^.A 2 R >       > [ 9 = q p R R R 2.H @ ",
"* K 2.R R R h @ * : : H [ e o     & R P @       = [ p = H p ; P.~.G.`.|.|.|.].`.`.K.D.M.^.V 2 R >       > [ 9 = q p R R R 2.H @ ",
"* P =.R R R h @ * : ; H [ w o     @ R P @       = [ p ; H p ; P.A.N.G.|.}.b.s._.`.S.M.N./.V 2 R >       > [ q = q p R R R 2.H @ ",
"* P 2.R R R f @ * ; ; H [ w o     @ R P @       = [ p ; H p ; I.A.!.].|.Y.3 $ a._.).!.Q.R.b 2 R >       > ` q = q p R R R 2.H @ ",
"* K ,.R R R d @ * ; ; H [ w o     @ R P @       = [ d @ p p 9 p.Q.(.G.|.a.X o A ).S.~.~.Y.b 2 P >       > ` 9 = q p R R R 2.H @ ",
"& K 2.R R R p @ * ; ; H [ w o     @ R P @       = #.d o @ * @ p.N.b.k.`.Q.4 $ x._.V.k.l.A.M 2 P >       > ` 9 = q p R R R 2.H & ",
"& K ,.R R R h @ * ; : H ` e o     @ R P @       = #.p o     o i.M.D.N.S.J.c , v.H.V.S.z.n.n , R >       > ^ 9 = 9 p R Q R 2.H & ",
"& K 2.R R R h @ * ; ; H ` e o     @ R P @       = #.f o     o M V.A.V.V.V.c $ f.S.S.V.l.f.x = [ >       : R 9 = 9 p R Q R 2.H @ ",
"& K 2.R R R h @ * ; ; H ` w o     & R P @       = #.d o     @ 5 j.V.H.z.F.U.L.W.d.m.V.N.N l = X.>       = H 9 * 9 p R Q R 2.H @ ",
"& K 2.R R R h @ + * = p ^ w o     & R P +       = #.d o     & - N Z.N.f.N.F.!.Z.f.f.V.d.c $ = [ >       = h ; = > p R Q R 2.H & ",
"& P 2.R R R f * = d e e R q o     @ R P @       = #.d o     & h 5 u.W.N.N.S.S.N.V.v.d.M c # = [ >       @ e t h > p R Q R 2.H & ",
"& K 2.R R R f = = > ; > R q o     @ R P @       = #.d o     = R w 1 M v.n.b.j.b.v.u.x 4 <   = [ >       @ 9 > : ; p R Q Q 2.H & ",
"* K 2.R R R f = ; 9 = > R q o     @ R P @       = #.d o     = ` e @ y 3 M B m m v 3 <       = [ >       & 9 ; ; ; p R Q R 2.H @ ",
"& K 2.R R R h = & > ; 9 R q o     @ R P @       = X.p o     = [ e ; H > , < < < % & o       = [ >       @ > = ; = p R Q R 2.H @ ",
"& H 2.R R R h & = p w t R 9 o     @ R R @       = X.p o     = [ t > R e O     o e r o       = [ >       @ 9 9 p ; p R Q R 2.H @ ",
"& H 2.R R R h @ o @ = p ^ w o     & R P @       = X.p o     = [ t 9 *.q O     o h h o       * ^ >       ; h = & = p R Q R 2.H @ ",
"& H =.R R R f @ * ; ; h ` h o o o & H h + o o o * ` p + o o ; [ r > %.r @ o o + p h o o o o * H ; o o o > ` 9 & 9 p R R R 2.H @ ",
"& H *.R R R f @ * : ; h H R e e e q > 9 e r r e q q q r e e H [ q > *.R p e e e q q e e e r e q 9 e e i H P 9 = 9 p R R R 2.H @ ",
"& H *.R R R f @ * ; ; j H H ` [ [ ` R *.2.2.2.2.2.=.2.2.2.2.*.H 9 ; R 2.*.*.<.2.=.=.*.[ *.<.2.2.[ R [ 2.[ H 9 = 9 p R R R 2.H @ ",
"& H =.R R Q h @ & ; ; h d p h h h h h h h h h h h h h h h h f r = = p f h h h h h h h h h h h h h h h h h f > & 9 p R ^ Q 2.H & ",
"@ e d e r t > o o o o @ o o @ @ O O @ @ @ @ @ @ + O O O @ @ @ o o o O O @ @ @ @ @ @ @ @ @ @ @ @ @ @ @ O + O o o O : t t t g q O ",
"o @ 9 9 9 9 9 9 9 9 9 9 9 9 9 9 9 9 9 9 9 9 9 9 9 9 9 9 9 9 9 9 9 9 9 9 9 9 9 9 9 9 9 9 9 9 q q q w q 9 w w w 9 9 9 9 9 9 > O o ",
"O e *.*.R [ X.*.*.*.*.*.*.*.*.*.*.*.[ X.*.*.*.*.*.*.*.*.*.*.>.>.*.*.*.*.>.*.X.X.[ *.<.>.>.>.2.2.2.2.2.2.>.[ X.>.>.>.[ ^ *.*.e O ",
"& H 0.2.@.*.,.2.2.2.2.2.2.2.2.2.2.2.*.2.2.2.2.2.2.2.2.2.2.2.2.2.2.2.2.2.2.2.2.<.2.4.2.2.2.2.4.4.2.2.2.4.2.*.*.2.0.2.*.X.2.0.H & ",
"& H ,.^ ^ R R R R R R R ^ ^ ^ ^ ^ ` [ [ ` [ [ [ [ [ [ [ [ [ [ [ [ [ [ [ [ [ [ [ [ [ ` [ [ [ [ [ [ [ [ [ [ [ [ [ [ [ ` [ [ 2.G @ ",
"& G *.^ ^ ^ R R R R R R ^ ^ ^ ` [ [ [ [ [ [ [ [ [ [ [ [ [ [ [ [ [ [ [ [ [ [ [ [ [ [ [ [ [ [ [ [ [ [ [ [ [ [ [ [ [ [ [ [ [ <.h @ ",
"& h *.R R R R R R R R R R R R ^ ^ ^ ^ ^ ` ` ` ` ` ` ` ` ` ` ` ` ` ` ` ` ` ` ` ` ` ^ ` ` ` ` ` ` ^ ` ` ` ` ` ` ` ` ^ ^ ^ ^ *.h @ ",
"@ 9 p e e e e e e u u i i i p p p p p p p p p p p p p p p p p p p p p p p p p p p p p p p p p p p p p p p p p p p p p p p p 7 O ",
"o = 9 9 9 9 9 9 9 9 9 9 9 9 9 9 9 9 9 9 9 9 9 9 q 9 9 q q q q 9 9 9 9 q q 9 9 9 9 9 q q 9 9 9 q 9 q q q q q q q q q q q q 9 & o ",
"@ o o o o o o o o o o o o o o o o o o o O O O O O O O O O O O O O O O O O O O O O O O O O O O O O O O O O O O O O O O O O O o = "
};
