/* XPM */
static char *collectible_64[] = {
/* columns rows colors chars-per-pixel */
"64 64 184 2 ",
"   c None",
".  c #020404",
"X  c #040907",
"o  c #060B0B",
"O  c #090D0E",
"+  c #07100E",
"@  c #08120F",
"#  c #0C190E",
"$  c #070F10",
"%  c #0B1413",
"&  c #0C1A13",
"*  c #0D1D1A",
"=  c #141A18",
"-  c #211E19",
";  c #0F211A",
":  c #162514",
">  c #1C2C16",
",  c #12251A",
"<  c #142B1E",
"1  c #182C1C",
"2  c #1B331E",
"3  c #25231E",
"4  c #24321B",
"5  c #253A1D",
"6  c #1A1E21",
"7  c #1E2024",
"8  c #152D21",
"9  c #173222",
"0  c #193523",
"q  c #1C3B25",
"w  c #1E3F28",
"e  c #202327",
"r  c #26282A",
"t  c #233825",
"y  c #2A2E33",
"u  c #33383E",
"i  c #433D32",
"p  c #1F4126",
"a  c #1F4028",
"s  c #234526",
"d  c #224827",
"f  c #214529",
"g  c #254B2A",
"h  c #284F2A",
"j  c #314827",
"k  c #2A532C",
"l  c #2D592E",
"z  c #33572E",
"x  c #345A2D",
"c  c #3B5A2C",
"v  c #384833",
"b  c #2F5930",
"n  c #325E30",
"m  c #3D5436",
"M  c #396B2F",
"N  c #33652D",
"B  c #356131",
"V  c #3B6B32",
"C  c #396733",
"Z  c #3E7232",
"A  c #415D2E",
"S  c #484736",
"D  c #435C34",
"F  c #45583B",
"G  c #544B3B",
"H  c #456C34",
"J  c #4D6C36",
"K  c #516C37",
"L  c #437335",
"P  c #4C7437",
"I  c #457835",
"U  c #497B36",
"Y  c #437538",
"T  c #4A7C39",
"R  c #4F733A",
"E  c #58783B",
"W  c #393E44",
"Q  c #3C4146",
"!  c #3E4248",
"~  c #42474E",
"^  c #4D5941",
"/  c #5E5642",
"(  c #464B51",
")  c #484F56",
"_  c #4D535B",
"`  c #685E47",
"'  c #4E6741",
"]  c #58644C",
"[  c #5C7D40",
"{  c #6C644C",
"}  c #6F684F",
"|  c #72654F",
" . c #607D42",
".. c #6D6954",
"X. c #736950",
"o. c #7A7556",
"O. c #555B63",
"+. c #585E66",
"@. c #5C626A",
"#. c #767961",
"$. c #8C7E5D",
"%. c #867858",
"&. c #4E813B",
"*. c #54853C",
"=. c #5A8A3F",
"-. c #58833F",
";. c #5B8C41",
":. c #568946",
">. c #638E42",
",. c #639344",
"<. c #6A9447",
"1. c #679846",
"2. c #6E9A4A",
"3. c #6D9748",
"4. c #729D4B",
"5. c #6A9557",
"6. c #74A34D",
"7. c #7BA84F",
"8. c #7AA74F",
"9. c #7CA651",
"0. c #7EA952",
"q. c #77A250",
"w. c #7C816B",
"e. c #6B9066",
"r. c #7B9979",
"t. c #8F845D",
"y. c #80AC52",
"u. c #84B155",
"i. c #89B456",
"p. c #8AB65A",
"a. c #93BD5B",
"s. c #8B886D",
"d. c #948960",
"f. c #9E8E67",
"g. c #958563",
"h. c #9C926B",
"j. c #838A70",
"k. c #938D71",
"l. c #969779",
"z. c #A39269",
"x. c #A9996E",
"c. c #A89B72",
"v. c #9AA87D",
"b. c #AFA27A",
"n. c #B4A374",
"m. c #BFAE7B",
"M. c #B6A77B",
"N. c #C2B27E",
"B. c #97C25C",
"V. c #9AC45E",
"C. c #9DC85F",
"Z. c #9DC860",
"A. c #A5CE63",
"S. c #A7D064",
"D. c #A8D164",
"F. c #ADD276",
"G. c #A5C97D",
"H. c #9BBE81",
"J. c #AEA98B",
"K. c #B6AB83",
"L. c #ABB08E",
"P. c #C9B986",
"I. c #C5BB90",
"U. c #B3D580",
"Y. c #CCC49B",
"T. c #D7CD9E",
"R. c #D2C594",
"E. c #DAD09D",
"W. c #CCCAA2",
"Q. c #D6CDA2",
"!. c #DDD3A5",
"~. c #EEDEA2",
"^. c #E4DCAC",
"/. c #E6DAA6",
"(. c #F0DFA1",
"). c #CCE2A9",
"_. c #E9E0AF",
"`. c #F1E1A4",
"'. c #F1E4AA",
"]. c #F5E8AE",
"[. c #EDE5B4",
"{. c #F3E7B0",
"}. c #F2E9B6",
"|. c #CEDEC5",
/* pixels */
"                                                                                                                                ",
"                                                                                                                                ",
"                                                                                                                                ",
"                                                                                                                                ",
"                                                                                                                                ",
"                                                                                                                                ",
"                                                                                                                                ",
"                                                                                                                                ",
"                                                                                                                                ",
"                                                                                                                                ",
"                                                                                                                                ",
"                                                                                                                                ",
"                                                                                                                                ",
"                                                                                                                                ",
"                                                                                                                                ",
"                                                                                                                                ",
"                                                                                                                                ",
"                                                                  X 5 c > X                                                     ",
"                                                              . : H ,.*.=.H > .                                                 ",
"                                                          . : J ,.&.I ;.V *.,.J 4 .                                             ",
"                                                    . - S s U *.Y ,.a.A.i.,.I =.>.E j X                                         ",
"                                                . 3 ` b.E.v.m q Y Z.D.A.S.A.B.7.U T <.K 4 X                                     ",
"                                              - { M.^.{.'.'.T.l.] R i.A.S.A.S.S.V.7.*.U >.P 4 .                                 ",
"                                        . & j F c.^.'.~.~.~.`.].^.l.F E a.S.S.A.A.A.p.e.N U 4.E 4                               ",
"                                    X : A <.;.V m o.I.~.`.~.~.~.`.'.Q.w.F <.V.S.D.C.5.r.Y 4.a.u.H #                             ",
"                                X > H 2.,.U *.i.i.E F s.Q.'.`.~.~.~.`.'.Y.j.' 3.i.1.M *.p.u.=.&.B &                             ",
"                            . > E 2.*.I V 1.A.A.S.A.i. .^ s.T.`.(.~.~.~.`.{.W.#.z M 8.y.,.*.V g 0 @                             ",
"                            & H y.,.N I Z =.A.A.A.A.S.A.0.D S k./.`.(.~.~.~.`.}.L.v P ;.T k q q q &                             ",
"                            % f H 4.0.*.N ,.B.S.A.A.A.A.S.V.4.D ] K.~.`.~.'.}.[._.k.x B q q s a q &                             ",
"                            @ 8 f C ;.0.0.*.I 6.V.S.A.F.).U.S.i.x t ..Y.}.[.^.!.R.h.2 q g g q q < X                             ",
"                            @ 8 0 a l Y ,.u.q.T *.u.Z.G.|.H.1.I M -.K v J.^.R.M.n.d.0 g s a 0 < q &                             ",
"                            + 8 9 9 0 f n Y ,.u.4.U *.,.:.Z Z ,.y.y.6.z #.P.c.n.N.d.2 a 0 , 0 k g &                             ",
"                            X & < 9 9 9 q f n T 2.u.2.Y I <.i.y.1.,.*.s X.P.N.N.N.d.1 < 2 g h f 0 @                             ",
"                            + q 0 ; 8 9 9 0 q f n &.0.p.a.p.6.,.Y l d , X.P.N.N.M.t.1 g g f a q 9 @                             ",
"                            @ 8 f f < ; < 9 9 0 q g V ;.6.,.Y k a s k 2 X.P.M.n.x.$.t f q q 0 0 < O                             ",
"                            + 8 0 q f f < ; < 0 9 q q z T k a g l l k 2 } N.x.z.z.%.1 q q 0 < & % 7                             ",
"                            @ 8 9 0 0 q f f < ; 0 q < < g s k k k k q % { n.g.g.z.o.< q 8 & % y ~                               ",
"                            X * 0 q 9 0 0 q g s < < < < g g g g q < q 1 { n.g.g.$.` & % % r ) @.                                ",
"                            O X % , 0 q 0 0 q f k 0 % ; s s 0 < s B l , { x.$.%.X.i % y _ @.                                    ",
"                              y 6 O % , 0 q 0 q w g s & , < s B B g a , / g.| S r y _ @.                                        ",
"                                _ u = X % < q a q q g h x n k g f s q , i G 3 r ( @.                                            ",
"                                    _ u % X * 8 q q q f l f a q q q < @ O r ( @.                                                ",
"                                      @.) y O $ * 8 q 0 f s q q 8 & X 7 Q O.                                                    ",
"                                          O.~ r O % ; 8 a q < % O 6 Q +.                                                        ",
"                                              O.Q = X % , % O e ! O.                                                            ",
"                                                  O.W 6 6 r ( +.                                                                ",
"                                                                                                                                ",
"                                                                                                                                ",
"                                                                                                                                ",
"                                                                                                                                ",
"                                                                                                                                ",
"                                                                                                                                ",
"                                                                                                                                ",
"                                                                                                                                ",
"                                                                                                                                ",
"                                                                                                                                ",
"                                                                                                                                ",
"                                                                                                                                ",
"                                                                                                                                ",
"                                                                                                                                ",
"                                                                                                                                ",
"                                                                                                                                ",
"                                                                                                                                ",
"                                                                                                                                "
};
