/* XPM */
static char *border_top_bot[] = {
/* columns rows colors chars-per-pixel */
"64 64 141 2 ",
"   c None",
".  c #030404",
"X  c #070807",
"o  c #080806",
"O  c #070708",
"+  c #08070B",
"@  c #070808",
"#  c #0B0C0D",
"$  c #0E0E11",
"%  c #0F1012",
"&  c #111113",
"*  c #151619",
"=  c #17191A",
"-  c #191A1E",
";  c #1D1E22",
":  c #1E2024",
">  c #202125",
",  c #24262C",
"<  c #262A2F",
"1  c #28292F",
"2  c #272A30",
"3  c #2B2D34",
"4  c #2D3035",
"5  c #2E3138",
"6  c #33353B",
"7  c #37393E",
"8  c #383B3F",
"9  c #363941",
"0  c #363940",
"q  c #3A3E45",
"w  c #3B3F46",
"e  c #3B3F47",
"r  c #3C3F47",
"t  c #3B3D45",
"y  c #3C3F48",
"u  c #3B4046",
"i  c #3B4047",
"p  c #3C4047",
"a  c #3C4047",
"s  c #3C4048",
"d  c #3D4048",
"f  c #3C4148",
"g  c #3D4049",
"h  c #3D4149",
"j  c #3E4149",
"k  c #40464E",
"l  c #434950",
"z  c #434951",
"x  c #434A50",
"c  c #434A51",
"v  c #434952",
"b  c #434A52",
"n  c #444851",
"m  c #444951",
"M  c #454951",
"N  c #444A51",
"B  c #444B51",
"V  c #444852",
"C  c #454852",
"Z  c #444952",
"A  c #454952",
"S  c #444953",
"D  c #454953",
"F  c #444A52",
"G  c #454A52",
"H  c #444B52",
"J  c #444A53",
"K  c #454A53",
"L  c #474A53",
"P  c #474B53",
"I  c #444A53",
"U  c #494B55",
"Y  c #494C55",
"T  c #4A4D56",
"R  c #4B4F57",
"E  c #4C4F57",
"W  c #4A4D55",
"Q  c #4B4F58",
"!  c #4D4F58",
"~  c #4D5057",
"^  c #4F565D",
"/  c #4F565E",
"(  c #4D5059",
")  c #51545B",
"_  c #50565D",
"`  c #50575D",
"'  c #53575D",
"]  c #50555E",
"[  c #50565E",
"{  c #51565E",
"}  c #50575E",
"|  c #51565F",
" . c #54575F",
".. c #54575E",
"X. c #54585D",
"o. c #55585E",
"O. c #575C62",
"+. c #595E64",
"@. c #5C6067",
"#. c #5D6067",
"$. c #5C6167",
"%. c #5C6166",
"&. c #5E6169",
"*. c #5D616B",
"=. c #5F646D",
"-. c #5F646E",
";. c #5C636B",
":. c #60646D",
">. c #60656E",
",. c #61646D",
"<. c #646972",
"1. c #656972",
"2. c #656973",
"3. c #656A72",
"4. c #666A74",
"5. c #656973",
"6. c #686E75",
"7. c #696E75",
"8. c #696F75",
"9. c #696D76",
"0. c #686E76",
"q. c #696E76",
"w. c #686F76",
"e. c #696F76",
"r. c #6A6E76",
"t. c #6A6F76",
"y. c #6A6F77",
"u. c #696E77",
"i. c #6A6F78",
"p. c #6B6F78",
"a. c #6A7076",
"s. c #6B7077",
"d. c #6B7079",
"f. c #6D717B",
"g. c #6C7078",
"h. c #70757F",
"j. c #70767F",
"k. c #717680",
"l. c #717780",
"z. c #727780",
"x. c #757882",
/* pixels */
"& & & & & & & & & & & & & & & & & & & & & & & & & & & & & & & & & & & & & & & & & & & & & & & & & & & & & & & & & & & & & & & & ",
"a.t.t.t.t.t.t.t.t.t.t.t.t.t.t.t.t.t.t.t.t.t.t.t.t.t.t.t.t.t.t.t.t.t.t.t.t.t.t.t.t.t.t.t.t.t.t.t.t.t.t.t.t.t.t.t.t.t.t.t.t.t.t.t.",
"| | | | | | | | | | | | | | | | | | | | | | | | | / / / / / | | | / / / / | | | | / / / | | | | / / | | | | | | | | | | | | | | ",
"N N N N N N N N N N N N N N N N N N N N N N N N N N N N N N N N N N N N N N N N N N N N N N N N N N N N N N N N N N N N N N N N ",
"N N N N N N N N N N N N N N N N N N N N N N N N N N N N N N N N N N N N N N N N N N N N N N N N N N N N N N N N N N N N N N N N ",
"N N N N N N N N N N N N N N N N N N N N N N N N N N N N N N N N N N N N N N N N N N N N N N N N N N N N N N N N N N N N N N N N ",
"N N N N N N N N N N N N N N N N N N N N N N N N N N N N N N N N N N N N N N N N N N N N N N N N N N N N N N N N N N N N N N N N ",
"N N N N N N N N N N N N N N N N N N N N N N N N N N N N N N N N N N N N N N N N N N N N N N N N N N N N N N N N N N N N N N N N ",
"h h h h h h p p p h h h p p p h h h h p p h h h y y p h p h h h h p p p p p p p q q p h q q q q p q q q h h q q p p p h h h h p ",
"; ; ; : : : ; ; ; > : : ; ; : > : ; ; : : ; : ; ; : : ; ; ; : : : ; ; : : : ; ; ; : ; ; ; ; ; ; ; ; ; : > : ; ; ; : : ; ; ; : : ",
"+ . . . . . . . . + + @ . . . . . . . . + + . . . . . . . . . + + . . . . . . . . + + . . . . . . . . . + + . . . . . . . . . + ",
", .               & 3 ; .             . ; 3 &               @ , , +               & 3 - .             . ; 3 $               + , ",
"< +               & 3 : .             . ; 3 &               @ < 2 +               & 3 ; .             . ; 3 &               @ , ",
"< +               - q > .             . 1 6 &               + 9 3 O               - 9 ; .             . 4 6 &               + 6 ",
", O               6 1.: .             . | T %               - t.6 .               6 ;.- .             . %.T $               * f.",
", O               6 1.; .             . | Q %               - f.6 .               7 :.- .             . ;.T $               - z.",
", O               6 1.; .             . o.T %               - f.6 .               7 ;.- .             . %.N $               - j.",
", O               6 1.; .             . | T &               = i.6 .               8 ;.- .             . +.N $               = j.",
", O               6 1.; .             . | T &               = t.5 .               8 :.- .             . %.N $               = z.",
", O               6 1.; .             . | T &               = a.5 .               q :.- .             . %.T $               = z.",
", O               6 1.; .             . | ~ %               = f.6 .               q :.- .             . %.T $               = z.",
", O               6 1.; .             . o.~ %               = f.6 .               q :.- .             . %.N $               - z.",
", O               6 1.; .             . o.~ %               = i.6 .               8 :.- .             . %.T $               - z.",
", O               6 1.; .             . | ~ $               = i.6 .               8 :.- .             . %.T $               = z.",
", O               6 1.: .             . | T &               - t.6 .               8 ;.- .             . %.T $               = z.",
", O               6 1.: .             . | T %               = i.6 .               8 ;.- .             . %.N $               = z.",
", O               6 1.; .             . | T %               = f.5 .               q :.- .             . %.N $               = z.",
", O               6 1.; .             . | T %               = t.6 O               q :.- .             . ;.N $               - x.",
", O               6 1.; .             . | T %               = t.5 O               q :.- .             . ;.N $               - x.",
", O               < / ; .             . k h &               & | 3 O               3 Q - .             . k q $               & +.",
", O               ; y ; .             . 3 9 &               + y 3 O               ; q - .             . 6 6 $               $ h ",
", O               ; h ; .             . 4 9 &               + h 3 .               ; q - .             . 6 6 %               + h ",
", O               ; h ; .             . 3 9 &               + p 3 @               ; q - .             . 6 6 %               + h ",
", O               ; h ; .             . 3 9 &               + h 3 @               ; q - .             . 6 6 %               $ h ",
", O               ; h ; .             . 3 9 &               + h 3 O               ; q - .             . 6 6 $               + h ",
", O               ; h ; .             . 3 9 &               + h 3 O               ; q - .             . 6 6 $               + h ",
", O               ; h ; .             . 3 9 &               + h 3 O               ; q - .             . 6 6 $               + h ",
", O               ; h ; .             . 3 9 &               + h 3 O               ; q - .             . 6 6 $               + h ",
", O               ; h ; .             . 3 7 &               + h 3 O               ; q - .             . 6 6 $               + h ",
", O               ; h ; .             . 3 9 &               + h 3 .               ; q - .             . 6 6 %               + h ",
", O               ; h ; .             . 3 9 &               + h 3 .               : q - .             . 6 6 $               + h ",
", O               ; h ; .             . 3 9 &               + p 3 O               ; q - .             . 6 6 $               + h ",
", @               ; h ; .             . 3 9 &               + p 3 O               ; q - .             . 6 6 $               $ h ",
", @               ; h ; .             . 3 9 &               + y 3 O               ; q - .             . 6 6 $               $ h ",
", O               ; h ; .             . 3 9 &               + h 3 .               ; q - .             . 6 6 $               $ h ",
", O               ; h ; .             . 4 9 &               $ y 3 .               : q - .             . 6 6 $               $ h ",
", O               ; h ; .             . 4 9 &               $ y 2 .               : q - .             . 6 6 $               + h ",
", O               = 6 ; .             . < 6 &               + 6 2 .               - 6 - .             . < 4 %               + 6 ",
", @               & 4 : .             . ; 3 &               @ < < @               & 3 ; .             . ; 3 %               @ , ",
"< @               & 5 : .             . ; 3 &               + 2 2 O               * 3 ; .             . : 3 %               + , ",
"< +               & 5 : .             . ; 5 &               + 2 < O               & 3 ; .             . : 3 $               + , ",
", +               & 3 ; .             . ; 3 &               + 2 , O               * 3 ; .             . : 3 $               + < ",
": O               & 2 - .             . ; 2 $               + , , O               & 2 = .             . ; , $               + , ",
"+ O + o . . . . O O + + O @ O . . . @ O + + @ + . . X X . . O $ + . @ . . . . . O @ + + O @ . . . X O . + + O O . . . . O O . + ",
"%.+.+.+.%.%.+.+.+.+.%.%.%.O.+.+.%.+.+.%.%.%.;.+.+.%.%.%.+.+.+.%.%.%.+.+.+.%.%.%.%.%.%.;.+.O.+.%.%.+.+.+.%.%.%.+.+.+.+.%.+.+.+.+.",
";.;.;.;.;.;.;.;.;.;.;.;.;.;.;.;.;.;.;.;.;.;.;.;.;.;.;.;.;.;.;.;.;.;.;.;.;.;.;.;.;.;.;.;.;.;.;.;.;.;.;.;.;.;.;.;.;.;.;.;.;.;.;.;.",
"N N N N N N N N N N N N N N N N N N N N N N N N N N N N N N N N N N N N N N N N N N N N N N N N N N N N N N N N N N N N N N N N ",
"N N N N N N N N N N N N N N N N N N N N N N N N N N N N N N N N N N N N N N N N N N N N N N N N N N N N N N N N N N N N N N N N ",
"N N N N N N N N N N N N N N N N N N N N N N N N N N N N N N N N N N N N N N N N N N N N N N N N N N N N N N N N N N N N N N N N ",
"N N N N N N N N N N N N N N N N N N N N N N N N N N N N N N N N N N N N N N N N N N N N N N N N N N N N N N N N N N N N N N N N ",
"N N N N N N N N N N N N N N N N N N N N N N N N N N N N N N N N N N N N N N N N N N N N N N N N N N N N N N N N N N N N N N N N ",
"k k k k k k k k k k k k k k k k k k k k k k k k k k k k k k k k k k k k k k k k k k k k k k k k k k k k k k k k k k k k k k k k ",
"< 2 2 2 2 2 2 2 2 2 2 2 2 2 2 2 2 2 2 2 2 2 2 2 2 2 2 2 2 2 2 2 2 2 2 2 2 2 2 2 2 2 2 2 2 < < 2 2 2 2 2 2 < 2 2 2 2 2 2 < 2 2 2 ",
". . O O O O O . O O O O . O O . O O O O . . . . O O O O . . . . . O O O . . . . O O O O . . . O O O O . . . O O O O O O . . O O "
};
