/* XPM */
static char *collectible[] = {
/* columns rows colors chars-per-pixel */
"64 64 183 2 ",
"   c #0C1414",
".  c #0D1D17",
"X  c #121716",
"o  c #151B1B",
"O  c #0E201A",
"+  c #13231B",
"@  c #132B1D",
"#  c #1D291D",
"$  c #16311D",
"%  c #25391F",
"&  c #152D20",
"*  c #173121",
"=  c #193422",
"-  c #1C3B25",
";  c #1E3E28",
":  c #262A2B",
">  c #263324",
",  c #293D26",
"<  c #38342D",
"1  c #2B2E30",
"2  c #2F3032",
"3  c #36383A",
"4  c #1F4126",
"5  c #214326",
"6  c #244A27",
"7  c #224529",
"8  c #254B2A",
"9  c #284F2C",
"0  c #394C2B",
"q  c #2B542D",
"w  c #2D562C",
"e  c #31542E",
"r  c #335D2E",
"t  c #395F31",
"y  c #3D6B31",
"u  c #3F7433",
"i  c #474937",
"p  c #494836",
"a  c #544C3D",
"s  c #455532",
"d  c #465936",
"f  c #4A5B36",
"g  c #436935",
"h  c #50673C",
"j  c #477537",
"k  c #4C7937",
"l  c #4E7C3A",
"z  c #567A3B",
"x  c #414344",
"c  c #564F42",
"v  c #5A5444",
"b  c #585E47",
"n  c #575859",
"m  c #5D5D5C",
"M  c #615644",
"N  c #5C7646",
"B  c #66684E",
"V  c #72654D",
"C  c #6E6A54",
"Z  c #6C655B",
"A  c #796D57",
"S  c #697758",
"D  c #6A6967",
"F  c #787567",
"G  c #887C5C",
"H  c #917657",
"J  c #8B7B66",
"K  c #877E72",
"L  c #4F813A",
"P  c #54843C",
"I  c #5B853E",
"U  c #5B8242",
"Y  c #598547",
"T  c #5D8C41",
"R  c #668347",
"E  c #608F45",
"W  c #649345",
"Q  c #6A9A48",
"!  c #73994A",
"~  c #668555",
"^  c #74A24C",
"/  c #7BA64E",
"(  c #7BA94F",
")  c #7AA651",
"_  c #7EAA50",
"`  c #678B64",
"'  c #83AD53",
"]  c #8AB556",
"[  c #94BF5B",
"{  c #8C8161",
"}  c #938A66",
"|  c #9B8C65",
" . c #90816B",
".. c #8E867B",
"X. c #A28A66",
"o. c #A68B64",
"O. c #AA8F6B",
"+. c #AC916E",
"@. c #A6986C",
"#. c #B2936D",
"$. c #A18E74",
"%. c #AE9470",
"&. c #AA9878",
"*. c #B39672",
"=. c #B69974",
"-. c #B79C79",
";. c #BB9E7A",
":. c #89B166",
">. c #BEA17D",
",. c #B8A878",
"<. c #C1A37E",
"1. c #C2B17E",
"2. c #9AC45E",
"3. c #9AC172",
"4. c #A4CE63",
"5. c #A7D064",
"6. c #A8D165",
"7. c #ABCF7B",
"8. c #B0D577",
"9. c #928B82",
"0. c #999185",
"q. c #A69884",
"w. c #A89E90",
"e. c #9FA180",
"r. c #AAA884",
"t. c #BDA381",
"y. c #B4A48B",
"u. c #BAA68B",
"i. c #B8A98B",
"p. c #B6B089",
"a. c #A9A295",
"s. c #B9AC99",
"d. c #BEB3A0",
"f. c #C2A681",
"g. c #C5A985",
"h. c #C8AB86",
"j. c #C6AC89",
"k. c #CAAE8A",
"l. c #C3B587",
"z. c #CDB28D",
"x. c #D0B58F",
"c. c #CEB491",
"v. c #C7B49A",
"b. c #CBB99F",
"n. c #D1B692",
"m. c #D4B995",
"M. c #D8BC97",
"N. c #D6BD9A",
"B. c #D9BE9A",
"V. c #C3B6A2",
"C. c #D3BEA2",
"Z. c #D2C798",
"A. c #D5C29C",
"S. c #DCC19E",
"D. c #D6C1A3",
"F. c #DEC5A1",
"G. c #DFC8A6",
"H. c #DAC6A9",
"J. c #DAD0AE",
"K. c #E1C7A4",
"L. c #E1C8A5",
"P. c #E5CCA9",
"I. c #E8CFAD",
"U. c #E3D9A6",
"Y. c #EDDEA2",
"T. c #E7D0AE",
"R. c #E9D1AF",
"E. c #F0DFA1",
"W. c #E6D1B0",
"Q. c #EBD4B3",
"!. c #E5DDB0",
"~. c #EED8B7",
"^. c #EDD7B8",
"/. c #EED9B9",
"(. c #F0D8B7",
"). c #F1DCBC",
"_. c #CFE1BE",
"`. c #EEE1AA",
"'. c #F2E2A5",
"]. c #F2E4AA",
"[. c #ECE4B3",
"{. c #F3DFC0",
"}. c #F5E1C2",
/* pixels */
"#.=.#.*.#.=.=.*.*.=.=.=.=.;.>.;.g.F.F.F.K.L.P.L.K.K.L.P.R.P.P.n.=.z.z.k.h.k.g.f.;.*.#.#.#.#.X.X.X.+.O.*.<.>.>.f.k.k.k.g.f.<.f.<.",
"#.m.S.S.S.S.S.S.F.P.T.P.P.P.Q.F.m.R.I.P.L.I.Q.P.P.K.R.Q.Q.R.Q.F.m.R.R.R.P.R.Q.Q.P.F.S.K.L.K.F.z.;.L.K.K.K.K.L.L.P.P.P.P.P.L.P.F.",
"=.L.L.K.K.S.B.N.F.L.T.R.Q.Q.~.F.m.P.L.P.L.P.Q.P.P.L.P.P.P.P.Q.L.m.P.P.P.L.P.Q.Q.I.P.L.P.P.P.Q.m.;.P.P.B.M.M.S.P.P.L.K.K.L.P.R.K.",
"t.P.K.L.F.B.B.N.m.N.L.L.T.Q.Q.F.n.P.K.K.K.L.R.P.L.K.L.L.F.L.Q.L.m.P.P.P.P.R.Q.R.R.P.L.P.I.I.Q.n.;.L.S.M.B.M.B.L.L.K.S.S.K.L.R.K.",
"<.P.F.F.F.S.B.B.N.m.N.P.Q.~./.F.n.P.L.L.K.K.L.L.L.F.K.L.F.F.P.F.m.I.I.P.P.Q.Q.P.R.P.L.L.P.Q.R.c.=.S.B.B.S.M.B.S.K.S.S.K.K.P.P.L.",
";.L.S.B.S.S.B.S.F.S.F.P.Q.~./.F.z.P.L.F.L.K.L.L.L.K.K.L.L.K.K.B.n.Q.R.P.P.Q.Q.I.P.P.P.L.I.Q.Q.n.=.S.M.m.m.M.S.S.S.S.K.L.P.P.P.L.",
";.L.L.S.B.S.S.P.T.Q.P.P.P.P.L.m.z.L.L.B.S.L.L.P.L.K.K.L.L.S.F.m.z.R.Q.I.P.Q.Q.R.P.L.L.L.P.Q.R.n.*.F.B.B.S.K.K.L.L.P.P.P.P.P.R.P.",
">.L.P.L.S.F.P.R.Q.W.T.R.Q.~.P.N.m.L.L.L.S.P.P.L.L.L.L.K.S.S.L.N.k.R.R.R.P.P.R.R.P.P.L.K.L.P.P.c.;.K.S.B.S.F.L.K.K.L.L.P.P.P.R.P.",
">.K.K.L.L.P.Q.Q.Q.Q.Q.Q./.Q.P.S.m.L.L.L.L.P.P.L.K.L.L.S.B.K.R.B.g.Q.R.I.P.P.I.R.P.P.P.P.L.L.P.m.f.K.K.S.M.S.L.K.S.K.L.P.P.P.P.L.",
"<.P.L.Q.Q.P.R.Q./.)./.^.Q.Q.P.N.x.P.L.L.K.L.P.P.L.L.K.S.B.S.Q.S.<.R.I.R.Q.P.R.P.L.P.P.P.L.P.P.N.g.K.K.S.B.S.L.K.F.S.K.L.P.P.I.L.",
"g.P.F.Q.Q.L.R.Q././.Q.Q.P.P.T.S.k.L.K.K.K.L.L.L.K.K.K.K.F.S.Q.S.f.P.P.P.P.P.R.P.L.P.P.P.P.P.P.N.z.K.S.B.S.L.L.K.K.F.K.L.L.P.P.L.",
"g.L.L.Q.Q.F.P.Q.Q.Q.Q.Q.P.L.T.F.n.L.S.L.L.L.L.K.L.P.R.P.L.L.R.B.>.P.P.I.I.P.I.I.L.P.P.P.R.I.P.N.c.L.K.K.K.K.F.F.K.F.F.K.K.F.P.L.",
"j.L.L.Q.T.N.F.Q.Q.Q.Q.Q.P.P.P.S.m.L.S.L.L.L.L.K.L.R.P.L.L.K.L.m.f.P.I.R.I.P.P.L.L.P.L.L.P.P.P.m.c.L.K.K.S.S.B.B.K.K.F.F.S.S.P.K.",
"k.T.Q.).Q.S.G.Q.Q.Q./././.Q.P.B.m.L.L.L.K.L.L.L.P.R.P.P.L.K.K.n.;.I.P.P.R.P.L.L.L.L.K.K.L.P.P.N.c.L.K.R.L.S.B.B.K.L.L.F.S.S.P.F.",
"z.Q.Q./.Q.Q.Q.T.Q././././.Q.P.N.n.R.P.P.L.L.L.P.P.I.I.P.L.K.K.x.>.R.I.P.R.I.P.L.K.K.P.P.P.P.P.N.c.P.L.P.I.L.K.K.L.P.P.L.K.L.I.K.",
"g.F.F.L.P.T.P.P.P.T.W.P.P.G.F.n.>.z.z.c.m.n.n.z.k.k.k.g.g.g.h.<.=.n.m.m.m.n.n.m.n.n.B.S.B.N.S.z.g.F.S.S.S.B.S.B.B.N.B.B.m.S.S.x.",
"#.g.k.z.c.n.N.m.n.m.m.n.z.z.c.f.f.n.z.z.m.m.m.N.n.k.k.g.g.g.g.<.#.=.=.*.*.*.*.=.=.>.f.g.f.t.j.>.=.j.z.c.j.j.k.<.=.;.<.f.<.>.=.=.",
"k.I.Q.Q.P.P.R.Q.Q.Q.Q.R.R.I.R.S.S.Q.L.F.F.F.S.T.Q.P.L.P.P.P.P.N.<.P.L.P.T.P.P.P.P.P.P.P.P.T.Q.F.N.Q.Q./.).).Q.P.P.R.R.Q.T.K.L.F.",
"g.P.Q.T.L.L.P.P.R.R.Q.I.R.R.I.F.N.R.P.L.L.P.N.F.R.P.P.P.P.P.P.B.f.F.y.u.P.R.P.P.P.P.P.P.P.P.Q.F.N.Q.Q.R.Q.Q.Q.Q.Q.Q.Q.Q.~.R.Q.P.",
"f.T.P.P.P.P.L.L.L.P.R.R.P.I.R.F.m.Q.P.P.T.R.P.N.P.P.P.P.S.B.F.k.H b s s C u.P.R.P.P.P.P.P.P.W.S.N.Q.R.P.P.Q.Q.Q.Q.Q.T.Q.Q.Q.Q.W.",
"j.T.P.L.K.L.L.L.L.P.Q.R.P.P.Q.F.m.Q.R.T.Q.R.N.c.m.P.T.L.z.>.J p 0 l P l j s C u.P.R.T.Q.R.Q./.F.S.Q.I.P.P.R.Q.Q.~.Q.Q./.Q.Q.Q.P.",
"j.T.L.L.L.L.L.P.P.P.P.R.P.P.I.S.N.Q.R.T.Q.S.f.k.G.Q.R.v. .p % k P P / Q P P z f C y.P.Q.P.Q./.F.B.Q.P.P.P.P.Q./.).).)./././.Q.F.",
"f.R.R.P.L.P.P.P.Q.Q.R.P.R.P.P.S.N.R.R.P.P.B.k.z.K.v.G a G r.~ e y [ 6.4.2._ E P I f C u.P.Q.Q.F.S.Q.R.P.R.I.Q.).).)./.Q.Q.Q.R.L.",
"g.Q.Q.P.P.P.I.R.Q.R.P.P.I.R.R.S.m.Q.R.T.L.P.F.t.A a { Z.].].U.p.S U ] 4.6.6.4.' T l l f C u.P.S.N.Q.Q.R.Q.Q.I.Q.Q.Q.Q.Q.T.Q.Q.P.",
"k.Q.Q.R.R.R.I.R.Q.R.P.P.P.R.Q.S.k.P.R.R.F.u.A s g d } U.'.Y.Y.'.`.r.S R [ 6.6.4.:.` y ^ ! 0  .N.B.Q.T.Q.R.P.P.R.T.T.P.T.P.P.Q.Q.",
"n.R.P.Q.Q.Q.R.I.R.Q.Q.P.P.P.Q.F.g.K.N.q.B s z T P W N B r.Y.'.Y.E.'.U.e.~ Q [ ] U U _ _ W q v N.N.Q.Q.P.P.P.R.Q.T.P.P.L.K.P.Q.Q.",
"N.R.L.R.R.Q.Q.R.R.Q.Q.Q.R.I.Q.S.g.c.v 0 z P L k ] 4.4.' R S p.Y.'.Y.'.].!.r.N y W / Q j q @ v N.c.Q.Q.P.P.P.Q.Q.R.P.P.K.L.P.Q.Q.",
"m.R.P.R.P.P.P.P.P.I.Q.Q.Q.P.Q.F.z.$.# U ^ j u j 2.5.4.5.4./ h C l.'.'.Y.Y.].J.S j P y 5 - $ v N.k.Q.Q.P.R.Q.R.P.P.P.P.P.P.Q./.Q.",
"N.Q.Q.R.L.P.L.P.P.P.P.R.Q.P.R.F.z.$.+ 8 l ^ W l Q 2.4.4.4.8.4.! d F Z.].].[.!.p.0 8 4 5 - @ v N.k.P.Q.R.R.Q.T.P.P.P.P.P.P.Q.Q.Q.",
"S.Q.P.L.L.P.L.P.P.P.P.R.I.L.P.F.m.&.+ = 7 y E ) W P ( 2.7._.3.^ y y b r.!.Z.l.@., 5 7 - = + v N.k.N.F.R.T.P.P.P.P.P.P.P.P.Q.Q.P.",
"m.P.P.P.I.T.P.Q.Q.Q.Q.Q.R.P.Q.F.n.&.+ & * - 9 y W ) W I Q ~ j P ! _ l b l.,.,.@., - * = 7 - v B.z.N.N.P.P.K.B.m.m.N.K.P.P.P.F.B.",
"=.c.F.F.F.S.S.B.m.m.N.N.F.F.P.k.;.&.# @ @ = = - 9 j Q ) T T ) ' W P r i ,.1.1.@.> * 5 8 7 @ c z.<.z.f.k.z.f.<.>.>.<.k.n.c.k.f.f.",
";.g.z.c.c.z.z.g.=.=.t.j.z.n.N.t.k.q.+ - = @ & * = - q l ) ] ^ P r 6 4 i l.1.,.| , 8 7 - = + a <.*.=.#.#.#.#.#.#.+.*.;.<.>.>.>.=.",
"S.P.P.P.P.Q.Q.P.P.P.P.P.P.P.Q.G.F.y.+ * ; 7 = + & = = 4 t l r 6 9 q 6 i ,.&.@.{ , - - * O o J z.=.m.m.m.n.S.S.B.z.h.k.n.z.z.z.z.",
"m.R.P.P.P.P.P.P.P.L.P.P.P.L.P.F.F.y.+ * = = ; 5 = @ = = & 9 6 q q 8 @ p ,.X.X.G > * + o 3 K D.m.=.B.K.L.S.K.K.L.F.B.m.z.z.z.m.S.",
"k.P.P.T.P.P.T.T.P.P.P.P.P.L.K.B.G.y.X O = = = - 7 7 = + + 7 8 5 - - 5 p &.| { V X o 2 D s.W.Q.m.=.K.K.S.B.S.S.S.S.S.F.m.B.F.L.F.",
"g.P.T.T.P.T.T.P.P.P.P.P.L.F.L.N.F.J.Z o   + = - - ; 8 - . = = 5 q q - 0 | A M < 3 D w.C.T.Q.~.S.=.F.S.S.K.S.S.S.S.K.L.L.K.P.I.P.",
"j.P.P.P.T.Q.Q.P.P.P.P.F.F.P.R.N.Z.~.H...x X   + = - ; 7 7 8 q q 8 7 = > M < 3 D 0.b.P.P.L.T.Q.S.#.B.S.F.L.F.F.K.L.P.P.P.R.Q.R.P.",
"j.I.P.P.P.Q.R.P.P.P.P.F.F.Q.Q.F.F.Q.T.G.i.F 3     & - - 7 q 7 4 - = . X 2 m 0.v.F.P.Q.T.Q.R.Q.S.*.P.L.K.F.F.K.F.K.L.P.L.L.P.P.P.",
"g.P.P.L.L.P.P.P.P.P.K.F.F.P.).F.F./.P.P.P.G.a.D 1   . & = 7 - = +   : m 9.b.L.P.P.Q./.Q./.Q.Q.S.;.P.P.Q.F.F.P.K.S.L.P.P.L.L.P.P.",
"t.L.L.P.P.P.P.P.P.Q.T.P.P.P./.F.N.Q.T.Q./.)./.J.w.m :   . @ . X : n 9.v.P.Q.P.P.T.Q.Q.^.Q.Q.Q.N.=.L.L.Q.L.K.L.K.F.P.P.P.L.L.P.P.",
"t.L.L.P.P.P.P.P.Q./.Q.P.P.P.P.S.N.Q.Q.Q.T.P.Q.{.).D.0.m 1 : 3 m 9.v.G.P.P.P.P.P.P.Q.Q.Q.Q.T.Q.N.%.L.F.P.F.F.L.L.P.T.P.P.L.P.R.F.",
"*.L.P.P.P.P.P.P.Q./.Q.P.P.L.F.N.N.Q./.Q.P.P.Q.{.{./.Q.G.d.s.V.b.N.R.L.K.P.P.Q.T.P.R.Q.Q.T.P.Q.D.%.P.F.S.F.P.P.L.L.L.F.L.P.P.P.S.",
"+.P.P.P.P.P.P.P.P.Q.Q.P.P.L.F.N.N.Q./.Q.Q.Q.W.Q.Q././.}.}.).).G.m.P.F.F.L.P.Q.Q.P.P.R.T.P.T./.D.*.P.K.S.S.L.P.T.L.F.S.F.P.P.R.F.",
"=.P.P.K.L.P.K.K.L.T.T.P.F.F.P.N.N.Q./.Q.Q.R.T.T.P.P.Q.{.}.).Q.F.c.P.L.L.P.P.I.P.P.P.P.P.T.T.~.N.;.P.K.F.F.P.T./.P.L.K.L.P.R.Q.L.",
"g.P.L.P.P.T.P.L.L.P.P.L.F.K.P.S.m.R.Q.T.P.P.T.R.P.P.T./.).{.Q.F.N.T.P.Q.Q.Q.P.P.P.T.P.P.P.T.Q.m.=.P.P.P.P.P.L.P.T.P.P.P.P.R.R.P.",
"N.T.P.P.Q.Q.Q.P.P.R.P.P.L.L.P.S.c.Q.Q.Q.Q.R.P.R.T.P.P.R.Q.)./.L.N.R.T.T.Q.P.P.P.T.Q.R.P.P.Q.Q.N.=.P.P.P.P.P.P.P.P.T.Q.Q.R.R.R.P.",
"g.N.N.N.m.m.m.z.k.h.g.f.h.g.k.<.#.g.j.j.g.g.f.f.f.f.g.f.g.k.z.k.g.B.F.F.S.N.m.n.N.N.n.k.j.k.k.;.+.z.g.g.n.S.F.F.F.F.P.L.K.K.S.m.",
">.z.k.z.k.g.g.g.g.<.<.>.f.>.>.=.=.m.N.m.n.n.n.z.z.m.m.z.c.m.S.m.g.m.B.S.S.B.n.z.c.z.g.;.*.=.;.*.H *.>.<.k.n.m.m.m.m.n.n.m.m.m.z.",
"N.P.L.L.L.P.R.Q.T.P.L.K.L.L.P.m.>.R.P.P.K.L.P.P.L.P.P.L.F.F.L.F.B.T.P.P.T.T.T.T.P.P.P.P.P.P.Q.m.O.L.P.L.L.P.L.L.L.K.F.S.S.K.P.P.",
"S.P.L.L.L.P.R.P.P.P.L.F.L.P.T.m.=.P.P.P.L.L.L.L.F.K.K.K.F.F.L.F.N.L.F.L.P.L.L.P.F.L.P.P.P.P.T.N.>.P.R.P.S.S.S.S.F.S.S.M.n.F.R.P.",
"F.P.P.P.L.P.R.P.L.P.L.F.F.T.P.m.+.L.P.P.L.L.L.L.K.K.L.L.F.K.P.F.m.L.L.P.L.L.F.F.S.F.P.Q.P.P.P.N.g.R.Q.R.K.S.S.S.S.B.M.m.m.L.Q.P.",
"F.P.P.P.P.P.Q.P.P.F.F.L.F.P.R.m.-.P.P.L.L.P.L.L.L.K.L.L.F.L.P.F.n.L.P.P.P.L.F.B.B.F.P.Q.Q.P.P.N.g.R.P.P.K.L.K.K.B.B.m.n.m.P.R.P.",
"F.P.P.P.P.P.P.P.P.L.F.F.F.L.P.c.>.P.L.L.L.P.P.P.L.L.P.L.F.F.P.F.n.P.P.P.L.L.F.F.F.L.P.Q.Q.Q.Q.Z.j.I.L.K.L.L.K.K.S.B.m.m.m.M.L.P.",
"F.T.P.P.P.L.L.P.P.L.L.F.F.F.P.m.;.P.P.L.L.P.P.P.P.P.P.L.S.S.L.S.m.P.L.L.L.L.K.F.L.P.P.Q.Q.Q.W.N.z.P.P.P.P.P.K.K.K.B.m.m.B.m.S.P.",
"S.T.P.P.T.P.L.P.L.F.L.L.K.F.P.m.*.L.P.L.L.L.P.P.P.P.P.L.F.S.L.F.n.P.L.L.L.F.F.F.L.P.P.T.Q.P.P.N.n.P.P.I.P.P.K.B.B.S.B.m.B.B.S.P.",
"N.P.P.P.P.P.P.P.F.F.L.L.L.L.P.m.O.L.P.L.L.L.L.P.P.P.P.P.L.L.P.S.z.P.L.L.L.K.K.F.F.P.P.P.P.L.L.N.m.Q.R.I.P.K.K.S.M.B.B.S.L.P.P.P.",
"N.P.P.P.L.P.P.P.K.K.L.L.P.P.P.c.X.K.L.L.K.L.K.L.P.P.L.P.P.P.T.S.z.P.P.P.L.L.L.F.F.L.L.P.P.L.P.N.n.).Q.I.K.K.K.L.B.M.B.L.I.Q.Q.P.",
"m.P.P.P.P.P.L.L.L.K.F.F.L.L.L.z.X.F.L.F.F.L.L.P.P.P.P.P.P.P.R.F.m.P.P.P.P.P.P.K.F.F.L.P.P.P.T.F.N.Q.R.P.L.F.S.K.S.S.L.R.R.R.R.P.",
"m.P.P.P.P.P.L.F.F.F.F.S.F.K.L.z.*.L.L.F.F.P.P.T.P.L.F.K.K.L.P.F.N.P.P.P.P.P.P.L.K.F.P.P.T.P.T.N.c.Q.Q.P.L.K.S.L.P.L.P.R.Q.Q./.P.",
"N.P.P.L.P.P.L.F.F.S.F.K.K.K.L.c.%.P.P.P.P.T.T.R.P.L.F.F.K.P.R.F.m.P.L.P.P.P.L.L.K.L.P.R.Q.P.Q.N.k.(.Q.P.L.P.F.P.Q.P.P.R.Q.~.~.P.",
"n.P.P.L.P.L.L.K.F.N.F.L.K.F.F.c.*.P.P.P.R.R.T.Q.P.P.P.L.P.R.R.S.m.P.L.L.L.L.L.L.L.L.P.T.Q.P.P.N.j.R.P.I.P.K.F.L.Q.P.L.Q.Q.Q.Q.P.",
"z.P.P.P.P.L.L.L.L.F.L.L.L.L.P.m.f.R.P.P.P.R.T.Q.R.I.Q.R.R.Q.P.S.n.P.P.P.L.L.P.L.L.P.P.P.Q.Q.Q.N.t.I.P.I.P.L.L.P.Q.P.L.R.Q.Q.Q.P.",
";.z.k.z.k.g.h.k.g.g.g.j.k.k.z.f.#.f.f.f.f.g.f.f.f.>.f.f.j.k.g.;.;.m.N.m.c.z.c.m.m.c.k.k.k.z.g.=.X.k.m.N.N.N.N.S.F.B.m.B.N.S.F.n."
};
