/* XPM */
static char *wall_random_1_64[] = {
/* columns rows colors chars-per-pixel */
"64 64 210 2 ",
"   c #010101",
".  c #080707",
"X  c #160C08",
"o  c #17120E",
"O  c #0B1314",
"+  c #1B1713",
"@  c #280700",
"#  c #25150A",
"$  c #361D06",
"%  c #201711",
"&  c #241B13",
"*  c #291E15",
"=  c #36220E",
"-  c #292219",
";  c #2C231A",
":  c #382413",
">  c #32251A",
",  c #36291C",
"<  c #3B2B1D",
"1  c #342B22",
"2  c #3B2E21",
"3  c #3D3123",
"4  c #3F3529",
"5  c #502E0E",
"6  c #452D18",
"7  c #603D1F",
"8  c #443222",
"9  c #4A3624",
"0  c #4E3926",
"q  c #44372A",
"w  c #4D3B2A",
"e  c #523B26",
"r  c #5D3E23",
"t  c #543D2A",
"y  c #583F29",
"u  c #453B30",
"i  c #72451D",
"p  c #57412D",
"a  c #5B422C",
"s  c #4C4133",
"d  c #544432",
"f  c #5D4630",
"g  c #5A4B39",
"h  c #634124",
"j  c #6B4625",
"k  c #62462D",
"l  c #66482F",
"z  c #774B24",
"x  c #734D2C",
"c  c #7D5026",
"v  c #7C512C",
"b  c #614730",
"n  c #644A32",
"m  c #6B4D33",
"M  c #714F32",
"N  c #6E5036",
"B  c #6B543C",
"V  c #7B5534",
"C  c #755539",
"Z  c #7A5739",
"A  c #7C593A",
"S  c #7C5A3B",
"D  c #6B5944",
"F  c #785C42",
"G  c #7C6247",
"H  c #6F6453",
"J  c #7C6B55",
"K  c #86562C",
"L  c #845A35",
"P  c #8C5D33",
"I  c #825D3C",
"U  c #885D38",
"Y  c #935F31",
"T  c #86613E",
"R  c #8B613D",
"E  c #926136",
"W  c #93643A",
"Q  c #99683D",
"!  c #A46937",
"~  c #A36C3D",
"^  c #A9703E",
"/  c #856243",
"(  c #8E6846",
")  c #826649",
"_  c #846A4D",
"`  c #8C6949",
"'  c #926742",
"]  c #946A44",
"[  c #9B6D45",
"{  c #9B6F49",
"}  c #8F714F",
"|  c #95714D",
" . c #9D724A",
".. c #866D51",
"X. c #8A6E52",
"o. c #8A745A",
"O. c #937455",
"+. c #9B7654",
"@. c #9E7A57",
"#. c #927659",
"$. c #94795C",
"%. c #9C7D5D",
"&. c #A26D42",
"*. c #A37245",
"=. c #A97344",
"-. c #A9764A",
";. c #A6784E",
":. c #AC794D",
">. c #B07B4D",
",. c #A57A53",
"<. c #A47C57",
"1. c #AB7C52",
"2. c #B17E52",
"3. c #8C7C65",
"4. c #937D61",
"5. c #9C7D60",
"6. c #9C815F",
"7. c #AE8055",
"8. c #A5825C",
"9. c #B98455",
"0. c #B3855A",
"q. c #BA8659",
"w. c #B4885F",
"e. c #BC8A5D",
"r. c #9D8263",
"t. c #9B856A",
"y. c #99866C",
"u. c #9B8A72",
"i. c #A48463",
"p. c #A78765",
"a. c #AC8964",
"s. c #A58A69",
"d. c #AA8D6C",
"f. c #B48B64",
"g. c #BC8D61",
"h. c #B28E6A",
"j. c #AE906C",
"k. c #BB946C",
"l. c #A38F74",
"z. c #AB8F70",
"x. c #AD9373",
"c. c #A59278",
"v. c #AA967A",
"b. c #AD997D",
"n. c #B39572",
"m. c #B99571",
"M. c #B59875",
"N. c #BA9A76",
"B. c #B59B7B",
"V. c #BA9D7A",
"C. c #BDA17D",
"Z. c #C28D5D",
"A. c #C28E60",
"S. c #C49264",
"D. c #CA9566",
"F. c #C7976A",
"G. c #C99768",
"H. c #CC9A6A",
"J. c #D19D6C",
"K. c #C69E75",
"L. c #D4A16F",
"P. c #C5A077",
"I. c #C3A27D",
"U. c #C9A47D",
"Y. c #D9A776",
"T. c #DBA877",
"R. c #D4A77A",
"E. c #DCAB7A",
"W. c #E0AE7D",
"Q. c #E2B17F",
"!. c #AE9C81",
"~. c #B19E83",
"^. c #B4A186",
"/. c #BEA483",
"(. c #BFA887",
"). c #B5A389",
"_. c #B9A68B",
"`. c #BBA98D",
"'. c #BBAB91",
"]. c #C2A683",
"[. c #C4A986",
"{. c #C9AA84",
"}. c #C3A789",
"|. c #C5AC8B",
" X c #C9AE8B",
".X c #CCB18E",
"XX c #D4B28A",
"oX c #C1AE93",
"OX c #CDB492",
"+X c #C8B598",
"@X c #D1B693",
"#X c #D8BC97",
"$X c #D5BC9A",
"%X c #DABE9A",
"&X c #E3B382",
"*X c #EBBC8A",
"=X c #D7C09F",
"-X c #DCC19D",
";X c #D6C1A1",
":X c #DDC5A2",
">X c #E1C6A3",
",X c #E2C9A6",
"<X c #E8CFAC",
"1X c #E7D0AE",
"2X c #E9D1AE",
"3X c #EED9B7",
"4X c #F1D9B5",
"5X c #F2DBBA",
"6X c #F9E1BE",
"7X c #F9E3C2",
/* pixels */
"j.k.k.k.k.k.n.k.k.M.n.n.n.M.C.M.[.>X:X-X:X>X,X,X:X:X,X<X<X<X<X@Xn..XOX|. X X|.[.V.k.j.d.j.k.8.a.p.x.s.x.].C.C.]. X X X[.].I.].C.",
"k.-X,X,X,X,X,X>X1X4X3X3X3X3X7X3X-X5X3X2X<X4X6X4X2X,X4X5X5X3X5X<X%X5X4X4X3X4X5X5X3X<X,X<X2X<X2X$XC.3X<X<X2X2X2X2X3X4X3X3X3X2X4X,X",
"n.<X<X>X:X-X%X$X:X,X2X3X3X3X:X~.$.$.X.O.O.s.}.@X2X<X,X,X<X<X3X<X@X<X,X<X,X,X2X3X<X<X,X,X<X,X4X=XV.2X<X%X#X#X-X<X,X,X>X:X,X,X3X:X",
"/.2X>X,X:X%X#X$X#X#X,X,X|.t.V v V x ] W R W c A 5.].,X<X-X>X3X<X#X<X,X<X<X2X3X2X2X<X>X<X<X<X3X$XB.<X-X#X#X#X%X,X<X:X%X%X>X,X3X:X",
"C.1X-X:X:X-X$X-X#X#X@Xs.V j n ( C m 0.( ' -.N ] W c p.-X,X%X<X:X#X2X<X<X<X3X3X<X2X<X>X>X<X1X3X$XM.>X%X-X-X#X%X-X>X%X%X:X>X,X<X,X",
"N.<X-X#X:X-X#X-X,X$XO.v C d > a I ] ] R I I l ( -.( K ` $X,X,X$X@X3X<X<X<X3X3X<X<X<X<X>X<X3X3X$XM.>X#X#X@X#X-X-X-X-X-X>X<X,X<X,X",
"V.<X<X:X%X%X-X<X<Xs.K A t n T Z C ] { -. .[ ( A C C C V O.OX%X$XOX3X2X<X<X3X3X2X<X>X,X,X<X3X3X$Xn.,X#X%X-X>X>X,X<X<X<X<X<X<X3X<X",
"C.<X<X,X%X-X<X3XOXP C 3 N ] [ ] ( I I A (  .;.-.{ Z 0 ( V o._.b.B.<X2X<X<X<X<X2X<X<X,X>X,X<X2X$XB.,X%X%X-X:X,X>X:X,X,X,X<X<X3X<X",
"C.,X:X,X>X<X3X3Xa.Q t 0 C I ] ] { -.-.[ R C C I { ] m n I F !.c.4._.+X<X<X<X<X2X<X<X<X<X,X,X2X$X/.>X-X-X#X-X,X>X-X>X,X,X<X<X2X,X",
"C.1X:X3X3X,X3X$X-.] 3 A C a a C R ] ( ] -.-.-.` N a m a ( v t.!.#.).b.+X3X<X<X<X,X,X<X<X,X,X2X$X|.,X>X:X#X-X,X>X:X-X-X<X<X<X3X,X",
"[.1X-X3X3X,X3XV.7.[ 9 Z I T I n n m N m A ( { ,.{  .( m R L H b.4.^.~.b.|.<X3X<X>X<X<X<X2X2X2X$XOX>X-X%X-X<X,X,X>X:X:X,X,X,X2X:X",
"].<X:X3X3X:X:Xp.k.-.a A ] ( T I A C m n n C A ( I  .{ n U ( d t.4.~.^.^.!.$X3X2X:X-X%X#X:X:X,X=X$X2X:X:X,X,X-X:X>X:X:X>X>X-X2X,X",
"|.,X:X3X<X$X@X,.P.0.T A ( ]  .,.{ T Z C A n a a k C C C ( G 1 J t.^.~.^.^.`.@XI.f.;.-. .[ ] O.%.B.$X,X>X-X-X#X%X,X:X:X:X-X%X3X,X",
"|.3X<X5X3X$X[.7.k.I.*.( Z C A ( -.1.;.( A Z C m a t I R | N + B 4.^.~.^.v.8.:.*.U  .-.( -.R V [ L I x.<X<X%X%X#X-X>X<X-X%X#X<X:X",
".X5X3X5X3X3X].a.A I.K.~ ] ( I I A C / ( ( ( A m N R ' ,._ 0 u p 4._.~.p.-.[ ( A a ] ( C ( m C -.[ I z X.%X<X>X,X,X<X<X<X,X,X3X,X",
"|.<X:X<X1X3Xk.k.p.{ B.U.1.Q U T ( I C N n m I R Q :.a.O.a a w 3 #.l.p.*.] 8 - n I [ A I ( m A I A m N V / OX:X-X-X$X%X%X$X:X>XOX",
"j.[. XOXOXOX0.7.{.I E n.[.I.w.;.Q W W W Q [ ;.g.k.k...6 a D 8 & .._ *.] 9 w A ( Z 1.A R I 8 I ] ( Z 0 ( C A l.s.p.V.C.C.V.N.k.n.",
" X3X5X3X2X:Xe.&.s.[.{ Y F x.].I.I.I.I.U.U.{. XC.p.` r t G f ,   3.p.*.n a I [ I I 1.A ] k m ] ] ] A C t N C l.).~.+X:X3X3X>X<X:X",
"[.2X2X<X,X#X0.1.[ k..Xa.x ! ;.,.h.x.x.V.M.k.f.V 5 x ) $.F < 2   D :.] - I R ] C 1.-.A T t ( '  .( a -.m N A F ^.).).!.+X3X2X3X<X",
"/.3X<X<X<X%X2.-.,.&.8.[. Xn.1.;.=.5 i ! ~ 0.=.` #.s.p.n < w <   N 1.I 9 ( ] ( I 0.( I Z m ' ( -.I A -.I n I l t.'.^.^.!.+X<X3X2X",
"|.3X,X:X,X.X:.,.;.0.9.] $.].|.|.[.B.M.N.n.V.V.].M.#.C k 8 8 ,   ) 0.T a ( ] n  .1.C A a m A ]  .N ] ] I a T M H `.).).'.!.+X3X<X",
"|.3X,X:X,X@X-.1.1.0.S.1.L :.,.f.V.V./.C.C.n.p.,.L V R m > < >   G f.[ d ( ( k -.( C A a C I  .] n -.] Z n ( C g '.'.'._.'.).:X:X",
"C.3X2X<X<X-X-. .;.9.e.' { Z.:.9.>.5 E P P &.Q :.[ A R k - < + w / N.0.T I Z C ] C A m n I ( 1.C A -.I C V { F 4 ).'.).).).!.+X,X",
"[.3X2X,X<X<Xf.[  .:.q.A I -.;.D.1.m  .A (  .R ] [ A A k * >   B [ k.{.=.] b I ( N C 9 A (  .8.t ] ] A A ] O.d 9 c.`.).).^.~.+X<X",
"|.3X3X<X2X3Xh.P {  .9.M A -.0.D.:.m [ C ] [ A C ' C m a - -   N a.:.B.I.*.R ( N m n 8 A / | F a ( I v { r.N n n 3._.~.^.~.!.oX<X",
"@X3X<X3X2X3XM.K { -.0.m Z -.;.Z.-.k ] V R ( m e C a y t > & + a k.+.z N.{.f.W x l e a C / { e h z / p.p.D $ ) n J _.!.b.b.b.'.2X",
"$X2X:X3X<X3X/.P ] -.*.m C ] ] -.I e m l C C a , k 9 8 8 > & - j  .C.F W %./.].n.,.( R L R ( | a.N.C.r./ r G X.6 D ^.~.b.!.!.oX2X",
"OX3X<X3X<X2XOXE '  .:.k I U A R l & 9 9 e e 8 * 0 8 < 8 * + - Z U p.C.+.K h p.M.C.[.[.].[.[. X].t.F 5 r o.$.n a g ~.~.~.^.!.+X3X",
"$X3X3X2X,X<X$X{ R ] :.k C V l a 9 d t # 8 3 &   , < > < & o < A R E +.[.x./ ^ ^ ;.8._ p.8.f.g.Q   h X.s.r.n t n w v.^.~.^.!.;X3X",
":X3X<X,X>X<X,Xp.K { :.a k m 6 N _ m A %.O.C d < + o - , % o < C C I K ( x.[.C.n.0.:.h E ~ ;.7.,.s.B.V.O.V A t d 8 l.^.!.~.~.<X<X",
"$X3X<X2X3X2X3XOXK ' [ y t e _ p.I ) B.#.C / A I C t - o . o t k t M A [ x F k.]. XOX X].].[./.].l.%.] x ( A 8 d u t.~.~.^.).:X%X",
"k.OX:X:X:X$X:X$XG l ( a @ #.d.E a.{.8.[ Z C (  .;.-.( n > 1 D 9 < y l R N V ~ W 1.8.X.a.p.8.,.[ $ L :.I ( A 8 w d #.t.l.t.x.].I.",
"V.[..XOXOX.X.X|.r.l A @ J n.~ f.OX| :.S.H.g.,.( { :.2.-.( C 0 < > < e k 9 m [ [ 9.>.h [ R [ >.[ a ] -.' ( I 9 8 p o.$.4.#.n.].n.",
":X3X<X2X<X3X3X3X<X#.5 D n.M O.#X8.Z.S.1.G.Y.T.H.8.( /  .] I I a - * < 9 , e m U q.-.C -.I 1.2.U 0 A  .] A I p : D t.t.l.l.|..X.X",
"$X3X<X<X,X,X<X<X<X$XD B.8.W @Xs.j @.e.0.e.S.G.L.L.G.,.A I ( ( ] C , - , & 8 k I 2.;.C 1.[ q.q.I 9 C T I m A n # o.b.l.t.v. X#X-X",
"|.3X<X1X<X<X<X1X<X<X%XK.~  X X:.S.{ C A 1.S.S.S.g.e.H.g.( C (  .-.] w + o > t m [ [ C :.;.q.0.C e I A I b C b * 3.b.b.l.#X:X<X:X",
"].<X<X2X<X<X1X<X<X<XOXR %.-X0.J.T.G.0.R m m ,.S.D.S.g.S.D.1.A ] -. .] m , o > e I A k [ *.0.0.C t ] N R n I t * t.~.v.OX,X<X2X<X",
"|.2X<X<X<X3X3X<X<X,XN.K $X].9.H.Y.E.Y.G.e. .( ) w.S.H.G.S.J.H. .{ { { [ l u 3 < k m 0 R ] :.:.V n ' a I n I 8 u b.!.|.<X2X3X3X<X",
"|.3X<X,X<X3X1X<X<X#XS.U.:XS.A.A.H.Y.Y.Y.T.S.Z.0./ / g.T.Y.G.Y.J.1.` L { n.j.X.u 8 e 8 V I ' [ C k R m C m A # g v.^.<X<X>X<X<X<X",
"(.2X<X:X,X<X<X<X,XU.Z.#XI.J.E.E.T.H.e.0.H.J.&XY.9.] A 0.Y.J.F.H.D.;.$.[.d.` / w . o < k k V R l e R A C C C   J b.$X<X,X,X,X<X<X",
"/.<X>X<X<X<X<X<X$X1.k.#Xe.D.A.F.Y.E.D.0.:.0.E.&X&XH.2.A { S.A.H.:.V..X..k V ) $._ d . e t V ' m e I I m A y - t.|.<X<X,X,X>X2X<X",
"/.<X:X<X1X<X<X<X[.~ ].{.Z.H.D.q.' ,.H.E.Y.1.[ H.*X*XJ.e.] A ,.&.].@X{ :.V r.V.#.N d < * y U ' m 8 m I n m : D |.<X2X<X<X,X,X3X:X",
"x.<X<X<X<X<X<X,Xs.j OXd.;.D.E.E.S.R b _ F.W.S.&.e.*X*XE.e.,.7 l.-X+.9.-.].].f   # 8 e - > V R m 8 C I t t % ^.,X,X,X:X<X<X,X3X-X",
"d.<X<X<X,X<X<X:X8.` |.,.:.1.Y.Q.&XY.A.C O @.Q.Y.-.q.&X*X&X0.p.,Xo.:.>.|./.@ o - > 8 e < + 2 Z m & a A B   u.<X1X:X:X%X:X<X,X3X:X",
"n.3X<X:X,X,X>X$X .f.V.k 8.q.A.Y.&X&XY.H.1.A ` Y.Q.S.:.g.Y.e.,X/.R C [.|.  1 1 > 8 0 y < & - k C B G n   u.1X1X5X<X:X>X,X,X1X3X:X",
"/.2X:X,X<X<X<X$X] f.K.-.C 8.Y.H.Y.E.Y.L.Y.J.q. .g.W.E.2.Y .X:X1.>.z.$X$ o 3 8 < 8 t k 8 1 2 d G p   s ^.<X<X:X<X1X,X,X<X<X1X2X:X",
";X3X<X1X3X5X3X<X#.p.k.9.S.{ +.H.J.H.S.S.E.W.E.Y.e.S.XXT.8.3Xk.Z.8.-XG   3 w 9 < 8 a l < . + 1 q D !.,X4X<X<X<X<X<X2X3X3X2X3X3X<X",
"].:X$X$X$X$X@X#X%./ a.=.D.T.f.( 7.H.e.1.0.Y.&X&X&XY.H.e.<X:XP K OXB.  q < a 8 < 9 m m 8 d f D r.n.$X[.].OX:X:X:X:X:X<X<X>X:X:XOX",
"V..X X X[.].].C.|.d.O.] :.S.W.Y.{ ( q.Z.q.S.E.&XE.E.&XR.3XK.>.p.:X: - 8 0 t 9 < 0 V n o.4.#.x.V.| j.C.V.|.#X@X#X#X@X@X@X#X#X$X.X",
"$X2X,X<X<X<X3X3X3X<Xs.c ( [ A.Y.T.8./ I 1.Z.A.0.G.E.D.%X:XJ.H.#Xu.  3 t t t 0 < n V D ~.~.`.3X:Xs.2X<X<X<X<X<X,X,X,X>X:X:X>X3X1X",
"=X<X,X,X:X<X<X<X,X2X:Xp.K C ] q.S.J.H.8.( I 0.H.e.Z.g.<XI.L.K.$X= - 8 a t a 9 < Z x 3.^.!.:X3X;X/.2X<X<X%X%X-X%X:X-X-X#X.X-X2X,X",
":X3X<X<X:X<X2X,X,X,X,X:XB.( j A :.q.A.D.G.g.+.+.8.2.m.:X0.9. Xb.  q 9 a 0 t 8 a I m c.^.$X<X1X=X|.3X3X3X>X-X-X-X-X%X%X#X@X<X3X<X",
"-X1X<X<X,X<X3X1X,X:X:X,X,X$X+.z Z -.0.e.S.H.Y.F.1.v x.OX;.0.#XD X 8 0 a 0 0 0 A v J !.+X3X<X<X;X|.3X<X<X>X,X:X>X%X%X#X@X#X<X3X<X",
":X<X,X<X<X,X<X<X<X:X:X:X-X1X:Xx.c L I ] q.D.S.H.J.0.].x.5 $.OX: 2 8 0 a t 9 k I m u.oX1X2X2X3X:X|.3X,X:X,X<X>X:X-X%X#X#X@X#X,X<X",
":X3X<X<X<X,X,X<X<X:X,X:X:X-X2X;XO.{ E I V [ 0.q.S.:.|.a.~ V.B.  q 0 9 a 9 e I x o._.<X3X3X2X3X;X.X<X<X<X<X<X:X>X>X%X#X#X%X@X:X<X",
"$X2X<X<X1X<X,X<X,X:X,X,X>X:X<X$XB.$X%.Y [ ( C I [ -.].,.=.I.t.  8 t 9 t 9 m V D ~.:X<X<X3X<X<X$X$X2X,X<X<X<X:X#X%X-X#X@X%X#X-X<X",
"$X<X,X,X<X,X<X<X:X:X,X,X,X,X<X$Xs.2X,Xv./ W Q R C d k.{ W V.#.  w t 8 8 d m 9 b.-X<X<X<X<X:X,X$X$X5X<X<X<X>X>X-X#X-X#X%X,X<X2X:X",
"$X<X,X,X,X,X<X<X:X>X,X:X<X<X<X#Xr.,X,X<X=X^.$.R P l p.) r a...  8 8 < a k 6 b.:X>X,X:X,X<X:X<X:X@X5X3X<X>X:X>X<X%X#X%X<X<X2X3X<X",
"#X<X<X<X<X<X,X,X,X:X:X:X,X,X<X@X6.,X,X:X>X<X,X+Xv.F ) %.7 %.$.X > 3 t 9 < ^.<X:X:X:X,X<X<X<X3X:X$X3X<X<X,X-X%X>X-X-X<X2X2X<X2X<X",
"@X2X,X<X<X<X,X:X:X:X:X%X:X>X<X@Xn.<X:X:X:X,X<X3X3X:X~.s.n 5 } 6 : 6 : d `.2X,X:X>X:X<X<X1X<X3X;XOX5X3X,X>X>X%X,X<X,X<X2X3X3X5X<X",
"$X3X,X,X,X<X,X:X:X-X:X>X>X:X<X@Xj.2X,X<X<X1X1X1X<X,X,X-XOX~.t.o.g D 3.OX2X<X,X:X>X,X<X2X3X<X3X:X X5X3X<X>X<X-X<X5X,X,X2X3X3X5X<X",
"OX1X>X>X,X,X:X:X:X#X-X,X:X-X,X@Xx.<X,X<X2X1X<X2X,X<X,X:X<X3X2X$X|.$X-X,X>X,X,X,X,X,X<X<X2X<X<X;X|.3X>X<X<X-X-X>X3X,X,X2X3X3X3X<X",
"OX3X<X3X<X<X<X<X<X>X<X<X<X,X2X$X[.5X<X3X3X3X3X3X3X3X4X3X3X3X3X:X$X3X2X<X<X<X<X<X<X<X2X3X3X3X3X;X/.3X<X3X2X,X<X2X5X<X,X3X3X3X4X<X",
"N..X[..X X].[.|.].[.|.|.|. X.X].d.[.]./.].[.]././././.].|.|.|.B.B.$X#X#XOX.XOX#XOXOX|.|. XOX].n.r.OX$X$X$X$X#X%X:X$X#X$X$X$X:XOX"
};
