/* XPM */
static char *wall_bot_right[] = {
/* columns rows colors chars-per-pixel */
"64 64 86 1 ",
"  c #000000",
". c #0D0A06",
"X c #0D0B09",
"o c #15130F",
"O c #171410",
"+ c #181511",
"@ c #1C1915",
"# c #231C13",
"$ c #201D18",
"% c #24211B",
"& c #2E2922",
"* c #362E24",
"= c #37322A",
"- c #433523",
"; c #483926",
": c #413729",
"> c #453A2C",
", c #4D3E2B",
"< c #56442E",
"1 c #4C4132",
"2 c #534635",
"3 c #594731",
"4 c #554837",
"5 c #5B4A34",
"6 c #594C39",
"7 c #5F503D",
"8 c #614F37",
"9 c #614F38",
"0 c #65533C",
"q c #6A573F",
"w c #715B3E",
"e c #6E5B42",
"r c #725F47",
"t c #7C6445",
"y c #766248",
"u c #79654A",
"i c #806545",
"p c #856B4A",
"a c #8A6E4B",
"s c #8D714D",
"d c #93734B",
"f c #99764C",
"g c #9B794E",
"h c #857054",
"j c #8D7351",
"k c #947651",
"l c #977953",
"z c #9D7F58",
"x c #A17E53",
"c c #9F8057",
"v c #A38155",
"b c #A4845B",
"n c #A9865B",
"m c #A6885F",
"M c #AA885E",
"N c #A68963",
"B c #A58D6B",
"V c #AA8F69",
"C c #B08F66",
"Z c #AD926D",
"A c #B19167",
"S c #B9966C",
"D c #B6986F",
"F c #B9996E",
"G c #B29670",
"H c #B59973",
"J c #B89B77",
"K c #BB9E79",
"L c #BFA077",
"P c #BFA37C",
"I c #C09D72",
"U c #C0A077",
"Y c #C4A57C",
"T c #C8A77D",
"R c #C7A87E",
"E c #C9A97E",
"W c #C7A780",
"Q c #C7A880",
"! c #CBAD84",
"~ c #CDB086",
"^ c #CEB086",
"/ c #CEB088",
"( c #D0B38B",
") c #D6B98F",
"_ c #D7BA90",
"` c #D8BB92",
/* pixels */
"BGZZZZZZZZZZZZZZZZV>                                            ",
"P~!!!!!!!!QQ!!Q!~QY2                                            ",
"P!!!!!QWQ!QQYYYQ!QQ4                                            ",
"HYYQ!!!Q!!YYYYYYYY!6                                            ",
"DLY!QQWQQQYYYYYJJLY2                                            ",
"PYYQQYYYWQ!!!!!YJYP1                                            ",
"K!WYWYYYQ!!!!!!!QYY2                                            ",
"JWWWWQWYQ!!!!!/!!!Y2                                            ",
"JQWWYYQYY!!!!!!!/(!2                                            ",
"JWWYYYQ!!Y!!!!!!!(/6                                            ",
"KWYYYYQ(!YW!!YUYYYW4                                            ",
"VGDDFDDDSJJJJFDDSDD,                                            ",
"aklvnvxflnnnvxddffg-                                            ",
"adlxnnvgdxnngxgdddd-                                            ",
"lbxxbnnxxxvldglgfdd-                                            ",
"bMnnMnvvvvxgdgxlgll-                                            ",
"gvlxbnvgvvvxllvbbbn;                                            ",
"iaasdsapppaaapassdt#                                            ",
"knbbblaaapppaaaaas,                                             ",
"zAADDVldlcbczcccbb5                                             ",
"lVCAAVlkMbbbbbcbbb5                                             ",
"NUYYYUAbMvbbbbbbnb3                                             ",
"Z!!!!EJVMbbbbbbnnn3                                             ",
"G!!!!EFmVvbbbbbbnn3                                             ",
"G!!EEYDbmlllllvbbb3                                             ",
"G!EEYYAbbllllllxbb3                                             ",
"D!EEEYDblllllllllb<                                             ",
"ZEEEYYDlllllbxlllx<                                             ",
"H~!!!!!RYUJLIJJHJJ0                                             ",
"H~~!!~(~!!!RYYYYYYq                                             ",
"VYYUYYUJDDDDDACAAV5                                             ",
"VUUUUUJFDDDSSSDDDD8                                             ",
"VUUUUUUFFFFFDDDFSD9                                             ",
"VYUUUUUJSDFFDDDFSD0                                             ",
"DYYYUUUUFDFFFFFFDD0                                             ",
"DYYYUUUUFDFFFFFFFSrX                                            ",
"JYYUUUUJAVADDDDDDDuO                                            ",
"Y(~!!!~RblbbbbbbbbeO                                            ",
"DUJJJUUJblbbbbbbbbeO                                            ",
"DJJJJUUJVVADDDDDDDuO                                            ",
"DJIIIIUUVVASSSSSDDu+                                            ",
"DJFFFJUUVVSSSSSSDDyO                                            ",
"mCCCAAFUCDJIJJFSSDyo                                            ",
"lbnMVCAFDJYTUUJFFFuo                                            ",
"bVCVAADFJY!ETYUUYYho                                            ",
"DJJJJJJJU!))))))))B@                                            ",
"DUUJJJJUU!)`````_`Q*                                            ",
"DYYYYUJJJUUYYYYYJUJ-                                            ",
"DUYYYYUJUJACCADDVVV-                                            ",
"bVDDDDDDDCCAAADDAkp>o                                           ",
"pkbbvvvxxxnDSSSSD7=&@                                           ",
"kbMnnnbbvvbDJFFFFy1*@                                           ",
"lMMMMnnbbbbCFFJJJjq:@                                           ",
"bDSDAAAVVVVAIYYYYDu:@                                           ",
"DIJJJFFDDDDFYEEE!!N>@                                           ",
"DIJJJFFDDDDFIYUUYYJ2@                                           ",
"DFDDDDDDCCCCCCCCADV5@                                           ",
"DFDDDDDDCCCCADDADDV6$                                           ",
"DSDDDDDDAACCAADDDDV0%                                           ",
"VDVVAVVCVCCCCVVDDDAy:                                           ",
"NVVnnbbbbbbbbMVVVVCbw.                                          ",
"lllkddaaaaasssdkllbbt.                                          ",
"VDAACCVMbbbbbxbVbbVDp.                                          ",
"VDSSFFDDAVVVMbnVMMVDt.                                          "
};
