/* XPM */
static char *wall_random_7_64[] = {
/* columns rows colors chars-per-pixel */
"64 64 205 2 ",
"   c #000000",
".  c #0C0301",
"X  c #000509",
"o  c #090B0B",
"O  c #130A06",
"+  c #18120D",
"@  c #010E12",
"#  c #081314",
"$  c #191713",
"%  c #210400",
"&  c #330B00",
"*  c #271405",
"=  c #241C15",
"-  c #211F19",
";  c #392209",
":  c #2B2117",
">  c #23211B",
",  c #2C241B",
"<  c #352517",
"1  c #31261A",
"2  c #34291E",
"3  c #3B2C1D",
"4  c #262420",
"5  c #392E22",
"6  c #3D3226",
"7  c #491B00",
"8  c #4C2B0C",
"9  c #573209",
"0  c #432C17",
"q  c #49321B",
"w  c #55371A",
"e  c #633C15",
"r  c #433323",
"t  c #4B3826",
"y  c #43392C",
"u  c #4D3B29",
"i  c #523B26",
"p  c #593E26",
"a  c #533D29",
"s  c #714318",
"d  c #594127",
"f  c #56412D",
"g  c #5D432C",
"h  c #4E4233",
"j  c #584837",
"k  c #654529",
"l  c #62462E",
"z  c #774C26",
"x  c #744E2C",
"c  c #7A512D",
"v  c #644A32",
"b  c #6B4D32",
"n  c #6E5035",
"m  c #6D543A",
"M  c #735235",
"N  c #7B5534",
"B  c #7E5835",
"V  c #755538",
"C  c #7A5739",
"Z  c #76583B",
"A  c #7C5A3B",
"S  c #5B5143",
"D  c #655846",
"F  c #665B4C",
"G  c #735A42",
"H  c #7A5E43",
"J  c #6F604D",
"K  c #7A6249",
"L  c #786A57",
"P  c #86572D",
"I  c #845833",
"U  c #835A36",
"Y  c #835D3C",
"T  c #8A5E3A",
"R  c #86603E",
"E  c #8B623D",
"W  c #93643C",
"Q  c #986639",
"!  c #A66D3C",
"~  c #856343",
"^  c #8B6542",
"/  c #8E6845",
"(  c #86684B",
")  c #916641",
"_  c #946A45",
"`  c #9B6C44",
"'  c #946D49",
"]  c #9A6F48",
"[  c #9F7047",
"{  c #95714C",
"}  c #9D734C",
"|  c #846E54",
" . c #8D6F50",
".. c #887358",
"X. c #8A755B",
"o. c #967555",
"O. c #9D7551",
"+. c #9D7A56",
"@. c #947A5D",
"#. c #987A5B",
"$. c #A26F45",
"%. c #A47146",
"&. c #A3744C",
"*. c #AA774B",
"=. c #AC794D",
"-. c #B17C4E",
";. c #A47B52",
":. c #AB7D53",
">. c #A27E59",
",. c #B27E51",
"<. c #8A7B65",
"1. c #957E63",
"2. c #9C815F",
"3. c #AD8156",
"4. c #A6835D",
"5. c #AC835A",
"6. c #B58255",
"7. c #BA8455",
"8. c #B3865B",
"9. c #BB8759",
"0. c #B58A5E",
"q. c #BC8A5C",
"w. c #9D8364",
"e. c #98846B",
"r. c #9A856B",
"t. c #9D8B73",
"y. c #A38463",
"u. c #A98865",
"i. c #A48A6A",
"p. c #AB8E6B",
"a. c #B58C63",
"s. c #BC8E61",
"d. c #B48F6B",
"f. c #AD906D",
"g. c #B79066",
"h. c #BC9164",
"j. c #B3936D",
"k. c #A69175",
"l. c #AE9474",
"z. c #A7957D",
"x. c #AD9A7E",
"c. c #B39672",
"v. c #BC9670",
"b. c #B59975",
"n. c #BB9B76",
"m. c #BA9D7A",
"M. c #BDA17D",
"N. c #C28D5E",
"B. c #C18E61",
"V. c #C59364",
"C. c #C99566",
"Z. c #C1966A",
"A. c #CA9768",
"S. c #C39A6D",
"D. c #CB9A6B",
"F. c #C59C73",
"G. c #D19E70",
"H. c #D5A16F",
"J. c #C1A37E",
"K. c #CBA479",
"L. c #D7A576",
"P. c #AE9C81",
"I. c #B29E82",
"U. c #B3A085",
"Y. c #BDA483",
"T. c #BFA887",
"R. c #B6A489",
"E. c #BBA98D",
"W. c #BDAC92",
"Q. c #C2A683",
"!. c #CAA781",
"~. c #C5A986",
"^. c #CAAB86",
"/. c #C5AC8B",
"(. c #CAAE8B",
"). c #CCB18E",
"_. c #D1B38E",
"`. c #C3AE90",
"'. c #CEB493",
"]. c #CBB799",
"[. c #D1B693",
"{. c #D8BC97",
"}. c #D5BC9A",
"|. c #DABE9A",
" X c #D5BFA0",
".X c #D7C09F",
"XX c #DCC19E",
"oX c #D7C1A1",
"OX c #DDC5A2",
"+X c #DFC8A7",
"@X c #DFC9AA",
"#X c #E1C6A3",
"$X c #E2C9A6",
"%X c #E4CBA8",
"&X c #E7CEAC",
"*X c #E9CFAC",
"=X c #E7D0AE",
"-X c #E9D1AE",
";X c #E7D1B2",
":X c #EED8B7",
">X c #ECD7B8",
",X c #EED9B9",
"<X c #F0D6B3",
"1X c #F1D9B6",
"2X c #F2DCBB",
/* pixels */
"f.j.j.j.j.j.c.j.j.b.c.c.c.b.M.b.~.#XOXXXOX$X&X$XOX#X$X&X&X&X&X[.b.).).(.(.(./.~.m.j.f.p.f.j.4.u.y.l.i.l.Q.M.M.Q.(.(.(.~.Q.J.Q.M.",
"j.XX$X$X$X$X$X#X-X2X:X:X:X;X2X&X|.2X<X-X*X;X2X;X-X&X1X2X2X<X2X&X|.2X1X1X;X1X2X2X;X*X$X*X-X*X-X{.Y.<X*X*X-X-X-X-X<X<X<X;X;X-X1X&X",
"c.&X&X#X$XXX|.{.OX&X;X;X-X;X2XOX{.*X#X$X#X&X;X&X&X$X$X$X&X&X;X&X{.-X$X&X$X$X-X;X*X&X&X&X&X$X1XoXm.-X&X|.{.{.XX*X$X$X#XOX$X$X;XOX",
"Y.-X#X$XOX|.{.{.{.{.$XOX&X;X:XOX'.-X#X#X#X#X;X&X$X#X$X$XXX#X;X&X{.-X$X&X&X-X;X-X-X&X$X&X*X&X;X{.b.*XXX{.{.{.|.$X&XOX|.|.#X$X;XOX",
"M.=XXXOXOXXX|.XX{.{.{.&X:X;X2X&X[.-X#X&X#X#X&X#X$XOX$X$XXXXX&XOX{.-X&X&X&X;X;X&X-X*X$X$X&X-X;X{.b.#X|.XXXX{.|.XX#X|.|.XX#X$X*X$X",
"n.&XXX{.OXXX{.XXOXXXXX=X;X:X2XOX'.-X#XOX&X#X#X$X$X#XOX$X$X#X$X|.{.;X*X&X&X;X;X&X&X$X&X#X&X;X;X{.b.#X{.{.[.{.XXXXXXXXXX#X&X$X*X$X",
"m.$X&XXX|.|.XX&X;X;X&X$X$X&X$X[.).$X$X{.XX$X$X&X$X#X#X#X$XXX#X{.).;X;X-X&X;X;X-X*X$X$X$X&X;X;X{.c.$X{.|.XX#X#X$X&X&X&X&X&X&X;X&X",
"M.&X&X$X|.XX&X;X-X=X=X-X;X,X&X|.{.$X&X$X|.&X&X$X$X$X$X#XXX{.*X{.).;X*X-X&X&X*X;XXX{.OXOX&X&X;X{.b.$X|.|.XXOX$X#XOX$X$X&X&X&X;X&X",
"M.$XOX$X#X&X;X;X;X;X;X;X2X;X&XOX{.&X$X$X$X&X&X$X#X$X$XXX{.$X;XXXQ.;X*X&X&X&X&X;Xm.0.S.K.^._.|.'.Y.#X#XXX{.XX$X#X|.OX$X$X&X&X-X$X",
"M.-XOX,X;X$X-X:X,X2X,X,X;X-X-X{.'.&X#X$X#X$X&X$X#X$XOXXX|.XX2XOXm.;X&X;X;X&X;XOXg.;.A } ;.8.s.a.g.J.(._._.|.#X$X$X#X#X&X&X&X;X$X",
"~.-XXX;X;X$X-X;X,X2X;X,X&X&X;XOX(.&X#X#XOX$X$X$X#X#X#X#XOX|.;XOXM.-X&X&X&X&X;X(.V.K / ^ C Z Z ^ { } 3.a.g.K.K.^._.[.XX$X$X&X-XOX",
"Q.&XOX;X;XXX=X;X;X;X;X;X$XOX;XOX'.$X|.$X&X$X$X#X$X*X;X&X$X$X;XXXm.*X&X&X*X-X&XK.a.~ 8.:.&.} ~ ' ~ A n H ~ { ;.:.8.0.p.#X#XXX-X#X",
"/.$XOX;X=X{.OX;X;X>X,X;X&X&X&XOX{.$XXX$X$X$X$X#X$X-X*XOX$XOX$X{.Q.-X&X-X*X-X{.S.o.} 0.} ;.} ;.8.:.;.' } ~ ~ / M >.h.X.OXXX|.;X&X",
"/.;X&X2X;X{.OX;X;X;X>X,X,X;X$X{.{.$XOX$X#X#X$X$X$X&X&X&X$XOX$X[.b.;X&X&X&X=XQ.h.K 5.a.} 3.^ 5.3.3.;.;.:.&.8.5.R S.8.D I.Y.~.{.{.",
").2X:X2X,X;X;X;X;X2X2X2X,X;X;X{.{.;X=X-X$X&X*X*X*X-X-X-X&X$X*X{.M.1X*X*X;X&XS.+.~ 0.3.5.;.^ 0.;.5.} &.&.} h.&.} K.~ S I.z.x.U.U.",
"/.&XOX&X=X;X&X&X&X;X;X&X&X+X&X'.m.{.'.[.{.'.'.'.).'.'.(.Q.J.^.M.b.{.|.{.{.Q.h.~ ' 3.:.5.Y } 8.;.:.;.3.} 0.Z.^ 5.Z.3 S z.k.z.z.b.",
"f.~.(.'.'.{.{.{.{.{.{.[.)./.[.~.m.b.+./ R Y U U U / >.c.).~.Q.Q.f.c.j.j.p.a.a.Z ;.;.:.' Y ;.;.0.;.;.3.;.S.a.^ g.+.  j 1.@.X.X.c.",
"(.;X2X2X&X*X;X;X;X:X;X;X;X-X;X'.o./ Y Y b / ] A _ &.) O.m.OX1XXXQ.;X$X=X$XF.o.^ ;.;.&.A } ;.;.;.^ 8.&.:.S.} O.S.H   D R.R.z.'.$X",
"~.-X-X&X#X$X$X&X*X-X;X&X;X*Xc.c B Y V v 6 g A v &.&.) ` z R '.OXM.;X=X;X/.8.H _ } } ' A ' } _ ~ ~ 8.&.;.s.E g.a.2   D R.E.P.@X&X",
"Y.;X&X&X&X&X$X$X$X$X-X-X&Xp.z V a n n A _ Y l V } Y A R m E ' b.n.&X-X@Xy.&.H _ ^ A A m / } ~ Y { ;._ 5.:.' K./ # . D R.R.R.;X;X",
"/.;X$XOXOX#X$X$X$X&X;X;XQ.s V u g A ^ :.} b V } ;./ R b b ^ _ W @./.OX'.A } } ;.;.' A Z A V n A / ^ _ :.^ 5.F.f 4   D W.U.}.;X&X",
"/.;X$X#X#X#X$X&X&X&X-X&X( M u v ^ _ :.^ g } 8._ ^ A a l Y b C &.o.t.k.e.b n V A ~ Y V n v v v v b A / ^ n a.;.@ 5   D W.R.;X;XOX",
"Q.;X-X&X$X&X&X&X-X;X;X~.x v a Y _ &.A b &.:.^ ^ A t l M n M t &.} <.l.e.v t a f 3 1 p A ' &.} ;.;.^ } } O.h.H @ 5   D R.`.;X-XOX",
"~.;X-X&X&X*X*X-X;X;X#X4.A u v &._ b R &._ A A b g V V V / ^ i } &.D | j i t r 3 l _ ,.6.9.9.&.q.H.' g { :.} 5 , 5   D R. X;X;X&X",
"/.;X;X-X-X-X*X*X;X;X[.+.^ t V ^ g _ } ) Y M f b A M A _ A M l } ;.5     3 3 2 Y ,.6.:.:.&._ ` ,.C.;.  t ) Y > , ,   D R.OX=X1X;X",
"[.;X&X;X;X;X;X-X&X-XQ.>.+.l v b ^ _ ^ ) M l Z A V } } b M Y M =.O.6 - = , X M 3.q.:.` ` %.=.9.N.C.&.# @ A ] - , =   <./.$X$X:X>X",
"{.;XOX;X;XOX!.F.a.O.>.+.j.N M ^ ) ^ Y g l R A ^ 3.} b C ^ V ` :.K 5 O   X g C.V.} Y E &.,.7.7.6.q._ > $ A } > , . 6 z.{.$X&X;X;X",
"'.;X&X-X-X|.-.7.=.W u.Y u.j.U A A v t V E V ] 3.^ M ^ ^ Y _ :.+.f r h j   b B.^ N ^ ` _ Y b i M b 1 r @ A &.> ,   J `.&X&X;X2X;X",
"{.;X;X-X&XOXD.C.6.W a.u.U l.c.E N g A A n ' _ b A ~ Y E ` :.4.m r f J 1.  g T n E A l 1       b f @ r $ A ] - = . t.OX&X&X-X,X;X",
"OX;X&X$X$X&Xg.` ^ A %.n./ z c.J.j.&.W c T E l U E T ` :.g.u.Z g H f j X.  g Y b l 1 $ = = = = n l 3 6 2 ^ / - . j `.&X&X&X;X;X&X",
"{.;X&X&X;X-Xb.U C Y *.;.Y.;.! >.J.^.!.F.g.a.s.g.g.F.n.c.X.A x ( | < h | o 3 C v : : , = + O + l l 3 2 , R / >   X.[.&X&X-X&X$X|.",
"j.[.&X$X[.g.q.=.Y _ 7.=.o.~.d.*.Q H j.Y.(.[.).).Q.p.+.A 8 V #.X.g 3 r G = X g b = : $ X o + $ g a : 1 , Y ^ $ $ w.J.(.{.'./.Q.J.",
"m.m.a.q.-.=.&.` Y ` 7.q.T >.~.(.y.M ! ! q.N._ U *.7 N ^ @.l.@.M b u 6 j O   g b X $ r g g l g q g 3 = $ A Y   j p.c.m.M.m.M.Q.b.",
"u.s.q.6.,.6.:.` 9 U 6.&.^ 6.%.g.(.'.Q.c.v.g.a.y.n.i.c.m.y.H U A A u 3 J j X g b @ g Y E _ :.8._ &.T   = M A   k.[.~.).{.[.(.).).",
"/ ` B.B.B.6.U q <.y.%.} A =.7.N.N o.m.Q.~./.(./.~.m.y.' N b _ Y ^ u 1 X.e.1.H p 5 Y ;.q.B.N.q.9.:.:.b   g g 6 oX$X|.{.).(.(.{.OX",
"/.i.*.:.M F z.{.;X/.! } M *.V.C.A &.Q $.-.=.q.C [ ` T *.] v A A ^ t 5 e.w.e.j g ;.q.B.9.:.*.=.,.} :.V.i X & e.$XXXXX#X[.{.OX&XOX",
"/.#XH L E.&X;X;X*X'.%.) A 7.D.D.Y 3._ :.9.:.V.' } 6._ ,.^ a Y Y ~ w h P.x.w.Y C 6.6.=.&.} :.8.6.:.q.L.Z.6 $ /.XXXX$X$X$XOX&X-X&X",
"/.-XOX&X;X;X=X&X*XOX&.E R 7.D.D./ B.*.V.N.&.s.O._ 9.$.=.^ r A A Y 0 D R.R.1.` _ ^ } :.q.q.V.A.D.D.L.L.L.g.e.Y.#X&X&X&X&X-X-X;X&X",
"/.;X&X&X&X;X-X&X&X@X5.E } 7.D.s./ N.7.D.C.` 3.3.A 6.` &.^ t M A V ; L R.I...c } q.V.C.C.C.V.A.G.L.L.L.G.C.j.z./.#X$X&X$X$X&X*X&X",
"T.-X&X#X$X&X&X&X&X&Xd.W ] ,.V.q.Y 7.q.C.V.A ;.s.M &.Y ` ` a N C v % <.R.R...w :.C.V.V.D.D.A.D.D.D.A.B.8.:.O.I.z.).$X&X$X$X$X*X&X",
"Y.&X#X&X&X&X&X&X&X;XQ.Q ^ -.q.:.Y 7.7.C.N.C ] 7.b &.N E E l M N g = t.R.E.t.8 b -.V.V.V.s.B.C.A.N.6.` ^ Y ^ x.z.z.OX&X&X$X#X-X&X",
"Y.&XOX&X=X&X&X$X-X2X/.P ^ 6.7.} Y -.-.q.7.E Y ,.b ] Y ^ _ v b M i 5 z.P. Xz.9 u / 9.B.B.A.A.q.&._ A | K x ~ x.x.P.oX*X$X$X$X;XOX",
"l.&X&X&X&X&X&X&X;X2X].U R 7.7.&.M ` ) =.-.M Y *.l _ M _ [ u N M < j z./.;Xk.9 j t.O.V.D.8.) M A H k.U...z ( I.x.E.$XOX&X*X$X;XXX",
"p.&X&X&X$X&X$X&X&X;X;X@.l ,.7.=.b ` Y -.-.M Y ) g ` b %.` t C v O <.Y.|.-Xk.w a z.`.6.^ l L P.z...U.x...x ( P.U.{.#X|.OX&X$X;XOX",
"c.;X&XOX$X$X#X#X#X&X;X/.p ) 7.6.N ` &.7.6.Y Y W b ` M &.Y u b r 6 x.XX$X&Xt.8 t }.+X~ c k.E.W.z.X.`.[.i.z / P.}.=X#X#X$X$X-X;XOX",
"Y.-XOX$X&X&X$XOX#X&X&X$X@.B &.=.Y &.` 7.7.Y _ ` b ) Y &.b r j   <.OX&X;X2X`.. a OXOXV c l.R.R.z.f.&X-Xk.l ( z.OX;X$X$X&X&X-X;X+X",
"OX;X&X=X;X2X,X=X;X;X=X;X'.m / } N T E *.-.Y &.` Y ) b E a j r y {.;X=X;X;X;X/.{.;X$XA x e.R.`.{.m.;X;Xz.e ( {.&X&X-X;X;X-X;X;X&X",
"Q.OX{.{.{.{.{.'.~.~.~.Q.(.w.w A ~ ~ ^ ` %.E ` N Y Y v H j * j c.^.|.OXOXXX{.{.[.XX'.C N X.e.l.M.f.'.^.@.% m OXOXOXOX&X&X#XOXOX'.",
"m.).(.(.~.Q.~.Q.Q.M.M.M.J.Q.l.K w n  .o.>.>.+./ / ( m t . <.OX|.Q.{.{.|.OX|.'.).[.Q.b M H ..m.c.{ f.M.M.I.'.{.{.{.[.[.[.{.{.{.).",
"XX-X$X&X*X*X;X;X;X&X&X&X&X&X;X{.X.L i q l b d q w * h X.R.#X&XOXXX;X&X=X;X;X;X;X-XOXv l e.{.2XOXi.-X*X&X*X-X&X$X$X$X#XOXOX#X;X=X",
".X&X$X$XOX&X*X&X$X&X#XXX$X&X;X{.b.-X{.R.k.e.e.e.k.Y.{.$X$XOX$XOX{.$XXX#X&X$XOX$X$X{.i & z.;X;XOXY.-X*X&X|.|.XXXXOXXXXX{._.XX-X$X",
"OX;X&X&XOX&X-X$X$X$X$XOXOX=X-X{.i.&X-X-X*X*X&X*X$X$X$X+XOXOX&X+X{.$X#X&X$X$XOXXX|.OXX.f `.&X=X.X/.;X;X;X#XXXXXXXXX|.|.{.[.&X;X&X",
"XX=X&X&X$X&X;X=X$XOXOX$XOX&X;X{.b.-X#X#X#X$X$X$X#XOX$X+XOX#X-XOX'.$X&X&X&X$XOX|.|.#XOX&X;X&X&XoX/.;X&X&X#X#XOX#X|.|.{._.{.&X;X&X",
"OX&X$X&X&X$X&X&X&XOXOXOXOX$X-X{.M.-X#X$X$X&X&X&X$X$X&X$XXXOX=XOX'.-X&X&X$X$X#XOXOX#X*X;X*X;X;XOX/.;X$XOX$X&X#XOXXX|.{.{.{.{.$X&X",
"OX;X&X&X&X$X$X&X&XOX$XOXOXXX-X{.b.-X$X$X$X&X&X&X&X&X&X&XXXXX&XOX{.-X$X$X$X$X#XOX$X&X&X;X;X;X;XOX).*X&X*X&X&XOX#X#X|.{.{.|.[.OX&X",
"{.-X&X&X=X&X$X&X$XOX$X$XOXOX-X{.l.&X&X$XOX$X&X&X&X&X&X$XXX|.&XOX'.&X$X$X$XOXOXOX$X&X&X=X;X&X=X.X{.-X$X&X&X&XOX{.|.XX{.{.|.{.XX&X",
"{.&X$X$X&X$X&X&XOXOX$X$X$X$X&X{.i.&X&X$X#X$X$X&X&X&X&X&X&X#X&XOX).&X$X&X+XOXOXOXOX&X$X&X&X#X$X{.{.2X-X*X&X#X#XXX{.XX{.|.$X&X-X$X",
"{.&X$X$X$X$X&X&XOX#X$XOX&X&X&X{.w.&X$X#X#X$XOXOX&X&X$X&X&X&X;XOX).-X&X$X$X$X$XOXOX$XOX$X&XOX&XOX[.2X;X*X#XOX#X&X|.{.|.&X-X-X;X&X",
"{.&X&X&X&X$X$X$X$XOXOXOX$X$X&X[.2.$X&XOX#X$X$X$X&X&X&X&X&X$X;XOX{.&X&X&X&X&X&XOXOXOX$X&X&X&X;XOX{.;X*X&X$XXX|.#XXXXX&X-X-X&X;X&X",
"'.-X$X&X&X&X$XOXOXOXOX|.OX#X&X[.c.*XOXOXOX&X&X=X&X$XXX#X#X#X-XOX{.&X&X&X&X&X$X$X#XOX&X&X-X&X;XOX'.2X;X$X#XOX|.$X*X$X&X-X;X;X2X&X",
"{.;X$X$X&X&X$XOXOXXXOX#X#XOX&X[.f.-X$X&X&X=X-X;X&X$XOXXXOX&X;XOX{.-X$X&X&X&X$XOX#X$X&X-X;X&X;XOX(.2X;X&X#X&XOX&X2X$X$X-X;X;X2X&X",
"'.-X$X#X$X$XOXOXOX{.XX$XOXXX$X[.l.&X$X&X-X=X&X;X$X&X&X$X$X&X-X{.{.&X$X$X#X$X$X$X$X$X&X&X;X&X&XoX/.;X$X&X&XOXXX#X;X$X$X-X;X;X;X&X",
"[.;X-X;X&X&X&X&X&X#X&X&X&X$X-X{.~.2X*X;X;X;X;X;X;X;X1X;X;X;X;XOX{.-X&X&X&X&X&X&X&X&X-X;X;X;X2XOXY.1X&X;X-X&X&X-X2X&X$X;X;X;X2X-X",
"n.).^.).(.Q.~./.Q.~./././.(.).Q.p.~.Q.Y.Q.~.Q.Y.Y.Y.Y.Q./././.b.b.{.{.'.'.).'.{.'.'././.(.'.~.b.w.'.{.{.{.{.{.XXOX|.{.{.{.{.OX[."
};
