/* XPM */
static char *floor[] = {
/* columns rows colors chars-per-pixel */
"64 64 12 1 ",
"  c #4F4F4F",
". c #545454",
"X c #5B5B5B",
"o c #666666",
"O c #6C6C6C",
"+ c #757575",
"@ c #797979",
"# c #868686",
"$ c #898989",
"% c #959595",
"& c #989898",
"* c #A1A1A1",
/* pixels */
"*&$$$#+++@$$$$$#+++++oo++oXXXo+++++++@$$$$@$**%$$$#@$$$$&*&$@@$$",
"&&&$#@++@#$$$$$#+####+Oo.XoOO++++@####$$%&$%&%$$$$%%@#$$%%%$@+@$",
"%&%$@++@#$%$$$$##%$$$@Oo.XO++@@++@$$$$$%%&$%%$$$%%&&##$#####+oo+",
"#$$$@+@$$%&%$$$$%&%$$@++oO+++@#++@$$$$$&&$$$$$$%***&%$#+++++oX X",
"++@@#$$&&&*%$$$%&*%#@+@$#Oo+++++++++@@$&&$$$$$$%****&&%+oXo+++O+",
"oO++$&&&***%$$%&*%%%#+@$@+O++++++@#+@#$%%$%%$%&&******%#OOO+++++",
"Xo+@%******%%%&*&$%&$@@#+++++++++@#@#$$$$$&&%*********&$@++O++++",
"Xo+#&*********%%&$$$$$#++++++++++++#$$$$$$&************&$@+oO++o",
"O++$&**%&*****&&&$$$$$#++@#++++++@#@#$$$%&*******%%%****%$#O@#+@",
"@@@$&**$%***&&*&%$$$$$#@+@@+++++@#$@@$$$%*&&&&&**$$$&***$$%$$#+$",
"$$$$&**%%&&*&$&%$$$$$$$$@+++++++#$$@@$$$%*%$$$%&&$$%****%%**%#@%",
"&&&&****%$$&&$$$$&%$$$$$$@++++++#$$@@$$$%*&&&$$$$$%&****&&**&%$$",
"%%&*****%$%%%$%&&*%$$$##$#@+++++#%%##$$$%**&%$%%%$%*****&%%**&&%",
"$$$&&&&&%$*&$$&***%$$###$$#+++++#%&$$$$$%**&%%&*&$%&&&&%$$%*****",
"$$$$$$$$$$&*&$&***%$$@$&$@++++++#$$$$$$&*******&$$$$$$#@+$******",
"$#@@#$$$$$%&*&****&%$#%&$@++++++#$$$#@$&******&%$@#$$$#++#%*****",
"$#++#$$$$#$%&******&$$%%#@+++@@+@#$$#@$&******$#$@@$$$#+@#$&&***",
"$#++#$$$@+$$%&*****&$$$$@++++@#++@$$$$$&******#@$+@$$$#+#$$$&&&&",
"$#++#$$@Oo#$$$&****&$$%&$@@#$#+++@$$$$$&****&%%&$OO@$@+++@@$$$$$",
"#@++@@@OoO$%%$&***&$@$$%$#$%&$@++@$$$$%&****&$&&$+O+@+++++@$#@@$",
"@++++++oO@$&&%&&&&$#+####$%**&$+@@$$$$&&&*&&&$&&#@+@+++++++#+O+#",
"$#+++++++@$&*&*%$$@++++++#%**&$+#$$$$$$$%&%$$$&%@+##++++++++oo++",
"$#++++++@$&&&%##$@+++oooo+#**%$+@#$$$$&%%&%$$&&&%%%#++++++++oo++",
"$#+@@+O+#%**&$@+@+@@+OoXXO@&*%$+@#$%%%*&&*%$$%&**&$@+@@+@@@+OO@+",
"$#+$#+o+$***&$@Oo+@@++OXXO@$&%#@#$$&*****&$$$$&*&%#++##@$$$++@#@",
"$#+$%%##%****&&%#+OX XO++++@$$$$@@$&****&$$$$$&**%$$#$$$&%$+++++",
"$#+@@@@$$%%%%#@@@#+ooo+#####@#$$##&&****&%$$$#$%%$%&&$$&*%$#@+++",
"$#+@Oo+#$####+oo+$#@@@#$$$$#@@$$$%*******&$$#+#$%$%&*%%**&$#@++@",
"$#@#@++##+++++oo@$$$$$$$&%#++@$$&*******&$$#++#%&%$%&*****&@+++#",
"$#+@+++@++#@OoO@#$$#@#%&*%$#+@$$$%%%%%**&$$#++$&*%$$&*****&$@++#",
"$$#+@@@@@+#@OXO#%$##@$%&*&%$##$##$$##$**&$$#@+%**&$$%&****&$#@@$",
"$%&@#$$$#++++oO$&$@@$$$$&&&$$$$@#$$@#$&&&$$$#+%***&$$%****&$$$$&",
"$$$$%&$$#++###@$&@+@$@+@$$%&&&&$$$$$$$$$$$$$$+%****&@#%***&$$%&*",
"@#$$&&$$#++@@@+@#+++@+OoO@#%&**&$$&&%$%%$$$$$+%***&%##$%%&*&%%*%",
"@@##%%$#@+@@@+@+++++++oXXO@#&***%%**&%*%$$$$#@$&**%$$$$##%&&%%&%",
"@+++#$$@+@$$#@##+++++oXXXO+@%**********%$$$#@$$%**%$$$#++@$$$$$&",
"$###@@@+@$&&&%$$#+Oo+ooOO+++$%%&&%*%%%&%$$$$#@$&*%%&$#+++OO@@@$&",
"%$##@+OO@$&&%$@+@@OO+OO+@@@@###$$$%$$$%%$$$$$@%&%##$#@+++OXOO+$%",
"&$+++OXX+$&%#+oXo#@+@++@$$$#@+++#$$$$$$$$$$$$$&&$@+++++++oXXXO$$",
"$@o+++++@$&%#++++$$$#@@$&%#++Oo++@$$$$$$$$$$$&**&$@+++++oXXXO@$@",
"@OX+++++@#%%%#+@#%%$$##$%$#++OX+@#$$$$$$%&&%$%&&%#@@+OO+ooOO@#@+",
"+Oo++++++@$&&%##%*%$%%$$$$#++OX+#$$$$$%%%&*&%$&&$@@#+Oo+oO+@$$@@",
"+++#@+++++$&**&***%%&&%$$$#++OX+#$$$$$&*&$&*&$&&$@++++++++@$&&$$",
"+++@+@#@OO#&******&&%%$$$$#++OX+@#$$$$%&*&***&%%&Ooo#@+++@$&**&$",
"#@@+@#$#Oo@$&******&$$$$$#@++OO++@$$$$$&******%$%+oO$#@+@#$%&**%",
"$$#+#$$$+o@#%&*****&$$$$$@+++++++@$$$$$&******%$$@++$$#@#$$$&**%",
"$#++#$$@+@%&&$&****&$@#$$$#+++++#$$$#@$&******%$$@+@$$%&@+@&***&",
"&$++#$$###&*&$&****&$@@#$#@+++++@#$$#+$&******&&%###$%%%@@#&****",
"&$@#$%%%%%**&$&&**&%$@@@$#@+++++@#$$#@$%&&***&&&*%$%%&&$@#%&****",
"$$$&********&$$%**%$$$$$&%#+++++#%&$$$$$$$&*&$$%&%%****&%$%*****",
"$$$&****&%%%$@#%**%$$$#@@##+++++#%&$#@$$$$&*&$$$%$%*****&&&****%",
"%%%*****&$$%$@#%&*%$$$#+@##+++O+@$%$##$$$%%&%$%%%$%&********&&%$",
"&&&&***&%$$&&$$$%&%$$$#+#$#++Oo++@$$$$$$%&%$$$&**%$$&**&&&&&$###",
"$$$$&**%$$&**&$%&$$$$$#++##+++++#$&&%$$$$%&&&&****$@&*&$@#$@++++",
"@@@$&**&%$****&&&$$$$$##+@@++++#%&**%$$##$&*******%#&*&%@@@+++++",
"OO+$&***&%****&&&$$$#$$#++@+++@$&***%$#@#$&&&&****&%***&@+OO++++",
"XXo#%********&%%&$$#@##++##++@$&****%#@#$$$$$$&*******&$@OXXO+++",
"XXo@$%*****%%%$$%$%%#@++++@++#&*****%#+$%$$$$$$%******&$@OXXO+++",
"+OO+@#%&***&%$$$$$&&$@++@@+O+@$%&**&$@+%&$$$$$$%***&&&%#+OooOooO",
"%#@@+@$&&&**&$$$$$&&$@+@$@OoO++$&*&$#++%&$$$$$$%&&&&$$#@+@++OX X",
"&%$$$#@$$%&%$$&%$$$$$@@$$@+++++$&&$$$$$$$$$$$&%$$$$$$@@$$$#+#@+#",
"*&%$#@+###%$$&*%#$$$$@@@@+++++@$%%$##$$$$$##$%$$$#@@@+@$%&%#@@#$",
"&&&$#@+#@+$#$&&$+#$$#@+O+OOOOO+###$@@###$$@@$$$$#@@++@@#%&&%##$%",
"$$$$$#+++@$@@$$#++##++Oo+oXXXXo++@$$+o++@$@@$$$#@##++##@#$$&%$$&"
};
