/* XPM */
static char *J[] = {
/* columns rows colors chars-per-pixel */
"16 28 51 1 ",
"  c #AD0D1C",
". c #AF101D",
"X c #B1111F",
"o c #B4181F",
"O c #B21220",
"+ c #B41B22",
"@ c #BE2A23",
"# c #C12B25",
"$ c #C13024",
"% c #E46C32",
"& c #E77133",
"* c #EF7B37",
"= c #F07F36",
"- c #D72640",
"; c #DE2A46",
": c #E12D48",
"> c #E62F4C",
", c #E6324B",
"< c #E9344E",
"1 c #F33458",
"2 c #F73C5A",
"3 c #F93D5B",
"4 c #F54852",
"5 c #F94E53",
"6 c #F7425E",
"7 c #FA7A45",
"8 c #FE714C",
"9 c #FE7F4B",
"0 c #F08037",
"q c #FD973C",
"w c #FF9F3F",
"e c #FF9D43",
"r c #FFA141",
"t c #FFA649",
"y c #FFB962",
"u c #FBC16B",
"i c #FFCF77",
"p c #FFD377",
"a c #FFD47A",
"s c #FFD781",
"d c #FBDC8E",
"f c #FBDD94",
"g c #FFE48F",
"h c #FFE795",
"j c #FFE891",
"k c #FFEB9A",
"l c #FFF1C0",
"z c #FFF4CD",
"x c #FFF7D0",
"c c #FFFAE6",
"v c #FFFFFE",
/* pixels */
".OX++++++++++OO.",
"X,7ufffddddfu7,O",
"X*ijlvcjjjjjji*X",
"X=ajlvcjjjjjja0X",
"X0akkkkjjjjjja0X",
"X0pxzjjjjjjjja0X",
"X*ihhgghjjjjka0X",
"X<9eeeetgjjjka0X",
"X<32225egjjjja=X",
"X>11114egjjjka=X",
".OOOOO#egjjjja=X",
"..... @egjjjja=X",
"..... @edjjjjp0X",
"..... @qrshhuw0X",
"..... @qwerrew0X",
"..... @qwwwwww0X",
"..... @qwwwwww=X",
"..... @qwwwwww=X",
"..XooX$qwwwwww=X",
". %qqqqwwwwwww=X",
". &rewwwwwwwwr0X",
". %uueeeeeewyi*X",
"..>8ydddddddu9<X",
"..>33666666663<X",
"..;32222222222>X",
"..X-111111111>X.",
"...XOOOOOOOOOO..",
"........... ...."
};
