/* XPM */
static char *X[] = {
/* columns rows colors chars-per-pixel */
"16 28 5 1 ",
"  c #AF101D",
". c #F7385B",
"X c #FF9B3D",
"o c #FFE894",
"O c white",
/* pixels */
"                ",
" .XoooX  XoooX. ",
" XooOOo  oooooX ",
" XooOOo  oooooX ",
" Xooooo  oooooX ",
" XoOooo  oooooX ",
" Xooooo  oooooX ",
" Xooooo  oooooX ",
" Xooooo  oooooX ",
" .ooooo  ooooo. ",
"  oooooXXooooo  ",
"  XooooooooooX  ",
"   oooooooooo   ",
"   XooooooooX   ",
"  .XXXXXXXXXX.  ",
"  XXXXXXXXXXXX  ",
" .XXXXX..XXXXX. ",
" XXXXXX..XXXXXX ",
" XXXXXX  XXXXXX ",
" XXXXXX  XXXXXX ",
" XXXXXX  XXXXXX ",
" XoXXoX  XoXXoX ",
" .XooX.  .XooX. ",
" ......  ...... ",
" ......  ...... ",
"  ....    ....  ",
"                ",
"                "
};
