/* XPM */
static char *S[] = {
/* columns rows colors chars-per-pixel */
"16 28 5 1 ",
"  c #AF101D",
". c #F7385B",
"X c #FF9B3D",
"o c #FFE894",
"O c white",
/* pixels */
"                ",
"    XooooooooX. ",
"   XOOooooooooX ",
"  XoOOooooooooX ",
" XooooooooooooX ",
" XoOooooooooooX ",
" XooooooooooooX ",
" Xoooooooooooo. ",
" XoooooX....... ",
" XoooooX        ",
" Xoooooooooooo. ",
" XooooooooooooX ",
" XooooooooooooX ",
" XXooooooooooXX ",
" .XXXXXXXXXXXXX ",
" ........XXXXXX ",
"        .XXXXXX ",
" .XXXXXXXXXXXXX ",
" XXXXXXXXXXXXXX ",
" XXXXXXXXXXXXoX ",
" XXXXXXXXXXXoX. ",
" XoXXXXXXXXoX.. ",
" .XooooooooX... ",
" .............  ",
" ............   ",
"  ..........    ",
"                ",
"                "
};
