/* XPM */
static char *G[] = {
/* columns rows colors chars-per-pixel */
"16 28 5 1 ",
"  c #AF101D",
". c #F7385B",
"X c #FF9B3D",
"o c #FFE894",
"O c white",
/* pixels */
"                ",
" .XooooooooooX. ",
" XooOOooooooooX ",
" XooOOooooooooX ",
" XooooooooooooX ",
" XoOooooooooooX ",
" Xoooooooooooo. ",
" Xoooooo....... ",
" Xoooooo....... ",
" Xoooooo        ",
" Xoooooo        ",
" Xoooooo        ",
" Xoooooo        ",
" XXooooo XXXXX. ",
" XXXXXXX XXXXXX ",
" XXXXXXX XXXXXX ",
" XXXXXXXXXXXXXX ",
" XXXXXXXXXXXXXX ",
" XXXXXXXXXXXXXX ",
" XXXXXXXXXXXXXX ",
" XXXXXXXXXXXXXX ",
" XoXXXXXXXXXXoX ",
" .XooooooooooX. ",
" .............. ",
" .............. ",
"  ............  ",
"                ",
"                "
};
