/* XPM */
static char *_[] = {
/* columns rows colors chars-per-pixel */
"16 28 5 1 ",
"  c #AF101D",
". c #F7385B",
"X c #FF9B3D",
"o c #FFE894",
"O c white",
/* pixels */
"                ",
" .XooooooooooX. ",
" XooOOooooooooX ",
" XooOOooooooooX ",
" XoooooXXoooooX ",
" XoOooo..oooooX ",
" Xooooo  oooooX ",
" Xooooo  oooooX ",
" Xooooo  oooooX ",
" XoooooXXoooooX ",
" XooooooooooooX ",
" XooooooooooooX ",
" XoooooXXoooooX ",
" XXoooo..ooooXX ",
" XXXXXX..XXXXXX ",
" XXXXXX  XXXXXX ",
" XXXXXX  XXXXXX ",
" XXXXXX  XXXXXX ",
" XXXXXX  XXXXXX ",
" XXXXXX..XXXXXX ",
" XXXXXXXXXXXXXX ",
" XoXXXXXXXXXXoX ",
" .XooooooooooX. ",
" .............. ",
" .............. ",
"  ............  ",
"                ",
"                "
};
