/* XPM */
static char *player_collec_1_64[] = {
/* columns rows colors chars-per-pixel */
"64 64 226 2 ",
"   c None",
".  c #0D0A0A",
"X  c #160F0E",
"o  c #161617",
"O  c #1D1C1C",
"+  c #1B1414",
"@  c #221C1B",
"#  c #271714",
"$  c #311D11",
"%  c #331C0F",
"&  c #372216",
"*  c #29211F",
"=  c #242323",
"-  c #2F2825",
";  c #2B2A2A",
":  c #292728",
">  c #342A27",
",  c #342E2B",
"<  c #3C2E2C",
"1  c #3C2925",
"2  c #353232",
"3  c #3A3432",
"4  c #3D3C3C",
"5  c #333030",
"6  c #5B2B0E",
"7  c #422514",
"8  c #4B2E1B",
"9  c #472B18",
"0  c #572E15",
"q  c #53321C",
"w  c #5B341B",
"e  c #5D3216",
"r  c #4B311E",
"t  c #643314",
"y  c #62361B",
"u  c #6A3919",
"i  c #793B14",
"p  c #612F10",
"a  c #482D26",
"s  c #452B27",
"d  c #43322E",
"f  c #4B332A",
"g  c #523522",
"h  c #5C3922",
"j  c #54362B",
"k  c #4A3632",
"l  c #423A37",
"z  c #4C3A34",
"x  c #483C3B",
"c  c #523B35",
"v  c #523E3A",
"b  c #5B3D3A",
"n  c #593833",
"m  c #633C21",
"M  c #6C3F20",
"N  c #603E3A",
"B  c #693F37",
"V  c #7A431E",
"C  c #4C403B",
"Z  c #55403A",
"A  c #5C433D",
"S  c #6C4224",
"D  c #774724",
"F  c #64433C",
"G  c #6D443C",
"H  c #684A3F",
"J  c #7B5438",
"K  c #71463E",
"L  c #484441",
"P  c #4C4B4C",
"I  c #524C4B",
"U  c #5A4943",
"Y  c #59524E",
"T  c #565355",
"R  c #5B5859",
"E  c #514E50",
"W  c #634542",
"Q  c #644A43",
"!  c #6C4947",
"~  c #764A47",
"^  c #61544E",
"/  c #6C534A",
"(  c #76534B",
")  c #635B56",
"_  c #685854",
"`  c #735A53",
"'  c #785754",
"]  c #6D625B",
"[  c #7B645D",
"{  c #78655A",
"}  c #5F5F61",
"|  c #645F60",
" . c #686363",
".. c #6A6868",
"X. c #786A65",
"o. c #76726E",
"O. c #6B6C70",
"+. c #797676",
"@. c #6F7076",
"#. c #823D11",
"$. c #84441A",
"%. c #8B491C",
"&. c #884316",
"*. c #9C4A16",
"=. c #944A1A",
"-. c #9E4E19",
";. c #9F501D",
":. c #A44E17",
">. c #AC541B",
",. c #A5521B",
"<. c #BC5B1B",
"1. c #B5581A",
"2. c #BE631F",
"3. c #834D24",
"4. c #884D25",
"5. c #8B5224",
"6. c #915326",
"7. c #865534",
"8. c #A85B26",
"9. c #B05B22",
"0. c #BD6221",
"q. c #C3601D",
"w. c #CA631E",
"e. c #D1641C",
"r. c #C86C23",
"t. c #D66E21",
"y. c #86574A",
"u. c #835B55",
"i. c #865A59",
"p. c #804E4F",
"a. c #8C655C",
"s. c #8A6A5D",
"d. c #856459",
"f. c #99655C",
"g. c #956A4F",
"h. c #A57657",
"j. c #8B6C63",
"k. c #8D6C6B",
"l. c #856965",
"z. c #966965",
"x. c #8D7163",
"c. c #8B736B",
"v. c #8E796D",
"b. c #92756B",
"n. c #9D736B",
"m. c #94796C",
"M. c #887875",
"N. c #937472",
"B. c #967B73",
"V. c #9B7A74",
"C. c #9C7C7B",
"Z. c #9C7472",
"A. c #A7746B",
"S. c #A67C7A",
"D. c #A27D75",
"F. c #A97772",
"G. c #C37D46",
"H. c #B6815F",
"J. c #86837F",
"K. c #9D8479",
"L. c #B68664",
"P. c #BF916D",
"I. c #A5847A",
"U. c #A88577",
"Y. c #AD8874",
"T. c #C08357",
"R. c #C79671",
"E. c #D19F78",
"W. c #D4A37D",
"Q. c #D9A67E",
"!. c #7B7C81",
"~. c #838383",
"^. c #878788",
"/. c #9C8882",
"(. c #938C8A",
"). c #96969A",
"_. c #898D95",
"`. c #A68D87",
"'. c #B28A84",
"]. c #B88986",
"[. c #AD9489",
"{. c #BB9284",
"}. c #B4958B",
"|. c #B5968A",
" X c #BC9C94",
".X c #B39895",
"XX c #A89496",
"oX c #BCA096",
"OX c #9A9DA2",
"+X c #C4998D",
"@X c #C49B9B",
"#X c #C59A93",
"$X c #C08F8D",
"%X c #DCAB84",
"&X c #C4A39C",
"*X c #CCA59C",
"=X c #CAA59A",
"-X c #D1AB9C",
";X c #E6B48A",
":X c #E4B790",
">X c #C6A6A2",
",X c #CAABA6",
"<X c #D3ACA3",
"1X c #D3ADAC",
"2X c #D0A7A2",
"3X c #CCB2AC",
"4X c #CAB1A8",
"5X c #D5B1A6",
"6X c #D9B2A6",
"7X c #D4B4AC",
"8X c #DBB4A9",
"9X c #DBB9AD",
"0X c #D7B8AC",
"qX c #DBBCB4",
"wX c #D7B9B6",
"eX c #E2BEB4",
"rX c #E3BEB8",
"tX c #DFC2B9",
"yX c #E5C3BC",
"uX c #E7C3BA",
"iX c #DFC8C6",
"pX c #E9CAC6",
"aX c #F1CFCC",
"sX c #EDD1CC",
"dX c #F2D1CC",
"fX c #F2D5D2",
/* pixels */
"                                                          +.~.^.).OX).).                                                        ",
"                                                    +.+.O...@.!.^.^.~._.!.!.                                                    ",
"                                                O.} R E I  .+.(.XX).(.M. . .O.~.                                                ",
"                                              +.R T _ M.`..X4XwXpXiXwX4X/.Y T +.                                                ",
"                                            ^.R R +. X7XqXpXpXpXfXfXsXfXsX>X_ R M.                                              ",
"                                            ..x X. X-X6XrXpXpXpXaXaXaXaXfXfX3X] ..~.                                            ",
"                                          M.Y L K.+X=X<X9XyXyXyXuXpXuXuXpXsXsX.X . .                                            ",
"                                          ..2 _ {.{.+X=X<X9XeXyXeXyXyXeXeXyXyXwXX.T +.                                          ",
"                                        (.L ; c.Y.{.+X=X=X<X5X5X6X9X6X9X9X9X9X9X/.I  .(.                                        ",
"                                        _ = , x.Y.{.=X-X<X=X<X<X<X<X5X9X9XqX9X7X XI T +.                                        ",
"                                        3 @ > s.U.|.&X,X7X7X7X1X5X7X7X7X7X3X7X5X|.C 2 T ~.                                      ",
"                                        , O - d.I.B.v.v.C..X&X>X=X XC.l.X.X./.&X[.3 O 4 O.                                      ",
"                                        , o , x.{ z d 1 < Q Z.'.U.a.Q c A ` X.[.|.3 o ; P                                       ",
"                                        ; o C m.v f a a a a ~ z.f.~ F G ~ a.K..X>XI o = 2                                       ",
"                                        x O ^ K.A a d < 1 s N S.S.K G ( ' ~ a.oX3XR O O O                                       ",
"                                          > _ I.d.Q Q v v b ` >X X~ Q d v u.n.oX4X) , @ O                                       ",
"                                          H ` |.|.V.s.u.u.l.V.>X3Xn.z.u.k.|.&X7X4XX./ @ :                                       ",
"                                          H / {.&XoXI.k.V.`.'.@X9X Xz.u.n. XqXyX4Xl.a.* 3                                       ",
"                                    ^ L U ( Q I.{.&X>X&X X'.'.@XwX1X@X'.|.,XqX7X&Xs.a.l                                         ",
"                                    { _ { b./ j.n.U.$X{.n.n.].@X1X,X$X#X2X2X,X,X Xl.U.]                                         ",
"                                    [     m.` ' u.z.A.f.p.a.n.S.$X@X'.A.].{. XoX[.K.`.                                          ",
"                                            { Q F ( y.y.n.u.s j B ~ S.z.f.A.U.I.[.|.X.Y o.                                      ",
"                                            / A j n G ( Z.C.' a b k..Xn.G u.j.l.`.I.Y ..J.                                      ",
"                                            < A c n F ! l.V.C.k.N.`.[.N.b F d.x.K.C Y J.^.                                      ",
"                                          , l Z c A F c A Q F ' d.b.V.l./ ( d.m.X., ..J.                                        ",
"                                              C z A F c & . . X X + s ! ` l.x.B.U L o.                                          ",
"                                                k c v A b 1 + . . # ! k.` x.b.v._                                               ",
"                                                d k z Z Q ~ ~ ~ p.z.S.B.` l.v.M.                                                ",
"                                                  d k v Q F j n b ~ b.N.[ [ c.                                                  ",
"                                                  < d v U b N b Q ' l.c.[ {                                                     ",
"                                                    , d U Q ! ' u.N.v.c.[ '                                                     ",
"                                                    > - k Q A ! ~ l.B.l.^                                                       ",
"                                                      - - 3 < d k U _ ^ ^                                                       ",
"                                                      1 1 , , 2 3 l v z                                                         ",
"                                                    %.1.1.9.4.J 7.8.r.r.r.                                                      ",
"                                                    8 u S D 4.6.6.4.3.D S m                                                     ",
"                                                  i $.t %.6.4.3.J ] [ 7.%.w.                                                    ",
"                                                  8 e 0 =.2.r.t.G.Y.Y.6.$.S                                                     ",
"                                                  y.7.7 & r g g g h m q D T.                                                    ",
"                                                  h.h.  6 *.1.w.w.q.>.  h.%X%X                                                  ",
"                                                L.L.y.  $ 9 q h h h e     L.;X                                                  ",
"                                                R.Q.h.  t *.>.1.q.w.1.    H.:X                                                  ",
"                                                R.Q.    & 8 u S S S m     h.;X                                                  ",
"                                                R.E.    i -.,.,.9.0.w.    g.W.                                                  ",
"                                                W.      7 u V 3.3.3.S       R.                                                  ",
"                                                %X      7 t i $.%.$.u       R.;X                                                ",
"                                                W.      e 8 q e w h S =.    %X:X                                                ",
"                                                L.W.  t >.1.&.t &.q.t.>.    %X%X                                                ",
"                                                h.    & 9 g 0   7 q g g     P.R.                                                ",
"                                                h.    #.1.1.*.  6 =.q.e.      L.                                                ",
"                                                      & u V q   $ y D m                                                         ",
"                                                      u V %.      e V ,.                                                        ",
"                                                      u 1.-.      u 1.>.                                                        ",
"                                                      & 9 q       $ & 8                                                         ",
"                                                      i :.:.      6 &.1.                                                        ",
"                                                      & e e       % 9 y                                                         ",
"                                                      i >.*.      6 &.:.                                                        ",
"                                                      9 y y       % 9 y                                                         ",
"                                                      &.>.=.      p &.:.                                                        ",
"                                                      8 e q       $ 9 e                                                         ",
"                                                      e i           0 u                                                         ",
"                                                    = ; =           O ;                                                         ",
"                                                    ; ; @           o = ;                                                       ",
"                                                    ; =               = ;                                                       "
};
