/* XPM */
static char *player_collec_2_64[] = {
/* columns rows colors chars-per-pixel */
"64 64 232 2 ",
"   c None",
".  c #15120F",
"X  c #191514",
"o  c #221B16",
"O  c #251D19",
"+  c #2B1E19",
"@  c #2B1C14",
"#  c #311D11",
"$  c #331C0F",
"%  c #2C221C",
"&  c #33251E",
"*  c #392418",
"=  c #252424",
"-  c #2B2A2A",
";  c #2F2721",
":  c #352B23",
">  c #3B2C23",
",  c #362923",
"<  c #3D3129",
"1  c #3D3025",
"2  c #5B2B0E",
"3  c #422514",
"4  c #4B2E1B",
"5  c #462A19",
"6  c #572E15",
"7  c #53321C",
"8  c #5B341B",
"9  c #5D3216",
"0  c #4B311E",
"q  c #643314",
"w  c #62361B",
"e  c #6A3919",
"r  c #793B14",
"t  c #612F10",
"y  c #432A23",
"u  c #492D24",
"i  c #492E28",
"p  c #4C3326",
"a  c #43352A",
"s  c #4D332A",
"d  c #4B3B2D",
"f  c #44372C",
"g  c #523522",
"h  c #5C3922",
"j  c #57372A",
"k  c #4C3C33",
"l  c #483832",
"z  c #5D3D33",
"x  c #533B30",
"c  c #673D20",
"v  c #643F34",
"b  c #6D3F33",
"n  c #7A431E",
"m  c #534233",
"M  c #53443A",
"N  c #5C4A3B",
"B  c #594637",
"V  c #574B3B",
"C  c #6C4123",
"Z  c #694628",
"A  c #784724",
"S  c #644135",
"D  c #694539",
"F  c #614C3C",
"G  c #6D4A3C",
"H  c #664539",
"J  c #734A3D",
"K  c #76473C",
"L  c #63503E",
"P  c #7A573C",
"I  c #5A4C42",
"U  c #564940",
"Y  c #5F5247",
"T  c #6B4C42",
"R  c #744C42",
"E  c #7B4F45",
"W  c #655344",
"Q  c #6B5245",
"!  c #645449",
"~  c #6D5B4B",
"^  c #6C5849",
"/  c #7D5245",
"(  c #74544A",
")  c #7D554A",
"_  c #775A4A",
"`  c #705D51",
"'  c #71604C",
"]  c #746253",
"[  c #7A6657",
"{  c #7D695B",
"}  c #6E6055",
"|  c #7B6B60",
" . c #823D11",
".. c #8C4415",
"X. c #84441A",
"o. c #8B491C",
"O. c #854318",
"+. c #9C4A16",
"@. c #944A1A",
"#. c #9E4E19",
"$. c #9F501D",
"%. c #A44E17",
"&. c #AD541B",
"*. c #A5521B",
"=. c #BB5B1B",
"-. c #B5581A",
";. c #BC621F",
":. c #864C22",
">. c #845026",
",. c #935423",
"<. c #93572F",
"1. c #885635",
"2. c #A95B22",
"3. c #BD6221",
"4. c #C3601D",
"5. c #CA631E",
"6. c #D1641C",
"7. c #C76A22",
"8. c #D66E21",
"9. c #864E49",
"0. c #845A4D",
"q. c #8B5B4E",
"w. c #855747",
"e. c #925B4C",
"r. c #885B51",
"t. c #995B51",
"y. c #89604C",
"u. c #8C6354",
"i. c #866959",
"p. c #946454",
"a. c #956955",
"s. c #9A665A",
"d. c #936B5A",
"f. c #9B6A5B",
"g. c #9A6556",
"h. c #9C725B",
"j. c #A36B5C",
"k. c #A8685C",
"l. c #A2725D",
"z. c #AB745D",
"x. c #A37556",
"c. c #B07F5E",
"v. c #867261",
"b. c #987665",
"n. c #976F61",
"m. c #A36D62",
"M. c #A96C64",
"N. c #A47362",
"B. c #AB7463",
"V. c #AC7B66",
"C. c #AD736A",
"Z. c #AD7C6A",
"A. c #A37A68",
"S. c #B27463",
"D. c #B27A64",
"F. c #BC7D66",
"G. c #B47D6A",
"H. c #B7786D",
"J. c #B87E73",
"K. c #C37D46",
"L. c #9A8672",
"P. c #B58364",
"I. c #B4816B",
"U. c #BA846C",
"Y. c #BB8968",
"T. c #BC8472",
"R. c #BD8B74",
"E. c #B98875",
"W. c #BC917A",
"Q. c #AE886F",
"!. c #C08357",
"~. c #C3856A",
"^. c #C48A6D",
"/. c #CA8C6F",
"(. c #C38D73",
"). c #C68878",
"_. c #D18C7F",
"`. c #CD9173",
"'. c #C89677",
"]. c #D19475",
"[. c #D49579",
"{. c #D49A7B",
"}. c #DA9D7C",
"|. c #C8956F",
" X c #D6A57D",
".X c #B39884",
"XX c #B58E84",
"oX c #B2A28E",
"OX c #C88E83",
"+X c #C59482",
"@X c #CB9384",
"#X c #C99686",
"$X c #D69886",
"%X c #DC9E91",
"&X c #DDA284",
"*X c #D5A28C",
"=X c #DBA688",
"-X c #D8A996",
";X c #DCB399",
":X c #CCA995",
">X c #E1A585",
",X c #E1AB8B",
"<X c #E2A688",
"1X c #E6B38A",
"2X c #E3AC92",
"3X c #E2A596",
"4X c #E2B293",
"5X c #E2B599",
"6X c #E3BA9B",
"7X c #EAB698",
"8X c #CAB8AC",
"9X c #DAB6A5",
"0X c #D5BFB0",
"qX c #E6BAA4",
"wX c #E7C09B",
"eX c #DCC2AE",
"rX c #DDC8B7",
"tX c #D5C9B8",
"yX c #E3C2A5",
"uX c #E1C2AB",
"iX c #E6C9AA",
"pX c #E7CAB5",
"aX c #E9DABC",
"sX c #E7D3B7",
"dX c #E8D1AF",
"fX c #DED5C3",
"gX c #DFD8CC",
"hX c #E4DBCB",
"jX c #E4D5C4",
"kX c #E8E2CB",
"lX c #E6E3D2",
"zX c #EAE9D7",
/* pixels */
"                                      oXb.[ ` I k F u.V.U.(.'.W.W..X                                                            ",
"                                    .XL.] [ { ` y.V.(.{.=X6XyXyXiXaXrX                                                          ",
"                                  L.L.[ ] ] [ d.R.&X4XwXyXdXaXaXkXzXzXzX                                                        ",
"                                v.i.{ ] ~ ! ] b.*X4X7X6X6X6XyXdXsXsXaXkXkX                                                      ",
"                              v.{ ~ ] Y I I ! b.=X1X,X,X,X,X4X6XqXyXuXpXaXaX                                                    ",
"                            { [ ~ ~ W M k M ! n.=X<X>X>X>X>X=X=X2X7X;XuXiXdXsX                                                  ",
"                          ~ ] ] W W M f f I I i.'.{.}.}.&X&X X&X=X-X4X4X-X;XyXeX                                                ",
"                          ~ ` ~ N B d < k M M _ V.^./.`.].].].].{.,X4X;X7X;X;XeX                                                ",
"                        ' ~ ~ N N m < l M I M ^ N.I.Y.^././.].].{.&X=X-X;X6X7XyX                                                ",
"                        ] ` W N N d f M ! V M ^ d.h.D.~.~.^.].{.{.V.d.u.0.h.#X;X:X                                              ",
"                        ~ ~ F N m f M ! M f M W _ a.P.^.~.~./.(.N.J z s y s d.+Xn.                                              ",
"                      ] W N F N d M N f < l k B y.I.`.`.`.^.U.f.J z p y s j / f.(                                               ",
"                      ' L B L m k m > % ; % > F N.$X&X&X{.^.l.J j > ; & u j / )                                                 ",
"                      ~ F F W d k > o o O % f W N.[.&X>X&X(.a.D p > U z y S A.A.                                                ",
"                      F B F L d f & + % & , f W p.^.[.$X&X$XV.u.0.( T 0.R n.+X9X                                                ",
"                    L B B N F x p u u s z s k W y.F./.[.&X2X,X'.R.V.f.s.N.:X;X;XpX                                              ",
"                    B m m N N x j v j v K G F ` 0.z.F./.[.,X7X7X7X[.g.e.+XqXqX3XqX                                              ",
"                    B d f N m x v j j K p.a.T ( ) p.z.F.~.].$X<X2X7X=X-XqX%X$X-X%X-X                                            ",
"                  Y m > > k a s J D 9.e.D.V.) B G a.D.F.F.F.F.~./.$XqXpX-XS.).$X_.$X                                            ",
"                  ! f & & < % > S p.z.j.z.U.l.0.d.Z.G.D.D.S.k.k.S.(.%X2XG.k._.).$X%X                                            ",
"                N M f , < , O % * w.T.(.D.U.P.Z.Q.R.U.D.D.z.j.g.j.J._._.J.t.9.b k.$XOX                                          ",
"                N 1 % O , , O o + j j.J.U.U.I.Z.I.R.U.G.B.B.j.p.p.j.B.J.-XOXw.p e.H.M.                                          ",
"                f , % % o O X       v m.T.T.I.V.I.R.T.I.V.B.l.p.0.0.q.C.%X3X3XG.k.H.C.                                          ",
"                f & % < % .           s ) D.I.V.V.I.U.G.V.N.l.f.p.w.w.m.@X%X3X$Xk.H.C.                                          ",
"                f , % ; o .             y w.G.N.l.V.Z.G.V.N.l.N.N.n.s.g.j.B.H.9.C.$X+X                                          ",
"                & o O X .                 H p.N.a.f.l.N.N.N.V.I.R.).).s./ / 9.9.J.OXOX                                          ",
"                                            z 0.a.p.p.f.f.f.N.Z.G.T.T.f.0.J K 9.C.OXXX                                          ",
"                                              l ( 0.0.q.p.s.f.N.l.j.s.p.0.G 5 z M.).#X                                          ",
"                                                i H R / 0.u.p.p.u.E J / ) G y T ).OXJ.E.8X                                      ",
"                                                  > x G R / w.) R S G u.d.) z R H.).T.:XjXgX                                    ",
"                                                      s z S G G z x G 0.p.q.R ) m.C.#XpXlXhX.X                                  ",
"                                                        y s s u y > s S J R v R m.J.-XjXlXhX0XrXtX                              ",
"                                                          & & & % + % , y i y R C.@XqXjXlXlXhXzXlX8X8X                          ",
"                                                        * @ o + + + + ; >     0.M.T.=X9XuXhXlXlXzXfXfXfX                        ",
"                                                    o.-.-.&...A 2.;.7.7.7.    ) m.S.J.).@X9XuXeXjXjXfXhX8X                      ",
"                                                    4 e C A :.,.,.,.:.A C C   R m.B.j.N.B.T.).R.+X-X;X0X8X                      ",
"                                                  r X.q o.,.>.:.P } { 1.o.5.    (.^.                                            ",
"                                                  4 9 6 @.;.7.8.K.Q.Q.<.X.C      Xc.                                            ",
"                                                  w.1.3 * 0 g g g h c 7 A !.].1X|.                                              ",
"                                                  h.x.  2 +.-.5.5.4.&.  x.=X1X1Xz.                                              ",
"                                                P.P.y.  # 5 7 h h h 9     Y.1X].                                                ",
"                                                (. Xx.  q +.&.-.4.5.-.                                                          ",
"                                                Y. X    * 4 e C C C h                                                           ",
"                                                (.{.    r #.*.*.2.3.5.                                                          ",
"                                                 X      3 e n :.:.A C                                                           ",
"                                                =X      3 q r X.o.X.e                                                           ",
"                                                 X      9 4 7 9 h h C @.                                                        ",
"                                                Y. X  q &.-.O.q O.4.8.&.                                                        ",
"                                                x.    # 5 g 6   3 7 p g                                                         ",
"                                                l.     .-.-.+.  2 @.4.6.                                                        ",
"                                                      * e n 7   # w A c                                                         ",
"                                                      e n o.      9 n *.                                                        ",
"                                                      e -.#.      e -.&.                                                        ",
"                                                      * 5 7       @ * 4                                                         ",
"                                                      r %.%.      2 ..-.                                                        ",
"                                                      * 9 9       $ 5 w                                                         ",
"                                                      r &.+.      2 O.%.                                                        ",
"                                                      5 w w       $ 5 w                                                         ",
"                                                      ..&.@.      t ..%.                                                        ",
"                                                      4 9 7       # 5 9                                                         ",
"                                                      9 r           6 e                                                         ",
"                                                    = - =           X -                                                         ",
"                                                    - - o           . = -                                                       ",
"                                                    - =               = -                                                       "
};
