/* XPM */
static char *player_idle_64[] = {
/* columns rows colors chars-per-pixel */
"64 64 228 2 ",
"   c None",
".  c #03021B",
"X  c #181718",
"o  c #261D18",
"O  c #311D11",
"+  c #331C0F",
"@  c #382315",
"#  c #080927",
"$  c #0D1839",
"%  c #130F34",
"&  c #281A37",
"*  c #221527",
"=  c #252424",
"-  c #2B2A2A",
";  c #3A2633",
":  c #32222F",
">  c #5B2B0E",
",  c #422514",
"<  c #4B2E1B",
"1  c #472B18",
"2  c #572E15",
"3  c #53321C",
"4  c #5B341B",
"5  c #5D3216",
"6  c #4B311E",
"7  c #643314",
"8  c #62361B",
"9  c #6A3919",
"0  c #793B14",
"q  c #612F10",
"w  c #4D3525",
"e  c #523522",
"r  c #5C3922",
"t  c #533824",
"y  c #482735",
"u  c #54293B",
"i  c #4C3236",
"p  c #553737",
"a  c #633C21",
"s  c #6C3F20",
"d  c #7A431E",
"f  c #6C4224",
"g  c #774624",
"h  c #714C3D",
"j  c #1C1B48",
"k  c #1B1955",
"l  c #140C4A",
"z  c #271D4A",
"x  c #251C56",
"c  c #2D2649",
"v  c #332A43",
"b  c #332855",
"n  c #3E335C",
"m  c #393043",
"M  c #362A67",
"N  c #3D3165",
"B  c #2A256C",
"V  c #4C2E44",
"C  c #42324E",
"Z  c #5C3B46",
"A  c #493A5E",
"S  c #503953",
"D  c #633848",
"F  c #623E50",
"G  c #453569",
"H  c #493D74",
"J  c #5E4247",
"K  c #5A4250",
"L  c #6C4544",
"P  c #694647",
"I  c #784B4C",
"U  c #6B4955",
"Y  c #714958",
"T  c #734B58",
"R  c #665456",
"E  c #7A565E",
"W  c #775358",
"Q  c #77504E",
"!  c #756558",
"~  c #574469",
"^  c #584477",
"/  c #484477",
"(  c #6A496B",
")  c #695967",
"_  c #7D5562",
"`  c #7B5B6C",
"'  c #7B5962",
"]  c #684C78",
"[  c #6A577C",
"{  c #77506F",
"}  c #796062",
"|  c #766378",
" . c #696067",
".. c #823D11",
"X. c #84441A",
"o. c #8B491C",
"O. c #884316",
"+. c #9C4A16",
"@. c #944A1A",
"#. c #9E4E19",
"$. c #9F501D",
"%. c #A44E17",
"&. c #AC541B",
"*. c #A5521B",
"=. c #BB5B1B",
"-. c #B5581A",
";. c #BE631F",
":. c #854C23",
">. c #895125",
",. c #915327",
"<. c #885635",
"1. c #AE5A20",
"2. c #BB6429",
"3. c #C3601D",
"4. c #CA631E",
"5. c #D1641C",
"6. c #C66B22",
"7. c #D66E21",
"8. c #835B59",
"9. c #875D42",
"0. c #9A674A",
"q. c #84615D",
"w. c #936A4F",
"e. c #A67659",
"r. c #885A67",
"t. c #945C6A",
"y. c #804D62",
"u. c #846465",
"i. c #86626B",
"p. c #8A6A6D",
"a. c #896667",
"s. c #91626F",
"d. c #97666B",
"f. c #846679",
"g. c #986A75",
"h. c #977778",
"j. c #8D706B",
"k. c #A3737B",
"l. c #A57877",
"z. c #A87479",
"x. c #C37D46",
"c. c #B6815F",
"v. c #9C807C",
"b. c #B68664",
"n. c #BF916D",
"m. c #AC817E",
"M. c #B1827F",
"N. c #A68569",
"B. c #C08357",
"V. c #C79671",
"C. c #D19F78",
"Z. c #D4A37D",
"A. c #D9A67E",
"S. c #7B5C87",
"D. c #7C668A",
"F. c #8A6886",
"G. c #997988",
"H. c #93708E",
"J. c #A77B84",
"K. c #B37F89",
"L. c #AC8A8B",
"P. c #A78687",
"I. c #B3848A",
"U. c #B38D8C",
"Y. c #BD8C8B",
"T. c #BB928E",
"R. c #B0918B",
"E. c #AA8895",
"W. c #B68A94",
"Q. c #AD9597",
"!. c #B49492",
"~. c #BA9493",
"^. c #B6999A",
"/. c #BC9B9A",
"(. c #BA9997",
"). c #AE928D",
"_. c #BAA09B",
"`. c #B999A8",
"'. c #AC99A3",
"]. c #C39B95",
"[. c #C49B9B",
"{. c #CA9C9B",
"}. c #C59897",
"|. c #D19F9D",
" X c #DCAB84",
".X c #C2A29D",
"XX c #CDA49D",
"oX c #E6B48A",
"OX c #E4B790",
"+X c #C99DA3",
"@X c #CDA4A3",
"#X c #CCAAA5",
"$X c #CDADAC",
"%X c #C5A7A4",
"&X c #D3A5A4",
"*X c #D3ABA5",
"=X c #DAABA6",
"-X c #D2ABAA",
";X c #D7A9A8",
":X c #CEB2AC",
">X c #D4B2AC",
",X c #DCB4AD",
"<X c #D8B4A8",
"1X c #DBB4B2",
"2X c #DDBAB2",
"3X c #DEBCB9",
"4X c #D4B7B3",
"5X c #CBB1B3",
"6X c #E2AEAD",
"7X c #E0B4AE",
"8X c #E2B5B1",
"9X c #E2BAB5",
"0X c #E3BDBA",
"qX c #E8BCB9",
"wX c #E0AEB2",
"eX c #DFC2BB",
"rX c #E4C3BD",
"tX c #EAC3BD",
"yX c #E5C5C2",
"uX c #EBC5C3",
"iX c #E6C9C1",
"pX c #EBCAC4",
"aX c #E7CECA",
"sX c #ECCDC9",
"dX c #ECD4CD",
"fX c #F0D1CB",
"gX c #F1D4D1",
"hX c #F0D0CC",
/* pixels */
"                                                        ) ) ) | | ] G b                                                         ",
"                                                    R p.h.P.L.L.P.G.| ( v                                                       ",
"                                                  } R.#X*X=X=X|.}.^.E.G.| A &                                                   ",
"                                                j..X1X9XqX8X6X=X&X}.}.E.H.S.^ c                                                 ",
"                                              p.%X2XrXuXrX9XqX,X&X&X}.W.J.F.S.^ z                                               ",
"                                            | ^.,XrXsXsXpXuXqX7X=X&X}.].P.H.S.] A j                                             ",
"                                            G.*X2XpXgXgXsXuXtX8X=X*XXX].W.G.S.] ~ c $                                           ",
"                                           .).<XrXaXgXgXsXpXtX8X,X*XXX}.(.G.f.[ ^ b $                                           ",
"                                          ) ^.,XrXaXdXdXsXyXrX2XqX1X>X*X[.J.f.[ ^ b % #                                         ",
"                                          ) ^.1XyXaXdXdXsXyXqXqX9XrX1X*X[.J.F.[ ^ b # #                                         ",
"                                        v ) !.,XyXdXdXdXpXrXqX2XqX1X*XXX(.U.E.D.^ z # #                                         ",
"                                        ; R ~.,XrXyX4X:X.X].@X*X}.T.m.j.u.p.p.[ H b # .                                         ",
"                                        m R .X,X#XL.h.q.Q I m.&Xm.8.h p i i ; v G G % .                                         ",
"                                        & R >X,XP.h.j.I L I l.qX(.W L P p i ; : G ^ & .                                         ",
"                                        * E >X2X^.v.q.L L 8.T.pX>XW L 8.p y y K ( ^ z #                                         ",
"                                        : } >XrX4X$X>X[.U.T.qXsX2Xa.r.h.l.g._ i.F.^ z #                                         ",
"                                        J u.:XrXrXiX3X}.M.&XsXpX9XJ.r.d.k.l.L.W.G.^ j %                                         ",
"                                        h.u.%XeXpXiX>X#X,XpXpXpXyXW.r.k.M.T.*XQ.f./ k l                                         ",
"                                        E.u.%X2XrXrXrXpXtX,X9XuXuXW.r.d.Y.].[.G.| H k k                                         ",
"                                        G.p./.>X2XrXuXtX].Y.8XqXwXJ._ y.J.Y.I.f.{ G x z                                         ",
"                                        E.P./.*X2X3XrX;XY.=X}.l.k.Y u D d.l.l.f.( G x x                                         ",
"                                        `.^.(.#X1X2X2X}.=XqX1X.Xh.E D T r.k.k.` ( G B                                           ",
"                                          +X^.%X,X7X<X#X1X4X3X4X`.#Xh.i._ s.g.` ^ N M                                           ",
"                                            '._.$X4X:X&X&X&X}.I.K.k.r._ _ _ a.` ~ n N                                           ",
"                                              ~.%X5X$X[.I.l.d.d.t.I D u F W i.` ~ n                                             ",
"                                              !..X#X@XU.P..X&X+XJ.g.t.Y Y ' i.) ~ N                                             ",
"                                                ^.].[.U.XX,X*XU.k.k.s.E _ E E U A M                                             ",
"                                                  /./.T.XX*X*X@X[.I.g._ Y U Y K C b                                             ",
"                                                  Q.!.T.XX*X1X1X+XW.J.y.Y F Z S C                                               ",
"                                                    P.U.[.@X*X@XW.K.a.U Z u V V                                                 ",
"                                                    h.a.u.J.L.J.g.r.U p y y V                                                   ",
"                                                      W P L ' Y F Z i y y                                                       ",
"                                                        p.h.h.p.T Z p i                                                         ",
"                                                        p u.G.h.' J p w                                                         ",
"                                                    o.-.-.2.e.e.0.2.6.6.6.                                                      ",
"                                                    < 9 f g :.,.>.>.:.g f a                                                     ",
"                                                  0 X.7 o.,.>.:.h ! ! <.o.4.                                                    ",
"                                                  < 5 2 @.;.6.7.x.N.N.,.X.f                                                     ",
"                                                  9.<., @ 6 e e t r a 2 g B.                                                    ",
"                                                  e.e.  > +.-.4.4.3.&.  e. X X                                                  ",
"                                                b.b.9.  O 1 3 r r r 5     b.oX                                                  ",
"                                                V.A.e.  7 +.&.-.3.6.-.    c.OX                                                  ",
"                                                n.A.    @ < 9 f f f a     e.oX                                                  ",
"                                                V.C.    0 #.*.*.1.2.4.    0.Z.                                                  ",
"                                                Z.      , 9 d :.:.:.f       V.                                                  ",
"                                                 X      , 7 0 X.o.X.9       V.oX                                                ",
"                                                Z.      5 < 3 5 4 r f @.     XOX                                                ",
"                                                b.Z.  7 &.-.O.7 O.3.7.&.     X X                                                ",
"                                                e.    @ 1 e 2   , 3 w e     n.V.                                                ",
"                                                e.    ..-.-.+.  > @.3.5.      b.                                                ",
"                                                      @ 9 d 3   O 8 g a                                                         ",
"                                                      9 d o.      5 d *.                                                        ",
"                                                      9 -.#.      9 -.&.                                                        ",
"                                                      @ 1 3       O @ <                                                         ",
"                                                      0 %.%.      > O.-.                                                        ",
"                                                      @ 5 5       + 1 8                                                         ",
"                                                      0 &.+.      > O.%.                                                        ",
"                                                      1 8 8       + 1 8                                                         ",
"                                                      O.&.@.      q O.%.                                                        ",
"                                                      < 5 3       O 1 5                                                         ",
"                                                      5 0           2 9                                                         ",
"                                                    = - =           X -                                                         ",
"                                                    - - o           X = -                                                       ",
"                                                    - =               = -                                                       "
};
