/* XPM */
static char *player_collec_3_64[] = {
/* columns rows colors chars-per-pixel */
"64 64 234 2 ",
"   c None",
".  c #181717",
"X  c #0B0B0B",
"o  c #261D18",
"O  c #321C10",
"+  c #331C0F",
"@  c #372215",
"#  c #24201D",
"$  c #252424",
"%  c #2B2A2A",
"&  c #2D2620",
"*  c #3C312C",
"=  c #5A2A0D",
"-  c #4B2E1B",
";  c #452918",
":  c #562E16",
">  c #5D3216",
",  c #54321C",
"<  c #5B341C",
"1  c #643314",
"2  c #62361B",
"3  c #6A391A",
"4  c #783C16",
"5  c #612F10",
"6  c #4E3423",
"7  c #4B3329",
"8  c #46342E",
"9  c #543421",
"0  c #5B3A23",
"q  c #52392C",
"w  c #593B2B",
"e  c #593624",
"r  c #4B3B34",
"t  c #453733",
"y  c #543E35",
"u  c #5A3D33",
"i  c #4A2F26",
"p  c #613B23",
"a  c #683928",
"s  c #613F31",
"d  c #7A431E",
"f  c #4B413B",
"g  c #54433C",
"h  c #5A453C",
"j  c #5D4638",
"k  c #694128",
"l  c #764527",
"z  c #62473D",
"x  c #624B3C",
"c  c #694736",
"v  c #724C3C",
"b  c #784B36",
"n  c #7D533F",
"m  c #594640",
"M  c #5C4B45",
"N  c #584A46",
"B  c #59534C",
"V  c #5A5753",
"C  c #4B4541",
"Z  c #664D42",
"A  c #645045",
"S  c #65534C",
"D  c #77574A",
"F  c #675A55",
"G  c #765D55",
"H  c #6C615C",
"J  c #72645D",
"K  c #766256",
"L  c #5D6264",
"P  c #656262",
"I  c #746865",
"U  c #787777",
"Y  c #74706F",
"T  c #823D11",
"R  c #81382E",
"E  c #85441A",
"W  c #894417",
"Q  c #9C4A16",
"!  c #94491A",
"~  c #9E4E19",
"^  c #9F501D",
"/  c #A44E17",
"(  c #AC541B",
")  c #A5521B",
"_  c #BB5B1B",
"`  c #B5581A",
"'  c #874A21",
"]  c #884B38",
"[  c #85533F",
"{  c #895539",
"}  c #96553B",
"|  c #925224",
" . c #AE5A20",
".. c #B76125",
"X. c #C65F1C",
"o. c #C2601E",
"O. c #CB641E",
"+. c #D1641C",
"@. c #D26C26",
"#. c #825944",
"$. c #8B5C4A",
"%. c #885845",
"&. c #995A46",
"*. c #A55747",
"=. c #B15E4D",
"-. c #8D654A",
";. c #9E654B",
":. c #9B6549",
">. c #87665A",
",. c #9D6C5D",
"<. c #926F54",
"1. c #96705A",
"2. c #A8664B",
"3. c #A86653",
"4. c #B56E56",
"5. c #A9785A",
"6. c #B7775A",
"7. c #BC674E",
"8. c #926F62",
"9. c #8E7367",
"0. c #AC7763",
"q. c #A67B6B",
"w. c #BC7C62",
"e. c #B57D6B",
"r. c #B87667",
"t. c #B47E71",
"y. c #C27D5D",
"u. c #C47B67",
"i. c #B6815F",
"p. c #9D8078",
"a. c #B6826C",
"s. c #BB836B",
"d. c #BB886D",
"f. c #BA8565",
"g. c #A98574",
"h. c #BB8975",
"j. c #BB917C",
"k. c #B48A6E",
"l. c #C1825B",
"z. c #C38264",
"x. c #C9876A",
"c. c #D58D6B",
"v. c #D38967",
"b. c #DA926E",
"n. c #CB8371",
"m. c #C28A74",
"M. c #CC8E75",
"N. c #C48475",
"B. c #D18B73",
"V. c #CB9973",
"C. c #C5947D",
"Z. c #CC917C",
"A. c #C59475",
"S. c #DC9373",
"D. c #DC9977",
"F. c #D2957B",
"G. c #DD9C7D",
"H. c #D3987B",
"J. c #CE966D",
"K. c #E19B7D",
"L. c #E09473",
"P. c #D6A17B",
"I. c #838487",
"U. c #BB9484",
"Y. c #B89688",
"T. c #B38E80",
"R. c #C38C81",
"E. c #D68C83",
"W. c #CB9B85",
"Q. c #C69786",
"!. c #D29C82",
"~. c #DD9E82",
"^. c #D59E8A",
"/. c #DC9B8B",
"(. c #D89589",
"). c #DC9A92",
"_. c #CF9E92",
"`. c #E19F84",
"'. c #CCA28B",
"]. c #C7A48D",
"[. c #DEA084",
"{. c #DCAB83",
"}. c #D2A48D",
"|. c #DCA58D",
" X c #D9A98F",
".X c #C7A799",
"XX c #D4AB94",
"oX c #DCAC93",
"OX c #D5AD9B",
"+X c #DCAE99",
"@X c #D2A592",
"#X c #DCB29D",
"$X c #D5B19D",
"%X c #E1A184",
"&X c #E1A58B",
"*X c #E2A88F",
"=X c #E2AE84",
"-X c #E5B38A",
";X c #E2AC93",
":X c #E4AD9A",
">X c #E1A692",
",X c #E3B39C",
"<X c #E4B799",
"1X c #CDB3AD",
"2X c #DCB4A3",
"3X c #DDBCAB",
"4X c #D9B8A8",
"5X c #D6BEB8",
"6X c #C3ACA8",
"7X c #E2B5A2",
"8X c #E5B9A3",
"9X c #EABDA3",
"0X c #E2BBAC",
"qX c #E8B6A4",
"wX c #E0BCB0",
"eX c #DEC4BD",
"rX c #E4C1AC",
"tX c #EBC3AB",
"yX c #EAC0A6",
"uX c #E3C4B4",
"iX c #ECCAB6",
"pX c #ECCDBB",
"aX c #E8C7B6",
"sX c #F2CBB5",
"dX c #F1CBB8",
"fX c #F3D0BC",
"gX c #E6CAC6",
"hX c #EDD3C6",
"jX c #F4D5C3",
"kX c #FAD9C4",
"lX c #F8D9CA",
"zX c #F5DCD2",
"xX c #E8D3D1",
"cX c #FAE2D7",
/* pixels */
"                                                                  j x x A H Y                                                   ",
"                                                            A j 0 > > , 9 c D F F                                               ",
"                                                        S x j 6 e > > , 9 k v j A H V                                           ",
"                                                      S A z u q 0 p p e 0 b v w q A H V                                         ",
"                                                    S m g 7 q k c b b l l [ #.v s z h F B                                       ",
"                                                  B g m q 9 b :.:.&.%.{ } :.:.:.$.v 6 7 S V                                     ",
"                                                  g N h w %.4.y.y.6.3.:.2.2.4.w.s.0.#.; j H                                     ",
"                                                N m m u n w.v.v.z.z.y.6.6.l.l.v.F.H.h.D u I                                     ",
"                                                r g h v e.G.G.b.c.v.v.v.v.c.v.S.G.|.+Xj.Z I U                                   ",
"                                              N h g h >.}.;X|.G.D.S.b.S.S.S.S.G.~.;X0XeXp.J U                                   ",
"                                              A h y A q.2X7X:X;X&XK.S.S.S.S.K.`.%X,XuXxX6XG U I.                                ",
"                                            I y 8 r x T.3X0X0X7X:X&XK.D.D.K.`.&X;X7XuXxX5XS S U                                 ",
"                                            J g r t A Y.3X0X0X7X:X;X`.K.G.K.`.&X;X,X0XgX5XA t P                                 ",
"                                            J y r r G U.2X0X7X,X;X;X`.`.~.`.`.%X&X;X2X3X1XN & C U                               ",
"                                          9.#.v 8 r G U.2X7X#X,X+X&X%XG.~.`.~.[.[.|.+X3X.Xm t V U                               ",
"                                          K %.3.u y 8.OX7X7X7X,X;X&X%XG.~.~.~.~.~.|.+X4X.XB g F L                               ",
"                                          J $.m.#.z g.7X7X7X7X;X+X X&X%X%X~.[.%X%X*X+X0X1XF f f                                 ",
"                                          Y #.4.] D U.0X7X2X@Xd.a.m.M.F.~.~.~.~.!.!.}.+X1XJ *                                   ",
"                                          P D 2.&.>.Q.7X,X'.q.%.] b ] &.z.M.n.6.&.[ -.q..XJ #                                   ",
"                                          V 7 0.6.8.U.0X,X}.d.5.$.[ ] } f.M.w.] a c b ,.].F .                                   ",
"                                            * 8.|.U..X0X9X;X!.M.w.3.} 3.Q.|.s.] ] ,.0.m.OXS X                                   ",
"                                              z +X2XOX0XtX9X:XH.z.6.6.C.+X;XZ.&.*.6.s.M.~.e.                                    ",
"                                                Q.$XXX#X0X0X,X*XF.M.F./.>X&X/.C.r.u.r.B.:X_.                                    ",
"                                                  XXXXXX X+X;X`.S.u.n./.).(./.n.4./.u.:X2XY.                                    ",
"                                                  Q.XX}.Q.|.~.v.7.=.u.).).(.(.r.n.^.H.tX3X                                      ",
"                                                  g.'.'.'.!.u.=.3.r.N.E.(.E.E.n.;X!.9XiXpX                                      ",
"                                                  ,.C.W.}.Z.2.3.t.Q.R.e.n.n.r.w.sX;XsXiXpX                                      ",
"                                                    h.Q.Q.m.2.3.e.h.m.r.r.4.] XXfX<XiX0XaX                                      ",
"                                                    k.Q.C.m.4.r.C.R.r.3.*.R t.jXtXyXiXrXuX                                      ",
"                                                      Q.C.s.w.m.Z.^.W.r.*.&.tXfX0X9X0XrX                                        ",
"                                                      j.C.z.m.W.Z.M.u.3.e.tXkXiX<XtX2X#X                                        ",
"                                                        j.d.m.W.W.Z.!.|.sXkXkXiXtXaX4X'.                                        ",
"                                                          a.s.C.qXsXjXlXjXfXfXiXiXuX3X                                          ",
"                                                        ; v h.fXzXzXlXhXrXoXXX#X0XrX4X                                          ",
"                                                    ! ` ` ..0XcXzXhXpX4XC.d.f.z.A.Q..X                                          ",
"                                                    - 3 3 i.cXzXhXuX$XA.6.4.2.:.:.                                              ",
"                                                  4 E 1 ' .XcXhXuX+XC.6.2.{ l                                                   ",
"                                                  - > = | ].rXtXXXg.1.#.k 0                                                     ",
"                                                  n { v <.A.{.P.-.w p > l l.                                                    ",
"                                                  -.V.=X-XV.6.@.O.X.(   3.{.{.                                                  ",
"                                                #.f.=X{.5.c 6 > 0 0 >     f.-X                                                  ",
"                                                  J.P.5.3 Q ( ` o.O.`     i.-X                                                  ",
"                                                        @ - 3 l l k p     5.-X                                                  ",
"                                                        4 ~ ) )  ...O.    :.P.                                                  ",
"                                                        ; 3 d E ' l k       J.                                                  ",
"                                                        ; 1 4 E W E 3       V.-X                                                ",
"                                                        > - , > < 0 l !     {.:X                                                ",
"                                                      1 ( ` E 1 E o.@.(     {.{.                                                ",
"                                                      @ ; 9 :   ; , 6 9     d.V.                                                ",
"                                                      T ` ` Q   = ! o.+.      f.                                                ",
"                                                      @ 3 d ,   O > d p                                                         ",
"                                                      3 d !       > d )                                                         ",
"                                                      3 ` ~       3 ` (                                                         ",
"                                                      @ ; ,       O @ -                                                         ",
"                                                      4 / /       = W `                                                         ",
"                                                      @ > >       O ; 2                                                         ",
"                                                      4 ( Q       = E /                                                         ",
"                                                      ; 2 2       + ; 2                                                         ",
"                                                      W ( !       5 W /                                                         ",
"                                                      - > ,       O ; >                                                         ",
"                                                      > 4           = 3                                                         ",
"                                                    $ % $           . %                                                         ",
"                                                    % % o           . $ %                                                       ",
"                                                    % $               $ %                                                       "
};
