/* XPM */
static char *player_collec_4[] = {
/* columns rows colors chars-per-pixel */
"64 64 233 2 ",
"   c None",
".  c #161513",
"X  c #120B0B",
"o  c #3A241A",
"O  c #28201B",
"+  c #352B27",
"@  c #38332F",
"#  c #4A2B1C",
"$  c #55321B",
"%  c #5B341B",
"&  c #532E1D",
"*  c #4C352C",
"=  c #483128",
"-  c #543524",
";  c #5C3924",
":  c #553B2C",
">  c #5B3B2A",
",  c #553627",
"<  c #433631",
"1  c #4B3A33",
"2  c #493C38",
"3  c #5A3E32",
"4  c #533D36",
"5  c #442F27",
"6  c #633B25",
"7  c #623E2B",
"8  c #673729",
"9  c #763B2B",
"0  c #633E32",
"q  c #4B413C",
"w  c #5C4235",
"e  c #54423B",
"r  c #5B453C",
"t  c #5A463B",
"y  c #67412C",
"u  c #78442C",
"i  c #6B4333",
"p  c #63463B",
"a  c #624B3C",
"s  c #6B4A3A",
"d  c #764A38",
"f  c #78523F",
"g  c #6A513F",
"h  c #544641",
"j  c #5A4A43",
"k  c #584B47",
"l  c #5B514A",
"z  c #5C5953",
"x  c #575554",
"c  c #454040",
"v  c #634C43",
"b  c #684D43",
"n  c #67534A",
"m  c #765548",
"M  c #685A54",
"N  c #775E56",
"B  c #5F625B",
"V  c #68625C",
"C  c #76635A",
"Z  c #6A6867",
"A  c #766D6A",
"S  c #766A66",
"D  c #7B7474",
"F  c #777979",
"G  c #71706C",
"H  c #82372B",
"J  c #884934",
"K  c #964C34",
"L  c #85553E",
"P  c #93553B",
"I  c #86462F",
"U  c #A5563B",
"Y  c #A34D3C",
"T  c #845442",
"R  c #895946",
"E  c #925D45",
"W  c #9C5B44",
"Q  c #975746",
"!  c #8D554A",
"~  c #A75948",
"^  c #A95D4B",
"/  c #9C614B",
"(  c #976248",
")  c #88655A",
"_  c #986956",
"`  c #AB6A4D",
"'  c #A6654A",
"]  c #A36B53",
"[  c #AA6956",
"{  c #B56C54",
"}  c #AC725A",
"|  c #A87258",
" . c #B37355",
".. c #B5735A",
"X. c #B9775B",
"o. c #B8694E",
"O. c #846B62",
"+. c #946F60",
"@. c #947366",
"#. c #867C79",
"$. c #947B73",
"%. c #A97763",
"&. c #B67364",
"*. c #B47D64",
"=. c #BC7C63",
"-. c #B87969",
";. c #B57774",
":. c #C2795C",
">. c #C37C64",
",. c #C77A68",
"<. c #C47C73",
"1. c #988178",
"2. c #88827F",
"3. c #AD826D",
"4. c #B6836B",
"5. c #BD846D",
"6. c #BA8467",
"7. c #A98373",
"8. c #BC8574",
"9. c #B78B78",
"0. c #BD917B",
"q. c #C6815F",
"w. c #CB8463",
"e. c #CB896C",
"r. c #C5856A",
"t. c #D38C6A",
"y. c #D48968",
"u. c #DD926E",
"i. c #D6936D",
"p. c #C48C73",
"a. c #CA8B74",
"s. c #C48C7C",
"d. c #CA8C7B",
"f. c #C78577",
"g. c #D48876",
"h. c #C39175",
"j. c #C5957C",
"k. c #CC937B",
"l. c #CD987B",
"z. c #D39374",
"x. c #DD9472",
"c. c #D3947B",
"v. c #DA957B",
"b. c #D49A7D",
"n. c #DD9C7D",
"m. c #DC9976",
"M. c #E19879",
"N. c #E1A07F",
"B. c #7E7F82",
"V. c #7A858B",
"C. c #898A8A",
"Z. c #BA9587",
"A. c #B0948B",
"S. c #BAA095",
"D. c #D68D82",
"F. c #C59481",
"G. c #C69982",
"H. c #CB9C83",
"J. c #CC9D8C",
"K. c #C89788",
"L. c #D39C85",
"P. c #DD9D82",
"I. c #D39B8B",
"U. c #DA938A",
"Y. c #DD9D92",
"T. c #DA9592",
"R. c #C18D82",
"E. c #E19E83",
"W. c #E29F8B",
"Q. c #E19890",
"!. c #CCA08A",
"~. c #CAA18A",
"^. c #DDA184",
"/. c #D4A58A",
"(. c #DDA58B",
"). c #DDA98C",
"_. c #D4A587",
"`. c #C9A597",
"'. c #D3A590",
"]. c #D3AA93",
"[. c #DCAC93",
"{. c #D3AD9A",
"}. c #DAAD9A",
"|. c #DCA491",
" X c #DDB39C",
".X c #DAB098",
"XX c #E1A284",
"oX c #E2A48B",
"OX c #E2A98E",
"+X c #E1AC93",
"@X c #E2AE9A",
"#X c #E4A493",
"$X c #E2B39D",
"%X c #EABA9D",
"&X c #E5B599",
"*X c #CBB6AA",
"=X c #DCB5A3",
"-X c #DEBCAB",
";X c #D9B7A8",
":X c #DBBDB5",
">X c #D4BEB7",
",X c #D0AFA1",
"<X c #E2B5A2",
"1X c #E4BAA4",
"2X c #EBBCA3",
"3X c #E3BCAC",
"4X c #EBBEAB",
"5X c #E3B7A8",
"6X c #E3BDB1",
"7X c #EBAFA3",
"8X c #DCC4B8",
"9X c #E6C1AD",
"0X c #EBC2AB",
"qX c #EAC0A5",
"wX c #E4C4B4",
"eX c #EAC6B3",
"rX c #ECCAB5",
"tX c #ECCCBB",
"yX c #E4C7BA",
"uX c #F4CDB8",
"iX c #F4D1BB",
"pX c #FAD6BF",
"aX c #F0CEB7",
"sX c #DDC9C3",
"dX c #E6CCC4",
"fX c #EAD3CA",
"gX c #F3D4C4",
"hX c #FADAC4",
"jX c #F7D8C9",
"kX c #E8D6D2",
"lX c #F4DCD2",
"zX c #F9DFD4",
"xX c #F6E2D9",
/* pixels */
"                                                                    n C M V V G                                                 ",
"                                                              r : ; - 8 ; ; a C S A V                                           ",
"                                                        l r > ; $ % % $ $ $ ; s m n M Z B                                       ",
"                                                    n a p : # - ; % % $ # ; 8 s g w p N S z                                     ",
"                                                  j v a w 3 : - 8 ; 8 ; & ; i f s > : t n S z                                   ",
"                                                M n n p 3 3 - - 7 7 y 8 6 8 d f d 3 = : b M C M                                 ",
"                                              n e e 4 = = > y i i d d u u u L T T f p 3 p 3 v M z                               ",
"                                            l e e t = # > d E E R L T L J P ( ( / / R m p = 5 4 M z                             ",
"                                          k e h v w - 7 R ` ....o.` / ( E W ( ` ` } } _ E i o # v M x                           ",
"                                        Z q h j t * 7 E ..:.w.q.:.X.` [ [ ' `  . .=.p.e.*.| 0 o 4 C V                           ",
"                                        l h h j 3 > R =.w.y.y.w.w.q.:.X... .X.:.:.e.k.c.l.h.%.7 = N A                           ",
"                                        1 e r t w f *.z.m.m.y.y.y.w.w.w.w.w.y.e.y.z.z.b.^./.F.| > n A G                         ",
"                                      h 1 e w t a _ L.^.^.n.z.i.i.y.y.y.t.u.u.y.m.v.v.P.[.$X}.!.) v A D                         ",
"                                      e t e e v m 9.}.+XOX(.n.n.m.m.t.u.u.u.M.m.m.n.n.P.+X3X8XsXA.n D D V.                      ",
"                                    V v v 4 e v ) !.<X$X@X+X).^.n.M.m.u.u.u.m.M.M.E.n.XX@X6XdXkX>XN A D B.                      ",
"                                    M 4 1 1 4 v @.,X3X<X<X X$X+X+XXXm.m.m.m.m.M.E.oXoX+X<XwXdXkXfXO.M A #.                      ",
"                                  D a = < < = b 7.;XwX6X3X<X<X@X+XoXn.n.n.m.n.M.E.oXoX+X<X6XyXdXkX$.4 l Z C.                    ",
"                                  C r 4 2 1 = m 9.;X6X6X6X5X<X$X+XoXE.M.n.n.M.E.XX^.OX+X<X3X6XdXdX1.< 2 z F                     ",
"                                  A j 1 1 1 4 N Z.{.5X3X3X<X$X@X+XoXE.E.E.P.P.XXE.XXoX+X@X<X;XyXsX1.+ + q Z V.                  ",
"                                C.C s 1 1 1 e ) 9.{.;X<X<X<X$X[.+XOXE.E.E.P.E.XXXXXXoX(.+X@X;X:X8X$.< O + z V.                  ",
"                                #.m R 3 < < t ) 9.{.<X<X X X$X[.).oXXXn.n.P.P.P.P.^.^.^.(.[.;X-X:XO.@ < h Z F                   ",
"                                C f [ m = 1 t +.~.;X<X<X X$X$X+X).XXXXn.n.P.P.P.P.P.P.P.(.[. X;X;XC 2 h M Z Z                   ",
"                                m f -.%.0 : n 7. X5X X<X5X$X$X+XOXOXXXN.n.P.P.n.P.E.P.^.oX[. X-X;X#.q 1 j x                     ",
"                              C.C d p.8.T p m Z.<X5X X<X5X$X+X[.).+XoXXXXXXXP.^.^.XXXXoXOX[.;X3X:XC.h e q @                     ",
"                              C.A s =.{ J p C J.5X5X5X=X<X[.F.h.k.L.(.P.P.^.^.^.XXXX^.(.[.[.}.;X:XA.h 2 @                       ",
"                              V.Z b { U Q N @.J.<X$X X{.G.%.E R E / _ } r.c.n.v.v.z.a.*.4.9.9.J.;XA.q +                         ",
"                              V.l w %.U ~ ) @.J.5X%X&X~.3._ E L u 9 u I W >.e.e.>.{ P u 9 u m _ `.S.q .                         ",
"                              V.c o R r.` @.) J.<X%X$X'.G.| _ T u T J K W r.e.a. .K u 8 i u R +.`.A.2 .                         ",
"                                x + * }.z.%.$.!.5X2X%X).l.p.h.5.` / J K [ H.L.L.} I 8 0 ) ! _ 8.{.A.+ X .                       ",
"                                  < o J.&X{.`.{.5X0X2X&X[.L.e.X.X.` U / 4.{.+X+X%.J Q / &.s.p.H. XZ.+ X                         ",
"                                    X ) $X;X;X{.$X0X0X2X&X[.l.r.6.....s.H.}.oXoX9.Q K ^ ..=.r.k.P.g.4.                          ",
"                                      3 J.;X{.{. X4X4X2X%X&X).c.e.e.a.L.(.+XOXW.I.8...{ =.w.X.y.OX@XJ.                          ",
"                                          {.{.'.{. X$X$X$X+XoXP.v.v.c.P.W.OXOXP.P.c.a.X.g.,.:.#X<X}.1.                          ",
"                                          `.{.{.'././.[.@XOXP.v.y.{ ,.D.Y.Y.U.U.Y.d.^ ,.7X>.v.4X;X{.                            ",
"                                          Z.{.{./.l.H.[.(.n.y.:.^ ^ ,.U.Y.Y.U.D.Y.f.Y OX|.X.2X9X-X`.                            ",
"                                          @.~.'./.l.!./.c.w.o.U o.&.<.T.T.U.U.D.U.d.,.4Xk.b.iXeXwX8X                            ",
"                                            0.~.~.H.'.H.>.^ W [ -.f.8.f.D.Q.U.g.d.,.P.aXp.%XgXtXtX8X                            ",
"                                            3.F.H.J.'.k.o.W } -.Z.K.F.8.&.f.g.,.&.` %XuX^.aXgX9XtX*X                            ",
"                                            %.0.H.J.J.k.` / } -.9.F.s.8.%.} &.[ 9 5.iXrX+XiXwX5XtX                              ",
"                                              9.F.H.k.p...' ` 5.8.-.&.&.&.&.{ J E rXgX9X%XiX3X5XwX                              ",
"                                              9.G.G.h.p.&.` -.k.J.K.;.[ ~ Q 9 8 {.hXtX5XqXiX9XrX8X                              ",
"                                              7.G.G.0.5.*.-.p.d.L.|.I.f.&.~ H %.hXiXeX%X2X9X3XwX8X                              ",
"                                                0.G.h.5.=.s.F.k.c.D.d.-.[ W p.0XhXaX0X$X0X=X=X=X                                ",
"                                                  h.h.r.5.F.I.L.a.f.,.[ W F.aXhXhXuX5X%XrX X X{.                                ",
"                                                  9.0.5.5.F.I.I.d.d.D.I.[.iXpXhXhXtX9X0XrX-X XG.                                ",
"                                                    9.5.8.8.p.I.@X4XuXhXhXhXhXhXgXtXrXrXwXwX{.                                  ",
"                                                      4.-.4.[.uXhXjXjXgXgXtXrXeX9XwXeXeX8XwX{.                                  ",
"                                                        | $XjXzXzXlXjXfXyX5X[././.[. X=X-X-X{.                                  ",
"                                                        *XjXxXxXlXfXfXyX=XH.h.5.5.p.k.!.'.{.                                    ",
"                                                        jXxXlXlXfXtXwX{.h.6..... . . .} *.                                      ",
"                                                        xXzXlXfXyX-X{.h.6...` ` ' P E                                           ",
"                                                      fXxXlXgXeX;X{.j.6.| ` ( J u                                               ",
"                                                      kXxXjXtX3X{.H.h.*.` P u                                                   ",
"                                                      xXxXtX4X$X{.H.h.6.(                                                       ",
"                                                      xXjXeX<X X'.h.| [ _                                                       ",
"                                                    sXkXdX3X X[.'._.%.f                                                         ",
"                                                    8XdXwX5X.X&X(._.h._                                                         ",
"                                                      8XwX X[.)._.l.h.%.(                                                       ",
"                                                      >X-X X).(.b.l.h.6.                                                        ",
"                                                      >XwX=X[./._._.h.                                                          ",
"                                                      *X8X-X{.G.h.                                                              ",
"                                                        *X,X                                                                    ",
"                                                                                                                                ",
"                                                                                                                                "
};
