/* XPM */
static char *player_collec_1[] = {
/* columns rows colors chars-per-pixel */
"64 64 239 2 ",
"   c None",
".  c #070707",
"X  c #0C0A0A",
"o  c #151414",
"O  c #1C1B1B",
"+  c #1C1413",
"@  c #140E0D",
"#  c #221E1D",
"$  c #291918",
"%  c #321D1C",
"&  c #32221F",
"*  c #311D20",
"=  c #242222",
"-  c #2C2624",
";  c #2D2A2A",
":  c #2B2827",
">  c #3B2622",
",  c #332926",
"<  c #3C2925",
"1  c #342C2A",
"2  c #3C2D2B",
"3  c #342523",
"4  c #3C312D",
"5  c #34312E",
"6  c #343232",
"7  c #3B3534",
"8  c #3C3938",
"9  c #322F30",
"0  c #432A24",
"q  c #442E2A",
"w  c #4A2F2A",
"e  c #462824",
"r  c #44322D",
"t  c #4C332D",
"y  c #4C3027",
"u  c #55342C",
"i  c #443533",
"p  c #4B3532",
"a  c #4B3934",
"s  c #433C3B",
"d  c #483A38",
"f  c #523532",
"g  c #533B34",
"h  c #5A3C34",
"j  c #533E3A",
"k  c #5E3C39",
"l  c #522F2B",
"z  c #643B37",
"x  c #61352D",
"c  c #4B413D",
"v  c #45413E",
"b  c #56413B",
"n  c #5B423C",
"m  c #5D4238",
"M  c #64433D",
"N  c #6C453C",
"B  c #68453A",
"V  c #74453C",
"C  c #683B44",
"Z  c #4C4542",
"A  c #4D4A4B",
"S  c #484544",
"D  c #544542",
"F  c #524D4B",
"G  c #5A4944",
"H  c #5D534C",
"J  c #56514C",
"K  c #545253",
"L  c #5C5A5B",
"P  c #595555",
"I  c #644542",
"U  c #644A44",
"Y  c #6C4A44",
"T  c #6A4B48",
"R  c #764B47",
"E  c #64524B",
"W  c #6B534C",
"Q  c #73544E",
"!  c #7D534B",
"~  c #74594D",
"^  c #775549",
"/  c #635B55",
"(  c #635D5C",
")  c #6A5754",
"_  c #735C54",
"`  c #7C5D53",
"'  c #775956",
"]  c #6B635D",
"[  c #75625A",
"{  c #79645B",
"}  c #5D5D63",
"|  c #705E60",
" . c #646264",
".. c #6D6965",
"X. c #656569",
"o. c #6A6869",
"O. c #796964",
"+. c #79736E",
"@. c #6C6D72",
"#. c #737274",
"$. c #7B7A7C",
"%. c #787678",
"&. c #726F72",
"*. c #854D47",
"=. c #84534B",
"-. c #86554B",
";. c #835B55",
":. c #8A5B54",
">. c #865857",
",. c #945C55",
"<. c #83645B",
"1. c #8B645B",
"2. c #88675A",
"3. c #94645C",
"4. c #9A655B",
"5. c #925D66",
"6. c #8B6663",
"7. c #836B64",
"8. c #8B6C64",
"9. c #856A67",
"0. c #946B63",
"q. c #9B6C64",
"w. c #976969",
"e. c #8D7265",
"r. c #85726B",
"t. c #8C746C",
"y. c #89786A",
"u. c #947466",
"i. c #93746D",
"p. c #9B736B",
"a. c #947A6D",
"s. c #9B786B",
"d. c #867975",
"f. c #937B74",
"g. c #9C7C74",
"h. c #9B7C7B",
"j. c #987776",
"k. c #906C71",
"l. c #A26D63",
"z. c #A6746B",
"x. c #A37A73",
"c. c #A47C7D",
"v. c #AA7C77",
"b. c #B27F78",
"n. c #A86975",
"m. c #88837D",
"M. c #9B827C",
"N. c #998276",
"B. c #A4806C",
"V. c #A38374",
"C. c #A3837B",
"Z. c #A4897D",
"A. c #AA8C7E",
"S. c #AA8477",
"D. c #B2847D",
"F. c #B28D7B",
"G. c #B5907E",
"H. c #7B7C82",
"J. c #8D7F84",
"K. c #AB7A81",
"L. c #858382",
"P. c #898582",
"I. c #8B8A8B",
"U. c #85868A",
"Y. c #988985",
"T. c #98938C",
"R. c #878B94",
"E. c #8E929A",
"W. c #979696",
"Q. c #938F91",
"!. c #A28482",
"~. c #AC8C83",
"^. c #A78A87",
"/. c #B28A84",
"(. c #B68988",
"). c #AC938A",
"_. c #AC9489",
"`. c #B4948C",
"'. c #B89588",
"]. c #AA9997",
"[. c #B49C93",
"{. c #BC9C93",
"}. c #B89695",
"|. c #BE8F92",
" X c #BCA298",
".X c #A9A196",
"XX c #969BA3",
"oX c #A4A2A2",
"OX c #BBA9A8",
"+X c #C3968A",
"@X c #C4998B",
"#X c #C39C94",
"$X c #C99D94",
"%X c #C59D98",
"&X c #C08F87",
"*X c #CBA295",
"=X c #C3A49B",
"-X c #CDA49A",
";X c #C8A89C",
":X c #D2A99D",
">X c #C4A08F",
",X c #C89FA2",
"<X c #C5AAA4",
"1X c #CBABA3",
"2X c #CBA7A6",
"3X c #D2ACA3",
"4X c #D4ABAA",
"5X c #CDB1A6",
"6X c #CDB4AC",
"7X c #D3B2A5",
"8X c #D9B2A6",
"9X c #D4B4AB",
"0X c #DAB5AB",
"qX c #DCB9AD",
"wX c #D4B9AE",
"eX c #C9B5B4",
"rX c #D5B4B2",
"tX c #DCBCB3",
"yX c #DCBCB9",
"uX c #D5BAB5",
"iX c #CFADB0",
"pX c #E2BDB4",
"aX c #E1BBBC",
"sX c #E0BCAE",
"dX c #DDC2BC",
"fX c #E5C4BB",
"gX c #EAC5BC",
"hX c #E6C4B9",
"jX c #D8C3C2",
"kX c #E4C9C5",
"lX c #EBCBC4",
"zX c #EBCECC",
"xX c #E7CAC6",
"cX c #F1CFCB",
"vX c #ECD1CC",
"bX c #F1D1CE",
"nX c #ECD3D2",
"mX c #F3D4D2",
"MX c #F4D9D7",
/* pixels */
"                                                      L.L.U.U.U.W.W.oXXXW.W.oX                                                  ",
"                                                E.U.#.@.%.U.H.U.E.XXXXE.E.XXE.E.Q.Q.                                            ",
"                                          U.U.H.@.@.X.X.%.%.H.U.U.R.E.H.U.XXR.H.$.$.U.                                          ",
"                                      $. .X.@.} P P @.X.X.o.&.$.H.$.$. .J.E.H.#.#.%.@.$.W.                                      ",
"                                    o.L P L P A S S K ( ..d.Q.W.].oXW.P.Q.U.( L  .@.X.X.$.Q.                                    ",
"                                P. .P } P A s F _ O.O.h.T.].OXeXuXjXeXeXOX].I.+.F A P  .o.$.                                    ",
"                              I...P P L A F +.).[.[. X<XeXuXdXjXnXnXzXxXjXuXuXOXj.) s A X.%.P.                                  ",
"                            T.+.P L  .L ..^.<X5X7XwXyXfXxXzXzXvXmXMXmXnXxXvXxXxXuX[.O.s P #.$.Q.                                ",
"                          ].m.L S P  .+.[.5X7X0XtXfXxXxXxXxXxXmXmXmXmXmXmXmXMXMXnXxX<XO.Z L o.$.W.                              ",
"                          T...v 8 L +.[.;X:X:X8XpXxXlXlXxXxXvXbXbXcXcXbXbXbXmXMXMXMXzX1XO.Z L #.L.                              ",
"                          d./ 5 S  .^.-X*X:X:X:X8XpXfXlXlXlXxXcXcXcXcXxXcXcXcXcXbXMXMXxX<X_ L o.#.U.                            ",
"                        m.O.F 6 F d.[.>X*X*X:X3X0XqXpXfXfXfXfXgXlXxXlXgXgXgXgXlXlXvXvXnXxX).(  .L #.W.                          ",
"                        +...7 6 ( ~.'.'.@X*X:X3X8X0XpXfXxXgXfXfXfXfXgXgXgXgXgXgXgXlXlXlXvXwX..( L L L.                          ",
"                      m.O.A - 8 r.'.'.'.+X+X+X$X:X8X0XpXpXpXfXfXpXhXgXfXgXfXpXpXpXpXhXfXfXdXY.K ( F ..W.                        ",
"                    .Xm.J : = F M.'.G.G.'.+X$X:X3X3X8X0X0XtXqXqX0XqXsXqX0X0X0XqXsXpXhXqXqXtX<X/ P F ( P.W.                      ",
"                    T.+.8 O : _ A.G.G.'.+X$X$X$X-X-X3X9X9X0X7X3X3X8X8X8X8X8X8X8X8X8XqXtX9X9XwXd.A F K +.Q.Q.                    ",
"                    d.F # O 6 [ S.F.F.F.@X$X*X*X-X$X+X*X-X3X3X9X0X0X0X0X0X0X0XqXqXpXtX7X9X7X9X[.K Z P ( d.Q.                    ",
"                    O., O = , [ V.S.S.F.$X;X;X3X3X3X3X3X3X3X3X3X3X3X-X-X3X8X8X0X0XqXtXwX9X9X7X=X] 7 F K o.m.                    ",
"                    H # = = , _ B.B.S.'.[.=X-X3X9X0X9X9X7X3X3X3X3X7X7X0XtXtXtXdXdXtXtXwX9X7X1X X[ : 7 P L #.U.                  ",
"                    4 = O O , ~ s.B.A.`.[. X<XiXrXrXrXrX9X9X9X7X9X9XwX0XwXrXrXrX6X6X6XwXwX5X;X`.) = = 6 A  .L.                  ",
"                    , = O O , ~ u.B.~.).^.^.`.`.`.{.<X1X1XiX1X2X1X1X1X<X`.M.h.h.M.M.M.).<X5X;X`.H # O = 6 A #.                  ",
"                    5 = O O , ~ u.V.g.7.{ [ ) ) _ 7.j.(.}.$X%X%X$X[./.i.' W G D D H W r.).=X;X~.F O O = 8 P o.                  ",
"                  / : O o O , <.u.i.W a r 2 , > , 2 j ;.x./.`.'./.D.p.Q I j p r p n E E t.[.;X).b O o O : 6 S ..                ",
"                  F = O O o i u.a._ a r q < > > & > < h ;.x.x.S.x.q.! n h h M ^ <.8.j.j.7.`.1X X) O o o = 6 S L                 ",
"                  v = O o O F V.a.b q h l y y y l y e w N 1.4.q.4.:.N z N N N N -.3.g.).^.[.5X5Xd.= o o O : , F                 ",
"                  F : O O = ) A.a.h e w e e y y q y w e h -.3.4.0.1.N N Y N N z x B =.p.). X6X6XP.6 O O O = o 7                 ",
"                    H = O : { ~.g.n y y w a i 7 , > e e e ! v.D.~.<.z V N ` 8.j.6.V V -.Z. X6XwXP.6 = O O O o 6                 ",
"                      4 # : 7.~.N.~ m h > 2 s # = > % e e ` {.iX=XR z z k D i d ' 1.-.-.V. X6X9XY.7 = = - o X 6                 ",
"                      h > , 8.A.Z.i.` Y M R ) i d T z Y T 8.<XyXiX>.V z ) Z O - j N 3.u.C. X5X7XY.7 4 < $ X o s                 ",
"                        h 4 e.~.`.).s.0.u.0.6.6.1.>.;.<.7.g.<XyXrXv.3.0.p.{ j E k.g.~.'.[.1X9X7XM.i W f # o O P                 ",
"                        ^ a 7.~. X=X`.A.s.1.-.! ! >.<.t.M.~.[.yXyX[.i.3.p.w.i.j.~.=X1X1X9XtXwX5XM.F j.Y # o -                   ",
"                      e.^ a <.~.[.=X=X[.Z.u.<.` ` t.j.~././.}.rXyX2X`.:.*.,.q.z.D.[.1XwXfXfXtX5XY.W S.` # o 7                   ",
"                    H { B r { Z.`.=X1X1X X~.C.M.C.).`.(./.(.}.rXpX7XiX`.:.V R :.0.~.1XtXfXfXtX5XY.N l.<.o # A                   ",
"            / Z c c c ` V r ~ g.A.'.$X-X1X<X=X=X%X$X'./.(.(.|.7XaXqXiXiX=X~.C.~.[.2X9XtXtXqX3X1XM.Y 4.<.# 7                     ",
"            { H G D s 8.1.h W u.x.D.D.'.=X1X2X2X%X}.c.x.(.(.+X4XaXyX7X2X3X3X1X3X3X9XqX0X9X9X1X;Xr.-.l.i.8 H                     ",
"          [ O./ { H / N.V.U U 1.p.s.x.D.'.$X$X'.(.l.3.v.(.(.(.3X4X7XrX}.&X$X3X:X3X3X3X1X1X1X1X X7.3.D.^.H                       ",
"            { [       a.g._ G <.1.3.q.x.D.D.D.b.4.V >.c./.}.,X3X4X,XiX,Xz.b.+X$X$X$X$X=X=X=X1X X{ p.$XY.d.                      ",
"            7.[         a.1.E ` ^ >.3.q.z.z.l.4.R R >.p.q.c.(.(.$X2X2X2Xb.4.z.(.(.(.'.$X X[.=X[._ `. Xm.                        ",
"            y.          a.1._ Q Y Y ! :.3.3.,.*.-.0.0.V l z *.-.,.x.0.z.(.4.4.z.b.D.F.'.`.~.`.).t.=X]./ ....                    ",
"                        e.<._ W m h M R -.-.*.*.3.v.j.I % % y l u u e R (.x.-.,.l.z.x.D.C.s.A.[.).[.^.c F / #.                  ",
"                          >._ E m y f z N V R -.p.v.K.k.) p % > e f ' K.}./.-.V -.3.q.p.s.1.V.).`.'.r.s K ] +.                  ",
"                          W W E b a y h h M Y ! 0.j.h.h.f.Q p w k { J.}.}.(.6.h B ! >.1.8.<.N.).'.V.Z F +.m.L.                  ",
"                          4 i U b h h h h M I R ;.k.h.h.h.f.' Q 7.h.^.].].^.6.f l M Y >.1.1.N.~.2.h 6 ] m.P.P.                  ",
"                        v O = n j h h h M M I T Q 6.i.g.!.^.!.v.h.Y.^.).).!.f.E q h ^ ` 2.1.Z.M.7 # c d.m.P.L.                  ",
"                        5 = 5 b j a h b n I b j k Q <.1.>.>.p.c.~.~.^.!.M.j.9._ n M <.{ 2.e.Z.r., - ( m.m.P.L.                  ",
"                        5 c ] c h a j n n I j q r p e $ $ % e l l h ! 8.i.7._ _ W ^ 8.<.8.a.Z.E - 7 ..d.m.                      ",
"                          F ] Z a a j n n I G p < o X . . @ @ o @ X @ $ q I W W _ <.e.1.e.N.N.4 : A ..+.P.                      ",
"                                c y a j b n I n h > @ . . . . . . . . . * U Q W ` u.i.e.a.N.[ 5 J   d.+.                        ",
"                                i r a h h h n n I I f $ X . . . . . . % >.h.8.W ` t.i.e.a.j.] ]                                 ",
"                                  r r a a a j n T T R R z e % $ % e C w.K.!.i.Q Q 8.t.t.a.a.+.                                  ",
"                                  a 4 i a i a b Y R Y R >.5.5.5.n.n.K.K.!.!.t._ _ 7.t.a.j.                                      ",
"                                  j r r i i a b n Y Y h z z R >.>.-.>.0.g.v.t.[ [ 2.e.t.j.                                      ",
"                                  n p 2 i i a c b M Y k w > > > > q k 1.h.g.t.O._ { 7.t.j.                                      ",
"                                    h 2 r a a b G n M M k f p p f k R 6.i.f.t.O._ [ O.r.M.                                      ",
"                                    h 4 2 r p j G G j h M T Y Y R ` ;.6.O.7.f.7._ _ O.t.Y.                                      ",
"                                    h r , < 4 p G U G n Y ` >.>.;.i.j.f.7.t.i.7._ _ O.j.Y.                                      ",
"                                      r 2 , , , a U W U I Y R R >.6.i.h.j.j.i.[ W _ 9.h.                                        ",
"                                      y 2 , - - 2 n T U G I Y R ! ;.8.h.M.j.7.E ) O.t.M.                                        ",
"                                      h r , , - - 2 j n h h k z I I Q t.i.7.) H _ O.i.N.                                        ",
"                                        a 2 , , - - , r 2 2 2 p p d G Q _ E F ) _ <.j.e.                                        ",
"                                          r < , , : : : , , , 2 2 i j D c D H E _ 1.e.U                                         ",
"                                          e e > , , , , , 7 7 7 7 7 i s d F G U ~ <.Y <                                         ",
"                                          > e < > < 2 7 7 8 s s s s s d j j n M ^ U e                                           ",
"                                            < < < > < q i s s s s s s a y y m U n y %                                           "
};
