/* XPM */
static char *player_test_base[] = {
/* columns rows colors chars-per-pixel */
"64 64 225 2 ",
"   c None",
".  c #02011B",
"X  c #05081F",
"o  c #241A16",
"O  c #2B1E18",
"+  c #281D17",
"@  c #34241C",
"#  c #3B291F",
"$  c #39271E",
"%  c #2C201A",
"&  c #070828",
"*  c #030C32",
"=  c #161536",
"-  c #120B2F",
";  c #21193E",
":  c #29192E",
">  c #3A2A21",
",  c #3D252B",
"<  c #432E22",
"1  c #4F2F2F",
"2  c #453024",
"3  c #4C3325",
"4  c #4E3628",
"5  c #4F382A",
"6  c #513627",
"7  c #513728",
"8  c #543A2B",
"9  c #5C3D2C",
"0  c #442532",
"q  c #472735",
"w  c #542C3D",
"e  c #47323B",
"r  c #573938",
"t  c #673E3F",
"y  c #5D4333",
"u  c #5E402F",
"i  c #64402E",
"p  c #68422F",
"a  c #654431",
"s  c #6B4532",
"d  c #6A493B",
"f  c #744A35",
"g  c #7A4D36",
"h  c #764C37",
"j  c #7E513A",
"k  c #1A1A57",
"l  c #140A43",
"z  c #251C54",
"x  c #241A4D",
"c  c #29244A",
"v  c #322A44",
"b  c #2A2350",
"n  c #342659",
"m  c #3F335C",
"M  c #393254",
"N  c #3B2D65",
"B  c #332A6B",
"V  c #502E43",
"C  c #483747",
"Z  c #5D3845",
"A  c #463757",
"S  c #583C52",
"D  c #432E59",
"F  c #633848",
"G  c #683E53",
"H  c #43356B",
"J  c #483865",
"K  c #4D3C74",
"L  c #523B60",
"P  c #5A4347",
"I  c #564552",
"U  c #4C4556",
"Y  c #6B4442",
"T  c #694649",
"R  c #774948",
"E  c #795547",
"W  c #6B4652",
"Q  c #654B5D",
"!  c #714956",
"~  c #735456",
"^  c #74525A",
"/  c #7C5759",
"(  c #6E5853",
")  c #59466A",
"_  c #5A487A",
"`  c #484175",
"'  c #7B5461",
"]  c #7E5961",
"[  c #79596B",
"{  c #614D7E",
"}  c #6E527E",
"|  c #75597B",
" . c #6D506C",
".. c #786275",
"X. c #7C6164",
"o. c #82533A",
"O. c #8D593E",
"+. c #88543A",
"@. c #925A3E",
"#. c #8B5B42",
"$. c #925D41",
"%. c #995F41",
"&. c #845B59",
"*. c #80575B",
"=. c #9B6244",
"-. c #976143",
";. c #9C7155",
":. c #8C6858",
">. c #A16546",
",. c #A87756",
"<. c #BC7550",
"1. c #B9724E",
"2. c #865968",
"3. c #945B67",
"4. c #824E64",
"5. c #8C6B65",
"6. c #85626C",
"7. c #866869",
"8. c #93646E",
"9. c #96696A",
"0. c #836C7B",
"q. c #8A697A",
"w. c #946472",
"e. c #9A6B76",
"r. c #897476",
"t. c #967473",
"y. c #957B7A",
"u. c #9C7B7E",
"i. c #9A7377",
"p. c #A57777",
"a. c #A06974",
"s. c #B4835F",
"d. c #99807E",
"f. c #B78966",
"g. c #A8837C",
"h. c #BF916E",
"j. c #C6805A",
"k. c #C99974",
"l. c #D69C73",
"z. c #C6936D",
"x. c #D4A47E",
"c. c #735589",
"v. c #7D6387",
"b. c #856789",
"n. c #977889",
"m. c #926E8B",
"M. c #A57E85",
"N. c #A17D8B",
"B. c #AB7883",
"V. c #AA7B8B",
"C. c #9C8381",
"Z. c #A48582",
"A. c #AB8482",
"S. c #AC838C",
"D. c #AC8C8C",
"F. c #A5858A",
"G. c #B38283",
"H. c #B3848A",
"J. c #BA8D8C",
"K. c #B78B89",
"L. c #B4928D",
"P. c #BB928F",
"I. c #AB8592",
"U. c #BB8B95",
"Y. c #B28C93",
"T. c #AD9497",
"R. c #BA9393",
"E. c #BC929A",
"W. c #BA9B9B",
"Q. c #B69798",
"!. c #AC918C",
"~. c #BDA099",
"^. c #B69BA8",
"/. c #A88CA7",
"(. c #BFA6A1",
"). c #C49D9A",
"_. c #CC9D9C",
"`. c #C49996",
"'. c #D9AB83",
"]. c #CBA39C",
"[. c #C4A69D",
"{. c #D0A79F",
"}. c #E6B68C",
"|. c #E6B489",
" X c #E8B98F",
".X c #C99BA2",
"XX c #C6A3A1",
"oX c #CDA3A3",
"OX c #CDAAA6",
"+X c #C8A9A7",
"@X c #D4A4A4",
"#X c #D4ABA5",
"$X c #DAAAA6",
"%X c #D5ADAA",
"&X c #DAADA9",
"*X c #D4A7AA",
"=X c #D4B3AE",
"-X c #DAB3AC",
";X c #D6B1A7",
":X c #CCA8B2",
">X c #DCB4B1",
",X c #DCBAB3",
"<X c #DABCB9",
"1X c #D7B6B4",
"2X c #CAB2B2",
"3X c #E3B4AE",
"4X c #E3B5B2",
"5X c #E2BBB5",
"6X c #E3BEBB",
"7X c #EBBDBD",
"8X c #E2AEA9",
"9X c #F3C59B",
"0X c #DDC2BB",
"qX c #E3C2BC",
"wX c #E9C3BE",
"eX c #E1C1B5",
"rX c #E6C5C2",
"tX c #EAC6C3",
"yX c #E4C9C3",
"uX c #EBCAC4",
"iX c #ECCCCA",
"pX c #F1CBC6",
"aX c #EDD3CC",
"sX c #F1D5D1",
"dX c #EFD2CF",
/* pixels */
"                                                         .....0.0...) J                                                         ",
"                                                    ( d.T.R.).`.R.Y.n.0.) v                                                     ",
"                                                  7.W.%X,X3X8X$X@X_.E.I.n.} D =                                                 ",
"                                                r.XX,X6X6X5X4X3X&XXX_.E.N.b.c.L ;                                               ",
"                                              0.XX,XwXtXtXwX7X4X$X@X_.`.S.m.v.c.m                                               ",
"                                              T.-XwXiXdXiXtXwX5X&X#X{.`.Y.n.b.c.) c                                             ",
"                                            r.].-XrXdXsXaXtXtX5X-X&X].`.R.N.b.} _ M =                                           ",
"                                            y.{.5XyXaXsXaXtXwX5X-X-X#X].).S.q.| _ D = *                                         ",
"                                          U n.%X6XyXaXaXaXyX6X,X5X6X,X#X].I.q.| _ N - &                                         ",
"                                          U d.#X6XiXaXaXaXtX6X5X5XwX-X#X).S.N.v._ n & &                                         ",
"                                          C y.#XwXiXyX0X0X=X-X%X#XXX).L.A.Z.F.b._ n & X                                         ",
"                                        v U C.;X,X+XL.g.5.&.p.].`.i.&.d 9 P P A H H = . .                                       ",
"                                          e !.,X[.y.t./ R R 9.&X`.&.Y Y r r , : n K ; .                                         ",
"                                          e W.eX~.Z.5.T 8 Y 9.5X,X7.t W 1 , 0 V L _ c .                                         ",
"                                          C W.wX0X(.).R.A.A.XXtXwX9.*.i.t.] T ~ | { b & *                                       ",
"                                          T W.wXwXwXrX%XG.P.wXpXrXM.2.8.p.p.u.M.n.{ b -                                         ",
"                                          &.!.<XyXtX1X[.].5XtXtXrXE.3.i.p.g.XXW.n._ k l                                         ",
"                                          7.D.1XwXyX0XwXtXwXwXtXiX.X2.w.J.`.XXF...` k k                                         ",
"                                          7.D.OX,XwXrXpX$XK.,X7X7XU.2.4.B.J.J.q.| K z x                                         ",
"                                        /.N.Q.OX,X,XwX4XK._.@XG.H.2.Z F w.G.A.q. .K z z                                         ",
"                                          ^.R.XX-X,X6X@X_.5X,X).t.~ w G 2.p.p.6. .H B                                           ",
"                                          :XW.~.%X3X-XOX,X,X1X1XW.XXi.6.' 8.e.[ ) H B                                           ",
"                                            ^.W.OX1X=XOX*X*XoX`.U.H.e.2.' 2.8.[ ) m N                                           ",
"                                              W.[.2X:XoXJ.B.9.3.3.R F w F ~ 6.[ ) m                                             ",
"                                              T.~.+XXXP.Z.W.XX@XB.a.3.! W ' 6. .) N                                             ",
"                                                ^.~.).L.[.=X%XR.p.i.w.^ ' ' ] Q L N                                             ",
"                                                  W.W.J.].#X%XXX).H.i.' ! W ! I A n                                             ",
"                                                  T.Q.J.].@X-X,XXXU.B.2.! G S S D                                               ",
"                                                    A.J.R.XX%XXXR.S.w.! Z w V D                                                 ",
"                                                      5./ i.S.M.e.2.W r 0 q V                                                   ",
"                                                      ~ T W ] ! F Z 1 q 0                                                       ",
"                                                    f 9 / t.n.r.~ Z r r                                                         ",
"                                                  f $.o.j 5.u.y.X.T R #.=.>.                                                    ",
"                                                  s o.j o.d 7.r.( h =.@.=.>.-.                                                  ",
"                                                  8 9 a j s d 7.E o.>.O.o.O.O.                                                  ",
"                                                  < < < s o.h E #.>.=.s p f j                                                   ",
"                                                9 p 9 @ 6 s j O.$.$.o.6 8 f O.                                                  ",
"                                                f o.f   # 9 f O.j f s   f >.<.                                                  ",
"                                                @.o.p   @ 9 f j o.g p     O.1.                                                  ",
"                                              #.,.=.    @ 9 f j j g s     p <.j.                                                ",
"                                              ;.x.z.    # 9 f j o.o.g     s j.l.                                                ",
"                                              ,.'.      2 s j #.O.O.@.      l.|.                                                ",
"                                              k.}.      < s j ;.#.%.j       h.|.                                                ",
"                                              '.}.    % 2 4 8 u a s a 9     f.}.                                                ",
"                                              x.9X    @ 4 4 6 9 p s s 9        X                                                ",
"                                              h. X    @ 5 3 < 3 3 9 a 9     '.9X                                                ",
"                                              s.x.    @ 8 8 # o @ 8 a 9     '. X                                                ",
"                                              f.      # 8 8 #   + 3 p 9     z.l.                                                ",
"                                              f.      # 8 3 <   o < 9 9       f.                                                ",
"                                                      # 6 3     o # 8 9                                                         ",
"                                                      # 6 3       @ 6 8                                                         ",
"                                                      @ 3 3       O 3 8                                                         ",
"                                                      O < 3       o # 3                                                         ",
"                                                      O <         o @ <                                                         ",
"                                                      # 3 8       o # 6                                                         ",
"                                                      # 6 8       O 2 9                                                         ",
"                                                      < d         > 3 9                                                         ",
"                                                      ,.f.        8 ;.                                                          ",
"                                                      y y           y                                                           ",
"                                                      > 2           >                                                           ",
"                                                      3 $           @ 8                                                         ",
"                                                    5 <             @ 8                                                         ",
"                                                  2 9                 8 8                                                       ",
"                                                  2 4                 < 8                                                       "
};
